G04 #@! TF.GenerationSoftware,KiCad,Pcbnew,(5.1.4)-1*
G04 #@! TF.CreationDate,2020-03-02T21:45:15-05:00*
G04 #@! TF.ProjectId,PCB_2020,5043425f-3230-4323-902e-6b696361645f,rev?*
G04 #@! TF.SameCoordinates,Original*
G04 #@! TF.FileFunction,Other,User*
%FSLAX46Y46*%
G04 Gerber Fmt 4.6, Leading zero omitted, Abs format (unit mm)*
G04 Created by KiCad (PCBNEW (5.1.4)-1) date 2020-03-02 21:45:15*
%MOMM*%
%LPD*%
G04 APERTURE LIST*
%ADD10C,0.120000*%
G04 APERTURE END LIST*
D10*
X167256000Y-70916000D02*
X167256000Y-96316000D01*
X169796000Y-70916000D02*
X167256000Y-70916000D01*
X169796000Y-96316000D02*
X169796000Y-70916000D01*
X167256000Y-96316000D02*
X169796000Y-96316000D01*
X167256000Y-97840000D02*
X167256000Y-118160000D01*
X169796000Y-97840000D02*
X167256000Y-97840000D01*
X169796000Y-118160000D02*
X169796000Y-97840000D01*
X167256000Y-118160000D02*
X169796000Y-118160000D01*
X169796000Y-141020000D02*
X167256000Y-141020000D01*
X169796000Y-120700000D02*
X169796000Y-141020000D01*
X167256000Y-120700000D02*
X169796000Y-120700000D01*
X167256000Y-141020000D02*
X167256000Y-120700000D01*
X167256000Y-146100000D02*
X212976000Y-146100000D01*
X167256000Y-151180000D02*
X167256000Y-146100000D01*
X212976000Y-151180000D02*
X167256000Y-151180000D01*
X212976000Y-146100000D02*
X212976000Y-151180000D01*
X218056000Y-125272000D02*
X215008000Y-125272000D01*
X218056000Y-146100000D02*
X218056000Y-125272000D01*
X215008000Y-146100000D02*
X218056000Y-146100000D01*
X215008000Y-125272000D02*
X215008000Y-146100000D01*
X218056000Y-123240000D02*
X218056000Y-102920000D01*
X215008000Y-123240000D02*
X218056000Y-123240000D01*
X215008000Y-102920000D02*
X215008000Y-123240000D01*
X218056000Y-102920000D02*
X215008000Y-102920000D01*
X218056000Y-100380000D02*
X218056000Y-80060000D01*
X215008000Y-100380000D02*
X218056000Y-100380000D01*
X215008000Y-80060000D02*
X215008000Y-100380000D01*
X218056000Y-80060000D02*
X215008000Y-80060000D01*
M02*
