M48
; DRILL file {KiCad (5.1.4)-1} date 1/27/2020 9:00:14 PM
; FORMAT={-:-/ absolute / inch / decimal}
; #@! TF.CreationDate,2020-01-27T21:00:14-05:00
; #@! TF.GenerationSoftware,Kicad,Pcbnew,(5.1.4)-1
; #@! TF.FileFunction,Plated,1,2,PTH
FMAT,2
INCH
T1C0.0157
T2C0.0315
T3C0.0394
T4C0.0433
T5C0.0440
T6C0.0472
T7C0.0551
%
G90
G05
T1
X4.5079Y-4.8425
X4.7746Y-4.1929
X4.9803Y-2.1752
X4.9803Y-4.6654
X5.0Y-3.878
X5.7677Y-3.7106
X5.9787Y-4.5866
X6.8147Y-2.3586
X7.3031Y-3.3661
X7.3809Y-3.5236
X7.4114Y-2.2283
T2
X5.4724Y-4.124
X5.4724Y-4.224
X5.4724Y-4.324
X5.4724Y-4.424
X5.7724Y-4.124
X5.7724Y-4.224
X5.7724Y-4.324
X5.7724Y-4.424
T3
X4.6911Y-1.9977
X4.6911Y-2.0977
X4.6911Y-2.1977
X4.6911Y-2.2977
X4.6911Y-2.3977
X4.6911Y-2.4977
X4.6911Y-2.5977
X4.6911Y-2.6977
X4.6911Y-2.7977
X4.6911Y-2.8977
X4.6911Y-4.4977
X4.6911Y-4.5977
X4.6911Y-4.6977
X4.6911Y-4.7977
X4.6911Y-4.8977
X4.6911Y-4.9977
X4.6911Y-5.0977
X4.6911Y-5.1977
X4.6911Y-5.2977
X4.6911Y-5.3977
X4.7911Y-1.9977
X4.7911Y-2.0977
X4.7911Y-2.1977
X4.7911Y-2.2977
X4.7911Y-2.3977
X4.7911Y-2.4977
X4.7911Y-2.5977
X4.7911Y-2.6977
X4.7911Y-2.7977
X4.7911Y-2.8977
X4.7911Y-4.4977
X4.7911Y-4.5977
X4.7911Y-4.6977
X4.7911Y-4.7977
X4.7911Y-4.8977
X4.7911Y-4.9977
X4.7911Y-5.0977
X4.7911Y-5.1977
X4.7911Y-5.2977
X4.7911Y-5.3977
X6.3911Y-1.9977
X6.3911Y-2.0977
X6.3911Y-2.1977
X6.3911Y-2.2977
X6.3911Y-2.3977
X6.3911Y-2.4977
X6.3911Y-2.5977
X6.3911Y-2.6977
X6.3911Y-2.7977
X6.3911Y-2.8977
X6.3911Y-4.4977
X6.3911Y-4.5977
X6.3911Y-4.6977
X6.3911Y-4.7977
X6.3911Y-4.8977
X6.3911Y-4.9977
X6.3911Y-5.0977
X6.3911Y-5.1977
X6.3911Y-5.2977
X6.3911Y-5.3977
X6.4911Y-1.9977
X6.4911Y-2.0977
X6.4911Y-2.1977
X6.4911Y-2.2977
X6.4911Y-2.3977
X6.4911Y-2.4977
X6.4911Y-2.5977
X6.4911Y-2.6977
X6.4911Y-2.7977
X6.4911Y-2.8977
X6.4911Y-4.4977
X6.4911Y-4.5977
X6.4911Y-4.6977
X6.4911Y-4.7977
X6.4911Y-4.8977
X6.4911Y-4.9977
X6.4911Y-5.0977
X6.4911Y-5.1977
X6.4911Y-5.2977
X6.4911Y-5.3977
X3.952Y-3.2909
X4.0508Y-3.2909
X4.152Y-3.2909
X4.205Y-3.9909
X4.252Y-3.2909
X4.3428Y-3.9909
T4
X6.8996Y-4.7638
X6.9996Y-4.7638
X7.0996Y-4.7638
X6.9291Y-3.1988
X7.0291Y-3.1988
X7.1291Y-3.1988
X6.9291Y-3.5236
X7.0291Y-3.5236
X7.1291Y-3.5236
X6.8996Y-4.9902
X6.9996Y-4.9902
X7.0996Y-4.9902
X6.9291Y-2.9035
X7.0291Y-2.9035
X7.1291Y-2.9035
X6.8996Y-4.5276
X6.9996Y-4.5276
X7.0996Y-4.5276
T5
X3.8701Y-2.8839
X3.9701Y-2.8839
X4.0701Y-2.8839
X4.1701Y-2.8839
X4.2701Y-2.8839
X4.3701Y-2.8839
T6
X6.9094Y-1.9555
X6.9094Y-2.0555
X6.9094Y-2.1555
X7.4508Y-4.6016
X7.4508Y-4.7016
X7.4508Y-4.8016
X7.4508Y-4.9016
T7
X3.9272Y-5.0689
X3.9272Y-5.2854
X7.3524Y-3.7894
X7.3524Y-4.0059
X7.4114Y-2.2283
X7.4114Y-2.3937
X7.4114Y-2.5591
X7.4114Y-2.7244
X7.628Y-2.2283
X7.628Y-2.3937
X7.628Y-2.5591
X7.628Y-2.7244
T0
M30
