G04 #@! TF.GenerationSoftware,KiCad,Pcbnew,(5.1.4)-1*
G04 #@! TF.CreationDate,2020-03-02T21:45:15-05:00*
G04 #@! TF.ProjectId,PCB_2020,5043425f-3230-4323-902e-6b696361645f,rev?*
G04 #@! TF.SameCoordinates,Original*
G04 #@! TF.FileFunction,Other,User*
%FSLAX46Y46*%
G04 Gerber Fmt 4.6, Leading zero omitted, Abs format (unit mm)*
G04 Created by KiCad (PCBNEW (5.1.4)-1) date 2020-03-02 21:45:15*
%MOMM*%
%LPD*%
G04 APERTURE LIST*
%ADD10C,0.050000*%
G04 APERTURE END LIST*
D10*
X250850000Y-120200000D02*
X247150000Y-120200000D01*
X250850000Y-118300000D02*
X250850000Y-120200000D01*
X247150000Y-118300000D02*
X250850000Y-118300000D01*
X247150000Y-120200000D02*
X247150000Y-118300000D01*
X250850000Y-115950000D02*
X247150000Y-115950000D01*
X250850000Y-114050000D02*
X250850000Y-115950000D01*
X247150000Y-114050000D02*
X250850000Y-114050000D01*
X247150000Y-115950000D02*
X247150000Y-114050000D01*
X238700000Y-101400000D02*
X238700000Y-105100000D01*
X236800000Y-101400000D02*
X238700000Y-101400000D01*
X236800000Y-105100000D02*
X236800000Y-101400000D01*
X238700000Y-105100000D02*
X236800000Y-105100000D01*
X236800000Y-109600000D02*
X236800000Y-105900000D01*
X238700000Y-109600000D02*
X236800000Y-109600000D01*
X238700000Y-105900000D02*
X238700000Y-109600000D01*
X236800000Y-105900000D02*
X238700000Y-105900000D01*
X250850000Y-124450000D02*
X247150000Y-124450000D01*
X250850000Y-122550000D02*
X250850000Y-124450000D01*
X247150000Y-122550000D02*
X250850000Y-122550000D01*
X247150000Y-124450000D02*
X247150000Y-122550000D01*
X261800000Y-142600000D02*
X261800000Y-138900000D01*
X263700000Y-142600000D02*
X261800000Y-142600000D01*
X263700000Y-138900000D02*
X263700000Y-142600000D01*
X261800000Y-138900000D02*
X263700000Y-138900000D01*
X228100000Y-133710000D02*
X228100000Y-144210000D01*
X233010000Y-133710000D02*
X228100000Y-133710000D01*
X233010000Y-144210000D02*
X233010000Y-133710000D01*
X228100000Y-144210000D02*
X233010000Y-144210000D01*
X236100000Y-133710000D02*
X236100000Y-144210000D01*
X241010000Y-133710000D02*
X236100000Y-133710000D01*
X241010000Y-144210000D02*
X241010000Y-133710000D01*
X236100000Y-144210000D02*
X241010000Y-144210000D01*
X224350000Y-117710000D02*
X224350000Y-128210000D01*
X229260000Y-117710000D02*
X224350000Y-117710000D01*
X229260000Y-128210000D02*
X229260000Y-117710000D01*
X224350000Y-128210000D02*
X229260000Y-128210000D01*
X232600000Y-117710000D02*
X232600000Y-128210000D01*
X237510000Y-117710000D02*
X232600000Y-117710000D01*
X237510000Y-128210000D02*
X237510000Y-117710000D01*
X232600000Y-128210000D02*
X237510000Y-128210000D01*
X240350000Y-117460000D02*
X240350000Y-127960000D01*
X245260000Y-117460000D02*
X240350000Y-117460000D01*
X245260000Y-127960000D02*
X245260000Y-117460000D01*
X240350000Y-127960000D02*
X245260000Y-127960000D01*
X260650000Y-144290000D02*
X260650000Y-133790000D01*
X255740000Y-144290000D02*
X260650000Y-144290000D01*
X255740000Y-133790000D02*
X255740000Y-144290000D01*
X260650000Y-133790000D02*
X255740000Y-133790000D01*
X233900000Y-98150000D02*
X223200000Y-98150000D01*
X233900000Y-108950000D02*
X233900000Y-98150000D01*
X223200000Y-108950000D02*
X233900000Y-108950000D01*
X223200000Y-98150000D02*
X223200000Y-108950000D01*
X164950000Y-76000000D02*
G75*
G03X164950000Y-76000000I-2950000J0D01*
G01*
X258950000Y-76000000D02*
G75*
G03X258950000Y-76000000I-2950000J0D01*
G01*
X164950000Y-153000000D02*
G75*
G03X164950000Y-153000000I-2950000J0D01*
G01*
X258950000Y-153000000D02*
G75*
G03X258950000Y-153000000I-2950000J0D01*
G01*
X245550000Y-85000000D02*
X251950000Y-85000000D01*
X245550000Y-73000000D02*
X245550000Y-85000000D01*
X251950000Y-73000000D02*
X245550000Y-73000000D01*
X251950000Y-85000000D02*
X251950000Y-73000000D01*
X241550000Y-90150000D02*
X241550000Y-101350000D01*
X241550000Y-101350000D02*
X245150000Y-101350000D01*
X245150000Y-101350000D02*
X245150000Y-90150000D01*
X245150000Y-90150000D02*
X241550000Y-90150000D01*
X262900000Y-94900000D02*
X262900000Y-87850000D01*
X259300000Y-94900000D02*
X262900000Y-94900000D01*
X259300000Y-87850000D02*
X259300000Y-94900000D01*
X262900000Y-87850000D02*
X259300000Y-87850000D01*
X252170000Y-145140000D02*
X252170000Y-133980000D01*
X245370000Y-145140000D02*
X252170000Y-145140000D01*
X245370000Y-133980000D02*
X245370000Y-145140000D01*
X252170000Y-133980000D02*
X245370000Y-133980000D01*
X224400000Y-80620000D02*
X233020000Y-80620000D01*
X224400000Y-73820000D02*
X224400000Y-80620000D01*
X233020000Y-73820000D02*
X224400000Y-73820000D01*
X233020000Y-80620000D02*
X233020000Y-73820000D01*
X236800000Y-85000000D02*
X243200000Y-85000000D01*
X236800000Y-73000000D02*
X236800000Y-85000000D01*
X243200000Y-73000000D02*
X236800000Y-73000000D01*
X243200000Y-85000000D02*
X243200000Y-73000000D01*
X251750000Y-111950000D02*
X251750000Y-130950000D01*
X263750000Y-111950000D02*
X251750000Y-111950000D01*
X263750000Y-130950000D02*
X263750000Y-111950000D01*
X251750000Y-130950000D02*
X263750000Y-130950000D01*
X220300000Y-108100000D02*
X220300000Y-104400000D01*
X222200000Y-108100000D02*
X220300000Y-108100000D01*
X222200000Y-104400000D02*
X222200000Y-108100000D01*
X220300000Y-104400000D02*
X222200000Y-104400000D01*
X257400000Y-131300000D02*
X261100000Y-131300000D01*
X257400000Y-133200000D02*
X257400000Y-131300000D01*
X261100000Y-133200000D02*
X257400000Y-133200000D01*
X261100000Y-131300000D02*
X261100000Y-133200000D01*
X239550000Y-107325000D02*
X239550000Y-103625000D01*
X241450000Y-107325000D02*
X239550000Y-107325000D01*
X241450000Y-103625000D02*
X241450000Y-107325000D01*
X239550000Y-103625000D02*
X241450000Y-103625000D01*
M02*
