G04 #@! TF.GenerationSoftware,KiCad,Pcbnew,(5.1.4)-1*
G04 #@! TF.CreationDate,2020-01-23T15:54:48-05:00*
G04 #@! TF.ProjectId,PCB_2020,5043425f-3230-4323-902e-6b696361645f,rev?*
G04 #@! TF.SameCoordinates,Original*
G04 #@! TF.FileFunction,Paste,Top*
G04 #@! TF.FilePolarity,Positive*
%FSLAX46Y46*%
G04 Gerber Fmt 4.6, Leading zero omitted, Abs format (unit mm)*
G04 Created by KiCad (PCBNEW (5.1.4)-1) date 2020-01-23 15:54:48*
%MOMM*%
%LPD*%
G04 APERTURE LIST*
%ADD10C,0.100000*%
%ADD11C,1.150000*%
G04 APERTURE END LIST*
D10*
G36*
X185974505Y-82951204D02*
G01*
X185998773Y-82954804D01*
X186022572Y-82960765D01*
X186045671Y-82969030D01*
X186067850Y-82979520D01*
X186088893Y-82992132D01*
X186108599Y-83006747D01*
X186126777Y-83023223D01*
X186143253Y-83041401D01*
X186157868Y-83061107D01*
X186170480Y-83082150D01*
X186180970Y-83104329D01*
X186189235Y-83127428D01*
X186195196Y-83151227D01*
X186198796Y-83175495D01*
X186200000Y-83199999D01*
X186200000Y-83850001D01*
X186198796Y-83874505D01*
X186195196Y-83898773D01*
X186189235Y-83922572D01*
X186180970Y-83945671D01*
X186170480Y-83967850D01*
X186157868Y-83988893D01*
X186143253Y-84008599D01*
X186126777Y-84026777D01*
X186108599Y-84043253D01*
X186088893Y-84057868D01*
X186067850Y-84070480D01*
X186045671Y-84080970D01*
X186022572Y-84089235D01*
X185998773Y-84095196D01*
X185974505Y-84098796D01*
X185950001Y-84100000D01*
X185049999Y-84100000D01*
X185025495Y-84098796D01*
X185001227Y-84095196D01*
X184977428Y-84089235D01*
X184954329Y-84080970D01*
X184932150Y-84070480D01*
X184911107Y-84057868D01*
X184891401Y-84043253D01*
X184873223Y-84026777D01*
X184856747Y-84008599D01*
X184842132Y-83988893D01*
X184829520Y-83967850D01*
X184819030Y-83945671D01*
X184810765Y-83922572D01*
X184804804Y-83898773D01*
X184801204Y-83874505D01*
X184800000Y-83850001D01*
X184800000Y-83199999D01*
X184801204Y-83175495D01*
X184804804Y-83151227D01*
X184810765Y-83127428D01*
X184819030Y-83104329D01*
X184829520Y-83082150D01*
X184842132Y-83061107D01*
X184856747Y-83041401D01*
X184873223Y-83023223D01*
X184891401Y-83006747D01*
X184911107Y-82992132D01*
X184932150Y-82979520D01*
X184954329Y-82969030D01*
X184977428Y-82960765D01*
X185001227Y-82954804D01*
X185025495Y-82951204D01*
X185049999Y-82950000D01*
X185950001Y-82950000D01*
X185974505Y-82951204D01*
X185974505Y-82951204D01*
G37*
D11*
X185500000Y-83525000D03*
D10*
G36*
X185974505Y-80901204D02*
G01*
X185998773Y-80904804D01*
X186022572Y-80910765D01*
X186045671Y-80919030D01*
X186067850Y-80929520D01*
X186088893Y-80942132D01*
X186108599Y-80956747D01*
X186126777Y-80973223D01*
X186143253Y-80991401D01*
X186157868Y-81011107D01*
X186170480Y-81032150D01*
X186180970Y-81054329D01*
X186189235Y-81077428D01*
X186195196Y-81101227D01*
X186198796Y-81125495D01*
X186200000Y-81149999D01*
X186200000Y-81800001D01*
X186198796Y-81824505D01*
X186195196Y-81848773D01*
X186189235Y-81872572D01*
X186180970Y-81895671D01*
X186170480Y-81917850D01*
X186157868Y-81938893D01*
X186143253Y-81958599D01*
X186126777Y-81976777D01*
X186108599Y-81993253D01*
X186088893Y-82007868D01*
X186067850Y-82020480D01*
X186045671Y-82030970D01*
X186022572Y-82039235D01*
X185998773Y-82045196D01*
X185974505Y-82048796D01*
X185950001Y-82050000D01*
X185049999Y-82050000D01*
X185025495Y-82048796D01*
X185001227Y-82045196D01*
X184977428Y-82039235D01*
X184954329Y-82030970D01*
X184932150Y-82020480D01*
X184911107Y-82007868D01*
X184891401Y-81993253D01*
X184873223Y-81976777D01*
X184856747Y-81958599D01*
X184842132Y-81938893D01*
X184829520Y-81917850D01*
X184819030Y-81895671D01*
X184810765Y-81872572D01*
X184804804Y-81848773D01*
X184801204Y-81824505D01*
X184800000Y-81800001D01*
X184800000Y-81149999D01*
X184801204Y-81125495D01*
X184804804Y-81101227D01*
X184810765Y-81077428D01*
X184819030Y-81054329D01*
X184829520Y-81032150D01*
X184842132Y-81011107D01*
X184856747Y-80991401D01*
X184873223Y-80973223D01*
X184891401Y-80956747D01*
X184911107Y-80942132D01*
X184932150Y-80929520D01*
X184954329Y-80919030D01*
X184977428Y-80910765D01*
X185001227Y-80904804D01*
X185025495Y-80901204D01*
X185049999Y-80900000D01*
X185950001Y-80900000D01*
X185974505Y-80901204D01*
X185974505Y-80901204D01*
G37*
D11*
X185500000Y-81475000D03*
D10*
G36*
X187824505Y-86801204D02*
G01*
X187848773Y-86804804D01*
X187872572Y-86810765D01*
X187895671Y-86819030D01*
X187917850Y-86829520D01*
X187938893Y-86842132D01*
X187958599Y-86856747D01*
X187976777Y-86873223D01*
X187993253Y-86891401D01*
X188007868Y-86911107D01*
X188020480Y-86932150D01*
X188030970Y-86954329D01*
X188039235Y-86977428D01*
X188045196Y-87001227D01*
X188048796Y-87025495D01*
X188050000Y-87049999D01*
X188050000Y-87950001D01*
X188048796Y-87974505D01*
X188045196Y-87998773D01*
X188039235Y-88022572D01*
X188030970Y-88045671D01*
X188020480Y-88067850D01*
X188007868Y-88088893D01*
X187993253Y-88108599D01*
X187976777Y-88126777D01*
X187958599Y-88143253D01*
X187938893Y-88157868D01*
X187917850Y-88170480D01*
X187895671Y-88180970D01*
X187872572Y-88189235D01*
X187848773Y-88195196D01*
X187824505Y-88198796D01*
X187800001Y-88200000D01*
X187149999Y-88200000D01*
X187125495Y-88198796D01*
X187101227Y-88195196D01*
X187077428Y-88189235D01*
X187054329Y-88180970D01*
X187032150Y-88170480D01*
X187011107Y-88157868D01*
X186991401Y-88143253D01*
X186973223Y-88126777D01*
X186956747Y-88108599D01*
X186942132Y-88088893D01*
X186929520Y-88067850D01*
X186919030Y-88045671D01*
X186910765Y-88022572D01*
X186904804Y-87998773D01*
X186901204Y-87974505D01*
X186900000Y-87950001D01*
X186900000Y-87049999D01*
X186901204Y-87025495D01*
X186904804Y-87001227D01*
X186910765Y-86977428D01*
X186919030Y-86954329D01*
X186929520Y-86932150D01*
X186942132Y-86911107D01*
X186956747Y-86891401D01*
X186973223Y-86873223D01*
X186991401Y-86856747D01*
X187011107Y-86842132D01*
X187032150Y-86829520D01*
X187054329Y-86819030D01*
X187077428Y-86810765D01*
X187101227Y-86804804D01*
X187125495Y-86801204D01*
X187149999Y-86800000D01*
X187800001Y-86800000D01*
X187824505Y-86801204D01*
X187824505Y-86801204D01*
G37*
D11*
X187475000Y-87500000D03*
D10*
G36*
X189874505Y-86801204D02*
G01*
X189898773Y-86804804D01*
X189922572Y-86810765D01*
X189945671Y-86819030D01*
X189967850Y-86829520D01*
X189988893Y-86842132D01*
X190008599Y-86856747D01*
X190026777Y-86873223D01*
X190043253Y-86891401D01*
X190057868Y-86911107D01*
X190070480Y-86932150D01*
X190080970Y-86954329D01*
X190089235Y-86977428D01*
X190095196Y-87001227D01*
X190098796Y-87025495D01*
X190100000Y-87049999D01*
X190100000Y-87950001D01*
X190098796Y-87974505D01*
X190095196Y-87998773D01*
X190089235Y-88022572D01*
X190080970Y-88045671D01*
X190070480Y-88067850D01*
X190057868Y-88088893D01*
X190043253Y-88108599D01*
X190026777Y-88126777D01*
X190008599Y-88143253D01*
X189988893Y-88157868D01*
X189967850Y-88170480D01*
X189945671Y-88180970D01*
X189922572Y-88189235D01*
X189898773Y-88195196D01*
X189874505Y-88198796D01*
X189850001Y-88200000D01*
X189199999Y-88200000D01*
X189175495Y-88198796D01*
X189151227Y-88195196D01*
X189127428Y-88189235D01*
X189104329Y-88180970D01*
X189082150Y-88170480D01*
X189061107Y-88157868D01*
X189041401Y-88143253D01*
X189023223Y-88126777D01*
X189006747Y-88108599D01*
X188992132Y-88088893D01*
X188979520Y-88067850D01*
X188969030Y-88045671D01*
X188960765Y-88022572D01*
X188954804Y-87998773D01*
X188951204Y-87974505D01*
X188950000Y-87950001D01*
X188950000Y-87049999D01*
X188951204Y-87025495D01*
X188954804Y-87001227D01*
X188960765Y-86977428D01*
X188969030Y-86954329D01*
X188979520Y-86932150D01*
X188992132Y-86911107D01*
X189006747Y-86891401D01*
X189023223Y-86873223D01*
X189041401Y-86856747D01*
X189061107Y-86842132D01*
X189082150Y-86829520D01*
X189104329Y-86819030D01*
X189127428Y-86810765D01*
X189151227Y-86804804D01*
X189175495Y-86801204D01*
X189199999Y-86800000D01*
X189850001Y-86800000D01*
X189874505Y-86801204D01*
X189874505Y-86801204D01*
G37*
D11*
X189525000Y-87500000D03*
D10*
G36*
X152334505Y-106667204D02*
G01*
X152358773Y-106670804D01*
X152382572Y-106676765D01*
X152405671Y-106685030D01*
X152427850Y-106695520D01*
X152448893Y-106708132D01*
X152468599Y-106722747D01*
X152486777Y-106739223D01*
X152503253Y-106757401D01*
X152517868Y-106777107D01*
X152530480Y-106798150D01*
X152540970Y-106820329D01*
X152549235Y-106843428D01*
X152555196Y-106867227D01*
X152558796Y-106891495D01*
X152560000Y-106915999D01*
X152560000Y-107566001D01*
X152558796Y-107590505D01*
X152555196Y-107614773D01*
X152549235Y-107638572D01*
X152540970Y-107661671D01*
X152530480Y-107683850D01*
X152517868Y-107704893D01*
X152503253Y-107724599D01*
X152486777Y-107742777D01*
X152468599Y-107759253D01*
X152448893Y-107773868D01*
X152427850Y-107786480D01*
X152405671Y-107796970D01*
X152382572Y-107805235D01*
X152358773Y-107811196D01*
X152334505Y-107814796D01*
X152310001Y-107816000D01*
X151409999Y-107816000D01*
X151385495Y-107814796D01*
X151361227Y-107811196D01*
X151337428Y-107805235D01*
X151314329Y-107796970D01*
X151292150Y-107786480D01*
X151271107Y-107773868D01*
X151251401Y-107759253D01*
X151233223Y-107742777D01*
X151216747Y-107724599D01*
X151202132Y-107704893D01*
X151189520Y-107683850D01*
X151179030Y-107661671D01*
X151170765Y-107638572D01*
X151164804Y-107614773D01*
X151161204Y-107590505D01*
X151160000Y-107566001D01*
X151160000Y-106915999D01*
X151161204Y-106891495D01*
X151164804Y-106867227D01*
X151170765Y-106843428D01*
X151179030Y-106820329D01*
X151189520Y-106798150D01*
X151202132Y-106777107D01*
X151216747Y-106757401D01*
X151233223Y-106739223D01*
X151251401Y-106722747D01*
X151271107Y-106708132D01*
X151292150Y-106695520D01*
X151314329Y-106685030D01*
X151337428Y-106676765D01*
X151361227Y-106670804D01*
X151385495Y-106667204D01*
X151409999Y-106666000D01*
X152310001Y-106666000D01*
X152334505Y-106667204D01*
X152334505Y-106667204D01*
G37*
D11*
X151860000Y-107241000D03*
D10*
G36*
X152334505Y-108717204D02*
G01*
X152358773Y-108720804D01*
X152382572Y-108726765D01*
X152405671Y-108735030D01*
X152427850Y-108745520D01*
X152448893Y-108758132D01*
X152468599Y-108772747D01*
X152486777Y-108789223D01*
X152503253Y-108807401D01*
X152517868Y-108827107D01*
X152530480Y-108848150D01*
X152540970Y-108870329D01*
X152549235Y-108893428D01*
X152555196Y-108917227D01*
X152558796Y-108941495D01*
X152560000Y-108965999D01*
X152560000Y-109616001D01*
X152558796Y-109640505D01*
X152555196Y-109664773D01*
X152549235Y-109688572D01*
X152540970Y-109711671D01*
X152530480Y-109733850D01*
X152517868Y-109754893D01*
X152503253Y-109774599D01*
X152486777Y-109792777D01*
X152468599Y-109809253D01*
X152448893Y-109823868D01*
X152427850Y-109836480D01*
X152405671Y-109846970D01*
X152382572Y-109855235D01*
X152358773Y-109861196D01*
X152334505Y-109864796D01*
X152310001Y-109866000D01*
X151409999Y-109866000D01*
X151385495Y-109864796D01*
X151361227Y-109861196D01*
X151337428Y-109855235D01*
X151314329Y-109846970D01*
X151292150Y-109836480D01*
X151271107Y-109823868D01*
X151251401Y-109809253D01*
X151233223Y-109792777D01*
X151216747Y-109774599D01*
X151202132Y-109754893D01*
X151189520Y-109733850D01*
X151179030Y-109711671D01*
X151170765Y-109688572D01*
X151164804Y-109664773D01*
X151161204Y-109640505D01*
X151160000Y-109616001D01*
X151160000Y-108965999D01*
X151161204Y-108941495D01*
X151164804Y-108917227D01*
X151170765Y-108893428D01*
X151179030Y-108870329D01*
X151189520Y-108848150D01*
X151202132Y-108827107D01*
X151216747Y-108807401D01*
X151233223Y-108789223D01*
X151251401Y-108772747D01*
X151271107Y-108758132D01*
X151292150Y-108745520D01*
X151314329Y-108735030D01*
X151337428Y-108726765D01*
X151361227Y-108720804D01*
X151385495Y-108717204D01*
X151409999Y-108716000D01*
X152310001Y-108716000D01*
X152334505Y-108717204D01*
X152334505Y-108717204D01*
G37*
D11*
X151860000Y-109291000D03*
D10*
G36*
X152334505Y-113552204D02*
G01*
X152358773Y-113555804D01*
X152382572Y-113561765D01*
X152405671Y-113570030D01*
X152427850Y-113580520D01*
X152448893Y-113593132D01*
X152468599Y-113607747D01*
X152486777Y-113624223D01*
X152503253Y-113642401D01*
X152517868Y-113662107D01*
X152530480Y-113683150D01*
X152540970Y-113705329D01*
X152549235Y-113728428D01*
X152555196Y-113752227D01*
X152558796Y-113776495D01*
X152560000Y-113800999D01*
X152560000Y-114451001D01*
X152558796Y-114475505D01*
X152555196Y-114499773D01*
X152549235Y-114523572D01*
X152540970Y-114546671D01*
X152530480Y-114568850D01*
X152517868Y-114589893D01*
X152503253Y-114609599D01*
X152486777Y-114627777D01*
X152468599Y-114644253D01*
X152448893Y-114658868D01*
X152427850Y-114671480D01*
X152405671Y-114681970D01*
X152382572Y-114690235D01*
X152358773Y-114696196D01*
X152334505Y-114699796D01*
X152310001Y-114701000D01*
X151409999Y-114701000D01*
X151385495Y-114699796D01*
X151361227Y-114696196D01*
X151337428Y-114690235D01*
X151314329Y-114681970D01*
X151292150Y-114671480D01*
X151271107Y-114658868D01*
X151251401Y-114644253D01*
X151233223Y-114627777D01*
X151216747Y-114609599D01*
X151202132Y-114589893D01*
X151189520Y-114568850D01*
X151179030Y-114546671D01*
X151170765Y-114523572D01*
X151164804Y-114499773D01*
X151161204Y-114475505D01*
X151160000Y-114451001D01*
X151160000Y-113800999D01*
X151161204Y-113776495D01*
X151164804Y-113752227D01*
X151170765Y-113728428D01*
X151179030Y-113705329D01*
X151189520Y-113683150D01*
X151202132Y-113662107D01*
X151216747Y-113642401D01*
X151233223Y-113624223D01*
X151251401Y-113607747D01*
X151271107Y-113593132D01*
X151292150Y-113580520D01*
X151314329Y-113570030D01*
X151337428Y-113561765D01*
X151361227Y-113555804D01*
X151385495Y-113552204D01*
X151409999Y-113551000D01*
X152310001Y-113551000D01*
X152334505Y-113552204D01*
X152334505Y-113552204D01*
G37*
D11*
X151860000Y-114126000D03*
D10*
G36*
X152334505Y-111502204D02*
G01*
X152358773Y-111505804D01*
X152382572Y-111511765D01*
X152405671Y-111520030D01*
X152427850Y-111530520D01*
X152448893Y-111543132D01*
X152468599Y-111557747D01*
X152486777Y-111574223D01*
X152503253Y-111592401D01*
X152517868Y-111612107D01*
X152530480Y-111633150D01*
X152540970Y-111655329D01*
X152549235Y-111678428D01*
X152555196Y-111702227D01*
X152558796Y-111726495D01*
X152560000Y-111750999D01*
X152560000Y-112401001D01*
X152558796Y-112425505D01*
X152555196Y-112449773D01*
X152549235Y-112473572D01*
X152540970Y-112496671D01*
X152530480Y-112518850D01*
X152517868Y-112539893D01*
X152503253Y-112559599D01*
X152486777Y-112577777D01*
X152468599Y-112594253D01*
X152448893Y-112608868D01*
X152427850Y-112621480D01*
X152405671Y-112631970D01*
X152382572Y-112640235D01*
X152358773Y-112646196D01*
X152334505Y-112649796D01*
X152310001Y-112651000D01*
X151409999Y-112651000D01*
X151385495Y-112649796D01*
X151361227Y-112646196D01*
X151337428Y-112640235D01*
X151314329Y-112631970D01*
X151292150Y-112621480D01*
X151271107Y-112608868D01*
X151251401Y-112594253D01*
X151233223Y-112577777D01*
X151216747Y-112559599D01*
X151202132Y-112539893D01*
X151189520Y-112518850D01*
X151179030Y-112496671D01*
X151170765Y-112473572D01*
X151164804Y-112449773D01*
X151161204Y-112425505D01*
X151160000Y-112401001D01*
X151160000Y-111750999D01*
X151161204Y-111726495D01*
X151164804Y-111702227D01*
X151170765Y-111678428D01*
X151179030Y-111655329D01*
X151189520Y-111633150D01*
X151202132Y-111612107D01*
X151216747Y-111592401D01*
X151233223Y-111574223D01*
X151251401Y-111557747D01*
X151271107Y-111543132D01*
X151292150Y-111530520D01*
X151314329Y-111520030D01*
X151337428Y-111511765D01*
X151361227Y-111505804D01*
X151385495Y-111502204D01*
X151409999Y-111501000D01*
X152310001Y-111501000D01*
X152334505Y-111502204D01*
X152334505Y-111502204D01*
G37*
D11*
X151860000Y-112076000D03*
D10*
G36*
X183724505Y-66901204D02*
G01*
X183748773Y-66904804D01*
X183772572Y-66910765D01*
X183795671Y-66919030D01*
X183817850Y-66929520D01*
X183838893Y-66942132D01*
X183858599Y-66956747D01*
X183876777Y-66973223D01*
X183893253Y-66991401D01*
X183907868Y-67011107D01*
X183920480Y-67032150D01*
X183930970Y-67054329D01*
X183939235Y-67077428D01*
X183945196Y-67101227D01*
X183948796Y-67125495D01*
X183950000Y-67149999D01*
X183950000Y-67800001D01*
X183948796Y-67824505D01*
X183945196Y-67848773D01*
X183939235Y-67872572D01*
X183930970Y-67895671D01*
X183920480Y-67917850D01*
X183907868Y-67938893D01*
X183893253Y-67958599D01*
X183876777Y-67976777D01*
X183858599Y-67993253D01*
X183838893Y-68007868D01*
X183817850Y-68020480D01*
X183795671Y-68030970D01*
X183772572Y-68039235D01*
X183748773Y-68045196D01*
X183724505Y-68048796D01*
X183700001Y-68050000D01*
X182799999Y-68050000D01*
X182775495Y-68048796D01*
X182751227Y-68045196D01*
X182727428Y-68039235D01*
X182704329Y-68030970D01*
X182682150Y-68020480D01*
X182661107Y-68007868D01*
X182641401Y-67993253D01*
X182623223Y-67976777D01*
X182606747Y-67958599D01*
X182592132Y-67938893D01*
X182579520Y-67917850D01*
X182569030Y-67895671D01*
X182560765Y-67872572D01*
X182554804Y-67848773D01*
X182551204Y-67824505D01*
X182550000Y-67800001D01*
X182550000Y-67149999D01*
X182551204Y-67125495D01*
X182554804Y-67101227D01*
X182560765Y-67077428D01*
X182569030Y-67054329D01*
X182579520Y-67032150D01*
X182592132Y-67011107D01*
X182606747Y-66991401D01*
X182623223Y-66973223D01*
X182641401Y-66956747D01*
X182661107Y-66942132D01*
X182682150Y-66929520D01*
X182704329Y-66919030D01*
X182727428Y-66910765D01*
X182751227Y-66904804D01*
X182775495Y-66901204D01*
X182799999Y-66900000D01*
X183700001Y-66900000D01*
X183724505Y-66901204D01*
X183724505Y-66901204D01*
G37*
D11*
X183250000Y-67475000D03*
D10*
G36*
X183724505Y-68951204D02*
G01*
X183748773Y-68954804D01*
X183772572Y-68960765D01*
X183795671Y-68969030D01*
X183817850Y-68979520D01*
X183838893Y-68992132D01*
X183858599Y-69006747D01*
X183876777Y-69023223D01*
X183893253Y-69041401D01*
X183907868Y-69061107D01*
X183920480Y-69082150D01*
X183930970Y-69104329D01*
X183939235Y-69127428D01*
X183945196Y-69151227D01*
X183948796Y-69175495D01*
X183950000Y-69199999D01*
X183950000Y-69850001D01*
X183948796Y-69874505D01*
X183945196Y-69898773D01*
X183939235Y-69922572D01*
X183930970Y-69945671D01*
X183920480Y-69967850D01*
X183907868Y-69988893D01*
X183893253Y-70008599D01*
X183876777Y-70026777D01*
X183858599Y-70043253D01*
X183838893Y-70057868D01*
X183817850Y-70070480D01*
X183795671Y-70080970D01*
X183772572Y-70089235D01*
X183748773Y-70095196D01*
X183724505Y-70098796D01*
X183700001Y-70100000D01*
X182799999Y-70100000D01*
X182775495Y-70098796D01*
X182751227Y-70095196D01*
X182727428Y-70089235D01*
X182704329Y-70080970D01*
X182682150Y-70070480D01*
X182661107Y-70057868D01*
X182641401Y-70043253D01*
X182623223Y-70026777D01*
X182606747Y-70008599D01*
X182592132Y-69988893D01*
X182579520Y-69967850D01*
X182569030Y-69945671D01*
X182560765Y-69922572D01*
X182554804Y-69898773D01*
X182551204Y-69874505D01*
X182550000Y-69850001D01*
X182550000Y-69199999D01*
X182551204Y-69175495D01*
X182554804Y-69151227D01*
X182560765Y-69127428D01*
X182569030Y-69104329D01*
X182579520Y-69082150D01*
X182592132Y-69061107D01*
X182606747Y-69041401D01*
X182623223Y-69023223D01*
X182641401Y-69006747D01*
X182661107Y-68992132D01*
X182682150Y-68979520D01*
X182704329Y-68969030D01*
X182727428Y-68960765D01*
X182751227Y-68954804D01*
X182775495Y-68951204D01*
X182799999Y-68950000D01*
X183700001Y-68950000D01*
X183724505Y-68951204D01*
X183724505Y-68951204D01*
G37*
D11*
X183250000Y-69525000D03*
D10*
G36*
X178874505Y-67051204D02*
G01*
X178898773Y-67054804D01*
X178922572Y-67060765D01*
X178945671Y-67069030D01*
X178967850Y-67079520D01*
X178988893Y-67092132D01*
X179008599Y-67106747D01*
X179026777Y-67123223D01*
X179043253Y-67141401D01*
X179057868Y-67161107D01*
X179070480Y-67182150D01*
X179080970Y-67204329D01*
X179089235Y-67227428D01*
X179095196Y-67251227D01*
X179098796Y-67275495D01*
X179100000Y-67299999D01*
X179100000Y-68200001D01*
X179098796Y-68224505D01*
X179095196Y-68248773D01*
X179089235Y-68272572D01*
X179080970Y-68295671D01*
X179070480Y-68317850D01*
X179057868Y-68338893D01*
X179043253Y-68358599D01*
X179026777Y-68376777D01*
X179008599Y-68393253D01*
X178988893Y-68407868D01*
X178967850Y-68420480D01*
X178945671Y-68430970D01*
X178922572Y-68439235D01*
X178898773Y-68445196D01*
X178874505Y-68448796D01*
X178850001Y-68450000D01*
X178199999Y-68450000D01*
X178175495Y-68448796D01*
X178151227Y-68445196D01*
X178127428Y-68439235D01*
X178104329Y-68430970D01*
X178082150Y-68420480D01*
X178061107Y-68407868D01*
X178041401Y-68393253D01*
X178023223Y-68376777D01*
X178006747Y-68358599D01*
X177992132Y-68338893D01*
X177979520Y-68317850D01*
X177969030Y-68295671D01*
X177960765Y-68272572D01*
X177954804Y-68248773D01*
X177951204Y-68224505D01*
X177950000Y-68200001D01*
X177950000Y-67299999D01*
X177951204Y-67275495D01*
X177954804Y-67251227D01*
X177960765Y-67227428D01*
X177969030Y-67204329D01*
X177979520Y-67182150D01*
X177992132Y-67161107D01*
X178006747Y-67141401D01*
X178023223Y-67123223D01*
X178041401Y-67106747D01*
X178061107Y-67092132D01*
X178082150Y-67079520D01*
X178104329Y-67069030D01*
X178127428Y-67060765D01*
X178151227Y-67054804D01*
X178175495Y-67051204D01*
X178199999Y-67050000D01*
X178850001Y-67050000D01*
X178874505Y-67051204D01*
X178874505Y-67051204D01*
G37*
D11*
X178525000Y-67750000D03*
D10*
G36*
X176824505Y-67051204D02*
G01*
X176848773Y-67054804D01*
X176872572Y-67060765D01*
X176895671Y-67069030D01*
X176917850Y-67079520D01*
X176938893Y-67092132D01*
X176958599Y-67106747D01*
X176976777Y-67123223D01*
X176993253Y-67141401D01*
X177007868Y-67161107D01*
X177020480Y-67182150D01*
X177030970Y-67204329D01*
X177039235Y-67227428D01*
X177045196Y-67251227D01*
X177048796Y-67275495D01*
X177050000Y-67299999D01*
X177050000Y-68200001D01*
X177048796Y-68224505D01*
X177045196Y-68248773D01*
X177039235Y-68272572D01*
X177030970Y-68295671D01*
X177020480Y-68317850D01*
X177007868Y-68338893D01*
X176993253Y-68358599D01*
X176976777Y-68376777D01*
X176958599Y-68393253D01*
X176938893Y-68407868D01*
X176917850Y-68420480D01*
X176895671Y-68430970D01*
X176872572Y-68439235D01*
X176848773Y-68445196D01*
X176824505Y-68448796D01*
X176800001Y-68450000D01*
X176149999Y-68450000D01*
X176125495Y-68448796D01*
X176101227Y-68445196D01*
X176077428Y-68439235D01*
X176054329Y-68430970D01*
X176032150Y-68420480D01*
X176011107Y-68407868D01*
X175991401Y-68393253D01*
X175973223Y-68376777D01*
X175956747Y-68358599D01*
X175942132Y-68338893D01*
X175929520Y-68317850D01*
X175919030Y-68295671D01*
X175910765Y-68272572D01*
X175904804Y-68248773D01*
X175901204Y-68224505D01*
X175900000Y-68200001D01*
X175900000Y-67299999D01*
X175901204Y-67275495D01*
X175904804Y-67251227D01*
X175910765Y-67227428D01*
X175919030Y-67204329D01*
X175929520Y-67182150D01*
X175942132Y-67161107D01*
X175956747Y-67141401D01*
X175973223Y-67123223D01*
X175991401Y-67106747D01*
X176011107Y-67092132D01*
X176032150Y-67079520D01*
X176054329Y-67069030D01*
X176077428Y-67060765D01*
X176101227Y-67054804D01*
X176125495Y-67051204D01*
X176149999Y-67050000D01*
X176800001Y-67050000D01*
X176824505Y-67051204D01*
X176824505Y-67051204D01*
G37*
D11*
X176475000Y-67750000D03*
D10*
G36*
X126974505Y-52201204D02*
G01*
X126998773Y-52204804D01*
X127022572Y-52210765D01*
X127045671Y-52219030D01*
X127067850Y-52229520D01*
X127088893Y-52242132D01*
X127108599Y-52256747D01*
X127126777Y-52273223D01*
X127143253Y-52291401D01*
X127157868Y-52311107D01*
X127170480Y-52332150D01*
X127180970Y-52354329D01*
X127189235Y-52377428D01*
X127195196Y-52401227D01*
X127198796Y-52425495D01*
X127200000Y-52449999D01*
X127200000Y-53100001D01*
X127198796Y-53124505D01*
X127195196Y-53148773D01*
X127189235Y-53172572D01*
X127180970Y-53195671D01*
X127170480Y-53217850D01*
X127157868Y-53238893D01*
X127143253Y-53258599D01*
X127126777Y-53276777D01*
X127108599Y-53293253D01*
X127088893Y-53307868D01*
X127067850Y-53320480D01*
X127045671Y-53330970D01*
X127022572Y-53339235D01*
X126998773Y-53345196D01*
X126974505Y-53348796D01*
X126950001Y-53350000D01*
X126049999Y-53350000D01*
X126025495Y-53348796D01*
X126001227Y-53345196D01*
X125977428Y-53339235D01*
X125954329Y-53330970D01*
X125932150Y-53320480D01*
X125911107Y-53307868D01*
X125891401Y-53293253D01*
X125873223Y-53276777D01*
X125856747Y-53258599D01*
X125842132Y-53238893D01*
X125829520Y-53217850D01*
X125819030Y-53195671D01*
X125810765Y-53172572D01*
X125804804Y-53148773D01*
X125801204Y-53124505D01*
X125800000Y-53100001D01*
X125800000Y-52449999D01*
X125801204Y-52425495D01*
X125804804Y-52401227D01*
X125810765Y-52377428D01*
X125819030Y-52354329D01*
X125829520Y-52332150D01*
X125842132Y-52311107D01*
X125856747Y-52291401D01*
X125873223Y-52273223D01*
X125891401Y-52256747D01*
X125911107Y-52242132D01*
X125932150Y-52229520D01*
X125954329Y-52219030D01*
X125977428Y-52210765D01*
X126001227Y-52204804D01*
X126025495Y-52201204D01*
X126049999Y-52200000D01*
X126950001Y-52200000D01*
X126974505Y-52201204D01*
X126974505Y-52201204D01*
G37*
D11*
X126500000Y-52775000D03*
D10*
G36*
X126974505Y-50151204D02*
G01*
X126998773Y-50154804D01*
X127022572Y-50160765D01*
X127045671Y-50169030D01*
X127067850Y-50179520D01*
X127088893Y-50192132D01*
X127108599Y-50206747D01*
X127126777Y-50223223D01*
X127143253Y-50241401D01*
X127157868Y-50261107D01*
X127170480Y-50282150D01*
X127180970Y-50304329D01*
X127189235Y-50327428D01*
X127195196Y-50351227D01*
X127198796Y-50375495D01*
X127200000Y-50399999D01*
X127200000Y-51050001D01*
X127198796Y-51074505D01*
X127195196Y-51098773D01*
X127189235Y-51122572D01*
X127180970Y-51145671D01*
X127170480Y-51167850D01*
X127157868Y-51188893D01*
X127143253Y-51208599D01*
X127126777Y-51226777D01*
X127108599Y-51243253D01*
X127088893Y-51257868D01*
X127067850Y-51270480D01*
X127045671Y-51280970D01*
X127022572Y-51289235D01*
X126998773Y-51295196D01*
X126974505Y-51298796D01*
X126950001Y-51300000D01*
X126049999Y-51300000D01*
X126025495Y-51298796D01*
X126001227Y-51295196D01*
X125977428Y-51289235D01*
X125954329Y-51280970D01*
X125932150Y-51270480D01*
X125911107Y-51257868D01*
X125891401Y-51243253D01*
X125873223Y-51226777D01*
X125856747Y-51208599D01*
X125842132Y-51188893D01*
X125829520Y-51167850D01*
X125819030Y-51145671D01*
X125810765Y-51122572D01*
X125804804Y-51098773D01*
X125801204Y-51074505D01*
X125800000Y-51050001D01*
X125800000Y-50399999D01*
X125801204Y-50375495D01*
X125804804Y-50351227D01*
X125810765Y-50327428D01*
X125819030Y-50304329D01*
X125829520Y-50282150D01*
X125842132Y-50261107D01*
X125856747Y-50241401D01*
X125873223Y-50223223D01*
X125891401Y-50206747D01*
X125911107Y-50192132D01*
X125932150Y-50179520D01*
X125954329Y-50169030D01*
X125977428Y-50160765D01*
X126001227Y-50154804D01*
X126025495Y-50151204D01*
X126049999Y-50150000D01*
X126950001Y-50150000D01*
X126974505Y-50151204D01*
X126974505Y-50151204D01*
G37*
D11*
X126500000Y-50725000D03*
D10*
G36*
X126974505Y-115701204D02*
G01*
X126998773Y-115704804D01*
X127022572Y-115710765D01*
X127045671Y-115719030D01*
X127067850Y-115729520D01*
X127088893Y-115742132D01*
X127108599Y-115756747D01*
X127126777Y-115773223D01*
X127143253Y-115791401D01*
X127157868Y-115811107D01*
X127170480Y-115832150D01*
X127180970Y-115854329D01*
X127189235Y-115877428D01*
X127195196Y-115901227D01*
X127198796Y-115925495D01*
X127200000Y-115949999D01*
X127200000Y-116600001D01*
X127198796Y-116624505D01*
X127195196Y-116648773D01*
X127189235Y-116672572D01*
X127180970Y-116695671D01*
X127170480Y-116717850D01*
X127157868Y-116738893D01*
X127143253Y-116758599D01*
X127126777Y-116776777D01*
X127108599Y-116793253D01*
X127088893Y-116807868D01*
X127067850Y-116820480D01*
X127045671Y-116830970D01*
X127022572Y-116839235D01*
X126998773Y-116845196D01*
X126974505Y-116848796D01*
X126950001Y-116850000D01*
X126049999Y-116850000D01*
X126025495Y-116848796D01*
X126001227Y-116845196D01*
X125977428Y-116839235D01*
X125954329Y-116830970D01*
X125932150Y-116820480D01*
X125911107Y-116807868D01*
X125891401Y-116793253D01*
X125873223Y-116776777D01*
X125856747Y-116758599D01*
X125842132Y-116738893D01*
X125829520Y-116717850D01*
X125819030Y-116695671D01*
X125810765Y-116672572D01*
X125804804Y-116648773D01*
X125801204Y-116624505D01*
X125800000Y-116600001D01*
X125800000Y-115949999D01*
X125801204Y-115925495D01*
X125804804Y-115901227D01*
X125810765Y-115877428D01*
X125819030Y-115854329D01*
X125829520Y-115832150D01*
X125842132Y-115811107D01*
X125856747Y-115791401D01*
X125873223Y-115773223D01*
X125891401Y-115756747D01*
X125911107Y-115742132D01*
X125932150Y-115729520D01*
X125954329Y-115719030D01*
X125977428Y-115710765D01*
X126001227Y-115704804D01*
X126025495Y-115701204D01*
X126049999Y-115700000D01*
X126950001Y-115700000D01*
X126974505Y-115701204D01*
X126974505Y-115701204D01*
G37*
D11*
X126500000Y-116275000D03*
D10*
G36*
X126974505Y-113651204D02*
G01*
X126998773Y-113654804D01*
X127022572Y-113660765D01*
X127045671Y-113669030D01*
X127067850Y-113679520D01*
X127088893Y-113692132D01*
X127108599Y-113706747D01*
X127126777Y-113723223D01*
X127143253Y-113741401D01*
X127157868Y-113761107D01*
X127170480Y-113782150D01*
X127180970Y-113804329D01*
X127189235Y-113827428D01*
X127195196Y-113851227D01*
X127198796Y-113875495D01*
X127200000Y-113899999D01*
X127200000Y-114550001D01*
X127198796Y-114574505D01*
X127195196Y-114598773D01*
X127189235Y-114622572D01*
X127180970Y-114645671D01*
X127170480Y-114667850D01*
X127157868Y-114688893D01*
X127143253Y-114708599D01*
X127126777Y-114726777D01*
X127108599Y-114743253D01*
X127088893Y-114757868D01*
X127067850Y-114770480D01*
X127045671Y-114780970D01*
X127022572Y-114789235D01*
X126998773Y-114795196D01*
X126974505Y-114798796D01*
X126950001Y-114800000D01*
X126049999Y-114800000D01*
X126025495Y-114798796D01*
X126001227Y-114795196D01*
X125977428Y-114789235D01*
X125954329Y-114780970D01*
X125932150Y-114770480D01*
X125911107Y-114757868D01*
X125891401Y-114743253D01*
X125873223Y-114726777D01*
X125856747Y-114708599D01*
X125842132Y-114688893D01*
X125829520Y-114667850D01*
X125819030Y-114645671D01*
X125810765Y-114622572D01*
X125804804Y-114598773D01*
X125801204Y-114574505D01*
X125800000Y-114550001D01*
X125800000Y-113899999D01*
X125801204Y-113875495D01*
X125804804Y-113851227D01*
X125810765Y-113827428D01*
X125819030Y-113804329D01*
X125829520Y-113782150D01*
X125842132Y-113761107D01*
X125856747Y-113741401D01*
X125873223Y-113723223D01*
X125891401Y-113706747D01*
X125911107Y-113692132D01*
X125932150Y-113679520D01*
X125954329Y-113669030D01*
X125977428Y-113660765D01*
X126001227Y-113654804D01*
X126025495Y-113651204D01*
X126049999Y-113650000D01*
X126950001Y-113650000D01*
X126974505Y-113651204D01*
X126974505Y-113651204D01*
G37*
D11*
X126500000Y-114225000D03*
D10*
G36*
X121624505Y-108301204D02*
G01*
X121648773Y-108304804D01*
X121672572Y-108310765D01*
X121695671Y-108319030D01*
X121717850Y-108329520D01*
X121738893Y-108342132D01*
X121758599Y-108356747D01*
X121776777Y-108373223D01*
X121793253Y-108391401D01*
X121807868Y-108411107D01*
X121820480Y-108432150D01*
X121830970Y-108454329D01*
X121839235Y-108477428D01*
X121845196Y-108501227D01*
X121848796Y-108525495D01*
X121850000Y-108549999D01*
X121850000Y-109450001D01*
X121848796Y-109474505D01*
X121845196Y-109498773D01*
X121839235Y-109522572D01*
X121830970Y-109545671D01*
X121820480Y-109567850D01*
X121807868Y-109588893D01*
X121793253Y-109608599D01*
X121776777Y-109626777D01*
X121758599Y-109643253D01*
X121738893Y-109657868D01*
X121717850Y-109670480D01*
X121695671Y-109680970D01*
X121672572Y-109689235D01*
X121648773Y-109695196D01*
X121624505Y-109698796D01*
X121600001Y-109700000D01*
X120949999Y-109700000D01*
X120925495Y-109698796D01*
X120901227Y-109695196D01*
X120877428Y-109689235D01*
X120854329Y-109680970D01*
X120832150Y-109670480D01*
X120811107Y-109657868D01*
X120791401Y-109643253D01*
X120773223Y-109626777D01*
X120756747Y-109608599D01*
X120742132Y-109588893D01*
X120729520Y-109567850D01*
X120719030Y-109545671D01*
X120710765Y-109522572D01*
X120704804Y-109498773D01*
X120701204Y-109474505D01*
X120700000Y-109450001D01*
X120700000Y-108549999D01*
X120701204Y-108525495D01*
X120704804Y-108501227D01*
X120710765Y-108477428D01*
X120719030Y-108454329D01*
X120729520Y-108432150D01*
X120742132Y-108411107D01*
X120756747Y-108391401D01*
X120773223Y-108373223D01*
X120791401Y-108356747D01*
X120811107Y-108342132D01*
X120832150Y-108329520D01*
X120854329Y-108319030D01*
X120877428Y-108310765D01*
X120901227Y-108304804D01*
X120925495Y-108301204D01*
X120949999Y-108300000D01*
X121600001Y-108300000D01*
X121624505Y-108301204D01*
X121624505Y-108301204D01*
G37*
D11*
X121275000Y-109000000D03*
D10*
G36*
X119574505Y-108301204D02*
G01*
X119598773Y-108304804D01*
X119622572Y-108310765D01*
X119645671Y-108319030D01*
X119667850Y-108329520D01*
X119688893Y-108342132D01*
X119708599Y-108356747D01*
X119726777Y-108373223D01*
X119743253Y-108391401D01*
X119757868Y-108411107D01*
X119770480Y-108432150D01*
X119780970Y-108454329D01*
X119789235Y-108477428D01*
X119795196Y-108501227D01*
X119798796Y-108525495D01*
X119800000Y-108549999D01*
X119800000Y-109450001D01*
X119798796Y-109474505D01*
X119795196Y-109498773D01*
X119789235Y-109522572D01*
X119780970Y-109545671D01*
X119770480Y-109567850D01*
X119757868Y-109588893D01*
X119743253Y-109608599D01*
X119726777Y-109626777D01*
X119708599Y-109643253D01*
X119688893Y-109657868D01*
X119667850Y-109670480D01*
X119645671Y-109680970D01*
X119622572Y-109689235D01*
X119598773Y-109695196D01*
X119574505Y-109698796D01*
X119550001Y-109700000D01*
X118899999Y-109700000D01*
X118875495Y-109698796D01*
X118851227Y-109695196D01*
X118827428Y-109689235D01*
X118804329Y-109680970D01*
X118782150Y-109670480D01*
X118761107Y-109657868D01*
X118741401Y-109643253D01*
X118723223Y-109626777D01*
X118706747Y-109608599D01*
X118692132Y-109588893D01*
X118679520Y-109567850D01*
X118669030Y-109545671D01*
X118660765Y-109522572D01*
X118654804Y-109498773D01*
X118651204Y-109474505D01*
X118650000Y-109450001D01*
X118650000Y-108549999D01*
X118651204Y-108525495D01*
X118654804Y-108501227D01*
X118660765Y-108477428D01*
X118669030Y-108454329D01*
X118679520Y-108432150D01*
X118692132Y-108411107D01*
X118706747Y-108391401D01*
X118723223Y-108373223D01*
X118741401Y-108356747D01*
X118761107Y-108342132D01*
X118782150Y-108329520D01*
X118804329Y-108319030D01*
X118827428Y-108310765D01*
X118851227Y-108304804D01*
X118875495Y-108301204D01*
X118899999Y-108300000D01*
X119550001Y-108300000D01*
X119574505Y-108301204D01*
X119574505Y-108301204D01*
G37*
D11*
X119225000Y-109000000D03*
D10*
G36*
X114974505Y-120201204D02*
G01*
X114998773Y-120204804D01*
X115022572Y-120210765D01*
X115045671Y-120219030D01*
X115067850Y-120229520D01*
X115088893Y-120242132D01*
X115108599Y-120256747D01*
X115126777Y-120273223D01*
X115143253Y-120291401D01*
X115157868Y-120311107D01*
X115170480Y-120332150D01*
X115180970Y-120354329D01*
X115189235Y-120377428D01*
X115195196Y-120401227D01*
X115198796Y-120425495D01*
X115200000Y-120449999D01*
X115200000Y-121100001D01*
X115198796Y-121124505D01*
X115195196Y-121148773D01*
X115189235Y-121172572D01*
X115180970Y-121195671D01*
X115170480Y-121217850D01*
X115157868Y-121238893D01*
X115143253Y-121258599D01*
X115126777Y-121276777D01*
X115108599Y-121293253D01*
X115088893Y-121307868D01*
X115067850Y-121320480D01*
X115045671Y-121330970D01*
X115022572Y-121339235D01*
X114998773Y-121345196D01*
X114974505Y-121348796D01*
X114950001Y-121350000D01*
X114049999Y-121350000D01*
X114025495Y-121348796D01*
X114001227Y-121345196D01*
X113977428Y-121339235D01*
X113954329Y-121330970D01*
X113932150Y-121320480D01*
X113911107Y-121307868D01*
X113891401Y-121293253D01*
X113873223Y-121276777D01*
X113856747Y-121258599D01*
X113842132Y-121238893D01*
X113829520Y-121217850D01*
X113819030Y-121195671D01*
X113810765Y-121172572D01*
X113804804Y-121148773D01*
X113801204Y-121124505D01*
X113800000Y-121100001D01*
X113800000Y-120449999D01*
X113801204Y-120425495D01*
X113804804Y-120401227D01*
X113810765Y-120377428D01*
X113819030Y-120354329D01*
X113829520Y-120332150D01*
X113842132Y-120311107D01*
X113856747Y-120291401D01*
X113873223Y-120273223D01*
X113891401Y-120256747D01*
X113911107Y-120242132D01*
X113932150Y-120229520D01*
X113954329Y-120219030D01*
X113977428Y-120210765D01*
X114001227Y-120204804D01*
X114025495Y-120201204D01*
X114049999Y-120200000D01*
X114950001Y-120200000D01*
X114974505Y-120201204D01*
X114974505Y-120201204D01*
G37*
D11*
X114500000Y-120775000D03*
D10*
G36*
X114974505Y-118151204D02*
G01*
X114998773Y-118154804D01*
X115022572Y-118160765D01*
X115045671Y-118169030D01*
X115067850Y-118179520D01*
X115088893Y-118192132D01*
X115108599Y-118206747D01*
X115126777Y-118223223D01*
X115143253Y-118241401D01*
X115157868Y-118261107D01*
X115170480Y-118282150D01*
X115180970Y-118304329D01*
X115189235Y-118327428D01*
X115195196Y-118351227D01*
X115198796Y-118375495D01*
X115200000Y-118399999D01*
X115200000Y-119050001D01*
X115198796Y-119074505D01*
X115195196Y-119098773D01*
X115189235Y-119122572D01*
X115180970Y-119145671D01*
X115170480Y-119167850D01*
X115157868Y-119188893D01*
X115143253Y-119208599D01*
X115126777Y-119226777D01*
X115108599Y-119243253D01*
X115088893Y-119257868D01*
X115067850Y-119270480D01*
X115045671Y-119280970D01*
X115022572Y-119289235D01*
X114998773Y-119295196D01*
X114974505Y-119298796D01*
X114950001Y-119300000D01*
X114049999Y-119300000D01*
X114025495Y-119298796D01*
X114001227Y-119295196D01*
X113977428Y-119289235D01*
X113954329Y-119280970D01*
X113932150Y-119270480D01*
X113911107Y-119257868D01*
X113891401Y-119243253D01*
X113873223Y-119226777D01*
X113856747Y-119208599D01*
X113842132Y-119188893D01*
X113829520Y-119167850D01*
X113819030Y-119145671D01*
X113810765Y-119122572D01*
X113804804Y-119098773D01*
X113801204Y-119074505D01*
X113800000Y-119050001D01*
X113800000Y-118399999D01*
X113801204Y-118375495D01*
X113804804Y-118351227D01*
X113810765Y-118327428D01*
X113819030Y-118304329D01*
X113829520Y-118282150D01*
X113842132Y-118261107D01*
X113856747Y-118241401D01*
X113873223Y-118223223D01*
X113891401Y-118206747D01*
X113911107Y-118192132D01*
X113932150Y-118179520D01*
X113954329Y-118169030D01*
X113977428Y-118160765D01*
X114001227Y-118154804D01*
X114025495Y-118151204D01*
X114049999Y-118150000D01*
X114950001Y-118150000D01*
X114974505Y-118151204D01*
X114974505Y-118151204D01*
G37*
D11*
X114500000Y-118725000D03*
D10*
G36*
X146974505Y-95901204D02*
G01*
X146998773Y-95904804D01*
X147022572Y-95910765D01*
X147045671Y-95919030D01*
X147067850Y-95929520D01*
X147088893Y-95942132D01*
X147108599Y-95956747D01*
X147126777Y-95973223D01*
X147143253Y-95991401D01*
X147157868Y-96011107D01*
X147170480Y-96032150D01*
X147180970Y-96054329D01*
X147189235Y-96077428D01*
X147195196Y-96101227D01*
X147198796Y-96125495D01*
X147200000Y-96149999D01*
X147200000Y-96800001D01*
X147198796Y-96824505D01*
X147195196Y-96848773D01*
X147189235Y-96872572D01*
X147180970Y-96895671D01*
X147170480Y-96917850D01*
X147157868Y-96938893D01*
X147143253Y-96958599D01*
X147126777Y-96976777D01*
X147108599Y-96993253D01*
X147088893Y-97007868D01*
X147067850Y-97020480D01*
X147045671Y-97030970D01*
X147022572Y-97039235D01*
X146998773Y-97045196D01*
X146974505Y-97048796D01*
X146950001Y-97050000D01*
X146049999Y-97050000D01*
X146025495Y-97048796D01*
X146001227Y-97045196D01*
X145977428Y-97039235D01*
X145954329Y-97030970D01*
X145932150Y-97020480D01*
X145911107Y-97007868D01*
X145891401Y-96993253D01*
X145873223Y-96976777D01*
X145856747Y-96958599D01*
X145842132Y-96938893D01*
X145829520Y-96917850D01*
X145819030Y-96895671D01*
X145810765Y-96872572D01*
X145804804Y-96848773D01*
X145801204Y-96824505D01*
X145800000Y-96800001D01*
X145800000Y-96149999D01*
X145801204Y-96125495D01*
X145804804Y-96101227D01*
X145810765Y-96077428D01*
X145819030Y-96054329D01*
X145829520Y-96032150D01*
X145842132Y-96011107D01*
X145856747Y-95991401D01*
X145873223Y-95973223D01*
X145891401Y-95956747D01*
X145911107Y-95942132D01*
X145932150Y-95929520D01*
X145954329Y-95919030D01*
X145977428Y-95910765D01*
X146001227Y-95904804D01*
X146025495Y-95901204D01*
X146049999Y-95900000D01*
X146950001Y-95900000D01*
X146974505Y-95901204D01*
X146974505Y-95901204D01*
G37*
D11*
X146500000Y-96475000D03*
D10*
G36*
X146974505Y-97951204D02*
G01*
X146998773Y-97954804D01*
X147022572Y-97960765D01*
X147045671Y-97969030D01*
X147067850Y-97979520D01*
X147088893Y-97992132D01*
X147108599Y-98006747D01*
X147126777Y-98023223D01*
X147143253Y-98041401D01*
X147157868Y-98061107D01*
X147170480Y-98082150D01*
X147180970Y-98104329D01*
X147189235Y-98127428D01*
X147195196Y-98151227D01*
X147198796Y-98175495D01*
X147200000Y-98199999D01*
X147200000Y-98850001D01*
X147198796Y-98874505D01*
X147195196Y-98898773D01*
X147189235Y-98922572D01*
X147180970Y-98945671D01*
X147170480Y-98967850D01*
X147157868Y-98988893D01*
X147143253Y-99008599D01*
X147126777Y-99026777D01*
X147108599Y-99043253D01*
X147088893Y-99057868D01*
X147067850Y-99070480D01*
X147045671Y-99080970D01*
X147022572Y-99089235D01*
X146998773Y-99095196D01*
X146974505Y-99098796D01*
X146950001Y-99100000D01*
X146049999Y-99100000D01*
X146025495Y-99098796D01*
X146001227Y-99095196D01*
X145977428Y-99089235D01*
X145954329Y-99080970D01*
X145932150Y-99070480D01*
X145911107Y-99057868D01*
X145891401Y-99043253D01*
X145873223Y-99026777D01*
X145856747Y-99008599D01*
X145842132Y-98988893D01*
X145829520Y-98967850D01*
X145819030Y-98945671D01*
X145810765Y-98922572D01*
X145804804Y-98898773D01*
X145801204Y-98874505D01*
X145800000Y-98850001D01*
X145800000Y-98199999D01*
X145801204Y-98175495D01*
X145804804Y-98151227D01*
X145810765Y-98127428D01*
X145819030Y-98104329D01*
X145829520Y-98082150D01*
X145842132Y-98061107D01*
X145856747Y-98041401D01*
X145873223Y-98023223D01*
X145891401Y-98006747D01*
X145911107Y-97992132D01*
X145932150Y-97979520D01*
X145954329Y-97969030D01*
X145977428Y-97960765D01*
X146001227Y-97954804D01*
X146025495Y-97951204D01*
X146049999Y-97950000D01*
X146950001Y-97950000D01*
X146974505Y-97951204D01*
X146974505Y-97951204D01*
G37*
D11*
X146500000Y-98525000D03*
M02*
