G04 #@! TF.GenerationSoftware,KiCad,Pcbnew,(5.1.4)-1*
G04 #@! TF.CreationDate,2020-03-02T19:01:58-05:00*
G04 #@! TF.ProjectId,PCB_2020,5043425f-3230-4323-902e-6b696361645f,rev?*
G04 #@! TF.SameCoordinates,Original*
G04 #@! TF.FileFunction,Paste,Top*
G04 #@! TF.FilePolarity,Positive*
%FSLAX46Y46*%
G04 Gerber Fmt 4.6, Leading zero omitted, Abs format (unit mm)*
G04 Created by KiCad (PCBNEW (5.1.4)-1) date 2020-03-02 19:01:58*
%MOMM*%
%LPD*%
G04 APERTURE LIST*
%ADD10C,0.100000*%
%ADD11C,1.150000*%
G04 APERTURE END LIST*
D10*
G36*
X245474505Y-110951204D02*
G01*
X245498773Y-110954804D01*
X245522572Y-110960765D01*
X245545671Y-110969030D01*
X245567850Y-110979520D01*
X245588893Y-110992132D01*
X245608599Y-111006747D01*
X245626777Y-111023223D01*
X245643253Y-111041401D01*
X245657868Y-111061107D01*
X245670480Y-111082150D01*
X245680970Y-111104329D01*
X245689235Y-111127428D01*
X245695196Y-111151227D01*
X245698796Y-111175495D01*
X245700000Y-111199999D01*
X245700000Y-111850001D01*
X245698796Y-111874505D01*
X245695196Y-111898773D01*
X245689235Y-111922572D01*
X245680970Y-111945671D01*
X245670480Y-111967850D01*
X245657868Y-111988893D01*
X245643253Y-112008599D01*
X245626777Y-112026777D01*
X245608599Y-112043253D01*
X245588893Y-112057868D01*
X245567850Y-112070480D01*
X245545671Y-112080970D01*
X245522572Y-112089235D01*
X245498773Y-112095196D01*
X245474505Y-112098796D01*
X245450001Y-112100000D01*
X244549999Y-112100000D01*
X244525495Y-112098796D01*
X244501227Y-112095196D01*
X244477428Y-112089235D01*
X244454329Y-112080970D01*
X244432150Y-112070480D01*
X244411107Y-112057868D01*
X244391401Y-112043253D01*
X244373223Y-112026777D01*
X244356747Y-112008599D01*
X244342132Y-111988893D01*
X244329520Y-111967850D01*
X244319030Y-111945671D01*
X244310765Y-111922572D01*
X244304804Y-111898773D01*
X244301204Y-111874505D01*
X244300000Y-111850001D01*
X244300000Y-111199999D01*
X244301204Y-111175495D01*
X244304804Y-111151227D01*
X244310765Y-111127428D01*
X244319030Y-111104329D01*
X244329520Y-111082150D01*
X244342132Y-111061107D01*
X244356747Y-111041401D01*
X244373223Y-111023223D01*
X244391401Y-111006747D01*
X244411107Y-110992132D01*
X244432150Y-110979520D01*
X244454329Y-110969030D01*
X244477428Y-110960765D01*
X244501227Y-110954804D01*
X244525495Y-110951204D01*
X244549999Y-110950000D01*
X245450001Y-110950000D01*
X245474505Y-110951204D01*
X245474505Y-110951204D01*
G37*
D11*
X245000000Y-111525000D03*
D10*
G36*
X245474505Y-108901204D02*
G01*
X245498773Y-108904804D01*
X245522572Y-108910765D01*
X245545671Y-108919030D01*
X245567850Y-108929520D01*
X245588893Y-108942132D01*
X245608599Y-108956747D01*
X245626777Y-108973223D01*
X245643253Y-108991401D01*
X245657868Y-109011107D01*
X245670480Y-109032150D01*
X245680970Y-109054329D01*
X245689235Y-109077428D01*
X245695196Y-109101227D01*
X245698796Y-109125495D01*
X245700000Y-109149999D01*
X245700000Y-109800001D01*
X245698796Y-109824505D01*
X245695196Y-109848773D01*
X245689235Y-109872572D01*
X245680970Y-109895671D01*
X245670480Y-109917850D01*
X245657868Y-109938893D01*
X245643253Y-109958599D01*
X245626777Y-109976777D01*
X245608599Y-109993253D01*
X245588893Y-110007868D01*
X245567850Y-110020480D01*
X245545671Y-110030970D01*
X245522572Y-110039235D01*
X245498773Y-110045196D01*
X245474505Y-110048796D01*
X245450001Y-110050000D01*
X244549999Y-110050000D01*
X244525495Y-110048796D01*
X244501227Y-110045196D01*
X244477428Y-110039235D01*
X244454329Y-110030970D01*
X244432150Y-110020480D01*
X244411107Y-110007868D01*
X244391401Y-109993253D01*
X244373223Y-109976777D01*
X244356747Y-109958599D01*
X244342132Y-109938893D01*
X244329520Y-109917850D01*
X244319030Y-109895671D01*
X244310765Y-109872572D01*
X244304804Y-109848773D01*
X244301204Y-109824505D01*
X244300000Y-109800001D01*
X244300000Y-109149999D01*
X244301204Y-109125495D01*
X244304804Y-109101227D01*
X244310765Y-109077428D01*
X244319030Y-109054329D01*
X244329520Y-109032150D01*
X244342132Y-109011107D01*
X244356747Y-108991401D01*
X244373223Y-108973223D01*
X244391401Y-108956747D01*
X244411107Y-108942132D01*
X244432150Y-108929520D01*
X244454329Y-108919030D01*
X244477428Y-108910765D01*
X244501227Y-108904804D01*
X244525495Y-108901204D01*
X244549999Y-108900000D01*
X245450001Y-108900000D01*
X245474505Y-108901204D01*
X245474505Y-108901204D01*
G37*
D11*
X245000000Y-109475000D03*
D10*
G36*
X248724505Y-110951204D02*
G01*
X248748773Y-110954804D01*
X248772572Y-110960765D01*
X248795671Y-110969030D01*
X248817850Y-110979520D01*
X248838893Y-110992132D01*
X248858599Y-111006747D01*
X248876777Y-111023223D01*
X248893253Y-111041401D01*
X248907868Y-111061107D01*
X248920480Y-111082150D01*
X248930970Y-111104329D01*
X248939235Y-111127428D01*
X248945196Y-111151227D01*
X248948796Y-111175495D01*
X248950000Y-111199999D01*
X248950000Y-111850001D01*
X248948796Y-111874505D01*
X248945196Y-111898773D01*
X248939235Y-111922572D01*
X248930970Y-111945671D01*
X248920480Y-111967850D01*
X248907868Y-111988893D01*
X248893253Y-112008599D01*
X248876777Y-112026777D01*
X248858599Y-112043253D01*
X248838893Y-112057868D01*
X248817850Y-112070480D01*
X248795671Y-112080970D01*
X248772572Y-112089235D01*
X248748773Y-112095196D01*
X248724505Y-112098796D01*
X248700001Y-112100000D01*
X247799999Y-112100000D01*
X247775495Y-112098796D01*
X247751227Y-112095196D01*
X247727428Y-112089235D01*
X247704329Y-112080970D01*
X247682150Y-112070480D01*
X247661107Y-112057868D01*
X247641401Y-112043253D01*
X247623223Y-112026777D01*
X247606747Y-112008599D01*
X247592132Y-111988893D01*
X247579520Y-111967850D01*
X247569030Y-111945671D01*
X247560765Y-111922572D01*
X247554804Y-111898773D01*
X247551204Y-111874505D01*
X247550000Y-111850001D01*
X247550000Y-111199999D01*
X247551204Y-111175495D01*
X247554804Y-111151227D01*
X247560765Y-111127428D01*
X247569030Y-111104329D01*
X247579520Y-111082150D01*
X247592132Y-111061107D01*
X247606747Y-111041401D01*
X247623223Y-111023223D01*
X247641401Y-111006747D01*
X247661107Y-110992132D01*
X247682150Y-110979520D01*
X247704329Y-110969030D01*
X247727428Y-110960765D01*
X247751227Y-110954804D01*
X247775495Y-110951204D01*
X247799999Y-110950000D01*
X248700001Y-110950000D01*
X248724505Y-110951204D01*
X248724505Y-110951204D01*
G37*
D11*
X248250000Y-111525000D03*
D10*
G36*
X248724505Y-108901204D02*
G01*
X248748773Y-108904804D01*
X248772572Y-108910765D01*
X248795671Y-108919030D01*
X248817850Y-108929520D01*
X248838893Y-108942132D01*
X248858599Y-108956747D01*
X248876777Y-108973223D01*
X248893253Y-108991401D01*
X248907868Y-109011107D01*
X248920480Y-109032150D01*
X248930970Y-109054329D01*
X248939235Y-109077428D01*
X248945196Y-109101227D01*
X248948796Y-109125495D01*
X248950000Y-109149999D01*
X248950000Y-109800001D01*
X248948796Y-109824505D01*
X248945196Y-109848773D01*
X248939235Y-109872572D01*
X248930970Y-109895671D01*
X248920480Y-109917850D01*
X248907868Y-109938893D01*
X248893253Y-109958599D01*
X248876777Y-109976777D01*
X248858599Y-109993253D01*
X248838893Y-110007868D01*
X248817850Y-110020480D01*
X248795671Y-110030970D01*
X248772572Y-110039235D01*
X248748773Y-110045196D01*
X248724505Y-110048796D01*
X248700001Y-110050000D01*
X247799999Y-110050000D01*
X247775495Y-110048796D01*
X247751227Y-110045196D01*
X247727428Y-110039235D01*
X247704329Y-110030970D01*
X247682150Y-110020480D01*
X247661107Y-110007868D01*
X247641401Y-109993253D01*
X247623223Y-109976777D01*
X247606747Y-109958599D01*
X247592132Y-109938893D01*
X247579520Y-109917850D01*
X247569030Y-109895671D01*
X247560765Y-109872572D01*
X247554804Y-109848773D01*
X247551204Y-109824505D01*
X247550000Y-109800001D01*
X247550000Y-109149999D01*
X247551204Y-109125495D01*
X247554804Y-109101227D01*
X247560765Y-109077428D01*
X247569030Y-109054329D01*
X247579520Y-109032150D01*
X247592132Y-109011107D01*
X247606747Y-108991401D01*
X247623223Y-108973223D01*
X247641401Y-108956747D01*
X247661107Y-108942132D01*
X247682150Y-108929520D01*
X247704329Y-108919030D01*
X247727428Y-108910765D01*
X247751227Y-108904804D01*
X247775495Y-108901204D01*
X247799999Y-108900000D01*
X248700001Y-108900000D01*
X248724505Y-108901204D01*
X248724505Y-108901204D01*
G37*
D11*
X248250000Y-109475000D03*
D10*
G36*
X238224505Y-101651204D02*
G01*
X238248773Y-101654804D01*
X238272572Y-101660765D01*
X238295671Y-101669030D01*
X238317850Y-101679520D01*
X238338893Y-101692132D01*
X238358599Y-101706747D01*
X238376777Y-101723223D01*
X238393253Y-101741401D01*
X238407868Y-101761107D01*
X238420480Y-101782150D01*
X238430970Y-101804329D01*
X238439235Y-101827428D01*
X238445196Y-101851227D01*
X238448796Y-101875495D01*
X238450000Y-101899999D01*
X238450000Y-102550001D01*
X238448796Y-102574505D01*
X238445196Y-102598773D01*
X238439235Y-102622572D01*
X238430970Y-102645671D01*
X238420480Y-102667850D01*
X238407868Y-102688893D01*
X238393253Y-102708599D01*
X238376777Y-102726777D01*
X238358599Y-102743253D01*
X238338893Y-102757868D01*
X238317850Y-102770480D01*
X238295671Y-102780970D01*
X238272572Y-102789235D01*
X238248773Y-102795196D01*
X238224505Y-102798796D01*
X238200001Y-102800000D01*
X237299999Y-102800000D01*
X237275495Y-102798796D01*
X237251227Y-102795196D01*
X237227428Y-102789235D01*
X237204329Y-102780970D01*
X237182150Y-102770480D01*
X237161107Y-102757868D01*
X237141401Y-102743253D01*
X237123223Y-102726777D01*
X237106747Y-102708599D01*
X237092132Y-102688893D01*
X237079520Y-102667850D01*
X237069030Y-102645671D01*
X237060765Y-102622572D01*
X237054804Y-102598773D01*
X237051204Y-102574505D01*
X237050000Y-102550001D01*
X237050000Y-101899999D01*
X237051204Y-101875495D01*
X237054804Y-101851227D01*
X237060765Y-101827428D01*
X237069030Y-101804329D01*
X237079520Y-101782150D01*
X237092132Y-101761107D01*
X237106747Y-101741401D01*
X237123223Y-101723223D01*
X237141401Y-101706747D01*
X237161107Y-101692132D01*
X237182150Y-101679520D01*
X237204329Y-101669030D01*
X237227428Y-101660765D01*
X237251227Y-101654804D01*
X237275495Y-101651204D01*
X237299999Y-101650000D01*
X238200001Y-101650000D01*
X238224505Y-101651204D01*
X238224505Y-101651204D01*
G37*
D11*
X237750000Y-102225000D03*
D10*
G36*
X238224505Y-103701204D02*
G01*
X238248773Y-103704804D01*
X238272572Y-103710765D01*
X238295671Y-103719030D01*
X238317850Y-103729520D01*
X238338893Y-103742132D01*
X238358599Y-103756747D01*
X238376777Y-103773223D01*
X238393253Y-103791401D01*
X238407868Y-103811107D01*
X238420480Y-103832150D01*
X238430970Y-103854329D01*
X238439235Y-103877428D01*
X238445196Y-103901227D01*
X238448796Y-103925495D01*
X238450000Y-103949999D01*
X238450000Y-104600001D01*
X238448796Y-104624505D01*
X238445196Y-104648773D01*
X238439235Y-104672572D01*
X238430970Y-104695671D01*
X238420480Y-104717850D01*
X238407868Y-104738893D01*
X238393253Y-104758599D01*
X238376777Y-104776777D01*
X238358599Y-104793253D01*
X238338893Y-104807868D01*
X238317850Y-104820480D01*
X238295671Y-104830970D01*
X238272572Y-104839235D01*
X238248773Y-104845196D01*
X238224505Y-104848796D01*
X238200001Y-104850000D01*
X237299999Y-104850000D01*
X237275495Y-104848796D01*
X237251227Y-104845196D01*
X237227428Y-104839235D01*
X237204329Y-104830970D01*
X237182150Y-104820480D01*
X237161107Y-104807868D01*
X237141401Y-104793253D01*
X237123223Y-104776777D01*
X237106747Y-104758599D01*
X237092132Y-104738893D01*
X237079520Y-104717850D01*
X237069030Y-104695671D01*
X237060765Y-104672572D01*
X237054804Y-104648773D01*
X237051204Y-104624505D01*
X237050000Y-104600001D01*
X237050000Y-103949999D01*
X237051204Y-103925495D01*
X237054804Y-103901227D01*
X237060765Y-103877428D01*
X237069030Y-103854329D01*
X237079520Y-103832150D01*
X237092132Y-103811107D01*
X237106747Y-103791401D01*
X237123223Y-103773223D01*
X237141401Y-103756747D01*
X237161107Y-103742132D01*
X237182150Y-103729520D01*
X237204329Y-103719030D01*
X237227428Y-103710765D01*
X237251227Y-103704804D01*
X237275495Y-103701204D01*
X237299999Y-103700000D01*
X238200001Y-103700000D01*
X238224505Y-103701204D01*
X238224505Y-103701204D01*
G37*
D11*
X237750000Y-104275000D03*
D10*
G36*
X238224505Y-108201204D02*
G01*
X238248773Y-108204804D01*
X238272572Y-108210765D01*
X238295671Y-108219030D01*
X238317850Y-108229520D01*
X238338893Y-108242132D01*
X238358599Y-108256747D01*
X238376777Y-108273223D01*
X238393253Y-108291401D01*
X238407868Y-108311107D01*
X238420480Y-108332150D01*
X238430970Y-108354329D01*
X238439235Y-108377428D01*
X238445196Y-108401227D01*
X238448796Y-108425495D01*
X238450000Y-108449999D01*
X238450000Y-109100001D01*
X238448796Y-109124505D01*
X238445196Y-109148773D01*
X238439235Y-109172572D01*
X238430970Y-109195671D01*
X238420480Y-109217850D01*
X238407868Y-109238893D01*
X238393253Y-109258599D01*
X238376777Y-109276777D01*
X238358599Y-109293253D01*
X238338893Y-109307868D01*
X238317850Y-109320480D01*
X238295671Y-109330970D01*
X238272572Y-109339235D01*
X238248773Y-109345196D01*
X238224505Y-109348796D01*
X238200001Y-109350000D01*
X237299999Y-109350000D01*
X237275495Y-109348796D01*
X237251227Y-109345196D01*
X237227428Y-109339235D01*
X237204329Y-109330970D01*
X237182150Y-109320480D01*
X237161107Y-109307868D01*
X237141401Y-109293253D01*
X237123223Y-109276777D01*
X237106747Y-109258599D01*
X237092132Y-109238893D01*
X237079520Y-109217850D01*
X237069030Y-109195671D01*
X237060765Y-109172572D01*
X237054804Y-109148773D01*
X237051204Y-109124505D01*
X237050000Y-109100001D01*
X237050000Y-108449999D01*
X237051204Y-108425495D01*
X237054804Y-108401227D01*
X237060765Y-108377428D01*
X237069030Y-108354329D01*
X237079520Y-108332150D01*
X237092132Y-108311107D01*
X237106747Y-108291401D01*
X237123223Y-108273223D01*
X237141401Y-108256747D01*
X237161107Y-108242132D01*
X237182150Y-108229520D01*
X237204329Y-108219030D01*
X237227428Y-108210765D01*
X237251227Y-108204804D01*
X237275495Y-108201204D01*
X237299999Y-108200000D01*
X238200001Y-108200000D01*
X238224505Y-108201204D01*
X238224505Y-108201204D01*
G37*
D11*
X237750000Y-108775000D03*
D10*
G36*
X238224505Y-106151204D02*
G01*
X238248773Y-106154804D01*
X238272572Y-106160765D01*
X238295671Y-106169030D01*
X238317850Y-106179520D01*
X238338893Y-106192132D01*
X238358599Y-106206747D01*
X238376777Y-106223223D01*
X238393253Y-106241401D01*
X238407868Y-106261107D01*
X238420480Y-106282150D01*
X238430970Y-106304329D01*
X238439235Y-106327428D01*
X238445196Y-106351227D01*
X238448796Y-106375495D01*
X238450000Y-106399999D01*
X238450000Y-107050001D01*
X238448796Y-107074505D01*
X238445196Y-107098773D01*
X238439235Y-107122572D01*
X238430970Y-107145671D01*
X238420480Y-107167850D01*
X238407868Y-107188893D01*
X238393253Y-107208599D01*
X238376777Y-107226777D01*
X238358599Y-107243253D01*
X238338893Y-107257868D01*
X238317850Y-107270480D01*
X238295671Y-107280970D01*
X238272572Y-107289235D01*
X238248773Y-107295196D01*
X238224505Y-107298796D01*
X238200001Y-107300000D01*
X237299999Y-107300000D01*
X237275495Y-107298796D01*
X237251227Y-107295196D01*
X237227428Y-107289235D01*
X237204329Y-107280970D01*
X237182150Y-107270480D01*
X237161107Y-107257868D01*
X237141401Y-107243253D01*
X237123223Y-107226777D01*
X237106747Y-107208599D01*
X237092132Y-107188893D01*
X237079520Y-107167850D01*
X237069030Y-107145671D01*
X237060765Y-107122572D01*
X237054804Y-107098773D01*
X237051204Y-107074505D01*
X237050000Y-107050001D01*
X237050000Y-106399999D01*
X237051204Y-106375495D01*
X237054804Y-106351227D01*
X237060765Y-106327428D01*
X237069030Y-106304329D01*
X237079520Y-106282150D01*
X237092132Y-106261107D01*
X237106747Y-106241401D01*
X237123223Y-106223223D01*
X237141401Y-106206747D01*
X237161107Y-106192132D01*
X237182150Y-106179520D01*
X237204329Y-106169030D01*
X237227428Y-106160765D01*
X237251227Y-106154804D01*
X237275495Y-106151204D01*
X237299999Y-106150000D01*
X238200001Y-106150000D01*
X238224505Y-106151204D01*
X238224505Y-106151204D01*
G37*
D11*
X237750000Y-106725000D03*
D10*
G36*
X242224505Y-110951204D02*
G01*
X242248773Y-110954804D01*
X242272572Y-110960765D01*
X242295671Y-110969030D01*
X242317850Y-110979520D01*
X242338893Y-110992132D01*
X242358599Y-111006747D01*
X242376777Y-111023223D01*
X242393253Y-111041401D01*
X242407868Y-111061107D01*
X242420480Y-111082150D01*
X242430970Y-111104329D01*
X242439235Y-111127428D01*
X242445196Y-111151227D01*
X242448796Y-111175495D01*
X242450000Y-111199999D01*
X242450000Y-111850001D01*
X242448796Y-111874505D01*
X242445196Y-111898773D01*
X242439235Y-111922572D01*
X242430970Y-111945671D01*
X242420480Y-111967850D01*
X242407868Y-111988893D01*
X242393253Y-112008599D01*
X242376777Y-112026777D01*
X242358599Y-112043253D01*
X242338893Y-112057868D01*
X242317850Y-112070480D01*
X242295671Y-112080970D01*
X242272572Y-112089235D01*
X242248773Y-112095196D01*
X242224505Y-112098796D01*
X242200001Y-112100000D01*
X241299999Y-112100000D01*
X241275495Y-112098796D01*
X241251227Y-112095196D01*
X241227428Y-112089235D01*
X241204329Y-112080970D01*
X241182150Y-112070480D01*
X241161107Y-112057868D01*
X241141401Y-112043253D01*
X241123223Y-112026777D01*
X241106747Y-112008599D01*
X241092132Y-111988893D01*
X241079520Y-111967850D01*
X241069030Y-111945671D01*
X241060765Y-111922572D01*
X241054804Y-111898773D01*
X241051204Y-111874505D01*
X241050000Y-111850001D01*
X241050000Y-111199999D01*
X241051204Y-111175495D01*
X241054804Y-111151227D01*
X241060765Y-111127428D01*
X241069030Y-111104329D01*
X241079520Y-111082150D01*
X241092132Y-111061107D01*
X241106747Y-111041401D01*
X241123223Y-111023223D01*
X241141401Y-111006747D01*
X241161107Y-110992132D01*
X241182150Y-110979520D01*
X241204329Y-110969030D01*
X241227428Y-110960765D01*
X241251227Y-110954804D01*
X241275495Y-110951204D01*
X241299999Y-110950000D01*
X242200001Y-110950000D01*
X242224505Y-110951204D01*
X242224505Y-110951204D01*
G37*
D11*
X241750000Y-111525000D03*
D10*
G36*
X242224505Y-108901204D02*
G01*
X242248773Y-108904804D01*
X242272572Y-108910765D01*
X242295671Y-108919030D01*
X242317850Y-108929520D01*
X242338893Y-108942132D01*
X242358599Y-108956747D01*
X242376777Y-108973223D01*
X242393253Y-108991401D01*
X242407868Y-109011107D01*
X242420480Y-109032150D01*
X242430970Y-109054329D01*
X242439235Y-109077428D01*
X242445196Y-109101227D01*
X242448796Y-109125495D01*
X242450000Y-109149999D01*
X242450000Y-109800001D01*
X242448796Y-109824505D01*
X242445196Y-109848773D01*
X242439235Y-109872572D01*
X242430970Y-109895671D01*
X242420480Y-109917850D01*
X242407868Y-109938893D01*
X242393253Y-109958599D01*
X242376777Y-109976777D01*
X242358599Y-109993253D01*
X242338893Y-110007868D01*
X242317850Y-110020480D01*
X242295671Y-110030970D01*
X242272572Y-110039235D01*
X242248773Y-110045196D01*
X242224505Y-110048796D01*
X242200001Y-110050000D01*
X241299999Y-110050000D01*
X241275495Y-110048796D01*
X241251227Y-110045196D01*
X241227428Y-110039235D01*
X241204329Y-110030970D01*
X241182150Y-110020480D01*
X241161107Y-110007868D01*
X241141401Y-109993253D01*
X241123223Y-109976777D01*
X241106747Y-109958599D01*
X241092132Y-109938893D01*
X241079520Y-109917850D01*
X241069030Y-109895671D01*
X241060765Y-109872572D01*
X241054804Y-109848773D01*
X241051204Y-109824505D01*
X241050000Y-109800001D01*
X241050000Y-109149999D01*
X241051204Y-109125495D01*
X241054804Y-109101227D01*
X241060765Y-109077428D01*
X241069030Y-109054329D01*
X241079520Y-109032150D01*
X241092132Y-109011107D01*
X241106747Y-108991401D01*
X241123223Y-108973223D01*
X241141401Y-108956747D01*
X241161107Y-108942132D01*
X241182150Y-108929520D01*
X241204329Y-108919030D01*
X241227428Y-108910765D01*
X241251227Y-108904804D01*
X241275495Y-108901204D01*
X241299999Y-108900000D01*
X242200001Y-108900000D01*
X242224505Y-108901204D01*
X242224505Y-108901204D01*
G37*
D11*
X241750000Y-109475000D03*
D10*
G36*
X263474505Y-140951204D02*
G01*
X263498773Y-140954804D01*
X263522572Y-140960765D01*
X263545671Y-140969030D01*
X263567850Y-140979520D01*
X263588893Y-140992132D01*
X263608599Y-141006747D01*
X263626777Y-141023223D01*
X263643253Y-141041401D01*
X263657868Y-141061107D01*
X263670480Y-141082150D01*
X263680970Y-141104329D01*
X263689235Y-141127428D01*
X263695196Y-141151227D01*
X263698796Y-141175495D01*
X263700000Y-141199999D01*
X263700000Y-141850001D01*
X263698796Y-141874505D01*
X263695196Y-141898773D01*
X263689235Y-141922572D01*
X263680970Y-141945671D01*
X263670480Y-141967850D01*
X263657868Y-141988893D01*
X263643253Y-142008599D01*
X263626777Y-142026777D01*
X263608599Y-142043253D01*
X263588893Y-142057868D01*
X263567850Y-142070480D01*
X263545671Y-142080970D01*
X263522572Y-142089235D01*
X263498773Y-142095196D01*
X263474505Y-142098796D01*
X263450001Y-142100000D01*
X262549999Y-142100000D01*
X262525495Y-142098796D01*
X262501227Y-142095196D01*
X262477428Y-142089235D01*
X262454329Y-142080970D01*
X262432150Y-142070480D01*
X262411107Y-142057868D01*
X262391401Y-142043253D01*
X262373223Y-142026777D01*
X262356747Y-142008599D01*
X262342132Y-141988893D01*
X262329520Y-141967850D01*
X262319030Y-141945671D01*
X262310765Y-141922572D01*
X262304804Y-141898773D01*
X262301204Y-141874505D01*
X262300000Y-141850001D01*
X262300000Y-141199999D01*
X262301204Y-141175495D01*
X262304804Y-141151227D01*
X262310765Y-141127428D01*
X262319030Y-141104329D01*
X262329520Y-141082150D01*
X262342132Y-141061107D01*
X262356747Y-141041401D01*
X262373223Y-141023223D01*
X262391401Y-141006747D01*
X262411107Y-140992132D01*
X262432150Y-140979520D01*
X262454329Y-140969030D01*
X262477428Y-140960765D01*
X262501227Y-140954804D01*
X262525495Y-140951204D01*
X262549999Y-140950000D01*
X263450001Y-140950000D01*
X263474505Y-140951204D01*
X263474505Y-140951204D01*
G37*
D11*
X263000000Y-141525000D03*
D10*
G36*
X263474505Y-138901204D02*
G01*
X263498773Y-138904804D01*
X263522572Y-138910765D01*
X263545671Y-138919030D01*
X263567850Y-138929520D01*
X263588893Y-138942132D01*
X263608599Y-138956747D01*
X263626777Y-138973223D01*
X263643253Y-138991401D01*
X263657868Y-139011107D01*
X263670480Y-139032150D01*
X263680970Y-139054329D01*
X263689235Y-139077428D01*
X263695196Y-139101227D01*
X263698796Y-139125495D01*
X263700000Y-139149999D01*
X263700000Y-139800001D01*
X263698796Y-139824505D01*
X263695196Y-139848773D01*
X263689235Y-139872572D01*
X263680970Y-139895671D01*
X263670480Y-139917850D01*
X263657868Y-139938893D01*
X263643253Y-139958599D01*
X263626777Y-139976777D01*
X263608599Y-139993253D01*
X263588893Y-140007868D01*
X263567850Y-140020480D01*
X263545671Y-140030970D01*
X263522572Y-140039235D01*
X263498773Y-140045196D01*
X263474505Y-140048796D01*
X263450001Y-140050000D01*
X262549999Y-140050000D01*
X262525495Y-140048796D01*
X262501227Y-140045196D01*
X262477428Y-140039235D01*
X262454329Y-140030970D01*
X262432150Y-140020480D01*
X262411107Y-140007868D01*
X262391401Y-139993253D01*
X262373223Y-139976777D01*
X262356747Y-139958599D01*
X262342132Y-139938893D01*
X262329520Y-139917850D01*
X262319030Y-139895671D01*
X262310765Y-139872572D01*
X262304804Y-139848773D01*
X262301204Y-139824505D01*
X262300000Y-139800001D01*
X262300000Y-139149999D01*
X262301204Y-139125495D01*
X262304804Y-139101227D01*
X262310765Y-139077428D01*
X262319030Y-139054329D01*
X262329520Y-139032150D01*
X262342132Y-139011107D01*
X262356747Y-138991401D01*
X262373223Y-138973223D01*
X262391401Y-138956747D01*
X262411107Y-138942132D01*
X262432150Y-138929520D01*
X262454329Y-138919030D01*
X262477428Y-138910765D01*
X262501227Y-138904804D01*
X262525495Y-138901204D01*
X262549999Y-138900000D01*
X263450001Y-138900000D01*
X263474505Y-138901204D01*
X263474505Y-138901204D01*
G37*
D11*
X263000000Y-139475000D03*
D10*
G36*
X251424505Y-104501204D02*
G01*
X251448773Y-104504804D01*
X251472572Y-104510765D01*
X251495671Y-104519030D01*
X251517850Y-104529520D01*
X251538893Y-104542132D01*
X251558599Y-104556747D01*
X251576777Y-104573223D01*
X251593253Y-104591401D01*
X251607868Y-104611107D01*
X251620480Y-104632150D01*
X251630970Y-104654329D01*
X251639235Y-104677428D01*
X251645196Y-104701227D01*
X251648796Y-104725495D01*
X251650000Y-104749999D01*
X251650000Y-105650001D01*
X251648796Y-105674505D01*
X251645196Y-105698773D01*
X251639235Y-105722572D01*
X251630970Y-105745671D01*
X251620480Y-105767850D01*
X251607868Y-105788893D01*
X251593253Y-105808599D01*
X251576777Y-105826777D01*
X251558599Y-105843253D01*
X251538893Y-105857868D01*
X251517850Y-105870480D01*
X251495671Y-105880970D01*
X251472572Y-105889235D01*
X251448773Y-105895196D01*
X251424505Y-105898796D01*
X251400001Y-105900000D01*
X250749999Y-105900000D01*
X250725495Y-105898796D01*
X250701227Y-105895196D01*
X250677428Y-105889235D01*
X250654329Y-105880970D01*
X250632150Y-105870480D01*
X250611107Y-105857868D01*
X250591401Y-105843253D01*
X250573223Y-105826777D01*
X250556747Y-105808599D01*
X250542132Y-105788893D01*
X250529520Y-105767850D01*
X250519030Y-105745671D01*
X250510765Y-105722572D01*
X250504804Y-105698773D01*
X250501204Y-105674505D01*
X250500000Y-105650001D01*
X250500000Y-104749999D01*
X250501204Y-104725495D01*
X250504804Y-104701227D01*
X250510765Y-104677428D01*
X250519030Y-104654329D01*
X250529520Y-104632150D01*
X250542132Y-104611107D01*
X250556747Y-104591401D01*
X250573223Y-104573223D01*
X250591401Y-104556747D01*
X250611107Y-104542132D01*
X250632150Y-104529520D01*
X250654329Y-104519030D01*
X250677428Y-104510765D01*
X250701227Y-104504804D01*
X250725495Y-104501204D01*
X250749999Y-104500000D01*
X251400001Y-104500000D01*
X251424505Y-104501204D01*
X251424505Y-104501204D01*
G37*
D11*
X251075000Y-105200000D03*
D10*
G36*
X249374505Y-104501204D02*
G01*
X249398773Y-104504804D01*
X249422572Y-104510765D01*
X249445671Y-104519030D01*
X249467850Y-104529520D01*
X249488893Y-104542132D01*
X249508599Y-104556747D01*
X249526777Y-104573223D01*
X249543253Y-104591401D01*
X249557868Y-104611107D01*
X249570480Y-104632150D01*
X249580970Y-104654329D01*
X249589235Y-104677428D01*
X249595196Y-104701227D01*
X249598796Y-104725495D01*
X249600000Y-104749999D01*
X249600000Y-105650001D01*
X249598796Y-105674505D01*
X249595196Y-105698773D01*
X249589235Y-105722572D01*
X249580970Y-105745671D01*
X249570480Y-105767850D01*
X249557868Y-105788893D01*
X249543253Y-105808599D01*
X249526777Y-105826777D01*
X249508599Y-105843253D01*
X249488893Y-105857868D01*
X249467850Y-105870480D01*
X249445671Y-105880970D01*
X249422572Y-105889235D01*
X249398773Y-105895196D01*
X249374505Y-105898796D01*
X249350001Y-105900000D01*
X248699999Y-105900000D01*
X248675495Y-105898796D01*
X248651227Y-105895196D01*
X248627428Y-105889235D01*
X248604329Y-105880970D01*
X248582150Y-105870480D01*
X248561107Y-105857868D01*
X248541401Y-105843253D01*
X248523223Y-105826777D01*
X248506747Y-105808599D01*
X248492132Y-105788893D01*
X248479520Y-105767850D01*
X248469030Y-105745671D01*
X248460765Y-105722572D01*
X248454804Y-105698773D01*
X248451204Y-105674505D01*
X248450000Y-105650001D01*
X248450000Y-104749999D01*
X248451204Y-104725495D01*
X248454804Y-104701227D01*
X248460765Y-104677428D01*
X248469030Y-104654329D01*
X248479520Y-104632150D01*
X248492132Y-104611107D01*
X248506747Y-104591401D01*
X248523223Y-104573223D01*
X248541401Y-104556747D01*
X248561107Y-104542132D01*
X248582150Y-104529520D01*
X248604329Y-104519030D01*
X248627428Y-104510765D01*
X248651227Y-104504804D01*
X248675495Y-104501204D01*
X248699999Y-104500000D01*
X249350001Y-104500000D01*
X249374505Y-104501204D01*
X249374505Y-104501204D01*
G37*
D11*
X249025000Y-105200000D03*
D10*
G36*
X265374505Y-132551204D02*
G01*
X265398773Y-132554804D01*
X265422572Y-132560765D01*
X265445671Y-132569030D01*
X265467850Y-132579520D01*
X265488893Y-132592132D01*
X265508599Y-132606747D01*
X265526777Y-132623223D01*
X265543253Y-132641401D01*
X265557868Y-132661107D01*
X265570480Y-132682150D01*
X265580970Y-132704329D01*
X265589235Y-132727428D01*
X265595196Y-132751227D01*
X265598796Y-132775495D01*
X265600000Y-132799999D01*
X265600000Y-133700001D01*
X265598796Y-133724505D01*
X265595196Y-133748773D01*
X265589235Y-133772572D01*
X265580970Y-133795671D01*
X265570480Y-133817850D01*
X265557868Y-133838893D01*
X265543253Y-133858599D01*
X265526777Y-133876777D01*
X265508599Y-133893253D01*
X265488893Y-133907868D01*
X265467850Y-133920480D01*
X265445671Y-133930970D01*
X265422572Y-133939235D01*
X265398773Y-133945196D01*
X265374505Y-133948796D01*
X265350001Y-133950000D01*
X264699999Y-133950000D01*
X264675495Y-133948796D01*
X264651227Y-133945196D01*
X264627428Y-133939235D01*
X264604329Y-133930970D01*
X264582150Y-133920480D01*
X264561107Y-133907868D01*
X264541401Y-133893253D01*
X264523223Y-133876777D01*
X264506747Y-133858599D01*
X264492132Y-133838893D01*
X264479520Y-133817850D01*
X264469030Y-133795671D01*
X264460765Y-133772572D01*
X264454804Y-133748773D01*
X264451204Y-133724505D01*
X264450000Y-133700001D01*
X264450000Y-132799999D01*
X264451204Y-132775495D01*
X264454804Y-132751227D01*
X264460765Y-132727428D01*
X264469030Y-132704329D01*
X264479520Y-132682150D01*
X264492132Y-132661107D01*
X264506747Y-132641401D01*
X264523223Y-132623223D01*
X264541401Y-132606747D01*
X264561107Y-132592132D01*
X264582150Y-132579520D01*
X264604329Y-132569030D01*
X264627428Y-132560765D01*
X264651227Y-132554804D01*
X264675495Y-132551204D01*
X264699999Y-132550000D01*
X265350001Y-132550000D01*
X265374505Y-132551204D01*
X265374505Y-132551204D01*
G37*
D11*
X265025000Y-133250000D03*
D10*
G36*
X263324505Y-132551204D02*
G01*
X263348773Y-132554804D01*
X263372572Y-132560765D01*
X263395671Y-132569030D01*
X263417850Y-132579520D01*
X263438893Y-132592132D01*
X263458599Y-132606747D01*
X263476777Y-132623223D01*
X263493253Y-132641401D01*
X263507868Y-132661107D01*
X263520480Y-132682150D01*
X263530970Y-132704329D01*
X263539235Y-132727428D01*
X263545196Y-132751227D01*
X263548796Y-132775495D01*
X263550000Y-132799999D01*
X263550000Y-133700001D01*
X263548796Y-133724505D01*
X263545196Y-133748773D01*
X263539235Y-133772572D01*
X263530970Y-133795671D01*
X263520480Y-133817850D01*
X263507868Y-133838893D01*
X263493253Y-133858599D01*
X263476777Y-133876777D01*
X263458599Y-133893253D01*
X263438893Y-133907868D01*
X263417850Y-133920480D01*
X263395671Y-133930970D01*
X263372572Y-133939235D01*
X263348773Y-133945196D01*
X263324505Y-133948796D01*
X263300001Y-133950000D01*
X262649999Y-133950000D01*
X262625495Y-133948796D01*
X262601227Y-133945196D01*
X262577428Y-133939235D01*
X262554329Y-133930970D01*
X262532150Y-133920480D01*
X262511107Y-133907868D01*
X262491401Y-133893253D01*
X262473223Y-133876777D01*
X262456747Y-133858599D01*
X262442132Y-133838893D01*
X262429520Y-133817850D01*
X262419030Y-133795671D01*
X262410765Y-133772572D01*
X262404804Y-133748773D01*
X262401204Y-133724505D01*
X262400000Y-133700001D01*
X262400000Y-132799999D01*
X262401204Y-132775495D01*
X262404804Y-132751227D01*
X262410765Y-132727428D01*
X262419030Y-132704329D01*
X262429520Y-132682150D01*
X262442132Y-132661107D01*
X262456747Y-132641401D01*
X262473223Y-132623223D01*
X262491401Y-132606747D01*
X262511107Y-132592132D01*
X262532150Y-132579520D01*
X262554329Y-132569030D01*
X262577428Y-132560765D01*
X262601227Y-132554804D01*
X262625495Y-132551204D01*
X262649999Y-132550000D01*
X263300001Y-132550000D01*
X263324505Y-132551204D01*
X263324505Y-132551204D01*
G37*
D11*
X262975000Y-133250000D03*
D10*
G36*
X221724505Y-103451204D02*
G01*
X221748773Y-103454804D01*
X221772572Y-103460765D01*
X221795671Y-103469030D01*
X221817850Y-103479520D01*
X221838893Y-103492132D01*
X221858599Y-103506747D01*
X221876777Y-103523223D01*
X221893253Y-103541401D01*
X221907868Y-103561107D01*
X221920480Y-103582150D01*
X221930970Y-103604329D01*
X221939235Y-103627428D01*
X221945196Y-103651227D01*
X221948796Y-103675495D01*
X221950000Y-103699999D01*
X221950000Y-104350001D01*
X221948796Y-104374505D01*
X221945196Y-104398773D01*
X221939235Y-104422572D01*
X221930970Y-104445671D01*
X221920480Y-104467850D01*
X221907868Y-104488893D01*
X221893253Y-104508599D01*
X221876777Y-104526777D01*
X221858599Y-104543253D01*
X221838893Y-104557868D01*
X221817850Y-104570480D01*
X221795671Y-104580970D01*
X221772572Y-104589235D01*
X221748773Y-104595196D01*
X221724505Y-104598796D01*
X221700001Y-104600000D01*
X220799999Y-104600000D01*
X220775495Y-104598796D01*
X220751227Y-104595196D01*
X220727428Y-104589235D01*
X220704329Y-104580970D01*
X220682150Y-104570480D01*
X220661107Y-104557868D01*
X220641401Y-104543253D01*
X220623223Y-104526777D01*
X220606747Y-104508599D01*
X220592132Y-104488893D01*
X220579520Y-104467850D01*
X220569030Y-104445671D01*
X220560765Y-104422572D01*
X220554804Y-104398773D01*
X220551204Y-104374505D01*
X220550000Y-104350001D01*
X220550000Y-103699999D01*
X220551204Y-103675495D01*
X220554804Y-103651227D01*
X220560765Y-103627428D01*
X220569030Y-103604329D01*
X220579520Y-103582150D01*
X220592132Y-103561107D01*
X220606747Y-103541401D01*
X220623223Y-103523223D01*
X220641401Y-103506747D01*
X220661107Y-103492132D01*
X220682150Y-103479520D01*
X220704329Y-103469030D01*
X220727428Y-103460765D01*
X220751227Y-103454804D01*
X220775495Y-103451204D01*
X220799999Y-103450000D01*
X221700001Y-103450000D01*
X221724505Y-103451204D01*
X221724505Y-103451204D01*
G37*
D11*
X221250000Y-104025000D03*
D10*
G36*
X221724505Y-101401204D02*
G01*
X221748773Y-101404804D01*
X221772572Y-101410765D01*
X221795671Y-101419030D01*
X221817850Y-101429520D01*
X221838893Y-101442132D01*
X221858599Y-101456747D01*
X221876777Y-101473223D01*
X221893253Y-101491401D01*
X221907868Y-101511107D01*
X221920480Y-101532150D01*
X221930970Y-101554329D01*
X221939235Y-101577428D01*
X221945196Y-101601227D01*
X221948796Y-101625495D01*
X221950000Y-101649999D01*
X221950000Y-102300001D01*
X221948796Y-102324505D01*
X221945196Y-102348773D01*
X221939235Y-102372572D01*
X221930970Y-102395671D01*
X221920480Y-102417850D01*
X221907868Y-102438893D01*
X221893253Y-102458599D01*
X221876777Y-102476777D01*
X221858599Y-102493253D01*
X221838893Y-102507868D01*
X221817850Y-102520480D01*
X221795671Y-102530970D01*
X221772572Y-102539235D01*
X221748773Y-102545196D01*
X221724505Y-102548796D01*
X221700001Y-102550000D01*
X220799999Y-102550000D01*
X220775495Y-102548796D01*
X220751227Y-102545196D01*
X220727428Y-102539235D01*
X220704329Y-102530970D01*
X220682150Y-102520480D01*
X220661107Y-102507868D01*
X220641401Y-102493253D01*
X220623223Y-102476777D01*
X220606747Y-102458599D01*
X220592132Y-102438893D01*
X220579520Y-102417850D01*
X220569030Y-102395671D01*
X220560765Y-102372572D01*
X220554804Y-102348773D01*
X220551204Y-102324505D01*
X220550000Y-102300001D01*
X220550000Y-101649999D01*
X220551204Y-101625495D01*
X220554804Y-101601227D01*
X220560765Y-101577428D01*
X220569030Y-101554329D01*
X220579520Y-101532150D01*
X220592132Y-101511107D01*
X220606747Y-101491401D01*
X220623223Y-101473223D01*
X220641401Y-101456747D01*
X220661107Y-101442132D01*
X220682150Y-101429520D01*
X220704329Y-101419030D01*
X220727428Y-101410765D01*
X220751227Y-101404804D01*
X220775495Y-101401204D01*
X220799999Y-101400000D01*
X221700001Y-101400000D01*
X221724505Y-101401204D01*
X221724505Y-101401204D01*
G37*
D11*
X221250000Y-101975000D03*
M02*
