G04 #@! TF.GenerationSoftware,KiCad,Pcbnew,(5.1.4)-1*
G04 #@! TF.CreationDate,2020-03-02T19:01:58-05:00*
G04 #@! TF.ProjectId,PCB_2020,5043425f-3230-4323-902e-6b696361645f,rev?*
G04 #@! TF.SameCoordinates,Original*
G04 #@! TF.FileFunction,Legend,Top*
G04 #@! TF.FilePolarity,Positive*
%FSLAX46Y46*%
G04 Gerber Fmt 4.6, Leading zero omitted, Abs format (unit mm)*
G04 Created by KiCad (PCBNEW (5.1.4)-1) date 2020-03-02 19:01:58*
%MOMM*%
%LPD*%
G04 APERTURE LIST*
%ADD10C,0.120000*%
%ADD11C,0.150000*%
G04 APERTURE END LIST*
D10*
X244290000Y-110238748D02*
X244290000Y-110761252D01*
X245710000Y-110238748D02*
X245710000Y-110761252D01*
X247540000Y-110238748D02*
X247540000Y-110761252D01*
X248960000Y-110238748D02*
X248960000Y-110761252D01*
X238460000Y-103511252D02*
X238460000Y-102988748D01*
X237040000Y-103511252D02*
X237040000Y-102988748D01*
X237040000Y-107488748D02*
X237040000Y-108011252D01*
X238460000Y-107488748D02*
X238460000Y-108011252D01*
X241040000Y-110238748D02*
X241040000Y-110761252D01*
X242460000Y-110238748D02*
X242460000Y-110761252D01*
X262290000Y-140238748D02*
X262290000Y-140761252D01*
X263710000Y-140238748D02*
X263710000Y-140761252D01*
X228230000Y-137109000D02*
X229740000Y-137109000D01*
X228230000Y-140810000D02*
X229740000Y-140810000D01*
X229740000Y-144080000D02*
X229740000Y-133840000D01*
X228230000Y-133840000D02*
X232871000Y-133840000D01*
X228230000Y-144080000D02*
X232871000Y-144080000D01*
X232871000Y-144080000D02*
X232871000Y-133840000D01*
X228230000Y-144080000D02*
X228230000Y-133840000D01*
X236230000Y-137109000D02*
X237740000Y-137109000D01*
X236230000Y-140810000D02*
X237740000Y-140810000D01*
X237740000Y-144080000D02*
X237740000Y-133840000D01*
X236230000Y-133840000D02*
X240871000Y-133840000D01*
X236230000Y-144080000D02*
X240871000Y-144080000D01*
X240871000Y-144080000D02*
X240871000Y-133840000D01*
X236230000Y-144080000D02*
X236230000Y-133840000D01*
X224480000Y-121109000D02*
X225990000Y-121109000D01*
X224480000Y-124810000D02*
X225990000Y-124810000D01*
X225990000Y-128080000D02*
X225990000Y-117840000D01*
X224480000Y-117840000D02*
X229121000Y-117840000D01*
X224480000Y-128080000D02*
X229121000Y-128080000D01*
X229121000Y-128080000D02*
X229121000Y-117840000D01*
X224480000Y-128080000D02*
X224480000Y-117840000D01*
X232730000Y-121109000D02*
X234240000Y-121109000D01*
X232730000Y-124810000D02*
X234240000Y-124810000D01*
X234240000Y-128080000D02*
X234240000Y-117840000D01*
X232730000Y-117840000D02*
X237371000Y-117840000D01*
X232730000Y-128080000D02*
X237371000Y-128080000D01*
X237371000Y-128080000D02*
X237371000Y-117840000D01*
X232730000Y-128080000D02*
X232730000Y-117840000D01*
X240480000Y-120859000D02*
X241990000Y-120859000D01*
X240480000Y-124560000D02*
X241990000Y-124560000D01*
X241990000Y-127830000D02*
X241990000Y-117590000D01*
X240480000Y-117590000D02*
X245121000Y-117590000D01*
X240480000Y-127830000D02*
X245121000Y-127830000D01*
X245121000Y-127830000D02*
X245121000Y-117590000D01*
X240480000Y-127830000D02*
X240480000Y-117590000D01*
X260520000Y-140891000D02*
X259010000Y-140891000D01*
X260520000Y-137190000D02*
X259010000Y-137190000D01*
X259010000Y-133920000D02*
X259010000Y-144160000D01*
X260520000Y-144160000D02*
X255879000Y-144160000D01*
X260520000Y-133920000D02*
X255879000Y-133920000D01*
X255879000Y-133920000D02*
X255879000Y-144160000D01*
X260520000Y-133920000D02*
X260520000Y-144160000D01*
X233700000Y-98360000D02*
X223420000Y-98360000D01*
X233700000Y-108760000D02*
X233700000Y-98360000D01*
X223420000Y-108760000D02*
X233700000Y-108760000D01*
X223420000Y-98360000D02*
X223420000Y-108760000D01*
X231210000Y-98420000D02*
X229560000Y-98420000D01*
X231210000Y-108700000D02*
X231210000Y-98420000D01*
X225910000Y-108700000D02*
X231210000Y-108700000D01*
X225910000Y-98420000D02*
X225910000Y-108700000D01*
X227560000Y-98420000D02*
X225910000Y-98420000D01*
X229560000Y-98420000D02*
G75*
G02X227560000Y-98420000I-1000000J0D01*
G01*
X160250000Y-87950000D02*
X157400000Y-87950000D01*
X160250000Y-90800000D02*
X160250000Y-87950000D01*
X148790000Y-92810000D02*
X148790000Y-91000000D01*
X150190000Y-92810000D02*
X148790000Y-92810000D01*
X150190000Y-93810000D02*
X150190000Y-92810000D01*
X160010000Y-93810000D02*
X150190000Y-93810000D01*
X160010000Y-91000000D02*
X160010000Y-93810000D01*
X148790000Y-89190000D02*
X148790000Y-91000000D01*
X150190000Y-89190000D02*
X148790000Y-89190000D01*
X150190000Y-88190000D02*
X150190000Y-89190000D01*
X160010000Y-88190000D02*
X150190000Y-88190000D01*
X160010000Y-91000000D02*
X160010000Y-88190000D01*
X158650000Y-125980000D02*
X158650000Y-123320000D01*
X150970000Y-125980000D02*
X158650000Y-125980000D01*
X150970000Y-123320000D02*
X158650000Y-123320000D01*
X150970000Y-125980000D02*
X150970000Y-123320000D01*
X149700000Y-125980000D02*
X148370000Y-125980000D01*
X148370000Y-125980000D02*
X148370000Y-124650000D01*
X146150000Y-108230000D02*
X152200000Y-108230000D01*
X152200000Y-108230000D02*
X152200000Y-105570000D01*
X146150000Y-105570000D02*
X152200000Y-105570000D01*
X146100000Y-105570000D02*
X146100000Y-108230000D01*
X251180000Y-144170000D02*
X251780000Y-144170000D01*
X251180000Y-142570000D02*
X251180000Y-144170000D01*
X251780000Y-142570000D02*
X251180000Y-142570000D01*
X251180000Y-141630000D02*
X251780000Y-141630000D01*
X251180000Y-140030000D02*
X251180000Y-141630000D01*
X251780000Y-140030000D02*
X251180000Y-140030000D01*
X251180000Y-139090000D02*
X251780000Y-139090000D01*
X251180000Y-137490000D02*
X251180000Y-139090000D01*
X251780000Y-137490000D02*
X251180000Y-137490000D01*
X251180000Y-136550000D02*
X251780000Y-136550000D01*
X251180000Y-134950000D02*
X251180000Y-136550000D01*
X251780000Y-134950000D02*
X251180000Y-134950000D01*
X245760000Y-143120000D02*
X246760000Y-143120000D01*
X245760000Y-136000000D02*
X246760000Y-136000000D01*
X247290000Y-143120000D02*
X246760000Y-143370000D01*
X247290000Y-136000000D02*
X247290000Y-143120000D01*
X246760000Y-135750000D02*
X247290000Y-136000000D01*
X246760000Y-143370000D02*
X245760000Y-143370000D01*
X246760000Y-135750000D02*
X246760000Y-143370000D01*
X245760000Y-135750000D02*
X246760000Y-135750000D01*
X250750000Y-134080000D02*
X246750000Y-134080000D01*
X251780000Y-144750000D02*
X251780000Y-134370000D01*
X245760000Y-144750000D02*
X251780000Y-144750000D01*
X245760000Y-134370000D02*
X245760000Y-144750000D01*
X251780000Y-134370000D02*
X245760000Y-134370000D01*
X225370000Y-79630000D02*
X225370000Y-80230000D01*
X226970000Y-79630000D02*
X225370000Y-79630000D01*
X226970000Y-80230000D02*
X226970000Y-79630000D01*
X227910000Y-79630000D02*
X227910000Y-80230000D01*
X229510000Y-79630000D02*
X227910000Y-79630000D01*
X229510000Y-80230000D02*
X229510000Y-79630000D01*
X230450000Y-79630000D02*
X230450000Y-80230000D01*
X232050000Y-79630000D02*
X230450000Y-79630000D01*
X232050000Y-80230000D02*
X232050000Y-79630000D01*
X226420000Y-74210000D02*
X226420000Y-75210000D01*
X231000000Y-74210000D02*
X231000000Y-75210000D01*
X226420000Y-75740000D02*
X226170000Y-75210000D01*
X231000000Y-75740000D02*
X226420000Y-75740000D01*
X231250000Y-75210000D02*
X231000000Y-75740000D01*
X226170000Y-75210000D02*
X226170000Y-74210000D01*
X231250000Y-75210000D02*
X226170000Y-75210000D01*
X231250000Y-74210000D02*
X231250000Y-75210000D01*
X232920000Y-79200000D02*
X232920000Y-75200000D01*
X224790000Y-80230000D02*
X232630000Y-80230000D01*
X224790000Y-74210000D02*
X224790000Y-80230000D01*
X232630000Y-74210000D02*
X224790000Y-74210000D01*
X232630000Y-80230000D02*
X232630000Y-74210000D01*
X243000000Y-73600000D02*
X243000000Y-76450000D01*
X245850000Y-73600000D02*
X243000000Y-73600000D01*
X247860000Y-85060000D02*
X246050000Y-85060000D01*
X247860000Y-83660000D02*
X247860000Y-85060000D01*
X248860000Y-83660000D02*
X247860000Y-83660000D01*
X248860000Y-73840000D02*
X248860000Y-83660000D01*
X246050000Y-73840000D02*
X248860000Y-73840000D01*
X244240000Y-85060000D02*
X246050000Y-85060000D01*
X244240000Y-83660000D02*
X244240000Y-85060000D01*
X243240000Y-83660000D02*
X244240000Y-83660000D01*
X243240000Y-73840000D02*
X243240000Y-83660000D01*
X246050000Y-73840000D02*
X243240000Y-73840000D01*
X249150000Y-132300000D02*
X252000000Y-132300000D01*
X249150000Y-129450000D02*
X249150000Y-132300000D01*
X260610000Y-121140000D02*
X260610000Y-122950000D01*
X259210000Y-121140000D02*
X260610000Y-121140000D01*
X259210000Y-113840000D02*
X259210000Y-121140000D01*
X249390000Y-113840000D02*
X259210000Y-113840000D01*
X249390000Y-122950000D02*
X249390000Y-113840000D01*
X260610000Y-124760000D02*
X260610000Y-122950000D01*
X259210000Y-124760000D02*
X260610000Y-124760000D01*
X259210000Y-132060000D02*
X259210000Y-124760000D01*
X249390000Y-132060000D02*
X259210000Y-132060000D01*
X249390000Y-122950000D02*
X249390000Y-132060000D01*
X249788748Y-105910000D02*
X250311252Y-105910000D01*
X249788748Y-104490000D02*
X250311252Y-104490000D01*
X263738748Y-133960000D02*
X264261252Y-133960000D01*
X263738748Y-132540000D02*
X264261252Y-132540000D01*
X220540000Y-102738748D02*
X220540000Y-103261252D01*
X221960000Y-102738748D02*
X221960000Y-103261252D01*
D11*
X192698095Y-119212380D02*
X192698095Y-120021904D01*
X192745714Y-120117142D01*
X192793333Y-120164761D01*
X192888571Y-120212380D01*
X193079047Y-120212380D01*
X193174285Y-120164761D01*
X193221904Y-120117142D01*
X193269523Y-120021904D01*
X193269523Y-119212380D01*
X194269523Y-120212380D02*
X193698095Y-120212380D01*
X193983809Y-120212380D02*
X193983809Y-119212380D01*
X193888571Y-119355238D01*
X193793333Y-119450476D01*
X193698095Y-119498095D01*
X247102380Y-111142857D02*
X246626190Y-111476190D01*
X247102380Y-111714285D02*
X246102380Y-111714285D01*
X246102380Y-111333333D01*
X246150000Y-111238095D01*
X246197619Y-111190476D01*
X246292857Y-111142857D01*
X246435714Y-111142857D01*
X246530952Y-111190476D01*
X246578571Y-111238095D01*
X246626190Y-111333333D01*
X246626190Y-111714285D01*
X247102380Y-110190476D02*
X247102380Y-110761904D01*
X247102380Y-110476190D02*
X246102380Y-110476190D01*
X246245238Y-110571428D01*
X246340476Y-110666666D01*
X246388095Y-110761904D01*
X246530952Y-109619047D02*
X246483333Y-109714285D01*
X246435714Y-109761904D01*
X246340476Y-109809523D01*
X246292857Y-109809523D01*
X246197619Y-109761904D01*
X246150000Y-109714285D01*
X246102380Y-109619047D01*
X246102380Y-109428571D01*
X246150000Y-109333333D01*
X246197619Y-109285714D01*
X246292857Y-109238095D01*
X246340476Y-109238095D01*
X246435714Y-109285714D01*
X246483333Y-109333333D01*
X246530952Y-109428571D01*
X246530952Y-109619047D01*
X246578571Y-109714285D01*
X246626190Y-109761904D01*
X246721428Y-109809523D01*
X246911904Y-109809523D01*
X247007142Y-109761904D01*
X247054761Y-109714285D01*
X247102380Y-109619047D01*
X247102380Y-109428571D01*
X247054761Y-109333333D01*
X247007142Y-109285714D01*
X246911904Y-109238095D01*
X246721428Y-109238095D01*
X246626190Y-109285714D01*
X246578571Y-109333333D01*
X246530952Y-109428571D01*
X250352380Y-110666666D02*
X249876190Y-111000000D01*
X250352380Y-111238095D02*
X249352380Y-111238095D01*
X249352380Y-110857142D01*
X249400000Y-110761904D01*
X249447619Y-110714285D01*
X249542857Y-110666666D01*
X249685714Y-110666666D01*
X249780952Y-110714285D01*
X249828571Y-110761904D01*
X249876190Y-110857142D01*
X249876190Y-111238095D01*
X249352380Y-109761904D02*
X249352380Y-110238095D01*
X249828571Y-110285714D01*
X249780952Y-110238095D01*
X249733333Y-110142857D01*
X249733333Y-109904761D01*
X249780952Y-109809523D01*
X249828571Y-109761904D01*
X249923809Y-109714285D01*
X250161904Y-109714285D01*
X250257142Y-109761904D01*
X250304761Y-109809523D01*
X250352380Y-109904761D01*
X250352380Y-110142857D01*
X250304761Y-110238095D01*
X250257142Y-110285714D01*
X236552380Y-103416666D02*
X236076190Y-103750000D01*
X236552380Y-103988095D02*
X235552380Y-103988095D01*
X235552380Y-103607142D01*
X235600000Y-103511904D01*
X235647619Y-103464285D01*
X235742857Y-103416666D01*
X235885714Y-103416666D01*
X235980952Y-103464285D01*
X236028571Y-103511904D01*
X236076190Y-103607142D01*
X236076190Y-103988095D01*
X235885714Y-102559523D02*
X236552380Y-102559523D01*
X235504761Y-102797619D02*
X236219047Y-103035714D01*
X236219047Y-102416666D01*
X239852380Y-107916666D02*
X239376190Y-108250000D01*
X239852380Y-108488095D02*
X238852380Y-108488095D01*
X238852380Y-108107142D01*
X238900000Y-108011904D01*
X238947619Y-107964285D01*
X239042857Y-107916666D01*
X239185714Y-107916666D01*
X239280952Y-107964285D01*
X239328571Y-108011904D01*
X239376190Y-108107142D01*
X239376190Y-108488095D01*
X238852380Y-107583333D02*
X238852380Y-106964285D01*
X239233333Y-107297619D01*
X239233333Y-107154761D01*
X239280952Y-107059523D01*
X239328571Y-107011904D01*
X239423809Y-106964285D01*
X239661904Y-106964285D01*
X239757142Y-107011904D01*
X239804761Y-107059523D01*
X239852380Y-107154761D01*
X239852380Y-107440476D01*
X239804761Y-107535714D01*
X239757142Y-107583333D01*
X243852380Y-110666666D02*
X243376190Y-111000000D01*
X243852380Y-111238095D02*
X242852380Y-111238095D01*
X242852380Y-110857142D01*
X242900000Y-110761904D01*
X242947619Y-110714285D01*
X243042857Y-110666666D01*
X243185714Y-110666666D01*
X243280952Y-110714285D01*
X243328571Y-110761904D01*
X243376190Y-110857142D01*
X243376190Y-111238095D01*
X242947619Y-110285714D02*
X242900000Y-110238095D01*
X242852380Y-110142857D01*
X242852380Y-109904761D01*
X242900000Y-109809523D01*
X242947619Y-109761904D01*
X243042857Y-109714285D01*
X243138095Y-109714285D01*
X243280952Y-109761904D01*
X243852380Y-110333333D01*
X243852380Y-109714285D01*
X265102380Y-140666666D02*
X264626190Y-141000000D01*
X265102380Y-141238095D02*
X264102380Y-141238095D01*
X264102380Y-140857142D01*
X264150000Y-140761904D01*
X264197619Y-140714285D01*
X264292857Y-140666666D01*
X264435714Y-140666666D01*
X264530952Y-140714285D01*
X264578571Y-140761904D01*
X264626190Y-140857142D01*
X264626190Y-141238095D01*
X265102380Y-139714285D02*
X265102380Y-140285714D01*
X265102380Y-140000000D02*
X264102380Y-140000000D01*
X264245238Y-140095238D01*
X264340476Y-140190476D01*
X264388095Y-140285714D01*
X227777619Y-139055238D02*
X227730000Y-139150476D01*
X227634761Y-139245714D01*
X227491904Y-139388571D01*
X227444285Y-139483809D01*
X227444285Y-139579047D01*
X227682380Y-139531428D02*
X227634761Y-139626666D01*
X227539523Y-139721904D01*
X227349047Y-139769523D01*
X227015714Y-139769523D01*
X226825238Y-139721904D01*
X226730000Y-139626666D01*
X226682380Y-139531428D01*
X226682380Y-139340952D01*
X226730000Y-139245714D01*
X226825238Y-139150476D01*
X227015714Y-139102857D01*
X227349047Y-139102857D01*
X227539523Y-139150476D01*
X227634761Y-139245714D01*
X227682380Y-139340952D01*
X227682380Y-139531428D01*
X226682380Y-138245714D02*
X226682380Y-138436190D01*
X226730000Y-138531428D01*
X226777619Y-138579047D01*
X226920476Y-138674285D01*
X227110952Y-138721904D01*
X227491904Y-138721904D01*
X227587142Y-138674285D01*
X227634761Y-138626666D01*
X227682380Y-138531428D01*
X227682380Y-138340952D01*
X227634761Y-138245714D01*
X227587142Y-138198095D01*
X227491904Y-138150476D01*
X227253809Y-138150476D01*
X227158571Y-138198095D01*
X227110952Y-138245714D01*
X227063333Y-138340952D01*
X227063333Y-138531428D01*
X227110952Y-138626666D01*
X227158571Y-138674285D01*
X227253809Y-138721904D01*
X235777619Y-139055238D02*
X235730000Y-139150476D01*
X235634761Y-139245714D01*
X235491904Y-139388571D01*
X235444285Y-139483809D01*
X235444285Y-139579047D01*
X235682380Y-139531428D02*
X235634761Y-139626666D01*
X235539523Y-139721904D01*
X235349047Y-139769523D01*
X235015714Y-139769523D01*
X234825238Y-139721904D01*
X234730000Y-139626666D01*
X234682380Y-139531428D01*
X234682380Y-139340952D01*
X234730000Y-139245714D01*
X234825238Y-139150476D01*
X235015714Y-139102857D01*
X235349047Y-139102857D01*
X235539523Y-139150476D01*
X235634761Y-139245714D01*
X235682380Y-139340952D01*
X235682380Y-139531428D01*
X234682380Y-138198095D02*
X234682380Y-138674285D01*
X235158571Y-138721904D01*
X235110952Y-138674285D01*
X235063333Y-138579047D01*
X235063333Y-138340952D01*
X235110952Y-138245714D01*
X235158571Y-138198095D01*
X235253809Y-138150476D01*
X235491904Y-138150476D01*
X235587142Y-138198095D01*
X235634761Y-138245714D01*
X235682380Y-138340952D01*
X235682380Y-138579047D01*
X235634761Y-138674285D01*
X235587142Y-138721904D01*
X224027619Y-123055238D02*
X223980000Y-123150476D01*
X223884761Y-123245714D01*
X223741904Y-123388571D01*
X223694285Y-123483809D01*
X223694285Y-123579047D01*
X223932380Y-123531428D02*
X223884761Y-123626666D01*
X223789523Y-123721904D01*
X223599047Y-123769523D01*
X223265714Y-123769523D01*
X223075238Y-123721904D01*
X222980000Y-123626666D01*
X222932380Y-123531428D01*
X222932380Y-123340952D01*
X222980000Y-123245714D01*
X223075238Y-123150476D01*
X223265714Y-123102857D01*
X223599047Y-123102857D01*
X223789523Y-123150476D01*
X223884761Y-123245714D01*
X223932380Y-123340952D01*
X223932380Y-123531428D01*
X223265714Y-122245714D02*
X223932380Y-122245714D01*
X222884761Y-122483809D02*
X223599047Y-122721904D01*
X223599047Y-122102857D01*
X232277619Y-123055238D02*
X232230000Y-123150476D01*
X232134761Y-123245714D01*
X231991904Y-123388571D01*
X231944285Y-123483809D01*
X231944285Y-123579047D01*
X232182380Y-123531428D02*
X232134761Y-123626666D01*
X232039523Y-123721904D01*
X231849047Y-123769523D01*
X231515714Y-123769523D01*
X231325238Y-123721904D01*
X231230000Y-123626666D01*
X231182380Y-123531428D01*
X231182380Y-123340952D01*
X231230000Y-123245714D01*
X231325238Y-123150476D01*
X231515714Y-123102857D01*
X231849047Y-123102857D01*
X232039523Y-123150476D01*
X232134761Y-123245714D01*
X232182380Y-123340952D01*
X232182380Y-123531428D01*
X231182380Y-122769523D02*
X231182380Y-122150476D01*
X231563333Y-122483809D01*
X231563333Y-122340952D01*
X231610952Y-122245714D01*
X231658571Y-122198095D01*
X231753809Y-122150476D01*
X231991904Y-122150476D01*
X232087142Y-122198095D01*
X232134761Y-122245714D01*
X232182380Y-122340952D01*
X232182380Y-122626666D01*
X232134761Y-122721904D01*
X232087142Y-122769523D01*
X240027619Y-122805238D02*
X239980000Y-122900476D01*
X239884761Y-122995714D01*
X239741904Y-123138571D01*
X239694285Y-123233809D01*
X239694285Y-123329047D01*
X239932380Y-123281428D02*
X239884761Y-123376666D01*
X239789523Y-123471904D01*
X239599047Y-123519523D01*
X239265714Y-123519523D01*
X239075238Y-123471904D01*
X238980000Y-123376666D01*
X238932380Y-123281428D01*
X238932380Y-123090952D01*
X238980000Y-122995714D01*
X239075238Y-122900476D01*
X239265714Y-122852857D01*
X239599047Y-122852857D01*
X239789523Y-122900476D01*
X239884761Y-122995714D01*
X239932380Y-123090952D01*
X239932380Y-123281428D01*
X239027619Y-122471904D02*
X238980000Y-122424285D01*
X238932380Y-122329047D01*
X238932380Y-122090952D01*
X238980000Y-121995714D01*
X239027619Y-121948095D01*
X239122857Y-121900476D01*
X239218095Y-121900476D01*
X239360952Y-121948095D01*
X239932380Y-122519523D01*
X239932380Y-121900476D01*
X262067619Y-139135238D02*
X262020000Y-139230476D01*
X261924761Y-139325714D01*
X261781904Y-139468571D01*
X261734285Y-139563809D01*
X261734285Y-139659047D01*
X261972380Y-139611428D02*
X261924761Y-139706666D01*
X261829523Y-139801904D01*
X261639047Y-139849523D01*
X261305714Y-139849523D01*
X261115238Y-139801904D01*
X261020000Y-139706666D01*
X260972380Y-139611428D01*
X260972380Y-139420952D01*
X261020000Y-139325714D01*
X261115238Y-139230476D01*
X261305714Y-139182857D01*
X261639047Y-139182857D01*
X261829523Y-139230476D01*
X261924761Y-139325714D01*
X261972380Y-139420952D01*
X261972380Y-139611428D01*
X261972380Y-138230476D02*
X261972380Y-138801904D01*
X261972380Y-138516190D02*
X260972380Y-138516190D01*
X261115238Y-138611428D01*
X261210476Y-138706666D01*
X261258095Y-138801904D01*
X226345714Y-96952380D02*
X225869523Y-96952380D01*
X225869523Y-95952380D01*
X226679047Y-96952380D02*
X226679047Y-95952380D01*
X227012380Y-96666666D01*
X227345714Y-95952380D01*
X227345714Y-96952380D01*
X227726666Y-95952380D02*
X228345714Y-95952380D01*
X228012380Y-96333333D01*
X228155238Y-96333333D01*
X228250476Y-96380952D01*
X228298095Y-96428571D01*
X228345714Y-96523809D01*
X228345714Y-96761904D01*
X228298095Y-96857142D01*
X228250476Y-96904761D01*
X228155238Y-96952380D01*
X227869523Y-96952380D01*
X227774285Y-96904761D01*
X227726666Y-96857142D01*
X229250476Y-95952380D02*
X228774285Y-95952380D01*
X228726666Y-96428571D01*
X228774285Y-96380952D01*
X228869523Y-96333333D01*
X229107619Y-96333333D01*
X229202857Y-96380952D01*
X229250476Y-96428571D01*
X229298095Y-96523809D01*
X229298095Y-96761904D01*
X229250476Y-96857142D01*
X229202857Y-96904761D01*
X229107619Y-96952380D01*
X228869523Y-96952380D01*
X228774285Y-96904761D01*
X228726666Y-96857142D01*
X229869523Y-96380952D02*
X229774285Y-96333333D01*
X229726666Y-96285714D01*
X229679047Y-96190476D01*
X229679047Y-96142857D01*
X229726666Y-96047619D01*
X229774285Y-96000000D01*
X229869523Y-95952380D01*
X230060000Y-95952380D01*
X230155238Y-96000000D01*
X230202857Y-96047619D01*
X230250476Y-96142857D01*
X230250476Y-96190476D01*
X230202857Y-96285714D01*
X230155238Y-96333333D01*
X230060000Y-96380952D01*
X229869523Y-96380952D01*
X229774285Y-96428571D01*
X229726666Y-96476190D01*
X229679047Y-96571428D01*
X229679047Y-96761904D01*
X229726666Y-96857142D01*
X229774285Y-96904761D01*
X229869523Y-96952380D01*
X230060000Y-96952380D01*
X230155238Y-96904761D01*
X230202857Y-96857142D01*
X230250476Y-96761904D01*
X230250476Y-96571428D01*
X230202857Y-96476190D01*
X230155238Y-96428571D01*
X230060000Y-96380952D01*
X230679047Y-96952380D02*
X230679047Y-95952380D01*
X231250476Y-96952380D01*
X231250476Y-95952380D01*
X161238095Y-72752380D02*
X161238095Y-71752380D01*
X161238095Y-72228571D02*
X161809523Y-72228571D01*
X161809523Y-72752380D02*
X161809523Y-71752380D01*
X162714285Y-72085714D02*
X162714285Y-72752380D01*
X162476190Y-71704761D02*
X162238095Y-72419047D01*
X162857142Y-72419047D01*
X255238095Y-72752380D02*
X255238095Y-71752380D01*
X255238095Y-72228571D02*
X255809523Y-72228571D01*
X255809523Y-72752380D02*
X255809523Y-71752380D01*
X256190476Y-71752380D02*
X256809523Y-71752380D01*
X256476190Y-72133333D01*
X256619047Y-72133333D01*
X256714285Y-72180952D01*
X256761904Y-72228571D01*
X256809523Y-72323809D01*
X256809523Y-72561904D01*
X256761904Y-72657142D01*
X256714285Y-72704761D01*
X256619047Y-72752380D01*
X256333333Y-72752380D01*
X256238095Y-72704761D01*
X256190476Y-72657142D01*
X161238095Y-149752380D02*
X161238095Y-148752380D01*
X161238095Y-149228571D02*
X161809523Y-149228571D01*
X161809523Y-149752380D02*
X161809523Y-148752380D01*
X162238095Y-148847619D02*
X162285714Y-148800000D01*
X162380952Y-148752380D01*
X162619047Y-148752380D01*
X162714285Y-148800000D01*
X162761904Y-148847619D01*
X162809523Y-148942857D01*
X162809523Y-149038095D01*
X162761904Y-149180952D01*
X162190476Y-149752380D01*
X162809523Y-149752380D01*
X255238095Y-149752380D02*
X255238095Y-148752380D01*
X255238095Y-149228571D02*
X255809523Y-149228571D01*
X255809523Y-149752380D02*
X255809523Y-148752380D01*
X256809523Y-149752380D02*
X256238095Y-149752380D01*
X256523809Y-149752380D02*
X256523809Y-148752380D01*
X256428571Y-148895238D01*
X256333333Y-148990476D01*
X256238095Y-149038095D01*
X150773809Y-86428571D02*
X150916666Y-86476190D01*
X150964285Y-86523809D01*
X151011904Y-86619047D01*
X151011904Y-86761904D01*
X150964285Y-86857142D01*
X150916666Y-86904761D01*
X150821428Y-86952380D01*
X150440476Y-86952380D01*
X150440476Y-85952380D01*
X150773809Y-85952380D01*
X150869047Y-86000000D01*
X150916666Y-86047619D01*
X150964285Y-86142857D01*
X150964285Y-86238095D01*
X150916666Y-86333333D01*
X150869047Y-86380952D01*
X150773809Y-86428571D01*
X150440476Y-86428571D01*
X151440476Y-86952380D02*
X151440476Y-86285714D01*
X151440476Y-86476190D02*
X151488095Y-86380952D01*
X151535714Y-86333333D01*
X151630952Y-86285714D01*
X151726190Y-86285714D01*
X152488095Y-86952380D02*
X152488095Y-86428571D01*
X152440476Y-86333333D01*
X152345238Y-86285714D01*
X152154761Y-86285714D01*
X152059523Y-86333333D01*
X152488095Y-86904761D02*
X152392857Y-86952380D01*
X152154761Y-86952380D01*
X152059523Y-86904761D01*
X152011904Y-86809523D01*
X152011904Y-86714285D01*
X152059523Y-86619047D01*
X152154761Y-86571428D01*
X152392857Y-86571428D01*
X152488095Y-86523809D01*
X152964285Y-86952380D02*
X152964285Y-85952380D01*
X153059523Y-86571428D02*
X153345238Y-86952380D01*
X153345238Y-86285714D02*
X152964285Y-86666666D01*
X154154761Y-86904761D02*
X154059523Y-86952380D01*
X153869047Y-86952380D01*
X153773809Y-86904761D01*
X153726190Y-86809523D01*
X153726190Y-86428571D01*
X153773809Y-86333333D01*
X153869047Y-86285714D01*
X154059523Y-86285714D01*
X154154761Y-86333333D01*
X154202380Y-86428571D01*
X154202380Y-86523809D01*
X153726190Y-86619047D01*
X154392857Y-87047619D02*
X155154761Y-87047619D01*
X155964285Y-86857142D02*
X155916666Y-86904761D01*
X155773809Y-86952380D01*
X155678571Y-86952380D01*
X155535714Y-86904761D01*
X155440476Y-86809523D01*
X155392857Y-86714285D01*
X155345238Y-86523809D01*
X155345238Y-86380952D01*
X155392857Y-86190476D01*
X155440476Y-86095238D01*
X155535714Y-86000000D01*
X155678571Y-85952380D01*
X155773809Y-85952380D01*
X155916666Y-86000000D01*
X155964285Y-86047619D01*
X156583333Y-85952380D02*
X156773809Y-85952380D01*
X156869047Y-86000000D01*
X156964285Y-86095238D01*
X157011904Y-86285714D01*
X157011904Y-86619047D01*
X156964285Y-86809523D01*
X156869047Y-86904761D01*
X156773809Y-86952380D01*
X156583333Y-86952380D01*
X156488095Y-86904761D01*
X156392857Y-86809523D01*
X156345238Y-86619047D01*
X156345238Y-86285714D01*
X156392857Y-86095238D01*
X156488095Y-86000000D01*
X156583333Y-85952380D01*
X157440476Y-86952380D02*
X157440476Y-85952380D01*
X158011904Y-86952380D01*
X158011904Y-85952380D01*
X158488095Y-86952380D02*
X158488095Y-85952380D01*
X159059523Y-86952380D01*
X159059523Y-85952380D01*
X148921428Y-130028571D02*
X149064285Y-130076190D01*
X149111904Y-130123809D01*
X149159523Y-130219047D01*
X149159523Y-130361904D01*
X149111904Y-130457142D01*
X149064285Y-130504761D01*
X148969047Y-130552380D01*
X148588095Y-130552380D01*
X148588095Y-129552380D01*
X148921428Y-129552380D01*
X149016666Y-129600000D01*
X149064285Y-129647619D01*
X149111904Y-129742857D01*
X149111904Y-129838095D01*
X149064285Y-129933333D01*
X149016666Y-129980952D01*
X148921428Y-130028571D01*
X148588095Y-130028571D01*
X149588095Y-130552380D02*
X149588095Y-129885714D01*
X149588095Y-130076190D02*
X149635714Y-129980952D01*
X149683333Y-129933333D01*
X149778571Y-129885714D01*
X149873809Y-129885714D01*
X150635714Y-130552380D02*
X150635714Y-130028571D01*
X150588095Y-129933333D01*
X150492857Y-129885714D01*
X150302380Y-129885714D01*
X150207142Y-129933333D01*
X150635714Y-130504761D02*
X150540476Y-130552380D01*
X150302380Y-130552380D01*
X150207142Y-130504761D01*
X150159523Y-130409523D01*
X150159523Y-130314285D01*
X150207142Y-130219047D01*
X150302380Y-130171428D01*
X150540476Y-130171428D01*
X150635714Y-130123809D01*
X151111904Y-130552380D02*
X151111904Y-129552380D01*
X151207142Y-130171428D02*
X151492857Y-130552380D01*
X151492857Y-129885714D02*
X151111904Y-130266666D01*
X152302380Y-130504761D02*
X152207142Y-130552380D01*
X152016666Y-130552380D01*
X151921428Y-130504761D01*
X151873809Y-130409523D01*
X151873809Y-130028571D01*
X151921428Y-129933333D01*
X152016666Y-129885714D01*
X152207142Y-129885714D01*
X152302380Y-129933333D01*
X152350000Y-130028571D01*
X152350000Y-130123809D01*
X151873809Y-130219047D01*
X152540476Y-130647619D02*
X153302380Y-130647619D01*
X153540476Y-130552380D02*
X153540476Y-129552380D01*
X153873809Y-130266666D01*
X154207142Y-129552380D01*
X154207142Y-130552380D01*
X155254761Y-130457142D02*
X155207142Y-130504761D01*
X155064285Y-130552380D01*
X154969047Y-130552380D01*
X154826190Y-130504761D01*
X154730952Y-130409523D01*
X154683333Y-130314285D01*
X154635714Y-130123809D01*
X154635714Y-129980952D01*
X154683333Y-129790476D01*
X154730952Y-129695238D01*
X154826190Y-129600000D01*
X154969047Y-129552380D01*
X155064285Y-129552380D01*
X155207142Y-129600000D01*
X155254761Y-129647619D01*
X155445238Y-130647619D02*
X156207142Y-130647619D01*
X157016666Y-130457142D02*
X156969047Y-130504761D01*
X156826190Y-130552380D01*
X156730952Y-130552380D01*
X156588095Y-130504761D01*
X156492857Y-130409523D01*
X156445238Y-130314285D01*
X156397619Y-130123809D01*
X156397619Y-129980952D01*
X156445238Y-129790476D01*
X156492857Y-129695238D01*
X156588095Y-129600000D01*
X156730952Y-129552380D01*
X156826190Y-129552380D01*
X156969047Y-129600000D01*
X157016666Y-129647619D01*
X157635714Y-129552380D02*
X157826190Y-129552380D01*
X157921428Y-129600000D01*
X158016666Y-129695238D01*
X158064285Y-129885714D01*
X158064285Y-130219047D01*
X158016666Y-130409523D01*
X157921428Y-130504761D01*
X157826190Y-130552380D01*
X157635714Y-130552380D01*
X157540476Y-130504761D01*
X157445238Y-130409523D01*
X157397619Y-130219047D01*
X157397619Y-129885714D01*
X157445238Y-129695238D01*
X157540476Y-129600000D01*
X157635714Y-129552380D01*
X158492857Y-130552380D02*
X158492857Y-129552380D01*
X159064285Y-130552380D01*
X159064285Y-129552380D01*
X159540476Y-130552380D02*
X159540476Y-129552380D01*
X160111904Y-130552380D01*
X160111904Y-129552380D01*
X245464285Y-146952380D02*
X245464285Y-145952380D01*
X245797619Y-146666666D01*
X246130952Y-145952380D01*
X246130952Y-146952380D01*
X247178571Y-146857142D02*
X247130952Y-146904761D01*
X246988095Y-146952380D01*
X246892857Y-146952380D01*
X246750000Y-146904761D01*
X246654761Y-146809523D01*
X246607142Y-146714285D01*
X246559523Y-146523809D01*
X246559523Y-146380952D01*
X246607142Y-146190476D01*
X246654761Y-146095238D01*
X246750000Y-146000000D01*
X246892857Y-145952380D01*
X246988095Y-145952380D01*
X247130952Y-146000000D01*
X247178571Y-146047619D01*
X247369047Y-147047619D02*
X248130952Y-147047619D01*
X248940476Y-146857142D02*
X248892857Y-146904761D01*
X248750000Y-146952380D01*
X248654761Y-146952380D01*
X248511904Y-146904761D01*
X248416666Y-146809523D01*
X248369047Y-146714285D01*
X248321428Y-146523809D01*
X248321428Y-146380952D01*
X248369047Y-146190476D01*
X248416666Y-146095238D01*
X248511904Y-146000000D01*
X248654761Y-145952380D01*
X248750000Y-145952380D01*
X248892857Y-146000000D01*
X248940476Y-146047619D01*
X249559523Y-145952380D02*
X249750000Y-145952380D01*
X249845238Y-146000000D01*
X249940476Y-146095238D01*
X249988095Y-146285714D01*
X249988095Y-146619047D01*
X249940476Y-146809523D01*
X249845238Y-146904761D01*
X249750000Y-146952380D01*
X249559523Y-146952380D01*
X249464285Y-146904761D01*
X249369047Y-146809523D01*
X249321428Y-146619047D01*
X249321428Y-146285714D01*
X249369047Y-146095238D01*
X249464285Y-146000000D01*
X249559523Y-145952380D01*
X250416666Y-146952380D02*
X250416666Y-145952380D01*
X250988095Y-146952380D01*
X250988095Y-145952380D01*
X251464285Y-146952380D02*
X251464285Y-145952380D01*
X252035714Y-146952380D01*
X252035714Y-145952380D01*
X222380952Y-81452380D02*
X222380952Y-82166666D01*
X222333333Y-82309523D01*
X222238095Y-82404761D01*
X222095238Y-82452380D01*
X222000000Y-82452380D01*
X222857142Y-81928571D02*
X223190476Y-81928571D01*
X223333333Y-82452380D02*
X222857142Y-82452380D01*
X222857142Y-81452380D01*
X223333333Y-81452380D01*
X223619047Y-81452380D02*
X224190476Y-81452380D01*
X223904761Y-82452380D02*
X223904761Y-81452380D01*
X224476190Y-82404761D02*
X224619047Y-82452380D01*
X224857142Y-82452380D01*
X224952380Y-82404761D01*
X225000000Y-82357142D01*
X225047619Y-82261904D01*
X225047619Y-82166666D01*
X225000000Y-82071428D01*
X224952380Y-82023809D01*
X224857142Y-81976190D01*
X224666666Y-81928571D01*
X224571428Y-81880952D01*
X224523809Y-81833333D01*
X224476190Y-81738095D01*
X224476190Y-81642857D01*
X224523809Y-81547619D01*
X224571428Y-81500000D01*
X224666666Y-81452380D01*
X224904761Y-81452380D01*
X225047619Y-81500000D01*
X225666666Y-81452380D02*
X225857142Y-81452380D01*
X225952380Y-81500000D01*
X226047619Y-81595238D01*
X226095238Y-81785714D01*
X226095238Y-82119047D01*
X226047619Y-82309523D01*
X225952380Y-82404761D01*
X225857142Y-82452380D01*
X225666666Y-82452380D01*
X225571428Y-82404761D01*
X225476190Y-82309523D01*
X225428571Y-82119047D01*
X225428571Y-81785714D01*
X225476190Y-81595238D01*
X225571428Y-81500000D01*
X225666666Y-81452380D01*
X226523809Y-82452380D02*
X226523809Y-81452380D01*
X227095238Y-82452380D01*
X227095238Y-81452380D01*
X227333333Y-82547619D02*
X228095238Y-82547619D01*
X228904761Y-82357142D02*
X228857142Y-82404761D01*
X228714285Y-82452380D01*
X228619047Y-82452380D01*
X228476190Y-82404761D01*
X228380952Y-82309523D01*
X228333333Y-82214285D01*
X228285714Y-82023809D01*
X228285714Y-81880952D01*
X228333333Y-81690476D01*
X228380952Y-81595238D01*
X228476190Y-81500000D01*
X228619047Y-81452380D01*
X228714285Y-81452380D01*
X228857142Y-81500000D01*
X228904761Y-81547619D01*
X229523809Y-81452380D02*
X229714285Y-81452380D01*
X229809523Y-81500000D01*
X229904761Y-81595238D01*
X229952380Y-81785714D01*
X229952380Y-82119047D01*
X229904761Y-82309523D01*
X229809523Y-82404761D01*
X229714285Y-82452380D01*
X229523809Y-82452380D01*
X229428571Y-82404761D01*
X229333333Y-82309523D01*
X229285714Y-82119047D01*
X229285714Y-81785714D01*
X229333333Y-81595238D01*
X229428571Y-81500000D01*
X229523809Y-81452380D01*
X230380952Y-82452380D02*
X230380952Y-81452380D01*
X230952380Y-82452380D01*
X230952380Y-81452380D01*
X231428571Y-82452380D02*
X231428571Y-81452380D01*
X232000000Y-82452380D01*
X232000000Y-81452380D01*
X232238095Y-82547619D02*
X233000000Y-82547619D01*
X233238095Y-82452380D02*
X233238095Y-81452380D01*
X233619047Y-81452380D01*
X233714285Y-81500000D01*
X233761904Y-81547619D01*
X233809523Y-81642857D01*
X233809523Y-81785714D01*
X233761904Y-81880952D01*
X233714285Y-81928571D01*
X233619047Y-81976190D01*
X233238095Y-81976190D01*
X234142857Y-81452380D02*
X234380952Y-82452380D01*
X234571428Y-81738095D01*
X234761904Y-82452380D01*
X235000000Y-81452380D01*
X235952380Y-82452380D02*
X235619047Y-81976190D01*
X235380952Y-82452380D02*
X235380952Y-81452380D01*
X235761904Y-81452380D01*
X235857142Y-81500000D01*
X235904761Y-81547619D01*
X235952380Y-81642857D01*
X235952380Y-81785714D01*
X235904761Y-81880952D01*
X235857142Y-81928571D01*
X235761904Y-81976190D01*
X235380952Y-81976190D01*
X241835714Y-86602380D02*
X241835714Y-85602380D01*
X242073809Y-85602380D01*
X242216666Y-85650000D01*
X242311904Y-85745238D01*
X242359523Y-85840476D01*
X242407142Y-86030952D01*
X242407142Y-86173809D01*
X242359523Y-86364285D01*
X242311904Y-86459523D01*
X242216666Y-86554761D01*
X242073809Y-86602380D01*
X241835714Y-86602380D01*
X243407142Y-86507142D02*
X243359523Y-86554761D01*
X243216666Y-86602380D01*
X243121428Y-86602380D01*
X242978571Y-86554761D01*
X242883333Y-86459523D01*
X242835714Y-86364285D01*
X242788095Y-86173809D01*
X242788095Y-86030952D01*
X242835714Y-85840476D01*
X242883333Y-85745238D01*
X242978571Y-85650000D01*
X243121428Y-85602380D01*
X243216666Y-85602380D01*
X243359523Y-85650000D01*
X243407142Y-85697619D01*
X243835714Y-86602380D02*
X243835714Y-85602380D01*
X244073809Y-85602380D01*
X244216666Y-85650000D01*
X244311904Y-85745238D01*
X244359523Y-85840476D01*
X244407142Y-86030952D01*
X244407142Y-86173809D01*
X244359523Y-86364285D01*
X244311904Y-86459523D01*
X244216666Y-86554761D01*
X244073809Y-86602380D01*
X243835714Y-86602380D01*
X245407142Y-86507142D02*
X245359523Y-86554761D01*
X245216666Y-86602380D01*
X245121428Y-86602380D01*
X244978571Y-86554761D01*
X244883333Y-86459523D01*
X244835714Y-86364285D01*
X244788095Y-86173809D01*
X244788095Y-86030952D01*
X244835714Y-85840476D01*
X244883333Y-85745238D01*
X244978571Y-85650000D01*
X245121428Y-85602380D01*
X245216666Y-85602380D01*
X245359523Y-85650000D01*
X245407142Y-85697619D01*
X245597619Y-86697619D02*
X246359523Y-86697619D01*
X247169047Y-86507142D02*
X247121428Y-86554761D01*
X246978571Y-86602380D01*
X246883333Y-86602380D01*
X246740476Y-86554761D01*
X246645238Y-86459523D01*
X246597619Y-86364285D01*
X246550000Y-86173809D01*
X246550000Y-86030952D01*
X246597619Y-85840476D01*
X246645238Y-85745238D01*
X246740476Y-85650000D01*
X246883333Y-85602380D01*
X246978571Y-85602380D01*
X247121428Y-85650000D01*
X247169047Y-85697619D01*
X247788095Y-85602380D02*
X247978571Y-85602380D01*
X248073809Y-85650000D01*
X248169047Y-85745238D01*
X248216666Y-85935714D01*
X248216666Y-86269047D01*
X248169047Y-86459523D01*
X248073809Y-86554761D01*
X247978571Y-86602380D01*
X247788095Y-86602380D01*
X247692857Y-86554761D01*
X247597619Y-86459523D01*
X247550000Y-86269047D01*
X247550000Y-85935714D01*
X247597619Y-85745238D01*
X247692857Y-85650000D01*
X247788095Y-85602380D01*
X248645238Y-86602380D02*
X248645238Y-85602380D01*
X249216666Y-86602380D01*
X249216666Y-85602380D01*
X249692857Y-86602380D02*
X249692857Y-85602380D01*
X250264285Y-86602380D01*
X250264285Y-85602380D01*
X250857142Y-112654761D02*
X251000000Y-112702380D01*
X251238095Y-112702380D01*
X251333333Y-112654761D01*
X251380952Y-112607142D01*
X251428571Y-112511904D01*
X251428571Y-112416666D01*
X251380952Y-112321428D01*
X251333333Y-112273809D01*
X251238095Y-112226190D01*
X251047619Y-112178571D01*
X250952380Y-112130952D01*
X250904761Y-112083333D01*
X250857142Y-111988095D01*
X250857142Y-111892857D01*
X250904761Y-111797619D01*
X250952380Y-111750000D01*
X251047619Y-111702380D01*
X251285714Y-111702380D01*
X251428571Y-111750000D01*
X251857142Y-112178571D02*
X252190476Y-112178571D01*
X252333333Y-112702380D02*
X251857142Y-112702380D01*
X251857142Y-111702380D01*
X252333333Y-111702380D01*
X253333333Y-112702380D02*
X253000000Y-112226190D01*
X252761904Y-112702380D02*
X252761904Y-111702380D01*
X253142857Y-111702380D01*
X253238095Y-111750000D01*
X253285714Y-111797619D01*
X253333333Y-111892857D01*
X253333333Y-112035714D01*
X253285714Y-112130952D01*
X253238095Y-112178571D01*
X253142857Y-112226190D01*
X252761904Y-112226190D01*
X253619047Y-111702380D02*
X253952380Y-112702380D01*
X254285714Y-111702380D01*
X254809523Y-111702380D02*
X255000000Y-111702380D01*
X255095238Y-111750000D01*
X255190476Y-111845238D01*
X255238095Y-112035714D01*
X255238095Y-112369047D01*
X255190476Y-112559523D01*
X255095238Y-112654761D01*
X255000000Y-112702380D01*
X254809523Y-112702380D01*
X254714285Y-112654761D01*
X254619047Y-112559523D01*
X254571428Y-112369047D01*
X254571428Y-112035714D01*
X254619047Y-111845238D01*
X254714285Y-111750000D01*
X254809523Y-111702380D01*
X255428571Y-112797619D02*
X256190476Y-112797619D01*
X257000000Y-112607142D02*
X256952380Y-112654761D01*
X256809523Y-112702380D01*
X256714285Y-112702380D01*
X256571428Y-112654761D01*
X256476190Y-112559523D01*
X256428571Y-112464285D01*
X256380952Y-112273809D01*
X256380952Y-112130952D01*
X256428571Y-111940476D01*
X256476190Y-111845238D01*
X256571428Y-111750000D01*
X256714285Y-111702380D01*
X256809523Y-111702380D01*
X256952380Y-111750000D01*
X257000000Y-111797619D01*
X257619047Y-111702380D02*
X257809523Y-111702380D01*
X257904761Y-111750000D01*
X258000000Y-111845238D01*
X258047619Y-112035714D01*
X258047619Y-112369047D01*
X258000000Y-112559523D01*
X257904761Y-112654761D01*
X257809523Y-112702380D01*
X257619047Y-112702380D01*
X257523809Y-112654761D01*
X257428571Y-112559523D01*
X257380952Y-112369047D01*
X257380952Y-112035714D01*
X257428571Y-111845238D01*
X257523809Y-111750000D01*
X257619047Y-111702380D01*
X258476190Y-112702380D02*
X258476190Y-111702380D01*
X259047619Y-112702380D01*
X259047619Y-111702380D01*
X259523809Y-112702380D02*
X259523809Y-111702380D01*
X260095238Y-112702380D01*
X260095238Y-111702380D01*
X249883333Y-103907142D02*
X249835714Y-103954761D01*
X249692857Y-104002380D01*
X249597619Y-104002380D01*
X249454761Y-103954761D01*
X249359523Y-103859523D01*
X249311904Y-103764285D01*
X249264285Y-103573809D01*
X249264285Y-103430952D01*
X249311904Y-103240476D01*
X249359523Y-103145238D01*
X249454761Y-103050000D01*
X249597619Y-103002380D01*
X249692857Y-103002380D01*
X249835714Y-103050000D01*
X249883333Y-103097619D01*
X250788095Y-103002380D02*
X250311904Y-103002380D01*
X250264285Y-103478571D01*
X250311904Y-103430952D01*
X250407142Y-103383333D01*
X250645238Y-103383333D01*
X250740476Y-103430952D01*
X250788095Y-103478571D01*
X250835714Y-103573809D01*
X250835714Y-103811904D01*
X250788095Y-103907142D01*
X250740476Y-103954761D01*
X250645238Y-104002380D01*
X250407142Y-104002380D01*
X250311904Y-103954761D01*
X250264285Y-103907142D01*
X263833333Y-131957142D02*
X263785714Y-132004761D01*
X263642857Y-132052380D01*
X263547619Y-132052380D01*
X263404761Y-132004761D01*
X263309523Y-131909523D01*
X263261904Y-131814285D01*
X263214285Y-131623809D01*
X263214285Y-131480952D01*
X263261904Y-131290476D01*
X263309523Y-131195238D01*
X263404761Y-131100000D01*
X263547619Y-131052380D01*
X263642857Y-131052380D01*
X263785714Y-131100000D01*
X263833333Y-131147619D01*
X264214285Y-131147619D02*
X264261904Y-131100000D01*
X264357142Y-131052380D01*
X264595238Y-131052380D01*
X264690476Y-131100000D01*
X264738095Y-131147619D01*
X264785714Y-131242857D01*
X264785714Y-131338095D01*
X264738095Y-131480952D01*
X264166666Y-132052380D01*
X264785714Y-132052380D01*
X223257142Y-103166666D02*
X223304761Y-103214285D01*
X223352380Y-103357142D01*
X223352380Y-103452380D01*
X223304761Y-103595238D01*
X223209523Y-103690476D01*
X223114285Y-103738095D01*
X222923809Y-103785714D01*
X222780952Y-103785714D01*
X222590476Y-103738095D01*
X222495238Y-103690476D01*
X222400000Y-103595238D01*
X222352380Y-103452380D01*
X222352380Y-103357142D01*
X222400000Y-103214285D01*
X222447619Y-103166666D01*
X223352380Y-102214285D02*
X223352380Y-102785714D01*
X223352380Y-102500000D02*
X222352380Y-102500000D01*
X222495238Y-102595238D01*
X222590476Y-102690476D01*
X222638095Y-102785714D01*
M02*
