G04 #@! TF.GenerationSoftware,KiCad,Pcbnew,(5.1.4)-1*
G04 #@! TF.CreationDate,2020-03-02T21:34:55-05:00*
G04 #@! TF.ProjectId,PCB_2020,5043425f-3230-4323-902e-6b696361645f,rev?*
G04 #@! TF.SameCoordinates,Original*
G04 #@! TF.FileFunction,Paste,Top*
G04 #@! TF.FilePolarity,Positive*
%FSLAX46Y46*%
G04 Gerber Fmt 4.6, Leading zero omitted, Abs format (unit mm)*
G04 Created by KiCad (PCBNEW (5.1.4)-1) date 2020-03-02 21:34:55*
%MOMM*%
%LPD*%
G04 APERTURE LIST*
%ADD10C,0.100000*%
%ADD11C,1.150000*%
G04 APERTURE END LIST*
D10*
G36*
X250374505Y-118551204D02*
G01*
X250398773Y-118554804D01*
X250422572Y-118560765D01*
X250445671Y-118569030D01*
X250467850Y-118579520D01*
X250488893Y-118592132D01*
X250508599Y-118606747D01*
X250526777Y-118623223D01*
X250543253Y-118641401D01*
X250557868Y-118661107D01*
X250570480Y-118682150D01*
X250580970Y-118704329D01*
X250589235Y-118727428D01*
X250595196Y-118751227D01*
X250598796Y-118775495D01*
X250600000Y-118799999D01*
X250600000Y-119700001D01*
X250598796Y-119724505D01*
X250595196Y-119748773D01*
X250589235Y-119772572D01*
X250580970Y-119795671D01*
X250570480Y-119817850D01*
X250557868Y-119838893D01*
X250543253Y-119858599D01*
X250526777Y-119876777D01*
X250508599Y-119893253D01*
X250488893Y-119907868D01*
X250467850Y-119920480D01*
X250445671Y-119930970D01*
X250422572Y-119939235D01*
X250398773Y-119945196D01*
X250374505Y-119948796D01*
X250350001Y-119950000D01*
X249699999Y-119950000D01*
X249675495Y-119948796D01*
X249651227Y-119945196D01*
X249627428Y-119939235D01*
X249604329Y-119930970D01*
X249582150Y-119920480D01*
X249561107Y-119907868D01*
X249541401Y-119893253D01*
X249523223Y-119876777D01*
X249506747Y-119858599D01*
X249492132Y-119838893D01*
X249479520Y-119817850D01*
X249469030Y-119795671D01*
X249460765Y-119772572D01*
X249454804Y-119748773D01*
X249451204Y-119724505D01*
X249450000Y-119700001D01*
X249450000Y-118799999D01*
X249451204Y-118775495D01*
X249454804Y-118751227D01*
X249460765Y-118727428D01*
X249469030Y-118704329D01*
X249479520Y-118682150D01*
X249492132Y-118661107D01*
X249506747Y-118641401D01*
X249523223Y-118623223D01*
X249541401Y-118606747D01*
X249561107Y-118592132D01*
X249582150Y-118579520D01*
X249604329Y-118569030D01*
X249627428Y-118560765D01*
X249651227Y-118554804D01*
X249675495Y-118551204D01*
X249699999Y-118550000D01*
X250350001Y-118550000D01*
X250374505Y-118551204D01*
X250374505Y-118551204D01*
G37*
D11*
X250025000Y-119250000D03*
D10*
G36*
X248324505Y-118551204D02*
G01*
X248348773Y-118554804D01*
X248372572Y-118560765D01*
X248395671Y-118569030D01*
X248417850Y-118579520D01*
X248438893Y-118592132D01*
X248458599Y-118606747D01*
X248476777Y-118623223D01*
X248493253Y-118641401D01*
X248507868Y-118661107D01*
X248520480Y-118682150D01*
X248530970Y-118704329D01*
X248539235Y-118727428D01*
X248545196Y-118751227D01*
X248548796Y-118775495D01*
X248550000Y-118799999D01*
X248550000Y-119700001D01*
X248548796Y-119724505D01*
X248545196Y-119748773D01*
X248539235Y-119772572D01*
X248530970Y-119795671D01*
X248520480Y-119817850D01*
X248507868Y-119838893D01*
X248493253Y-119858599D01*
X248476777Y-119876777D01*
X248458599Y-119893253D01*
X248438893Y-119907868D01*
X248417850Y-119920480D01*
X248395671Y-119930970D01*
X248372572Y-119939235D01*
X248348773Y-119945196D01*
X248324505Y-119948796D01*
X248300001Y-119950000D01*
X247649999Y-119950000D01*
X247625495Y-119948796D01*
X247601227Y-119945196D01*
X247577428Y-119939235D01*
X247554329Y-119930970D01*
X247532150Y-119920480D01*
X247511107Y-119907868D01*
X247491401Y-119893253D01*
X247473223Y-119876777D01*
X247456747Y-119858599D01*
X247442132Y-119838893D01*
X247429520Y-119817850D01*
X247419030Y-119795671D01*
X247410765Y-119772572D01*
X247404804Y-119748773D01*
X247401204Y-119724505D01*
X247400000Y-119700001D01*
X247400000Y-118799999D01*
X247401204Y-118775495D01*
X247404804Y-118751227D01*
X247410765Y-118727428D01*
X247419030Y-118704329D01*
X247429520Y-118682150D01*
X247442132Y-118661107D01*
X247456747Y-118641401D01*
X247473223Y-118623223D01*
X247491401Y-118606747D01*
X247511107Y-118592132D01*
X247532150Y-118579520D01*
X247554329Y-118569030D01*
X247577428Y-118560765D01*
X247601227Y-118554804D01*
X247625495Y-118551204D01*
X247649999Y-118550000D01*
X248300001Y-118550000D01*
X248324505Y-118551204D01*
X248324505Y-118551204D01*
G37*
D11*
X247975000Y-119250000D03*
D10*
G36*
X250374505Y-114301204D02*
G01*
X250398773Y-114304804D01*
X250422572Y-114310765D01*
X250445671Y-114319030D01*
X250467850Y-114329520D01*
X250488893Y-114342132D01*
X250508599Y-114356747D01*
X250526777Y-114373223D01*
X250543253Y-114391401D01*
X250557868Y-114411107D01*
X250570480Y-114432150D01*
X250580970Y-114454329D01*
X250589235Y-114477428D01*
X250595196Y-114501227D01*
X250598796Y-114525495D01*
X250600000Y-114549999D01*
X250600000Y-115450001D01*
X250598796Y-115474505D01*
X250595196Y-115498773D01*
X250589235Y-115522572D01*
X250580970Y-115545671D01*
X250570480Y-115567850D01*
X250557868Y-115588893D01*
X250543253Y-115608599D01*
X250526777Y-115626777D01*
X250508599Y-115643253D01*
X250488893Y-115657868D01*
X250467850Y-115670480D01*
X250445671Y-115680970D01*
X250422572Y-115689235D01*
X250398773Y-115695196D01*
X250374505Y-115698796D01*
X250350001Y-115700000D01*
X249699999Y-115700000D01*
X249675495Y-115698796D01*
X249651227Y-115695196D01*
X249627428Y-115689235D01*
X249604329Y-115680970D01*
X249582150Y-115670480D01*
X249561107Y-115657868D01*
X249541401Y-115643253D01*
X249523223Y-115626777D01*
X249506747Y-115608599D01*
X249492132Y-115588893D01*
X249479520Y-115567850D01*
X249469030Y-115545671D01*
X249460765Y-115522572D01*
X249454804Y-115498773D01*
X249451204Y-115474505D01*
X249450000Y-115450001D01*
X249450000Y-114549999D01*
X249451204Y-114525495D01*
X249454804Y-114501227D01*
X249460765Y-114477428D01*
X249469030Y-114454329D01*
X249479520Y-114432150D01*
X249492132Y-114411107D01*
X249506747Y-114391401D01*
X249523223Y-114373223D01*
X249541401Y-114356747D01*
X249561107Y-114342132D01*
X249582150Y-114329520D01*
X249604329Y-114319030D01*
X249627428Y-114310765D01*
X249651227Y-114304804D01*
X249675495Y-114301204D01*
X249699999Y-114300000D01*
X250350001Y-114300000D01*
X250374505Y-114301204D01*
X250374505Y-114301204D01*
G37*
D11*
X250025000Y-115000000D03*
D10*
G36*
X248324505Y-114301204D02*
G01*
X248348773Y-114304804D01*
X248372572Y-114310765D01*
X248395671Y-114319030D01*
X248417850Y-114329520D01*
X248438893Y-114342132D01*
X248458599Y-114356747D01*
X248476777Y-114373223D01*
X248493253Y-114391401D01*
X248507868Y-114411107D01*
X248520480Y-114432150D01*
X248530970Y-114454329D01*
X248539235Y-114477428D01*
X248545196Y-114501227D01*
X248548796Y-114525495D01*
X248550000Y-114549999D01*
X248550000Y-115450001D01*
X248548796Y-115474505D01*
X248545196Y-115498773D01*
X248539235Y-115522572D01*
X248530970Y-115545671D01*
X248520480Y-115567850D01*
X248507868Y-115588893D01*
X248493253Y-115608599D01*
X248476777Y-115626777D01*
X248458599Y-115643253D01*
X248438893Y-115657868D01*
X248417850Y-115670480D01*
X248395671Y-115680970D01*
X248372572Y-115689235D01*
X248348773Y-115695196D01*
X248324505Y-115698796D01*
X248300001Y-115700000D01*
X247649999Y-115700000D01*
X247625495Y-115698796D01*
X247601227Y-115695196D01*
X247577428Y-115689235D01*
X247554329Y-115680970D01*
X247532150Y-115670480D01*
X247511107Y-115657868D01*
X247491401Y-115643253D01*
X247473223Y-115626777D01*
X247456747Y-115608599D01*
X247442132Y-115588893D01*
X247429520Y-115567850D01*
X247419030Y-115545671D01*
X247410765Y-115522572D01*
X247404804Y-115498773D01*
X247401204Y-115474505D01*
X247400000Y-115450001D01*
X247400000Y-114549999D01*
X247401204Y-114525495D01*
X247404804Y-114501227D01*
X247410765Y-114477428D01*
X247419030Y-114454329D01*
X247429520Y-114432150D01*
X247442132Y-114411107D01*
X247456747Y-114391401D01*
X247473223Y-114373223D01*
X247491401Y-114356747D01*
X247511107Y-114342132D01*
X247532150Y-114329520D01*
X247554329Y-114319030D01*
X247577428Y-114310765D01*
X247601227Y-114304804D01*
X247625495Y-114301204D01*
X247649999Y-114300000D01*
X248300001Y-114300000D01*
X248324505Y-114301204D01*
X248324505Y-114301204D01*
G37*
D11*
X247975000Y-115000000D03*
D10*
G36*
X238224505Y-101651204D02*
G01*
X238248773Y-101654804D01*
X238272572Y-101660765D01*
X238295671Y-101669030D01*
X238317850Y-101679520D01*
X238338893Y-101692132D01*
X238358599Y-101706747D01*
X238376777Y-101723223D01*
X238393253Y-101741401D01*
X238407868Y-101761107D01*
X238420480Y-101782150D01*
X238430970Y-101804329D01*
X238439235Y-101827428D01*
X238445196Y-101851227D01*
X238448796Y-101875495D01*
X238450000Y-101899999D01*
X238450000Y-102550001D01*
X238448796Y-102574505D01*
X238445196Y-102598773D01*
X238439235Y-102622572D01*
X238430970Y-102645671D01*
X238420480Y-102667850D01*
X238407868Y-102688893D01*
X238393253Y-102708599D01*
X238376777Y-102726777D01*
X238358599Y-102743253D01*
X238338893Y-102757868D01*
X238317850Y-102770480D01*
X238295671Y-102780970D01*
X238272572Y-102789235D01*
X238248773Y-102795196D01*
X238224505Y-102798796D01*
X238200001Y-102800000D01*
X237299999Y-102800000D01*
X237275495Y-102798796D01*
X237251227Y-102795196D01*
X237227428Y-102789235D01*
X237204329Y-102780970D01*
X237182150Y-102770480D01*
X237161107Y-102757868D01*
X237141401Y-102743253D01*
X237123223Y-102726777D01*
X237106747Y-102708599D01*
X237092132Y-102688893D01*
X237079520Y-102667850D01*
X237069030Y-102645671D01*
X237060765Y-102622572D01*
X237054804Y-102598773D01*
X237051204Y-102574505D01*
X237050000Y-102550001D01*
X237050000Y-101899999D01*
X237051204Y-101875495D01*
X237054804Y-101851227D01*
X237060765Y-101827428D01*
X237069030Y-101804329D01*
X237079520Y-101782150D01*
X237092132Y-101761107D01*
X237106747Y-101741401D01*
X237123223Y-101723223D01*
X237141401Y-101706747D01*
X237161107Y-101692132D01*
X237182150Y-101679520D01*
X237204329Y-101669030D01*
X237227428Y-101660765D01*
X237251227Y-101654804D01*
X237275495Y-101651204D01*
X237299999Y-101650000D01*
X238200001Y-101650000D01*
X238224505Y-101651204D01*
X238224505Y-101651204D01*
G37*
D11*
X237750000Y-102225000D03*
D10*
G36*
X238224505Y-103701204D02*
G01*
X238248773Y-103704804D01*
X238272572Y-103710765D01*
X238295671Y-103719030D01*
X238317850Y-103729520D01*
X238338893Y-103742132D01*
X238358599Y-103756747D01*
X238376777Y-103773223D01*
X238393253Y-103791401D01*
X238407868Y-103811107D01*
X238420480Y-103832150D01*
X238430970Y-103854329D01*
X238439235Y-103877428D01*
X238445196Y-103901227D01*
X238448796Y-103925495D01*
X238450000Y-103949999D01*
X238450000Y-104600001D01*
X238448796Y-104624505D01*
X238445196Y-104648773D01*
X238439235Y-104672572D01*
X238430970Y-104695671D01*
X238420480Y-104717850D01*
X238407868Y-104738893D01*
X238393253Y-104758599D01*
X238376777Y-104776777D01*
X238358599Y-104793253D01*
X238338893Y-104807868D01*
X238317850Y-104820480D01*
X238295671Y-104830970D01*
X238272572Y-104839235D01*
X238248773Y-104845196D01*
X238224505Y-104848796D01*
X238200001Y-104850000D01*
X237299999Y-104850000D01*
X237275495Y-104848796D01*
X237251227Y-104845196D01*
X237227428Y-104839235D01*
X237204329Y-104830970D01*
X237182150Y-104820480D01*
X237161107Y-104807868D01*
X237141401Y-104793253D01*
X237123223Y-104776777D01*
X237106747Y-104758599D01*
X237092132Y-104738893D01*
X237079520Y-104717850D01*
X237069030Y-104695671D01*
X237060765Y-104672572D01*
X237054804Y-104648773D01*
X237051204Y-104624505D01*
X237050000Y-104600001D01*
X237050000Y-103949999D01*
X237051204Y-103925495D01*
X237054804Y-103901227D01*
X237060765Y-103877428D01*
X237069030Y-103854329D01*
X237079520Y-103832150D01*
X237092132Y-103811107D01*
X237106747Y-103791401D01*
X237123223Y-103773223D01*
X237141401Y-103756747D01*
X237161107Y-103742132D01*
X237182150Y-103729520D01*
X237204329Y-103719030D01*
X237227428Y-103710765D01*
X237251227Y-103704804D01*
X237275495Y-103701204D01*
X237299999Y-103700000D01*
X238200001Y-103700000D01*
X238224505Y-103701204D01*
X238224505Y-103701204D01*
G37*
D11*
X237750000Y-104275000D03*
D10*
G36*
X238224505Y-108201204D02*
G01*
X238248773Y-108204804D01*
X238272572Y-108210765D01*
X238295671Y-108219030D01*
X238317850Y-108229520D01*
X238338893Y-108242132D01*
X238358599Y-108256747D01*
X238376777Y-108273223D01*
X238393253Y-108291401D01*
X238407868Y-108311107D01*
X238420480Y-108332150D01*
X238430970Y-108354329D01*
X238439235Y-108377428D01*
X238445196Y-108401227D01*
X238448796Y-108425495D01*
X238450000Y-108449999D01*
X238450000Y-109100001D01*
X238448796Y-109124505D01*
X238445196Y-109148773D01*
X238439235Y-109172572D01*
X238430970Y-109195671D01*
X238420480Y-109217850D01*
X238407868Y-109238893D01*
X238393253Y-109258599D01*
X238376777Y-109276777D01*
X238358599Y-109293253D01*
X238338893Y-109307868D01*
X238317850Y-109320480D01*
X238295671Y-109330970D01*
X238272572Y-109339235D01*
X238248773Y-109345196D01*
X238224505Y-109348796D01*
X238200001Y-109350000D01*
X237299999Y-109350000D01*
X237275495Y-109348796D01*
X237251227Y-109345196D01*
X237227428Y-109339235D01*
X237204329Y-109330970D01*
X237182150Y-109320480D01*
X237161107Y-109307868D01*
X237141401Y-109293253D01*
X237123223Y-109276777D01*
X237106747Y-109258599D01*
X237092132Y-109238893D01*
X237079520Y-109217850D01*
X237069030Y-109195671D01*
X237060765Y-109172572D01*
X237054804Y-109148773D01*
X237051204Y-109124505D01*
X237050000Y-109100001D01*
X237050000Y-108449999D01*
X237051204Y-108425495D01*
X237054804Y-108401227D01*
X237060765Y-108377428D01*
X237069030Y-108354329D01*
X237079520Y-108332150D01*
X237092132Y-108311107D01*
X237106747Y-108291401D01*
X237123223Y-108273223D01*
X237141401Y-108256747D01*
X237161107Y-108242132D01*
X237182150Y-108229520D01*
X237204329Y-108219030D01*
X237227428Y-108210765D01*
X237251227Y-108204804D01*
X237275495Y-108201204D01*
X237299999Y-108200000D01*
X238200001Y-108200000D01*
X238224505Y-108201204D01*
X238224505Y-108201204D01*
G37*
D11*
X237750000Y-108775000D03*
D10*
G36*
X238224505Y-106151204D02*
G01*
X238248773Y-106154804D01*
X238272572Y-106160765D01*
X238295671Y-106169030D01*
X238317850Y-106179520D01*
X238338893Y-106192132D01*
X238358599Y-106206747D01*
X238376777Y-106223223D01*
X238393253Y-106241401D01*
X238407868Y-106261107D01*
X238420480Y-106282150D01*
X238430970Y-106304329D01*
X238439235Y-106327428D01*
X238445196Y-106351227D01*
X238448796Y-106375495D01*
X238450000Y-106399999D01*
X238450000Y-107050001D01*
X238448796Y-107074505D01*
X238445196Y-107098773D01*
X238439235Y-107122572D01*
X238430970Y-107145671D01*
X238420480Y-107167850D01*
X238407868Y-107188893D01*
X238393253Y-107208599D01*
X238376777Y-107226777D01*
X238358599Y-107243253D01*
X238338893Y-107257868D01*
X238317850Y-107270480D01*
X238295671Y-107280970D01*
X238272572Y-107289235D01*
X238248773Y-107295196D01*
X238224505Y-107298796D01*
X238200001Y-107300000D01*
X237299999Y-107300000D01*
X237275495Y-107298796D01*
X237251227Y-107295196D01*
X237227428Y-107289235D01*
X237204329Y-107280970D01*
X237182150Y-107270480D01*
X237161107Y-107257868D01*
X237141401Y-107243253D01*
X237123223Y-107226777D01*
X237106747Y-107208599D01*
X237092132Y-107188893D01*
X237079520Y-107167850D01*
X237069030Y-107145671D01*
X237060765Y-107122572D01*
X237054804Y-107098773D01*
X237051204Y-107074505D01*
X237050000Y-107050001D01*
X237050000Y-106399999D01*
X237051204Y-106375495D01*
X237054804Y-106351227D01*
X237060765Y-106327428D01*
X237069030Y-106304329D01*
X237079520Y-106282150D01*
X237092132Y-106261107D01*
X237106747Y-106241401D01*
X237123223Y-106223223D01*
X237141401Y-106206747D01*
X237161107Y-106192132D01*
X237182150Y-106179520D01*
X237204329Y-106169030D01*
X237227428Y-106160765D01*
X237251227Y-106154804D01*
X237275495Y-106151204D01*
X237299999Y-106150000D01*
X238200001Y-106150000D01*
X238224505Y-106151204D01*
X238224505Y-106151204D01*
G37*
D11*
X237750000Y-106725000D03*
D10*
G36*
X250374505Y-122801204D02*
G01*
X250398773Y-122804804D01*
X250422572Y-122810765D01*
X250445671Y-122819030D01*
X250467850Y-122829520D01*
X250488893Y-122842132D01*
X250508599Y-122856747D01*
X250526777Y-122873223D01*
X250543253Y-122891401D01*
X250557868Y-122911107D01*
X250570480Y-122932150D01*
X250580970Y-122954329D01*
X250589235Y-122977428D01*
X250595196Y-123001227D01*
X250598796Y-123025495D01*
X250600000Y-123049999D01*
X250600000Y-123950001D01*
X250598796Y-123974505D01*
X250595196Y-123998773D01*
X250589235Y-124022572D01*
X250580970Y-124045671D01*
X250570480Y-124067850D01*
X250557868Y-124088893D01*
X250543253Y-124108599D01*
X250526777Y-124126777D01*
X250508599Y-124143253D01*
X250488893Y-124157868D01*
X250467850Y-124170480D01*
X250445671Y-124180970D01*
X250422572Y-124189235D01*
X250398773Y-124195196D01*
X250374505Y-124198796D01*
X250350001Y-124200000D01*
X249699999Y-124200000D01*
X249675495Y-124198796D01*
X249651227Y-124195196D01*
X249627428Y-124189235D01*
X249604329Y-124180970D01*
X249582150Y-124170480D01*
X249561107Y-124157868D01*
X249541401Y-124143253D01*
X249523223Y-124126777D01*
X249506747Y-124108599D01*
X249492132Y-124088893D01*
X249479520Y-124067850D01*
X249469030Y-124045671D01*
X249460765Y-124022572D01*
X249454804Y-123998773D01*
X249451204Y-123974505D01*
X249450000Y-123950001D01*
X249450000Y-123049999D01*
X249451204Y-123025495D01*
X249454804Y-123001227D01*
X249460765Y-122977428D01*
X249469030Y-122954329D01*
X249479520Y-122932150D01*
X249492132Y-122911107D01*
X249506747Y-122891401D01*
X249523223Y-122873223D01*
X249541401Y-122856747D01*
X249561107Y-122842132D01*
X249582150Y-122829520D01*
X249604329Y-122819030D01*
X249627428Y-122810765D01*
X249651227Y-122804804D01*
X249675495Y-122801204D01*
X249699999Y-122800000D01*
X250350001Y-122800000D01*
X250374505Y-122801204D01*
X250374505Y-122801204D01*
G37*
D11*
X250025000Y-123500000D03*
D10*
G36*
X248324505Y-122801204D02*
G01*
X248348773Y-122804804D01*
X248372572Y-122810765D01*
X248395671Y-122819030D01*
X248417850Y-122829520D01*
X248438893Y-122842132D01*
X248458599Y-122856747D01*
X248476777Y-122873223D01*
X248493253Y-122891401D01*
X248507868Y-122911107D01*
X248520480Y-122932150D01*
X248530970Y-122954329D01*
X248539235Y-122977428D01*
X248545196Y-123001227D01*
X248548796Y-123025495D01*
X248550000Y-123049999D01*
X248550000Y-123950001D01*
X248548796Y-123974505D01*
X248545196Y-123998773D01*
X248539235Y-124022572D01*
X248530970Y-124045671D01*
X248520480Y-124067850D01*
X248507868Y-124088893D01*
X248493253Y-124108599D01*
X248476777Y-124126777D01*
X248458599Y-124143253D01*
X248438893Y-124157868D01*
X248417850Y-124170480D01*
X248395671Y-124180970D01*
X248372572Y-124189235D01*
X248348773Y-124195196D01*
X248324505Y-124198796D01*
X248300001Y-124200000D01*
X247649999Y-124200000D01*
X247625495Y-124198796D01*
X247601227Y-124195196D01*
X247577428Y-124189235D01*
X247554329Y-124180970D01*
X247532150Y-124170480D01*
X247511107Y-124157868D01*
X247491401Y-124143253D01*
X247473223Y-124126777D01*
X247456747Y-124108599D01*
X247442132Y-124088893D01*
X247429520Y-124067850D01*
X247419030Y-124045671D01*
X247410765Y-124022572D01*
X247404804Y-123998773D01*
X247401204Y-123974505D01*
X247400000Y-123950001D01*
X247400000Y-123049999D01*
X247401204Y-123025495D01*
X247404804Y-123001227D01*
X247410765Y-122977428D01*
X247419030Y-122954329D01*
X247429520Y-122932150D01*
X247442132Y-122911107D01*
X247456747Y-122891401D01*
X247473223Y-122873223D01*
X247491401Y-122856747D01*
X247511107Y-122842132D01*
X247532150Y-122829520D01*
X247554329Y-122819030D01*
X247577428Y-122810765D01*
X247601227Y-122804804D01*
X247625495Y-122801204D01*
X247649999Y-122800000D01*
X248300001Y-122800000D01*
X248324505Y-122801204D01*
X248324505Y-122801204D01*
G37*
D11*
X247975000Y-123500000D03*
D10*
G36*
X263224505Y-141201204D02*
G01*
X263248773Y-141204804D01*
X263272572Y-141210765D01*
X263295671Y-141219030D01*
X263317850Y-141229520D01*
X263338893Y-141242132D01*
X263358599Y-141256747D01*
X263376777Y-141273223D01*
X263393253Y-141291401D01*
X263407868Y-141311107D01*
X263420480Y-141332150D01*
X263430970Y-141354329D01*
X263439235Y-141377428D01*
X263445196Y-141401227D01*
X263448796Y-141425495D01*
X263450000Y-141449999D01*
X263450000Y-142100001D01*
X263448796Y-142124505D01*
X263445196Y-142148773D01*
X263439235Y-142172572D01*
X263430970Y-142195671D01*
X263420480Y-142217850D01*
X263407868Y-142238893D01*
X263393253Y-142258599D01*
X263376777Y-142276777D01*
X263358599Y-142293253D01*
X263338893Y-142307868D01*
X263317850Y-142320480D01*
X263295671Y-142330970D01*
X263272572Y-142339235D01*
X263248773Y-142345196D01*
X263224505Y-142348796D01*
X263200001Y-142350000D01*
X262299999Y-142350000D01*
X262275495Y-142348796D01*
X262251227Y-142345196D01*
X262227428Y-142339235D01*
X262204329Y-142330970D01*
X262182150Y-142320480D01*
X262161107Y-142307868D01*
X262141401Y-142293253D01*
X262123223Y-142276777D01*
X262106747Y-142258599D01*
X262092132Y-142238893D01*
X262079520Y-142217850D01*
X262069030Y-142195671D01*
X262060765Y-142172572D01*
X262054804Y-142148773D01*
X262051204Y-142124505D01*
X262050000Y-142100001D01*
X262050000Y-141449999D01*
X262051204Y-141425495D01*
X262054804Y-141401227D01*
X262060765Y-141377428D01*
X262069030Y-141354329D01*
X262079520Y-141332150D01*
X262092132Y-141311107D01*
X262106747Y-141291401D01*
X262123223Y-141273223D01*
X262141401Y-141256747D01*
X262161107Y-141242132D01*
X262182150Y-141229520D01*
X262204329Y-141219030D01*
X262227428Y-141210765D01*
X262251227Y-141204804D01*
X262275495Y-141201204D01*
X262299999Y-141200000D01*
X263200001Y-141200000D01*
X263224505Y-141201204D01*
X263224505Y-141201204D01*
G37*
D11*
X262750000Y-141775000D03*
D10*
G36*
X263224505Y-139151204D02*
G01*
X263248773Y-139154804D01*
X263272572Y-139160765D01*
X263295671Y-139169030D01*
X263317850Y-139179520D01*
X263338893Y-139192132D01*
X263358599Y-139206747D01*
X263376777Y-139223223D01*
X263393253Y-139241401D01*
X263407868Y-139261107D01*
X263420480Y-139282150D01*
X263430970Y-139304329D01*
X263439235Y-139327428D01*
X263445196Y-139351227D01*
X263448796Y-139375495D01*
X263450000Y-139399999D01*
X263450000Y-140050001D01*
X263448796Y-140074505D01*
X263445196Y-140098773D01*
X263439235Y-140122572D01*
X263430970Y-140145671D01*
X263420480Y-140167850D01*
X263407868Y-140188893D01*
X263393253Y-140208599D01*
X263376777Y-140226777D01*
X263358599Y-140243253D01*
X263338893Y-140257868D01*
X263317850Y-140270480D01*
X263295671Y-140280970D01*
X263272572Y-140289235D01*
X263248773Y-140295196D01*
X263224505Y-140298796D01*
X263200001Y-140300000D01*
X262299999Y-140300000D01*
X262275495Y-140298796D01*
X262251227Y-140295196D01*
X262227428Y-140289235D01*
X262204329Y-140280970D01*
X262182150Y-140270480D01*
X262161107Y-140257868D01*
X262141401Y-140243253D01*
X262123223Y-140226777D01*
X262106747Y-140208599D01*
X262092132Y-140188893D01*
X262079520Y-140167850D01*
X262069030Y-140145671D01*
X262060765Y-140122572D01*
X262054804Y-140098773D01*
X262051204Y-140074505D01*
X262050000Y-140050001D01*
X262050000Y-139399999D01*
X262051204Y-139375495D01*
X262054804Y-139351227D01*
X262060765Y-139327428D01*
X262069030Y-139304329D01*
X262079520Y-139282150D01*
X262092132Y-139261107D01*
X262106747Y-139241401D01*
X262123223Y-139223223D01*
X262141401Y-139206747D01*
X262161107Y-139192132D01*
X262182150Y-139179520D01*
X262204329Y-139169030D01*
X262227428Y-139160765D01*
X262251227Y-139154804D01*
X262275495Y-139151204D01*
X262299999Y-139150000D01*
X263200001Y-139150000D01*
X263224505Y-139151204D01*
X263224505Y-139151204D01*
G37*
D11*
X262750000Y-139725000D03*
D10*
G36*
X250374505Y-110801204D02*
G01*
X250398773Y-110804804D01*
X250422572Y-110810765D01*
X250445671Y-110819030D01*
X250467850Y-110829520D01*
X250488893Y-110842132D01*
X250508599Y-110856747D01*
X250526777Y-110873223D01*
X250543253Y-110891401D01*
X250557868Y-110911107D01*
X250570480Y-110932150D01*
X250580970Y-110954329D01*
X250589235Y-110977428D01*
X250595196Y-111001227D01*
X250598796Y-111025495D01*
X250600000Y-111049999D01*
X250600000Y-111950001D01*
X250598796Y-111974505D01*
X250595196Y-111998773D01*
X250589235Y-112022572D01*
X250580970Y-112045671D01*
X250570480Y-112067850D01*
X250557868Y-112088893D01*
X250543253Y-112108599D01*
X250526777Y-112126777D01*
X250508599Y-112143253D01*
X250488893Y-112157868D01*
X250467850Y-112170480D01*
X250445671Y-112180970D01*
X250422572Y-112189235D01*
X250398773Y-112195196D01*
X250374505Y-112198796D01*
X250350001Y-112200000D01*
X249699999Y-112200000D01*
X249675495Y-112198796D01*
X249651227Y-112195196D01*
X249627428Y-112189235D01*
X249604329Y-112180970D01*
X249582150Y-112170480D01*
X249561107Y-112157868D01*
X249541401Y-112143253D01*
X249523223Y-112126777D01*
X249506747Y-112108599D01*
X249492132Y-112088893D01*
X249479520Y-112067850D01*
X249469030Y-112045671D01*
X249460765Y-112022572D01*
X249454804Y-111998773D01*
X249451204Y-111974505D01*
X249450000Y-111950001D01*
X249450000Y-111049999D01*
X249451204Y-111025495D01*
X249454804Y-111001227D01*
X249460765Y-110977428D01*
X249469030Y-110954329D01*
X249479520Y-110932150D01*
X249492132Y-110911107D01*
X249506747Y-110891401D01*
X249523223Y-110873223D01*
X249541401Y-110856747D01*
X249561107Y-110842132D01*
X249582150Y-110829520D01*
X249604329Y-110819030D01*
X249627428Y-110810765D01*
X249651227Y-110804804D01*
X249675495Y-110801204D01*
X249699999Y-110800000D01*
X250350001Y-110800000D01*
X250374505Y-110801204D01*
X250374505Y-110801204D01*
G37*
D11*
X250025000Y-111500000D03*
D10*
G36*
X248324505Y-110801204D02*
G01*
X248348773Y-110804804D01*
X248372572Y-110810765D01*
X248395671Y-110819030D01*
X248417850Y-110829520D01*
X248438893Y-110842132D01*
X248458599Y-110856747D01*
X248476777Y-110873223D01*
X248493253Y-110891401D01*
X248507868Y-110911107D01*
X248520480Y-110932150D01*
X248530970Y-110954329D01*
X248539235Y-110977428D01*
X248545196Y-111001227D01*
X248548796Y-111025495D01*
X248550000Y-111049999D01*
X248550000Y-111950001D01*
X248548796Y-111974505D01*
X248545196Y-111998773D01*
X248539235Y-112022572D01*
X248530970Y-112045671D01*
X248520480Y-112067850D01*
X248507868Y-112088893D01*
X248493253Y-112108599D01*
X248476777Y-112126777D01*
X248458599Y-112143253D01*
X248438893Y-112157868D01*
X248417850Y-112170480D01*
X248395671Y-112180970D01*
X248372572Y-112189235D01*
X248348773Y-112195196D01*
X248324505Y-112198796D01*
X248300001Y-112200000D01*
X247649999Y-112200000D01*
X247625495Y-112198796D01*
X247601227Y-112195196D01*
X247577428Y-112189235D01*
X247554329Y-112180970D01*
X247532150Y-112170480D01*
X247511107Y-112157868D01*
X247491401Y-112143253D01*
X247473223Y-112126777D01*
X247456747Y-112108599D01*
X247442132Y-112088893D01*
X247429520Y-112067850D01*
X247419030Y-112045671D01*
X247410765Y-112022572D01*
X247404804Y-111998773D01*
X247401204Y-111974505D01*
X247400000Y-111950001D01*
X247400000Y-111049999D01*
X247401204Y-111025495D01*
X247404804Y-111001227D01*
X247410765Y-110977428D01*
X247419030Y-110954329D01*
X247429520Y-110932150D01*
X247442132Y-110911107D01*
X247456747Y-110891401D01*
X247473223Y-110873223D01*
X247491401Y-110856747D01*
X247511107Y-110842132D01*
X247532150Y-110829520D01*
X247554329Y-110819030D01*
X247577428Y-110810765D01*
X247601227Y-110804804D01*
X247625495Y-110801204D01*
X247649999Y-110800000D01*
X248300001Y-110800000D01*
X248324505Y-110801204D01*
X248324505Y-110801204D01*
G37*
D11*
X247975000Y-111500000D03*
D10*
G36*
X258574505Y-131551204D02*
G01*
X258598773Y-131554804D01*
X258622572Y-131560765D01*
X258645671Y-131569030D01*
X258667850Y-131579520D01*
X258688893Y-131592132D01*
X258708599Y-131606747D01*
X258726777Y-131623223D01*
X258743253Y-131641401D01*
X258757868Y-131661107D01*
X258770480Y-131682150D01*
X258780970Y-131704329D01*
X258789235Y-131727428D01*
X258795196Y-131751227D01*
X258798796Y-131775495D01*
X258800000Y-131799999D01*
X258800000Y-132700001D01*
X258798796Y-132724505D01*
X258795196Y-132748773D01*
X258789235Y-132772572D01*
X258780970Y-132795671D01*
X258770480Y-132817850D01*
X258757868Y-132838893D01*
X258743253Y-132858599D01*
X258726777Y-132876777D01*
X258708599Y-132893253D01*
X258688893Y-132907868D01*
X258667850Y-132920480D01*
X258645671Y-132930970D01*
X258622572Y-132939235D01*
X258598773Y-132945196D01*
X258574505Y-132948796D01*
X258550001Y-132950000D01*
X257899999Y-132950000D01*
X257875495Y-132948796D01*
X257851227Y-132945196D01*
X257827428Y-132939235D01*
X257804329Y-132930970D01*
X257782150Y-132920480D01*
X257761107Y-132907868D01*
X257741401Y-132893253D01*
X257723223Y-132876777D01*
X257706747Y-132858599D01*
X257692132Y-132838893D01*
X257679520Y-132817850D01*
X257669030Y-132795671D01*
X257660765Y-132772572D01*
X257654804Y-132748773D01*
X257651204Y-132724505D01*
X257650000Y-132700001D01*
X257650000Y-131799999D01*
X257651204Y-131775495D01*
X257654804Y-131751227D01*
X257660765Y-131727428D01*
X257669030Y-131704329D01*
X257679520Y-131682150D01*
X257692132Y-131661107D01*
X257706747Y-131641401D01*
X257723223Y-131623223D01*
X257741401Y-131606747D01*
X257761107Y-131592132D01*
X257782150Y-131579520D01*
X257804329Y-131569030D01*
X257827428Y-131560765D01*
X257851227Y-131554804D01*
X257875495Y-131551204D01*
X257899999Y-131550000D01*
X258550001Y-131550000D01*
X258574505Y-131551204D01*
X258574505Y-131551204D01*
G37*
D11*
X258225000Y-132250000D03*
D10*
G36*
X260624505Y-131551204D02*
G01*
X260648773Y-131554804D01*
X260672572Y-131560765D01*
X260695671Y-131569030D01*
X260717850Y-131579520D01*
X260738893Y-131592132D01*
X260758599Y-131606747D01*
X260776777Y-131623223D01*
X260793253Y-131641401D01*
X260807868Y-131661107D01*
X260820480Y-131682150D01*
X260830970Y-131704329D01*
X260839235Y-131727428D01*
X260845196Y-131751227D01*
X260848796Y-131775495D01*
X260850000Y-131799999D01*
X260850000Y-132700001D01*
X260848796Y-132724505D01*
X260845196Y-132748773D01*
X260839235Y-132772572D01*
X260830970Y-132795671D01*
X260820480Y-132817850D01*
X260807868Y-132838893D01*
X260793253Y-132858599D01*
X260776777Y-132876777D01*
X260758599Y-132893253D01*
X260738893Y-132907868D01*
X260717850Y-132920480D01*
X260695671Y-132930970D01*
X260672572Y-132939235D01*
X260648773Y-132945196D01*
X260624505Y-132948796D01*
X260600001Y-132950000D01*
X259949999Y-132950000D01*
X259925495Y-132948796D01*
X259901227Y-132945196D01*
X259877428Y-132939235D01*
X259854329Y-132930970D01*
X259832150Y-132920480D01*
X259811107Y-132907868D01*
X259791401Y-132893253D01*
X259773223Y-132876777D01*
X259756747Y-132858599D01*
X259742132Y-132838893D01*
X259729520Y-132817850D01*
X259719030Y-132795671D01*
X259710765Y-132772572D01*
X259704804Y-132748773D01*
X259701204Y-132724505D01*
X259700000Y-132700001D01*
X259700000Y-131799999D01*
X259701204Y-131775495D01*
X259704804Y-131751227D01*
X259710765Y-131727428D01*
X259719030Y-131704329D01*
X259729520Y-131682150D01*
X259742132Y-131661107D01*
X259756747Y-131641401D01*
X259773223Y-131623223D01*
X259791401Y-131606747D01*
X259811107Y-131592132D01*
X259832150Y-131579520D01*
X259854329Y-131569030D01*
X259877428Y-131560765D01*
X259901227Y-131554804D01*
X259925495Y-131551204D01*
X259949999Y-131550000D01*
X260600001Y-131550000D01*
X260624505Y-131551204D01*
X260624505Y-131551204D01*
G37*
D11*
X260275000Y-132250000D03*
D10*
G36*
X238624505Y-99051204D02*
G01*
X238648773Y-99054804D01*
X238672572Y-99060765D01*
X238695671Y-99069030D01*
X238717850Y-99079520D01*
X238738893Y-99092132D01*
X238758599Y-99106747D01*
X238776777Y-99123223D01*
X238793253Y-99141401D01*
X238807868Y-99161107D01*
X238820480Y-99182150D01*
X238830970Y-99204329D01*
X238839235Y-99227428D01*
X238845196Y-99251227D01*
X238848796Y-99275495D01*
X238850000Y-99299999D01*
X238850000Y-100200001D01*
X238848796Y-100224505D01*
X238845196Y-100248773D01*
X238839235Y-100272572D01*
X238830970Y-100295671D01*
X238820480Y-100317850D01*
X238807868Y-100338893D01*
X238793253Y-100358599D01*
X238776777Y-100376777D01*
X238758599Y-100393253D01*
X238738893Y-100407868D01*
X238717850Y-100420480D01*
X238695671Y-100430970D01*
X238672572Y-100439235D01*
X238648773Y-100445196D01*
X238624505Y-100448796D01*
X238600001Y-100450000D01*
X237949999Y-100450000D01*
X237925495Y-100448796D01*
X237901227Y-100445196D01*
X237877428Y-100439235D01*
X237854329Y-100430970D01*
X237832150Y-100420480D01*
X237811107Y-100407868D01*
X237791401Y-100393253D01*
X237773223Y-100376777D01*
X237756747Y-100358599D01*
X237742132Y-100338893D01*
X237729520Y-100317850D01*
X237719030Y-100295671D01*
X237710765Y-100272572D01*
X237704804Y-100248773D01*
X237701204Y-100224505D01*
X237700000Y-100200001D01*
X237700000Y-99299999D01*
X237701204Y-99275495D01*
X237704804Y-99251227D01*
X237710765Y-99227428D01*
X237719030Y-99204329D01*
X237729520Y-99182150D01*
X237742132Y-99161107D01*
X237756747Y-99141401D01*
X237773223Y-99123223D01*
X237791401Y-99106747D01*
X237811107Y-99092132D01*
X237832150Y-99079520D01*
X237854329Y-99069030D01*
X237877428Y-99060765D01*
X237901227Y-99054804D01*
X237925495Y-99051204D01*
X237949999Y-99050000D01*
X238600001Y-99050000D01*
X238624505Y-99051204D01*
X238624505Y-99051204D01*
G37*
D11*
X238275000Y-99750000D03*
D10*
G36*
X236574505Y-99051204D02*
G01*
X236598773Y-99054804D01*
X236622572Y-99060765D01*
X236645671Y-99069030D01*
X236667850Y-99079520D01*
X236688893Y-99092132D01*
X236708599Y-99106747D01*
X236726777Y-99123223D01*
X236743253Y-99141401D01*
X236757868Y-99161107D01*
X236770480Y-99182150D01*
X236780970Y-99204329D01*
X236789235Y-99227428D01*
X236795196Y-99251227D01*
X236798796Y-99275495D01*
X236800000Y-99299999D01*
X236800000Y-100200001D01*
X236798796Y-100224505D01*
X236795196Y-100248773D01*
X236789235Y-100272572D01*
X236780970Y-100295671D01*
X236770480Y-100317850D01*
X236757868Y-100338893D01*
X236743253Y-100358599D01*
X236726777Y-100376777D01*
X236708599Y-100393253D01*
X236688893Y-100407868D01*
X236667850Y-100420480D01*
X236645671Y-100430970D01*
X236622572Y-100439235D01*
X236598773Y-100445196D01*
X236574505Y-100448796D01*
X236550001Y-100450000D01*
X235899999Y-100450000D01*
X235875495Y-100448796D01*
X235851227Y-100445196D01*
X235827428Y-100439235D01*
X235804329Y-100430970D01*
X235782150Y-100420480D01*
X235761107Y-100407868D01*
X235741401Y-100393253D01*
X235723223Y-100376777D01*
X235706747Y-100358599D01*
X235692132Y-100338893D01*
X235679520Y-100317850D01*
X235669030Y-100295671D01*
X235660765Y-100272572D01*
X235654804Y-100248773D01*
X235651204Y-100224505D01*
X235650000Y-100200001D01*
X235650000Y-99299999D01*
X235651204Y-99275495D01*
X235654804Y-99251227D01*
X235660765Y-99227428D01*
X235669030Y-99204329D01*
X235679520Y-99182150D01*
X235692132Y-99161107D01*
X235706747Y-99141401D01*
X235723223Y-99123223D01*
X235741401Y-99106747D01*
X235761107Y-99092132D01*
X235782150Y-99079520D01*
X235804329Y-99069030D01*
X235827428Y-99060765D01*
X235851227Y-99054804D01*
X235875495Y-99051204D01*
X235899999Y-99050000D01*
X236550001Y-99050000D01*
X236574505Y-99051204D01*
X236574505Y-99051204D01*
G37*
D11*
X236225000Y-99750000D03*
M02*
