M48
; DRILL file {KiCad (5.1.4)-1} date 3/2/2020 9:45:17 PM
; FORMAT={-:-/ absolute / inch / decimal}
; #@! TF.CreationDate,2020-03-02T21:45:17-05:00
; #@! TF.GenerationSoftware,Kicad,Pcbnew,(5.1.4)-1
; #@! TF.FileFunction,Plated,1,2,PTH
FMAT,2
INCH
T1C0.0157
T2C0.0315
T3C0.0374
T4C0.0394
T5C0.0433
T6C0.0472
T7C0.0551
%
G90
G05
T1
X8.7106Y-4.3307
X9.3602Y-4.4193
X9.4685Y-4.2815
X10.0689Y-5.2067
X10.2461Y-5.1378
T2
X8.8484Y-3.9272
X8.8484Y-4.0272
X8.8484Y-4.1272
X8.8484Y-4.2272
X9.1484Y-3.9272
X9.1484Y-4.0272
X9.1484Y-4.1272
X9.1484Y-4.2272
T3
X6.6289Y-2.8385
X6.6289Y-2.9385
X6.6289Y-3.0385
X6.6289Y-3.1385
X6.6289Y-3.2385
X6.6289Y-3.3385
X6.6289Y-3.4385
X6.6289Y-3.5385
X6.6289Y-3.6385
X6.6289Y-3.7385
X6.6289Y-3.8985
X6.6289Y-3.9985
X6.6289Y-4.0985
X6.6289Y-4.1985
X6.6289Y-4.2985
X6.6289Y-4.3985
X6.6289Y-4.4985
X6.6289Y-4.5985
X6.6289Y-4.7985
X6.6289Y-4.8985
X6.6289Y-4.9985
X6.6289Y-5.0985
X6.6289Y-5.1985
X6.6289Y-5.2985
X6.6289Y-5.3985
X6.6289Y-5.4985
X6.6289Y-5.7985
X6.6289Y-5.8985
X6.7289Y-5.7985
X6.7289Y-5.8985
X6.8289Y-5.7985
X6.8289Y-5.8985
X6.9289Y-5.7985
X6.9289Y-5.8985
X7.0289Y-5.7985
X7.0289Y-5.8985
X7.1289Y-5.7985
X7.1289Y-5.8985
X7.2289Y-5.7985
X7.2289Y-5.8985
X7.3289Y-5.7985
X7.3289Y-5.8985
X7.4249Y-5.892
X7.4289Y-5.7985
X7.5289Y-5.7985
X7.5289Y-5.8985
X7.6289Y-5.7985
X7.6289Y-5.8985
X7.7289Y-5.7985
X7.7289Y-5.8985
X7.8289Y-5.7985
X7.8289Y-5.8985
X7.9289Y-5.7985
X7.9289Y-5.8985
X8.0289Y-5.7985
X8.0289Y-5.8985
X8.1289Y-5.7985
X8.1289Y-5.8985
X8.2289Y-5.7985
X8.2289Y-5.8985
X8.3289Y-5.7985
X8.3289Y-5.8985
X8.5289Y-3.1985
X8.5289Y-3.2985
X8.5289Y-3.3985
X8.5289Y-3.4985
X8.5289Y-3.5985
X8.5289Y-3.6985
X8.5289Y-3.7985
X8.5289Y-3.8985
X8.5289Y-4.0985
X8.5289Y-4.1985
X8.5289Y-4.2985
X8.5289Y-4.3985
X8.5289Y-4.4985
X8.5289Y-4.5985
X8.5289Y-4.6985
X8.5289Y-4.7985
X8.5289Y-4.9985
X8.5289Y-5.0985
X8.5289Y-5.1985
X8.5289Y-5.2985
X8.5289Y-5.3985
X8.5289Y-5.4985
X8.5289Y-5.5985
X8.5289Y-5.6985
T4
X9.5803Y-3.622
X9.5803Y-3.722
X9.5803Y-3.8232
X9.5803Y-3.922
X10.2803Y-3.5312
X10.2803Y-3.669
T5
X9.2913Y-4.7409
X9.2913Y-4.8409
X9.2913Y-4.9409
X9.5965Y-4.7311
X9.5965Y-4.8311
X9.5965Y-4.9311
X10.128Y-5.374
X10.128Y-5.474
X10.128Y-5.574
X9.4291Y-5.3709
X9.4291Y-5.4709
X9.4291Y-5.5709
X8.9665Y-4.7409
X8.9665Y-4.8409
X8.9665Y-4.9409
X9.1142Y-5.3709
X9.1142Y-5.4709
X9.1142Y-5.5709
T6
X9.7933Y-5.3445
X9.7933Y-5.4445
X9.7933Y-5.5445
X9.7933Y-5.6445
X8.9043Y-3.0394
X9.0043Y-3.0394
X9.1043Y-3.0394
T7
X9.4488Y-3.0217
X9.4488Y-3.2382
X9.7933Y-3.0217
X9.7933Y-3.2382
X10.0197Y-4.5335
X10.0197Y-4.6988
X10.0197Y-4.8642
X10.0197Y-5.0295
X10.2362Y-4.5335
X10.2362Y-4.6988
X10.2362Y-4.8642
X10.2362Y-5.0295
T0
M30
