G04 #@! TF.GenerationSoftware,KiCad,Pcbnew,(5.1.4)-1*
G04 #@! TF.CreationDate,2020-03-02T19:01:58-05:00*
G04 #@! TF.ProjectId,PCB_2020,5043425f-3230-4323-902e-6b696361645f,rev?*
G04 #@! TF.SameCoordinates,Original*
G04 #@! TF.FileFunction,Other,Fab,Top*
%FSLAX46Y46*%
G04 Gerber Fmt 4.6, Leading zero omitted, Abs format (unit mm)*
G04 Created by KiCad (PCBNEW (5.1.4)-1) date 2020-03-02 19:01:58*
%MOMM*%
%LPD*%
G04 APERTURE LIST*
%ADD10C,0.100000*%
%ADD11C,0.120000*%
%ADD12C,0.150000*%
%ADD13C,0.080000*%
G04 APERTURE END LIST*
D10*
X244400000Y-111500000D02*
X244400000Y-109500000D01*
X245600000Y-111500000D02*
X244400000Y-111500000D01*
X245600000Y-109500000D02*
X245600000Y-111500000D01*
X244400000Y-109500000D02*
X245600000Y-109500000D01*
X247650000Y-111500000D02*
X247650000Y-109500000D01*
X248850000Y-111500000D02*
X247650000Y-111500000D01*
X248850000Y-109500000D02*
X248850000Y-111500000D01*
X247650000Y-109500000D02*
X248850000Y-109500000D01*
X238350000Y-102250000D02*
X238350000Y-104250000D01*
X237150000Y-102250000D02*
X238350000Y-102250000D01*
X237150000Y-104250000D02*
X237150000Y-102250000D01*
X238350000Y-104250000D02*
X237150000Y-104250000D01*
X237150000Y-108750000D02*
X237150000Y-106750000D01*
X238350000Y-108750000D02*
X237150000Y-108750000D01*
X238350000Y-106750000D02*
X238350000Y-108750000D01*
X237150000Y-106750000D02*
X238350000Y-106750000D01*
X241150000Y-111500000D02*
X241150000Y-109500000D01*
X242350000Y-111500000D02*
X241150000Y-111500000D01*
X242350000Y-109500000D02*
X242350000Y-111500000D01*
X241150000Y-109500000D02*
X242350000Y-109500000D01*
X262400000Y-141500000D02*
X262400000Y-139500000D01*
X263600000Y-141500000D02*
X262400000Y-141500000D01*
X263600000Y-139500000D02*
X263600000Y-141500000D01*
X262400000Y-139500000D02*
X263600000Y-139500000D01*
X228350000Y-137110000D02*
X229620000Y-137110000D01*
X228350000Y-140810000D02*
X229620000Y-140810000D01*
X229620000Y-143960000D02*
X229620000Y-133960000D01*
X228350000Y-133960000D02*
X228350000Y-143960000D01*
X232750000Y-133960000D02*
X228350000Y-133960000D01*
X232750000Y-143960000D02*
X232750000Y-133960000D01*
X228350000Y-143960000D02*
X232750000Y-143960000D01*
X236350000Y-137110000D02*
X237620000Y-137110000D01*
X236350000Y-140810000D02*
X237620000Y-140810000D01*
X237620000Y-143960000D02*
X237620000Y-133960000D01*
X236350000Y-133960000D02*
X236350000Y-143960000D01*
X240750000Y-133960000D02*
X236350000Y-133960000D01*
X240750000Y-143960000D02*
X240750000Y-133960000D01*
X236350000Y-143960000D02*
X240750000Y-143960000D01*
X224600000Y-121110000D02*
X225870000Y-121110000D01*
X224600000Y-124810000D02*
X225870000Y-124810000D01*
X225870000Y-127960000D02*
X225870000Y-117960000D01*
X224600000Y-117960000D02*
X224600000Y-127960000D01*
X229000000Y-117960000D02*
X224600000Y-117960000D01*
X229000000Y-127960000D02*
X229000000Y-117960000D01*
X224600000Y-127960000D02*
X229000000Y-127960000D01*
X232850000Y-121110000D02*
X234120000Y-121110000D01*
X232850000Y-124810000D02*
X234120000Y-124810000D01*
X234120000Y-127960000D02*
X234120000Y-117960000D01*
X232850000Y-117960000D02*
X232850000Y-127960000D01*
X237250000Y-117960000D02*
X232850000Y-117960000D01*
X237250000Y-127960000D02*
X237250000Y-117960000D01*
X232850000Y-127960000D02*
X237250000Y-127960000D01*
X240600000Y-120860000D02*
X241870000Y-120860000D01*
X240600000Y-124560000D02*
X241870000Y-124560000D01*
X241870000Y-127710000D02*
X241870000Y-117710000D01*
X240600000Y-117710000D02*
X240600000Y-127710000D01*
X245000000Y-117710000D02*
X240600000Y-117710000D01*
X245000000Y-127710000D02*
X245000000Y-117710000D01*
X240600000Y-127710000D02*
X245000000Y-127710000D01*
X260400000Y-140890000D02*
X259130000Y-140890000D01*
X260400000Y-137190000D02*
X259130000Y-137190000D01*
X259130000Y-134040000D02*
X259130000Y-144040000D01*
X260400000Y-144040000D02*
X260400000Y-134040000D01*
X256000000Y-144040000D02*
X260400000Y-144040000D01*
X256000000Y-134040000D02*
X256000000Y-144040000D01*
X260400000Y-134040000D02*
X256000000Y-134040000D01*
X233640000Y-98420000D02*
X223480000Y-98420000D01*
X233640000Y-108700000D02*
X233640000Y-98420000D01*
X223480000Y-108700000D02*
X233640000Y-108700000D01*
X223480000Y-98420000D02*
X223480000Y-108700000D01*
X225385000Y-99480000D02*
X226385000Y-98480000D01*
X225385000Y-108640000D02*
X225385000Y-99480000D01*
X231735000Y-108640000D02*
X225385000Y-108640000D01*
X231735000Y-98480000D02*
X231735000Y-108640000D01*
X226385000Y-98480000D02*
X231735000Y-98480000D01*
X160250000Y-87950000D02*
X157400000Y-87950000D01*
X160250000Y-90800000D02*
X160250000Y-87950000D01*
X151150000Y-92650000D02*
X151150000Y-89350000D01*
X153625000Y-92650000D02*
X151150000Y-92650000D01*
X154450000Y-91825000D02*
X153625000Y-92650000D01*
X154450000Y-90175000D02*
X154450000Y-91825000D01*
X153625000Y-89350000D02*
X154450000Y-90175000D01*
X151150000Y-89350000D02*
X153625000Y-89350000D01*
X158650000Y-92650000D02*
X158650000Y-89350000D01*
X155350000Y-92650000D02*
X158650000Y-92650000D01*
X155350000Y-89350000D02*
X155350000Y-92650000D01*
X158650000Y-89350000D02*
X155350000Y-89350000D01*
X148900000Y-92700000D02*
X150300000Y-92700000D01*
X148900000Y-89300000D02*
X148900000Y-92700000D01*
X150300000Y-89300000D02*
X148900000Y-89300000D01*
X159900000Y-93700000D02*
X159900000Y-88300000D01*
X150300000Y-93700000D02*
X159900000Y-93700000D01*
X150300000Y-88300000D02*
X150300000Y-93700000D01*
X159900000Y-88300000D02*
X150300000Y-88300000D01*
X148430000Y-125285000D02*
X148430000Y-123380000D01*
X148430000Y-123380000D02*
X158590000Y-123380000D01*
X158590000Y-123380000D02*
X158590000Y-125920000D01*
X158590000Y-125920000D02*
X149065000Y-125920000D01*
X149065000Y-125920000D02*
X148430000Y-125285000D01*
X146150000Y-105630000D02*
X152140000Y-105630000D01*
X152140000Y-108170000D02*
X146150000Y-108170000D01*
X152140000Y-105630000D02*
X152140000Y-108170000D01*
D11*
X146150000Y-105570000D02*
X146150000Y-108230000D01*
D10*
X248750000Y-135187107D02*
X248250000Y-134480000D01*
X249250000Y-134480000D02*
X248750000Y-135187107D01*
X251670000Y-144640000D02*
X251670000Y-134480000D01*
X245870000Y-144640000D02*
X251670000Y-144640000D01*
X245870000Y-134480000D02*
X245870000Y-144640000D01*
X251670000Y-134480000D02*
X245870000Y-134480000D01*
X231812893Y-77200000D02*
X232520000Y-76700000D01*
X232520000Y-77700000D02*
X231812893Y-77200000D01*
X224900000Y-80120000D02*
X232520000Y-80120000D01*
X224900000Y-74320000D02*
X224900000Y-80120000D01*
X232520000Y-74320000D02*
X224900000Y-74320000D01*
X232520000Y-80120000D02*
X232520000Y-74320000D01*
X243000000Y-73600000D02*
X243000000Y-76450000D01*
X245850000Y-73600000D02*
X243000000Y-73600000D01*
X247700000Y-82700000D02*
X244400000Y-82700000D01*
X247700000Y-80225000D02*
X247700000Y-82700000D01*
X246875000Y-79400000D02*
X247700000Y-80225000D01*
X245225000Y-79400000D02*
X246875000Y-79400000D01*
X244400000Y-80225000D02*
X245225000Y-79400000D01*
X244400000Y-82700000D02*
X244400000Y-80225000D01*
X247700000Y-75200000D02*
X244400000Y-75200000D01*
X247700000Y-78500000D02*
X247700000Y-75200000D01*
X244400000Y-78500000D02*
X247700000Y-78500000D01*
X244400000Y-75200000D02*
X244400000Y-78500000D01*
X247750000Y-84950000D02*
X247750000Y-83550000D01*
X244350000Y-84950000D02*
X247750000Y-84950000D01*
X244350000Y-83550000D02*
X244350000Y-84950000D01*
X248750000Y-73950000D02*
X243350000Y-73950000D01*
X248750000Y-83550000D02*
X248750000Y-73950000D01*
X243350000Y-83550000D02*
X248750000Y-83550000D01*
X243350000Y-73950000D02*
X243350000Y-83550000D01*
X249150000Y-132300000D02*
X252000000Y-132300000D01*
X249150000Y-129450000D02*
X249150000Y-132300000D01*
X258250000Y-115000000D02*
X258250000Y-118300000D01*
X255775000Y-115000000D02*
X258250000Y-115000000D01*
X254950000Y-115825000D02*
X255775000Y-115000000D01*
X254950000Y-117475000D02*
X254950000Y-115825000D01*
X255775000Y-118300000D02*
X254950000Y-117475000D01*
X258250000Y-118300000D02*
X255775000Y-118300000D01*
X250750000Y-115000000D02*
X250750000Y-118300000D01*
X254050000Y-115000000D02*
X250750000Y-115000000D01*
X254050000Y-118300000D02*
X254050000Y-115000000D01*
X250750000Y-118300000D02*
X254050000Y-118300000D01*
X254050000Y-119200000D02*
X254050000Y-122500000D01*
X251575000Y-119200000D02*
X254050000Y-119200000D01*
X250750000Y-120025000D02*
X251575000Y-119200000D01*
X250750000Y-121675000D02*
X250750000Y-120025000D01*
X251575000Y-122500000D02*
X250750000Y-121675000D01*
X254050000Y-122500000D02*
X251575000Y-122500000D01*
X254950000Y-119200000D02*
X254950000Y-122500000D01*
X258250000Y-119200000D02*
X254950000Y-119200000D01*
X258250000Y-122500000D02*
X258250000Y-119200000D01*
X254950000Y-122500000D02*
X258250000Y-122500000D01*
X254050000Y-123400000D02*
X254050000Y-126700000D01*
X251575000Y-123400000D02*
X254050000Y-123400000D01*
X250750000Y-124225000D02*
X251575000Y-123400000D01*
X250750000Y-125875000D02*
X250750000Y-124225000D01*
X251575000Y-126700000D02*
X250750000Y-125875000D01*
X254050000Y-126700000D02*
X251575000Y-126700000D01*
X254950000Y-123400000D02*
X254950000Y-126700000D01*
X258250000Y-123400000D02*
X254950000Y-123400000D01*
X258250000Y-126700000D02*
X258250000Y-123400000D01*
X254950000Y-126700000D02*
X258250000Y-126700000D01*
X258250000Y-127600000D02*
X258250000Y-130900000D01*
X255775000Y-127600000D02*
X258250000Y-127600000D01*
X254950000Y-128425000D02*
X255775000Y-127600000D01*
X254950000Y-130075000D02*
X254950000Y-128425000D01*
X255775000Y-130900000D02*
X254950000Y-130075000D01*
X258250000Y-130900000D02*
X255775000Y-130900000D01*
X250750000Y-127600000D02*
X250750000Y-130900000D01*
X254050000Y-127600000D02*
X250750000Y-127600000D01*
X254050000Y-130900000D02*
X254050000Y-127600000D01*
X250750000Y-130900000D02*
X254050000Y-130900000D01*
X260500000Y-121250000D02*
X259100000Y-121250000D01*
X260500000Y-124650000D02*
X260500000Y-121250000D01*
X259100000Y-124650000D02*
X260500000Y-124650000D01*
X249500000Y-113950000D02*
X249500000Y-131950000D01*
X259100000Y-113950000D02*
X249500000Y-113950000D01*
X259100000Y-131950000D02*
X259100000Y-113950000D01*
X249500000Y-131950000D02*
X259100000Y-131950000D01*
X251050000Y-105800000D02*
X249050000Y-105800000D01*
X251050000Y-104600000D02*
X251050000Y-105800000D01*
X249050000Y-104600000D02*
X251050000Y-104600000D01*
X249050000Y-105800000D02*
X249050000Y-104600000D01*
X265000000Y-133850000D02*
X263000000Y-133850000D01*
X265000000Y-132650000D02*
X265000000Y-133850000D01*
X263000000Y-132650000D02*
X265000000Y-132650000D01*
X263000000Y-133850000D02*
X263000000Y-132650000D01*
X220650000Y-104000000D02*
X220650000Y-102000000D01*
X221850000Y-104000000D02*
X220650000Y-104000000D01*
X221850000Y-102000000D02*
X221850000Y-104000000D01*
X220650000Y-102000000D02*
X221850000Y-102000000D01*
D12*
X188412380Y-118926666D02*
X188888571Y-118926666D01*
X188317142Y-119212380D02*
X188650476Y-118212380D01*
X188983809Y-119212380D01*
X189317142Y-119212380D02*
X189317142Y-118212380D01*
X189650476Y-118926666D01*
X189983809Y-118212380D01*
X189983809Y-119212380D01*
X190460000Y-119212380D02*
X190460000Y-118212380D01*
X190840952Y-118212380D01*
X190936190Y-118260000D01*
X190983809Y-118307619D01*
X191031428Y-118402857D01*
X191031428Y-118545714D01*
X190983809Y-118640952D01*
X190936190Y-118688571D01*
X190840952Y-118736190D01*
X190460000Y-118736190D01*
X191221904Y-119307619D02*
X191983809Y-119307619D01*
X192221904Y-119212380D02*
X192221904Y-118212380D01*
X192460000Y-118212380D01*
X192602857Y-118260000D01*
X192698095Y-118355238D01*
X192745714Y-118450476D01*
X192793333Y-118640952D01*
X192793333Y-118783809D01*
X192745714Y-118974285D01*
X192698095Y-119069523D01*
X192602857Y-119164761D01*
X192460000Y-119212380D01*
X192221904Y-119212380D01*
X193221904Y-118212380D02*
X193221904Y-119021904D01*
X193269523Y-119117142D01*
X193317142Y-119164761D01*
X193412380Y-119212380D01*
X193602857Y-119212380D01*
X193698095Y-119164761D01*
X193745714Y-119117142D01*
X193793333Y-119021904D01*
X193793333Y-118212380D01*
X194269523Y-118688571D02*
X194602857Y-118688571D01*
X194745714Y-119212380D02*
X194269523Y-119212380D01*
X194269523Y-118212380D01*
X194745714Y-118212380D01*
X194936190Y-119307619D02*
X195698095Y-119307619D01*
X195888571Y-119164761D02*
X196031428Y-119212380D01*
X196269523Y-119212380D01*
X196364761Y-119164761D01*
X196412380Y-119117142D01*
X196460000Y-119021904D01*
X196460000Y-118926666D01*
X196412380Y-118831428D01*
X196364761Y-118783809D01*
X196269523Y-118736190D01*
X196079047Y-118688571D01*
X195983809Y-118640952D01*
X195936190Y-118593333D01*
X195888571Y-118498095D01*
X195888571Y-118402857D01*
X195936190Y-118307619D01*
X195983809Y-118260000D01*
X196079047Y-118212380D01*
X196317142Y-118212380D01*
X196460000Y-118260000D01*
X197460000Y-119117142D02*
X197412380Y-119164761D01*
X197269523Y-119212380D01*
X197174285Y-119212380D01*
X197031428Y-119164761D01*
X196936190Y-119069523D01*
X196888571Y-118974285D01*
X196840952Y-118783809D01*
X196840952Y-118640952D01*
X196888571Y-118450476D01*
X196936190Y-118355238D01*
X197031428Y-118260000D01*
X197174285Y-118212380D01*
X197269523Y-118212380D01*
X197412380Y-118260000D01*
X197460000Y-118307619D01*
X197888571Y-119212380D02*
X197888571Y-118212380D01*
X197888571Y-118688571D02*
X198460000Y-118688571D01*
X198460000Y-119212380D02*
X198460000Y-118212380D01*
X242802380Y-111214285D02*
X242802380Y-111690476D01*
X243278571Y-111738095D01*
X243230952Y-111690476D01*
X243183333Y-111595238D01*
X243183333Y-111357142D01*
X243230952Y-111261904D01*
X243278571Y-111214285D01*
X243373809Y-111166666D01*
X243611904Y-111166666D01*
X243707142Y-111214285D01*
X243754761Y-111261904D01*
X243802380Y-111357142D01*
X243802380Y-111595238D01*
X243754761Y-111690476D01*
X243707142Y-111738095D01*
X242802380Y-110309523D02*
X242802380Y-110500000D01*
X242850000Y-110595238D01*
X242897619Y-110642857D01*
X243040476Y-110738095D01*
X243230952Y-110785714D01*
X243611904Y-110785714D01*
X243707142Y-110738095D01*
X243754761Y-110690476D01*
X243802380Y-110595238D01*
X243802380Y-110404761D01*
X243754761Y-110309523D01*
X243707142Y-110261904D01*
X243611904Y-110214285D01*
X243373809Y-110214285D01*
X243278571Y-110261904D01*
X243230952Y-110309523D01*
X243183333Y-110404761D01*
X243183333Y-110595238D01*
X243230952Y-110690476D01*
X243278571Y-110738095D01*
X243373809Y-110785714D01*
X242802380Y-109595238D02*
X242802380Y-109500000D01*
X242850000Y-109404761D01*
X242897619Y-109357142D01*
X242992857Y-109309523D01*
X243183333Y-109261904D01*
X243421428Y-109261904D01*
X243611904Y-109309523D01*
X243707142Y-109357142D01*
X243754761Y-109404761D01*
X243802380Y-109500000D01*
X243802380Y-109595238D01*
X243754761Y-109690476D01*
X243707142Y-109738095D01*
X243611904Y-109785714D01*
X243421428Y-109833333D01*
X243183333Y-109833333D01*
X242992857Y-109785714D01*
X242897619Y-109738095D01*
X242850000Y-109690476D01*
X242802380Y-109595238D01*
D13*
X245226190Y-110821428D02*
X244988095Y-110988095D01*
X245226190Y-111107142D02*
X244726190Y-111107142D01*
X244726190Y-110916666D01*
X244750000Y-110869047D01*
X244773809Y-110845238D01*
X244821428Y-110821428D01*
X244892857Y-110821428D01*
X244940476Y-110845238D01*
X244964285Y-110869047D01*
X244988095Y-110916666D01*
X244988095Y-111107142D01*
X245226190Y-110345238D02*
X245226190Y-110630952D01*
X245226190Y-110488095D02*
X244726190Y-110488095D01*
X244797619Y-110535714D01*
X244845238Y-110583333D01*
X244869047Y-110630952D01*
X244940476Y-110059523D02*
X244916666Y-110107142D01*
X244892857Y-110130952D01*
X244845238Y-110154761D01*
X244821428Y-110154761D01*
X244773809Y-110130952D01*
X244750000Y-110107142D01*
X244726190Y-110059523D01*
X244726190Y-109964285D01*
X244750000Y-109916666D01*
X244773809Y-109892857D01*
X244821428Y-109869047D01*
X244845238Y-109869047D01*
X244892857Y-109892857D01*
X244916666Y-109916666D01*
X244940476Y-109964285D01*
X244940476Y-110059523D01*
X244964285Y-110107142D01*
X244988095Y-110130952D01*
X245035714Y-110154761D01*
X245130952Y-110154761D01*
X245178571Y-110130952D01*
X245202380Y-110107142D01*
X245226190Y-110059523D01*
X245226190Y-109964285D01*
X245202380Y-109916666D01*
X245178571Y-109892857D01*
X245130952Y-109869047D01*
X245035714Y-109869047D01*
X244988095Y-109892857D01*
X244964285Y-109916666D01*
X244940476Y-109964285D01*
D12*
X246052380Y-111214285D02*
X246052380Y-111690476D01*
X246528571Y-111738095D01*
X246480952Y-111690476D01*
X246433333Y-111595238D01*
X246433333Y-111357142D01*
X246480952Y-111261904D01*
X246528571Y-111214285D01*
X246623809Y-111166666D01*
X246861904Y-111166666D01*
X246957142Y-111214285D01*
X247004761Y-111261904D01*
X247052380Y-111357142D01*
X247052380Y-111595238D01*
X247004761Y-111690476D01*
X246957142Y-111738095D01*
X246052380Y-110309523D02*
X246052380Y-110500000D01*
X246100000Y-110595238D01*
X246147619Y-110642857D01*
X246290476Y-110738095D01*
X246480952Y-110785714D01*
X246861904Y-110785714D01*
X246957142Y-110738095D01*
X247004761Y-110690476D01*
X247052380Y-110595238D01*
X247052380Y-110404761D01*
X247004761Y-110309523D01*
X246957142Y-110261904D01*
X246861904Y-110214285D01*
X246623809Y-110214285D01*
X246528571Y-110261904D01*
X246480952Y-110309523D01*
X246433333Y-110404761D01*
X246433333Y-110595238D01*
X246480952Y-110690476D01*
X246528571Y-110738095D01*
X246623809Y-110785714D01*
X246052380Y-109595238D02*
X246052380Y-109500000D01*
X246100000Y-109404761D01*
X246147619Y-109357142D01*
X246242857Y-109309523D01*
X246433333Y-109261904D01*
X246671428Y-109261904D01*
X246861904Y-109309523D01*
X246957142Y-109357142D01*
X247004761Y-109404761D01*
X247052380Y-109500000D01*
X247052380Y-109595238D01*
X247004761Y-109690476D01*
X246957142Y-109738095D01*
X246861904Y-109785714D01*
X246671428Y-109833333D01*
X246433333Y-109833333D01*
X246242857Y-109785714D01*
X246147619Y-109738095D01*
X246100000Y-109690476D01*
X246052380Y-109595238D01*
D13*
X248476190Y-110583333D02*
X248238095Y-110750000D01*
X248476190Y-110869047D02*
X247976190Y-110869047D01*
X247976190Y-110678571D01*
X248000000Y-110630952D01*
X248023809Y-110607142D01*
X248071428Y-110583333D01*
X248142857Y-110583333D01*
X248190476Y-110607142D01*
X248214285Y-110630952D01*
X248238095Y-110678571D01*
X248238095Y-110869047D01*
X247976190Y-110130952D02*
X247976190Y-110369047D01*
X248214285Y-110392857D01*
X248190476Y-110369047D01*
X248166666Y-110321428D01*
X248166666Y-110202380D01*
X248190476Y-110154761D01*
X248214285Y-110130952D01*
X248261904Y-110107142D01*
X248380952Y-110107142D01*
X248428571Y-110130952D01*
X248452380Y-110154761D01*
X248476190Y-110202380D01*
X248476190Y-110321428D01*
X248452380Y-110369047D01*
X248428571Y-110392857D01*
D12*
X238852380Y-104178571D02*
X238852380Y-104369047D01*
X238900000Y-104464285D01*
X238947619Y-104511904D01*
X239090476Y-104607142D01*
X239280952Y-104654761D01*
X239661904Y-104654761D01*
X239757142Y-104607142D01*
X239804761Y-104559523D01*
X239852380Y-104464285D01*
X239852380Y-104273809D01*
X239804761Y-104178571D01*
X239757142Y-104130952D01*
X239661904Y-104083333D01*
X239423809Y-104083333D01*
X239328571Y-104130952D01*
X239280952Y-104178571D01*
X239233333Y-104273809D01*
X239233333Y-104464285D01*
X239280952Y-104559523D01*
X239328571Y-104607142D01*
X239423809Y-104654761D01*
X239757142Y-103654761D02*
X239804761Y-103607142D01*
X239852380Y-103654761D01*
X239804761Y-103702380D01*
X239757142Y-103654761D01*
X239852380Y-103654761D01*
X239280952Y-103035714D02*
X239233333Y-103130952D01*
X239185714Y-103178571D01*
X239090476Y-103226190D01*
X239042857Y-103226190D01*
X238947619Y-103178571D01*
X238900000Y-103130952D01*
X238852380Y-103035714D01*
X238852380Y-102845238D01*
X238900000Y-102750000D01*
X238947619Y-102702380D01*
X239042857Y-102654761D01*
X239090476Y-102654761D01*
X239185714Y-102702380D01*
X239233333Y-102750000D01*
X239280952Y-102845238D01*
X239280952Y-103035714D01*
X239328571Y-103130952D01*
X239376190Y-103178571D01*
X239471428Y-103226190D01*
X239661904Y-103226190D01*
X239757142Y-103178571D01*
X239804761Y-103130952D01*
X239852380Y-103035714D01*
X239852380Y-102845238D01*
X239804761Y-102750000D01*
X239757142Y-102702380D01*
X239661904Y-102654761D01*
X239471428Y-102654761D01*
X239376190Y-102702380D01*
X239328571Y-102750000D01*
X239280952Y-102845238D01*
X239852380Y-102226190D02*
X238852380Y-102226190D01*
X239471428Y-102130952D02*
X239852380Y-101845238D01*
X239185714Y-101845238D02*
X239566666Y-102226190D01*
D13*
X237976190Y-103333333D02*
X237738095Y-103500000D01*
X237976190Y-103619047D02*
X237476190Y-103619047D01*
X237476190Y-103428571D01*
X237500000Y-103380952D01*
X237523809Y-103357142D01*
X237571428Y-103333333D01*
X237642857Y-103333333D01*
X237690476Y-103357142D01*
X237714285Y-103380952D01*
X237738095Y-103428571D01*
X237738095Y-103619047D01*
X237642857Y-102904761D02*
X237976190Y-102904761D01*
X237452380Y-103023809D02*
X237809523Y-103142857D01*
X237809523Y-102833333D01*
D12*
X235552380Y-108488095D02*
X235552380Y-107869047D01*
X235933333Y-108202380D01*
X235933333Y-108059523D01*
X235980952Y-107964285D01*
X236028571Y-107916666D01*
X236123809Y-107869047D01*
X236361904Y-107869047D01*
X236457142Y-107916666D01*
X236504761Y-107964285D01*
X236552380Y-108059523D01*
X236552380Y-108345238D01*
X236504761Y-108440476D01*
X236457142Y-108488095D01*
X236552380Y-107440476D02*
X235552380Y-107440476D01*
X236171428Y-107345238D02*
X236552380Y-107059523D01*
X235885714Y-107059523D02*
X236266666Y-107440476D01*
D13*
X237976190Y-107833333D02*
X237738095Y-108000000D01*
X237976190Y-108119047D02*
X237476190Y-108119047D01*
X237476190Y-107928571D01*
X237500000Y-107880952D01*
X237523809Y-107857142D01*
X237571428Y-107833333D01*
X237642857Y-107833333D01*
X237690476Y-107857142D01*
X237714285Y-107880952D01*
X237738095Y-107928571D01*
X237738095Y-108119047D01*
X237476190Y-107666666D02*
X237476190Y-107357142D01*
X237666666Y-107523809D01*
X237666666Y-107452380D01*
X237690476Y-107404761D01*
X237714285Y-107380952D01*
X237761904Y-107357142D01*
X237880952Y-107357142D01*
X237928571Y-107380952D01*
X237952380Y-107404761D01*
X237976190Y-107452380D01*
X237976190Y-107595238D01*
X237952380Y-107642857D01*
X237928571Y-107666666D01*
D12*
X240552380Y-111095238D02*
X240552380Y-111666666D01*
X240552380Y-111380952D02*
X239552380Y-111380952D01*
X239695238Y-111476190D01*
X239790476Y-111571428D01*
X239838095Y-111666666D01*
X239552380Y-110476190D02*
X239552380Y-110380952D01*
X239600000Y-110285714D01*
X239647619Y-110238095D01*
X239742857Y-110190476D01*
X239933333Y-110142857D01*
X240171428Y-110142857D01*
X240361904Y-110190476D01*
X240457142Y-110238095D01*
X240504761Y-110285714D01*
X240552380Y-110380952D01*
X240552380Y-110476190D01*
X240504761Y-110571428D01*
X240457142Y-110619047D01*
X240361904Y-110666666D01*
X240171428Y-110714285D01*
X239933333Y-110714285D01*
X239742857Y-110666666D01*
X239647619Y-110619047D01*
X239600000Y-110571428D01*
X239552380Y-110476190D01*
X240552380Y-109714285D02*
X239552380Y-109714285D01*
X240171428Y-109619047D02*
X240552380Y-109333333D01*
X239885714Y-109333333D02*
X240266666Y-109714285D01*
D13*
X241976190Y-110583333D02*
X241738095Y-110750000D01*
X241976190Y-110869047D02*
X241476190Y-110869047D01*
X241476190Y-110678571D01*
X241500000Y-110630952D01*
X241523809Y-110607142D01*
X241571428Y-110583333D01*
X241642857Y-110583333D01*
X241690476Y-110607142D01*
X241714285Y-110630952D01*
X241738095Y-110678571D01*
X241738095Y-110869047D01*
X241523809Y-110392857D02*
X241500000Y-110369047D01*
X241476190Y-110321428D01*
X241476190Y-110202380D01*
X241500000Y-110154761D01*
X241523809Y-110130952D01*
X241571428Y-110107142D01*
X241619047Y-110107142D01*
X241690476Y-110130952D01*
X241976190Y-110416666D01*
X241976190Y-110107142D01*
D12*
X261802380Y-141095238D02*
X261802380Y-141666666D01*
X261802380Y-141380952D02*
X260802380Y-141380952D01*
X260945238Y-141476190D01*
X261040476Y-141571428D01*
X261088095Y-141666666D01*
X260802380Y-140476190D02*
X260802380Y-140380952D01*
X260850000Y-140285714D01*
X260897619Y-140238095D01*
X260992857Y-140190476D01*
X261183333Y-140142857D01*
X261421428Y-140142857D01*
X261611904Y-140190476D01*
X261707142Y-140238095D01*
X261754761Y-140285714D01*
X261802380Y-140380952D01*
X261802380Y-140476190D01*
X261754761Y-140571428D01*
X261707142Y-140619047D01*
X261611904Y-140666666D01*
X261421428Y-140714285D01*
X261183333Y-140714285D01*
X260992857Y-140666666D01*
X260897619Y-140619047D01*
X260850000Y-140571428D01*
X260802380Y-140476190D01*
X261802380Y-139714285D02*
X260802380Y-139714285D01*
X261421428Y-139619047D02*
X261802380Y-139333333D01*
X261135714Y-139333333D02*
X261516666Y-139714285D01*
D13*
X263226190Y-140583333D02*
X262988095Y-140750000D01*
X263226190Y-140869047D02*
X262726190Y-140869047D01*
X262726190Y-140678571D01*
X262750000Y-140630952D01*
X262773809Y-140607142D01*
X262821428Y-140583333D01*
X262892857Y-140583333D01*
X262940476Y-140607142D01*
X262964285Y-140630952D01*
X262988095Y-140678571D01*
X262988095Y-140869047D01*
X263226190Y-140107142D02*
X263226190Y-140392857D01*
X263226190Y-140250000D02*
X262726190Y-140250000D01*
X262797619Y-140297619D01*
X262845238Y-140345238D01*
X262869047Y-140392857D01*
D12*
X234452380Y-141960000D02*
X234452380Y-142531428D01*
X234452380Y-142245714D02*
X233452380Y-142245714D01*
X233595238Y-142340952D01*
X233690476Y-142436190D01*
X233738095Y-142531428D01*
X233452380Y-141340952D02*
X233452380Y-141245714D01*
X233500000Y-141150476D01*
X233547619Y-141102857D01*
X233642857Y-141055238D01*
X233833333Y-141007619D01*
X234071428Y-141007619D01*
X234261904Y-141055238D01*
X234357142Y-141102857D01*
X234404761Y-141150476D01*
X234452380Y-141245714D01*
X234452380Y-141340952D01*
X234404761Y-141436190D01*
X234357142Y-141483809D01*
X234261904Y-141531428D01*
X234071428Y-141579047D01*
X233833333Y-141579047D01*
X233642857Y-141531428D01*
X233547619Y-141483809D01*
X233500000Y-141436190D01*
X233452380Y-141340952D01*
X233452380Y-140388571D02*
X233452380Y-140293333D01*
X233500000Y-140198095D01*
X233547619Y-140150476D01*
X233642857Y-140102857D01*
X233833333Y-140055238D01*
X234071428Y-140055238D01*
X234261904Y-140102857D01*
X234357142Y-140150476D01*
X234404761Y-140198095D01*
X234452380Y-140293333D01*
X234452380Y-140388571D01*
X234404761Y-140483809D01*
X234357142Y-140531428D01*
X234261904Y-140579047D01*
X234071428Y-140626666D01*
X233833333Y-140626666D01*
X233642857Y-140579047D01*
X233547619Y-140531428D01*
X233500000Y-140483809D01*
X233452380Y-140388571D01*
X233452380Y-139769523D02*
X234452380Y-139436190D01*
X233452380Y-139102857D01*
X233404761Y-138055238D02*
X234690476Y-138912380D01*
X234452380Y-137198095D02*
X234452380Y-137769523D01*
X234452380Y-137483809D02*
X233452380Y-137483809D01*
X233595238Y-137579047D01*
X233690476Y-137674285D01*
X233738095Y-137769523D01*
X233452380Y-136864761D02*
X233452380Y-136198095D01*
X234452380Y-136626666D01*
X234166666Y-135864761D02*
X234166666Y-135388571D01*
X234452380Y-135960000D02*
X233452380Y-135626666D01*
X234452380Y-135293333D01*
X227777619Y-139055238D02*
X227730000Y-139150476D01*
X227634761Y-139245714D01*
X227491904Y-139388571D01*
X227444285Y-139483809D01*
X227444285Y-139579047D01*
X227682380Y-139531428D02*
X227634761Y-139626666D01*
X227539523Y-139721904D01*
X227349047Y-139769523D01*
X227015714Y-139769523D01*
X226825238Y-139721904D01*
X226730000Y-139626666D01*
X226682380Y-139531428D01*
X226682380Y-139340952D01*
X226730000Y-139245714D01*
X226825238Y-139150476D01*
X227015714Y-139102857D01*
X227349047Y-139102857D01*
X227539523Y-139150476D01*
X227634761Y-139245714D01*
X227682380Y-139340952D01*
X227682380Y-139531428D01*
X226682380Y-138245714D02*
X226682380Y-138436190D01*
X226730000Y-138531428D01*
X226777619Y-138579047D01*
X226920476Y-138674285D01*
X227110952Y-138721904D01*
X227491904Y-138721904D01*
X227587142Y-138674285D01*
X227634761Y-138626666D01*
X227682380Y-138531428D01*
X227682380Y-138340952D01*
X227634761Y-138245714D01*
X227587142Y-138198095D01*
X227491904Y-138150476D01*
X227253809Y-138150476D01*
X227158571Y-138198095D01*
X227110952Y-138245714D01*
X227063333Y-138340952D01*
X227063333Y-138531428D01*
X227110952Y-138626666D01*
X227158571Y-138674285D01*
X227253809Y-138721904D01*
X242452380Y-141960000D02*
X242452380Y-142531428D01*
X242452380Y-142245714D02*
X241452380Y-142245714D01*
X241595238Y-142340952D01*
X241690476Y-142436190D01*
X241738095Y-142531428D01*
X241452380Y-141340952D02*
X241452380Y-141245714D01*
X241500000Y-141150476D01*
X241547619Y-141102857D01*
X241642857Y-141055238D01*
X241833333Y-141007619D01*
X242071428Y-141007619D01*
X242261904Y-141055238D01*
X242357142Y-141102857D01*
X242404761Y-141150476D01*
X242452380Y-141245714D01*
X242452380Y-141340952D01*
X242404761Y-141436190D01*
X242357142Y-141483809D01*
X242261904Y-141531428D01*
X242071428Y-141579047D01*
X241833333Y-141579047D01*
X241642857Y-141531428D01*
X241547619Y-141483809D01*
X241500000Y-141436190D01*
X241452380Y-141340952D01*
X241452380Y-140388571D02*
X241452380Y-140293333D01*
X241500000Y-140198095D01*
X241547619Y-140150476D01*
X241642857Y-140102857D01*
X241833333Y-140055238D01*
X242071428Y-140055238D01*
X242261904Y-140102857D01*
X242357142Y-140150476D01*
X242404761Y-140198095D01*
X242452380Y-140293333D01*
X242452380Y-140388571D01*
X242404761Y-140483809D01*
X242357142Y-140531428D01*
X242261904Y-140579047D01*
X242071428Y-140626666D01*
X241833333Y-140626666D01*
X241642857Y-140579047D01*
X241547619Y-140531428D01*
X241500000Y-140483809D01*
X241452380Y-140388571D01*
X241452380Y-139769523D02*
X242452380Y-139436190D01*
X241452380Y-139102857D01*
X241404761Y-138055238D02*
X242690476Y-138912380D01*
X242452380Y-137198095D02*
X242452380Y-137769523D01*
X242452380Y-137483809D02*
X241452380Y-137483809D01*
X241595238Y-137579047D01*
X241690476Y-137674285D01*
X241738095Y-137769523D01*
X241452380Y-136864761D02*
X241452380Y-136198095D01*
X242452380Y-136626666D01*
X242166666Y-135864761D02*
X242166666Y-135388571D01*
X242452380Y-135960000D02*
X241452380Y-135626666D01*
X242452380Y-135293333D01*
X235777619Y-139055238D02*
X235730000Y-139150476D01*
X235634761Y-139245714D01*
X235491904Y-139388571D01*
X235444285Y-139483809D01*
X235444285Y-139579047D01*
X235682380Y-139531428D02*
X235634761Y-139626666D01*
X235539523Y-139721904D01*
X235349047Y-139769523D01*
X235015714Y-139769523D01*
X234825238Y-139721904D01*
X234730000Y-139626666D01*
X234682380Y-139531428D01*
X234682380Y-139340952D01*
X234730000Y-139245714D01*
X234825238Y-139150476D01*
X235015714Y-139102857D01*
X235349047Y-139102857D01*
X235539523Y-139150476D01*
X235634761Y-139245714D01*
X235682380Y-139340952D01*
X235682380Y-139531428D01*
X234682380Y-138198095D02*
X234682380Y-138674285D01*
X235158571Y-138721904D01*
X235110952Y-138674285D01*
X235063333Y-138579047D01*
X235063333Y-138340952D01*
X235110952Y-138245714D01*
X235158571Y-138198095D01*
X235253809Y-138150476D01*
X235491904Y-138150476D01*
X235587142Y-138198095D01*
X235634761Y-138245714D01*
X235682380Y-138340952D01*
X235682380Y-138579047D01*
X235634761Y-138674285D01*
X235587142Y-138721904D01*
X230702380Y-125960000D02*
X230702380Y-126531428D01*
X230702380Y-126245714D02*
X229702380Y-126245714D01*
X229845238Y-126340952D01*
X229940476Y-126436190D01*
X229988095Y-126531428D01*
X229702380Y-125340952D02*
X229702380Y-125245714D01*
X229750000Y-125150476D01*
X229797619Y-125102857D01*
X229892857Y-125055238D01*
X230083333Y-125007619D01*
X230321428Y-125007619D01*
X230511904Y-125055238D01*
X230607142Y-125102857D01*
X230654761Y-125150476D01*
X230702380Y-125245714D01*
X230702380Y-125340952D01*
X230654761Y-125436190D01*
X230607142Y-125483809D01*
X230511904Y-125531428D01*
X230321428Y-125579047D01*
X230083333Y-125579047D01*
X229892857Y-125531428D01*
X229797619Y-125483809D01*
X229750000Y-125436190D01*
X229702380Y-125340952D01*
X229702380Y-124388571D02*
X229702380Y-124293333D01*
X229750000Y-124198095D01*
X229797619Y-124150476D01*
X229892857Y-124102857D01*
X230083333Y-124055238D01*
X230321428Y-124055238D01*
X230511904Y-124102857D01*
X230607142Y-124150476D01*
X230654761Y-124198095D01*
X230702380Y-124293333D01*
X230702380Y-124388571D01*
X230654761Y-124483809D01*
X230607142Y-124531428D01*
X230511904Y-124579047D01*
X230321428Y-124626666D01*
X230083333Y-124626666D01*
X229892857Y-124579047D01*
X229797619Y-124531428D01*
X229750000Y-124483809D01*
X229702380Y-124388571D01*
X229702380Y-123769523D02*
X230702380Y-123436190D01*
X229702380Y-123102857D01*
X229654761Y-122055238D02*
X230940476Y-122912380D01*
X230702380Y-121198095D02*
X230702380Y-121769523D01*
X230702380Y-121483809D02*
X229702380Y-121483809D01*
X229845238Y-121579047D01*
X229940476Y-121674285D01*
X229988095Y-121769523D01*
X229702380Y-120864761D02*
X229702380Y-120198095D01*
X230702380Y-120626666D01*
X230416666Y-119864761D02*
X230416666Y-119388571D01*
X230702380Y-119960000D02*
X229702380Y-119626666D01*
X230702380Y-119293333D01*
X224027619Y-123055238D02*
X223980000Y-123150476D01*
X223884761Y-123245714D01*
X223741904Y-123388571D01*
X223694285Y-123483809D01*
X223694285Y-123579047D01*
X223932380Y-123531428D02*
X223884761Y-123626666D01*
X223789523Y-123721904D01*
X223599047Y-123769523D01*
X223265714Y-123769523D01*
X223075238Y-123721904D01*
X222980000Y-123626666D01*
X222932380Y-123531428D01*
X222932380Y-123340952D01*
X222980000Y-123245714D01*
X223075238Y-123150476D01*
X223265714Y-123102857D01*
X223599047Y-123102857D01*
X223789523Y-123150476D01*
X223884761Y-123245714D01*
X223932380Y-123340952D01*
X223932380Y-123531428D01*
X223265714Y-122245714D02*
X223932380Y-122245714D01*
X222884761Y-122483809D02*
X223599047Y-122721904D01*
X223599047Y-122102857D01*
X238952380Y-125960000D02*
X238952380Y-126531428D01*
X238952380Y-126245714D02*
X237952380Y-126245714D01*
X238095238Y-126340952D01*
X238190476Y-126436190D01*
X238238095Y-126531428D01*
X237952380Y-125340952D02*
X237952380Y-125245714D01*
X238000000Y-125150476D01*
X238047619Y-125102857D01*
X238142857Y-125055238D01*
X238333333Y-125007619D01*
X238571428Y-125007619D01*
X238761904Y-125055238D01*
X238857142Y-125102857D01*
X238904761Y-125150476D01*
X238952380Y-125245714D01*
X238952380Y-125340952D01*
X238904761Y-125436190D01*
X238857142Y-125483809D01*
X238761904Y-125531428D01*
X238571428Y-125579047D01*
X238333333Y-125579047D01*
X238142857Y-125531428D01*
X238047619Y-125483809D01*
X238000000Y-125436190D01*
X237952380Y-125340952D01*
X237952380Y-124388571D02*
X237952380Y-124293333D01*
X238000000Y-124198095D01*
X238047619Y-124150476D01*
X238142857Y-124102857D01*
X238333333Y-124055238D01*
X238571428Y-124055238D01*
X238761904Y-124102857D01*
X238857142Y-124150476D01*
X238904761Y-124198095D01*
X238952380Y-124293333D01*
X238952380Y-124388571D01*
X238904761Y-124483809D01*
X238857142Y-124531428D01*
X238761904Y-124579047D01*
X238571428Y-124626666D01*
X238333333Y-124626666D01*
X238142857Y-124579047D01*
X238047619Y-124531428D01*
X238000000Y-124483809D01*
X237952380Y-124388571D01*
X237952380Y-123769523D02*
X238952380Y-123436190D01*
X237952380Y-123102857D01*
X237904761Y-122055238D02*
X239190476Y-122912380D01*
X238952380Y-121198095D02*
X238952380Y-121769523D01*
X238952380Y-121483809D02*
X237952380Y-121483809D01*
X238095238Y-121579047D01*
X238190476Y-121674285D01*
X238238095Y-121769523D01*
X237952380Y-120864761D02*
X237952380Y-120198095D01*
X238952380Y-120626666D01*
X238666666Y-119864761D02*
X238666666Y-119388571D01*
X238952380Y-119960000D02*
X237952380Y-119626666D01*
X238952380Y-119293333D01*
X232277619Y-123055238D02*
X232230000Y-123150476D01*
X232134761Y-123245714D01*
X231991904Y-123388571D01*
X231944285Y-123483809D01*
X231944285Y-123579047D01*
X232182380Y-123531428D02*
X232134761Y-123626666D01*
X232039523Y-123721904D01*
X231849047Y-123769523D01*
X231515714Y-123769523D01*
X231325238Y-123721904D01*
X231230000Y-123626666D01*
X231182380Y-123531428D01*
X231182380Y-123340952D01*
X231230000Y-123245714D01*
X231325238Y-123150476D01*
X231515714Y-123102857D01*
X231849047Y-123102857D01*
X232039523Y-123150476D01*
X232134761Y-123245714D01*
X232182380Y-123340952D01*
X232182380Y-123531428D01*
X231182380Y-122769523D02*
X231182380Y-122150476D01*
X231563333Y-122483809D01*
X231563333Y-122340952D01*
X231610952Y-122245714D01*
X231658571Y-122198095D01*
X231753809Y-122150476D01*
X231991904Y-122150476D01*
X232087142Y-122198095D01*
X232134761Y-122245714D01*
X232182380Y-122340952D01*
X232182380Y-122626666D01*
X232134761Y-122721904D01*
X232087142Y-122769523D01*
X246702380Y-125710000D02*
X246702380Y-126281428D01*
X246702380Y-125995714D02*
X245702380Y-125995714D01*
X245845238Y-126090952D01*
X245940476Y-126186190D01*
X245988095Y-126281428D01*
X245702380Y-125090952D02*
X245702380Y-124995714D01*
X245750000Y-124900476D01*
X245797619Y-124852857D01*
X245892857Y-124805238D01*
X246083333Y-124757619D01*
X246321428Y-124757619D01*
X246511904Y-124805238D01*
X246607142Y-124852857D01*
X246654761Y-124900476D01*
X246702380Y-124995714D01*
X246702380Y-125090952D01*
X246654761Y-125186190D01*
X246607142Y-125233809D01*
X246511904Y-125281428D01*
X246321428Y-125329047D01*
X246083333Y-125329047D01*
X245892857Y-125281428D01*
X245797619Y-125233809D01*
X245750000Y-125186190D01*
X245702380Y-125090952D01*
X245702380Y-124138571D02*
X245702380Y-124043333D01*
X245750000Y-123948095D01*
X245797619Y-123900476D01*
X245892857Y-123852857D01*
X246083333Y-123805238D01*
X246321428Y-123805238D01*
X246511904Y-123852857D01*
X246607142Y-123900476D01*
X246654761Y-123948095D01*
X246702380Y-124043333D01*
X246702380Y-124138571D01*
X246654761Y-124233809D01*
X246607142Y-124281428D01*
X246511904Y-124329047D01*
X246321428Y-124376666D01*
X246083333Y-124376666D01*
X245892857Y-124329047D01*
X245797619Y-124281428D01*
X245750000Y-124233809D01*
X245702380Y-124138571D01*
X245702380Y-123519523D02*
X246702380Y-123186190D01*
X245702380Y-122852857D01*
X245654761Y-121805238D02*
X246940476Y-122662380D01*
X246702380Y-120948095D02*
X246702380Y-121519523D01*
X246702380Y-121233809D02*
X245702380Y-121233809D01*
X245845238Y-121329047D01*
X245940476Y-121424285D01*
X245988095Y-121519523D01*
X245702380Y-120614761D02*
X245702380Y-119948095D01*
X246702380Y-120376666D01*
X246416666Y-119614761D02*
X246416666Y-119138571D01*
X246702380Y-119710000D02*
X245702380Y-119376666D01*
X246702380Y-119043333D01*
X240027619Y-122805238D02*
X239980000Y-122900476D01*
X239884761Y-122995714D01*
X239741904Y-123138571D01*
X239694285Y-123233809D01*
X239694285Y-123329047D01*
X239932380Y-123281428D02*
X239884761Y-123376666D01*
X239789523Y-123471904D01*
X239599047Y-123519523D01*
X239265714Y-123519523D01*
X239075238Y-123471904D01*
X238980000Y-123376666D01*
X238932380Y-123281428D01*
X238932380Y-123090952D01*
X238980000Y-122995714D01*
X239075238Y-122900476D01*
X239265714Y-122852857D01*
X239599047Y-122852857D01*
X239789523Y-122900476D01*
X239884761Y-122995714D01*
X239932380Y-123090952D01*
X239932380Y-123281428D01*
X239027619Y-122471904D02*
X238980000Y-122424285D01*
X238932380Y-122329047D01*
X238932380Y-122090952D01*
X238980000Y-121995714D01*
X239027619Y-121948095D01*
X239122857Y-121900476D01*
X239218095Y-121900476D01*
X239360952Y-121948095D01*
X239932380Y-122519523D01*
X239932380Y-121900476D01*
X255202380Y-142040000D02*
X255202380Y-142611428D01*
X255202380Y-142325714D02*
X254202380Y-142325714D01*
X254345238Y-142420952D01*
X254440476Y-142516190D01*
X254488095Y-142611428D01*
X254202380Y-141420952D02*
X254202380Y-141325714D01*
X254250000Y-141230476D01*
X254297619Y-141182857D01*
X254392857Y-141135238D01*
X254583333Y-141087619D01*
X254821428Y-141087619D01*
X255011904Y-141135238D01*
X255107142Y-141182857D01*
X255154761Y-141230476D01*
X255202380Y-141325714D01*
X255202380Y-141420952D01*
X255154761Y-141516190D01*
X255107142Y-141563809D01*
X255011904Y-141611428D01*
X254821428Y-141659047D01*
X254583333Y-141659047D01*
X254392857Y-141611428D01*
X254297619Y-141563809D01*
X254250000Y-141516190D01*
X254202380Y-141420952D01*
X254202380Y-140468571D02*
X254202380Y-140373333D01*
X254250000Y-140278095D01*
X254297619Y-140230476D01*
X254392857Y-140182857D01*
X254583333Y-140135238D01*
X254821428Y-140135238D01*
X255011904Y-140182857D01*
X255107142Y-140230476D01*
X255154761Y-140278095D01*
X255202380Y-140373333D01*
X255202380Y-140468571D01*
X255154761Y-140563809D01*
X255107142Y-140611428D01*
X255011904Y-140659047D01*
X254821428Y-140706666D01*
X254583333Y-140706666D01*
X254392857Y-140659047D01*
X254297619Y-140611428D01*
X254250000Y-140563809D01*
X254202380Y-140468571D01*
X254202380Y-139849523D02*
X255202380Y-139516190D01*
X254202380Y-139182857D01*
X254154761Y-138135238D02*
X255440476Y-138992380D01*
X255202380Y-137278095D02*
X255202380Y-137849523D01*
X255202380Y-137563809D02*
X254202380Y-137563809D01*
X254345238Y-137659047D01*
X254440476Y-137754285D01*
X254488095Y-137849523D01*
X254202380Y-136944761D02*
X254202380Y-136278095D01*
X255202380Y-136706666D01*
X254916666Y-135944761D02*
X254916666Y-135468571D01*
X255202380Y-136040000D02*
X254202380Y-135706666D01*
X255202380Y-135373333D01*
X262067619Y-139135238D02*
X262020000Y-139230476D01*
X261924761Y-139325714D01*
X261781904Y-139468571D01*
X261734285Y-139563809D01*
X261734285Y-139659047D01*
X261972380Y-139611428D02*
X261924761Y-139706666D01*
X261829523Y-139801904D01*
X261639047Y-139849523D01*
X261305714Y-139849523D01*
X261115238Y-139801904D01*
X261020000Y-139706666D01*
X260972380Y-139611428D01*
X260972380Y-139420952D01*
X261020000Y-139325714D01*
X261115238Y-139230476D01*
X261305714Y-139182857D01*
X261639047Y-139182857D01*
X261829523Y-139230476D01*
X261924761Y-139325714D01*
X261972380Y-139420952D01*
X261972380Y-139611428D01*
X261972380Y-138230476D02*
X261972380Y-138801904D01*
X261972380Y-138516190D02*
X260972380Y-138516190D01*
X261115238Y-138611428D01*
X261210476Y-138706666D01*
X261258095Y-138801904D01*
X227583809Y-97872380D02*
X227583809Y-96872380D01*
X228631428Y-97777142D02*
X228583809Y-97824761D01*
X228440952Y-97872380D01*
X228345714Y-97872380D01*
X228202857Y-97824761D01*
X228107619Y-97729523D01*
X228060000Y-97634285D01*
X228012380Y-97443809D01*
X228012380Y-97300952D01*
X228060000Y-97110476D01*
X228107619Y-97015238D01*
X228202857Y-96920000D01*
X228345714Y-96872380D01*
X228440952Y-96872380D01*
X228583809Y-96920000D01*
X228631428Y-96967619D01*
X229583809Y-97872380D02*
X229012380Y-97872380D01*
X229298095Y-97872380D02*
X229298095Y-96872380D01*
X229202857Y-97015238D01*
X229107619Y-97110476D01*
X229012380Y-97158095D01*
X227583809Y-104012380D02*
X227583809Y-103012380D01*
X228631428Y-103917142D02*
X228583809Y-103964761D01*
X228440952Y-104012380D01*
X228345714Y-104012380D01*
X228202857Y-103964761D01*
X228107619Y-103869523D01*
X228060000Y-103774285D01*
X228012380Y-103583809D01*
X228012380Y-103440952D01*
X228060000Y-103250476D01*
X228107619Y-103155238D01*
X228202857Y-103060000D01*
X228345714Y-103012380D01*
X228440952Y-103012380D01*
X228583809Y-103060000D01*
X228631428Y-103107619D01*
X229583809Y-104012380D02*
X229012380Y-104012380D01*
X229298095Y-104012380D02*
X229298095Y-103012380D01*
X229202857Y-103155238D01*
X229107619Y-103250476D01*
X229012380Y-103298095D01*
X157214285Y-80152380D02*
X157214285Y-79152380D01*
X157547619Y-79866666D01*
X157880952Y-79152380D01*
X157880952Y-80152380D01*
X158500000Y-80152380D02*
X158404761Y-80104761D01*
X158357142Y-80057142D01*
X158309523Y-79961904D01*
X158309523Y-79676190D01*
X158357142Y-79580952D01*
X158404761Y-79533333D01*
X158500000Y-79485714D01*
X158642857Y-79485714D01*
X158738095Y-79533333D01*
X158785714Y-79580952D01*
X158833333Y-79676190D01*
X158833333Y-79961904D01*
X158785714Y-80057142D01*
X158738095Y-80104761D01*
X158642857Y-80152380D01*
X158500000Y-80152380D01*
X159690476Y-79485714D02*
X159690476Y-80152380D01*
X159261904Y-79485714D02*
X159261904Y-80009523D01*
X159309523Y-80104761D01*
X159404761Y-80152380D01*
X159547619Y-80152380D01*
X159642857Y-80104761D01*
X159690476Y-80057142D01*
X160166666Y-79485714D02*
X160166666Y-80152380D01*
X160166666Y-79580952D02*
X160214285Y-79533333D01*
X160309523Y-79485714D01*
X160452380Y-79485714D01*
X160547619Y-79533333D01*
X160595238Y-79628571D01*
X160595238Y-80152380D01*
X160928571Y-79485714D02*
X161309523Y-79485714D01*
X161071428Y-79152380D02*
X161071428Y-80009523D01*
X161119047Y-80104761D01*
X161214285Y-80152380D01*
X161309523Y-80152380D01*
X161642857Y-80152380D02*
X161642857Y-79485714D01*
X161642857Y-79152380D02*
X161595238Y-79200000D01*
X161642857Y-79247619D01*
X161690476Y-79200000D01*
X161642857Y-79152380D01*
X161642857Y-79247619D01*
X162119047Y-79485714D02*
X162119047Y-80152380D01*
X162119047Y-79580952D02*
X162166666Y-79533333D01*
X162261904Y-79485714D01*
X162404761Y-79485714D01*
X162500000Y-79533333D01*
X162547619Y-79628571D01*
X162547619Y-80152380D01*
X163452380Y-79485714D02*
X163452380Y-80295238D01*
X163404761Y-80390476D01*
X163357142Y-80438095D01*
X163261904Y-80485714D01*
X163119047Y-80485714D01*
X163023809Y-80438095D01*
X163452380Y-80104761D02*
X163357142Y-80152380D01*
X163166666Y-80152380D01*
X163071428Y-80104761D01*
X163023809Y-80057142D01*
X162976190Y-79961904D01*
X162976190Y-79676190D01*
X163023809Y-79580952D01*
X163071428Y-79533333D01*
X163166666Y-79485714D01*
X163357142Y-79485714D01*
X163452380Y-79533333D01*
X163928571Y-80152380D02*
X163928571Y-79152380D01*
X163928571Y-79628571D02*
X164500000Y-79628571D01*
X164500000Y-80152380D02*
X164500000Y-79152380D01*
X165119047Y-80152380D02*
X165023809Y-80104761D01*
X164976190Y-80057142D01*
X164928571Y-79961904D01*
X164928571Y-79676190D01*
X164976190Y-79580952D01*
X165023809Y-79533333D01*
X165119047Y-79485714D01*
X165261904Y-79485714D01*
X165357142Y-79533333D01*
X165404761Y-79580952D01*
X165452380Y-79676190D01*
X165452380Y-79961904D01*
X165404761Y-80057142D01*
X165357142Y-80104761D01*
X165261904Y-80152380D01*
X165119047Y-80152380D01*
X166023809Y-80152380D02*
X165928571Y-80104761D01*
X165880952Y-80009523D01*
X165880952Y-79152380D01*
X166785714Y-80104761D02*
X166690476Y-80152380D01*
X166500000Y-80152380D01*
X166404761Y-80104761D01*
X166357142Y-80009523D01*
X166357142Y-79628571D01*
X166404761Y-79533333D01*
X166500000Y-79485714D01*
X166690476Y-79485714D01*
X166785714Y-79533333D01*
X166833333Y-79628571D01*
X166833333Y-79723809D01*
X166357142Y-79819047D01*
X161538095Y-76452380D02*
X161538095Y-75452380D01*
X161538095Y-75928571D02*
X162109523Y-75928571D01*
X162109523Y-76452380D02*
X162109523Y-75452380D01*
X163014285Y-75785714D02*
X163014285Y-76452380D01*
X162776190Y-75404761D02*
X162538095Y-76119047D01*
X163157142Y-76119047D01*
X251214285Y-80152380D02*
X251214285Y-79152380D01*
X251547619Y-79866666D01*
X251880952Y-79152380D01*
X251880952Y-80152380D01*
X252500000Y-80152380D02*
X252404761Y-80104761D01*
X252357142Y-80057142D01*
X252309523Y-79961904D01*
X252309523Y-79676190D01*
X252357142Y-79580952D01*
X252404761Y-79533333D01*
X252500000Y-79485714D01*
X252642857Y-79485714D01*
X252738095Y-79533333D01*
X252785714Y-79580952D01*
X252833333Y-79676190D01*
X252833333Y-79961904D01*
X252785714Y-80057142D01*
X252738095Y-80104761D01*
X252642857Y-80152380D01*
X252500000Y-80152380D01*
X253690476Y-79485714D02*
X253690476Y-80152380D01*
X253261904Y-79485714D02*
X253261904Y-80009523D01*
X253309523Y-80104761D01*
X253404761Y-80152380D01*
X253547619Y-80152380D01*
X253642857Y-80104761D01*
X253690476Y-80057142D01*
X254166666Y-79485714D02*
X254166666Y-80152380D01*
X254166666Y-79580952D02*
X254214285Y-79533333D01*
X254309523Y-79485714D01*
X254452380Y-79485714D01*
X254547619Y-79533333D01*
X254595238Y-79628571D01*
X254595238Y-80152380D01*
X254928571Y-79485714D02*
X255309523Y-79485714D01*
X255071428Y-79152380D02*
X255071428Y-80009523D01*
X255119047Y-80104761D01*
X255214285Y-80152380D01*
X255309523Y-80152380D01*
X255642857Y-80152380D02*
X255642857Y-79485714D01*
X255642857Y-79152380D02*
X255595238Y-79200000D01*
X255642857Y-79247619D01*
X255690476Y-79200000D01*
X255642857Y-79152380D01*
X255642857Y-79247619D01*
X256119047Y-79485714D02*
X256119047Y-80152380D01*
X256119047Y-79580952D02*
X256166666Y-79533333D01*
X256261904Y-79485714D01*
X256404761Y-79485714D01*
X256500000Y-79533333D01*
X256547619Y-79628571D01*
X256547619Y-80152380D01*
X257452380Y-79485714D02*
X257452380Y-80295238D01*
X257404761Y-80390476D01*
X257357142Y-80438095D01*
X257261904Y-80485714D01*
X257119047Y-80485714D01*
X257023809Y-80438095D01*
X257452380Y-80104761D02*
X257357142Y-80152380D01*
X257166666Y-80152380D01*
X257071428Y-80104761D01*
X257023809Y-80057142D01*
X256976190Y-79961904D01*
X256976190Y-79676190D01*
X257023809Y-79580952D01*
X257071428Y-79533333D01*
X257166666Y-79485714D01*
X257357142Y-79485714D01*
X257452380Y-79533333D01*
X257928571Y-80152380D02*
X257928571Y-79152380D01*
X257928571Y-79628571D02*
X258500000Y-79628571D01*
X258500000Y-80152380D02*
X258500000Y-79152380D01*
X259119047Y-80152380D02*
X259023809Y-80104761D01*
X258976190Y-80057142D01*
X258928571Y-79961904D01*
X258928571Y-79676190D01*
X258976190Y-79580952D01*
X259023809Y-79533333D01*
X259119047Y-79485714D01*
X259261904Y-79485714D01*
X259357142Y-79533333D01*
X259404761Y-79580952D01*
X259452380Y-79676190D01*
X259452380Y-79961904D01*
X259404761Y-80057142D01*
X259357142Y-80104761D01*
X259261904Y-80152380D01*
X259119047Y-80152380D01*
X260023809Y-80152380D02*
X259928571Y-80104761D01*
X259880952Y-80009523D01*
X259880952Y-79152380D01*
X260785714Y-80104761D02*
X260690476Y-80152380D01*
X260500000Y-80152380D01*
X260404761Y-80104761D01*
X260357142Y-80009523D01*
X260357142Y-79628571D01*
X260404761Y-79533333D01*
X260500000Y-79485714D01*
X260690476Y-79485714D01*
X260785714Y-79533333D01*
X260833333Y-79628571D01*
X260833333Y-79723809D01*
X260357142Y-79819047D01*
X255538095Y-76452380D02*
X255538095Y-75452380D01*
X255538095Y-75928571D02*
X256109523Y-75928571D01*
X256109523Y-76452380D02*
X256109523Y-75452380D01*
X256490476Y-75452380D02*
X257109523Y-75452380D01*
X256776190Y-75833333D01*
X256919047Y-75833333D01*
X257014285Y-75880952D01*
X257061904Y-75928571D01*
X257109523Y-76023809D01*
X257109523Y-76261904D01*
X257061904Y-76357142D01*
X257014285Y-76404761D01*
X256919047Y-76452380D01*
X256633333Y-76452380D01*
X256538095Y-76404761D01*
X256490476Y-76357142D01*
X157214285Y-157152380D02*
X157214285Y-156152380D01*
X157547619Y-156866666D01*
X157880952Y-156152380D01*
X157880952Y-157152380D01*
X158500000Y-157152380D02*
X158404761Y-157104761D01*
X158357142Y-157057142D01*
X158309523Y-156961904D01*
X158309523Y-156676190D01*
X158357142Y-156580952D01*
X158404761Y-156533333D01*
X158500000Y-156485714D01*
X158642857Y-156485714D01*
X158738095Y-156533333D01*
X158785714Y-156580952D01*
X158833333Y-156676190D01*
X158833333Y-156961904D01*
X158785714Y-157057142D01*
X158738095Y-157104761D01*
X158642857Y-157152380D01*
X158500000Y-157152380D01*
X159690476Y-156485714D02*
X159690476Y-157152380D01*
X159261904Y-156485714D02*
X159261904Y-157009523D01*
X159309523Y-157104761D01*
X159404761Y-157152380D01*
X159547619Y-157152380D01*
X159642857Y-157104761D01*
X159690476Y-157057142D01*
X160166666Y-156485714D02*
X160166666Y-157152380D01*
X160166666Y-156580952D02*
X160214285Y-156533333D01*
X160309523Y-156485714D01*
X160452380Y-156485714D01*
X160547619Y-156533333D01*
X160595238Y-156628571D01*
X160595238Y-157152380D01*
X160928571Y-156485714D02*
X161309523Y-156485714D01*
X161071428Y-156152380D02*
X161071428Y-157009523D01*
X161119047Y-157104761D01*
X161214285Y-157152380D01*
X161309523Y-157152380D01*
X161642857Y-157152380D02*
X161642857Y-156485714D01*
X161642857Y-156152380D02*
X161595238Y-156200000D01*
X161642857Y-156247619D01*
X161690476Y-156200000D01*
X161642857Y-156152380D01*
X161642857Y-156247619D01*
X162119047Y-156485714D02*
X162119047Y-157152380D01*
X162119047Y-156580952D02*
X162166666Y-156533333D01*
X162261904Y-156485714D01*
X162404761Y-156485714D01*
X162500000Y-156533333D01*
X162547619Y-156628571D01*
X162547619Y-157152380D01*
X163452380Y-156485714D02*
X163452380Y-157295238D01*
X163404761Y-157390476D01*
X163357142Y-157438095D01*
X163261904Y-157485714D01*
X163119047Y-157485714D01*
X163023809Y-157438095D01*
X163452380Y-157104761D02*
X163357142Y-157152380D01*
X163166666Y-157152380D01*
X163071428Y-157104761D01*
X163023809Y-157057142D01*
X162976190Y-156961904D01*
X162976190Y-156676190D01*
X163023809Y-156580952D01*
X163071428Y-156533333D01*
X163166666Y-156485714D01*
X163357142Y-156485714D01*
X163452380Y-156533333D01*
X163928571Y-157152380D02*
X163928571Y-156152380D01*
X163928571Y-156628571D02*
X164500000Y-156628571D01*
X164500000Y-157152380D02*
X164500000Y-156152380D01*
X165119047Y-157152380D02*
X165023809Y-157104761D01*
X164976190Y-157057142D01*
X164928571Y-156961904D01*
X164928571Y-156676190D01*
X164976190Y-156580952D01*
X165023809Y-156533333D01*
X165119047Y-156485714D01*
X165261904Y-156485714D01*
X165357142Y-156533333D01*
X165404761Y-156580952D01*
X165452380Y-156676190D01*
X165452380Y-156961904D01*
X165404761Y-157057142D01*
X165357142Y-157104761D01*
X165261904Y-157152380D01*
X165119047Y-157152380D01*
X166023809Y-157152380D02*
X165928571Y-157104761D01*
X165880952Y-157009523D01*
X165880952Y-156152380D01*
X166785714Y-157104761D02*
X166690476Y-157152380D01*
X166500000Y-157152380D01*
X166404761Y-157104761D01*
X166357142Y-157009523D01*
X166357142Y-156628571D01*
X166404761Y-156533333D01*
X166500000Y-156485714D01*
X166690476Y-156485714D01*
X166785714Y-156533333D01*
X166833333Y-156628571D01*
X166833333Y-156723809D01*
X166357142Y-156819047D01*
X161538095Y-153452380D02*
X161538095Y-152452380D01*
X161538095Y-152928571D02*
X162109523Y-152928571D01*
X162109523Y-153452380D02*
X162109523Y-152452380D01*
X162538095Y-152547619D02*
X162585714Y-152500000D01*
X162680952Y-152452380D01*
X162919047Y-152452380D01*
X163014285Y-152500000D01*
X163061904Y-152547619D01*
X163109523Y-152642857D01*
X163109523Y-152738095D01*
X163061904Y-152880952D01*
X162490476Y-153452380D01*
X163109523Y-153452380D01*
X251214285Y-157152380D02*
X251214285Y-156152380D01*
X251547619Y-156866666D01*
X251880952Y-156152380D01*
X251880952Y-157152380D01*
X252500000Y-157152380D02*
X252404761Y-157104761D01*
X252357142Y-157057142D01*
X252309523Y-156961904D01*
X252309523Y-156676190D01*
X252357142Y-156580952D01*
X252404761Y-156533333D01*
X252500000Y-156485714D01*
X252642857Y-156485714D01*
X252738095Y-156533333D01*
X252785714Y-156580952D01*
X252833333Y-156676190D01*
X252833333Y-156961904D01*
X252785714Y-157057142D01*
X252738095Y-157104761D01*
X252642857Y-157152380D01*
X252500000Y-157152380D01*
X253690476Y-156485714D02*
X253690476Y-157152380D01*
X253261904Y-156485714D02*
X253261904Y-157009523D01*
X253309523Y-157104761D01*
X253404761Y-157152380D01*
X253547619Y-157152380D01*
X253642857Y-157104761D01*
X253690476Y-157057142D01*
X254166666Y-156485714D02*
X254166666Y-157152380D01*
X254166666Y-156580952D02*
X254214285Y-156533333D01*
X254309523Y-156485714D01*
X254452380Y-156485714D01*
X254547619Y-156533333D01*
X254595238Y-156628571D01*
X254595238Y-157152380D01*
X254928571Y-156485714D02*
X255309523Y-156485714D01*
X255071428Y-156152380D02*
X255071428Y-157009523D01*
X255119047Y-157104761D01*
X255214285Y-157152380D01*
X255309523Y-157152380D01*
X255642857Y-157152380D02*
X255642857Y-156485714D01*
X255642857Y-156152380D02*
X255595238Y-156200000D01*
X255642857Y-156247619D01*
X255690476Y-156200000D01*
X255642857Y-156152380D01*
X255642857Y-156247619D01*
X256119047Y-156485714D02*
X256119047Y-157152380D01*
X256119047Y-156580952D02*
X256166666Y-156533333D01*
X256261904Y-156485714D01*
X256404761Y-156485714D01*
X256500000Y-156533333D01*
X256547619Y-156628571D01*
X256547619Y-157152380D01*
X257452380Y-156485714D02*
X257452380Y-157295238D01*
X257404761Y-157390476D01*
X257357142Y-157438095D01*
X257261904Y-157485714D01*
X257119047Y-157485714D01*
X257023809Y-157438095D01*
X257452380Y-157104761D02*
X257357142Y-157152380D01*
X257166666Y-157152380D01*
X257071428Y-157104761D01*
X257023809Y-157057142D01*
X256976190Y-156961904D01*
X256976190Y-156676190D01*
X257023809Y-156580952D01*
X257071428Y-156533333D01*
X257166666Y-156485714D01*
X257357142Y-156485714D01*
X257452380Y-156533333D01*
X257928571Y-157152380D02*
X257928571Y-156152380D01*
X257928571Y-156628571D02*
X258500000Y-156628571D01*
X258500000Y-157152380D02*
X258500000Y-156152380D01*
X259119047Y-157152380D02*
X259023809Y-157104761D01*
X258976190Y-157057142D01*
X258928571Y-156961904D01*
X258928571Y-156676190D01*
X258976190Y-156580952D01*
X259023809Y-156533333D01*
X259119047Y-156485714D01*
X259261904Y-156485714D01*
X259357142Y-156533333D01*
X259404761Y-156580952D01*
X259452380Y-156676190D01*
X259452380Y-156961904D01*
X259404761Y-157057142D01*
X259357142Y-157104761D01*
X259261904Y-157152380D01*
X259119047Y-157152380D01*
X260023809Y-157152380D02*
X259928571Y-157104761D01*
X259880952Y-157009523D01*
X259880952Y-156152380D01*
X260785714Y-157104761D02*
X260690476Y-157152380D01*
X260500000Y-157152380D01*
X260404761Y-157104761D01*
X260357142Y-157009523D01*
X260357142Y-156628571D01*
X260404761Y-156533333D01*
X260500000Y-156485714D01*
X260690476Y-156485714D01*
X260785714Y-156533333D01*
X260833333Y-156628571D01*
X260833333Y-156723809D01*
X260357142Y-156819047D01*
X255538095Y-153452380D02*
X255538095Y-152452380D01*
X255538095Y-152928571D02*
X256109523Y-152928571D01*
X256109523Y-153452380D02*
X256109523Y-152452380D01*
X257109523Y-153452380D02*
X256538095Y-153452380D01*
X256823809Y-153452380D02*
X256823809Y-152452380D01*
X256728571Y-152595238D01*
X256633333Y-152690476D01*
X256538095Y-152738095D01*
X161457142Y-92738095D02*
X161504761Y-92785714D01*
X161552380Y-92928571D01*
X161552380Y-93023809D01*
X161504761Y-93166666D01*
X161409523Y-93261904D01*
X161314285Y-93309523D01*
X161123809Y-93357142D01*
X160980952Y-93357142D01*
X160790476Y-93309523D01*
X160695238Y-93261904D01*
X160600000Y-93166666D01*
X160552380Y-93023809D01*
X160552380Y-92928571D01*
X160600000Y-92785714D01*
X160647619Y-92738095D01*
X160552380Y-92119047D02*
X160552380Y-91928571D01*
X160600000Y-91833333D01*
X160695238Y-91738095D01*
X160885714Y-91690476D01*
X161219047Y-91690476D01*
X161409523Y-91738095D01*
X161504761Y-91833333D01*
X161552380Y-91928571D01*
X161552380Y-92119047D01*
X161504761Y-92214285D01*
X161409523Y-92309523D01*
X161219047Y-92357142D01*
X160885714Y-92357142D01*
X160695238Y-92309523D01*
X160600000Y-92214285D01*
X160552380Y-92119047D01*
X161552380Y-91261904D02*
X160552380Y-91261904D01*
X161552380Y-90690476D01*
X160552380Y-90690476D01*
X161552380Y-90214285D02*
X160552380Y-90214285D01*
X161552380Y-89642857D01*
X160552380Y-89642857D01*
X160552380Y-89261904D02*
X160552380Y-88595238D01*
X161552380Y-89023809D01*
X159557142Y-92738095D02*
X159604761Y-92785714D01*
X159652380Y-92928571D01*
X159652380Y-93023809D01*
X159604761Y-93166666D01*
X159509523Y-93261904D01*
X159414285Y-93309523D01*
X159223809Y-93357142D01*
X159080952Y-93357142D01*
X158890476Y-93309523D01*
X158795238Y-93261904D01*
X158700000Y-93166666D01*
X158652380Y-93023809D01*
X158652380Y-92928571D01*
X158700000Y-92785714D01*
X158747619Y-92738095D01*
X158652380Y-92119047D02*
X158652380Y-91928571D01*
X158700000Y-91833333D01*
X158795238Y-91738095D01*
X158985714Y-91690476D01*
X159319047Y-91690476D01*
X159509523Y-91738095D01*
X159604761Y-91833333D01*
X159652380Y-91928571D01*
X159652380Y-92119047D01*
X159604761Y-92214285D01*
X159509523Y-92309523D01*
X159319047Y-92357142D01*
X158985714Y-92357142D01*
X158795238Y-92309523D01*
X158700000Y-92214285D01*
X158652380Y-92119047D01*
X159652380Y-91261904D02*
X158652380Y-91261904D01*
X159652380Y-90690476D01*
X158652380Y-90690476D01*
X159652380Y-90214285D02*
X158652380Y-90214285D01*
X159652380Y-89642857D01*
X158652380Y-89642857D01*
X158652380Y-89261904D02*
X158652380Y-88595238D01*
X159652380Y-89023809D01*
X152511904Y-128207142D02*
X152464285Y-128254761D01*
X152321428Y-128302380D01*
X152226190Y-128302380D01*
X152083333Y-128254761D01*
X151988095Y-128159523D01*
X151940476Y-128064285D01*
X151892857Y-127873809D01*
X151892857Y-127730952D01*
X151940476Y-127540476D01*
X151988095Y-127445238D01*
X152083333Y-127350000D01*
X152226190Y-127302380D01*
X152321428Y-127302380D01*
X152464285Y-127350000D01*
X152511904Y-127397619D01*
X153130952Y-127302380D02*
X153321428Y-127302380D01*
X153416666Y-127350000D01*
X153511904Y-127445238D01*
X153559523Y-127635714D01*
X153559523Y-127969047D01*
X153511904Y-128159523D01*
X153416666Y-128254761D01*
X153321428Y-128302380D01*
X153130952Y-128302380D01*
X153035714Y-128254761D01*
X152940476Y-128159523D01*
X152892857Y-127969047D01*
X152892857Y-127635714D01*
X152940476Y-127445238D01*
X153035714Y-127350000D01*
X153130952Y-127302380D01*
X153988095Y-128302380D02*
X153988095Y-127302380D01*
X154559523Y-128302380D01*
X154559523Y-127302380D01*
X155035714Y-128302380D02*
X155035714Y-127302380D01*
X155607142Y-128302380D01*
X155607142Y-127302380D01*
X156511904Y-127302380D02*
X156321428Y-127302380D01*
X156226190Y-127350000D01*
X156178571Y-127397619D01*
X156083333Y-127540476D01*
X156035714Y-127730952D01*
X156035714Y-128111904D01*
X156083333Y-128207142D01*
X156130952Y-128254761D01*
X156226190Y-128302380D01*
X156416666Y-128302380D01*
X156511904Y-128254761D01*
X156559523Y-128207142D01*
X156607142Y-128111904D01*
X156607142Y-127873809D01*
X156559523Y-127778571D01*
X156511904Y-127730952D01*
X156416666Y-127683333D01*
X156226190Y-127683333D01*
X156130952Y-127730952D01*
X156083333Y-127778571D01*
X156035714Y-127873809D01*
X253227142Y-141298095D02*
X253274761Y-141345714D01*
X253322380Y-141488571D01*
X253322380Y-141583809D01*
X253274761Y-141726666D01*
X253179523Y-141821904D01*
X253084285Y-141869523D01*
X252893809Y-141917142D01*
X252750952Y-141917142D01*
X252560476Y-141869523D01*
X252465238Y-141821904D01*
X252370000Y-141726666D01*
X252322380Y-141583809D01*
X252322380Y-141488571D01*
X252370000Y-141345714D01*
X252417619Y-141298095D01*
X252322380Y-140679047D02*
X252322380Y-140488571D01*
X252370000Y-140393333D01*
X252465238Y-140298095D01*
X252655714Y-140250476D01*
X252989047Y-140250476D01*
X253179523Y-140298095D01*
X253274761Y-140393333D01*
X253322380Y-140488571D01*
X253322380Y-140679047D01*
X253274761Y-140774285D01*
X253179523Y-140869523D01*
X252989047Y-140917142D01*
X252655714Y-140917142D01*
X252465238Y-140869523D01*
X252370000Y-140774285D01*
X252322380Y-140679047D01*
X253322380Y-139821904D02*
X252322380Y-139821904D01*
X253322380Y-139250476D01*
X252322380Y-139250476D01*
X253322380Y-138774285D02*
X252322380Y-138774285D01*
X253322380Y-138202857D01*
X252322380Y-138202857D01*
X252322380Y-137250476D02*
X252322380Y-137726666D01*
X252798571Y-137774285D01*
X252750952Y-137726666D01*
X252703333Y-137631428D01*
X252703333Y-137393333D01*
X252750952Y-137298095D01*
X252798571Y-137250476D01*
X252893809Y-137202857D01*
X253131904Y-137202857D01*
X253227142Y-137250476D01*
X253274761Y-137298095D01*
X253322380Y-137393333D01*
X253322380Y-137631428D01*
X253274761Y-137726666D01*
X253227142Y-137774285D01*
X251327142Y-141298095D02*
X251374761Y-141345714D01*
X251422380Y-141488571D01*
X251422380Y-141583809D01*
X251374761Y-141726666D01*
X251279523Y-141821904D01*
X251184285Y-141869523D01*
X250993809Y-141917142D01*
X250850952Y-141917142D01*
X250660476Y-141869523D01*
X250565238Y-141821904D01*
X250470000Y-141726666D01*
X250422380Y-141583809D01*
X250422380Y-141488571D01*
X250470000Y-141345714D01*
X250517619Y-141298095D01*
X250422380Y-140679047D02*
X250422380Y-140488571D01*
X250470000Y-140393333D01*
X250565238Y-140298095D01*
X250755714Y-140250476D01*
X251089047Y-140250476D01*
X251279523Y-140298095D01*
X251374761Y-140393333D01*
X251422380Y-140488571D01*
X251422380Y-140679047D01*
X251374761Y-140774285D01*
X251279523Y-140869523D01*
X251089047Y-140917142D01*
X250755714Y-140917142D01*
X250565238Y-140869523D01*
X250470000Y-140774285D01*
X250422380Y-140679047D01*
X251422380Y-139821904D02*
X250422380Y-139821904D01*
X251422380Y-139250476D01*
X250422380Y-139250476D01*
X251422380Y-138774285D02*
X250422380Y-138774285D01*
X251422380Y-138202857D01*
X250422380Y-138202857D01*
X250422380Y-137250476D02*
X250422380Y-137726666D01*
X250898571Y-137774285D01*
X250850952Y-137726666D01*
X250803333Y-137631428D01*
X250803333Y-137393333D01*
X250850952Y-137298095D01*
X250898571Y-137250476D01*
X250993809Y-137202857D01*
X251231904Y-137202857D01*
X251327142Y-137250476D01*
X251374761Y-137298095D01*
X251422380Y-137393333D01*
X251422380Y-137631428D01*
X251374761Y-137726666D01*
X251327142Y-137774285D01*
X226971904Y-81677142D02*
X226924285Y-81724761D01*
X226781428Y-81772380D01*
X226686190Y-81772380D01*
X226543333Y-81724761D01*
X226448095Y-81629523D01*
X226400476Y-81534285D01*
X226352857Y-81343809D01*
X226352857Y-81200952D01*
X226400476Y-81010476D01*
X226448095Y-80915238D01*
X226543333Y-80820000D01*
X226686190Y-80772380D01*
X226781428Y-80772380D01*
X226924285Y-80820000D01*
X226971904Y-80867619D01*
X227590952Y-80772380D02*
X227781428Y-80772380D01*
X227876666Y-80820000D01*
X227971904Y-80915238D01*
X228019523Y-81105714D01*
X228019523Y-81439047D01*
X227971904Y-81629523D01*
X227876666Y-81724761D01*
X227781428Y-81772380D01*
X227590952Y-81772380D01*
X227495714Y-81724761D01*
X227400476Y-81629523D01*
X227352857Y-81439047D01*
X227352857Y-81105714D01*
X227400476Y-80915238D01*
X227495714Y-80820000D01*
X227590952Y-80772380D01*
X228448095Y-81772380D02*
X228448095Y-80772380D01*
X229019523Y-81772380D01*
X229019523Y-80772380D01*
X229495714Y-81772380D02*
X229495714Y-80772380D01*
X230067142Y-81772380D01*
X230067142Y-80772380D01*
X230971904Y-81105714D02*
X230971904Y-81772380D01*
X230733809Y-80724761D02*
X230495714Y-81439047D01*
X231114761Y-81439047D01*
X226971904Y-79777142D02*
X226924285Y-79824761D01*
X226781428Y-79872380D01*
X226686190Y-79872380D01*
X226543333Y-79824761D01*
X226448095Y-79729523D01*
X226400476Y-79634285D01*
X226352857Y-79443809D01*
X226352857Y-79300952D01*
X226400476Y-79110476D01*
X226448095Y-79015238D01*
X226543333Y-78920000D01*
X226686190Y-78872380D01*
X226781428Y-78872380D01*
X226924285Y-78920000D01*
X226971904Y-78967619D01*
X227590952Y-78872380D02*
X227781428Y-78872380D01*
X227876666Y-78920000D01*
X227971904Y-79015238D01*
X228019523Y-79205714D01*
X228019523Y-79539047D01*
X227971904Y-79729523D01*
X227876666Y-79824761D01*
X227781428Y-79872380D01*
X227590952Y-79872380D01*
X227495714Y-79824761D01*
X227400476Y-79729523D01*
X227352857Y-79539047D01*
X227352857Y-79205714D01*
X227400476Y-79015238D01*
X227495714Y-78920000D01*
X227590952Y-78872380D01*
X228448095Y-79872380D02*
X228448095Y-78872380D01*
X229019523Y-79872380D01*
X229019523Y-78872380D01*
X229495714Y-79872380D02*
X229495714Y-78872380D01*
X230067142Y-79872380D01*
X230067142Y-78872380D01*
X230971904Y-79205714D02*
X230971904Y-79872380D01*
X230733809Y-78824761D02*
X230495714Y-79539047D01*
X231114761Y-79539047D01*
X244311904Y-73107142D02*
X244264285Y-73154761D01*
X244121428Y-73202380D01*
X244026190Y-73202380D01*
X243883333Y-73154761D01*
X243788095Y-73059523D01*
X243740476Y-72964285D01*
X243692857Y-72773809D01*
X243692857Y-72630952D01*
X243740476Y-72440476D01*
X243788095Y-72345238D01*
X243883333Y-72250000D01*
X244026190Y-72202380D01*
X244121428Y-72202380D01*
X244264285Y-72250000D01*
X244311904Y-72297619D01*
X244930952Y-72202380D02*
X245121428Y-72202380D01*
X245216666Y-72250000D01*
X245311904Y-72345238D01*
X245359523Y-72535714D01*
X245359523Y-72869047D01*
X245311904Y-73059523D01*
X245216666Y-73154761D01*
X245121428Y-73202380D01*
X244930952Y-73202380D01*
X244835714Y-73154761D01*
X244740476Y-73059523D01*
X244692857Y-72869047D01*
X244692857Y-72535714D01*
X244740476Y-72345238D01*
X244835714Y-72250000D01*
X244930952Y-72202380D01*
X245788095Y-73202380D02*
X245788095Y-72202380D01*
X246359523Y-73202380D01*
X246359523Y-72202380D01*
X246835714Y-73202380D02*
X246835714Y-72202380D01*
X247407142Y-73202380D01*
X247407142Y-72202380D01*
X247788095Y-72202380D02*
X248407142Y-72202380D01*
X248073809Y-72583333D01*
X248216666Y-72583333D01*
X248311904Y-72630952D01*
X248359523Y-72678571D01*
X248407142Y-72773809D01*
X248407142Y-73011904D01*
X248359523Y-73107142D01*
X248311904Y-73154761D01*
X248216666Y-73202380D01*
X247930952Y-73202380D01*
X247835714Y-73154761D01*
X247788095Y-73107142D01*
X244311904Y-75007142D02*
X244264285Y-75054761D01*
X244121428Y-75102380D01*
X244026190Y-75102380D01*
X243883333Y-75054761D01*
X243788095Y-74959523D01*
X243740476Y-74864285D01*
X243692857Y-74673809D01*
X243692857Y-74530952D01*
X243740476Y-74340476D01*
X243788095Y-74245238D01*
X243883333Y-74150000D01*
X244026190Y-74102380D01*
X244121428Y-74102380D01*
X244264285Y-74150000D01*
X244311904Y-74197619D01*
X244930952Y-74102380D02*
X245121428Y-74102380D01*
X245216666Y-74150000D01*
X245311904Y-74245238D01*
X245359523Y-74435714D01*
X245359523Y-74769047D01*
X245311904Y-74959523D01*
X245216666Y-75054761D01*
X245121428Y-75102380D01*
X244930952Y-75102380D01*
X244835714Y-75054761D01*
X244740476Y-74959523D01*
X244692857Y-74769047D01*
X244692857Y-74435714D01*
X244740476Y-74245238D01*
X244835714Y-74150000D01*
X244930952Y-74102380D01*
X245788095Y-75102380D02*
X245788095Y-74102380D01*
X246359523Y-75102380D01*
X246359523Y-74102380D01*
X246835714Y-75102380D02*
X246835714Y-74102380D01*
X247407142Y-75102380D01*
X247407142Y-74102380D01*
X247788095Y-74102380D02*
X248407142Y-74102380D01*
X248073809Y-74483333D01*
X248216666Y-74483333D01*
X248311904Y-74530952D01*
X248359523Y-74578571D01*
X248407142Y-74673809D01*
X248407142Y-74911904D01*
X248359523Y-75007142D01*
X248311904Y-75054761D01*
X248216666Y-75102380D01*
X247930952Y-75102380D01*
X247835714Y-75054761D01*
X247788095Y-75007142D01*
X248657142Y-124688095D02*
X248704761Y-124735714D01*
X248752380Y-124878571D01*
X248752380Y-124973809D01*
X248704761Y-125116666D01*
X248609523Y-125211904D01*
X248514285Y-125259523D01*
X248323809Y-125307142D01*
X248180952Y-125307142D01*
X247990476Y-125259523D01*
X247895238Y-125211904D01*
X247800000Y-125116666D01*
X247752380Y-124973809D01*
X247752380Y-124878571D01*
X247800000Y-124735714D01*
X247847619Y-124688095D01*
X247752380Y-124069047D02*
X247752380Y-123878571D01*
X247800000Y-123783333D01*
X247895238Y-123688095D01*
X248085714Y-123640476D01*
X248419047Y-123640476D01*
X248609523Y-123688095D01*
X248704761Y-123783333D01*
X248752380Y-123878571D01*
X248752380Y-124069047D01*
X248704761Y-124164285D01*
X248609523Y-124259523D01*
X248419047Y-124307142D01*
X248085714Y-124307142D01*
X247895238Y-124259523D01*
X247800000Y-124164285D01*
X247752380Y-124069047D01*
X248752380Y-123211904D02*
X247752380Y-123211904D01*
X248752380Y-122640476D01*
X247752380Y-122640476D01*
X248752380Y-122164285D02*
X247752380Y-122164285D01*
X248752380Y-121592857D01*
X247752380Y-121592857D01*
X247847619Y-121164285D02*
X247800000Y-121116666D01*
X247752380Y-121021428D01*
X247752380Y-120783333D01*
X247800000Y-120688095D01*
X247847619Y-120640476D01*
X247942857Y-120592857D01*
X248038095Y-120592857D01*
X248180952Y-120640476D01*
X248752380Y-121211904D01*
X248752380Y-120592857D01*
X250557142Y-124688095D02*
X250604761Y-124735714D01*
X250652380Y-124878571D01*
X250652380Y-124973809D01*
X250604761Y-125116666D01*
X250509523Y-125211904D01*
X250414285Y-125259523D01*
X250223809Y-125307142D01*
X250080952Y-125307142D01*
X249890476Y-125259523D01*
X249795238Y-125211904D01*
X249700000Y-125116666D01*
X249652380Y-124973809D01*
X249652380Y-124878571D01*
X249700000Y-124735714D01*
X249747619Y-124688095D01*
X249652380Y-124069047D02*
X249652380Y-123878571D01*
X249700000Y-123783333D01*
X249795238Y-123688095D01*
X249985714Y-123640476D01*
X250319047Y-123640476D01*
X250509523Y-123688095D01*
X250604761Y-123783333D01*
X250652380Y-123878571D01*
X250652380Y-124069047D01*
X250604761Y-124164285D01*
X250509523Y-124259523D01*
X250319047Y-124307142D01*
X249985714Y-124307142D01*
X249795238Y-124259523D01*
X249700000Y-124164285D01*
X249652380Y-124069047D01*
X250652380Y-123211904D02*
X249652380Y-123211904D01*
X250652380Y-122640476D01*
X249652380Y-122640476D01*
X250652380Y-122164285D02*
X249652380Y-122164285D01*
X250652380Y-121592857D01*
X249652380Y-121592857D01*
X249747619Y-121164285D02*
X249700000Y-121116666D01*
X249652380Y-121021428D01*
X249652380Y-120783333D01*
X249700000Y-120688095D01*
X249747619Y-120640476D01*
X249842857Y-120592857D01*
X249938095Y-120592857D01*
X250080952Y-120640476D01*
X250652380Y-121211904D01*
X250652380Y-120592857D01*
X248407142Y-106302380D02*
X248502380Y-106302380D01*
X248597619Y-106350000D01*
X248645238Y-106397619D01*
X248692857Y-106492857D01*
X248740476Y-106683333D01*
X248740476Y-106921428D01*
X248692857Y-107111904D01*
X248645238Y-107207142D01*
X248597619Y-107254761D01*
X248502380Y-107302380D01*
X248407142Y-107302380D01*
X248311904Y-107254761D01*
X248264285Y-107207142D01*
X248216666Y-107111904D01*
X248169047Y-106921428D01*
X248169047Y-106683333D01*
X248216666Y-106492857D01*
X248264285Y-106397619D01*
X248311904Y-106350000D01*
X248407142Y-106302380D01*
X249169047Y-107207142D02*
X249216666Y-107254761D01*
X249169047Y-107302380D01*
X249121428Y-107254761D01*
X249169047Y-107207142D01*
X249169047Y-107302380D01*
X250169047Y-107302380D02*
X249597619Y-107302380D01*
X249883333Y-107302380D02*
X249883333Y-106302380D01*
X249788095Y-106445238D01*
X249692857Y-106540476D01*
X249597619Y-106588095D01*
X251026190Y-106635714D02*
X251026190Y-107302380D01*
X250597619Y-106635714D02*
X250597619Y-107159523D01*
X250645238Y-107254761D01*
X250740476Y-107302380D01*
X250883333Y-107302380D01*
X250978571Y-107254761D01*
X251026190Y-107207142D01*
X251835714Y-106778571D02*
X251502380Y-106778571D01*
X251502380Y-107302380D02*
X251502380Y-106302380D01*
X251978571Y-106302380D01*
D13*
X249966666Y-105378571D02*
X249942857Y-105402380D01*
X249871428Y-105426190D01*
X249823809Y-105426190D01*
X249752380Y-105402380D01*
X249704761Y-105354761D01*
X249680952Y-105307142D01*
X249657142Y-105211904D01*
X249657142Y-105140476D01*
X249680952Y-105045238D01*
X249704761Y-104997619D01*
X249752380Y-104950000D01*
X249823809Y-104926190D01*
X249871428Y-104926190D01*
X249942857Y-104950000D01*
X249966666Y-104973809D01*
X250419047Y-104926190D02*
X250180952Y-104926190D01*
X250157142Y-105164285D01*
X250180952Y-105140476D01*
X250228571Y-105116666D01*
X250347619Y-105116666D01*
X250395238Y-105140476D01*
X250419047Y-105164285D01*
X250442857Y-105211904D01*
X250442857Y-105330952D01*
X250419047Y-105378571D01*
X250395238Y-105402380D01*
X250347619Y-105426190D01*
X250228571Y-105426190D01*
X250180952Y-105402380D01*
X250157142Y-105378571D01*
D12*
X262357142Y-134352380D02*
X262452380Y-134352380D01*
X262547619Y-134400000D01*
X262595238Y-134447619D01*
X262642857Y-134542857D01*
X262690476Y-134733333D01*
X262690476Y-134971428D01*
X262642857Y-135161904D01*
X262595238Y-135257142D01*
X262547619Y-135304761D01*
X262452380Y-135352380D01*
X262357142Y-135352380D01*
X262261904Y-135304761D01*
X262214285Y-135257142D01*
X262166666Y-135161904D01*
X262119047Y-134971428D01*
X262119047Y-134733333D01*
X262166666Y-134542857D01*
X262214285Y-134447619D01*
X262261904Y-134400000D01*
X262357142Y-134352380D01*
X263119047Y-135257142D02*
X263166666Y-135304761D01*
X263119047Y-135352380D01*
X263071428Y-135304761D01*
X263119047Y-135257142D01*
X263119047Y-135352380D01*
X264119047Y-135352380D02*
X263547619Y-135352380D01*
X263833333Y-135352380D02*
X263833333Y-134352380D01*
X263738095Y-134495238D01*
X263642857Y-134590476D01*
X263547619Y-134638095D01*
X264976190Y-134685714D02*
X264976190Y-135352380D01*
X264547619Y-134685714D02*
X264547619Y-135209523D01*
X264595238Y-135304761D01*
X264690476Y-135352380D01*
X264833333Y-135352380D01*
X264928571Y-135304761D01*
X264976190Y-135257142D01*
X265785714Y-134828571D02*
X265452380Y-134828571D01*
X265452380Y-135352380D02*
X265452380Y-134352380D01*
X265928571Y-134352380D01*
D13*
X263916666Y-133428571D02*
X263892857Y-133452380D01*
X263821428Y-133476190D01*
X263773809Y-133476190D01*
X263702380Y-133452380D01*
X263654761Y-133404761D01*
X263630952Y-133357142D01*
X263607142Y-133261904D01*
X263607142Y-133190476D01*
X263630952Y-133095238D01*
X263654761Y-133047619D01*
X263702380Y-133000000D01*
X263773809Y-132976190D01*
X263821428Y-132976190D01*
X263892857Y-133000000D01*
X263916666Y-133023809D01*
X264107142Y-133023809D02*
X264130952Y-133000000D01*
X264178571Y-132976190D01*
X264297619Y-132976190D01*
X264345238Y-133000000D01*
X264369047Y-133023809D01*
X264392857Y-133071428D01*
X264392857Y-133119047D01*
X264369047Y-133190476D01*
X264083333Y-133476190D01*
X264392857Y-133476190D01*
D12*
X219052380Y-104642857D02*
X219052380Y-104547619D01*
X219100000Y-104452380D01*
X219147619Y-104404761D01*
X219242857Y-104357142D01*
X219433333Y-104309523D01*
X219671428Y-104309523D01*
X219861904Y-104357142D01*
X219957142Y-104404761D01*
X220004761Y-104452380D01*
X220052380Y-104547619D01*
X220052380Y-104642857D01*
X220004761Y-104738095D01*
X219957142Y-104785714D01*
X219861904Y-104833333D01*
X219671428Y-104880952D01*
X219433333Y-104880952D01*
X219242857Y-104833333D01*
X219147619Y-104785714D01*
X219100000Y-104738095D01*
X219052380Y-104642857D01*
X219957142Y-103880952D02*
X220004761Y-103833333D01*
X220052380Y-103880952D01*
X220004761Y-103928571D01*
X219957142Y-103880952D01*
X220052380Y-103880952D01*
X220052380Y-102880952D02*
X220052380Y-103452380D01*
X220052380Y-103166666D02*
X219052380Y-103166666D01*
X219195238Y-103261904D01*
X219290476Y-103357142D01*
X219338095Y-103452380D01*
X219385714Y-102023809D02*
X220052380Y-102023809D01*
X219385714Y-102452380D02*
X219909523Y-102452380D01*
X220004761Y-102404761D01*
X220052380Y-102309523D01*
X220052380Y-102166666D01*
X220004761Y-102071428D01*
X219957142Y-102023809D01*
X219528571Y-101214285D02*
X219528571Y-101547619D01*
X220052380Y-101547619D02*
X219052380Y-101547619D01*
X219052380Y-101071428D01*
D13*
X221428571Y-103083333D02*
X221452380Y-103107142D01*
X221476190Y-103178571D01*
X221476190Y-103226190D01*
X221452380Y-103297619D01*
X221404761Y-103345238D01*
X221357142Y-103369047D01*
X221261904Y-103392857D01*
X221190476Y-103392857D01*
X221095238Y-103369047D01*
X221047619Y-103345238D01*
X221000000Y-103297619D01*
X220976190Y-103226190D01*
X220976190Y-103178571D01*
X221000000Y-103107142D01*
X221023809Y-103083333D01*
X221476190Y-102607142D02*
X221476190Y-102892857D01*
X221476190Y-102750000D02*
X220976190Y-102750000D01*
X221047619Y-102797619D01*
X221095238Y-102845238D01*
X221119047Y-102892857D01*
M02*
