G04 #@! TF.GenerationSoftware,KiCad,Pcbnew,(5.1.4)-1*
G04 #@! TF.CreationDate,2020-03-02T21:45:15-05:00*
G04 #@! TF.ProjectId,PCB_2020,5043425f-3230-4323-902e-6b696361645f,rev?*
G04 #@! TF.SameCoordinates,Original*
G04 #@! TF.FileFunction,Other,Fab,Top*
%FSLAX46Y46*%
G04 Gerber Fmt 4.6, Leading zero omitted, Abs format (unit mm)*
G04 Created by KiCad (PCBNEW (5.1.4)-1) date 2020-03-02 21:45:15*
%MOMM*%
%LPD*%
G04 APERTURE LIST*
%ADD10C,0.100000*%
%ADD11C,0.120000*%
%ADD12C,0.150000*%
%ADD13C,0.080000*%
G04 APERTURE END LIST*
D10*
X250000000Y-119850000D02*
X248000000Y-119850000D01*
X250000000Y-118650000D02*
X250000000Y-119850000D01*
X248000000Y-118650000D02*
X250000000Y-118650000D01*
X248000000Y-119850000D02*
X248000000Y-118650000D01*
X250000000Y-115600000D02*
X248000000Y-115600000D01*
X250000000Y-114400000D02*
X250000000Y-115600000D01*
X248000000Y-114400000D02*
X250000000Y-114400000D01*
X248000000Y-115600000D02*
X248000000Y-114400000D01*
X238350000Y-102250000D02*
X238350000Y-104250000D01*
X237150000Y-102250000D02*
X238350000Y-102250000D01*
X237150000Y-104250000D02*
X237150000Y-102250000D01*
X238350000Y-104250000D02*
X237150000Y-104250000D01*
X237150000Y-108750000D02*
X237150000Y-106750000D01*
X238350000Y-108750000D02*
X237150000Y-108750000D01*
X238350000Y-106750000D02*
X238350000Y-108750000D01*
X237150000Y-106750000D02*
X238350000Y-106750000D01*
X250000000Y-124100000D02*
X248000000Y-124100000D01*
X250000000Y-122900000D02*
X250000000Y-124100000D01*
X248000000Y-122900000D02*
X250000000Y-122900000D01*
X248000000Y-124100000D02*
X248000000Y-122900000D01*
X262150000Y-141750000D02*
X262150000Y-139750000D01*
X263350000Y-141750000D02*
X262150000Y-141750000D01*
X263350000Y-139750000D02*
X263350000Y-141750000D01*
X262150000Y-139750000D02*
X263350000Y-139750000D01*
X228350000Y-137110000D02*
X229620000Y-137110000D01*
X228350000Y-140810000D02*
X229620000Y-140810000D01*
X229620000Y-143960000D02*
X229620000Y-133960000D01*
X228350000Y-133960000D02*
X228350000Y-143960000D01*
X232750000Y-133960000D02*
X228350000Y-133960000D01*
X232750000Y-143960000D02*
X232750000Y-133960000D01*
X228350000Y-143960000D02*
X232750000Y-143960000D01*
X236350000Y-137110000D02*
X237620000Y-137110000D01*
X236350000Y-140810000D02*
X237620000Y-140810000D01*
X237620000Y-143960000D02*
X237620000Y-133960000D01*
X236350000Y-133960000D02*
X236350000Y-143960000D01*
X240750000Y-133960000D02*
X236350000Y-133960000D01*
X240750000Y-143960000D02*
X240750000Y-133960000D01*
X236350000Y-143960000D02*
X240750000Y-143960000D01*
X224600000Y-121110000D02*
X225870000Y-121110000D01*
X224600000Y-124810000D02*
X225870000Y-124810000D01*
X225870000Y-127960000D02*
X225870000Y-117960000D01*
X224600000Y-117960000D02*
X224600000Y-127960000D01*
X229000000Y-117960000D02*
X224600000Y-117960000D01*
X229000000Y-127960000D02*
X229000000Y-117960000D01*
X224600000Y-127960000D02*
X229000000Y-127960000D01*
X232850000Y-121110000D02*
X234120000Y-121110000D01*
X232850000Y-124810000D02*
X234120000Y-124810000D01*
X234120000Y-127960000D02*
X234120000Y-117960000D01*
X232850000Y-117960000D02*
X232850000Y-127960000D01*
X237250000Y-117960000D02*
X232850000Y-117960000D01*
X237250000Y-127960000D02*
X237250000Y-117960000D01*
X232850000Y-127960000D02*
X237250000Y-127960000D01*
X240600000Y-120860000D02*
X241870000Y-120860000D01*
X240600000Y-124560000D02*
X241870000Y-124560000D01*
X241870000Y-127710000D02*
X241870000Y-117710000D01*
X240600000Y-117710000D02*
X240600000Y-127710000D01*
X245000000Y-117710000D02*
X240600000Y-117710000D01*
X245000000Y-127710000D02*
X245000000Y-117710000D01*
X240600000Y-127710000D02*
X245000000Y-127710000D01*
X260400000Y-140890000D02*
X259130000Y-140890000D01*
X260400000Y-137190000D02*
X259130000Y-137190000D01*
X259130000Y-134040000D02*
X259130000Y-144040000D01*
X260400000Y-144040000D02*
X260400000Y-134040000D01*
X256000000Y-144040000D02*
X260400000Y-144040000D01*
X256000000Y-134040000D02*
X256000000Y-144040000D01*
X260400000Y-134040000D02*
X256000000Y-134040000D01*
X233640000Y-98420000D02*
X223480000Y-98420000D01*
X233640000Y-108700000D02*
X233640000Y-98420000D01*
X223480000Y-108700000D02*
X233640000Y-108700000D01*
X223480000Y-98420000D02*
X223480000Y-108700000D01*
X225385000Y-99480000D02*
X226385000Y-98480000D01*
X225385000Y-108640000D02*
X225385000Y-99480000D01*
X231735000Y-108640000D02*
X225385000Y-108640000D01*
X231735000Y-98480000D02*
X231735000Y-108640000D01*
X226385000Y-98480000D02*
X231735000Y-98480000D01*
X251800000Y-84850000D02*
X251800000Y-82000000D01*
X248950000Y-84850000D02*
X251800000Y-84850000D01*
X247100000Y-75750000D02*
X250400000Y-75750000D01*
X247100000Y-78225000D02*
X247100000Y-75750000D01*
X247925000Y-79050000D02*
X247100000Y-78225000D01*
X249575000Y-79050000D02*
X247925000Y-79050000D01*
X250400000Y-78225000D02*
X249575000Y-79050000D01*
X250400000Y-75750000D02*
X250400000Y-78225000D01*
X247100000Y-83250000D02*
X250400000Y-83250000D01*
X247100000Y-79950000D02*
X247100000Y-83250000D01*
X250400000Y-79950000D02*
X247100000Y-79950000D01*
X250400000Y-83250000D02*
X250400000Y-79950000D01*
X247050000Y-73500000D02*
X247050000Y-74900000D01*
X250450000Y-73500000D02*
X247050000Y-73500000D01*
X250450000Y-74900000D02*
X250450000Y-73500000D01*
X246050000Y-84500000D02*
X251450000Y-84500000D01*
X246050000Y-74900000D02*
X246050000Y-84500000D01*
X251450000Y-74900000D02*
X246050000Y-74900000D01*
X251450000Y-84500000D02*
X251450000Y-74900000D01*
X242715000Y-90680000D02*
X244620000Y-90680000D01*
X244620000Y-90680000D02*
X244620000Y-100840000D01*
X244620000Y-100840000D02*
X242080000Y-100840000D01*
X242080000Y-100840000D02*
X242080000Y-91315000D01*
X242080000Y-91315000D02*
X242715000Y-90680000D01*
X262370000Y-88400000D02*
X262370000Y-94390000D01*
X259830000Y-94390000D02*
X259830000Y-88400000D01*
X262370000Y-94390000D02*
X259830000Y-94390000D01*
D11*
X262430000Y-88400000D02*
X259770000Y-88400000D01*
D10*
X248750000Y-135187107D02*
X248250000Y-134480000D01*
X249250000Y-134480000D02*
X248750000Y-135187107D01*
X251670000Y-144640000D02*
X251670000Y-134480000D01*
X245870000Y-144640000D02*
X251670000Y-144640000D01*
X245870000Y-134480000D02*
X245870000Y-144640000D01*
X251670000Y-134480000D02*
X245870000Y-134480000D01*
X231812893Y-77200000D02*
X232520000Y-76700000D01*
X232520000Y-77700000D02*
X231812893Y-77200000D01*
X224900000Y-80120000D02*
X232520000Y-80120000D01*
X224900000Y-74320000D02*
X224900000Y-80120000D01*
X232520000Y-74320000D02*
X224900000Y-74320000D01*
X232520000Y-80120000D02*
X232520000Y-74320000D01*
X243050000Y-84850000D02*
X243050000Y-82000000D01*
X240200000Y-84850000D02*
X243050000Y-84850000D01*
X238350000Y-75750000D02*
X241650000Y-75750000D01*
X238350000Y-78225000D02*
X238350000Y-75750000D01*
X239175000Y-79050000D02*
X238350000Y-78225000D01*
X240825000Y-79050000D02*
X239175000Y-79050000D01*
X241650000Y-78225000D02*
X240825000Y-79050000D01*
X241650000Y-75750000D02*
X241650000Y-78225000D01*
X238350000Y-83250000D02*
X241650000Y-83250000D01*
X238350000Y-79950000D02*
X238350000Y-83250000D01*
X241650000Y-79950000D02*
X238350000Y-79950000D01*
X241650000Y-83250000D02*
X241650000Y-79950000D01*
X238300000Y-73500000D02*
X238300000Y-74900000D01*
X241700000Y-73500000D02*
X238300000Y-73500000D01*
X241700000Y-74900000D02*
X241700000Y-73500000D01*
X237300000Y-84500000D02*
X242700000Y-84500000D01*
X237300000Y-74900000D02*
X237300000Y-84500000D01*
X242700000Y-74900000D02*
X237300000Y-74900000D01*
X242700000Y-84500000D02*
X242700000Y-74900000D01*
X251900000Y-130800000D02*
X254750000Y-130800000D01*
X251900000Y-127950000D02*
X251900000Y-130800000D01*
X261000000Y-113500000D02*
X261000000Y-116800000D01*
X258525000Y-113500000D02*
X261000000Y-113500000D01*
X257700000Y-114325000D02*
X258525000Y-113500000D01*
X257700000Y-115975000D02*
X257700000Y-114325000D01*
X258525000Y-116800000D02*
X257700000Y-115975000D01*
X261000000Y-116800000D02*
X258525000Y-116800000D01*
X253500000Y-113500000D02*
X253500000Y-116800000D01*
X256800000Y-113500000D02*
X253500000Y-113500000D01*
X256800000Y-116800000D02*
X256800000Y-113500000D01*
X253500000Y-116800000D02*
X256800000Y-116800000D01*
X256800000Y-117700000D02*
X256800000Y-121000000D01*
X254325000Y-117700000D02*
X256800000Y-117700000D01*
X253500000Y-118525000D02*
X254325000Y-117700000D01*
X253500000Y-120175000D02*
X253500000Y-118525000D01*
X254325000Y-121000000D02*
X253500000Y-120175000D01*
X256800000Y-121000000D02*
X254325000Y-121000000D01*
X257700000Y-117700000D02*
X257700000Y-121000000D01*
X261000000Y-117700000D02*
X257700000Y-117700000D01*
X261000000Y-121000000D02*
X261000000Y-117700000D01*
X257700000Y-121000000D02*
X261000000Y-121000000D01*
X256800000Y-121900000D02*
X256800000Y-125200000D01*
X254325000Y-121900000D02*
X256800000Y-121900000D01*
X253500000Y-122725000D02*
X254325000Y-121900000D01*
X253500000Y-124375000D02*
X253500000Y-122725000D01*
X254325000Y-125200000D02*
X253500000Y-124375000D01*
X256800000Y-125200000D02*
X254325000Y-125200000D01*
X257700000Y-121900000D02*
X257700000Y-125200000D01*
X261000000Y-121900000D02*
X257700000Y-121900000D01*
X261000000Y-125200000D02*
X261000000Y-121900000D01*
X257700000Y-125200000D02*
X261000000Y-125200000D01*
X261000000Y-126100000D02*
X261000000Y-129400000D01*
X258525000Y-126100000D02*
X261000000Y-126100000D01*
X257700000Y-126925000D02*
X258525000Y-126100000D01*
X257700000Y-128575000D02*
X257700000Y-126925000D01*
X258525000Y-129400000D02*
X257700000Y-128575000D01*
X261000000Y-129400000D02*
X258525000Y-129400000D01*
X253500000Y-126100000D02*
X253500000Y-129400000D01*
X256800000Y-126100000D02*
X253500000Y-126100000D01*
X256800000Y-129400000D02*
X256800000Y-126100000D01*
X253500000Y-129400000D02*
X256800000Y-129400000D01*
X263250000Y-119750000D02*
X261850000Y-119750000D01*
X263250000Y-123150000D02*
X263250000Y-119750000D01*
X261850000Y-123150000D02*
X263250000Y-123150000D01*
X252250000Y-112450000D02*
X252250000Y-130450000D01*
X261850000Y-112450000D02*
X252250000Y-112450000D01*
X261850000Y-130450000D02*
X261850000Y-112450000D01*
X252250000Y-130450000D02*
X261850000Y-130450000D01*
X220650000Y-107250000D02*
X220650000Y-105250000D01*
X221850000Y-107250000D02*
X220650000Y-107250000D01*
X221850000Y-105250000D02*
X221850000Y-107250000D01*
X220650000Y-105250000D02*
X221850000Y-105250000D01*
X258250000Y-131650000D02*
X260250000Y-131650000D01*
X258250000Y-132850000D02*
X258250000Y-131650000D01*
X260250000Y-132850000D02*
X258250000Y-132850000D01*
X260250000Y-131650000D02*
X260250000Y-132850000D01*
X239900000Y-106475000D02*
X239900000Y-104475000D01*
X241100000Y-106475000D02*
X239900000Y-106475000D01*
X241100000Y-104475000D02*
X241100000Y-106475000D01*
X239900000Y-104475000D02*
X241100000Y-104475000D01*
D12*
X188412380Y-118926666D02*
X188888571Y-118926666D01*
X188317142Y-119212380D02*
X188650476Y-118212380D01*
X188983809Y-119212380D01*
X189317142Y-119212380D02*
X189317142Y-118212380D01*
X189650476Y-118926666D01*
X189983809Y-118212380D01*
X189983809Y-119212380D01*
X190460000Y-119212380D02*
X190460000Y-118212380D01*
X190840952Y-118212380D01*
X190936190Y-118260000D01*
X190983809Y-118307619D01*
X191031428Y-118402857D01*
X191031428Y-118545714D01*
X190983809Y-118640952D01*
X190936190Y-118688571D01*
X190840952Y-118736190D01*
X190460000Y-118736190D01*
X191221904Y-119307619D02*
X191983809Y-119307619D01*
X192221904Y-119212380D02*
X192221904Y-118212380D01*
X192460000Y-118212380D01*
X192602857Y-118260000D01*
X192698095Y-118355238D01*
X192745714Y-118450476D01*
X192793333Y-118640952D01*
X192793333Y-118783809D01*
X192745714Y-118974285D01*
X192698095Y-119069523D01*
X192602857Y-119164761D01*
X192460000Y-119212380D01*
X192221904Y-119212380D01*
X193221904Y-118212380D02*
X193221904Y-119021904D01*
X193269523Y-119117142D01*
X193317142Y-119164761D01*
X193412380Y-119212380D01*
X193602857Y-119212380D01*
X193698095Y-119164761D01*
X193745714Y-119117142D01*
X193793333Y-119021904D01*
X193793333Y-118212380D01*
X194269523Y-118688571D02*
X194602857Y-118688571D01*
X194745714Y-119212380D02*
X194269523Y-119212380D01*
X194269523Y-118212380D01*
X194745714Y-118212380D01*
X194936190Y-119307619D02*
X195698095Y-119307619D01*
X195888571Y-119164761D02*
X196031428Y-119212380D01*
X196269523Y-119212380D01*
X196364761Y-119164761D01*
X196412380Y-119117142D01*
X196460000Y-119021904D01*
X196460000Y-118926666D01*
X196412380Y-118831428D01*
X196364761Y-118783809D01*
X196269523Y-118736190D01*
X196079047Y-118688571D01*
X195983809Y-118640952D01*
X195936190Y-118593333D01*
X195888571Y-118498095D01*
X195888571Y-118402857D01*
X195936190Y-118307619D01*
X195983809Y-118260000D01*
X196079047Y-118212380D01*
X196317142Y-118212380D01*
X196460000Y-118260000D01*
X197460000Y-119117142D02*
X197412380Y-119164761D01*
X197269523Y-119212380D01*
X197174285Y-119212380D01*
X197031428Y-119164761D01*
X196936190Y-119069523D01*
X196888571Y-118974285D01*
X196840952Y-118783809D01*
X196840952Y-118640952D01*
X196888571Y-118450476D01*
X196936190Y-118355238D01*
X197031428Y-118260000D01*
X197174285Y-118212380D01*
X197269523Y-118212380D01*
X197412380Y-118260000D01*
X197460000Y-118307619D01*
X197888571Y-119212380D02*
X197888571Y-118212380D01*
X197888571Y-118688571D02*
X198460000Y-118688571D01*
X198460000Y-119212380D02*
X198460000Y-118212380D01*
X248285714Y-120352380D02*
X247809523Y-120352380D01*
X247761904Y-120828571D01*
X247809523Y-120780952D01*
X247904761Y-120733333D01*
X248142857Y-120733333D01*
X248238095Y-120780952D01*
X248285714Y-120828571D01*
X248333333Y-120923809D01*
X248333333Y-121161904D01*
X248285714Y-121257142D01*
X248238095Y-121304761D01*
X248142857Y-121352380D01*
X247904761Y-121352380D01*
X247809523Y-121304761D01*
X247761904Y-121257142D01*
X249190476Y-120352380D02*
X249000000Y-120352380D01*
X248904761Y-120400000D01*
X248857142Y-120447619D01*
X248761904Y-120590476D01*
X248714285Y-120780952D01*
X248714285Y-121161904D01*
X248761904Y-121257142D01*
X248809523Y-121304761D01*
X248904761Y-121352380D01*
X249095238Y-121352380D01*
X249190476Y-121304761D01*
X249238095Y-121257142D01*
X249285714Y-121161904D01*
X249285714Y-120923809D01*
X249238095Y-120828571D01*
X249190476Y-120780952D01*
X249095238Y-120733333D01*
X248904761Y-120733333D01*
X248809523Y-120780952D01*
X248761904Y-120828571D01*
X248714285Y-120923809D01*
X249904761Y-120352380D02*
X250000000Y-120352380D01*
X250095238Y-120400000D01*
X250142857Y-120447619D01*
X250190476Y-120542857D01*
X250238095Y-120733333D01*
X250238095Y-120971428D01*
X250190476Y-121161904D01*
X250142857Y-121257142D01*
X250095238Y-121304761D01*
X250000000Y-121352380D01*
X249904761Y-121352380D01*
X249809523Y-121304761D01*
X249761904Y-121257142D01*
X249714285Y-121161904D01*
X249666666Y-120971428D01*
X249666666Y-120733333D01*
X249714285Y-120542857D01*
X249761904Y-120447619D01*
X249809523Y-120400000D01*
X249904761Y-120352380D01*
D13*
X248678571Y-119476190D02*
X248511904Y-119238095D01*
X248392857Y-119476190D02*
X248392857Y-118976190D01*
X248583333Y-118976190D01*
X248630952Y-119000000D01*
X248654761Y-119023809D01*
X248678571Y-119071428D01*
X248678571Y-119142857D01*
X248654761Y-119190476D01*
X248630952Y-119214285D01*
X248583333Y-119238095D01*
X248392857Y-119238095D01*
X249154761Y-119476190D02*
X248869047Y-119476190D01*
X249011904Y-119476190D02*
X249011904Y-118976190D01*
X248964285Y-119047619D01*
X248916666Y-119095238D01*
X248869047Y-119119047D01*
X249440476Y-119190476D02*
X249392857Y-119166666D01*
X249369047Y-119142857D01*
X249345238Y-119095238D01*
X249345238Y-119071428D01*
X249369047Y-119023809D01*
X249392857Y-119000000D01*
X249440476Y-118976190D01*
X249535714Y-118976190D01*
X249583333Y-119000000D01*
X249607142Y-119023809D01*
X249630952Y-119071428D01*
X249630952Y-119095238D01*
X249607142Y-119142857D01*
X249583333Y-119166666D01*
X249535714Y-119190476D01*
X249440476Y-119190476D01*
X249392857Y-119214285D01*
X249369047Y-119238095D01*
X249345238Y-119285714D01*
X249345238Y-119380952D01*
X249369047Y-119428571D01*
X249392857Y-119452380D01*
X249440476Y-119476190D01*
X249535714Y-119476190D01*
X249583333Y-119452380D01*
X249607142Y-119428571D01*
X249630952Y-119380952D01*
X249630952Y-119285714D01*
X249607142Y-119238095D01*
X249583333Y-119214285D01*
X249535714Y-119190476D01*
D12*
X248285714Y-116102380D02*
X247809523Y-116102380D01*
X247761904Y-116578571D01*
X247809523Y-116530952D01*
X247904761Y-116483333D01*
X248142857Y-116483333D01*
X248238095Y-116530952D01*
X248285714Y-116578571D01*
X248333333Y-116673809D01*
X248333333Y-116911904D01*
X248285714Y-117007142D01*
X248238095Y-117054761D01*
X248142857Y-117102380D01*
X247904761Y-117102380D01*
X247809523Y-117054761D01*
X247761904Y-117007142D01*
X249190476Y-116102380D02*
X249000000Y-116102380D01*
X248904761Y-116150000D01*
X248857142Y-116197619D01*
X248761904Y-116340476D01*
X248714285Y-116530952D01*
X248714285Y-116911904D01*
X248761904Y-117007142D01*
X248809523Y-117054761D01*
X248904761Y-117102380D01*
X249095238Y-117102380D01*
X249190476Y-117054761D01*
X249238095Y-117007142D01*
X249285714Y-116911904D01*
X249285714Y-116673809D01*
X249238095Y-116578571D01*
X249190476Y-116530952D01*
X249095238Y-116483333D01*
X248904761Y-116483333D01*
X248809523Y-116530952D01*
X248761904Y-116578571D01*
X248714285Y-116673809D01*
X249904761Y-116102380D02*
X250000000Y-116102380D01*
X250095238Y-116150000D01*
X250142857Y-116197619D01*
X250190476Y-116292857D01*
X250238095Y-116483333D01*
X250238095Y-116721428D01*
X250190476Y-116911904D01*
X250142857Y-117007142D01*
X250095238Y-117054761D01*
X250000000Y-117102380D01*
X249904761Y-117102380D01*
X249809523Y-117054761D01*
X249761904Y-117007142D01*
X249714285Y-116911904D01*
X249666666Y-116721428D01*
X249666666Y-116483333D01*
X249714285Y-116292857D01*
X249761904Y-116197619D01*
X249809523Y-116150000D01*
X249904761Y-116102380D01*
D13*
X248916666Y-115226190D02*
X248750000Y-114988095D01*
X248630952Y-115226190D02*
X248630952Y-114726190D01*
X248821428Y-114726190D01*
X248869047Y-114750000D01*
X248892857Y-114773809D01*
X248916666Y-114821428D01*
X248916666Y-114892857D01*
X248892857Y-114940476D01*
X248869047Y-114964285D01*
X248821428Y-114988095D01*
X248630952Y-114988095D01*
X249369047Y-114726190D02*
X249130952Y-114726190D01*
X249107142Y-114964285D01*
X249130952Y-114940476D01*
X249178571Y-114916666D01*
X249297619Y-114916666D01*
X249345238Y-114940476D01*
X249369047Y-114964285D01*
X249392857Y-115011904D01*
X249392857Y-115130952D01*
X249369047Y-115178571D01*
X249345238Y-115202380D01*
X249297619Y-115226190D01*
X249178571Y-115226190D01*
X249130952Y-115202380D01*
X249107142Y-115178571D01*
D12*
X238852380Y-104178571D02*
X238852380Y-104369047D01*
X238900000Y-104464285D01*
X238947619Y-104511904D01*
X239090476Y-104607142D01*
X239280952Y-104654761D01*
X239661904Y-104654761D01*
X239757142Y-104607142D01*
X239804761Y-104559523D01*
X239852380Y-104464285D01*
X239852380Y-104273809D01*
X239804761Y-104178571D01*
X239757142Y-104130952D01*
X239661904Y-104083333D01*
X239423809Y-104083333D01*
X239328571Y-104130952D01*
X239280952Y-104178571D01*
X239233333Y-104273809D01*
X239233333Y-104464285D01*
X239280952Y-104559523D01*
X239328571Y-104607142D01*
X239423809Y-104654761D01*
X239757142Y-103654761D02*
X239804761Y-103607142D01*
X239852380Y-103654761D01*
X239804761Y-103702380D01*
X239757142Y-103654761D01*
X239852380Y-103654761D01*
X239280952Y-103035714D02*
X239233333Y-103130952D01*
X239185714Y-103178571D01*
X239090476Y-103226190D01*
X239042857Y-103226190D01*
X238947619Y-103178571D01*
X238900000Y-103130952D01*
X238852380Y-103035714D01*
X238852380Y-102845238D01*
X238900000Y-102750000D01*
X238947619Y-102702380D01*
X239042857Y-102654761D01*
X239090476Y-102654761D01*
X239185714Y-102702380D01*
X239233333Y-102750000D01*
X239280952Y-102845238D01*
X239280952Y-103035714D01*
X239328571Y-103130952D01*
X239376190Y-103178571D01*
X239471428Y-103226190D01*
X239661904Y-103226190D01*
X239757142Y-103178571D01*
X239804761Y-103130952D01*
X239852380Y-103035714D01*
X239852380Y-102845238D01*
X239804761Y-102750000D01*
X239757142Y-102702380D01*
X239661904Y-102654761D01*
X239471428Y-102654761D01*
X239376190Y-102702380D01*
X239328571Y-102750000D01*
X239280952Y-102845238D01*
X239852380Y-102226190D02*
X238852380Y-102226190D01*
X239471428Y-102130952D02*
X239852380Y-101845238D01*
X239185714Y-101845238D02*
X239566666Y-102226190D01*
D13*
X237976190Y-103333333D02*
X237738095Y-103500000D01*
X237976190Y-103619047D02*
X237476190Y-103619047D01*
X237476190Y-103428571D01*
X237500000Y-103380952D01*
X237523809Y-103357142D01*
X237571428Y-103333333D01*
X237642857Y-103333333D01*
X237690476Y-103357142D01*
X237714285Y-103380952D01*
X237738095Y-103428571D01*
X237738095Y-103619047D01*
X237642857Y-102904761D02*
X237976190Y-102904761D01*
X237452380Y-103023809D02*
X237809523Y-103142857D01*
X237809523Y-102833333D01*
D12*
X235552380Y-108488095D02*
X235552380Y-107869047D01*
X235933333Y-108202380D01*
X235933333Y-108059523D01*
X235980952Y-107964285D01*
X236028571Y-107916666D01*
X236123809Y-107869047D01*
X236361904Y-107869047D01*
X236457142Y-107916666D01*
X236504761Y-107964285D01*
X236552380Y-108059523D01*
X236552380Y-108345238D01*
X236504761Y-108440476D01*
X236457142Y-108488095D01*
X236552380Y-107440476D02*
X235552380Y-107440476D01*
X236171428Y-107345238D02*
X236552380Y-107059523D01*
X235885714Y-107059523D02*
X236266666Y-107440476D01*
D13*
X237976190Y-107833333D02*
X237738095Y-108000000D01*
X237976190Y-108119047D02*
X237476190Y-108119047D01*
X237476190Y-107928571D01*
X237500000Y-107880952D01*
X237523809Y-107857142D01*
X237571428Y-107833333D01*
X237642857Y-107833333D01*
X237690476Y-107857142D01*
X237714285Y-107880952D01*
X237738095Y-107928571D01*
X237738095Y-108119047D01*
X237476190Y-107666666D02*
X237476190Y-107357142D01*
X237666666Y-107523809D01*
X237666666Y-107452380D01*
X237690476Y-107404761D01*
X237714285Y-107380952D01*
X237761904Y-107357142D01*
X237880952Y-107357142D01*
X237928571Y-107380952D01*
X237952380Y-107404761D01*
X237976190Y-107452380D01*
X237976190Y-107595238D01*
X237952380Y-107642857D01*
X237928571Y-107666666D01*
D12*
X248404761Y-125602380D02*
X247833333Y-125602380D01*
X248119047Y-125602380D02*
X248119047Y-124602380D01*
X248023809Y-124745238D01*
X247928571Y-124840476D01*
X247833333Y-124888095D01*
X249023809Y-124602380D02*
X249119047Y-124602380D01*
X249214285Y-124650000D01*
X249261904Y-124697619D01*
X249309523Y-124792857D01*
X249357142Y-124983333D01*
X249357142Y-125221428D01*
X249309523Y-125411904D01*
X249261904Y-125507142D01*
X249214285Y-125554761D01*
X249119047Y-125602380D01*
X249023809Y-125602380D01*
X248928571Y-125554761D01*
X248880952Y-125507142D01*
X248833333Y-125411904D01*
X248785714Y-125221428D01*
X248785714Y-124983333D01*
X248833333Y-124792857D01*
X248880952Y-124697619D01*
X248928571Y-124650000D01*
X249023809Y-124602380D01*
X249785714Y-125602380D02*
X249785714Y-124602380D01*
X249880952Y-125221428D02*
X250166666Y-125602380D01*
X250166666Y-124935714D02*
X249785714Y-125316666D01*
D13*
X248916666Y-123726190D02*
X248750000Y-123488095D01*
X248630952Y-123726190D02*
X248630952Y-123226190D01*
X248821428Y-123226190D01*
X248869047Y-123250000D01*
X248892857Y-123273809D01*
X248916666Y-123321428D01*
X248916666Y-123392857D01*
X248892857Y-123440476D01*
X248869047Y-123464285D01*
X248821428Y-123488095D01*
X248630952Y-123488095D01*
X249107142Y-123273809D02*
X249130952Y-123250000D01*
X249178571Y-123226190D01*
X249297619Y-123226190D01*
X249345238Y-123250000D01*
X249369047Y-123273809D01*
X249392857Y-123321428D01*
X249392857Y-123369047D01*
X249369047Y-123440476D01*
X249083333Y-123726190D01*
X249392857Y-123726190D01*
D12*
X261552380Y-141345238D02*
X261552380Y-141916666D01*
X261552380Y-141630952D02*
X260552380Y-141630952D01*
X260695238Y-141726190D01*
X260790476Y-141821428D01*
X260838095Y-141916666D01*
X260552380Y-140726190D02*
X260552380Y-140630952D01*
X260600000Y-140535714D01*
X260647619Y-140488095D01*
X260742857Y-140440476D01*
X260933333Y-140392857D01*
X261171428Y-140392857D01*
X261361904Y-140440476D01*
X261457142Y-140488095D01*
X261504761Y-140535714D01*
X261552380Y-140630952D01*
X261552380Y-140726190D01*
X261504761Y-140821428D01*
X261457142Y-140869047D01*
X261361904Y-140916666D01*
X261171428Y-140964285D01*
X260933333Y-140964285D01*
X260742857Y-140916666D01*
X260647619Y-140869047D01*
X260600000Y-140821428D01*
X260552380Y-140726190D01*
X261552380Y-139964285D02*
X260552380Y-139964285D01*
X261171428Y-139869047D02*
X261552380Y-139583333D01*
X260885714Y-139583333D02*
X261266666Y-139964285D01*
D13*
X262976190Y-140833333D02*
X262738095Y-141000000D01*
X262976190Y-141119047D02*
X262476190Y-141119047D01*
X262476190Y-140928571D01*
X262500000Y-140880952D01*
X262523809Y-140857142D01*
X262571428Y-140833333D01*
X262642857Y-140833333D01*
X262690476Y-140857142D01*
X262714285Y-140880952D01*
X262738095Y-140928571D01*
X262738095Y-141119047D01*
X262976190Y-140357142D02*
X262976190Y-140642857D01*
X262976190Y-140500000D02*
X262476190Y-140500000D01*
X262547619Y-140547619D01*
X262595238Y-140595238D01*
X262619047Y-140642857D01*
D12*
X234452380Y-141960000D02*
X234452380Y-142531428D01*
X234452380Y-142245714D02*
X233452380Y-142245714D01*
X233595238Y-142340952D01*
X233690476Y-142436190D01*
X233738095Y-142531428D01*
X233452380Y-141340952D02*
X233452380Y-141245714D01*
X233500000Y-141150476D01*
X233547619Y-141102857D01*
X233642857Y-141055238D01*
X233833333Y-141007619D01*
X234071428Y-141007619D01*
X234261904Y-141055238D01*
X234357142Y-141102857D01*
X234404761Y-141150476D01*
X234452380Y-141245714D01*
X234452380Y-141340952D01*
X234404761Y-141436190D01*
X234357142Y-141483809D01*
X234261904Y-141531428D01*
X234071428Y-141579047D01*
X233833333Y-141579047D01*
X233642857Y-141531428D01*
X233547619Y-141483809D01*
X233500000Y-141436190D01*
X233452380Y-141340952D01*
X233452380Y-140388571D02*
X233452380Y-140293333D01*
X233500000Y-140198095D01*
X233547619Y-140150476D01*
X233642857Y-140102857D01*
X233833333Y-140055238D01*
X234071428Y-140055238D01*
X234261904Y-140102857D01*
X234357142Y-140150476D01*
X234404761Y-140198095D01*
X234452380Y-140293333D01*
X234452380Y-140388571D01*
X234404761Y-140483809D01*
X234357142Y-140531428D01*
X234261904Y-140579047D01*
X234071428Y-140626666D01*
X233833333Y-140626666D01*
X233642857Y-140579047D01*
X233547619Y-140531428D01*
X233500000Y-140483809D01*
X233452380Y-140388571D01*
X233452380Y-139769523D02*
X234452380Y-139436190D01*
X233452380Y-139102857D01*
X233404761Y-138055238D02*
X234690476Y-138912380D01*
X234452380Y-137198095D02*
X234452380Y-137769523D01*
X234452380Y-137483809D02*
X233452380Y-137483809D01*
X233595238Y-137579047D01*
X233690476Y-137674285D01*
X233738095Y-137769523D01*
X233452380Y-136864761D02*
X233452380Y-136198095D01*
X234452380Y-136626666D01*
X234166666Y-135864761D02*
X234166666Y-135388571D01*
X234452380Y-135960000D02*
X233452380Y-135626666D01*
X234452380Y-135293333D01*
X227777619Y-139055238D02*
X227730000Y-139150476D01*
X227634761Y-139245714D01*
X227491904Y-139388571D01*
X227444285Y-139483809D01*
X227444285Y-139579047D01*
X227682380Y-139531428D02*
X227634761Y-139626666D01*
X227539523Y-139721904D01*
X227349047Y-139769523D01*
X227015714Y-139769523D01*
X226825238Y-139721904D01*
X226730000Y-139626666D01*
X226682380Y-139531428D01*
X226682380Y-139340952D01*
X226730000Y-139245714D01*
X226825238Y-139150476D01*
X227015714Y-139102857D01*
X227349047Y-139102857D01*
X227539523Y-139150476D01*
X227634761Y-139245714D01*
X227682380Y-139340952D01*
X227682380Y-139531428D01*
X226682380Y-138245714D02*
X226682380Y-138436190D01*
X226730000Y-138531428D01*
X226777619Y-138579047D01*
X226920476Y-138674285D01*
X227110952Y-138721904D01*
X227491904Y-138721904D01*
X227587142Y-138674285D01*
X227634761Y-138626666D01*
X227682380Y-138531428D01*
X227682380Y-138340952D01*
X227634761Y-138245714D01*
X227587142Y-138198095D01*
X227491904Y-138150476D01*
X227253809Y-138150476D01*
X227158571Y-138198095D01*
X227110952Y-138245714D01*
X227063333Y-138340952D01*
X227063333Y-138531428D01*
X227110952Y-138626666D01*
X227158571Y-138674285D01*
X227253809Y-138721904D01*
X242452380Y-141960000D02*
X242452380Y-142531428D01*
X242452380Y-142245714D02*
X241452380Y-142245714D01*
X241595238Y-142340952D01*
X241690476Y-142436190D01*
X241738095Y-142531428D01*
X241452380Y-141340952D02*
X241452380Y-141245714D01*
X241500000Y-141150476D01*
X241547619Y-141102857D01*
X241642857Y-141055238D01*
X241833333Y-141007619D01*
X242071428Y-141007619D01*
X242261904Y-141055238D01*
X242357142Y-141102857D01*
X242404761Y-141150476D01*
X242452380Y-141245714D01*
X242452380Y-141340952D01*
X242404761Y-141436190D01*
X242357142Y-141483809D01*
X242261904Y-141531428D01*
X242071428Y-141579047D01*
X241833333Y-141579047D01*
X241642857Y-141531428D01*
X241547619Y-141483809D01*
X241500000Y-141436190D01*
X241452380Y-141340952D01*
X241452380Y-140388571D02*
X241452380Y-140293333D01*
X241500000Y-140198095D01*
X241547619Y-140150476D01*
X241642857Y-140102857D01*
X241833333Y-140055238D01*
X242071428Y-140055238D01*
X242261904Y-140102857D01*
X242357142Y-140150476D01*
X242404761Y-140198095D01*
X242452380Y-140293333D01*
X242452380Y-140388571D01*
X242404761Y-140483809D01*
X242357142Y-140531428D01*
X242261904Y-140579047D01*
X242071428Y-140626666D01*
X241833333Y-140626666D01*
X241642857Y-140579047D01*
X241547619Y-140531428D01*
X241500000Y-140483809D01*
X241452380Y-140388571D01*
X241452380Y-139769523D02*
X242452380Y-139436190D01*
X241452380Y-139102857D01*
X241404761Y-138055238D02*
X242690476Y-138912380D01*
X242452380Y-137198095D02*
X242452380Y-137769523D01*
X242452380Y-137483809D02*
X241452380Y-137483809D01*
X241595238Y-137579047D01*
X241690476Y-137674285D01*
X241738095Y-137769523D01*
X241452380Y-136864761D02*
X241452380Y-136198095D01*
X242452380Y-136626666D01*
X242166666Y-135864761D02*
X242166666Y-135388571D01*
X242452380Y-135960000D02*
X241452380Y-135626666D01*
X242452380Y-135293333D01*
X235777619Y-139055238D02*
X235730000Y-139150476D01*
X235634761Y-139245714D01*
X235491904Y-139388571D01*
X235444285Y-139483809D01*
X235444285Y-139579047D01*
X235682380Y-139531428D02*
X235634761Y-139626666D01*
X235539523Y-139721904D01*
X235349047Y-139769523D01*
X235015714Y-139769523D01*
X234825238Y-139721904D01*
X234730000Y-139626666D01*
X234682380Y-139531428D01*
X234682380Y-139340952D01*
X234730000Y-139245714D01*
X234825238Y-139150476D01*
X235015714Y-139102857D01*
X235349047Y-139102857D01*
X235539523Y-139150476D01*
X235634761Y-139245714D01*
X235682380Y-139340952D01*
X235682380Y-139531428D01*
X234682380Y-138198095D02*
X234682380Y-138674285D01*
X235158571Y-138721904D01*
X235110952Y-138674285D01*
X235063333Y-138579047D01*
X235063333Y-138340952D01*
X235110952Y-138245714D01*
X235158571Y-138198095D01*
X235253809Y-138150476D01*
X235491904Y-138150476D01*
X235587142Y-138198095D01*
X235634761Y-138245714D01*
X235682380Y-138340952D01*
X235682380Y-138579047D01*
X235634761Y-138674285D01*
X235587142Y-138721904D01*
X230702380Y-125960000D02*
X230702380Y-126531428D01*
X230702380Y-126245714D02*
X229702380Y-126245714D01*
X229845238Y-126340952D01*
X229940476Y-126436190D01*
X229988095Y-126531428D01*
X229702380Y-125340952D02*
X229702380Y-125245714D01*
X229750000Y-125150476D01*
X229797619Y-125102857D01*
X229892857Y-125055238D01*
X230083333Y-125007619D01*
X230321428Y-125007619D01*
X230511904Y-125055238D01*
X230607142Y-125102857D01*
X230654761Y-125150476D01*
X230702380Y-125245714D01*
X230702380Y-125340952D01*
X230654761Y-125436190D01*
X230607142Y-125483809D01*
X230511904Y-125531428D01*
X230321428Y-125579047D01*
X230083333Y-125579047D01*
X229892857Y-125531428D01*
X229797619Y-125483809D01*
X229750000Y-125436190D01*
X229702380Y-125340952D01*
X229702380Y-124388571D02*
X229702380Y-124293333D01*
X229750000Y-124198095D01*
X229797619Y-124150476D01*
X229892857Y-124102857D01*
X230083333Y-124055238D01*
X230321428Y-124055238D01*
X230511904Y-124102857D01*
X230607142Y-124150476D01*
X230654761Y-124198095D01*
X230702380Y-124293333D01*
X230702380Y-124388571D01*
X230654761Y-124483809D01*
X230607142Y-124531428D01*
X230511904Y-124579047D01*
X230321428Y-124626666D01*
X230083333Y-124626666D01*
X229892857Y-124579047D01*
X229797619Y-124531428D01*
X229750000Y-124483809D01*
X229702380Y-124388571D01*
X229702380Y-123769523D02*
X230702380Y-123436190D01*
X229702380Y-123102857D01*
X229654761Y-122055238D02*
X230940476Y-122912380D01*
X230702380Y-121198095D02*
X230702380Y-121769523D01*
X230702380Y-121483809D02*
X229702380Y-121483809D01*
X229845238Y-121579047D01*
X229940476Y-121674285D01*
X229988095Y-121769523D01*
X229702380Y-120864761D02*
X229702380Y-120198095D01*
X230702380Y-120626666D01*
X230416666Y-119864761D02*
X230416666Y-119388571D01*
X230702380Y-119960000D02*
X229702380Y-119626666D01*
X230702380Y-119293333D01*
X224027619Y-123055238D02*
X223980000Y-123150476D01*
X223884761Y-123245714D01*
X223741904Y-123388571D01*
X223694285Y-123483809D01*
X223694285Y-123579047D01*
X223932380Y-123531428D02*
X223884761Y-123626666D01*
X223789523Y-123721904D01*
X223599047Y-123769523D01*
X223265714Y-123769523D01*
X223075238Y-123721904D01*
X222980000Y-123626666D01*
X222932380Y-123531428D01*
X222932380Y-123340952D01*
X222980000Y-123245714D01*
X223075238Y-123150476D01*
X223265714Y-123102857D01*
X223599047Y-123102857D01*
X223789523Y-123150476D01*
X223884761Y-123245714D01*
X223932380Y-123340952D01*
X223932380Y-123531428D01*
X223265714Y-122245714D02*
X223932380Y-122245714D01*
X222884761Y-122483809D02*
X223599047Y-122721904D01*
X223599047Y-122102857D01*
X238952380Y-125960000D02*
X238952380Y-126531428D01*
X238952380Y-126245714D02*
X237952380Y-126245714D01*
X238095238Y-126340952D01*
X238190476Y-126436190D01*
X238238095Y-126531428D01*
X237952380Y-125340952D02*
X237952380Y-125245714D01*
X238000000Y-125150476D01*
X238047619Y-125102857D01*
X238142857Y-125055238D01*
X238333333Y-125007619D01*
X238571428Y-125007619D01*
X238761904Y-125055238D01*
X238857142Y-125102857D01*
X238904761Y-125150476D01*
X238952380Y-125245714D01*
X238952380Y-125340952D01*
X238904761Y-125436190D01*
X238857142Y-125483809D01*
X238761904Y-125531428D01*
X238571428Y-125579047D01*
X238333333Y-125579047D01*
X238142857Y-125531428D01*
X238047619Y-125483809D01*
X238000000Y-125436190D01*
X237952380Y-125340952D01*
X237952380Y-124388571D02*
X237952380Y-124293333D01*
X238000000Y-124198095D01*
X238047619Y-124150476D01*
X238142857Y-124102857D01*
X238333333Y-124055238D01*
X238571428Y-124055238D01*
X238761904Y-124102857D01*
X238857142Y-124150476D01*
X238904761Y-124198095D01*
X238952380Y-124293333D01*
X238952380Y-124388571D01*
X238904761Y-124483809D01*
X238857142Y-124531428D01*
X238761904Y-124579047D01*
X238571428Y-124626666D01*
X238333333Y-124626666D01*
X238142857Y-124579047D01*
X238047619Y-124531428D01*
X238000000Y-124483809D01*
X237952380Y-124388571D01*
X237952380Y-123769523D02*
X238952380Y-123436190D01*
X237952380Y-123102857D01*
X237904761Y-122055238D02*
X239190476Y-122912380D01*
X238952380Y-121198095D02*
X238952380Y-121769523D01*
X238952380Y-121483809D02*
X237952380Y-121483809D01*
X238095238Y-121579047D01*
X238190476Y-121674285D01*
X238238095Y-121769523D01*
X237952380Y-120864761D02*
X237952380Y-120198095D01*
X238952380Y-120626666D01*
X238666666Y-119864761D02*
X238666666Y-119388571D01*
X238952380Y-119960000D02*
X237952380Y-119626666D01*
X238952380Y-119293333D01*
X232277619Y-123055238D02*
X232230000Y-123150476D01*
X232134761Y-123245714D01*
X231991904Y-123388571D01*
X231944285Y-123483809D01*
X231944285Y-123579047D01*
X232182380Y-123531428D02*
X232134761Y-123626666D01*
X232039523Y-123721904D01*
X231849047Y-123769523D01*
X231515714Y-123769523D01*
X231325238Y-123721904D01*
X231230000Y-123626666D01*
X231182380Y-123531428D01*
X231182380Y-123340952D01*
X231230000Y-123245714D01*
X231325238Y-123150476D01*
X231515714Y-123102857D01*
X231849047Y-123102857D01*
X232039523Y-123150476D01*
X232134761Y-123245714D01*
X232182380Y-123340952D01*
X232182380Y-123531428D01*
X231182380Y-122769523D02*
X231182380Y-122150476D01*
X231563333Y-122483809D01*
X231563333Y-122340952D01*
X231610952Y-122245714D01*
X231658571Y-122198095D01*
X231753809Y-122150476D01*
X231991904Y-122150476D01*
X232087142Y-122198095D01*
X232134761Y-122245714D01*
X232182380Y-122340952D01*
X232182380Y-122626666D01*
X232134761Y-122721904D01*
X232087142Y-122769523D01*
X246702380Y-125710000D02*
X246702380Y-126281428D01*
X246702380Y-125995714D02*
X245702380Y-125995714D01*
X245845238Y-126090952D01*
X245940476Y-126186190D01*
X245988095Y-126281428D01*
X245702380Y-125090952D02*
X245702380Y-124995714D01*
X245750000Y-124900476D01*
X245797619Y-124852857D01*
X245892857Y-124805238D01*
X246083333Y-124757619D01*
X246321428Y-124757619D01*
X246511904Y-124805238D01*
X246607142Y-124852857D01*
X246654761Y-124900476D01*
X246702380Y-124995714D01*
X246702380Y-125090952D01*
X246654761Y-125186190D01*
X246607142Y-125233809D01*
X246511904Y-125281428D01*
X246321428Y-125329047D01*
X246083333Y-125329047D01*
X245892857Y-125281428D01*
X245797619Y-125233809D01*
X245750000Y-125186190D01*
X245702380Y-125090952D01*
X245702380Y-124138571D02*
X245702380Y-124043333D01*
X245750000Y-123948095D01*
X245797619Y-123900476D01*
X245892857Y-123852857D01*
X246083333Y-123805238D01*
X246321428Y-123805238D01*
X246511904Y-123852857D01*
X246607142Y-123900476D01*
X246654761Y-123948095D01*
X246702380Y-124043333D01*
X246702380Y-124138571D01*
X246654761Y-124233809D01*
X246607142Y-124281428D01*
X246511904Y-124329047D01*
X246321428Y-124376666D01*
X246083333Y-124376666D01*
X245892857Y-124329047D01*
X245797619Y-124281428D01*
X245750000Y-124233809D01*
X245702380Y-124138571D01*
X245702380Y-123519523D02*
X246702380Y-123186190D01*
X245702380Y-122852857D01*
X245654761Y-121805238D02*
X246940476Y-122662380D01*
X246702380Y-120948095D02*
X246702380Y-121519523D01*
X246702380Y-121233809D02*
X245702380Y-121233809D01*
X245845238Y-121329047D01*
X245940476Y-121424285D01*
X245988095Y-121519523D01*
X245702380Y-120614761D02*
X245702380Y-119948095D01*
X246702380Y-120376666D01*
X246416666Y-119614761D02*
X246416666Y-119138571D01*
X246702380Y-119710000D02*
X245702380Y-119376666D01*
X246702380Y-119043333D01*
X240027619Y-122805238D02*
X239980000Y-122900476D01*
X239884761Y-122995714D01*
X239741904Y-123138571D01*
X239694285Y-123233809D01*
X239694285Y-123329047D01*
X239932380Y-123281428D02*
X239884761Y-123376666D01*
X239789523Y-123471904D01*
X239599047Y-123519523D01*
X239265714Y-123519523D01*
X239075238Y-123471904D01*
X238980000Y-123376666D01*
X238932380Y-123281428D01*
X238932380Y-123090952D01*
X238980000Y-122995714D01*
X239075238Y-122900476D01*
X239265714Y-122852857D01*
X239599047Y-122852857D01*
X239789523Y-122900476D01*
X239884761Y-122995714D01*
X239932380Y-123090952D01*
X239932380Y-123281428D01*
X239027619Y-122471904D02*
X238980000Y-122424285D01*
X238932380Y-122329047D01*
X238932380Y-122090952D01*
X238980000Y-121995714D01*
X239027619Y-121948095D01*
X239122857Y-121900476D01*
X239218095Y-121900476D01*
X239360952Y-121948095D01*
X239932380Y-122519523D01*
X239932380Y-121900476D01*
X255202380Y-142040000D02*
X255202380Y-142611428D01*
X255202380Y-142325714D02*
X254202380Y-142325714D01*
X254345238Y-142420952D01*
X254440476Y-142516190D01*
X254488095Y-142611428D01*
X254202380Y-141420952D02*
X254202380Y-141325714D01*
X254250000Y-141230476D01*
X254297619Y-141182857D01*
X254392857Y-141135238D01*
X254583333Y-141087619D01*
X254821428Y-141087619D01*
X255011904Y-141135238D01*
X255107142Y-141182857D01*
X255154761Y-141230476D01*
X255202380Y-141325714D01*
X255202380Y-141420952D01*
X255154761Y-141516190D01*
X255107142Y-141563809D01*
X255011904Y-141611428D01*
X254821428Y-141659047D01*
X254583333Y-141659047D01*
X254392857Y-141611428D01*
X254297619Y-141563809D01*
X254250000Y-141516190D01*
X254202380Y-141420952D01*
X254202380Y-140468571D02*
X254202380Y-140373333D01*
X254250000Y-140278095D01*
X254297619Y-140230476D01*
X254392857Y-140182857D01*
X254583333Y-140135238D01*
X254821428Y-140135238D01*
X255011904Y-140182857D01*
X255107142Y-140230476D01*
X255154761Y-140278095D01*
X255202380Y-140373333D01*
X255202380Y-140468571D01*
X255154761Y-140563809D01*
X255107142Y-140611428D01*
X255011904Y-140659047D01*
X254821428Y-140706666D01*
X254583333Y-140706666D01*
X254392857Y-140659047D01*
X254297619Y-140611428D01*
X254250000Y-140563809D01*
X254202380Y-140468571D01*
X254202380Y-139849523D02*
X255202380Y-139516190D01*
X254202380Y-139182857D01*
X254154761Y-138135238D02*
X255440476Y-138992380D01*
X255202380Y-137278095D02*
X255202380Y-137849523D01*
X255202380Y-137563809D02*
X254202380Y-137563809D01*
X254345238Y-137659047D01*
X254440476Y-137754285D01*
X254488095Y-137849523D01*
X254202380Y-136944761D02*
X254202380Y-136278095D01*
X255202380Y-136706666D01*
X254916666Y-135944761D02*
X254916666Y-135468571D01*
X255202380Y-136040000D02*
X254202380Y-135706666D01*
X255202380Y-135373333D01*
X262067619Y-139135238D02*
X262020000Y-139230476D01*
X261924761Y-139325714D01*
X261781904Y-139468571D01*
X261734285Y-139563809D01*
X261734285Y-139659047D01*
X261972380Y-139611428D02*
X261924761Y-139706666D01*
X261829523Y-139801904D01*
X261639047Y-139849523D01*
X261305714Y-139849523D01*
X261115238Y-139801904D01*
X261020000Y-139706666D01*
X260972380Y-139611428D01*
X260972380Y-139420952D01*
X261020000Y-139325714D01*
X261115238Y-139230476D01*
X261305714Y-139182857D01*
X261639047Y-139182857D01*
X261829523Y-139230476D01*
X261924761Y-139325714D01*
X261972380Y-139420952D01*
X261972380Y-139611428D01*
X261972380Y-138230476D02*
X261972380Y-138801904D01*
X261972380Y-138516190D02*
X260972380Y-138516190D01*
X261115238Y-138611428D01*
X261210476Y-138706666D01*
X261258095Y-138801904D01*
X227583809Y-97872380D02*
X227583809Y-96872380D01*
X228631428Y-97777142D02*
X228583809Y-97824761D01*
X228440952Y-97872380D01*
X228345714Y-97872380D01*
X228202857Y-97824761D01*
X228107619Y-97729523D01*
X228060000Y-97634285D01*
X228012380Y-97443809D01*
X228012380Y-97300952D01*
X228060000Y-97110476D01*
X228107619Y-97015238D01*
X228202857Y-96920000D01*
X228345714Y-96872380D01*
X228440952Y-96872380D01*
X228583809Y-96920000D01*
X228631428Y-96967619D01*
X229583809Y-97872380D02*
X229012380Y-97872380D01*
X229298095Y-97872380D02*
X229298095Y-96872380D01*
X229202857Y-97015238D01*
X229107619Y-97110476D01*
X229012380Y-97158095D01*
X227583809Y-104012380D02*
X227583809Y-103012380D01*
X228631428Y-103917142D02*
X228583809Y-103964761D01*
X228440952Y-104012380D01*
X228345714Y-104012380D01*
X228202857Y-103964761D01*
X228107619Y-103869523D01*
X228060000Y-103774285D01*
X228012380Y-103583809D01*
X228012380Y-103440952D01*
X228060000Y-103250476D01*
X228107619Y-103155238D01*
X228202857Y-103060000D01*
X228345714Y-103012380D01*
X228440952Y-103012380D01*
X228583809Y-103060000D01*
X228631428Y-103107619D01*
X229583809Y-104012380D02*
X229012380Y-104012380D01*
X229298095Y-104012380D02*
X229298095Y-103012380D01*
X229202857Y-103155238D01*
X229107619Y-103250476D01*
X229012380Y-103298095D01*
X157214285Y-80152380D02*
X157214285Y-79152380D01*
X157547619Y-79866666D01*
X157880952Y-79152380D01*
X157880952Y-80152380D01*
X158500000Y-80152380D02*
X158404761Y-80104761D01*
X158357142Y-80057142D01*
X158309523Y-79961904D01*
X158309523Y-79676190D01*
X158357142Y-79580952D01*
X158404761Y-79533333D01*
X158500000Y-79485714D01*
X158642857Y-79485714D01*
X158738095Y-79533333D01*
X158785714Y-79580952D01*
X158833333Y-79676190D01*
X158833333Y-79961904D01*
X158785714Y-80057142D01*
X158738095Y-80104761D01*
X158642857Y-80152380D01*
X158500000Y-80152380D01*
X159690476Y-79485714D02*
X159690476Y-80152380D01*
X159261904Y-79485714D02*
X159261904Y-80009523D01*
X159309523Y-80104761D01*
X159404761Y-80152380D01*
X159547619Y-80152380D01*
X159642857Y-80104761D01*
X159690476Y-80057142D01*
X160166666Y-79485714D02*
X160166666Y-80152380D01*
X160166666Y-79580952D02*
X160214285Y-79533333D01*
X160309523Y-79485714D01*
X160452380Y-79485714D01*
X160547619Y-79533333D01*
X160595238Y-79628571D01*
X160595238Y-80152380D01*
X160928571Y-79485714D02*
X161309523Y-79485714D01*
X161071428Y-79152380D02*
X161071428Y-80009523D01*
X161119047Y-80104761D01*
X161214285Y-80152380D01*
X161309523Y-80152380D01*
X161642857Y-80152380D02*
X161642857Y-79485714D01*
X161642857Y-79152380D02*
X161595238Y-79200000D01*
X161642857Y-79247619D01*
X161690476Y-79200000D01*
X161642857Y-79152380D01*
X161642857Y-79247619D01*
X162119047Y-79485714D02*
X162119047Y-80152380D01*
X162119047Y-79580952D02*
X162166666Y-79533333D01*
X162261904Y-79485714D01*
X162404761Y-79485714D01*
X162500000Y-79533333D01*
X162547619Y-79628571D01*
X162547619Y-80152380D01*
X163452380Y-79485714D02*
X163452380Y-80295238D01*
X163404761Y-80390476D01*
X163357142Y-80438095D01*
X163261904Y-80485714D01*
X163119047Y-80485714D01*
X163023809Y-80438095D01*
X163452380Y-80104761D02*
X163357142Y-80152380D01*
X163166666Y-80152380D01*
X163071428Y-80104761D01*
X163023809Y-80057142D01*
X162976190Y-79961904D01*
X162976190Y-79676190D01*
X163023809Y-79580952D01*
X163071428Y-79533333D01*
X163166666Y-79485714D01*
X163357142Y-79485714D01*
X163452380Y-79533333D01*
X163928571Y-80152380D02*
X163928571Y-79152380D01*
X163928571Y-79628571D02*
X164500000Y-79628571D01*
X164500000Y-80152380D02*
X164500000Y-79152380D01*
X165119047Y-80152380D02*
X165023809Y-80104761D01*
X164976190Y-80057142D01*
X164928571Y-79961904D01*
X164928571Y-79676190D01*
X164976190Y-79580952D01*
X165023809Y-79533333D01*
X165119047Y-79485714D01*
X165261904Y-79485714D01*
X165357142Y-79533333D01*
X165404761Y-79580952D01*
X165452380Y-79676190D01*
X165452380Y-79961904D01*
X165404761Y-80057142D01*
X165357142Y-80104761D01*
X165261904Y-80152380D01*
X165119047Y-80152380D01*
X166023809Y-80152380D02*
X165928571Y-80104761D01*
X165880952Y-80009523D01*
X165880952Y-79152380D01*
X166785714Y-80104761D02*
X166690476Y-80152380D01*
X166500000Y-80152380D01*
X166404761Y-80104761D01*
X166357142Y-80009523D01*
X166357142Y-79628571D01*
X166404761Y-79533333D01*
X166500000Y-79485714D01*
X166690476Y-79485714D01*
X166785714Y-79533333D01*
X166833333Y-79628571D01*
X166833333Y-79723809D01*
X166357142Y-79819047D01*
X161538095Y-76452380D02*
X161538095Y-75452380D01*
X161538095Y-75928571D02*
X162109523Y-75928571D01*
X162109523Y-76452380D02*
X162109523Y-75452380D01*
X163014285Y-75785714D02*
X163014285Y-76452380D01*
X162776190Y-75404761D02*
X162538095Y-76119047D01*
X163157142Y-76119047D01*
X251214285Y-80152380D02*
X251214285Y-79152380D01*
X251547619Y-79866666D01*
X251880952Y-79152380D01*
X251880952Y-80152380D01*
X252500000Y-80152380D02*
X252404761Y-80104761D01*
X252357142Y-80057142D01*
X252309523Y-79961904D01*
X252309523Y-79676190D01*
X252357142Y-79580952D01*
X252404761Y-79533333D01*
X252500000Y-79485714D01*
X252642857Y-79485714D01*
X252738095Y-79533333D01*
X252785714Y-79580952D01*
X252833333Y-79676190D01*
X252833333Y-79961904D01*
X252785714Y-80057142D01*
X252738095Y-80104761D01*
X252642857Y-80152380D01*
X252500000Y-80152380D01*
X253690476Y-79485714D02*
X253690476Y-80152380D01*
X253261904Y-79485714D02*
X253261904Y-80009523D01*
X253309523Y-80104761D01*
X253404761Y-80152380D01*
X253547619Y-80152380D01*
X253642857Y-80104761D01*
X253690476Y-80057142D01*
X254166666Y-79485714D02*
X254166666Y-80152380D01*
X254166666Y-79580952D02*
X254214285Y-79533333D01*
X254309523Y-79485714D01*
X254452380Y-79485714D01*
X254547619Y-79533333D01*
X254595238Y-79628571D01*
X254595238Y-80152380D01*
X254928571Y-79485714D02*
X255309523Y-79485714D01*
X255071428Y-79152380D02*
X255071428Y-80009523D01*
X255119047Y-80104761D01*
X255214285Y-80152380D01*
X255309523Y-80152380D01*
X255642857Y-80152380D02*
X255642857Y-79485714D01*
X255642857Y-79152380D02*
X255595238Y-79200000D01*
X255642857Y-79247619D01*
X255690476Y-79200000D01*
X255642857Y-79152380D01*
X255642857Y-79247619D01*
X256119047Y-79485714D02*
X256119047Y-80152380D01*
X256119047Y-79580952D02*
X256166666Y-79533333D01*
X256261904Y-79485714D01*
X256404761Y-79485714D01*
X256500000Y-79533333D01*
X256547619Y-79628571D01*
X256547619Y-80152380D01*
X257452380Y-79485714D02*
X257452380Y-80295238D01*
X257404761Y-80390476D01*
X257357142Y-80438095D01*
X257261904Y-80485714D01*
X257119047Y-80485714D01*
X257023809Y-80438095D01*
X257452380Y-80104761D02*
X257357142Y-80152380D01*
X257166666Y-80152380D01*
X257071428Y-80104761D01*
X257023809Y-80057142D01*
X256976190Y-79961904D01*
X256976190Y-79676190D01*
X257023809Y-79580952D01*
X257071428Y-79533333D01*
X257166666Y-79485714D01*
X257357142Y-79485714D01*
X257452380Y-79533333D01*
X257928571Y-80152380D02*
X257928571Y-79152380D01*
X257928571Y-79628571D02*
X258500000Y-79628571D01*
X258500000Y-80152380D02*
X258500000Y-79152380D01*
X259119047Y-80152380D02*
X259023809Y-80104761D01*
X258976190Y-80057142D01*
X258928571Y-79961904D01*
X258928571Y-79676190D01*
X258976190Y-79580952D01*
X259023809Y-79533333D01*
X259119047Y-79485714D01*
X259261904Y-79485714D01*
X259357142Y-79533333D01*
X259404761Y-79580952D01*
X259452380Y-79676190D01*
X259452380Y-79961904D01*
X259404761Y-80057142D01*
X259357142Y-80104761D01*
X259261904Y-80152380D01*
X259119047Y-80152380D01*
X260023809Y-80152380D02*
X259928571Y-80104761D01*
X259880952Y-80009523D01*
X259880952Y-79152380D01*
X260785714Y-80104761D02*
X260690476Y-80152380D01*
X260500000Y-80152380D01*
X260404761Y-80104761D01*
X260357142Y-80009523D01*
X260357142Y-79628571D01*
X260404761Y-79533333D01*
X260500000Y-79485714D01*
X260690476Y-79485714D01*
X260785714Y-79533333D01*
X260833333Y-79628571D01*
X260833333Y-79723809D01*
X260357142Y-79819047D01*
X255538095Y-76452380D02*
X255538095Y-75452380D01*
X255538095Y-75928571D02*
X256109523Y-75928571D01*
X256109523Y-76452380D02*
X256109523Y-75452380D01*
X256490476Y-75452380D02*
X257109523Y-75452380D01*
X256776190Y-75833333D01*
X256919047Y-75833333D01*
X257014285Y-75880952D01*
X257061904Y-75928571D01*
X257109523Y-76023809D01*
X257109523Y-76261904D01*
X257061904Y-76357142D01*
X257014285Y-76404761D01*
X256919047Y-76452380D01*
X256633333Y-76452380D01*
X256538095Y-76404761D01*
X256490476Y-76357142D01*
X157214285Y-157152380D02*
X157214285Y-156152380D01*
X157547619Y-156866666D01*
X157880952Y-156152380D01*
X157880952Y-157152380D01*
X158500000Y-157152380D02*
X158404761Y-157104761D01*
X158357142Y-157057142D01*
X158309523Y-156961904D01*
X158309523Y-156676190D01*
X158357142Y-156580952D01*
X158404761Y-156533333D01*
X158500000Y-156485714D01*
X158642857Y-156485714D01*
X158738095Y-156533333D01*
X158785714Y-156580952D01*
X158833333Y-156676190D01*
X158833333Y-156961904D01*
X158785714Y-157057142D01*
X158738095Y-157104761D01*
X158642857Y-157152380D01*
X158500000Y-157152380D01*
X159690476Y-156485714D02*
X159690476Y-157152380D01*
X159261904Y-156485714D02*
X159261904Y-157009523D01*
X159309523Y-157104761D01*
X159404761Y-157152380D01*
X159547619Y-157152380D01*
X159642857Y-157104761D01*
X159690476Y-157057142D01*
X160166666Y-156485714D02*
X160166666Y-157152380D01*
X160166666Y-156580952D02*
X160214285Y-156533333D01*
X160309523Y-156485714D01*
X160452380Y-156485714D01*
X160547619Y-156533333D01*
X160595238Y-156628571D01*
X160595238Y-157152380D01*
X160928571Y-156485714D02*
X161309523Y-156485714D01*
X161071428Y-156152380D02*
X161071428Y-157009523D01*
X161119047Y-157104761D01*
X161214285Y-157152380D01*
X161309523Y-157152380D01*
X161642857Y-157152380D02*
X161642857Y-156485714D01*
X161642857Y-156152380D02*
X161595238Y-156200000D01*
X161642857Y-156247619D01*
X161690476Y-156200000D01*
X161642857Y-156152380D01*
X161642857Y-156247619D01*
X162119047Y-156485714D02*
X162119047Y-157152380D01*
X162119047Y-156580952D02*
X162166666Y-156533333D01*
X162261904Y-156485714D01*
X162404761Y-156485714D01*
X162500000Y-156533333D01*
X162547619Y-156628571D01*
X162547619Y-157152380D01*
X163452380Y-156485714D02*
X163452380Y-157295238D01*
X163404761Y-157390476D01*
X163357142Y-157438095D01*
X163261904Y-157485714D01*
X163119047Y-157485714D01*
X163023809Y-157438095D01*
X163452380Y-157104761D02*
X163357142Y-157152380D01*
X163166666Y-157152380D01*
X163071428Y-157104761D01*
X163023809Y-157057142D01*
X162976190Y-156961904D01*
X162976190Y-156676190D01*
X163023809Y-156580952D01*
X163071428Y-156533333D01*
X163166666Y-156485714D01*
X163357142Y-156485714D01*
X163452380Y-156533333D01*
X163928571Y-157152380D02*
X163928571Y-156152380D01*
X163928571Y-156628571D02*
X164500000Y-156628571D01*
X164500000Y-157152380D02*
X164500000Y-156152380D01*
X165119047Y-157152380D02*
X165023809Y-157104761D01*
X164976190Y-157057142D01*
X164928571Y-156961904D01*
X164928571Y-156676190D01*
X164976190Y-156580952D01*
X165023809Y-156533333D01*
X165119047Y-156485714D01*
X165261904Y-156485714D01*
X165357142Y-156533333D01*
X165404761Y-156580952D01*
X165452380Y-156676190D01*
X165452380Y-156961904D01*
X165404761Y-157057142D01*
X165357142Y-157104761D01*
X165261904Y-157152380D01*
X165119047Y-157152380D01*
X166023809Y-157152380D02*
X165928571Y-157104761D01*
X165880952Y-157009523D01*
X165880952Y-156152380D01*
X166785714Y-157104761D02*
X166690476Y-157152380D01*
X166500000Y-157152380D01*
X166404761Y-157104761D01*
X166357142Y-157009523D01*
X166357142Y-156628571D01*
X166404761Y-156533333D01*
X166500000Y-156485714D01*
X166690476Y-156485714D01*
X166785714Y-156533333D01*
X166833333Y-156628571D01*
X166833333Y-156723809D01*
X166357142Y-156819047D01*
X161538095Y-153452380D02*
X161538095Y-152452380D01*
X161538095Y-152928571D02*
X162109523Y-152928571D01*
X162109523Y-153452380D02*
X162109523Y-152452380D01*
X162538095Y-152547619D02*
X162585714Y-152500000D01*
X162680952Y-152452380D01*
X162919047Y-152452380D01*
X163014285Y-152500000D01*
X163061904Y-152547619D01*
X163109523Y-152642857D01*
X163109523Y-152738095D01*
X163061904Y-152880952D01*
X162490476Y-153452380D01*
X163109523Y-153452380D01*
X251214285Y-157152380D02*
X251214285Y-156152380D01*
X251547619Y-156866666D01*
X251880952Y-156152380D01*
X251880952Y-157152380D01*
X252500000Y-157152380D02*
X252404761Y-157104761D01*
X252357142Y-157057142D01*
X252309523Y-156961904D01*
X252309523Y-156676190D01*
X252357142Y-156580952D01*
X252404761Y-156533333D01*
X252500000Y-156485714D01*
X252642857Y-156485714D01*
X252738095Y-156533333D01*
X252785714Y-156580952D01*
X252833333Y-156676190D01*
X252833333Y-156961904D01*
X252785714Y-157057142D01*
X252738095Y-157104761D01*
X252642857Y-157152380D01*
X252500000Y-157152380D01*
X253690476Y-156485714D02*
X253690476Y-157152380D01*
X253261904Y-156485714D02*
X253261904Y-157009523D01*
X253309523Y-157104761D01*
X253404761Y-157152380D01*
X253547619Y-157152380D01*
X253642857Y-157104761D01*
X253690476Y-157057142D01*
X254166666Y-156485714D02*
X254166666Y-157152380D01*
X254166666Y-156580952D02*
X254214285Y-156533333D01*
X254309523Y-156485714D01*
X254452380Y-156485714D01*
X254547619Y-156533333D01*
X254595238Y-156628571D01*
X254595238Y-157152380D01*
X254928571Y-156485714D02*
X255309523Y-156485714D01*
X255071428Y-156152380D02*
X255071428Y-157009523D01*
X255119047Y-157104761D01*
X255214285Y-157152380D01*
X255309523Y-157152380D01*
X255642857Y-157152380D02*
X255642857Y-156485714D01*
X255642857Y-156152380D02*
X255595238Y-156200000D01*
X255642857Y-156247619D01*
X255690476Y-156200000D01*
X255642857Y-156152380D01*
X255642857Y-156247619D01*
X256119047Y-156485714D02*
X256119047Y-157152380D01*
X256119047Y-156580952D02*
X256166666Y-156533333D01*
X256261904Y-156485714D01*
X256404761Y-156485714D01*
X256500000Y-156533333D01*
X256547619Y-156628571D01*
X256547619Y-157152380D01*
X257452380Y-156485714D02*
X257452380Y-157295238D01*
X257404761Y-157390476D01*
X257357142Y-157438095D01*
X257261904Y-157485714D01*
X257119047Y-157485714D01*
X257023809Y-157438095D01*
X257452380Y-157104761D02*
X257357142Y-157152380D01*
X257166666Y-157152380D01*
X257071428Y-157104761D01*
X257023809Y-157057142D01*
X256976190Y-156961904D01*
X256976190Y-156676190D01*
X257023809Y-156580952D01*
X257071428Y-156533333D01*
X257166666Y-156485714D01*
X257357142Y-156485714D01*
X257452380Y-156533333D01*
X257928571Y-157152380D02*
X257928571Y-156152380D01*
X257928571Y-156628571D02*
X258500000Y-156628571D01*
X258500000Y-157152380D02*
X258500000Y-156152380D01*
X259119047Y-157152380D02*
X259023809Y-157104761D01*
X258976190Y-157057142D01*
X258928571Y-156961904D01*
X258928571Y-156676190D01*
X258976190Y-156580952D01*
X259023809Y-156533333D01*
X259119047Y-156485714D01*
X259261904Y-156485714D01*
X259357142Y-156533333D01*
X259404761Y-156580952D01*
X259452380Y-156676190D01*
X259452380Y-156961904D01*
X259404761Y-157057142D01*
X259357142Y-157104761D01*
X259261904Y-157152380D01*
X259119047Y-157152380D01*
X260023809Y-157152380D02*
X259928571Y-157104761D01*
X259880952Y-157009523D01*
X259880952Y-156152380D01*
X260785714Y-157104761D02*
X260690476Y-157152380D01*
X260500000Y-157152380D01*
X260404761Y-157104761D01*
X260357142Y-157009523D01*
X260357142Y-156628571D01*
X260404761Y-156533333D01*
X260500000Y-156485714D01*
X260690476Y-156485714D01*
X260785714Y-156533333D01*
X260833333Y-156628571D01*
X260833333Y-156723809D01*
X260357142Y-156819047D01*
X255538095Y-153452380D02*
X255538095Y-152452380D01*
X255538095Y-152928571D02*
X256109523Y-152928571D01*
X256109523Y-153452380D02*
X256109523Y-152452380D01*
X257109523Y-153452380D02*
X256538095Y-153452380D01*
X256823809Y-153452380D02*
X256823809Y-152452380D01*
X256728571Y-152595238D01*
X256633333Y-152690476D01*
X256538095Y-152738095D01*
X247011904Y-86057142D02*
X246964285Y-86104761D01*
X246821428Y-86152380D01*
X246726190Y-86152380D01*
X246583333Y-86104761D01*
X246488095Y-86009523D01*
X246440476Y-85914285D01*
X246392857Y-85723809D01*
X246392857Y-85580952D01*
X246440476Y-85390476D01*
X246488095Y-85295238D01*
X246583333Y-85200000D01*
X246726190Y-85152380D01*
X246821428Y-85152380D01*
X246964285Y-85200000D01*
X247011904Y-85247619D01*
X247630952Y-85152380D02*
X247821428Y-85152380D01*
X247916666Y-85200000D01*
X248011904Y-85295238D01*
X248059523Y-85485714D01*
X248059523Y-85819047D01*
X248011904Y-86009523D01*
X247916666Y-86104761D01*
X247821428Y-86152380D01*
X247630952Y-86152380D01*
X247535714Y-86104761D01*
X247440476Y-86009523D01*
X247392857Y-85819047D01*
X247392857Y-85485714D01*
X247440476Y-85295238D01*
X247535714Y-85200000D01*
X247630952Y-85152380D01*
X248488095Y-86152380D02*
X248488095Y-85152380D01*
X249059523Y-86152380D01*
X249059523Y-85152380D01*
X249535714Y-86152380D02*
X249535714Y-85152380D01*
X250107142Y-86152380D01*
X250107142Y-85152380D01*
X250488095Y-85152380D02*
X251154761Y-85152380D01*
X250726190Y-86152380D01*
X247011904Y-84157142D02*
X246964285Y-84204761D01*
X246821428Y-84252380D01*
X246726190Y-84252380D01*
X246583333Y-84204761D01*
X246488095Y-84109523D01*
X246440476Y-84014285D01*
X246392857Y-83823809D01*
X246392857Y-83680952D01*
X246440476Y-83490476D01*
X246488095Y-83395238D01*
X246583333Y-83300000D01*
X246726190Y-83252380D01*
X246821428Y-83252380D01*
X246964285Y-83300000D01*
X247011904Y-83347619D01*
X247630952Y-83252380D02*
X247821428Y-83252380D01*
X247916666Y-83300000D01*
X248011904Y-83395238D01*
X248059523Y-83585714D01*
X248059523Y-83919047D01*
X248011904Y-84109523D01*
X247916666Y-84204761D01*
X247821428Y-84252380D01*
X247630952Y-84252380D01*
X247535714Y-84204761D01*
X247440476Y-84109523D01*
X247392857Y-83919047D01*
X247392857Y-83585714D01*
X247440476Y-83395238D01*
X247535714Y-83300000D01*
X247630952Y-83252380D01*
X248488095Y-84252380D02*
X248488095Y-83252380D01*
X249059523Y-84252380D01*
X249059523Y-83252380D01*
X249535714Y-84252380D02*
X249535714Y-83252380D01*
X250107142Y-84252380D01*
X250107142Y-83252380D01*
X250488095Y-83252380D02*
X251154761Y-83252380D01*
X250726190Y-84252380D01*
X240507142Y-98238095D02*
X240554761Y-98285714D01*
X240602380Y-98428571D01*
X240602380Y-98523809D01*
X240554761Y-98666666D01*
X240459523Y-98761904D01*
X240364285Y-98809523D01*
X240173809Y-98857142D01*
X240030952Y-98857142D01*
X239840476Y-98809523D01*
X239745238Y-98761904D01*
X239650000Y-98666666D01*
X239602380Y-98523809D01*
X239602380Y-98428571D01*
X239650000Y-98285714D01*
X239697619Y-98238095D01*
X239602380Y-97619047D02*
X239602380Y-97428571D01*
X239650000Y-97333333D01*
X239745238Y-97238095D01*
X239935714Y-97190476D01*
X240269047Y-97190476D01*
X240459523Y-97238095D01*
X240554761Y-97333333D01*
X240602380Y-97428571D01*
X240602380Y-97619047D01*
X240554761Y-97714285D01*
X240459523Y-97809523D01*
X240269047Y-97857142D01*
X239935714Y-97857142D01*
X239745238Y-97809523D01*
X239650000Y-97714285D01*
X239602380Y-97619047D01*
X240602380Y-96761904D02*
X239602380Y-96761904D01*
X240602380Y-96190476D01*
X239602380Y-96190476D01*
X240602380Y-95714285D02*
X239602380Y-95714285D01*
X240602380Y-95142857D01*
X239602380Y-95142857D01*
X239602380Y-94238095D02*
X239602380Y-94428571D01*
X239650000Y-94523809D01*
X239697619Y-94571428D01*
X239840476Y-94666666D01*
X240030952Y-94714285D01*
X240411904Y-94714285D01*
X240507142Y-94666666D01*
X240554761Y-94619047D01*
X240602380Y-94523809D01*
X240602380Y-94333333D01*
X240554761Y-94238095D01*
X240507142Y-94190476D01*
X240411904Y-94142857D01*
X240173809Y-94142857D01*
X240078571Y-94190476D01*
X240030952Y-94238095D01*
X239983333Y-94333333D01*
X239983333Y-94523809D01*
X240030952Y-94619047D01*
X240078571Y-94666666D01*
X240173809Y-94714285D01*
X253227142Y-141298095D02*
X253274761Y-141345714D01*
X253322380Y-141488571D01*
X253322380Y-141583809D01*
X253274761Y-141726666D01*
X253179523Y-141821904D01*
X253084285Y-141869523D01*
X252893809Y-141917142D01*
X252750952Y-141917142D01*
X252560476Y-141869523D01*
X252465238Y-141821904D01*
X252370000Y-141726666D01*
X252322380Y-141583809D01*
X252322380Y-141488571D01*
X252370000Y-141345714D01*
X252417619Y-141298095D01*
X252322380Y-140679047D02*
X252322380Y-140488571D01*
X252370000Y-140393333D01*
X252465238Y-140298095D01*
X252655714Y-140250476D01*
X252989047Y-140250476D01*
X253179523Y-140298095D01*
X253274761Y-140393333D01*
X253322380Y-140488571D01*
X253322380Y-140679047D01*
X253274761Y-140774285D01*
X253179523Y-140869523D01*
X252989047Y-140917142D01*
X252655714Y-140917142D01*
X252465238Y-140869523D01*
X252370000Y-140774285D01*
X252322380Y-140679047D01*
X253322380Y-139821904D02*
X252322380Y-139821904D01*
X253322380Y-139250476D01*
X252322380Y-139250476D01*
X253322380Y-138774285D02*
X252322380Y-138774285D01*
X253322380Y-138202857D01*
X252322380Y-138202857D01*
X252322380Y-137250476D02*
X252322380Y-137726666D01*
X252798571Y-137774285D01*
X252750952Y-137726666D01*
X252703333Y-137631428D01*
X252703333Y-137393333D01*
X252750952Y-137298095D01*
X252798571Y-137250476D01*
X252893809Y-137202857D01*
X253131904Y-137202857D01*
X253227142Y-137250476D01*
X253274761Y-137298095D01*
X253322380Y-137393333D01*
X253322380Y-137631428D01*
X253274761Y-137726666D01*
X253227142Y-137774285D01*
X251327142Y-141298095D02*
X251374761Y-141345714D01*
X251422380Y-141488571D01*
X251422380Y-141583809D01*
X251374761Y-141726666D01*
X251279523Y-141821904D01*
X251184285Y-141869523D01*
X250993809Y-141917142D01*
X250850952Y-141917142D01*
X250660476Y-141869523D01*
X250565238Y-141821904D01*
X250470000Y-141726666D01*
X250422380Y-141583809D01*
X250422380Y-141488571D01*
X250470000Y-141345714D01*
X250517619Y-141298095D01*
X250422380Y-140679047D02*
X250422380Y-140488571D01*
X250470000Y-140393333D01*
X250565238Y-140298095D01*
X250755714Y-140250476D01*
X251089047Y-140250476D01*
X251279523Y-140298095D01*
X251374761Y-140393333D01*
X251422380Y-140488571D01*
X251422380Y-140679047D01*
X251374761Y-140774285D01*
X251279523Y-140869523D01*
X251089047Y-140917142D01*
X250755714Y-140917142D01*
X250565238Y-140869523D01*
X250470000Y-140774285D01*
X250422380Y-140679047D01*
X251422380Y-139821904D02*
X250422380Y-139821904D01*
X251422380Y-139250476D01*
X250422380Y-139250476D01*
X251422380Y-138774285D02*
X250422380Y-138774285D01*
X251422380Y-138202857D01*
X250422380Y-138202857D01*
X250422380Y-137250476D02*
X250422380Y-137726666D01*
X250898571Y-137774285D01*
X250850952Y-137726666D01*
X250803333Y-137631428D01*
X250803333Y-137393333D01*
X250850952Y-137298095D01*
X250898571Y-137250476D01*
X250993809Y-137202857D01*
X251231904Y-137202857D01*
X251327142Y-137250476D01*
X251374761Y-137298095D01*
X251422380Y-137393333D01*
X251422380Y-137631428D01*
X251374761Y-137726666D01*
X251327142Y-137774285D01*
X226971904Y-81677142D02*
X226924285Y-81724761D01*
X226781428Y-81772380D01*
X226686190Y-81772380D01*
X226543333Y-81724761D01*
X226448095Y-81629523D01*
X226400476Y-81534285D01*
X226352857Y-81343809D01*
X226352857Y-81200952D01*
X226400476Y-81010476D01*
X226448095Y-80915238D01*
X226543333Y-80820000D01*
X226686190Y-80772380D01*
X226781428Y-80772380D01*
X226924285Y-80820000D01*
X226971904Y-80867619D01*
X227590952Y-80772380D02*
X227781428Y-80772380D01*
X227876666Y-80820000D01*
X227971904Y-80915238D01*
X228019523Y-81105714D01*
X228019523Y-81439047D01*
X227971904Y-81629523D01*
X227876666Y-81724761D01*
X227781428Y-81772380D01*
X227590952Y-81772380D01*
X227495714Y-81724761D01*
X227400476Y-81629523D01*
X227352857Y-81439047D01*
X227352857Y-81105714D01*
X227400476Y-80915238D01*
X227495714Y-80820000D01*
X227590952Y-80772380D01*
X228448095Y-81772380D02*
X228448095Y-80772380D01*
X229019523Y-81772380D01*
X229019523Y-80772380D01*
X229495714Y-81772380D02*
X229495714Y-80772380D01*
X230067142Y-81772380D01*
X230067142Y-80772380D01*
X230971904Y-81105714D02*
X230971904Y-81772380D01*
X230733809Y-80724761D02*
X230495714Y-81439047D01*
X231114761Y-81439047D01*
X226971904Y-79777142D02*
X226924285Y-79824761D01*
X226781428Y-79872380D01*
X226686190Y-79872380D01*
X226543333Y-79824761D01*
X226448095Y-79729523D01*
X226400476Y-79634285D01*
X226352857Y-79443809D01*
X226352857Y-79300952D01*
X226400476Y-79110476D01*
X226448095Y-79015238D01*
X226543333Y-78920000D01*
X226686190Y-78872380D01*
X226781428Y-78872380D01*
X226924285Y-78920000D01*
X226971904Y-78967619D01*
X227590952Y-78872380D02*
X227781428Y-78872380D01*
X227876666Y-78920000D01*
X227971904Y-79015238D01*
X228019523Y-79205714D01*
X228019523Y-79539047D01*
X227971904Y-79729523D01*
X227876666Y-79824761D01*
X227781428Y-79872380D01*
X227590952Y-79872380D01*
X227495714Y-79824761D01*
X227400476Y-79729523D01*
X227352857Y-79539047D01*
X227352857Y-79205714D01*
X227400476Y-79015238D01*
X227495714Y-78920000D01*
X227590952Y-78872380D01*
X228448095Y-79872380D02*
X228448095Y-78872380D01*
X229019523Y-79872380D01*
X229019523Y-78872380D01*
X229495714Y-79872380D02*
X229495714Y-78872380D01*
X230067142Y-79872380D01*
X230067142Y-78872380D01*
X230971904Y-79205714D02*
X230971904Y-79872380D01*
X230733809Y-78824761D02*
X230495714Y-79539047D01*
X231114761Y-79539047D01*
X238261904Y-86057142D02*
X238214285Y-86104761D01*
X238071428Y-86152380D01*
X237976190Y-86152380D01*
X237833333Y-86104761D01*
X237738095Y-86009523D01*
X237690476Y-85914285D01*
X237642857Y-85723809D01*
X237642857Y-85580952D01*
X237690476Y-85390476D01*
X237738095Y-85295238D01*
X237833333Y-85200000D01*
X237976190Y-85152380D01*
X238071428Y-85152380D01*
X238214285Y-85200000D01*
X238261904Y-85247619D01*
X238880952Y-85152380D02*
X239071428Y-85152380D01*
X239166666Y-85200000D01*
X239261904Y-85295238D01*
X239309523Y-85485714D01*
X239309523Y-85819047D01*
X239261904Y-86009523D01*
X239166666Y-86104761D01*
X239071428Y-86152380D01*
X238880952Y-86152380D01*
X238785714Y-86104761D01*
X238690476Y-86009523D01*
X238642857Y-85819047D01*
X238642857Y-85485714D01*
X238690476Y-85295238D01*
X238785714Y-85200000D01*
X238880952Y-85152380D01*
X239738095Y-86152380D02*
X239738095Y-85152380D01*
X240309523Y-86152380D01*
X240309523Y-85152380D01*
X240785714Y-86152380D02*
X240785714Y-85152380D01*
X241357142Y-86152380D01*
X241357142Y-85152380D01*
X241738095Y-85152380D02*
X242357142Y-85152380D01*
X242023809Y-85533333D01*
X242166666Y-85533333D01*
X242261904Y-85580952D01*
X242309523Y-85628571D01*
X242357142Y-85723809D01*
X242357142Y-85961904D01*
X242309523Y-86057142D01*
X242261904Y-86104761D01*
X242166666Y-86152380D01*
X241880952Y-86152380D01*
X241785714Y-86104761D01*
X241738095Y-86057142D01*
X238261904Y-84157142D02*
X238214285Y-84204761D01*
X238071428Y-84252380D01*
X237976190Y-84252380D01*
X237833333Y-84204761D01*
X237738095Y-84109523D01*
X237690476Y-84014285D01*
X237642857Y-83823809D01*
X237642857Y-83680952D01*
X237690476Y-83490476D01*
X237738095Y-83395238D01*
X237833333Y-83300000D01*
X237976190Y-83252380D01*
X238071428Y-83252380D01*
X238214285Y-83300000D01*
X238261904Y-83347619D01*
X238880952Y-83252380D02*
X239071428Y-83252380D01*
X239166666Y-83300000D01*
X239261904Y-83395238D01*
X239309523Y-83585714D01*
X239309523Y-83919047D01*
X239261904Y-84109523D01*
X239166666Y-84204761D01*
X239071428Y-84252380D01*
X238880952Y-84252380D01*
X238785714Y-84204761D01*
X238690476Y-84109523D01*
X238642857Y-83919047D01*
X238642857Y-83585714D01*
X238690476Y-83395238D01*
X238785714Y-83300000D01*
X238880952Y-83252380D01*
X239738095Y-84252380D02*
X239738095Y-83252380D01*
X240309523Y-84252380D01*
X240309523Y-83252380D01*
X240785714Y-84252380D02*
X240785714Y-83252380D01*
X241357142Y-84252380D01*
X241357142Y-83252380D01*
X241738095Y-83252380D02*
X242357142Y-83252380D01*
X242023809Y-83633333D01*
X242166666Y-83633333D01*
X242261904Y-83680952D01*
X242309523Y-83728571D01*
X242357142Y-83823809D01*
X242357142Y-84061904D01*
X242309523Y-84157142D01*
X242261904Y-84204761D01*
X242166666Y-84252380D01*
X241880952Y-84252380D01*
X241785714Y-84204761D01*
X241738095Y-84157142D01*
X251407142Y-123188095D02*
X251454761Y-123235714D01*
X251502380Y-123378571D01*
X251502380Y-123473809D01*
X251454761Y-123616666D01*
X251359523Y-123711904D01*
X251264285Y-123759523D01*
X251073809Y-123807142D01*
X250930952Y-123807142D01*
X250740476Y-123759523D01*
X250645238Y-123711904D01*
X250550000Y-123616666D01*
X250502380Y-123473809D01*
X250502380Y-123378571D01*
X250550000Y-123235714D01*
X250597619Y-123188095D01*
X250502380Y-122569047D02*
X250502380Y-122378571D01*
X250550000Y-122283333D01*
X250645238Y-122188095D01*
X250835714Y-122140476D01*
X251169047Y-122140476D01*
X251359523Y-122188095D01*
X251454761Y-122283333D01*
X251502380Y-122378571D01*
X251502380Y-122569047D01*
X251454761Y-122664285D01*
X251359523Y-122759523D01*
X251169047Y-122807142D01*
X250835714Y-122807142D01*
X250645238Y-122759523D01*
X250550000Y-122664285D01*
X250502380Y-122569047D01*
X251502380Y-121711904D02*
X250502380Y-121711904D01*
X251502380Y-121140476D01*
X250502380Y-121140476D01*
X251502380Y-120664285D02*
X250502380Y-120664285D01*
X251502380Y-120092857D01*
X250502380Y-120092857D01*
X250597619Y-119664285D02*
X250550000Y-119616666D01*
X250502380Y-119521428D01*
X250502380Y-119283333D01*
X250550000Y-119188095D01*
X250597619Y-119140476D01*
X250692857Y-119092857D01*
X250788095Y-119092857D01*
X250930952Y-119140476D01*
X251502380Y-119711904D01*
X251502380Y-119092857D01*
X253307142Y-123188095D02*
X253354761Y-123235714D01*
X253402380Y-123378571D01*
X253402380Y-123473809D01*
X253354761Y-123616666D01*
X253259523Y-123711904D01*
X253164285Y-123759523D01*
X252973809Y-123807142D01*
X252830952Y-123807142D01*
X252640476Y-123759523D01*
X252545238Y-123711904D01*
X252450000Y-123616666D01*
X252402380Y-123473809D01*
X252402380Y-123378571D01*
X252450000Y-123235714D01*
X252497619Y-123188095D01*
X252402380Y-122569047D02*
X252402380Y-122378571D01*
X252450000Y-122283333D01*
X252545238Y-122188095D01*
X252735714Y-122140476D01*
X253069047Y-122140476D01*
X253259523Y-122188095D01*
X253354761Y-122283333D01*
X253402380Y-122378571D01*
X253402380Y-122569047D01*
X253354761Y-122664285D01*
X253259523Y-122759523D01*
X253069047Y-122807142D01*
X252735714Y-122807142D01*
X252545238Y-122759523D01*
X252450000Y-122664285D01*
X252402380Y-122569047D01*
X253402380Y-121711904D02*
X252402380Y-121711904D01*
X253402380Y-121140476D01*
X252402380Y-121140476D01*
X253402380Y-120664285D02*
X252402380Y-120664285D01*
X253402380Y-120092857D01*
X252402380Y-120092857D01*
X252497619Y-119664285D02*
X252450000Y-119616666D01*
X252402380Y-119521428D01*
X252402380Y-119283333D01*
X252450000Y-119188095D01*
X252497619Y-119140476D01*
X252592857Y-119092857D01*
X252688095Y-119092857D01*
X252830952Y-119140476D01*
X253402380Y-119711904D01*
X253402380Y-119092857D01*
X219052380Y-107892857D02*
X219052380Y-107797619D01*
X219100000Y-107702380D01*
X219147619Y-107654761D01*
X219242857Y-107607142D01*
X219433333Y-107559523D01*
X219671428Y-107559523D01*
X219861904Y-107607142D01*
X219957142Y-107654761D01*
X220004761Y-107702380D01*
X220052380Y-107797619D01*
X220052380Y-107892857D01*
X220004761Y-107988095D01*
X219957142Y-108035714D01*
X219861904Y-108083333D01*
X219671428Y-108130952D01*
X219433333Y-108130952D01*
X219242857Y-108083333D01*
X219147619Y-108035714D01*
X219100000Y-107988095D01*
X219052380Y-107892857D01*
X219957142Y-107130952D02*
X220004761Y-107083333D01*
X220052380Y-107130952D01*
X220004761Y-107178571D01*
X219957142Y-107130952D01*
X220052380Y-107130952D01*
X220052380Y-106130952D02*
X220052380Y-106702380D01*
X220052380Y-106416666D02*
X219052380Y-106416666D01*
X219195238Y-106511904D01*
X219290476Y-106607142D01*
X219338095Y-106702380D01*
X219385714Y-105273809D02*
X220052380Y-105273809D01*
X219385714Y-105702380D02*
X219909523Y-105702380D01*
X220004761Y-105654761D01*
X220052380Y-105559523D01*
X220052380Y-105416666D01*
X220004761Y-105321428D01*
X219957142Y-105273809D01*
X219528571Y-104464285D02*
X219528571Y-104797619D01*
X220052380Y-104797619D02*
X219052380Y-104797619D01*
X219052380Y-104321428D01*
D13*
X221428571Y-106333333D02*
X221452380Y-106357142D01*
X221476190Y-106428571D01*
X221476190Y-106476190D01*
X221452380Y-106547619D01*
X221404761Y-106595238D01*
X221357142Y-106619047D01*
X221261904Y-106642857D01*
X221190476Y-106642857D01*
X221095238Y-106619047D01*
X221047619Y-106595238D01*
X221000000Y-106547619D01*
X220976190Y-106476190D01*
X220976190Y-106428571D01*
X221000000Y-106357142D01*
X221023809Y-106333333D01*
X220976190Y-105880952D02*
X220976190Y-106119047D01*
X221214285Y-106142857D01*
X221190476Y-106119047D01*
X221166666Y-106071428D01*
X221166666Y-105952380D01*
X221190476Y-105904761D01*
X221214285Y-105880952D01*
X221261904Y-105857142D01*
X221380952Y-105857142D01*
X221428571Y-105880952D01*
X221452380Y-105904761D01*
X221476190Y-105952380D01*
X221476190Y-106071428D01*
X221452380Y-106119047D01*
X221428571Y-106142857D01*
D12*
X257607142Y-130052380D02*
X257702380Y-130052380D01*
X257797619Y-130100000D01*
X257845238Y-130147619D01*
X257892857Y-130242857D01*
X257940476Y-130433333D01*
X257940476Y-130671428D01*
X257892857Y-130861904D01*
X257845238Y-130957142D01*
X257797619Y-131004761D01*
X257702380Y-131052380D01*
X257607142Y-131052380D01*
X257511904Y-131004761D01*
X257464285Y-130957142D01*
X257416666Y-130861904D01*
X257369047Y-130671428D01*
X257369047Y-130433333D01*
X257416666Y-130242857D01*
X257464285Y-130147619D01*
X257511904Y-130100000D01*
X257607142Y-130052380D01*
X258369047Y-130957142D02*
X258416666Y-131004761D01*
X258369047Y-131052380D01*
X258321428Y-131004761D01*
X258369047Y-130957142D01*
X258369047Y-131052380D01*
X259369047Y-131052380D02*
X258797619Y-131052380D01*
X259083333Y-131052380D02*
X259083333Y-130052380D01*
X258988095Y-130195238D01*
X258892857Y-130290476D01*
X258797619Y-130338095D01*
X260226190Y-130385714D02*
X260226190Y-131052380D01*
X259797619Y-130385714D02*
X259797619Y-130909523D01*
X259845238Y-131004761D01*
X259940476Y-131052380D01*
X260083333Y-131052380D01*
X260178571Y-131004761D01*
X260226190Y-130957142D01*
X261035714Y-130528571D02*
X260702380Y-130528571D01*
X260702380Y-131052380D02*
X260702380Y-130052380D01*
X261178571Y-130052380D01*
D13*
X259166666Y-132428571D02*
X259142857Y-132452380D01*
X259071428Y-132476190D01*
X259023809Y-132476190D01*
X258952380Y-132452380D01*
X258904761Y-132404761D01*
X258880952Y-132357142D01*
X258857142Y-132261904D01*
X258857142Y-132190476D01*
X258880952Y-132095238D01*
X258904761Y-132047619D01*
X258952380Y-132000000D01*
X259023809Y-131976190D01*
X259071428Y-131976190D01*
X259142857Y-132000000D01*
X259166666Y-132023809D01*
X259357142Y-132023809D02*
X259380952Y-132000000D01*
X259428571Y-131976190D01*
X259547619Y-131976190D01*
X259595238Y-132000000D01*
X259619047Y-132023809D01*
X259642857Y-132071428D01*
X259642857Y-132119047D01*
X259619047Y-132190476D01*
X259333333Y-132476190D01*
X259642857Y-132476190D01*
D12*
X238302380Y-107117857D02*
X238302380Y-107022619D01*
X238350000Y-106927380D01*
X238397619Y-106879761D01*
X238492857Y-106832142D01*
X238683333Y-106784523D01*
X238921428Y-106784523D01*
X239111904Y-106832142D01*
X239207142Y-106879761D01*
X239254761Y-106927380D01*
X239302380Y-107022619D01*
X239302380Y-107117857D01*
X239254761Y-107213095D01*
X239207142Y-107260714D01*
X239111904Y-107308333D01*
X238921428Y-107355952D01*
X238683333Y-107355952D01*
X238492857Y-107308333D01*
X238397619Y-107260714D01*
X238350000Y-107213095D01*
X238302380Y-107117857D01*
X239207142Y-106355952D02*
X239254761Y-106308333D01*
X239302380Y-106355952D01*
X239254761Y-106403571D01*
X239207142Y-106355952D01*
X239302380Y-106355952D01*
X239302380Y-105355952D02*
X239302380Y-105927380D01*
X239302380Y-105641666D02*
X238302380Y-105641666D01*
X238445238Y-105736904D01*
X238540476Y-105832142D01*
X238588095Y-105927380D01*
X238635714Y-104498809D02*
X239302380Y-104498809D01*
X238635714Y-104927380D02*
X239159523Y-104927380D01*
X239254761Y-104879761D01*
X239302380Y-104784523D01*
X239302380Y-104641666D01*
X239254761Y-104546428D01*
X239207142Y-104498809D01*
X238778571Y-103689285D02*
X238778571Y-104022619D01*
X239302380Y-104022619D02*
X238302380Y-104022619D01*
X238302380Y-103546428D01*
D13*
X240678571Y-105558333D02*
X240702380Y-105582142D01*
X240726190Y-105653571D01*
X240726190Y-105701190D01*
X240702380Y-105772619D01*
X240654761Y-105820238D01*
X240607142Y-105844047D01*
X240511904Y-105867857D01*
X240440476Y-105867857D01*
X240345238Y-105844047D01*
X240297619Y-105820238D01*
X240250000Y-105772619D01*
X240226190Y-105701190D01*
X240226190Y-105653571D01*
X240250000Y-105582142D01*
X240273809Y-105558333D01*
X240726190Y-105082142D02*
X240726190Y-105367857D01*
X240726190Y-105225000D02*
X240226190Y-105225000D01*
X240297619Y-105272619D01*
X240345238Y-105320238D01*
X240369047Y-105367857D01*
M02*
