G04 #@! TF.GenerationSoftware,KiCad,Pcbnew,(5.1.4)-1*
G04 #@! TF.CreationDate,2020-01-27T21:00:09-05:00*
G04 #@! TF.ProjectId,PCB_2020,5043425f-3230-4323-902e-6b696361645f,rev?*
G04 #@! TF.SameCoordinates,Original*
G04 #@! TF.FileFunction,Soldermask,Top*
G04 #@! TF.FilePolarity,Negative*
%FSLAX46Y46*%
G04 Gerber Fmt 4.6, Leading zero omitted, Abs format (unit mm)*
G04 Created by KiCad (PCBNEW (5.1.4)-1) date 2020-01-27 21:00:09*
%MOMM*%
%LPD*%
G04 APERTURE LIST*
%ADD10C,0.100000*%
G04 APERTURE END LIST*
D10*
G36*
X121829581Y-136285383D02*
G01*
X121935994Y-136306550D01*
X122086353Y-136368831D01*
X122221672Y-136459248D01*
X122336752Y-136574328D01*
X122427169Y-136709647D01*
X122489450Y-136860006D01*
X122521200Y-137019626D01*
X122521200Y-137182374D01*
X122489450Y-137341994D01*
X122427169Y-137492353D01*
X122336752Y-137627672D01*
X122221672Y-137742752D01*
X122086353Y-137833169D01*
X121935994Y-137895450D01*
X121829581Y-137916617D01*
X121776375Y-137927200D01*
X121613625Y-137927200D01*
X121560419Y-137916617D01*
X121454006Y-137895450D01*
X121303647Y-137833169D01*
X121168328Y-137742752D01*
X121053248Y-137627672D01*
X120962831Y-137492353D01*
X120900550Y-137341994D01*
X120868800Y-137182374D01*
X120868800Y-137019626D01*
X120900550Y-136860006D01*
X120962831Y-136709647D01*
X121053248Y-136574328D01*
X121168328Y-136459248D01*
X121303647Y-136368831D01*
X121454006Y-136306550D01*
X121560419Y-136285383D01*
X121613625Y-136274800D01*
X121776375Y-136274800D01*
X121829581Y-136285383D01*
X121829581Y-136285383D01*
G37*
G36*
X162469781Y-136285383D02*
G01*
X162576194Y-136306550D01*
X162726553Y-136368831D01*
X162861872Y-136459248D01*
X162976952Y-136574328D01*
X163067369Y-136709647D01*
X163129650Y-136860006D01*
X163161400Y-137019626D01*
X163161400Y-137182374D01*
X163129650Y-137341994D01*
X163067369Y-137492353D01*
X162976952Y-137627672D01*
X162861872Y-137742752D01*
X162726553Y-137833169D01*
X162576194Y-137895450D01*
X162469781Y-137916617D01*
X162416575Y-137927200D01*
X162253825Y-137927200D01*
X162200619Y-137916617D01*
X162094206Y-137895450D01*
X161943847Y-137833169D01*
X161808528Y-137742752D01*
X161693448Y-137627672D01*
X161603031Y-137492353D01*
X161540750Y-137341994D01*
X161509000Y-137182374D01*
X161509000Y-137019626D01*
X161540750Y-136860006D01*
X161603031Y-136709647D01*
X161693448Y-136574328D01*
X161808528Y-136459248D01*
X161943847Y-136368831D01*
X162094206Y-136306550D01*
X162200619Y-136285383D01*
X162253825Y-136274800D01*
X162416575Y-136274800D01*
X162469781Y-136285383D01*
X162469781Y-136285383D01*
G37*
G36*
X165009581Y-136285383D02*
G01*
X165115994Y-136306550D01*
X165266353Y-136368831D01*
X165401672Y-136459248D01*
X165516752Y-136574328D01*
X165607169Y-136709647D01*
X165669450Y-136860006D01*
X165701200Y-137019626D01*
X165701200Y-137182374D01*
X165669450Y-137341994D01*
X165607169Y-137492353D01*
X165516752Y-137627672D01*
X165401672Y-137742752D01*
X165266353Y-137833169D01*
X165115994Y-137895450D01*
X165009581Y-137916617D01*
X164956375Y-137927200D01*
X164793625Y-137927200D01*
X164740419Y-137916617D01*
X164634006Y-137895450D01*
X164483647Y-137833169D01*
X164348328Y-137742752D01*
X164233248Y-137627672D01*
X164142831Y-137492353D01*
X164080550Y-137341994D01*
X164048800Y-137182374D01*
X164048800Y-137019626D01*
X164080550Y-136860006D01*
X164142831Y-136709647D01*
X164233248Y-136574328D01*
X164348328Y-136459248D01*
X164483647Y-136368831D01*
X164634006Y-136306550D01*
X164740419Y-136285383D01*
X164793625Y-136274800D01*
X164956375Y-136274800D01*
X165009581Y-136285383D01*
X165009581Y-136285383D01*
G37*
G36*
X119289581Y-136285383D02*
G01*
X119395994Y-136306550D01*
X119546353Y-136368831D01*
X119681672Y-136459248D01*
X119796752Y-136574328D01*
X119887169Y-136709647D01*
X119949450Y-136860006D01*
X119981200Y-137019626D01*
X119981200Y-137182374D01*
X119949450Y-137341994D01*
X119887169Y-137492353D01*
X119796752Y-137627672D01*
X119681672Y-137742752D01*
X119546353Y-137833169D01*
X119395994Y-137895450D01*
X119289581Y-137916617D01*
X119236375Y-137927200D01*
X119073625Y-137927200D01*
X119020419Y-137916617D01*
X118914006Y-137895450D01*
X118763647Y-137833169D01*
X118628328Y-137742752D01*
X118513248Y-137627672D01*
X118422831Y-137492353D01*
X118360550Y-137341994D01*
X118328800Y-137182374D01*
X118328800Y-137019626D01*
X118360550Y-136860006D01*
X118422831Y-136709647D01*
X118513248Y-136574328D01*
X118628328Y-136459248D01*
X118763647Y-136368831D01*
X118914006Y-136306550D01*
X119020419Y-136285383D01*
X119073625Y-136274800D01*
X119236375Y-136274800D01*
X119289581Y-136285383D01*
X119289581Y-136285383D01*
G37*
G36*
X182415656Y-133629761D02*
G01*
X182514372Y-133670651D01*
X182674991Y-133737181D01*
X182908385Y-133893130D01*
X183106870Y-134091615D01*
X183262819Y-134325009D01*
X183325744Y-134476924D01*
X183370239Y-134584344D01*
X183425000Y-134859648D01*
X183425000Y-135140352D01*
X183370239Y-135415656D01*
X183325744Y-135523076D01*
X183262819Y-135674991D01*
X183106870Y-135908385D01*
X182908385Y-136106870D01*
X182674991Y-136262819D01*
X182569414Y-136306550D01*
X182415656Y-136370239D01*
X182140352Y-136425000D01*
X181859648Y-136425000D01*
X181584344Y-136370239D01*
X181430586Y-136306550D01*
X181325009Y-136262819D01*
X181091615Y-136106870D01*
X180893130Y-135908385D01*
X180737181Y-135674991D01*
X180674256Y-135523076D01*
X180629761Y-135415656D01*
X180575000Y-135140352D01*
X180575000Y-134859648D01*
X180629761Y-134584344D01*
X180674256Y-134476924D01*
X180737181Y-134325009D01*
X180893130Y-134091615D01*
X181091615Y-133893130D01*
X181325009Y-133737181D01*
X181485628Y-133670651D01*
X181584344Y-133629761D01*
X181859648Y-133575000D01*
X182140352Y-133575000D01*
X182415656Y-133629761D01*
X182415656Y-133629761D01*
G37*
G36*
X110415656Y-133629761D02*
G01*
X110514372Y-133670651D01*
X110674991Y-133737181D01*
X110908385Y-133893130D01*
X111106870Y-134091615D01*
X111262819Y-134325009D01*
X111325744Y-134476924D01*
X111370239Y-134584344D01*
X111425000Y-134859648D01*
X111425000Y-135140352D01*
X111370239Y-135415656D01*
X111325744Y-135523076D01*
X111262819Y-135674991D01*
X111106870Y-135908385D01*
X110908385Y-136106870D01*
X110674991Y-136262819D01*
X110569414Y-136306550D01*
X110415656Y-136370239D01*
X110140352Y-136425000D01*
X109859648Y-136425000D01*
X109584344Y-136370239D01*
X109430586Y-136306550D01*
X109325009Y-136262819D01*
X109091615Y-136106870D01*
X108893130Y-135908385D01*
X108737181Y-135674991D01*
X108674256Y-135523076D01*
X108629761Y-135415656D01*
X108575000Y-135140352D01*
X108575000Y-134859648D01*
X108629761Y-134584344D01*
X108674256Y-134476924D01*
X108737181Y-134325009D01*
X108893130Y-134091615D01*
X109091615Y-133893130D01*
X109325009Y-133737181D01*
X109485628Y-133670651D01*
X109584344Y-133629761D01*
X109859648Y-133575000D01*
X110140352Y-133575000D01*
X110415656Y-133629761D01*
X110415656Y-133629761D01*
G37*
G36*
X100029348Y-132545619D02*
G01*
X100297961Y-132627102D01*
X100297964Y-132627103D01*
X100545513Y-132759421D01*
X100545516Y-132759423D01*
X100545517Y-132759424D01*
X100762501Y-132937498D01*
X100762504Y-132937501D01*
X100940577Y-133154483D01*
X101072897Y-133402035D01*
X101072897Y-133402036D01*
X101072898Y-133402038D01*
X101154381Y-133670651D01*
X101175000Y-133880003D01*
X101175000Y-134619996D01*
X101154381Y-134829348D01*
X101117068Y-134952353D01*
X101072897Y-135097965D01*
X100940577Y-135345517D01*
X100762502Y-135562502D01*
X100545517Y-135740577D01*
X100297965Y-135872897D01*
X100297962Y-135872898D01*
X100029349Y-135954381D01*
X99750000Y-135981894D01*
X99470652Y-135954381D01*
X99202039Y-135872898D01*
X99202036Y-135872897D01*
X98954487Y-135740579D01*
X98954483Y-135740576D01*
X98737499Y-135562502D01*
X98737498Y-135562500D01*
X98737496Y-135562499D01*
X98559423Y-135345517D01*
X98427103Y-135097965D01*
X98354811Y-134859650D01*
X98345619Y-134829349D01*
X98325000Y-134619997D01*
X98325000Y-133880004D01*
X98345619Y-133670652D01*
X98427102Y-133402039D01*
X98427103Y-133402036D01*
X98559421Y-133154487D01*
X98559425Y-133154482D01*
X98737498Y-132937499D01*
X98737500Y-132937498D01*
X98737501Y-132937496D01*
X98954483Y-132759423D01*
X99202035Y-132627103D01*
X99202038Y-132627102D01*
X99470651Y-132545619D01*
X99750000Y-132518106D01*
X100029348Y-132545619D01*
X100029348Y-132545619D01*
G37*
G36*
X119289581Y-133745383D02*
G01*
X119395994Y-133766550D01*
X119546353Y-133828831D01*
X119681672Y-133919248D01*
X119796752Y-134034328D01*
X119887169Y-134169647D01*
X119949450Y-134320006D01*
X119981200Y-134479626D01*
X119981200Y-134642374D01*
X119949450Y-134801994D01*
X119887169Y-134952353D01*
X119796752Y-135087672D01*
X119681672Y-135202752D01*
X119546353Y-135293169D01*
X119395994Y-135355450D01*
X119289581Y-135376617D01*
X119236375Y-135387200D01*
X119073625Y-135387200D01*
X119020419Y-135376617D01*
X118914006Y-135355450D01*
X118763647Y-135293169D01*
X118628328Y-135202752D01*
X118513248Y-135087672D01*
X118422831Y-134952353D01*
X118360550Y-134801994D01*
X118328800Y-134642374D01*
X118328800Y-134479626D01*
X118360550Y-134320006D01*
X118422831Y-134169647D01*
X118513248Y-134034328D01*
X118628328Y-133919248D01*
X118763647Y-133828831D01*
X118914006Y-133766550D01*
X119020419Y-133745383D01*
X119073625Y-133734800D01*
X119236375Y-133734800D01*
X119289581Y-133745383D01*
X119289581Y-133745383D01*
G37*
G36*
X121829581Y-133745383D02*
G01*
X121935994Y-133766550D01*
X122086353Y-133828831D01*
X122221672Y-133919248D01*
X122336752Y-134034328D01*
X122427169Y-134169647D01*
X122489450Y-134320006D01*
X122521200Y-134479626D01*
X122521200Y-134642374D01*
X122489450Y-134801994D01*
X122427169Y-134952353D01*
X122336752Y-135087672D01*
X122221672Y-135202752D01*
X122086353Y-135293169D01*
X121935994Y-135355450D01*
X121829581Y-135376617D01*
X121776375Y-135387200D01*
X121613625Y-135387200D01*
X121560419Y-135376617D01*
X121454006Y-135355450D01*
X121303647Y-135293169D01*
X121168328Y-135202752D01*
X121053248Y-135087672D01*
X120962831Y-134952353D01*
X120900550Y-134801994D01*
X120868800Y-134642374D01*
X120868800Y-134479626D01*
X120900550Y-134320006D01*
X120962831Y-134169647D01*
X121053248Y-134034328D01*
X121168328Y-133919248D01*
X121303647Y-133828831D01*
X121454006Y-133766550D01*
X121560419Y-133745383D01*
X121613625Y-133734800D01*
X121776375Y-133734800D01*
X121829581Y-133745383D01*
X121829581Y-133745383D01*
G37*
G36*
X162469781Y-133745383D02*
G01*
X162576194Y-133766550D01*
X162726553Y-133828831D01*
X162861872Y-133919248D01*
X162976952Y-134034328D01*
X163067369Y-134169647D01*
X163129650Y-134320006D01*
X163161400Y-134479626D01*
X163161400Y-134642374D01*
X163129650Y-134801994D01*
X163067369Y-134952353D01*
X162976952Y-135087672D01*
X162861872Y-135202752D01*
X162726553Y-135293169D01*
X162576194Y-135355450D01*
X162469781Y-135376617D01*
X162416575Y-135387200D01*
X162253825Y-135387200D01*
X162200619Y-135376617D01*
X162094206Y-135355450D01*
X161943847Y-135293169D01*
X161808528Y-135202752D01*
X161693448Y-135087672D01*
X161603031Y-134952353D01*
X161540750Y-134801994D01*
X161509000Y-134642374D01*
X161509000Y-134479626D01*
X161540750Y-134320006D01*
X161603031Y-134169647D01*
X161693448Y-134034328D01*
X161808528Y-133919248D01*
X161943847Y-133828831D01*
X162094206Y-133766550D01*
X162200619Y-133745383D01*
X162253825Y-133734800D01*
X162416575Y-133734800D01*
X162469781Y-133745383D01*
X162469781Y-133745383D01*
G37*
G36*
X165009581Y-133745383D02*
G01*
X165115994Y-133766550D01*
X165266353Y-133828831D01*
X165401672Y-133919248D01*
X165516752Y-134034328D01*
X165607169Y-134169647D01*
X165669450Y-134320006D01*
X165701200Y-134479626D01*
X165701200Y-134642374D01*
X165669450Y-134801994D01*
X165607169Y-134952353D01*
X165516752Y-135087672D01*
X165401672Y-135202752D01*
X165266353Y-135293169D01*
X165115994Y-135355450D01*
X165009581Y-135376617D01*
X164956375Y-135387200D01*
X164793625Y-135387200D01*
X164740419Y-135376617D01*
X164634006Y-135355450D01*
X164483647Y-135293169D01*
X164348328Y-135202752D01*
X164233248Y-135087672D01*
X164142831Y-134952353D01*
X164080550Y-134801994D01*
X164048800Y-134642374D01*
X164048800Y-134479626D01*
X164080550Y-134320006D01*
X164142831Y-134169647D01*
X164233248Y-134034328D01*
X164348328Y-133919248D01*
X164483647Y-133828831D01*
X164634006Y-133766550D01*
X164740419Y-133745383D01*
X164793625Y-133734800D01*
X164956375Y-133734800D01*
X165009581Y-133745383D01*
X165009581Y-133745383D01*
G37*
G36*
X119289581Y-131205383D02*
G01*
X119395994Y-131226550D01*
X119546353Y-131288831D01*
X119681672Y-131379248D01*
X119796752Y-131494328D01*
X119887169Y-131629647D01*
X119949450Y-131780006D01*
X119981200Y-131939626D01*
X119981200Y-132102374D01*
X119949450Y-132261994D01*
X119887169Y-132412353D01*
X119796752Y-132547672D01*
X119681672Y-132662752D01*
X119546353Y-132753169D01*
X119395994Y-132815450D01*
X119289581Y-132836617D01*
X119236375Y-132847200D01*
X119073625Y-132847200D01*
X119020419Y-132836617D01*
X118914006Y-132815450D01*
X118763647Y-132753169D01*
X118628328Y-132662752D01*
X118513248Y-132547672D01*
X118422831Y-132412353D01*
X118360550Y-132261994D01*
X118328800Y-132102374D01*
X118328800Y-131939626D01*
X118360550Y-131780006D01*
X118422831Y-131629647D01*
X118513248Y-131494328D01*
X118628328Y-131379248D01*
X118763647Y-131288831D01*
X118914006Y-131226550D01*
X119020419Y-131205383D01*
X119073625Y-131194800D01*
X119236375Y-131194800D01*
X119289581Y-131205383D01*
X119289581Y-131205383D01*
G37*
G36*
X165009581Y-131205383D02*
G01*
X165115994Y-131226550D01*
X165266353Y-131288831D01*
X165401672Y-131379248D01*
X165516752Y-131494328D01*
X165607169Y-131629647D01*
X165669450Y-131780006D01*
X165701200Y-131939626D01*
X165701200Y-132102374D01*
X165669450Y-132261994D01*
X165607169Y-132412353D01*
X165516752Y-132547672D01*
X165401672Y-132662752D01*
X165266353Y-132753169D01*
X165115994Y-132815450D01*
X165009581Y-132836617D01*
X164956375Y-132847200D01*
X164793625Y-132847200D01*
X164740419Y-132836617D01*
X164634006Y-132815450D01*
X164483647Y-132753169D01*
X164348328Y-132662752D01*
X164233248Y-132547672D01*
X164142831Y-132412353D01*
X164080550Y-132261994D01*
X164048800Y-132102374D01*
X164048800Y-131939626D01*
X164080550Y-131780006D01*
X164142831Y-131629647D01*
X164233248Y-131494328D01*
X164348328Y-131379248D01*
X164483647Y-131288831D01*
X164634006Y-131226550D01*
X164740419Y-131205383D01*
X164793625Y-131194800D01*
X164956375Y-131194800D01*
X165009581Y-131205383D01*
X165009581Y-131205383D01*
G37*
G36*
X121829581Y-131205383D02*
G01*
X121935994Y-131226550D01*
X122086353Y-131288831D01*
X122221672Y-131379248D01*
X122336752Y-131494328D01*
X122427169Y-131629647D01*
X122489450Y-131780006D01*
X122521200Y-131939626D01*
X122521200Y-132102374D01*
X122489450Y-132261994D01*
X122427169Y-132412353D01*
X122336752Y-132547672D01*
X122221672Y-132662752D01*
X122086353Y-132753169D01*
X121935994Y-132815450D01*
X121829581Y-132836617D01*
X121776375Y-132847200D01*
X121613625Y-132847200D01*
X121560419Y-132836617D01*
X121454006Y-132815450D01*
X121303647Y-132753169D01*
X121168328Y-132662752D01*
X121053248Y-132547672D01*
X120962831Y-132412353D01*
X120900550Y-132261994D01*
X120868800Y-132102374D01*
X120868800Y-131939626D01*
X120900550Y-131780006D01*
X120962831Y-131629647D01*
X121053248Y-131494328D01*
X121168328Y-131379248D01*
X121303647Y-131288831D01*
X121454006Y-131226550D01*
X121560419Y-131205383D01*
X121613625Y-131194800D01*
X121776375Y-131194800D01*
X121829581Y-131205383D01*
X121829581Y-131205383D01*
G37*
G36*
X162469781Y-131205383D02*
G01*
X162576194Y-131226550D01*
X162726553Y-131288831D01*
X162861872Y-131379248D01*
X162976952Y-131494328D01*
X163067369Y-131629647D01*
X163129650Y-131780006D01*
X163161400Y-131939626D01*
X163161400Y-132102374D01*
X163129650Y-132261994D01*
X163067369Y-132412353D01*
X162976952Y-132547672D01*
X162861872Y-132662752D01*
X162726553Y-132753169D01*
X162576194Y-132815450D01*
X162469781Y-132836617D01*
X162416575Y-132847200D01*
X162253825Y-132847200D01*
X162200619Y-132836617D01*
X162094206Y-132815450D01*
X161943847Y-132753169D01*
X161808528Y-132662752D01*
X161693448Y-132547672D01*
X161603031Y-132412353D01*
X161540750Y-132261994D01*
X161509000Y-132102374D01*
X161509000Y-131939626D01*
X161540750Y-131780006D01*
X161603031Y-131629647D01*
X161693448Y-131494328D01*
X161808528Y-131379248D01*
X161943847Y-131288831D01*
X162094206Y-131226550D01*
X162200619Y-131205383D01*
X162253825Y-131194800D01*
X162416575Y-131194800D01*
X162469781Y-131205383D01*
X162469781Y-131205383D01*
G37*
G36*
X101044453Y-127028706D02*
G01*
X101074742Y-127037894D01*
X101102648Y-127052810D01*
X101127112Y-127072888D01*
X101147190Y-127097352D01*
X101162106Y-127125258D01*
X101171294Y-127155547D01*
X101175000Y-127193177D01*
X101175000Y-130306823D01*
X101171294Y-130344453D01*
X101162106Y-130374742D01*
X101147190Y-130402648D01*
X101127112Y-130427112D01*
X101102648Y-130447190D01*
X101074742Y-130462106D01*
X101044453Y-130471294D01*
X101006823Y-130475000D01*
X98493177Y-130475000D01*
X98455547Y-130471294D01*
X98425258Y-130462106D01*
X98397352Y-130447190D01*
X98372888Y-130427112D01*
X98352810Y-130402648D01*
X98337894Y-130374742D01*
X98328706Y-130344453D01*
X98325000Y-130306823D01*
X98325000Y-127193177D01*
X98328706Y-127155547D01*
X98337894Y-127125258D01*
X98352810Y-127097352D01*
X98372888Y-127072888D01*
X98397352Y-127052810D01*
X98425258Y-127037894D01*
X98455547Y-127028706D01*
X98493177Y-127025000D01*
X101006823Y-127025000D01*
X101044453Y-127028706D01*
X101044453Y-127028706D01*
G37*
G36*
X162469781Y-128665383D02*
G01*
X162576194Y-128686550D01*
X162726553Y-128748831D01*
X162861872Y-128839248D01*
X162976952Y-128954328D01*
X163067369Y-129089647D01*
X163129650Y-129240006D01*
X163161400Y-129399626D01*
X163161400Y-129562374D01*
X163129650Y-129721994D01*
X163067369Y-129872353D01*
X162976952Y-130007672D01*
X162861872Y-130122752D01*
X162726553Y-130213169D01*
X162576194Y-130275450D01*
X162469781Y-130296617D01*
X162416575Y-130307200D01*
X162253825Y-130307200D01*
X162200619Y-130296617D01*
X162094206Y-130275450D01*
X161943847Y-130213169D01*
X161808528Y-130122752D01*
X161693448Y-130007672D01*
X161603031Y-129872353D01*
X161540750Y-129721994D01*
X161509000Y-129562374D01*
X161509000Y-129399626D01*
X161540750Y-129240006D01*
X161603031Y-129089647D01*
X161693448Y-128954328D01*
X161808528Y-128839248D01*
X161943847Y-128748831D01*
X162094206Y-128686550D01*
X162200619Y-128665383D01*
X162253825Y-128654800D01*
X162416575Y-128654800D01*
X162469781Y-128665383D01*
X162469781Y-128665383D01*
G37*
G36*
X165009581Y-128665383D02*
G01*
X165115994Y-128686550D01*
X165266353Y-128748831D01*
X165401672Y-128839248D01*
X165516752Y-128954328D01*
X165607169Y-129089647D01*
X165669450Y-129240006D01*
X165701200Y-129399626D01*
X165701200Y-129562374D01*
X165669450Y-129721994D01*
X165607169Y-129872353D01*
X165516752Y-130007672D01*
X165401672Y-130122752D01*
X165266353Y-130213169D01*
X165115994Y-130275450D01*
X165009581Y-130296617D01*
X164956375Y-130307200D01*
X164793625Y-130307200D01*
X164740419Y-130296617D01*
X164634006Y-130275450D01*
X164483647Y-130213169D01*
X164348328Y-130122752D01*
X164233248Y-130007672D01*
X164142831Y-129872353D01*
X164080550Y-129721994D01*
X164048800Y-129562374D01*
X164048800Y-129399626D01*
X164080550Y-129240006D01*
X164142831Y-129089647D01*
X164233248Y-128954328D01*
X164348328Y-128839248D01*
X164483647Y-128748831D01*
X164634006Y-128686550D01*
X164740419Y-128665383D01*
X164793625Y-128654800D01*
X164956375Y-128654800D01*
X165009581Y-128665383D01*
X165009581Y-128665383D01*
G37*
G36*
X121829581Y-128665383D02*
G01*
X121935994Y-128686550D01*
X122086353Y-128748831D01*
X122221672Y-128839248D01*
X122336752Y-128954328D01*
X122427169Y-129089647D01*
X122489450Y-129240006D01*
X122521200Y-129399626D01*
X122521200Y-129562374D01*
X122489450Y-129721994D01*
X122427169Y-129872353D01*
X122336752Y-130007672D01*
X122221672Y-130122752D01*
X122086353Y-130213169D01*
X121935994Y-130275450D01*
X121829581Y-130296617D01*
X121776375Y-130307200D01*
X121613625Y-130307200D01*
X121560419Y-130296617D01*
X121454006Y-130275450D01*
X121303647Y-130213169D01*
X121168328Y-130122752D01*
X121053248Y-130007672D01*
X120962831Y-129872353D01*
X120900550Y-129721994D01*
X120868800Y-129562374D01*
X120868800Y-129399626D01*
X120900550Y-129240006D01*
X120962831Y-129089647D01*
X121053248Y-128954328D01*
X121168328Y-128839248D01*
X121303647Y-128748831D01*
X121454006Y-128686550D01*
X121560419Y-128665383D01*
X121613625Y-128654800D01*
X121776375Y-128654800D01*
X121829581Y-128665383D01*
X121829581Y-128665383D01*
G37*
G36*
X119289581Y-128665383D02*
G01*
X119395994Y-128686550D01*
X119546353Y-128748831D01*
X119681672Y-128839248D01*
X119796752Y-128954328D01*
X119887169Y-129089647D01*
X119949450Y-129240006D01*
X119981200Y-129399626D01*
X119981200Y-129562374D01*
X119949450Y-129721994D01*
X119887169Y-129872353D01*
X119796752Y-130007672D01*
X119681672Y-130122752D01*
X119546353Y-130213169D01*
X119395994Y-130275450D01*
X119289581Y-130296617D01*
X119236375Y-130307200D01*
X119073625Y-130307200D01*
X119020419Y-130296617D01*
X118914006Y-130275450D01*
X118763647Y-130213169D01*
X118628328Y-130122752D01*
X118513248Y-130007672D01*
X118422831Y-129872353D01*
X118360550Y-129721994D01*
X118328800Y-129562374D01*
X118328800Y-129399626D01*
X118360550Y-129240006D01*
X118422831Y-129089647D01*
X118513248Y-128954328D01*
X118628328Y-128839248D01*
X118763647Y-128748831D01*
X118914006Y-128686550D01*
X119020419Y-128665383D01*
X119073625Y-128654800D01*
X119236375Y-128654800D01*
X119289581Y-128665383D01*
X119289581Y-128665383D01*
G37*
G36*
X180531422Y-125689867D02*
G01*
X180628267Y-125719245D01*
X180725109Y-125748621D01*
X180903610Y-125844032D01*
X180944366Y-125877479D01*
X181060068Y-125972432D01*
X181188469Y-126128891D01*
X181283878Y-126307388D01*
X181342633Y-126501077D01*
X181357500Y-126652026D01*
X181357500Y-126847973D01*
X181342633Y-126998922D01*
X181320196Y-127072888D01*
X181283879Y-127192609D01*
X181188468Y-127371110D01*
X181155021Y-127411866D01*
X181060068Y-127527568D01*
X180903609Y-127655969D01*
X180754911Y-127735450D01*
X180725110Y-127751379D01*
X180628267Y-127780756D01*
X180531423Y-127810133D01*
X180330000Y-127829971D01*
X180128578Y-127810133D01*
X180031734Y-127780756D01*
X179934891Y-127751379D01*
X179905090Y-127735450D01*
X179756392Y-127655969D01*
X179599932Y-127527568D01*
X179471531Y-127371109D01*
X179376122Y-127192612D01*
X179374694Y-127187904D01*
X179338768Y-127069473D01*
X179317367Y-126998923D01*
X179302500Y-126847974D01*
X179302500Y-126652027D01*
X179317367Y-126501078D01*
X179376122Y-126307389D01*
X179471531Y-126128892D01*
X179471532Y-126128890D01*
X179504979Y-126088134D01*
X179599932Y-125972432D01*
X179756391Y-125844031D01*
X179934888Y-125748622D01*
X179934890Y-125748621D01*
X180031732Y-125719245D01*
X180128577Y-125689867D01*
X180330000Y-125670029D01*
X180531422Y-125689867D01*
X180531422Y-125689867D01*
G37*
G36*
X177991422Y-125689867D02*
G01*
X178088267Y-125719245D01*
X178185109Y-125748621D01*
X178363610Y-125844032D01*
X178404366Y-125877479D01*
X178520068Y-125972432D01*
X178648469Y-126128891D01*
X178743878Y-126307388D01*
X178802633Y-126501077D01*
X178817500Y-126652026D01*
X178817500Y-126847973D01*
X178802633Y-126998922D01*
X178780196Y-127072888D01*
X178743879Y-127192609D01*
X178648468Y-127371110D01*
X178615021Y-127411866D01*
X178520068Y-127527568D01*
X178363609Y-127655969D01*
X178214911Y-127735450D01*
X178185110Y-127751379D01*
X178088267Y-127780756D01*
X177991423Y-127810133D01*
X177790000Y-127829971D01*
X177588578Y-127810133D01*
X177491734Y-127780756D01*
X177394891Y-127751379D01*
X177365090Y-127735450D01*
X177216392Y-127655969D01*
X177059932Y-127527568D01*
X176931531Y-127371109D01*
X176836122Y-127192612D01*
X176834694Y-127187904D01*
X176798768Y-127069473D01*
X176777367Y-126998923D01*
X176762500Y-126847974D01*
X176762500Y-126652027D01*
X176777367Y-126501078D01*
X176836122Y-126307389D01*
X176931531Y-126128892D01*
X176931532Y-126128890D01*
X176964979Y-126088134D01*
X177059932Y-125972432D01*
X177216391Y-125844031D01*
X177394888Y-125748622D01*
X177394890Y-125748621D01*
X177491732Y-125719245D01*
X177588577Y-125689867D01*
X177790000Y-125670029D01*
X177991422Y-125689867D01*
X177991422Y-125689867D01*
G37*
G36*
X176277500Y-127825000D02*
G01*
X174222500Y-127825000D01*
X174222500Y-125675000D01*
X176277500Y-125675000D01*
X176277500Y-127825000D01*
X176277500Y-127825000D01*
G37*
G36*
X121829581Y-126125383D02*
G01*
X121935994Y-126146550D01*
X122086353Y-126208831D01*
X122221672Y-126299248D01*
X122336752Y-126414328D01*
X122427169Y-126549647D01*
X122489450Y-126700006D01*
X122521200Y-126859626D01*
X122521200Y-127022374D01*
X122489450Y-127181994D01*
X122427169Y-127332353D01*
X122336752Y-127467672D01*
X122221672Y-127582752D01*
X122086353Y-127673169D01*
X121935994Y-127735450D01*
X121829581Y-127756617D01*
X121776375Y-127767200D01*
X121613625Y-127767200D01*
X121560419Y-127756617D01*
X121454006Y-127735450D01*
X121303647Y-127673169D01*
X121168328Y-127582752D01*
X121053248Y-127467672D01*
X120962831Y-127332353D01*
X120900550Y-127181994D01*
X120868800Y-127022374D01*
X120868800Y-126859626D01*
X120900550Y-126700006D01*
X120962831Y-126549647D01*
X121053248Y-126414328D01*
X121168328Y-126299248D01*
X121303647Y-126208831D01*
X121454006Y-126146550D01*
X121560419Y-126125383D01*
X121613625Y-126114800D01*
X121776375Y-126114800D01*
X121829581Y-126125383D01*
X121829581Y-126125383D01*
G37*
G36*
X162469781Y-126125383D02*
G01*
X162576194Y-126146550D01*
X162726553Y-126208831D01*
X162861872Y-126299248D01*
X162976952Y-126414328D01*
X163067369Y-126549647D01*
X163129650Y-126700006D01*
X163161400Y-126859626D01*
X163161400Y-127022374D01*
X163129650Y-127181994D01*
X163067369Y-127332353D01*
X162976952Y-127467672D01*
X162861872Y-127582752D01*
X162726553Y-127673169D01*
X162576194Y-127735450D01*
X162469781Y-127756617D01*
X162416575Y-127767200D01*
X162253825Y-127767200D01*
X162200619Y-127756617D01*
X162094206Y-127735450D01*
X161943847Y-127673169D01*
X161808528Y-127582752D01*
X161693448Y-127467672D01*
X161603031Y-127332353D01*
X161540750Y-127181994D01*
X161509000Y-127022374D01*
X161509000Y-126859626D01*
X161540750Y-126700006D01*
X161603031Y-126549647D01*
X161693448Y-126414328D01*
X161808528Y-126299248D01*
X161943847Y-126208831D01*
X162094206Y-126146550D01*
X162200619Y-126125383D01*
X162253825Y-126114800D01*
X162416575Y-126114800D01*
X162469781Y-126125383D01*
X162469781Y-126125383D01*
G37*
G36*
X119289581Y-126125383D02*
G01*
X119395994Y-126146550D01*
X119546353Y-126208831D01*
X119681672Y-126299248D01*
X119796752Y-126414328D01*
X119887169Y-126549647D01*
X119949450Y-126700006D01*
X119981200Y-126859626D01*
X119981200Y-127022374D01*
X119949450Y-127181994D01*
X119887169Y-127332353D01*
X119796752Y-127467672D01*
X119681672Y-127582752D01*
X119546353Y-127673169D01*
X119395994Y-127735450D01*
X119289581Y-127756617D01*
X119236375Y-127767200D01*
X119073625Y-127767200D01*
X119020419Y-127756617D01*
X118914006Y-127735450D01*
X118763647Y-127673169D01*
X118628328Y-127582752D01*
X118513248Y-127467672D01*
X118422831Y-127332353D01*
X118360550Y-127181994D01*
X118328800Y-127022374D01*
X118328800Y-126859626D01*
X118360550Y-126700006D01*
X118422831Y-126549647D01*
X118513248Y-126414328D01*
X118628328Y-126299248D01*
X118763647Y-126208831D01*
X118914006Y-126146550D01*
X119020419Y-126125383D01*
X119073625Y-126114800D01*
X119236375Y-126114800D01*
X119289581Y-126125383D01*
X119289581Y-126125383D01*
G37*
G36*
X165009581Y-126125383D02*
G01*
X165115994Y-126146550D01*
X165266353Y-126208831D01*
X165401672Y-126299248D01*
X165516752Y-126414328D01*
X165607169Y-126549647D01*
X165669450Y-126700006D01*
X165701200Y-126859626D01*
X165701200Y-127022374D01*
X165669450Y-127181994D01*
X165607169Y-127332353D01*
X165516752Y-127467672D01*
X165401672Y-127582752D01*
X165266353Y-127673169D01*
X165115994Y-127735450D01*
X165009581Y-127756617D01*
X164956375Y-127767200D01*
X164793625Y-127767200D01*
X164740419Y-127756617D01*
X164634006Y-127735450D01*
X164483647Y-127673169D01*
X164348328Y-127582752D01*
X164233248Y-127467672D01*
X164142831Y-127332353D01*
X164080550Y-127181994D01*
X164048800Y-127022374D01*
X164048800Y-126859626D01*
X164080550Y-126700006D01*
X164142831Y-126549647D01*
X164233248Y-126414328D01*
X164348328Y-126299248D01*
X164483647Y-126208831D01*
X164634006Y-126146550D01*
X164740419Y-126125383D01*
X164793625Y-126114800D01*
X164956375Y-126114800D01*
X165009581Y-126125383D01*
X165009581Y-126125383D01*
G37*
G36*
X190278007Y-123559099D02*
G01*
X190312129Y-123569450D01*
X190343567Y-123586254D01*
X190371128Y-123608872D01*
X190393746Y-123636433D01*
X190410550Y-123667871D01*
X190420901Y-123701993D01*
X190425000Y-123743611D01*
X190425000Y-125256389D01*
X190420901Y-125298007D01*
X190410550Y-125332129D01*
X190393746Y-125363567D01*
X190371128Y-125391128D01*
X190343567Y-125413746D01*
X190312129Y-125430550D01*
X190278007Y-125440901D01*
X190236389Y-125445000D01*
X188263611Y-125445000D01*
X188221993Y-125440901D01*
X188187871Y-125430550D01*
X188156433Y-125413746D01*
X188128872Y-125391128D01*
X188106254Y-125363567D01*
X188089450Y-125332129D01*
X188079099Y-125298007D01*
X188075000Y-125256389D01*
X188075000Y-123743611D01*
X188079099Y-123701993D01*
X188089450Y-123667871D01*
X188106254Y-123636433D01*
X188128872Y-123608872D01*
X188156433Y-123586254D01*
X188187871Y-123569450D01*
X188221993Y-123559099D01*
X188263611Y-123555000D01*
X190236389Y-123555000D01*
X190278007Y-123559099D01*
X190278007Y-123559099D01*
G37*
G36*
X165009581Y-123585383D02*
G01*
X165115994Y-123606550D01*
X165266353Y-123668831D01*
X165401672Y-123759248D01*
X165516752Y-123874328D01*
X165607169Y-124009647D01*
X165669450Y-124160006D01*
X165701200Y-124319626D01*
X165701200Y-124482374D01*
X165669450Y-124641994D01*
X165607169Y-124792353D01*
X165516752Y-124927672D01*
X165401672Y-125042752D01*
X165266353Y-125133169D01*
X165115994Y-125195450D01*
X165009581Y-125216617D01*
X164956375Y-125227200D01*
X164793625Y-125227200D01*
X164740419Y-125216617D01*
X164634006Y-125195450D01*
X164483647Y-125133169D01*
X164348328Y-125042752D01*
X164233248Y-124927672D01*
X164142831Y-124792353D01*
X164080550Y-124641994D01*
X164048800Y-124482374D01*
X164048800Y-124319626D01*
X164080550Y-124160006D01*
X164142831Y-124009647D01*
X164233248Y-123874328D01*
X164348328Y-123759248D01*
X164483647Y-123668831D01*
X164634006Y-123606550D01*
X164740419Y-123585383D01*
X164793625Y-123574800D01*
X164956375Y-123574800D01*
X165009581Y-123585383D01*
X165009581Y-123585383D01*
G37*
G36*
X119289581Y-123585383D02*
G01*
X119395994Y-123606550D01*
X119546353Y-123668831D01*
X119681672Y-123759248D01*
X119796752Y-123874328D01*
X119887169Y-124009647D01*
X119949450Y-124160006D01*
X119981200Y-124319626D01*
X119981200Y-124482374D01*
X119949450Y-124641994D01*
X119887169Y-124792353D01*
X119796752Y-124927672D01*
X119681672Y-125042752D01*
X119546353Y-125133169D01*
X119395994Y-125195450D01*
X119289581Y-125216617D01*
X119236375Y-125227200D01*
X119073625Y-125227200D01*
X119020419Y-125216617D01*
X118914006Y-125195450D01*
X118763647Y-125133169D01*
X118628328Y-125042752D01*
X118513248Y-124927672D01*
X118422831Y-124792353D01*
X118360550Y-124641994D01*
X118328800Y-124482374D01*
X118328800Y-124319626D01*
X118360550Y-124160006D01*
X118422831Y-124009647D01*
X118513248Y-123874328D01*
X118628328Y-123759248D01*
X118763647Y-123668831D01*
X118914006Y-123606550D01*
X119020419Y-123585383D01*
X119073625Y-123574800D01*
X119236375Y-123574800D01*
X119289581Y-123585383D01*
X119289581Y-123585383D01*
G37*
G36*
X121829581Y-123585383D02*
G01*
X121935994Y-123606550D01*
X122086353Y-123668831D01*
X122221672Y-123759248D01*
X122336752Y-123874328D01*
X122427169Y-124009647D01*
X122489450Y-124160006D01*
X122521200Y-124319626D01*
X122521200Y-124482374D01*
X122489450Y-124641994D01*
X122427169Y-124792353D01*
X122336752Y-124927672D01*
X122221672Y-125042752D01*
X122086353Y-125133169D01*
X121935994Y-125195450D01*
X121829581Y-125216617D01*
X121776375Y-125227200D01*
X121613625Y-125227200D01*
X121560419Y-125216617D01*
X121454006Y-125195450D01*
X121303647Y-125133169D01*
X121168328Y-125042752D01*
X121053248Y-124927672D01*
X120962831Y-124792353D01*
X120900550Y-124641994D01*
X120868800Y-124482374D01*
X120868800Y-124319626D01*
X120900550Y-124160006D01*
X120962831Y-124009647D01*
X121053248Y-123874328D01*
X121168328Y-123759248D01*
X121303647Y-123668831D01*
X121454006Y-123606550D01*
X121560419Y-123585383D01*
X121613625Y-123574800D01*
X121776375Y-123574800D01*
X121829581Y-123585383D01*
X121829581Y-123585383D01*
G37*
G36*
X162469781Y-123585383D02*
G01*
X162576194Y-123606550D01*
X162726553Y-123668831D01*
X162861872Y-123759248D01*
X162976952Y-123874328D01*
X163067369Y-124009647D01*
X163129650Y-124160006D01*
X163161400Y-124319626D01*
X163161400Y-124482374D01*
X163129650Y-124641994D01*
X163067369Y-124792353D01*
X162976952Y-124927672D01*
X162861872Y-125042752D01*
X162726553Y-125133169D01*
X162576194Y-125195450D01*
X162469781Y-125216617D01*
X162416575Y-125227200D01*
X162253825Y-125227200D01*
X162200619Y-125216617D01*
X162094206Y-125195450D01*
X161943847Y-125133169D01*
X161808528Y-125042752D01*
X161693448Y-124927672D01*
X161603031Y-124792353D01*
X161540750Y-124641994D01*
X161509000Y-124482374D01*
X161509000Y-124319626D01*
X161540750Y-124160006D01*
X161603031Y-124009647D01*
X161693448Y-123874328D01*
X161808528Y-123759248D01*
X161943847Y-123668831D01*
X162094206Y-123606550D01*
X162200619Y-123585383D01*
X162253825Y-123574800D01*
X162416575Y-123574800D01*
X162469781Y-123585383D01*
X162469781Y-123585383D01*
G37*
G36*
X189665250Y-121028673D02*
G01*
X189843388Y-121082711D01*
X190007553Y-121170459D01*
X190151449Y-121288551D01*
X190269541Y-121432447D01*
X190357289Y-121596612D01*
X190411327Y-121774750D01*
X190429572Y-121960000D01*
X190411327Y-122145250D01*
X190357289Y-122323388D01*
X190269541Y-122487553D01*
X190151449Y-122631449D01*
X190007553Y-122749541D01*
X189843388Y-122837289D01*
X189665250Y-122891327D01*
X189526423Y-122905000D01*
X188973577Y-122905000D01*
X188834750Y-122891327D01*
X188656612Y-122837289D01*
X188492447Y-122749541D01*
X188348551Y-122631449D01*
X188230459Y-122487553D01*
X188142711Y-122323388D01*
X188088673Y-122145250D01*
X188070428Y-121960000D01*
X188088673Y-121774750D01*
X188142711Y-121596612D01*
X188230459Y-121432447D01*
X188348551Y-121288551D01*
X188492447Y-121170459D01*
X188656612Y-121082711D01*
X188834750Y-121028673D01*
X188973577Y-121015000D01*
X189526423Y-121015000D01*
X189665250Y-121028673D01*
X189665250Y-121028673D01*
G37*
G36*
X119289581Y-121045383D02*
G01*
X119395994Y-121066550D01*
X119546353Y-121128831D01*
X119681672Y-121219248D01*
X119796752Y-121334328D01*
X119887169Y-121469647D01*
X119949450Y-121620006D01*
X119970617Y-121726419D01*
X119980791Y-121777567D01*
X119981200Y-121779626D01*
X119981200Y-121942374D01*
X119949450Y-122101994D01*
X119887169Y-122252353D01*
X119796752Y-122387672D01*
X119681672Y-122502752D01*
X119546353Y-122593169D01*
X119395994Y-122655450D01*
X119289581Y-122676617D01*
X119236375Y-122687200D01*
X119073625Y-122687200D01*
X119020419Y-122676617D01*
X118914006Y-122655450D01*
X118763647Y-122593169D01*
X118628328Y-122502752D01*
X118513248Y-122387672D01*
X118422831Y-122252353D01*
X118360550Y-122101994D01*
X118328800Y-121942374D01*
X118328800Y-121779626D01*
X118329210Y-121777567D01*
X118339383Y-121726419D01*
X118360550Y-121620006D01*
X118422831Y-121469647D01*
X118513248Y-121334328D01*
X118628328Y-121219248D01*
X118763647Y-121128831D01*
X118914006Y-121066550D01*
X119020419Y-121045383D01*
X119073625Y-121034800D01*
X119236375Y-121034800D01*
X119289581Y-121045383D01*
X119289581Y-121045383D01*
G37*
G36*
X162469781Y-121045383D02*
G01*
X162576194Y-121066550D01*
X162726553Y-121128831D01*
X162861872Y-121219248D01*
X162976952Y-121334328D01*
X163067369Y-121469647D01*
X163129650Y-121620006D01*
X163150817Y-121726419D01*
X163160991Y-121777567D01*
X163161400Y-121779626D01*
X163161400Y-121942374D01*
X163129650Y-122101994D01*
X163067369Y-122252353D01*
X162976952Y-122387672D01*
X162861872Y-122502752D01*
X162726553Y-122593169D01*
X162576194Y-122655450D01*
X162469781Y-122676617D01*
X162416575Y-122687200D01*
X162253825Y-122687200D01*
X162200619Y-122676617D01*
X162094206Y-122655450D01*
X161943847Y-122593169D01*
X161808528Y-122502752D01*
X161693448Y-122387672D01*
X161603031Y-122252353D01*
X161540750Y-122101994D01*
X161509000Y-121942374D01*
X161509000Y-121779626D01*
X161509410Y-121777567D01*
X161519583Y-121726419D01*
X161540750Y-121620006D01*
X161603031Y-121469647D01*
X161693448Y-121334328D01*
X161808528Y-121219248D01*
X161943847Y-121128831D01*
X162094206Y-121066550D01*
X162200619Y-121045383D01*
X162253825Y-121034800D01*
X162416575Y-121034800D01*
X162469781Y-121045383D01*
X162469781Y-121045383D01*
G37*
G36*
X165009581Y-121045383D02*
G01*
X165115994Y-121066550D01*
X165266353Y-121128831D01*
X165401672Y-121219248D01*
X165516752Y-121334328D01*
X165607169Y-121469647D01*
X165669450Y-121620006D01*
X165690617Y-121726419D01*
X165700791Y-121777567D01*
X165701200Y-121779626D01*
X165701200Y-121942374D01*
X165669450Y-122101994D01*
X165607169Y-122252353D01*
X165516752Y-122387672D01*
X165401672Y-122502752D01*
X165266353Y-122593169D01*
X165115994Y-122655450D01*
X165009581Y-122676617D01*
X164956375Y-122687200D01*
X164793625Y-122687200D01*
X164740419Y-122676617D01*
X164634006Y-122655450D01*
X164483647Y-122593169D01*
X164348328Y-122502752D01*
X164233248Y-122387672D01*
X164142831Y-122252353D01*
X164080550Y-122101994D01*
X164048800Y-121942374D01*
X164048800Y-121779626D01*
X164049210Y-121777567D01*
X164059383Y-121726419D01*
X164080550Y-121620006D01*
X164142831Y-121469647D01*
X164233248Y-121334328D01*
X164348328Y-121219248D01*
X164483647Y-121128831D01*
X164634006Y-121066550D01*
X164740419Y-121045383D01*
X164793625Y-121034800D01*
X164956375Y-121034800D01*
X165009581Y-121045383D01*
X165009581Y-121045383D01*
G37*
G36*
X121829581Y-121045383D02*
G01*
X121935994Y-121066550D01*
X122086353Y-121128831D01*
X122221672Y-121219248D01*
X122336752Y-121334328D01*
X122427169Y-121469647D01*
X122489450Y-121620006D01*
X122510617Y-121726419D01*
X122520791Y-121777567D01*
X122521200Y-121779626D01*
X122521200Y-121942374D01*
X122489450Y-122101994D01*
X122427169Y-122252353D01*
X122336752Y-122387672D01*
X122221672Y-122502752D01*
X122086353Y-122593169D01*
X121935994Y-122655450D01*
X121829581Y-122676617D01*
X121776375Y-122687200D01*
X121613625Y-122687200D01*
X121560419Y-122676617D01*
X121454006Y-122655450D01*
X121303647Y-122593169D01*
X121168328Y-122502752D01*
X121053248Y-122387672D01*
X120962831Y-122252353D01*
X120900550Y-122101994D01*
X120868800Y-121942374D01*
X120868800Y-121779626D01*
X120869210Y-121777567D01*
X120879383Y-121726419D01*
X120900550Y-121620006D01*
X120962831Y-121469647D01*
X121053248Y-121334328D01*
X121168328Y-121219248D01*
X121303647Y-121128831D01*
X121454006Y-121066550D01*
X121560419Y-121045383D01*
X121613625Y-121034800D01*
X121776375Y-121034800D01*
X121829581Y-121045383D01*
X121829581Y-121045383D01*
G37*
G36*
X180531422Y-119939867D02*
G01*
X180606867Y-119962753D01*
X180725109Y-119998621D01*
X180903610Y-120094032D01*
X180929708Y-120115450D01*
X181060068Y-120222432D01*
X181188469Y-120378891D01*
X181283878Y-120557388D01*
X181342633Y-120751077D01*
X181357500Y-120902026D01*
X181357500Y-121097973D01*
X181342633Y-121248922D01*
X181313256Y-121345766D01*
X181283879Y-121442609D01*
X181188468Y-121621110D01*
X181155021Y-121661866D01*
X181060068Y-121777568D01*
X180903609Y-121905969D01*
X180835500Y-121942374D01*
X180725110Y-122001379D01*
X180628267Y-122030756D01*
X180531423Y-122060133D01*
X180330000Y-122079971D01*
X180128578Y-122060133D01*
X180031734Y-122030756D01*
X179934891Y-122001379D01*
X179824501Y-121942374D01*
X179756392Y-121905969D01*
X179599932Y-121777568D01*
X179471531Y-121621109D01*
X179376122Y-121442612D01*
X179317367Y-121248923D01*
X179302500Y-121097974D01*
X179302500Y-120902027D01*
X179317367Y-120751078D01*
X179376122Y-120557389D01*
X179471531Y-120378892D01*
X179471532Y-120378890D01*
X179539786Y-120295722D01*
X179599932Y-120222432D01*
X179756391Y-120094031D01*
X179934888Y-119998622D01*
X179934890Y-119998621D01*
X180053132Y-119962753D01*
X180128577Y-119939867D01*
X180330000Y-119920029D01*
X180531422Y-119939867D01*
X180531422Y-119939867D01*
G37*
G36*
X177991422Y-119939867D02*
G01*
X178066867Y-119962753D01*
X178185109Y-119998621D01*
X178363610Y-120094032D01*
X178389708Y-120115450D01*
X178520068Y-120222432D01*
X178648469Y-120378891D01*
X178743878Y-120557388D01*
X178802633Y-120751077D01*
X178817500Y-120902026D01*
X178817500Y-121097973D01*
X178802633Y-121248922D01*
X178773256Y-121345766D01*
X178743879Y-121442609D01*
X178648468Y-121621110D01*
X178615021Y-121661866D01*
X178520068Y-121777568D01*
X178363609Y-121905969D01*
X178295500Y-121942374D01*
X178185110Y-122001379D01*
X178088267Y-122030756D01*
X177991423Y-122060133D01*
X177790000Y-122079971D01*
X177588578Y-122060133D01*
X177491734Y-122030756D01*
X177394891Y-122001379D01*
X177284501Y-121942374D01*
X177216392Y-121905969D01*
X177059932Y-121777568D01*
X176931531Y-121621109D01*
X176836122Y-121442612D01*
X176777367Y-121248923D01*
X176762500Y-121097974D01*
X176762500Y-120902027D01*
X176777367Y-120751078D01*
X176836122Y-120557389D01*
X176931531Y-120378892D01*
X176931532Y-120378890D01*
X176999786Y-120295722D01*
X177059932Y-120222432D01*
X177216391Y-120094031D01*
X177394888Y-119998622D01*
X177394890Y-119998621D01*
X177513132Y-119962753D01*
X177588577Y-119939867D01*
X177790000Y-119920029D01*
X177991422Y-119939867D01*
X177991422Y-119939867D01*
G37*
G36*
X176277500Y-122075000D02*
G01*
X174222500Y-122075000D01*
X174222500Y-119925000D01*
X176277500Y-119925000D01*
X176277500Y-122075000D01*
X176277500Y-122075000D01*
G37*
G36*
X115104278Y-120129665D02*
G01*
X115143924Y-120141692D01*
X115180463Y-120161223D01*
X115212492Y-120187508D01*
X115238777Y-120219537D01*
X115258308Y-120256076D01*
X115270335Y-120295722D01*
X115275000Y-120343094D01*
X115275000Y-121206906D01*
X115270335Y-121254278D01*
X115258308Y-121293924D01*
X115238777Y-121330463D01*
X115212492Y-121362492D01*
X115180463Y-121388777D01*
X115143924Y-121408308D01*
X115104278Y-121420335D01*
X115056906Y-121425000D01*
X113943094Y-121425000D01*
X113895722Y-121420335D01*
X113856076Y-121408308D01*
X113819537Y-121388777D01*
X113787508Y-121362492D01*
X113761223Y-121330463D01*
X113741692Y-121293924D01*
X113729665Y-121254278D01*
X113725000Y-121206906D01*
X113725000Y-120343094D01*
X113729665Y-120295722D01*
X113741692Y-120256076D01*
X113761223Y-120219537D01*
X113787508Y-120187508D01*
X113819537Y-120161223D01*
X113856076Y-120141692D01*
X113895722Y-120129665D01*
X113943094Y-120125000D01*
X115056906Y-120125000D01*
X115104278Y-120129665D01*
X115104278Y-120129665D01*
G37*
G36*
X189665250Y-118488673D02*
G01*
X189843388Y-118542711D01*
X190007553Y-118630459D01*
X190151449Y-118748551D01*
X190269541Y-118892447D01*
X190357289Y-119056612D01*
X190411327Y-119234750D01*
X190429572Y-119420000D01*
X190411327Y-119605250D01*
X190357289Y-119783388D01*
X190269541Y-119947553D01*
X190151449Y-120091449D01*
X190007553Y-120209541D01*
X189843388Y-120297289D01*
X189665250Y-120351327D01*
X189526423Y-120365000D01*
X188973577Y-120365000D01*
X188834750Y-120351327D01*
X188656612Y-120297289D01*
X188492447Y-120209541D01*
X188348551Y-120091449D01*
X188230459Y-119947553D01*
X188142711Y-119783388D01*
X188088673Y-119605250D01*
X188070428Y-119420000D01*
X188088673Y-119234750D01*
X188142711Y-119056612D01*
X188230459Y-118892447D01*
X188348551Y-118748551D01*
X188492447Y-118630459D01*
X188656612Y-118542711D01*
X188834750Y-118488673D01*
X188973577Y-118475000D01*
X189526423Y-118475000D01*
X189665250Y-118488673D01*
X189665250Y-118488673D01*
G37*
G36*
X119289581Y-118505383D02*
G01*
X119395994Y-118526550D01*
X119546353Y-118588831D01*
X119681672Y-118679248D01*
X119796752Y-118794328D01*
X119887169Y-118929647D01*
X119949450Y-119080006D01*
X119981200Y-119239626D01*
X119981200Y-119402374D01*
X119949450Y-119561994D01*
X119887169Y-119712353D01*
X119796752Y-119847672D01*
X119681672Y-119962752D01*
X119546353Y-120053169D01*
X119395994Y-120115450D01*
X119289581Y-120136617D01*
X119236375Y-120147200D01*
X119073625Y-120147200D01*
X119020419Y-120136617D01*
X118914006Y-120115450D01*
X118763647Y-120053169D01*
X118628328Y-119962752D01*
X118513248Y-119847672D01*
X118422831Y-119712353D01*
X118360550Y-119561994D01*
X118328800Y-119402374D01*
X118328800Y-119239626D01*
X118360550Y-119080006D01*
X118422831Y-118929647D01*
X118513248Y-118794328D01*
X118628328Y-118679248D01*
X118763647Y-118588831D01*
X118914006Y-118526550D01*
X119020419Y-118505383D01*
X119073625Y-118494800D01*
X119236375Y-118494800D01*
X119289581Y-118505383D01*
X119289581Y-118505383D01*
G37*
G36*
X165009581Y-118505383D02*
G01*
X165115994Y-118526550D01*
X165266353Y-118588831D01*
X165401672Y-118679248D01*
X165516752Y-118794328D01*
X165607169Y-118929647D01*
X165669450Y-119080006D01*
X165701200Y-119239626D01*
X165701200Y-119402374D01*
X165669450Y-119561994D01*
X165607169Y-119712353D01*
X165516752Y-119847672D01*
X165401672Y-119962752D01*
X165266353Y-120053169D01*
X165115994Y-120115450D01*
X165009581Y-120136617D01*
X164956375Y-120147200D01*
X164793625Y-120147200D01*
X164740419Y-120136617D01*
X164634006Y-120115450D01*
X164483647Y-120053169D01*
X164348328Y-119962752D01*
X164233248Y-119847672D01*
X164142831Y-119712353D01*
X164080550Y-119561994D01*
X164048800Y-119402374D01*
X164048800Y-119239626D01*
X164080550Y-119080006D01*
X164142831Y-118929647D01*
X164233248Y-118794328D01*
X164348328Y-118679248D01*
X164483647Y-118588831D01*
X164634006Y-118526550D01*
X164740419Y-118505383D01*
X164793625Y-118494800D01*
X164956375Y-118494800D01*
X165009581Y-118505383D01*
X165009581Y-118505383D01*
G37*
G36*
X121829581Y-118505383D02*
G01*
X121935994Y-118526550D01*
X122086353Y-118588831D01*
X122221672Y-118679248D01*
X122336752Y-118794328D01*
X122427169Y-118929647D01*
X122489450Y-119080006D01*
X122521200Y-119239626D01*
X122521200Y-119402374D01*
X122489450Y-119561994D01*
X122427169Y-119712353D01*
X122336752Y-119847672D01*
X122221672Y-119962752D01*
X122086353Y-120053169D01*
X121935994Y-120115450D01*
X121829581Y-120136617D01*
X121776375Y-120147200D01*
X121613625Y-120147200D01*
X121560419Y-120136617D01*
X121454006Y-120115450D01*
X121303647Y-120053169D01*
X121168328Y-119962752D01*
X121053248Y-119847672D01*
X120962831Y-119712353D01*
X120900550Y-119561994D01*
X120868800Y-119402374D01*
X120868800Y-119239626D01*
X120900550Y-119080006D01*
X120962831Y-118929647D01*
X121053248Y-118794328D01*
X121168328Y-118679248D01*
X121303647Y-118588831D01*
X121454006Y-118526550D01*
X121560419Y-118505383D01*
X121613625Y-118494800D01*
X121776375Y-118494800D01*
X121829581Y-118505383D01*
X121829581Y-118505383D01*
G37*
G36*
X162469781Y-118505383D02*
G01*
X162576194Y-118526550D01*
X162726553Y-118588831D01*
X162861872Y-118679248D01*
X162976952Y-118794328D01*
X163067369Y-118929647D01*
X163129650Y-119080006D01*
X163161400Y-119239626D01*
X163161400Y-119402374D01*
X163129650Y-119561994D01*
X163067369Y-119712353D01*
X162976952Y-119847672D01*
X162861872Y-119962752D01*
X162726553Y-120053169D01*
X162576194Y-120115450D01*
X162469781Y-120136617D01*
X162416575Y-120147200D01*
X162253825Y-120147200D01*
X162200619Y-120136617D01*
X162094206Y-120115450D01*
X161943847Y-120053169D01*
X161808528Y-119962752D01*
X161693448Y-119847672D01*
X161603031Y-119712353D01*
X161540750Y-119561994D01*
X161509000Y-119402374D01*
X161509000Y-119239626D01*
X161540750Y-119080006D01*
X161603031Y-118929647D01*
X161693448Y-118794328D01*
X161808528Y-118679248D01*
X161943847Y-118588831D01*
X162094206Y-118526550D01*
X162200619Y-118505383D01*
X162253825Y-118494800D01*
X162416575Y-118494800D01*
X162469781Y-118505383D01*
X162469781Y-118505383D01*
G37*
G36*
X115104278Y-118079665D02*
G01*
X115143924Y-118091692D01*
X115180463Y-118111223D01*
X115212492Y-118137508D01*
X115238777Y-118169537D01*
X115258308Y-118206076D01*
X115270335Y-118245722D01*
X115275000Y-118293094D01*
X115275000Y-119156906D01*
X115270335Y-119204278D01*
X115258308Y-119243924D01*
X115238777Y-119280463D01*
X115212492Y-119312492D01*
X115180463Y-119338777D01*
X115143924Y-119358308D01*
X115104278Y-119370335D01*
X115056906Y-119375000D01*
X113943094Y-119375000D01*
X113895722Y-119370335D01*
X113856076Y-119358308D01*
X113819537Y-119338777D01*
X113787508Y-119312492D01*
X113761223Y-119280463D01*
X113741692Y-119243924D01*
X113729665Y-119204278D01*
X113725000Y-119156906D01*
X113725000Y-118293094D01*
X113729665Y-118245722D01*
X113741692Y-118206076D01*
X113761223Y-118169537D01*
X113787508Y-118137508D01*
X113819537Y-118111223D01*
X113856076Y-118091692D01*
X113895722Y-118079665D01*
X113943094Y-118075000D01*
X115056906Y-118075000D01*
X115104278Y-118079665D01*
X115104278Y-118079665D01*
G37*
G36*
X189665250Y-115948673D02*
G01*
X189843388Y-116002711D01*
X190007553Y-116090459D01*
X190151449Y-116208551D01*
X190269541Y-116352447D01*
X190357289Y-116516612D01*
X190411327Y-116694750D01*
X190429572Y-116880000D01*
X190411327Y-117065250D01*
X190357289Y-117243388D01*
X190269541Y-117407553D01*
X190151449Y-117551449D01*
X190007553Y-117669541D01*
X189843388Y-117757289D01*
X189665250Y-117811327D01*
X189526423Y-117825000D01*
X188973577Y-117825000D01*
X188834750Y-117811327D01*
X188656612Y-117757289D01*
X188492447Y-117669541D01*
X188348551Y-117551449D01*
X188230459Y-117407553D01*
X188142711Y-117243388D01*
X188088673Y-117065250D01*
X188070428Y-116880000D01*
X188088673Y-116694750D01*
X188142711Y-116516612D01*
X188230459Y-116352447D01*
X188348551Y-116208551D01*
X188492447Y-116090459D01*
X188656612Y-116002711D01*
X188834750Y-115948673D01*
X188973577Y-115935000D01*
X189526423Y-115935000D01*
X189665250Y-115948673D01*
X189665250Y-115948673D01*
G37*
G36*
X121829581Y-115965383D02*
G01*
X121935994Y-115986550D01*
X122086353Y-116048831D01*
X122221672Y-116139248D01*
X122336752Y-116254328D01*
X122427169Y-116389647D01*
X122489450Y-116540006D01*
X122521200Y-116699626D01*
X122521200Y-116862374D01*
X122489450Y-117021994D01*
X122427169Y-117172353D01*
X122336752Y-117307672D01*
X122221672Y-117422752D01*
X122086353Y-117513169D01*
X121935994Y-117575450D01*
X121829581Y-117596617D01*
X121776375Y-117607200D01*
X121613625Y-117607200D01*
X121560419Y-117596617D01*
X121454006Y-117575450D01*
X121303647Y-117513169D01*
X121168328Y-117422752D01*
X121053248Y-117307672D01*
X120962831Y-117172353D01*
X120900550Y-117021994D01*
X120868800Y-116862374D01*
X120868800Y-116699626D01*
X120900550Y-116540006D01*
X120962831Y-116389647D01*
X121053248Y-116254328D01*
X121168328Y-116139248D01*
X121303647Y-116048831D01*
X121454006Y-115986550D01*
X121560419Y-115965383D01*
X121613625Y-115954800D01*
X121776375Y-115954800D01*
X121829581Y-115965383D01*
X121829581Y-115965383D01*
G37*
G36*
X162469781Y-115965383D02*
G01*
X162576194Y-115986550D01*
X162726553Y-116048831D01*
X162861872Y-116139248D01*
X162976952Y-116254328D01*
X163067369Y-116389647D01*
X163129650Y-116540006D01*
X163161400Y-116699626D01*
X163161400Y-116862374D01*
X163129650Y-117021994D01*
X163067369Y-117172353D01*
X162976952Y-117307672D01*
X162861872Y-117422752D01*
X162726553Y-117513169D01*
X162576194Y-117575450D01*
X162469781Y-117596617D01*
X162416575Y-117607200D01*
X162253825Y-117607200D01*
X162200619Y-117596617D01*
X162094206Y-117575450D01*
X161943847Y-117513169D01*
X161808528Y-117422752D01*
X161693448Y-117307672D01*
X161603031Y-117172353D01*
X161540750Y-117021994D01*
X161509000Y-116862374D01*
X161509000Y-116699626D01*
X161540750Y-116540006D01*
X161603031Y-116389647D01*
X161693448Y-116254328D01*
X161808528Y-116139248D01*
X161943847Y-116048831D01*
X162094206Y-115986550D01*
X162200619Y-115965383D01*
X162253825Y-115954800D01*
X162416575Y-115954800D01*
X162469781Y-115965383D01*
X162469781Y-115965383D01*
G37*
G36*
X165009581Y-115965383D02*
G01*
X165115994Y-115986550D01*
X165266353Y-116048831D01*
X165401672Y-116139248D01*
X165516752Y-116254328D01*
X165607169Y-116389647D01*
X165669450Y-116540006D01*
X165701200Y-116699626D01*
X165701200Y-116862374D01*
X165669450Y-117021994D01*
X165607169Y-117172353D01*
X165516752Y-117307672D01*
X165401672Y-117422752D01*
X165266353Y-117513169D01*
X165115994Y-117575450D01*
X165009581Y-117596617D01*
X164956375Y-117607200D01*
X164793625Y-117607200D01*
X164740419Y-117596617D01*
X164634006Y-117575450D01*
X164483647Y-117513169D01*
X164348328Y-117422752D01*
X164233248Y-117307672D01*
X164142831Y-117172353D01*
X164080550Y-117021994D01*
X164048800Y-116862374D01*
X164048800Y-116699626D01*
X164080550Y-116540006D01*
X164142831Y-116389647D01*
X164233248Y-116254328D01*
X164348328Y-116139248D01*
X164483647Y-116048831D01*
X164634006Y-115986550D01*
X164740419Y-115965383D01*
X164793625Y-115954800D01*
X164956375Y-115954800D01*
X165009581Y-115965383D01*
X165009581Y-115965383D01*
G37*
G36*
X119289581Y-115965383D02*
G01*
X119395994Y-115986550D01*
X119546353Y-116048831D01*
X119681672Y-116139248D01*
X119796752Y-116254328D01*
X119887169Y-116389647D01*
X119949450Y-116540006D01*
X119981200Y-116699626D01*
X119981200Y-116862374D01*
X119949450Y-117021994D01*
X119887169Y-117172353D01*
X119796752Y-117307672D01*
X119681672Y-117422752D01*
X119546353Y-117513169D01*
X119395994Y-117575450D01*
X119289581Y-117596617D01*
X119236375Y-117607200D01*
X119073625Y-117607200D01*
X119020419Y-117596617D01*
X118914006Y-117575450D01*
X118763647Y-117513169D01*
X118628328Y-117422752D01*
X118513248Y-117307672D01*
X118422831Y-117172353D01*
X118360550Y-117021994D01*
X118328800Y-116862374D01*
X118328800Y-116699626D01*
X118360550Y-116540006D01*
X118422831Y-116389647D01*
X118513248Y-116254328D01*
X118628328Y-116139248D01*
X118763647Y-116048831D01*
X118914006Y-115986550D01*
X119020419Y-115965383D01*
X119073625Y-115954800D01*
X119236375Y-115954800D01*
X119289581Y-115965383D01*
X119289581Y-115965383D01*
G37*
G36*
X127104278Y-115629665D02*
G01*
X127143924Y-115641692D01*
X127180463Y-115661223D01*
X127212492Y-115687508D01*
X127238777Y-115719537D01*
X127258308Y-115756076D01*
X127270335Y-115795722D01*
X127275000Y-115843094D01*
X127275000Y-116706906D01*
X127270335Y-116754278D01*
X127258308Y-116793924D01*
X127238777Y-116830463D01*
X127212492Y-116862492D01*
X127180463Y-116888777D01*
X127143924Y-116908308D01*
X127104278Y-116920335D01*
X127056906Y-116925000D01*
X125943094Y-116925000D01*
X125895722Y-116920335D01*
X125856076Y-116908308D01*
X125819537Y-116888777D01*
X125787508Y-116862492D01*
X125761223Y-116830463D01*
X125741692Y-116793924D01*
X125729665Y-116754278D01*
X125725000Y-116706906D01*
X125725000Y-115843094D01*
X125729665Y-115795722D01*
X125741692Y-115756076D01*
X125761223Y-115719537D01*
X125787508Y-115687508D01*
X125819537Y-115661223D01*
X125856076Y-115641692D01*
X125895722Y-115629665D01*
X125943094Y-115625000D01*
X127056906Y-115625000D01*
X127104278Y-115629665D01*
X127104278Y-115629665D01*
G37*
G36*
X180531422Y-113939867D02*
G01*
X180628266Y-113969244D01*
X180725109Y-113998621D01*
X180903610Y-114094032D01*
X180944366Y-114127479D01*
X181060068Y-114222432D01*
X181188469Y-114378891D01*
X181243578Y-114481992D01*
X181283879Y-114557390D01*
X181310432Y-114644924D01*
X181342633Y-114751077D01*
X181357500Y-114902026D01*
X181357500Y-115097973D01*
X181342633Y-115248922D01*
X181342632Y-115248924D01*
X181283879Y-115442609D01*
X181188468Y-115621110D01*
X181167621Y-115646512D01*
X181060068Y-115777568D01*
X180903609Y-115905969D01*
X180752853Y-115986550D01*
X180725110Y-116001379D01*
X180628267Y-116030756D01*
X180531423Y-116060133D01*
X180330000Y-116079971D01*
X180128578Y-116060133D01*
X180031733Y-116030755D01*
X179934891Y-116001379D01*
X179907148Y-115986550D01*
X179756392Y-115905969D01*
X179599932Y-115777568D01*
X179471531Y-115621109D01*
X179376122Y-115442612D01*
X179317367Y-115248923D01*
X179302500Y-115097974D01*
X179302500Y-114902027D01*
X179317367Y-114751078D01*
X179348779Y-114647526D01*
X179376121Y-114557391D01*
X179471532Y-114378890D01*
X179504979Y-114338134D01*
X179599932Y-114222432D01*
X179756391Y-114094031D01*
X179934888Y-113998622D01*
X179934890Y-113998621D01*
X180031732Y-113969245D01*
X180128577Y-113939867D01*
X180330000Y-113920029D01*
X180531422Y-113939867D01*
X180531422Y-113939867D01*
G37*
G36*
X177991422Y-113939867D02*
G01*
X178088266Y-113969244D01*
X178185109Y-113998621D01*
X178363610Y-114094032D01*
X178404366Y-114127479D01*
X178520068Y-114222432D01*
X178648469Y-114378891D01*
X178703578Y-114481992D01*
X178743879Y-114557390D01*
X178770432Y-114644924D01*
X178802633Y-114751077D01*
X178817500Y-114902026D01*
X178817500Y-115097973D01*
X178802633Y-115248922D01*
X178802632Y-115248924D01*
X178743879Y-115442609D01*
X178648468Y-115621110D01*
X178627621Y-115646512D01*
X178520068Y-115777568D01*
X178363609Y-115905969D01*
X178212853Y-115986550D01*
X178185110Y-116001379D01*
X178088267Y-116030756D01*
X177991423Y-116060133D01*
X177790000Y-116079971D01*
X177588578Y-116060133D01*
X177491733Y-116030755D01*
X177394891Y-116001379D01*
X177367148Y-115986550D01*
X177216392Y-115905969D01*
X177059932Y-115777568D01*
X176931531Y-115621109D01*
X176836122Y-115442612D01*
X176777367Y-115248923D01*
X176762500Y-115097974D01*
X176762500Y-114902027D01*
X176777367Y-114751078D01*
X176808779Y-114647526D01*
X176836121Y-114557391D01*
X176931532Y-114378890D01*
X176964979Y-114338134D01*
X177059932Y-114222432D01*
X177216391Y-114094031D01*
X177394888Y-113998622D01*
X177394890Y-113998621D01*
X177491732Y-113969245D01*
X177588577Y-113939867D01*
X177790000Y-113920029D01*
X177991422Y-113939867D01*
X177991422Y-113939867D01*
G37*
G36*
X176277500Y-116075000D02*
G01*
X174222500Y-116075000D01*
X174222500Y-113925000D01*
X176277500Y-113925000D01*
X176277500Y-116075000D01*
X176277500Y-116075000D01*
G37*
G36*
X121829581Y-113425383D02*
G01*
X121935994Y-113446550D01*
X122086353Y-113508831D01*
X122221672Y-113599248D01*
X122336752Y-113714328D01*
X122427169Y-113849647D01*
X122489450Y-114000006D01*
X122521200Y-114159626D01*
X122521200Y-114322374D01*
X122489450Y-114481994D01*
X122427169Y-114632353D01*
X122336752Y-114767672D01*
X122221672Y-114882752D01*
X122086353Y-114973169D01*
X121935994Y-115035450D01*
X121829581Y-115056617D01*
X121776375Y-115067200D01*
X121613625Y-115067200D01*
X121560419Y-115056617D01*
X121454006Y-115035450D01*
X121303647Y-114973169D01*
X121168328Y-114882752D01*
X121053248Y-114767672D01*
X120962831Y-114632353D01*
X120900550Y-114481994D01*
X120868800Y-114322374D01*
X120868800Y-114159626D01*
X120900550Y-114000006D01*
X120962831Y-113849647D01*
X121053248Y-113714328D01*
X121168328Y-113599248D01*
X121303647Y-113508831D01*
X121454006Y-113446550D01*
X121560419Y-113425383D01*
X121613625Y-113414800D01*
X121776375Y-113414800D01*
X121829581Y-113425383D01*
X121829581Y-113425383D01*
G37*
G36*
X165009581Y-113425383D02*
G01*
X165115994Y-113446550D01*
X165266353Y-113508831D01*
X165401672Y-113599248D01*
X165516752Y-113714328D01*
X165607169Y-113849647D01*
X165669450Y-114000006D01*
X165701200Y-114159626D01*
X165701200Y-114322374D01*
X165669450Y-114481994D01*
X165607169Y-114632353D01*
X165516752Y-114767672D01*
X165401672Y-114882752D01*
X165266353Y-114973169D01*
X165115994Y-115035450D01*
X165009581Y-115056617D01*
X164956375Y-115067200D01*
X164793625Y-115067200D01*
X164740419Y-115056617D01*
X164634006Y-115035450D01*
X164483647Y-114973169D01*
X164348328Y-114882752D01*
X164233248Y-114767672D01*
X164142831Y-114632353D01*
X164080550Y-114481994D01*
X164048800Y-114322374D01*
X164048800Y-114159626D01*
X164080550Y-114000006D01*
X164142831Y-113849647D01*
X164233248Y-113714328D01*
X164348328Y-113599248D01*
X164483647Y-113508831D01*
X164634006Y-113446550D01*
X164740419Y-113425383D01*
X164793625Y-113414800D01*
X164956375Y-113414800D01*
X165009581Y-113425383D01*
X165009581Y-113425383D01*
G37*
G36*
X162469781Y-113425383D02*
G01*
X162576194Y-113446550D01*
X162726553Y-113508831D01*
X162861872Y-113599248D01*
X162976952Y-113714328D01*
X163067369Y-113849647D01*
X163129650Y-114000006D01*
X163161400Y-114159626D01*
X163161400Y-114322374D01*
X163129650Y-114481994D01*
X163067369Y-114632353D01*
X162976952Y-114767672D01*
X162861872Y-114882752D01*
X162726553Y-114973169D01*
X162576194Y-115035450D01*
X162469781Y-115056617D01*
X162416575Y-115067200D01*
X162253825Y-115067200D01*
X162200619Y-115056617D01*
X162094206Y-115035450D01*
X161943847Y-114973169D01*
X161808528Y-114882752D01*
X161693448Y-114767672D01*
X161603031Y-114632353D01*
X161540750Y-114481994D01*
X161509000Y-114322374D01*
X161509000Y-114159626D01*
X161540750Y-114000006D01*
X161603031Y-113849647D01*
X161693448Y-113714328D01*
X161808528Y-113599248D01*
X161943847Y-113508831D01*
X162094206Y-113446550D01*
X162200619Y-113425383D01*
X162253825Y-113414800D01*
X162416575Y-113414800D01*
X162469781Y-113425383D01*
X162469781Y-113425383D01*
G37*
G36*
X119289581Y-113425383D02*
G01*
X119395994Y-113446550D01*
X119546353Y-113508831D01*
X119681672Y-113599248D01*
X119796752Y-113714328D01*
X119887169Y-113849647D01*
X119949450Y-114000006D01*
X119981200Y-114159626D01*
X119981200Y-114322374D01*
X119949450Y-114481994D01*
X119887169Y-114632353D01*
X119796752Y-114767672D01*
X119681672Y-114882752D01*
X119546353Y-114973169D01*
X119395994Y-115035450D01*
X119289581Y-115056617D01*
X119236375Y-115067200D01*
X119073625Y-115067200D01*
X119020419Y-115056617D01*
X118914006Y-115035450D01*
X118763647Y-114973169D01*
X118628328Y-114882752D01*
X118513248Y-114767672D01*
X118422831Y-114632353D01*
X118360550Y-114481994D01*
X118328800Y-114322374D01*
X118328800Y-114159626D01*
X118360550Y-114000006D01*
X118422831Y-113849647D01*
X118513248Y-113714328D01*
X118628328Y-113599248D01*
X118763647Y-113508831D01*
X118914006Y-113446550D01*
X119020419Y-113425383D01*
X119073625Y-113414800D01*
X119236375Y-113414800D01*
X119289581Y-113425383D01*
X119289581Y-113425383D01*
G37*
G36*
X127104278Y-113579665D02*
G01*
X127143924Y-113591692D01*
X127180463Y-113611223D01*
X127212492Y-113637508D01*
X127238777Y-113669537D01*
X127258308Y-113706076D01*
X127270335Y-113745722D01*
X127275000Y-113793094D01*
X127275000Y-114656906D01*
X127270335Y-114704278D01*
X127258308Y-114743924D01*
X127238777Y-114780463D01*
X127212492Y-114812492D01*
X127180463Y-114838777D01*
X127143924Y-114858308D01*
X127104278Y-114870335D01*
X127056906Y-114875000D01*
X125943094Y-114875000D01*
X125895722Y-114870335D01*
X125856076Y-114858308D01*
X125819537Y-114838777D01*
X125787508Y-114812492D01*
X125761223Y-114780463D01*
X125741692Y-114743924D01*
X125729665Y-114704278D01*
X125725000Y-114656906D01*
X125725000Y-113793094D01*
X125729665Y-113745722D01*
X125741692Y-113706076D01*
X125761223Y-113669537D01*
X125787508Y-113637508D01*
X125819537Y-113611223D01*
X125856076Y-113591692D01*
X125895722Y-113579665D01*
X125943094Y-113575000D01*
X127056906Y-113575000D01*
X127104278Y-113579665D01*
X127104278Y-113579665D01*
G37*
G36*
X152464278Y-113480665D02*
G01*
X152503924Y-113492692D01*
X152540463Y-113512223D01*
X152572492Y-113538508D01*
X152598777Y-113570537D01*
X152618308Y-113607076D01*
X152630335Y-113646722D01*
X152635000Y-113694094D01*
X152635000Y-114557906D01*
X152630335Y-114605278D01*
X152618308Y-114644924D01*
X152598777Y-114681463D01*
X152572492Y-114713492D01*
X152540463Y-114739777D01*
X152503924Y-114759308D01*
X152464278Y-114771335D01*
X152416906Y-114776000D01*
X151303094Y-114776000D01*
X151255722Y-114771335D01*
X151216076Y-114759308D01*
X151179537Y-114739777D01*
X151147508Y-114713492D01*
X151121223Y-114681463D01*
X151101692Y-114644924D01*
X151089665Y-114605278D01*
X151085000Y-114557906D01*
X151085000Y-113694094D01*
X151089665Y-113646722D01*
X151101692Y-113607076D01*
X151121223Y-113570537D01*
X151147508Y-113538508D01*
X151179537Y-113512223D01*
X151216076Y-113492692D01*
X151255722Y-113480665D01*
X151303094Y-113476000D01*
X152416906Y-113476000D01*
X152464278Y-113480665D01*
X152464278Y-113480665D01*
G37*
G36*
X146705829Y-111499220D02*
G01*
X146791530Y-111507661D01*
X146956468Y-111557695D01*
X147108476Y-111638944D01*
X147241712Y-111748288D01*
X147351056Y-111881524D01*
X147432305Y-112033532D01*
X147482339Y-112198470D01*
X147499233Y-112370000D01*
X147482339Y-112541530D01*
X147432305Y-112706468D01*
X147351056Y-112858476D01*
X147241712Y-112991712D01*
X147108476Y-113101056D01*
X146956468Y-113182305D01*
X146791530Y-113232339D01*
X146705829Y-113240780D01*
X146662980Y-113245000D01*
X146577020Y-113245000D01*
X146534171Y-113240780D01*
X146448470Y-113232339D01*
X146283532Y-113182305D01*
X146131524Y-113101056D01*
X145998288Y-112991712D01*
X145888944Y-112858476D01*
X145807695Y-112706468D01*
X145757661Y-112541530D01*
X145740767Y-112370000D01*
X145757661Y-112198470D01*
X145807695Y-112033532D01*
X145888944Y-111881524D01*
X145998288Y-111748288D01*
X146131524Y-111638944D01*
X146283532Y-111557695D01*
X146448470Y-111507661D01*
X146534171Y-111499220D01*
X146577020Y-111495000D01*
X146662980Y-111495000D01*
X146705829Y-111499220D01*
X146705829Y-111499220D01*
G37*
G36*
X139085829Y-111499220D02*
G01*
X139171530Y-111507661D01*
X139336468Y-111557695D01*
X139488476Y-111638944D01*
X139621712Y-111748288D01*
X139731056Y-111881524D01*
X139812305Y-112033532D01*
X139862339Y-112198470D01*
X139879233Y-112370000D01*
X139862339Y-112541530D01*
X139812305Y-112706468D01*
X139731056Y-112858476D01*
X139621712Y-112991712D01*
X139488476Y-113101056D01*
X139336468Y-113182305D01*
X139171530Y-113232339D01*
X139085829Y-113240780D01*
X139042980Y-113245000D01*
X138957020Y-113245000D01*
X138914171Y-113240780D01*
X138828470Y-113232339D01*
X138663532Y-113182305D01*
X138511524Y-113101056D01*
X138378288Y-112991712D01*
X138268944Y-112858476D01*
X138187695Y-112706468D01*
X138137661Y-112541530D01*
X138120767Y-112370000D01*
X138137661Y-112198470D01*
X138187695Y-112033532D01*
X138268944Y-111881524D01*
X138378288Y-111748288D01*
X138511524Y-111638944D01*
X138663532Y-111557695D01*
X138828470Y-111507661D01*
X138914171Y-111499220D01*
X138957020Y-111495000D01*
X139042980Y-111495000D01*
X139085829Y-111499220D01*
X139085829Y-111499220D01*
G37*
G36*
X152464278Y-111430665D02*
G01*
X152503924Y-111442692D01*
X152540463Y-111462223D01*
X152572492Y-111488508D01*
X152598777Y-111520537D01*
X152618308Y-111557076D01*
X152630335Y-111596722D01*
X152635000Y-111644094D01*
X152635000Y-112507906D01*
X152630335Y-112555278D01*
X152618308Y-112594924D01*
X152598777Y-112631463D01*
X152572492Y-112663492D01*
X152540463Y-112689777D01*
X152503924Y-112709308D01*
X152464278Y-112721335D01*
X152416906Y-112726000D01*
X151303094Y-112726000D01*
X151255722Y-112721335D01*
X151216076Y-112709308D01*
X151179537Y-112689777D01*
X151147508Y-112663492D01*
X151121223Y-112631463D01*
X151101692Y-112594924D01*
X151089665Y-112555278D01*
X151085000Y-112507906D01*
X151085000Y-111644094D01*
X151089665Y-111596722D01*
X151101692Y-111557076D01*
X151121223Y-111520537D01*
X151147508Y-111488508D01*
X151179537Y-111462223D01*
X151216076Y-111442692D01*
X151255722Y-111430665D01*
X151303094Y-111426000D01*
X152416906Y-111426000D01*
X152464278Y-111430665D01*
X152464278Y-111430665D01*
G37*
G36*
X139085829Y-108959220D02*
G01*
X139171530Y-108967661D01*
X139336468Y-109017695D01*
X139488476Y-109098944D01*
X139621712Y-109208288D01*
X139731056Y-109341524D01*
X139812305Y-109493532D01*
X139862339Y-109658470D01*
X139879233Y-109830000D01*
X139862339Y-110001530D01*
X139812305Y-110166468D01*
X139731056Y-110318476D01*
X139621712Y-110451712D01*
X139488476Y-110561056D01*
X139336468Y-110642305D01*
X139171530Y-110692339D01*
X139085829Y-110700780D01*
X139042980Y-110705000D01*
X138957020Y-110705000D01*
X138914171Y-110700780D01*
X138828470Y-110692339D01*
X138663532Y-110642305D01*
X138511524Y-110561056D01*
X138378288Y-110451712D01*
X138268944Y-110318476D01*
X138187695Y-110166468D01*
X138137661Y-110001530D01*
X138120767Y-109830000D01*
X138137661Y-109658470D01*
X138187695Y-109493532D01*
X138268944Y-109341524D01*
X138378288Y-109208288D01*
X138511524Y-109098944D01*
X138663532Y-109017695D01*
X138828470Y-108967661D01*
X138914171Y-108959220D01*
X138957020Y-108955000D01*
X139042980Y-108955000D01*
X139085829Y-108959220D01*
X139085829Y-108959220D01*
G37*
G36*
X146705829Y-108959220D02*
G01*
X146791530Y-108967661D01*
X146956468Y-109017695D01*
X147108476Y-109098944D01*
X147241712Y-109208288D01*
X147351056Y-109341524D01*
X147432305Y-109493532D01*
X147482339Y-109658470D01*
X147499233Y-109830000D01*
X147482339Y-110001530D01*
X147432305Y-110166468D01*
X147351056Y-110318476D01*
X147241712Y-110451712D01*
X147108476Y-110561056D01*
X146956468Y-110642305D01*
X146791530Y-110692339D01*
X146705829Y-110700780D01*
X146662980Y-110705000D01*
X146577020Y-110705000D01*
X146534171Y-110700780D01*
X146448470Y-110692339D01*
X146283532Y-110642305D01*
X146131524Y-110561056D01*
X145998288Y-110451712D01*
X145888944Y-110318476D01*
X145807695Y-110166468D01*
X145757661Y-110001530D01*
X145740767Y-109830000D01*
X145757661Y-109658470D01*
X145807695Y-109493532D01*
X145888944Y-109341524D01*
X145998288Y-109208288D01*
X146131524Y-109098944D01*
X146283532Y-109017695D01*
X146448470Y-108967661D01*
X146534171Y-108959220D01*
X146577020Y-108955000D01*
X146662980Y-108955000D01*
X146705829Y-108959220D01*
X146705829Y-108959220D01*
G37*
G36*
X152464278Y-108645665D02*
G01*
X152503924Y-108657692D01*
X152540463Y-108677223D01*
X152572492Y-108703508D01*
X152598777Y-108735537D01*
X152618308Y-108772076D01*
X152630335Y-108811722D01*
X152635000Y-108859094D01*
X152635000Y-109722906D01*
X152630335Y-109770278D01*
X152618308Y-109809924D01*
X152598777Y-109846463D01*
X152572492Y-109878492D01*
X152540463Y-109904777D01*
X152503924Y-109924308D01*
X152464278Y-109936335D01*
X152416906Y-109941000D01*
X151303094Y-109941000D01*
X151255722Y-109936335D01*
X151216076Y-109924308D01*
X151179537Y-109904777D01*
X151147508Y-109878492D01*
X151121223Y-109846463D01*
X151101692Y-109809924D01*
X151089665Y-109770278D01*
X151085000Y-109722906D01*
X151085000Y-108859094D01*
X151089665Y-108811722D01*
X151101692Y-108772076D01*
X151121223Y-108735537D01*
X151147508Y-108703508D01*
X151179537Y-108677223D01*
X151216076Y-108657692D01*
X151255722Y-108645665D01*
X151303094Y-108641000D01*
X152416906Y-108641000D01*
X152464278Y-108645665D01*
X152464278Y-108645665D01*
G37*
G36*
X119704278Y-108229665D02*
G01*
X119743924Y-108241692D01*
X119780463Y-108261223D01*
X119812492Y-108287508D01*
X119838777Y-108319537D01*
X119858308Y-108356076D01*
X119870335Y-108395722D01*
X119875000Y-108443094D01*
X119875000Y-109556906D01*
X119870335Y-109604278D01*
X119858308Y-109643924D01*
X119838777Y-109680463D01*
X119812492Y-109712492D01*
X119780463Y-109738777D01*
X119743924Y-109758308D01*
X119704278Y-109770335D01*
X119656906Y-109775000D01*
X118793094Y-109775000D01*
X118745722Y-109770335D01*
X118706076Y-109758308D01*
X118669537Y-109738777D01*
X118637508Y-109712492D01*
X118611223Y-109680463D01*
X118591692Y-109643924D01*
X118579665Y-109604278D01*
X118575000Y-109556906D01*
X118575000Y-108443094D01*
X118579665Y-108395722D01*
X118591692Y-108356076D01*
X118611223Y-108319537D01*
X118637508Y-108287508D01*
X118669537Y-108261223D01*
X118706076Y-108241692D01*
X118745722Y-108229665D01*
X118793094Y-108225000D01*
X119656906Y-108225000D01*
X119704278Y-108229665D01*
X119704278Y-108229665D01*
G37*
G36*
X121754278Y-108229665D02*
G01*
X121793924Y-108241692D01*
X121830463Y-108261223D01*
X121862492Y-108287508D01*
X121888777Y-108319537D01*
X121908308Y-108356076D01*
X121920335Y-108395722D01*
X121925000Y-108443094D01*
X121925000Y-109556906D01*
X121920335Y-109604278D01*
X121908308Y-109643924D01*
X121888777Y-109680463D01*
X121862492Y-109712492D01*
X121830463Y-109738777D01*
X121793924Y-109758308D01*
X121754278Y-109770335D01*
X121706906Y-109775000D01*
X120843094Y-109775000D01*
X120795722Y-109770335D01*
X120756076Y-109758308D01*
X120719537Y-109738777D01*
X120687508Y-109712492D01*
X120661223Y-109680463D01*
X120641692Y-109643924D01*
X120629665Y-109604278D01*
X120625000Y-109556906D01*
X120625000Y-108443094D01*
X120629665Y-108395722D01*
X120641692Y-108356076D01*
X120661223Y-108319537D01*
X120687508Y-108287508D01*
X120719537Y-108261223D01*
X120756076Y-108241692D01*
X120795722Y-108229665D01*
X120843094Y-108225000D01*
X121706906Y-108225000D01*
X121754278Y-108229665D01*
X121754278Y-108229665D01*
G37*
G36*
X146705829Y-106419220D02*
G01*
X146791530Y-106427661D01*
X146956468Y-106477695D01*
X147108476Y-106558944D01*
X147241712Y-106668288D01*
X147351056Y-106801524D01*
X147432305Y-106953532D01*
X147482339Y-107118470D01*
X147499233Y-107290000D01*
X147482339Y-107461530D01*
X147432305Y-107626468D01*
X147351056Y-107778476D01*
X147241712Y-107911712D01*
X147108476Y-108021056D01*
X146956468Y-108102305D01*
X146791530Y-108152339D01*
X146705829Y-108160780D01*
X146662980Y-108165000D01*
X146577020Y-108165000D01*
X146534171Y-108160780D01*
X146448470Y-108152339D01*
X146283532Y-108102305D01*
X146131524Y-108021056D01*
X145998288Y-107911712D01*
X145888944Y-107778476D01*
X145807695Y-107626468D01*
X145757661Y-107461530D01*
X145740767Y-107290000D01*
X145757661Y-107118470D01*
X145807695Y-106953532D01*
X145888944Y-106801524D01*
X145998288Y-106668288D01*
X146131524Y-106558944D01*
X146283532Y-106477695D01*
X146448470Y-106427661D01*
X146534171Y-106419220D01*
X146577020Y-106415000D01*
X146662980Y-106415000D01*
X146705829Y-106419220D01*
X146705829Y-106419220D01*
G37*
G36*
X139085829Y-106419220D02*
G01*
X139171530Y-106427661D01*
X139336468Y-106477695D01*
X139488476Y-106558944D01*
X139621712Y-106668288D01*
X139731056Y-106801524D01*
X139812305Y-106953532D01*
X139862339Y-107118470D01*
X139879233Y-107290000D01*
X139862339Y-107461530D01*
X139812305Y-107626468D01*
X139731056Y-107778476D01*
X139621712Y-107911712D01*
X139488476Y-108021056D01*
X139336468Y-108102305D01*
X139171530Y-108152339D01*
X139085829Y-108160780D01*
X139042980Y-108165000D01*
X138957020Y-108165000D01*
X138914171Y-108160780D01*
X138828470Y-108152339D01*
X138663532Y-108102305D01*
X138511524Y-108021056D01*
X138378288Y-107911712D01*
X138268944Y-107778476D01*
X138187695Y-107626468D01*
X138137661Y-107461530D01*
X138120767Y-107290000D01*
X138137661Y-107118470D01*
X138187695Y-106953532D01*
X138268944Y-106801524D01*
X138378288Y-106668288D01*
X138511524Y-106558944D01*
X138663532Y-106477695D01*
X138828470Y-106427661D01*
X138914171Y-106419220D01*
X138957020Y-106415000D01*
X139042980Y-106415000D01*
X139085829Y-106419220D01*
X139085829Y-106419220D01*
G37*
G36*
X152464278Y-106595665D02*
G01*
X152503924Y-106607692D01*
X152540463Y-106627223D01*
X152572492Y-106653508D01*
X152598777Y-106685537D01*
X152618308Y-106722076D01*
X152630335Y-106761722D01*
X152635000Y-106809094D01*
X152635000Y-107672906D01*
X152630335Y-107720278D01*
X152618308Y-107759924D01*
X152598777Y-107796463D01*
X152572492Y-107828492D01*
X152540463Y-107854777D01*
X152503924Y-107874308D01*
X152464278Y-107886335D01*
X152416906Y-107891000D01*
X151303094Y-107891000D01*
X151255722Y-107886335D01*
X151216076Y-107874308D01*
X151179537Y-107854777D01*
X151147508Y-107828492D01*
X151121223Y-107796463D01*
X151101692Y-107759924D01*
X151089665Y-107720278D01*
X151085000Y-107672906D01*
X151085000Y-106809094D01*
X151089665Y-106761722D01*
X151101692Y-106722076D01*
X151121223Y-106685537D01*
X151147508Y-106653508D01*
X151179537Y-106627223D01*
X151216076Y-106607692D01*
X151255722Y-106595665D01*
X151303094Y-106591000D01*
X152416906Y-106591000D01*
X152464278Y-106595665D01*
X152464278Y-106595665D01*
G37*
G36*
X146705829Y-103879220D02*
G01*
X146791530Y-103887661D01*
X146956468Y-103937695D01*
X147108476Y-104018944D01*
X147241712Y-104128288D01*
X147351056Y-104261524D01*
X147432305Y-104413532D01*
X147482339Y-104578470D01*
X147499233Y-104750000D01*
X147482339Y-104921530D01*
X147432305Y-105086468D01*
X147351056Y-105238476D01*
X147241712Y-105371712D01*
X147108476Y-105481056D01*
X146956468Y-105562305D01*
X146791530Y-105612339D01*
X146705829Y-105620780D01*
X146662980Y-105625000D01*
X146577020Y-105625000D01*
X146534171Y-105620780D01*
X146448470Y-105612339D01*
X146283532Y-105562305D01*
X146131524Y-105481056D01*
X145998288Y-105371712D01*
X145888944Y-105238476D01*
X145807695Y-105086468D01*
X145757661Y-104921530D01*
X145740767Y-104750000D01*
X145757661Y-104578470D01*
X145807695Y-104413532D01*
X145888944Y-104261524D01*
X145998288Y-104128288D01*
X146131524Y-104018944D01*
X146283532Y-103937695D01*
X146448470Y-103887661D01*
X146534171Y-103879220D01*
X146577020Y-103875000D01*
X146662980Y-103875000D01*
X146705829Y-103879220D01*
X146705829Y-103879220D01*
G37*
G36*
X139875000Y-105625000D02*
G01*
X138125000Y-105625000D01*
X138125000Y-103875000D01*
X139875000Y-103875000D01*
X139875000Y-105625000D01*
X139875000Y-105625000D01*
G37*
G36*
X188044453Y-100028706D02*
G01*
X188074742Y-100037894D01*
X188102648Y-100052810D01*
X188127112Y-100072888D01*
X188147190Y-100097352D01*
X188162106Y-100125258D01*
X188171294Y-100155547D01*
X188175000Y-100193177D01*
X188175000Y-103306823D01*
X188171294Y-103344453D01*
X188162106Y-103374742D01*
X188147190Y-103402648D01*
X188127112Y-103427112D01*
X188102648Y-103447190D01*
X188074742Y-103462106D01*
X188044453Y-103471294D01*
X188006823Y-103475000D01*
X185493177Y-103475000D01*
X185455547Y-103471294D01*
X185425258Y-103462106D01*
X185397352Y-103447190D01*
X185372888Y-103427112D01*
X185352810Y-103402648D01*
X185337894Y-103374742D01*
X185328706Y-103344453D01*
X185325000Y-103306823D01*
X185325000Y-100193177D01*
X185328706Y-100155547D01*
X185337894Y-100125258D01*
X185352810Y-100097352D01*
X185372888Y-100072888D01*
X185397352Y-100052810D01*
X185425258Y-100037894D01*
X185455547Y-100028706D01*
X185493177Y-100025000D01*
X188006823Y-100025000D01*
X188044453Y-100028706D01*
X188044453Y-100028706D01*
G37*
G36*
X110458674Y-100456849D02*
G01*
X110577813Y-100480547D01*
X110746152Y-100550275D01*
X110897653Y-100651505D01*
X111026495Y-100780347D01*
X111127725Y-100931848D01*
X111197453Y-101100187D01*
X111233000Y-101278895D01*
X111233000Y-101461105D01*
X111197453Y-101639813D01*
X111127725Y-101808152D01*
X111026495Y-101959653D01*
X110897653Y-102088495D01*
X110746152Y-102189725D01*
X110577813Y-102259453D01*
X110458674Y-102283151D01*
X110399106Y-102295000D01*
X110216894Y-102295000D01*
X110157326Y-102283151D01*
X110038187Y-102259453D01*
X109869848Y-102189725D01*
X109718347Y-102088495D01*
X109589505Y-101959653D01*
X109488275Y-101808152D01*
X109418547Y-101639813D01*
X109383000Y-101461105D01*
X109383000Y-101278895D01*
X109418547Y-101100187D01*
X109488275Y-100931848D01*
X109589505Y-100780347D01*
X109718347Y-100651505D01*
X109869848Y-100550275D01*
X110038187Y-100480547D01*
X110157326Y-100456849D01*
X110216894Y-100445000D01*
X110399106Y-100445000D01*
X110458674Y-100456849D01*
X110458674Y-100456849D01*
G37*
G36*
X106958674Y-100456849D02*
G01*
X107077813Y-100480547D01*
X107246152Y-100550275D01*
X107397653Y-100651505D01*
X107526495Y-100780347D01*
X107627725Y-100931848D01*
X107697453Y-101100187D01*
X107733000Y-101278895D01*
X107733000Y-101461105D01*
X107697453Y-101639813D01*
X107627725Y-101808152D01*
X107526495Y-101959653D01*
X107397653Y-102088495D01*
X107246152Y-102189725D01*
X107077813Y-102259453D01*
X106958674Y-102283151D01*
X106899106Y-102295000D01*
X106716894Y-102295000D01*
X106657326Y-102283151D01*
X106538187Y-102259453D01*
X106369848Y-102189725D01*
X106218347Y-102088495D01*
X106089505Y-101959653D01*
X105988275Y-101808152D01*
X105918547Y-101639813D01*
X105883000Y-101461105D01*
X105883000Y-101278895D01*
X105918547Y-101100187D01*
X105988275Y-100931848D01*
X106089505Y-100780347D01*
X106218347Y-100651505D01*
X106369848Y-100550275D01*
X106538187Y-100480547D01*
X106657326Y-100456849D01*
X106716894Y-100445000D01*
X106899106Y-100445000D01*
X106958674Y-100456849D01*
X106958674Y-100456849D01*
G37*
G36*
X147104278Y-97879665D02*
G01*
X147143924Y-97891692D01*
X147180463Y-97911223D01*
X147212492Y-97937508D01*
X147238777Y-97969537D01*
X147258308Y-98006076D01*
X147270335Y-98045722D01*
X147275000Y-98093094D01*
X147275000Y-98956906D01*
X147270335Y-99004278D01*
X147258308Y-99043924D01*
X147238777Y-99080463D01*
X147212492Y-99112492D01*
X147180463Y-99138777D01*
X147143924Y-99158308D01*
X147104278Y-99170335D01*
X147056906Y-99175000D01*
X145943094Y-99175000D01*
X145895722Y-99170335D01*
X145856076Y-99158308D01*
X145819537Y-99138777D01*
X145787508Y-99112492D01*
X145761223Y-99080463D01*
X145741692Y-99043924D01*
X145729665Y-99004278D01*
X145725000Y-98956906D01*
X145725000Y-98093094D01*
X145729665Y-98045722D01*
X145741692Y-98006076D01*
X145761223Y-97969537D01*
X145787508Y-97937508D01*
X145819537Y-97911223D01*
X145856076Y-97891692D01*
X145895722Y-97879665D01*
X145943094Y-97875000D01*
X147056906Y-97875000D01*
X147104278Y-97879665D01*
X147104278Y-97879665D01*
G37*
G36*
X187029349Y-94545619D02*
G01*
X187297962Y-94627102D01*
X187297965Y-94627103D01*
X187545517Y-94759423D01*
X187762502Y-94937498D01*
X187940577Y-95154483D01*
X188072897Y-95402035D01*
X188072898Y-95402038D01*
X188154381Y-95670652D01*
X188154381Y-95670654D01*
X188170118Y-95830430D01*
X188175000Y-95880004D01*
X188175000Y-96619997D01*
X188154381Y-96829349D01*
X188089805Y-97042226D01*
X188072897Y-97097965D01*
X187940577Y-97345517D01*
X187762504Y-97562499D01*
X187762502Y-97562500D01*
X187762501Y-97562502D01*
X187545517Y-97740576D01*
X187545513Y-97740579D01*
X187297964Y-97872897D01*
X187297961Y-97872898D01*
X187029348Y-97954381D01*
X186750000Y-97981894D01*
X186470651Y-97954381D01*
X186202038Y-97872898D01*
X186202035Y-97872897D01*
X185954483Y-97740577D01*
X185737501Y-97562504D01*
X185737500Y-97562502D01*
X185737498Y-97562501D01*
X185559424Y-97345517D01*
X185559423Y-97345516D01*
X185559421Y-97345513D01*
X185427103Y-97097964D01*
X185424316Y-97088777D01*
X185345619Y-96829348D01*
X185325000Y-96619996D01*
X185325000Y-95880003D01*
X185328299Y-95846512D01*
X185345619Y-95670653D01*
X185345619Y-95670651D01*
X185427102Y-95402038D01*
X185427103Y-95402035D01*
X185559423Y-95154483D01*
X185737496Y-94937501D01*
X185737498Y-94937500D01*
X185737499Y-94937498D01*
X185954483Y-94759424D01*
X185954484Y-94759423D01*
X185954487Y-94759421D01*
X186202036Y-94627103D01*
X186202039Y-94627102D01*
X186470652Y-94545619D01*
X186750000Y-94518106D01*
X187029349Y-94545619D01*
X187029349Y-94545619D01*
G37*
G36*
X147104278Y-95829665D02*
G01*
X147143924Y-95841692D01*
X147180463Y-95861223D01*
X147212492Y-95887508D01*
X147238777Y-95919537D01*
X147258308Y-95956076D01*
X147270335Y-95995722D01*
X147275000Y-96043094D01*
X147275000Y-96906906D01*
X147270335Y-96954278D01*
X147258308Y-96993924D01*
X147238777Y-97030463D01*
X147212492Y-97062492D01*
X147180463Y-97088777D01*
X147143924Y-97108308D01*
X147104278Y-97120335D01*
X147056906Y-97125000D01*
X145943094Y-97125000D01*
X145895722Y-97120335D01*
X145856076Y-97108308D01*
X145819537Y-97088777D01*
X145787508Y-97062492D01*
X145761223Y-97030463D01*
X145741692Y-96993924D01*
X145729665Y-96954278D01*
X145725000Y-96906906D01*
X145725000Y-96043094D01*
X145729665Y-95995722D01*
X145741692Y-95956076D01*
X145761223Y-95919537D01*
X145787508Y-95887508D01*
X145819537Y-95861223D01*
X145856076Y-95841692D01*
X145895722Y-95829665D01*
X145943094Y-95825000D01*
X147056906Y-95825000D01*
X147104278Y-95829665D01*
X147104278Y-95829665D01*
G37*
G36*
X181281422Y-88439867D02*
G01*
X181378266Y-88469244D01*
X181475109Y-88498621D01*
X181653610Y-88594032D01*
X181694366Y-88627479D01*
X181810068Y-88722432D01*
X181938469Y-88878891D01*
X182033878Y-89057388D01*
X182092633Y-89251077D01*
X182107500Y-89402026D01*
X182107500Y-89597973D01*
X182092633Y-89748922D01*
X182092632Y-89748924D01*
X182033879Y-89942609D01*
X181938468Y-90121110D01*
X181905021Y-90161866D01*
X181810068Y-90277568D01*
X181653609Y-90405969D01*
X181475112Y-90501378D01*
X181475110Y-90501379D01*
X181378267Y-90530756D01*
X181281423Y-90560133D01*
X181080000Y-90579971D01*
X180878578Y-90560133D01*
X180781734Y-90530756D01*
X180684891Y-90501379D01*
X180684889Y-90501378D01*
X180506392Y-90405969D01*
X180349932Y-90277568D01*
X180221531Y-90121109D01*
X180126122Y-89942612D01*
X180067367Y-89748923D01*
X180052500Y-89597974D01*
X180052500Y-89402027D01*
X180067367Y-89251078D01*
X180126122Y-89057389D01*
X180221531Y-88878892D01*
X180221532Y-88878890D01*
X180254979Y-88838134D01*
X180349932Y-88722432D01*
X180506391Y-88594031D01*
X180684888Y-88498622D01*
X180684890Y-88498621D01*
X180781733Y-88469244D01*
X180878577Y-88439867D01*
X181080000Y-88420029D01*
X181281422Y-88439867D01*
X181281422Y-88439867D01*
G37*
G36*
X178741422Y-88439867D02*
G01*
X178838266Y-88469244D01*
X178935109Y-88498621D01*
X179113610Y-88594032D01*
X179154366Y-88627479D01*
X179270068Y-88722432D01*
X179398469Y-88878891D01*
X179493878Y-89057388D01*
X179552633Y-89251077D01*
X179567500Y-89402026D01*
X179567500Y-89597973D01*
X179552633Y-89748922D01*
X179552632Y-89748924D01*
X179493879Y-89942609D01*
X179398468Y-90121110D01*
X179365021Y-90161866D01*
X179270068Y-90277568D01*
X179113609Y-90405969D01*
X178935112Y-90501378D01*
X178935110Y-90501379D01*
X178838267Y-90530756D01*
X178741423Y-90560133D01*
X178540000Y-90579971D01*
X178338578Y-90560133D01*
X178241734Y-90530756D01*
X178144891Y-90501379D01*
X178144889Y-90501378D01*
X177966392Y-90405969D01*
X177809932Y-90277568D01*
X177681531Y-90121109D01*
X177586122Y-89942612D01*
X177527367Y-89748923D01*
X177512500Y-89597974D01*
X177512500Y-89402027D01*
X177527367Y-89251078D01*
X177586122Y-89057389D01*
X177681531Y-88878892D01*
X177681532Y-88878890D01*
X177714979Y-88838134D01*
X177809932Y-88722432D01*
X177966391Y-88594031D01*
X178144888Y-88498622D01*
X178144890Y-88498621D01*
X178241733Y-88469244D01*
X178338577Y-88439867D01*
X178540000Y-88420029D01*
X178741422Y-88439867D01*
X178741422Y-88439867D01*
G37*
G36*
X177027500Y-90575000D02*
G01*
X174972500Y-90575000D01*
X174972500Y-88425000D01*
X177027500Y-88425000D01*
X177027500Y-90575000D01*
X177027500Y-90575000D01*
G37*
G36*
X187954278Y-86729665D02*
G01*
X187993924Y-86741692D01*
X188030463Y-86761223D01*
X188062492Y-86787508D01*
X188088777Y-86819537D01*
X188108308Y-86856076D01*
X188120335Y-86895722D01*
X188125000Y-86943094D01*
X188125000Y-88056906D01*
X188120335Y-88104278D01*
X188108308Y-88143924D01*
X188088777Y-88180463D01*
X188062492Y-88212492D01*
X188030463Y-88238777D01*
X187993924Y-88258308D01*
X187954278Y-88270335D01*
X187906906Y-88275000D01*
X187043094Y-88275000D01*
X186995722Y-88270335D01*
X186956076Y-88258308D01*
X186919537Y-88238777D01*
X186887508Y-88212492D01*
X186861223Y-88180463D01*
X186841692Y-88143924D01*
X186829665Y-88104278D01*
X186825000Y-88056906D01*
X186825000Y-86943094D01*
X186829665Y-86895722D01*
X186841692Y-86856076D01*
X186861223Y-86819537D01*
X186887508Y-86787508D01*
X186919537Y-86761223D01*
X186956076Y-86741692D01*
X186995722Y-86729665D01*
X187043094Y-86725000D01*
X187906906Y-86725000D01*
X187954278Y-86729665D01*
X187954278Y-86729665D01*
G37*
G36*
X190004278Y-86729665D02*
G01*
X190043924Y-86741692D01*
X190080463Y-86761223D01*
X190112492Y-86787508D01*
X190138777Y-86819537D01*
X190158308Y-86856076D01*
X190170335Y-86895722D01*
X190175000Y-86943094D01*
X190175000Y-88056906D01*
X190170335Y-88104278D01*
X190158308Y-88143924D01*
X190138777Y-88180463D01*
X190112492Y-88212492D01*
X190080463Y-88238777D01*
X190043924Y-88258308D01*
X190004278Y-88270335D01*
X189956906Y-88275000D01*
X189093094Y-88275000D01*
X189045722Y-88270335D01*
X189006076Y-88258308D01*
X188969537Y-88238777D01*
X188937508Y-88212492D01*
X188911223Y-88180463D01*
X188891692Y-88143924D01*
X188879665Y-88104278D01*
X188875000Y-88056906D01*
X188875000Y-86943094D01*
X188879665Y-86895722D01*
X188891692Y-86856076D01*
X188911223Y-86819537D01*
X188937508Y-86787508D01*
X188969537Y-86761223D01*
X189006076Y-86741692D01*
X189045722Y-86729665D01*
X189093094Y-86725000D01*
X189956906Y-86725000D01*
X190004278Y-86729665D01*
X190004278Y-86729665D01*
G37*
G36*
X103040674Y-82676849D02*
G01*
X103159813Y-82700547D01*
X103328152Y-82770275D01*
X103479653Y-82871505D01*
X103608495Y-83000347D01*
X103709725Y-83151848D01*
X103779453Y-83320187D01*
X103815000Y-83498895D01*
X103815000Y-83681105D01*
X103779453Y-83859813D01*
X103709725Y-84028152D01*
X103608495Y-84179653D01*
X103479653Y-84308495D01*
X103328152Y-84409725D01*
X103159813Y-84479453D01*
X103040674Y-84503151D01*
X102981106Y-84515000D01*
X102798894Y-84515000D01*
X102739326Y-84503151D01*
X102620187Y-84479453D01*
X102451848Y-84409725D01*
X102300347Y-84308495D01*
X102171505Y-84179653D01*
X102070275Y-84028152D01*
X102000547Y-83859813D01*
X101965000Y-83681105D01*
X101965000Y-83498895D01*
X102000547Y-83320187D01*
X102070275Y-83151848D01*
X102171505Y-83000347D01*
X102300347Y-82871505D01*
X102451848Y-82770275D01*
X102620187Y-82700547D01*
X102739326Y-82676849D01*
X102798894Y-82665000D01*
X102981106Y-82665000D01*
X103040674Y-82676849D01*
X103040674Y-82676849D01*
G37*
G36*
X108925000Y-84515000D02*
G01*
X107075000Y-84515000D01*
X107075000Y-82665000D01*
X108925000Y-82665000D01*
X108925000Y-84515000D01*
X108925000Y-84515000D01*
G37*
G36*
X100530674Y-82676849D02*
G01*
X100649813Y-82700547D01*
X100818152Y-82770275D01*
X100969653Y-82871505D01*
X101098495Y-83000347D01*
X101199725Y-83151848D01*
X101269453Y-83320187D01*
X101305000Y-83498895D01*
X101305000Y-83681105D01*
X101269453Y-83859813D01*
X101199725Y-84028152D01*
X101098495Y-84179653D01*
X100969653Y-84308495D01*
X100818152Y-84409725D01*
X100649813Y-84479453D01*
X100530674Y-84503151D01*
X100471106Y-84515000D01*
X100288894Y-84515000D01*
X100229326Y-84503151D01*
X100110187Y-84479453D01*
X99941848Y-84409725D01*
X99790347Y-84308495D01*
X99661505Y-84179653D01*
X99560275Y-84028152D01*
X99490547Y-83859813D01*
X99455000Y-83681105D01*
X99455000Y-83498895D01*
X99490547Y-83320187D01*
X99560275Y-83151848D01*
X99661505Y-83000347D01*
X99790347Y-82871505D01*
X99941848Y-82770275D01*
X100110187Y-82700547D01*
X100229326Y-82676849D01*
X100288894Y-82665000D01*
X100471106Y-82665000D01*
X100530674Y-82676849D01*
X100530674Y-82676849D01*
G37*
G36*
X105610674Y-82676849D02*
G01*
X105729813Y-82700547D01*
X105898152Y-82770275D01*
X106049653Y-82871505D01*
X106178495Y-83000347D01*
X106279725Y-83151848D01*
X106349453Y-83320187D01*
X106385000Y-83498895D01*
X106385000Y-83681105D01*
X106349453Y-83859813D01*
X106279725Y-84028152D01*
X106178495Y-84179653D01*
X106049653Y-84308495D01*
X105898152Y-84409725D01*
X105729813Y-84479453D01*
X105610674Y-84503151D01*
X105551106Y-84515000D01*
X105368894Y-84515000D01*
X105309326Y-84503151D01*
X105190187Y-84479453D01*
X105021848Y-84409725D01*
X104870347Y-84308495D01*
X104741505Y-84179653D01*
X104640275Y-84028152D01*
X104570547Y-83859813D01*
X104535000Y-83681105D01*
X104535000Y-83498895D01*
X104570547Y-83320187D01*
X104640275Y-83151848D01*
X104741505Y-83000347D01*
X104870347Y-82871505D01*
X105021848Y-82770275D01*
X105190187Y-82700547D01*
X105309326Y-82676849D01*
X105368894Y-82665000D01*
X105551106Y-82665000D01*
X105610674Y-82676849D01*
X105610674Y-82676849D01*
G37*
G36*
X186104278Y-82879665D02*
G01*
X186143924Y-82891692D01*
X186180463Y-82911223D01*
X186212492Y-82937508D01*
X186238777Y-82969537D01*
X186258308Y-83006076D01*
X186270335Y-83045722D01*
X186275000Y-83093094D01*
X186275000Y-83956906D01*
X186270335Y-84004278D01*
X186258308Y-84043924D01*
X186238777Y-84080463D01*
X186212492Y-84112492D01*
X186180463Y-84138777D01*
X186143924Y-84158308D01*
X186104278Y-84170335D01*
X186056906Y-84175000D01*
X184943094Y-84175000D01*
X184895722Y-84170335D01*
X184856076Y-84158308D01*
X184819537Y-84138777D01*
X184787508Y-84112492D01*
X184761223Y-84080463D01*
X184741692Y-84043924D01*
X184729665Y-84004278D01*
X184725000Y-83956906D01*
X184725000Y-83093094D01*
X184729665Y-83045722D01*
X184741692Y-83006076D01*
X184761223Y-82969537D01*
X184787508Y-82937508D01*
X184819537Y-82911223D01*
X184856076Y-82891692D01*
X184895722Y-82879665D01*
X184943094Y-82875000D01*
X186056906Y-82875000D01*
X186104278Y-82879665D01*
X186104278Y-82879665D01*
G37*
G36*
X181281422Y-80189867D02*
G01*
X181378266Y-80219244D01*
X181475109Y-80248621D01*
X181653610Y-80344032D01*
X181694366Y-80377479D01*
X181810068Y-80472432D01*
X181938469Y-80628891D01*
X182033878Y-80807388D01*
X182092633Y-81001077D01*
X182107500Y-81152026D01*
X182107500Y-81347973D01*
X182092633Y-81498922D01*
X182092632Y-81498924D01*
X182033879Y-81692609D01*
X181938468Y-81871110D01*
X181916789Y-81897526D01*
X181810068Y-82027568D01*
X181653609Y-82155969D01*
X181475112Y-82251378D01*
X181475110Y-82251379D01*
X181378267Y-82280756D01*
X181281423Y-82310133D01*
X181080000Y-82329971D01*
X180878578Y-82310133D01*
X180781734Y-82280756D01*
X180684891Y-82251379D01*
X180684889Y-82251378D01*
X180506392Y-82155969D01*
X180349932Y-82027568D01*
X180221531Y-81871109D01*
X180126122Y-81692612D01*
X180067367Y-81498923D01*
X180052500Y-81347974D01*
X180052500Y-81152027D01*
X180067367Y-81001078D01*
X180106332Y-80872628D01*
X180126121Y-80807391D01*
X180221532Y-80628890D01*
X180254979Y-80588134D01*
X180349932Y-80472432D01*
X180506391Y-80344031D01*
X180684888Y-80248622D01*
X180684890Y-80248621D01*
X180781733Y-80219244D01*
X180878577Y-80189867D01*
X181080000Y-80170029D01*
X181281422Y-80189867D01*
X181281422Y-80189867D01*
G37*
G36*
X178741422Y-80189867D02*
G01*
X178838266Y-80219244D01*
X178935109Y-80248621D01*
X179113610Y-80344032D01*
X179154366Y-80377479D01*
X179270068Y-80472432D01*
X179398469Y-80628891D01*
X179493878Y-80807388D01*
X179552633Y-81001077D01*
X179567500Y-81152026D01*
X179567500Y-81347973D01*
X179552633Y-81498922D01*
X179552632Y-81498924D01*
X179493879Y-81692609D01*
X179398468Y-81871110D01*
X179376789Y-81897526D01*
X179270068Y-82027568D01*
X179113609Y-82155969D01*
X178935112Y-82251378D01*
X178935110Y-82251379D01*
X178838267Y-82280756D01*
X178741423Y-82310133D01*
X178540000Y-82329971D01*
X178338578Y-82310133D01*
X178241734Y-82280756D01*
X178144891Y-82251379D01*
X178144889Y-82251378D01*
X177966392Y-82155969D01*
X177809932Y-82027568D01*
X177681531Y-81871109D01*
X177586122Y-81692612D01*
X177527367Y-81498923D01*
X177512500Y-81347974D01*
X177512500Y-81152027D01*
X177527367Y-81001078D01*
X177566332Y-80872628D01*
X177586121Y-80807391D01*
X177681532Y-80628890D01*
X177714979Y-80588134D01*
X177809932Y-80472432D01*
X177966391Y-80344031D01*
X178144888Y-80248622D01*
X178144890Y-80248621D01*
X178241733Y-80219244D01*
X178338577Y-80189867D01*
X178540000Y-80170029D01*
X178741422Y-80189867D01*
X178741422Y-80189867D01*
G37*
G36*
X177027500Y-82325000D02*
G01*
X174972500Y-82325000D01*
X174972500Y-80175000D01*
X177027500Y-80175000D01*
X177027500Y-82325000D01*
X177027500Y-82325000D01*
G37*
G36*
X186104278Y-80829665D02*
G01*
X186143924Y-80841692D01*
X186180463Y-80861223D01*
X186212492Y-80887508D01*
X186238777Y-80919537D01*
X186258308Y-80956076D01*
X186270335Y-80995722D01*
X186275000Y-81043094D01*
X186275000Y-81906906D01*
X186270335Y-81954278D01*
X186258308Y-81993924D01*
X186238777Y-82030463D01*
X186212492Y-82062492D01*
X186180463Y-82088777D01*
X186143924Y-82108308D01*
X186104278Y-82120335D01*
X186056906Y-82125000D01*
X184943094Y-82125000D01*
X184895722Y-82120335D01*
X184856076Y-82108308D01*
X184819537Y-82088777D01*
X184787508Y-82062492D01*
X184761223Y-82030463D01*
X184741692Y-81993924D01*
X184729665Y-81954278D01*
X184725000Y-81906906D01*
X184725000Y-81043094D01*
X184729665Y-80995722D01*
X184741692Y-80956076D01*
X184761223Y-80919537D01*
X184787508Y-80887508D01*
X184819537Y-80861223D01*
X184856076Y-80841692D01*
X184895722Y-80829665D01*
X184943094Y-80825000D01*
X186056906Y-80825000D01*
X186104278Y-80829665D01*
X186104278Y-80829665D01*
G37*
G36*
X98499166Y-71308901D02*
G01*
X98499169Y-71308902D01*
X98499170Y-71308902D01*
X98690686Y-71366998D01*
X98690688Y-71366999D01*
X98690691Y-71367000D01*
X98867189Y-71461339D01*
X99021896Y-71588304D01*
X99148861Y-71743010D01*
X99243200Y-71919508D01*
X99301299Y-72111033D01*
X99316000Y-72260294D01*
X99316000Y-74239706D01*
X99301299Y-74388967D01*
X99301298Y-74388970D01*
X99301298Y-74388971D01*
X99259255Y-74527568D01*
X99243200Y-74580492D01*
X99148861Y-74756990D01*
X99021896Y-74911696D01*
X98867190Y-75038661D01*
X98690692Y-75133000D01*
X98690689Y-75133001D01*
X98690687Y-75133002D01*
X98499171Y-75191098D01*
X98499170Y-75191098D01*
X98499167Y-75191099D01*
X98300000Y-75210715D01*
X98100834Y-75191099D01*
X98100831Y-75191098D01*
X98100830Y-75191098D01*
X97909314Y-75133002D01*
X97909312Y-75133001D01*
X97909309Y-75133000D01*
X97732811Y-75038661D01*
X97578105Y-74911696D01*
X97451140Y-74756990D01*
X97356801Y-74580492D01*
X97340747Y-74527568D01*
X97298703Y-74388971D01*
X97298703Y-74388970D01*
X97298702Y-74388967D01*
X97284001Y-74239706D01*
X97284000Y-72260295D01*
X97298701Y-72111034D01*
X97298702Y-72111030D01*
X97356798Y-71919514D01*
X97356799Y-71919512D01*
X97356800Y-71919509D01*
X97451139Y-71743011D01*
X97578104Y-71588304D01*
X97732810Y-71461339D01*
X97909308Y-71367000D01*
X97909311Y-71366999D01*
X97909313Y-71366998D01*
X98100829Y-71308902D01*
X98100830Y-71308902D01*
X98100833Y-71308901D01*
X98300000Y-71289285D01*
X98499166Y-71308901D01*
X98499166Y-71308901D01*
G37*
G36*
X106119166Y-71308901D02*
G01*
X106119169Y-71308902D01*
X106119170Y-71308902D01*
X106310686Y-71366998D01*
X106310688Y-71366999D01*
X106310691Y-71367000D01*
X106487189Y-71461339D01*
X106641896Y-71588304D01*
X106768861Y-71743010D01*
X106863200Y-71919508D01*
X106921299Y-72111033D01*
X106936000Y-72260294D01*
X106936000Y-74239706D01*
X106921299Y-74388967D01*
X106921298Y-74388970D01*
X106921298Y-74388971D01*
X106879255Y-74527568D01*
X106863200Y-74580492D01*
X106768861Y-74756990D01*
X106641896Y-74911696D01*
X106487190Y-75038661D01*
X106310692Y-75133000D01*
X106310689Y-75133001D01*
X106310687Y-75133002D01*
X106119171Y-75191098D01*
X106119170Y-75191098D01*
X106119167Y-75191099D01*
X105920000Y-75210715D01*
X105720834Y-75191099D01*
X105720831Y-75191098D01*
X105720830Y-75191098D01*
X105529314Y-75133002D01*
X105529312Y-75133001D01*
X105529309Y-75133000D01*
X105352811Y-75038661D01*
X105198105Y-74911696D01*
X105071140Y-74756990D01*
X104976801Y-74580492D01*
X104960747Y-74527568D01*
X104918703Y-74388971D01*
X104918703Y-74388970D01*
X104918702Y-74388967D01*
X104904001Y-74239706D01*
X104904000Y-72260295D01*
X104918701Y-72111034D01*
X104918702Y-72111030D01*
X104976798Y-71919514D01*
X104976799Y-71919512D01*
X104976800Y-71919509D01*
X105071139Y-71743011D01*
X105198104Y-71588304D01*
X105352810Y-71461339D01*
X105529308Y-71367000D01*
X105529311Y-71366999D01*
X105529313Y-71366998D01*
X105720829Y-71308902D01*
X105720830Y-71308902D01*
X105720833Y-71308901D01*
X105920000Y-71289285D01*
X106119166Y-71308901D01*
X106119166Y-71308901D01*
G37*
G36*
X108659166Y-71308901D02*
G01*
X108659169Y-71308902D01*
X108659170Y-71308902D01*
X108850686Y-71366998D01*
X108850688Y-71366999D01*
X108850691Y-71367000D01*
X109027189Y-71461339D01*
X109181896Y-71588304D01*
X109308861Y-71743010D01*
X109403200Y-71919508D01*
X109461299Y-72111033D01*
X109476000Y-72260294D01*
X109476000Y-74239706D01*
X109461299Y-74388967D01*
X109461298Y-74388970D01*
X109461298Y-74388971D01*
X109419255Y-74527568D01*
X109403200Y-74580492D01*
X109308861Y-74756990D01*
X109181896Y-74911696D01*
X109027190Y-75038661D01*
X108850692Y-75133000D01*
X108850689Y-75133001D01*
X108850687Y-75133002D01*
X108659171Y-75191098D01*
X108659170Y-75191098D01*
X108659167Y-75191099D01*
X108460000Y-75210715D01*
X108260834Y-75191099D01*
X108260831Y-75191098D01*
X108260830Y-75191098D01*
X108069314Y-75133002D01*
X108069312Y-75133001D01*
X108069309Y-75133000D01*
X107892811Y-75038661D01*
X107738105Y-74911696D01*
X107611140Y-74756990D01*
X107516801Y-74580492D01*
X107500747Y-74527568D01*
X107458703Y-74388971D01*
X107458703Y-74388970D01*
X107458702Y-74388967D01*
X107444001Y-74239706D01*
X107444000Y-72260295D01*
X107458701Y-72111034D01*
X107458702Y-72111030D01*
X107516798Y-71919514D01*
X107516799Y-71919512D01*
X107516800Y-71919509D01*
X107611139Y-71743011D01*
X107738104Y-71588304D01*
X107892810Y-71461339D01*
X108069308Y-71367000D01*
X108069311Y-71366999D01*
X108069313Y-71366998D01*
X108260829Y-71308902D01*
X108260830Y-71308902D01*
X108260833Y-71308901D01*
X108460000Y-71289285D01*
X108659166Y-71308901D01*
X108659166Y-71308901D01*
G37*
G36*
X111199166Y-71308901D02*
G01*
X111199169Y-71308902D01*
X111199170Y-71308902D01*
X111390686Y-71366998D01*
X111390688Y-71366999D01*
X111390691Y-71367000D01*
X111567189Y-71461339D01*
X111721896Y-71588304D01*
X111848861Y-71743010D01*
X111943200Y-71919508D01*
X112001299Y-72111033D01*
X112016000Y-72260294D01*
X112016000Y-74239706D01*
X112001299Y-74388967D01*
X112001298Y-74388970D01*
X112001298Y-74388971D01*
X111959255Y-74527568D01*
X111943200Y-74580492D01*
X111848861Y-74756990D01*
X111721896Y-74911696D01*
X111567190Y-75038661D01*
X111390692Y-75133000D01*
X111390689Y-75133001D01*
X111390687Y-75133002D01*
X111199171Y-75191098D01*
X111199170Y-75191098D01*
X111199167Y-75191099D01*
X111000000Y-75210715D01*
X110800834Y-75191099D01*
X110800831Y-75191098D01*
X110800830Y-75191098D01*
X110609314Y-75133002D01*
X110609312Y-75133001D01*
X110609309Y-75133000D01*
X110432811Y-75038661D01*
X110278105Y-74911696D01*
X110151140Y-74756990D01*
X110056801Y-74580492D01*
X110040747Y-74527568D01*
X109998703Y-74388971D01*
X109998703Y-74388970D01*
X109998702Y-74388967D01*
X109984001Y-74239706D01*
X109984000Y-72260295D01*
X109998701Y-72111034D01*
X109998702Y-72111030D01*
X110056798Y-71919514D01*
X110056799Y-71919512D01*
X110056800Y-71919509D01*
X110151139Y-71743011D01*
X110278104Y-71588304D01*
X110432810Y-71461339D01*
X110609308Y-71367000D01*
X110609311Y-71366999D01*
X110609313Y-71366998D01*
X110800829Y-71308902D01*
X110800830Y-71308902D01*
X110800833Y-71308901D01*
X111000000Y-71289285D01*
X111199166Y-71308901D01*
X111199166Y-71308901D01*
G37*
G36*
X101039166Y-71308901D02*
G01*
X101039169Y-71308902D01*
X101039170Y-71308902D01*
X101230686Y-71366998D01*
X101230688Y-71366999D01*
X101230691Y-71367000D01*
X101407189Y-71461339D01*
X101561896Y-71588304D01*
X101688861Y-71743010D01*
X101783200Y-71919508D01*
X101841299Y-72111033D01*
X101856000Y-72260294D01*
X101856000Y-74239706D01*
X101841299Y-74388967D01*
X101841298Y-74388970D01*
X101841298Y-74388971D01*
X101799255Y-74527568D01*
X101783200Y-74580492D01*
X101688861Y-74756990D01*
X101561896Y-74911696D01*
X101407190Y-75038661D01*
X101230692Y-75133000D01*
X101230689Y-75133001D01*
X101230687Y-75133002D01*
X101039171Y-75191098D01*
X101039170Y-75191098D01*
X101039167Y-75191099D01*
X100840000Y-75210715D01*
X100640834Y-75191099D01*
X100640831Y-75191098D01*
X100640830Y-75191098D01*
X100449314Y-75133002D01*
X100449312Y-75133001D01*
X100449309Y-75133000D01*
X100272811Y-75038661D01*
X100118105Y-74911696D01*
X99991140Y-74756990D01*
X99896801Y-74580492D01*
X99880747Y-74527568D01*
X99838703Y-74388971D01*
X99838703Y-74388970D01*
X99838702Y-74388967D01*
X99824001Y-74239706D01*
X99824000Y-72260295D01*
X99838701Y-72111034D01*
X99838702Y-72111030D01*
X99896798Y-71919514D01*
X99896799Y-71919512D01*
X99896800Y-71919509D01*
X99991139Y-71743011D01*
X100118104Y-71588304D01*
X100272810Y-71461339D01*
X100449308Y-71367000D01*
X100449311Y-71366999D01*
X100449313Y-71366998D01*
X100640829Y-71308902D01*
X100640830Y-71308902D01*
X100640833Y-71308901D01*
X100840000Y-71289285D01*
X101039166Y-71308901D01*
X101039166Y-71308901D01*
G37*
G36*
X103579166Y-71308901D02*
G01*
X103579169Y-71308902D01*
X103579170Y-71308902D01*
X103770686Y-71366998D01*
X103770688Y-71366999D01*
X103770691Y-71367000D01*
X103947189Y-71461339D01*
X104101896Y-71588304D01*
X104228861Y-71743010D01*
X104323200Y-71919508D01*
X104381299Y-72111033D01*
X104396000Y-72260294D01*
X104396000Y-74239706D01*
X104381299Y-74388967D01*
X104381298Y-74388970D01*
X104381298Y-74388971D01*
X104339255Y-74527568D01*
X104323200Y-74580492D01*
X104228861Y-74756990D01*
X104101896Y-74911696D01*
X103947190Y-75038661D01*
X103770692Y-75133000D01*
X103770689Y-75133001D01*
X103770687Y-75133002D01*
X103579171Y-75191098D01*
X103579170Y-75191098D01*
X103579167Y-75191099D01*
X103380000Y-75210715D01*
X103180834Y-75191099D01*
X103180831Y-75191098D01*
X103180830Y-75191098D01*
X102989314Y-75133002D01*
X102989312Y-75133001D01*
X102989309Y-75133000D01*
X102812811Y-75038661D01*
X102658105Y-74911696D01*
X102531140Y-74756990D01*
X102436801Y-74580492D01*
X102420747Y-74527568D01*
X102378703Y-74388971D01*
X102378703Y-74388970D01*
X102378702Y-74388967D01*
X102364001Y-74239706D01*
X102364000Y-72260295D01*
X102378701Y-72111034D01*
X102378702Y-72111030D01*
X102436798Y-71919514D01*
X102436799Y-71919512D01*
X102436800Y-71919509D01*
X102531139Y-71743011D01*
X102658104Y-71588304D01*
X102812810Y-71461339D01*
X102989308Y-71367000D01*
X102989311Y-71366999D01*
X102989313Y-71366998D01*
X103180829Y-71308902D01*
X103180830Y-71308902D01*
X103180833Y-71308901D01*
X103380000Y-71289285D01*
X103579166Y-71308901D01*
X103579166Y-71308901D01*
G37*
G36*
X181281422Y-72689867D02*
G01*
X181378267Y-72719245D01*
X181475109Y-72748621D01*
X181653610Y-72844032D01*
X181683829Y-72868832D01*
X181810068Y-72972432D01*
X181938469Y-73128891D01*
X182033878Y-73307388D01*
X182092633Y-73501077D01*
X182107500Y-73652026D01*
X182107500Y-73847973D01*
X182092633Y-73998922D01*
X182092632Y-73998924D01*
X182033879Y-74192609D01*
X181938468Y-74371110D01*
X181905021Y-74411866D01*
X181810068Y-74527568D01*
X181653609Y-74655969D01*
X181475112Y-74751378D01*
X181475110Y-74751379D01*
X181378267Y-74780756D01*
X181281423Y-74810133D01*
X181080000Y-74829971D01*
X180878578Y-74810133D01*
X180781733Y-74780755D01*
X180684891Y-74751379D01*
X180684889Y-74751378D01*
X180506392Y-74655969D01*
X180349932Y-74527568D01*
X180221531Y-74371109D01*
X180126122Y-74192612D01*
X180067367Y-73998923D01*
X180052500Y-73847974D01*
X180052500Y-73652027D01*
X180067367Y-73501078D01*
X180126122Y-73307389D01*
X180221531Y-73128892D01*
X180221532Y-73128890D01*
X180266310Y-73074328D01*
X180349932Y-72972432D01*
X180506391Y-72844031D01*
X180684888Y-72748622D01*
X180684890Y-72748621D01*
X180781732Y-72719245D01*
X180878577Y-72689867D01*
X181080000Y-72670029D01*
X181281422Y-72689867D01*
X181281422Y-72689867D01*
G37*
G36*
X178741422Y-72689867D02*
G01*
X178838267Y-72719245D01*
X178935109Y-72748621D01*
X179113610Y-72844032D01*
X179143829Y-72868832D01*
X179270068Y-72972432D01*
X179398469Y-73128891D01*
X179493878Y-73307388D01*
X179552633Y-73501077D01*
X179567500Y-73652026D01*
X179567500Y-73847973D01*
X179552633Y-73998922D01*
X179552632Y-73998924D01*
X179493879Y-74192609D01*
X179398468Y-74371110D01*
X179365021Y-74411866D01*
X179270068Y-74527568D01*
X179113609Y-74655969D01*
X178935112Y-74751378D01*
X178935110Y-74751379D01*
X178838267Y-74780756D01*
X178741423Y-74810133D01*
X178540000Y-74829971D01*
X178338578Y-74810133D01*
X178241733Y-74780755D01*
X178144891Y-74751379D01*
X178144889Y-74751378D01*
X177966392Y-74655969D01*
X177809932Y-74527568D01*
X177681531Y-74371109D01*
X177586122Y-74192612D01*
X177527367Y-73998923D01*
X177512500Y-73847974D01*
X177512500Y-73652027D01*
X177527367Y-73501078D01*
X177586122Y-73307389D01*
X177681531Y-73128892D01*
X177681532Y-73128890D01*
X177726310Y-73074328D01*
X177809932Y-72972432D01*
X177966391Y-72844031D01*
X178144888Y-72748622D01*
X178144890Y-72748621D01*
X178241732Y-72719245D01*
X178338577Y-72689867D01*
X178540000Y-72670029D01*
X178741422Y-72689867D01*
X178741422Y-72689867D01*
G37*
G36*
X177027500Y-74825000D02*
G01*
X174972500Y-74825000D01*
X174972500Y-72675000D01*
X177027500Y-72675000D01*
X177027500Y-74825000D01*
X177027500Y-74825000D01*
G37*
G36*
X119289581Y-72785383D02*
G01*
X119395994Y-72806550D01*
X119546353Y-72868831D01*
X119681672Y-72959248D01*
X119796752Y-73074328D01*
X119887169Y-73209647D01*
X119949450Y-73360006D01*
X119949450Y-73360008D01*
X119977511Y-73501077D01*
X119981200Y-73519626D01*
X119981200Y-73682374D01*
X119949450Y-73841994D01*
X119887169Y-73992353D01*
X119796752Y-74127672D01*
X119681672Y-74242752D01*
X119546353Y-74333169D01*
X119395994Y-74395450D01*
X119289581Y-74416617D01*
X119236375Y-74427200D01*
X119073625Y-74427200D01*
X119020419Y-74416617D01*
X118914006Y-74395450D01*
X118763647Y-74333169D01*
X118628328Y-74242752D01*
X118513248Y-74127672D01*
X118422831Y-73992353D01*
X118360550Y-73841994D01*
X118328800Y-73682374D01*
X118328800Y-73519626D01*
X118332490Y-73501077D01*
X118360550Y-73360008D01*
X118360550Y-73360006D01*
X118422831Y-73209647D01*
X118513248Y-73074328D01*
X118628328Y-72959248D01*
X118763647Y-72868831D01*
X118914006Y-72806550D01*
X119020419Y-72785383D01*
X119073625Y-72774800D01*
X119236375Y-72774800D01*
X119289581Y-72785383D01*
X119289581Y-72785383D01*
G37*
G36*
X121829581Y-72785383D02*
G01*
X121935994Y-72806550D01*
X122086353Y-72868831D01*
X122221672Y-72959248D01*
X122336752Y-73074328D01*
X122427169Y-73209647D01*
X122489450Y-73360006D01*
X122489450Y-73360008D01*
X122517511Y-73501077D01*
X122521200Y-73519626D01*
X122521200Y-73682374D01*
X122489450Y-73841994D01*
X122427169Y-73992353D01*
X122336752Y-74127672D01*
X122221672Y-74242752D01*
X122086353Y-74333169D01*
X121935994Y-74395450D01*
X121829581Y-74416617D01*
X121776375Y-74427200D01*
X121613625Y-74427200D01*
X121560419Y-74416617D01*
X121454006Y-74395450D01*
X121303647Y-74333169D01*
X121168328Y-74242752D01*
X121053248Y-74127672D01*
X120962831Y-73992353D01*
X120900550Y-73841994D01*
X120868800Y-73682374D01*
X120868800Y-73519626D01*
X120872490Y-73501077D01*
X120900550Y-73360008D01*
X120900550Y-73360006D01*
X120962831Y-73209647D01*
X121053248Y-73074328D01*
X121168328Y-72959248D01*
X121303647Y-72868831D01*
X121454006Y-72806550D01*
X121560419Y-72785383D01*
X121613625Y-72774800D01*
X121776375Y-72774800D01*
X121829581Y-72785383D01*
X121829581Y-72785383D01*
G37*
G36*
X162469781Y-72785383D02*
G01*
X162576194Y-72806550D01*
X162726553Y-72868831D01*
X162861872Y-72959248D01*
X162976952Y-73074328D01*
X163067369Y-73209647D01*
X163129650Y-73360006D01*
X163129650Y-73360008D01*
X163157711Y-73501077D01*
X163161400Y-73519626D01*
X163161400Y-73682374D01*
X163129650Y-73841994D01*
X163067369Y-73992353D01*
X162976952Y-74127672D01*
X162861872Y-74242752D01*
X162726553Y-74333169D01*
X162576194Y-74395450D01*
X162469781Y-74416617D01*
X162416575Y-74427200D01*
X162253825Y-74427200D01*
X162200619Y-74416617D01*
X162094206Y-74395450D01*
X161943847Y-74333169D01*
X161808528Y-74242752D01*
X161693448Y-74127672D01*
X161603031Y-73992353D01*
X161540750Y-73841994D01*
X161509000Y-73682374D01*
X161509000Y-73519626D01*
X161512690Y-73501077D01*
X161540750Y-73360008D01*
X161540750Y-73360006D01*
X161603031Y-73209647D01*
X161693448Y-73074328D01*
X161808528Y-72959248D01*
X161943847Y-72868831D01*
X162094206Y-72806550D01*
X162200619Y-72785383D01*
X162253825Y-72774800D01*
X162416575Y-72774800D01*
X162469781Y-72785383D01*
X162469781Y-72785383D01*
G37*
G36*
X165009581Y-72785383D02*
G01*
X165115994Y-72806550D01*
X165266353Y-72868831D01*
X165401672Y-72959248D01*
X165516752Y-73074328D01*
X165607169Y-73209647D01*
X165669450Y-73360006D01*
X165669450Y-73360008D01*
X165697511Y-73501077D01*
X165701200Y-73519626D01*
X165701200Y-73682374D01*
X165669450Y-73841994D01*
X165607169Y-73992353D01*
X165516752Y-74127672D01*
X165401672Y-74242752D01*
X165266353Y-74333169D01*
X165115994Y-74395450D01*
X165009581Y-74416617D01*
X164956375Y-74427200D01*
X164793625Y-74427200D01*
X164740419Y-74416617D01*
X164634006Y-74395450D01*
X164483647Y-74333169D01*
X164348328Y-74242752D01*
X164233248Y-74127672D01*
X164142831Y-73992353D01*
X164080550Y-73841994D01*
X164048800Y-73682374D01*
X164048800Y-73519626D01*
X164052490Y-73501077D01*
X164080550Y-73360008D01*
X164080550Y-73360006D01*
X164142831Y-73209647D01*
X164233248Y-73074328D01*
X164348328Y-72959248D01*
X164483647Y-72868831D01*
X164634006Y-72806550D01*
X164740419Y-72785383D01*
X164793625Y-72774800D01*
X164956375Y-72774800D01*
X165009581Y-72785383D01*
X165009581Y-72785383D01*
G37*
G36*
X165009581Y-70245383D02*
G01*
X165115994Y-70266550D01*
X165266353Y-70328831D01*
X165401672Y-70419248D01*
X165516752Y-70534328D01*
X165607169Y-70669647D01*
X165669450Y-70820006D01*
X165701200Y-70979626D01*
X165701200Y-71142374D01*
X165669450Y-71301994D01*
X165607169Y-71452353D01*
X165516752Y-71587672D01*
X165401672Y-71702752D01*
X165266353Y-71793169D01*
X165115994Y-71855450D01*
X165009581Y-71876617D01*
X164956375Y-71887200D01*
X164793625Y-71887200D01*
X164740419Y-71876617D01*
X164634006Y-71855450D01*
X164483647Y-71793169D01*
X164348328Y-71702752D01*
X164233248Y-71587672D01*
X164142831Y-71452353D01*
X164080550Y-71301994D01*
X164048800Y-71142374D01*
X164048800Y-70979626D01*
X164080550Y-70820006D01*
X164142831Y-70669647D01*
X164233248Y-70534328D01*
X164348328Y-70419248D01*
X164483647Y-70328831D01*
X164634006Y-70266550D01*
X164740419Y-70245383D01*
X164793625Y-70234800D01*
X164956375Y-70234800D01*
X165009581Y-70245383D01*
X165009581Y-70245383D01*
G37*
G36*
X121829581Y-70245383D02*
G01*
X121935994Y-70266550D01*
X122086353Y-70328831D01*
X122221672Y-70419248D01*
X122336752Y-70534328D01*
X122427169Y-70669647D01*
X122489450Y-70820006D01*
X122521200Y-70979626D01*
X122521200Y-71142374D01*
X122489450Y-71301994D01*
X122427169Y-71452353D01*
X122336752Y-71587672D01*
X122221672Y-71702752D01*
X122086353Y-71793169D01*
X121935994Y-71855450D01*
X121829581Y-71876617D01*
X121776375Y-71887200D01*
X121613625Y-71887200D01*
X121560419Y-71876617D01*
X121454006Y-71855450D01*
X121303647Y-71793169D01*
X121168328Y-71702752D01*
X121053248Y-71587672D01*
X120962831Y-71452353D01*
X120900550Y-71301994D01*
X120868800Y-71142374D01*
X120868800Y-70979626D01*
X120900550Y-70820006D01*
X120962831Y-70669647D01*
X121053248Y-70534328D01*
X121168328Y-70419248D01*
X121303647Y-70328831D01*
X121454006Y-70266550D01*
X121560419Y-70245383D01*
X121613625Y-70234800D01*
X121776375Y-70234800D01*
X121829581Y-70245383D01*
X121829581Y-70245383D01*
G37*
G36*
X119289581Y-70245383D02*
G01*
X119395994Y-70266550D01*
X119546353Y-70328831D01*
X119681672Y-70419248D01*
X119796752Y-70534328D01*
X119887169Y-70669647D01*
X119949450Y-70820006D01*
X119981200Y-70979626D01*
X119981200Y-71142374D01*
X119949450Y-71301994D01*
X119887169Y-71452353D01*
X119796752Y-71587672D01*
X119681672Y-71702752D01*
X119546353Y-71793169D01*
X119395994Y-71855450D01*
X119289581Y-71876617D01*
X119236375Y-71887200D01*
X119073625Y-71887200D01*
X119020419Y-71876617D01*
X118914006Y-71855450D01*
X118763647Y-71793169D01*
X118628328Y-71702752D01*
X118513248Y-71587672D01*
X118422831Y-71452353D01*
X118360550Y-71301994D01*
X118328800Y-71142374D01*
X118328800Y-70979626D01*
X118360550Y-70820006D01*
X118422831Y-70669647D01*
X118513248Y-70534328D01*
X118628328Y-70419248D01*
X118763647Y-70328831D01*
X118914006Y-70266550D01*
X119020419Y-70245383D01*
X119073625Y-70234800D01*
X119236375Y-70234800D01*
X119289581Y-70245383D01*
X119289581Y-70245383D01*
G37*
G36*
X162469781Y-70245383D02*
G01*
X162576194Y-70266550D01*
X162726553Y-70328831D01*
X162861872Y-70419248D01*
X162976952Y-70534328D01*
X163067369Y-70669647D01*
X163129650Y-70820006D01*
X163161400Y-70979626D01*
X163161400Y-71142374D01*
X163129650Y-71301994D01*
X163067369Y-71452353D01*
X162976952Y-71587672D01*
X162861872Y-71702752D01*
X162726553Y-71793169D01*
X162576194Y-71855450D01*
X162469781Y-71876617D01*
X162416575Y-71887200D01*
X162253825Y-71887200D01*
X162200619Y-71876617D01*
X162094206Y-71855450D01*
X161943847Y-71793169D01*
X161808528Y-71702752D01*
X161693448Y-71587672D01*
X161603031Y-71452353D01*
X161540750Y-71301994D01*
X161509000Y-71142374D01*
X161509000Y-70979626D01*
X161540750Y-70820006D01*
X161603031Y-70669647D01*
X161693448Y-70534328D01*
X161808528Y-70419248D01*
X161943847Y-70328831D01*
X162094206Y-70266550D01*
X162200619Y-70245383D01*
X162253825Y-70234800D01*
X162416575Y-70234800D01*
X162469781Y-70245383D01*
X162469781Y-70245383D01*
G37*
G36*
X194171485Y-67780071D02*
G01*
X194329349Y-67795619D01*
X194591883Y-67875258D01*
X194597965Y-67877103D01*
X194845517Y-68009423D01*
X195062502Y-68187498D01*
X195240577Y-68404483D01*
X195372897Y-68652035D01*
X195372898Y-68652038D01*
X195454381Y-68920651D01*
X195481894Y-69200000D01*
X195454381Y-69479349D01*
X195372898Y-69747962D01*
X195372897Y-69747965D01*
X195240577Y-69995517D01*
X195062502Y-70212502D01*
X194845517Y-70390577D01*
X194597965Y-70522897D01*
X194597962Y-70522898D01*
X194329349Y-70604381D01*
X194189781Y-70618127D01*
X194119998Y-70625000D01*
X193380002Y-70625000D01*
X193310219Y-70618127D01*
X193170651Y-70604381D01*
X192902038Y-70522898D01*
X192902035Y-70522897D01*
X192654483Y-70390577D01*
X192437498Y-70212502D01*
X192259423Y-69995517D01*
X192127103Y-69747965D01*
X192127102Y-69747962D01*
X192045619Y-69479349D01*
X192018106Y-69200000D01*
X192045619Y-68920651D01*
X192127102Y-68652038D01*
X192127103Y-68652035D01*
X192259423Y-68404483D01*
X192437498Y-68187498D01*
X192654483Y-68009423D01*
X192902035Y-67877103D01*
X192908117Y-67875258D01*
X193170651Y-67795619D01*
X193328515Y-67780071D01*
X193380002Y-67775000D01*
X194119998Y-67775000D01*
X194171485Y-67780071D01*
X194171485Y-67780071D01*
G37*
G36*
X189844453Y-67778706D02*
G01*
X189874742Y-67787894D01*
X189902648Y-67802810D01*
X189927112Y-67822888D01*
X189947190Y-67847352D01*
X189962106Y-67875258D01*
X189971294Y-67905547D01*
X189975000Y-67943177D01*
X189975000Y-70456823D01*
X189971294Y-70494453D01*
X189962106Y-70524742D01*
X189947190Y-70552648D01*
X189927112Y-70577112D01*
X189902648Y-70597190D01*
X189874742Y-70612106D01*
X189844453Y-70621294D01*
X189806823Y-70625000D01*
X186693177Y-70625000D01*
X186655547Y-70621294D01*
X186625258Y-70612106D01*
X186597352Y-70597190D01*
X186572888Y-70577112D01*
X186552810Y-70552648D01*
X186537894Y-70524742D01*
X186528706Y-70494453D01*
X186525000Y-70456823D01*
X186525000Y-67943177D01*
X186528706Y-67905547D01*
X186537894Y-67875258D01*
X186552810Y-67847352D01*
X186572888Y-67822888D01*
X186597352Y-67802810D01*
X186625258Y-67787894D01*
X186655547Y-67778706D01*
X186693177Y-67775000D01*
X189806823Y-67775000D01*
X189844453Y-67778706D01*
X189844453Y-67778706D01*
G37*
G36*
X183854278Y-68879665D02*
G01*
X183893924Y-68891692D01*
X183930463Y-68911223D01*
X183962492Y-68937508D01*
X183988777Y-68969537D01*
X184008308Y-69006076D01*
X184020335Y-69045722D01*
X184025000Y-69093094D01*
X184025000Y-69956906D01*
X184020335Y-70004278D01*
X184008308Y-70043924D01*
X183988777Y-70080463D01*
X183962492Y-70112492D01*
X183930463Y-70138777D01*
X183893924Y-70158308D01*
X183854278Y-70170335D01*
X183806906Y-70175000D01*
X182693094Y-70175000D01*
X182645722Y-70170335D01*
X182606076Y-70158308D01*
X182569537Y-70138777D01*
X182537508Y-70112492D01*
X182511223Y-70080463D01*
X182491692Y-70043924D01*
X182479665Y-70004278D01*
X182475000Y-69956906D01*
X182475000Y-69093094D01*
X182479665Y-69045722D01*
X182491692Y-69006076D01*
X182511223Y-68969537D01*
X182537508Y-68937508D01*
X182569537Y-68911223D01*
X182606076Y-68891692D01*
X182645722Y-68879665D01*
X182693094Y-68875000D01*
X183806906Y-68875000D01*
X183854278Y-68879665D01*
X183854278Y-68879665D01*
G37*
G36*
X119289581Y-67705383D02*
G01*
X119395994Y-67726550D01*
X119546353Y-67788831D01*
X119681672Y-67879248D01*
X119796752Y-67994328D01*
X119887169Y-68129647D01*
X119949450Y-68280006D01*
X119981200Y-68439626D01*
X119981200Y-68602374D01*
X119949450Y-68761994D01*
X119887169Y-68912353D01*
X119796752Y-69047672D01*
X119681672Y-69162752D01*
X119546353Y-69253169D01*
X119395994Y-69315450D01*
X119289581Y-69336617D01*
X119236375Y-69347200D01*
X119073625Y-69347200D01*
X119020419Y-69336617D01*
X118914006Y-69315450D01*
X118763647Y-69253169D01*
X118628328Y-69162752D01*
X118513248Y-69047672D01*
X118422831Y-68912353D01*
X118360550Y-68761994D01*
X118328800Y-68602374D01*
X118328800Y-68439626D01*
X118360550Y-68280006D01*
X118422831Y-68129647D01*
X118513248Y-67994328D01*
X118628328Y-67879248D01*
X118763647Y-67788831D01*
X118914006Y-67726550D01*
X119020419Y-67705383D01*
X119073625Y-67694800D01*
X119236375Y-67694800D01*
X119289581Y-67705383D01*
X119289581Y-67705383D01*
G37*
G36*
X165009581Y-67705383D02*
G01*
X165115994Y-67726550D01*
X165266353Y-67788831D01*
X165401672Y-67879248D01*
X165516752Y-67994328D01*
X165607169Y-68129647D01*
X165669450Y-68280006D01*
X165701200Y-68439626D01*
X165701200Y-68602374D01*
X165669450Y-68761994D01*
X165607169Y-68912353D01*
X165516752Y-69047672D01*
X165401672Y-69162752D01*
X165266353Y-69253169D01*
X165115994Y-69315450D01*
X165009581Y-69336617D01*
X164956375Y-69347200D01*
X164793625Y-69347200D01*
X164740419Y-69336617D01*
X164634006Y-69315450D01*
X164483647Y-69253169D01*
X164348328Y-69162752D01*
X164233248Y-69047672D01*
X164142831Y-68912353D01*
X164080550Y-68761994D01*
X164048800Y-68602374D01*
X164048800Y-68439626D01*
X164080550Y-68280006D01*
X164142831Y-68129647D01*
X164233248Y-67994328D01*
X164348328Y-67879248D01*
X164483647Y-67788831D01*
X164634006Y-67726550D01*
X164740419Y-67705383D01*
X164793625Y-67694800D01*
X164956375Y-67694800D01*
X165009581Y-67705383D01*
X165009581Y-67705383D01*
G37*
G36*
X162469781Y-67705383D02*
G01*
X162576194Y-67726550D01*
X162726553Y-67788831D01*
X162861872Y-67879248D01*
X162976952Y-67994328D01*
X163067369Y-68129647D01*
X163129650Y-68280006D01*
X163161400Y-68439626D01*
X163161400Y-68602374D01*
X163129650Y-68761994D01*
X163067369Y-68912353D01*
X162976952Y-69047672D01*
X162861872Y-69162752D01*
X162726553Y-69253169D01*
X162576194Y-69315450D01*
X162469781Y-69336617D01*
X162416575Y-69347200D01*
X162253825Y-69347200D01*
X162200619Y-69336617D01*
X162094206Y-69315450D01*
X161943847Y-69253169D01*
X161808528Y-69162752D01*
X161693448Y-69047672D01*
X161603031Y-68912353D01*
X161540750Y-68761994D01*
X161509000Y-68602374D01*
X161509000Y-68439626D01*
X161540750Y-68280006D01*
X161603031Y-68129647D01*
X161693448Y-67994328D01*
X161808528Y-67879248D01*
X161943847Y-67788831D01*
X162094206Y-67726550D01*
X162200619Y-67705383D01*
X162253825Y-67694800D01*
X162416575Y-67694800D01*
X162469781Y-67705383D01*
X162469781Y-67705383D01*
G37*
G36*
X121829581Y-67705383D02*
G01*
X121935994Y-67726550D01*
X122086353Y-67788831D01*
X122221672Y-67879248D01*
X122336752Y-67994328D01*
X122427169Y-68129647D01*
X122489450Y-68280006D01*
X122521200Y-68439626D01*
X122521200Y-68602374D01*
X122489450Y-68761994D01*
X122427169Y-68912353D01*
X122336752Y-69047672D01*
X122221672Y-69162752D01*
X122086353Y-69253169D01*
X121935994Y-69315450D01*
X121829581Y-69336617D01*
X121776375Y-69347200D01*
X121613625Y-69347200D01*
X121560419Y-69336617D01*
X121454006Y-69315450D01*
X121303647Y-69253169D01*
X121168328Y-69162752D01*
X121053248Y-69047672D01*
X120962831Y-68912353D01*
X120900550Y-68761994D01*
X120868800Y-68602374D01*
X120868800Y-68439626D01*
X120900550Y-68280006D01*
X120962831Y-68129647D01*
X121053248Y-67994328D01*
X121168328Y-67879248D01*
X121303647Y-67788831D01*
X121454006Y-67726550D01*
X121560419Y-67705383D01*
X121613625Y-67694800D01*
X121776375Y-67694800D01*
X121829581Y-67705383D01*
X121829581Y-67705383D01*
G37*
G36*
X183854278Y-66829665D02*
G01*
X183893924Y-66841692D01*
X183930463Y-66861223D01*
X183962492Y-66887508D01*
X183988777Y-66919537D01*
X184008308Y-66956076D01*
X184020335Y-66995722D01*
X184025000Y-67043094D01*
X184025000Y-67906906D01*
X184020335Y-67954278D01*
X184008308Y-67993924D01*
X183988777Y-68030463D01*
X183962492Y-68062492D01*
X183930463Y-68088777D01*
X183893924Y-68108308D01*
X183854278Y-68120335D01*
X183806906Y-68125000D01*
X182693094Y-68125000D01*
X182645722Y-68120335D01*
X182606076Y-68108308D01*
X182569537Y-68088777D01*
X182537508Y-68062492D01*
X182511223Y-68030463D01*
X182491692Y-67993924D01*
X182479665Y-67954278D01*
X182475000Y-67906906D01*
X182475000Y-67043094D01*
X182479665Y-66995722D01*
X182491692Y-66956076D01*
X182511223Y-66919537D01*
X182537508Y-66887508D01*
X182569537Y-66861223D01*
X182606076Y-66841692D01*
X182645722Y-66829665D01*
X182693094Y-66825000D01*
X183806906Y-66825000D01*
X183854278Y-66829665D01*
X183854278Y-66829665D01*
G37*
G36*
X119289581Y-65165383D02*
G01*
X119395994Y-65186550D01*
X119546353Y-65248831D01*
X119681672Y-65339248D01*
X119796752Y-65454328D01*
X119887169Y-65589647D01*
X119949450Y-65740006D01*
X119981200Y-65899626D01*
X119981200Y-66062374D01*
X119949450Y-66221994D01*
X119887169Y-66372353D01*
X119796752Y-66507672D01*
X119681672Y-66622752D01*
X119546353Y-66713169D01*
X119395994Y-66775450D01*
X119289581Y-66796617D01*
X119236375Y-66807200D01*
X119073625Y-66807200D01*
X119020419Y-66796617D01*
X118914006Y-66775450D01*
X118763647Y-66713169D01*
X118628328Y-66622752D01*
X118513248Y-66507672D01*
X118422831Y-66372353D01*
X118360550Y-66221994D01*
X118328800Y-66062374D01*
X118328800Y-65899626D01*
X118360550Y-65740006D01*
X118422831Y-65589647D01*
X118513248Y-65454328D01*
X118628328Y-65339248D01*
X118763647Y-65248831D01*
X118914006Y-65186550D01*
X119020419Y-65165383D01*
X119073625Y-65154800D01*
X119236375Y-65154800D01*
X119289581Y-65165383D01*
X119289581Y-65165383D01*
G37*
G36*
X162469781Y-65165383D02*
G01*
X162576194Y-65186550D01*
X162726553Y-65248831D01*
X162861872Y-65339248D01*
X162976952Y-65454328D01*
X163067369Y-65589647D01*
X163129650Y-65740006D01*
X163161400Y-65899626D01*
X163161400Y-66062374D01*
X163129650Y-66221994D01*
X163067369Y-66372353D01*
X162976952Y-66507672D01*
X162861872Y-66622752D01*
X162726553Y-66713169D01*
X162576194Y-66775450D01*
X162469781Y-66796617D01*
X162416575Y-66807200D01*
X162253825Y-66807200D01*
X162200619Y-66796617D01*
X162094206Y-66775450D01*
X161943847Y-66713169D01*
X161808528Y-66622752D01*
X161693448Y-66507672D01*
X161603031Y-66372353D01*
X161540750Y-66221994D01*
X161509000Y-66062374D01*
X161509000Y-65899626D01*
X161540750Y-65740006D01*
X161603031Y-65589647D01*
X161693448Y-65454328D01*
X161808528Y-65339248D01*
X161943847Y-65248831D01*
X162094206Y-65186550D01*
X162200619Y-65165383D01*
X162253825Y-65154800D01*
X162416575Y-65154800D01*
X162469781Y-65165383D01*
X162469781Y-65165383D01*
G37*
G36*
X121829581Y-65165383D02*
G01*
X121935994Y-65186550D01*
X122086353Y-65248831D01*
X122221672Y-65339248D01*
X122336752Y-65454328D01*
X122427169Y-65589647D01*
X122489450Y-65740006D01*
X122521200Y-65899626D01*
X122521200Y-66062374D01*
X122489450Y-66221994D01*
X122427169Y-66372353D01*
X122336752Y-66507672D01*
X122221672Y-66622752D01*
X122086353Y-66713169D01*
X121935994Y-66775450D01*
X121829581Y-66796617D01*
X121776375Y-66807200D01*
X121613625Y-66807200D01*
X121560419Y-66796617D01*
X121454006Y-66775450D01*
X121303647Y-66713169D01*
X121168328Y-66622752D01*
X121053248Y-66507672D01*
X120962831Y-66372353D01*
X120900550Y-66221994D01*
X120868800Y-66062374D01*
X120868800Y-65899626D01*
X120900550Y-65740006D01*
X120962831Y-65589647D01*
X121053248Y-65454328D01*
X121168328Y-65339248D01*
X121303647Y-65248831D01*
X121454006Y-65186550D01*
X121560419Y-65165383D01*
X121613625Y-65154800D01*
X121776375Y-65154800D01*
X121829581Y-65165383D01*
X121829581Y-65165383D01*
G37*
G36*
X165009581Y-65165383D02*
G01*
X165115994Y-65186550D01*
X165266353Y-65248831D01*
X165401672Y-65339248D01*
X165516752Y-65454328D01*
X165607169Y-65589647D01*
X165669450Y-65740006D01*
X165701200Y-65899626D01*
X165701200Y-66062374D01*
X165669450Y-66221994D01*
X165607169Y-66372353D01*
X165516752Y-66507672D01*
X165401672Y-66622752D01*
X165266353Y-66713169D01*
X165115994Y-66775450D01*
X165009581Y-66796617D01*
X164956375Y-66807200D01*
X164793625Y-66807200D01*
X164740419Y-66796617D01*
X164634006Y-66775450D01*
X164483647Y-66713169D01*
X164348328Y-66622752D01*
X164233248Y-66507672D01*
X164142831Y-66372353D01*
X164080550Y-66221994D01*
X164048800Y-66062374D01*
X164048800Y-65899626D01*
X164080550Y-65740006D01*
X164142831Y-65589647D01*
X164233248Y-65454328D01*
X164348328Y-65339248D01*
X164483647Y-65248831D01*
X164634006Y-65186550D01*
X164740419Y-65165383D01*
X164793625Y-65154800D01*
X164956375Y-65154800D01*
X165009581Y-65165383D01*
X165009581Y-65165383D01*
G37*
G36*
X188689781Y-63581873D02*
G01*
X188829349Y-63595619D01*
X189097962Y-63677102D01*
X189097965Y-63677103D01*
X189345517Y-63809423D01*
X189562502Y-63987498D01*
X189740577Y-64204483D01*
X189872897Y-64452035D01*
X189872898Y-64452038D01*
X189954381Y-64720651D01*
X189981894Y-65000000D01*
X189954381Y-65279349D01*
X189872898Y-65547962D01*
X189872897Y-65547965D01*
X189740577Y-65795517D01*
X189562502Y-66012502D01*
X189345517Y-66190577D01*
X189097965Y-66322897D01*
X189097962Y-66322898D01*
X188829349Y-66404381D01*
X188689781Y-66418127D01*
X188619998Y-66425000D01*
X187880002Y-66425000D01*
X187810219Y-66418127D01*
X187670651Y-66404381D01*
X187402038Y-66322898D01*
X187402035Y-66322897D01*
X187154483Y-66190577D01*
X186937498Y-66012502D01*
X186759423Y-65795517D01*
X186627103Y-65547965D01*
X186627102Y-65547962D01*
X186545619Y-65279349D01*
X186518106Y-65000000D01*
X186545619Y-64720651D01*
X186627102Y-64452038D01*
X186627103Y-64452035D01*
X186759423Y-64204483D01*
X186937498Y-63987498D01*
X187154483Y-63809423D01*
X187402035Y-63677103D01*
X187402038Y-63677102D01*
X187670651Y-63595619D01*
X187810219Y-63581873D01*
X187880002Y-63575000D01*
X188619998Y-63575000D01*
X188689781Y-63581873D01*
X188689781Y-63581873D01*
G37*
G36*
X194189781Y-63581873D02*
G01*
X194329349Y-63595619D01*
X194597962Y-63677102D01*
X194597965Y-63677103D01*
X194845517Y-63809423D01*
X195062502Y-63987498D01*
X195240577Y-64204483D01*
X195372897Y-64452035D01*
X195372898Y-64452038D01*
X195454381Y-64720651D01*
X195481894Y-65000000D01*
X195454381Y-65279349D01*
X195372898Y-65547962D01*
X195372897Y-65547965D01*
X195240577Y-65795517D01*
X195062502Y-66012502D01*
X194845517Y-66190577D01*
X194597965Y-66322897D01*
X194597962Y-66322898D01*
X194329349Y-66404381D01*
X194189781Y-66418127D01*
X194119998Y-66425000D01*
X193380002Y-66425000D01*
X193310219Y-66418127D01*
X193170651Y-66404381D01*
X192902038Y-66322898D01*
X192902035Y-66322897D01*
X192654483Y-66190577D01*
X192437498Y-66012502D01*
X192259423Y-65795517D01*
X192127103Y-65547965D01*
X192127102Y-65547962D01*
X192045619Y-65279349D01*
X192018106Y-65000000D01*
X192045619Y-64720651D01*
X192127102Y-64452038D01*
X192127103Y-64452035D01*
X192259423Y-64204483D01*
X192437498Y-63987498D01*
X192654483Y-63809423D01*
X192902035Y-63677103D01*
X192902038Y-63677102D01*
X193170651Y-63595619D01*
X193310219Y-63581873D01*
X193380002Y-63575000D01*
X194119998Y-63575000D01*
X194189781Y-63581873D01*
X194189781Y-63581873D01*
G37*
G36*
X173604278Y-63379665D02*
G01*
X173643924Y-63391692D01*
X173680463Y-63411223D01*
X173712492Y-63437508D01*
X173738777Y-63469537D01*
X173758308Y-63506076D01*
X173770335Y-63545722D01*
X173775000Y-63593094D01*
X173775000Y-64456906D01*
X173770335Y-64504278D01*
X173758308Y-64543924D01*
X173738777Y-64580463D01*
X173712492Y-64612492D01*
X173680463Y-64638777D01*
X173643924Y-64658308D01*
X173604278Y-64670335D01*
X173556906Y-64675000D01*
X172443094Y-64675000D01*
X172395722Y-64670335D01*
X172356076Y-64658308D01*
X172319537Y-64638777D01*
X172287508Y-64612492D01*
X172261223Y-64580463D01*
X172241692Y-64543924D01*
X172229665Y-64504278D01*
X172225000Y-64456906D01*
X172225000Y-63593094D01*
X172229665Y-63545722D01*
X172241692Y-63506076D01*
X172261223Y-63469537D01*
X172287508Y-63437508D01*
X172319537Y-63411223D01*
X172356076Y-63391692D01*
X172395722Y-63379665D01*
X172443094Y-63375000D01*
X173556906Y-63375000D01*
X173604278Y-63379665D01*
X173604278Y-63379665D01*
G37*
G36*
X165009581Y-62625383D02*
G01*
X165115994Y-62646550D01*
X165266353Y-62708831D01*
X165401672Y-62799248D01*
X165516752Y-62914328D01*
X165607169Y-63049647D01*
X165669450Y-63200006D01*
X165701200Y-63359626D01*
X165701200Y-63522374D01*
X165669450Y-63681994D01*
X165607169Y-63832353D01*
X165516752Y-63967672D01*
X165401672Y-64082752D01*
X165266353Y-64173169D01*
X165115994Y-64235450D01*
X165009581Y-64256617D01*
X164956375Y-64267200D01*
X164793625Y-64267200D01*
X164740419Y-64256617D01*
X164634006Y-64235450D01*
X164483647Y-64173169D01*
X164348328Y-64082752D01*
X164233248Y-63967672D01*
X164142831Y-63832353D01*
X164080550Y-63681994D01*
X164048800Y-63522374D01*
X164048800Y-63359626D01*
X164080550Y-63200006D01*
X164142831Y-63049647D01*
X164233248Y-62914328D01*
X164348328Y-62799248D01*
X164483647Y-62708831D01*
X164634006Y-62646550D01*
X164740419Y-62625383D01*
X164793625Y-62614800D01*
X164956375Y-62614800D01*
X165009581Y-62625383D01*
X165009581Y-62625383D01*
G37*
G36*
X162469781Y-62625383D02*
G01*
X162576194Y-62646550D01*
X162726553Y-62708831D01*
X162861872Y-62799248D01*
X162976952Y-62914328D01*
X163067369Y-63049647D01*
X163129650Y-63200006D01*
X163161400Y-63359626D01*
X163161400Y-63522374D01*
X163129650Y-63681994D01*
X163067369Y-63832353D01*
X162976952Y-63967672D01*
X162861872Y-64082752D01*
X162726553Y-64173169D01*
X162576194Y-64235450D01*
X162469781Y-64256617D01*
X162416575Y-64267200D01*
X162253825Y-64267200D01*
X162200619Y-64256617D01*
X162094206Y-64235450D01*
X161943847Y-64173169D01*
X161808528Y-64082752D01*
X161693448Y-63967672D01*
X161603031Y-63832353D01*
X161540750Y-63681994D01*
X161509000Y-63522374D01*
X161509000Y-63359626D01*
X161540750Y-63200006D01*
X161603031Y-63049647D01*
X161693448Y-62914328D01*
X161808528Y-62799248D01*
X161943847Y-62708831D01*
X162094206Y-62646550D01*
X162200619Y-62625383D01*
X162253825Y-62614800D01*
X162416575Y-62614800D01*
X162469781Y-62625383D01*
X162469781Y-62625383D01*
G37*
G36*
X121829581Y-62625383D02*
G01*
X121935994Y-62646550D01*
X122086353Y-62708831D01*
X122221672Y-62799248D01*
X122336752Y-62914328D01*
X122427169Y-63049647D01*
X122489450Y-63200006D01*
X122521200Y-63359626D01*
X122521200Y-63522374D01*
X122489450Y-63681994D01*
X122427169Y-63832353D01*
X122336752Y-63967672D01*
X122221672Y-64082752D01*
X122086353Y-64173169D01*
X121935994Y-64235450D01*
X121829581Y-64256617D01*
X121776375Y-64267200D01*
X121613625Y-64267200D01*
X121560419Y-64256617D01*
X121454006Y-64235450D01*
X121303647Y-64173169D01*
X121168328Y-64082752D01*
X121053248Y-63967672D01*
X120962831Y-63832353D01*
X120900550Y-63681994D01*
X120868800Y-63522374D01*
X120868800Y-63359626D01*
X120900550Y-63200006D01*
X120962831Y-63049647D01*
X121053248Y-62914328D01*
X121168328Y-62799248D01*
X121303647Y-62708831D01*
X121454006Y-62646550D01*
X121560419Y-62625383D01*
X121613625Y-62614800D01*
X121776375Y-62614800D01*
X121829581Y-62625383D01*
X121829581Y-62625383D01*
G37*
G36*
X119289581Y-62625383D02*
G01*
X119395994Y-62646550D01*
X119546353Y-62708831D01*
X119681672Y-62799248D01*
X119796752Y-62914328D01*
X119887169Y-63049647D01*
X119949450Y-63200006D01*
X119981200Y-63359626D01*
X119981200Y-63522374D01*
X119949450Y-63681994D01*
X119887169Y-63832353D01*
X119796752Y-63967672D01*
X119681672Y-64082752D01*
X119546353Y-64173169D01*
X119395994Y-64235450D01*
X119289581Y-64256617D01*
X119236375Y-64267200D01*
X119073625Y-64267200D01*
X119020419Y-64256617D01*
X118914006Y-64235450D01*
X118763647Y-64173169D01*
X118628328Y-64082752D01*
X118513248Y-63967672D01*
X118422831Y-63832353D01*
X118360550Y-63681994D01*
X118328800Y-63522374D01*
X118328800Y-63359626D01*
X118360550Y-63200006D01*
X118422831Y-63049647D01*
X118513248Y-62914328D01*
X118628328Y-62799248D01*
X118763647Y-62708831D01*
X118914006Y-62646550D01*
X119020419Y-62625383D01*
X119073625Y-62614800D01*
X119236375Y-62614800D01*
X119289581Y-62625383D01*
X119289581Y-62625383D01*
G37*
G36*
X173604278Y-61329665D02*
G01*
X173643924Y-61341692D01*
X173680463Y-61361223D01*
X173712492Y-61387508D01*
X173738777Y-61419537D01*
X173758308Y-61456076D01*
X173770335Y-61495722D01*
X173775000Y-61543094D01*
X173775000Y-62406906D01*
X173770335Y-62454278D01*
X173758308Y-62493924D01*
X173738777Y-62530463D01*
X173712492Y-62562492D01*
X173680463Y-62588777D01*
X173643924Y-62608308D01*
X173604278Y-62620335D01*
X173556906Y-62625000D01*
X172443094Y-62625000D01*
X172395722Y-62620335D01*
X172356076Y-62608308D01*
X172319537Y-62588777D01*
X172287508Y-62562492D01*
X172261223Y-62530463D01*
X172241692Y-62493924D01*
X172229665Y-62454278D01*
X172225000Y-62406906D01*
X172225000Y-61543094D01*
X172229665Y-61495722D01*
X172241692Y-61456076D01*
X172261223Y-61419537D01*
X172287508Y-61387508D01*
X172319537Y-61361223D01*
X172356076Y-61341692D01*
X172395722Y-61329665D01*
X172443094Y-61325000D01*
X173556906Y-61325000D01*
X173604278Y-61329665D01*
X173604278Y-61329665D01*
G37*
G36*
X188689781Y-59381873D02*
G01*
X188829349Y-59395619D01*
X189097962Y-59477102D01*
X189097965Y-59477103D01*
X189345517Y-59609423D01*
X189562502Y-59787498D01*
X189740577Y-60004483D01*
X189872897Y-60252035D01*
X189872898Y-60252038D01*
X189954381Y-60520651D01*
X189981894Y-60800000D01*
X189954381Y-61079349D01*
X189889767Y-61292353D01*
X189872897Y-61347965D01*
X189740577Y-61595517D01*
X189562502Y-61812502D01*
X189345517Y-61990577D01*
X189097965Y-62122897D01*
X189097962Y-62122898D01*
X188829349Y-62204381D01*
X188689781Y-62218127D01*
X188619998Y-62225000D01*
X187880002Y-62225000D01*
X187810219Y-62218127D01*
X187670651Y-62204381D01*
X187402038Y-62122898D01*
X187402035Y-62122897D01*
X187154483Y-61990577D01*
X186937498Y-61812502D01*
X186759423Y-61595517D01*
X186627103Y-61347965D01*
X186610233Y-61292353D01*
X186545619Y-61079349D01*
X186518106Y-60800000D01*
X186545619Y-60520651D01*
X186627102Y-60252038D01*
X186627103Y-60252035D01*
X186759423Y-60004483D01*
X186937498Y-59787498D01*
X187154483Y-59609423D01*
X187402035Y-59477103D01*
X187402038Y-59477102D01*
X187670651Y-59395619D01*
X187810219Y-59381873D01*
X187880002Y-59375000D01*
X188619998Y-59375000D01*
X188689781Y-59381873D01*
X188689781Y-59381873D01*
G37*
G36*
X194189781Y-59381873D02*
G01*
X194329349Y-59395619D01*
X194597962Y-59477102D01*
X194597965Y-59477103D01*
X194845517Y-59609423D01*
X195062502Y-59787498D01*
X195240577Y-60004483D01*
X195372897Y-60252035D01*
X195372898Y-60252038D01*
X195454381Y-60520651D01*
X195481894Y-60800000D01*
X195454381Y-61079349D01*
X195389767Y-61292353D01*
X195372897Y-61347965D01*
X195240577Y-61595517D01*
X195062502Y-61812502D01*
X194845517Y-61990577D01*
X194597965Y-62122897D01*
X194597962Y-62122898D01*
X194329349Y-62204381D01*
X194189781Y-62218127D01*
X194119998Y-62225000D01*
X193380002Y-62225000D01*
X193310219Y-62218127D01*
X193170651Y-62204381D01*
X192902038Y-62122898D01*
X192902035Y-62122897D01*
X192654483Y-61990577D01*
X192437498Y-61812502D01*
X192259423Y-61595517D01*
X192127103Y-61347965D01*
X192110233Y-61292353D01*
X192045619Y-61079349D01*
X192018106Y-60800000D01*
X192045619Y-60520651D01*
X192127102Y-60252038D01*
X192127103Y-60252035D01*
X192259423Y-60004483D01*
X192437498Y-59787498D01*
X192654483Y-59609423D01*
X192902035Y-59477103D01*
X192902038Y-59477102D01*
X193170651Y-59395619D01*
X193310219Y-59381873D01*
X193380002Y-59375000D01*
X194119998Y-59375000D01*
X194189781Y-59381873D01*
X194189781Y-59381873D01*
G37*
G36*
X162469781Y-60085383D02*
G01*
X162576194Y-60106550D01*
X162726553Y-60168831D01*
X162861872Y-60259248D01*
X162976952Y-60374328D01*
X163067369Y-60509647D01*
X163129650Y-60660006D01*
X163161400Y-60819626D01*
X163161400Y-60982374D01*
X163129650Y-61141994D01*
X163067369Y-61292353D01*
X162976952Y-61427672D01*
X162861872Y-61542752D01*
X162726553Y-61633169D01*
X162576194Y-61695450D01*
X162469781Y-61716617D01*
X162416575Y-61727200D01*
X162253825Y-61727200D01*
X162200619Y-61716617D01*
X162094206Y-61695450D01*
X161943847Y-61633169D01*
X161808528Y-61542752D01*
X161693448Y-61427672D01*
X161603031Y-61292353D01*
X161540750Y-61141994D01*
X161509000Y-60982374D01*
X161509000Y-60819626D01*
X161540750Y-60660006D01*
X161603031Y-60509647D01*
X161693448Y-60374328D01*
X161808528Y-60259248D01*
X161943847Y-60168831D01*
X162094206Y-60106550D01*
X162200619Y-60085383D01*
X162253825Y-60074800D01*
X162416575Y-60074800D01*
X162469781Y-60085383D01*
X162469781Y-60085383D01*
G37*
G36*
X165009581Y-60085383D02*
G01*
X165115994Y-60106550D01*
X165266353Y-60168831D01*
X165401672Y-60259248D01*
X165516752Y-60374328D01*
X165607169Y-60509647D01*
X165669450Y-60660006D01*
X165701200Y-60819626D01*
X165701200Y-60982374D01*
X165669450Y-61141994D01*
X165607169Y-61292353D01*
X165516752Y-61427672D01*
X165401672Y-61542752D01*
X165266353Y-61633169D01*
X165115994Y-61695450D01*
X165009581Y-61716617D01*
X164956375Y-61727200D01*
X164793625Y-61727200D01*
X164740419Y-61716617D01*
X164634006Y-61695450D01*
X164483647Y-61633169D01*
X164348328Y-61542752D01*
X164233248Y-61427672D01*
X164142831Y-61292353D01*
X164080550Y-61141994D01*
X164048800Y-60982374D01*
X164048800Y-60819626D01*
X164080550Y-60660006D01*
X164142831Y-60509647D01*
X164233248Y-60374328D01*
X164348328Y-60259248D01*
X164483647Y-60168831D01*
X164634006Y-60106550D01*
X164740419Y-60085383D01*
X164793625Y-60074800D01*
X164956375Y-60074800D01*
X165009581Y-60085383D01*
X165009581Y-60085383D01*
G37*
G36*
X121829581Y-60085383D02*
G01*
X121935994Y-60106550D01*
X122086353Y-60168831D01*
X122221672Y-60259248D01*
X122336752Y-60374328D01*
X122427169Y-60509647D01*
X122489450Y-60660006D01*
X122521200Y-60819626D01*
X122521200Y-60982374D01*
X122489450Y-61141994D01*
X122427169Y-61292353D01*
X122336752Y-61427672D01*
X122221672Y-61542752D01*
X122086353Y-61633169D01*
X121935994Y-61695450D01*
X121829581Y-61716617D01*
X121776375Y-61727200D01*
X121613625Y-61727200D01*
X121560419Y-61716617D01*
X121454006Y-61695450D01*
X121303647Y-61633169D01*
X121168328Y-61542752D01*
X121053248Y-61427672D01*
X120962831Y-61292353D01*
X120900550Y-61141994D01*
X120868800Y-60982374D01*
X120868800Y-60819626D01*
X120900550Y-60660006D01*
X120962831Y-60509647D01*
X121053248Y-60374328D01*
X121168328Y-60259248D01*
X121303647Y-60168831D01*
X121454006Y-60106550D01*
X121560419Y-60085383D01*
X121613625Y-60074800D01*
X121776375Y-60074800D01*
X121829581Y-60085383D01*
X121829581Y-60085383D01*
G37*
G36*
X119289581Y-60085383D02*
G01*
X119395994Y-60106550D01*
X119546353Y-60168831D01*
X119681672Y-60259248D01*
X119796752Y-60374328D01*
X119887169Y-60509647D01*
X119949450Y-60660006D01*
X119981200Y-60819626D01*
X119981200Y-60982374D01*
X119949450Y-61141994D01*
X119887169Y-61292353D01*
X119796752Y-61427672D01*
X119681672Y-61542752D01*
X119546353Y-61633169D01*
X119395994Y-61695450D01*
X119289581Y-61716617D01*
X119236375Y-61727200D01*
X119073625Y-61727200D01*
X119020419Y-61716617D01*
X118914006Y-61695450D01*
X118763647Y-61633169D01*
X118628328Y-61542752D01*
X118513248Y-61427672D01*
X118422831Y-61292353D01*
X118360550Y-61141994D01*
X118328800Y-60982374D01*
X118328800Y-60819626D01*
X118360550Y-60660006D01*
X118422831Y-60509647D01*
X118513248Y-60374328D01*
X118628328Y-60259248D01*
X118763647Y-60168831D01*
X118914006Y-60106550D01*
X119020419Y-60085383D01*
X119073625Y-60074800D01*
X119236375Y-60074800D01*
X119289581Y-60085383D01*
X119289581Y-60085383D01*
G37*
G36*
X162469781Y-57545383D02*
G01*
X162576194Y-57566550D01*
X162726553Y-57628831D01*
X162861872Y-57719248D01*
X162976952Y-57834328D01*
X163067369Y-57969647D01*
X163129650Y-58120006D01*
X163161400Y-58279626D01*
X163161400Y-58442374D01*
X163129650Y-58601994D01*
X163067369Y-58752353D01*
X162976952Y-58887672D01*
X162861872Y-59002752D01*
X162726553Y-59093169D01*
X162576194Y-59155450D01*
X162469781Y-59176617D01*
X162416575Y-59187200D01*
X162253825Y-59187200D01*
X162200619Y-59176617D01*
X162094206Y-59155450D01*
X161943847Y-59093169D01*
X161808528Y-59002752D01*
X161693448Y-58887672D01*
X161603031Y-58752353D01*
X161540750Y-58601994D01*
X161509000Y-58442374D01*
X161509000Y-58279626D01*
X161540750Y-58120006D01*
X161603031Y-57969647D01*
X161693448Y-57834328D01*
X161808528Y-57719248D01*
X161943847Y-57628831D01*
X162094206Y-57566550D01*
X162200619Y-57545383D01*
X162253825Y-57534800D01*
X162416575Y-57534800D01*
X162469781Y-57545383D01*
X162469781Y-57545383D01*
G37*
G36*
X165009581Y-57545383D02*
G01*
X165115994Y-57566550D01*
X165266353Y-57628831D01*
X165401672Y-57719248D01*
X165516752Y-57834328D01*
X165607169Y-57969647D01*
X165669450Y-58120006D01*
X165701200Y-58279626D01*
X165701200Y-58442374D01*
X165669450Y-58601994D01*
X165607169Y-58752353D01*
X165516752Y-58887672D01*
X165401672Y-59002752D01*
X165266353Y-59093169D01*
X165115994Y-59155450D01*
X165009581Y-59176617D01*
X164956375Y-59187200D01*
X164793625Y-59187200D01*
X164740419Y-59176617D01*
X164634006Y-59155450D01*
X164483647Y-59093169D01*
X164348328Y-59002752D01*
X164233248Y-58887672D01*
X164142831Y-58752353D01*
X164080550Y-58601994D01*
X164048800Y-58442374D01*
X164048800Y-58279626D01*
X164080550Y-58120006D01*
X164142831Y-57969647D01*
X164233248Y-57834328D01*
X164348328Y-57719248D01*
X164483647Y-57628831D01*
X164634006Y-57566550D01*
X164740419Y-57545383D01*
X164793625Y-57534800D01*
X164956375Y-57534800D01*
X165009581Y-57545383D01*
X165009581Y-57545383D01*
G37*
G36*
X121829581Y-57545383D02*
G01*
X121935994Y-57566550D01*
X122086353Y-57628831D01*
X122221672Y-57719248D01*
X122336752Y-57834328D01*
X122427169Y-57969647D01*
X122489450Y-58120006D01*
X122521200Y-58279626D01*
X122521200Y-58442374D01*
X122489450Y-58601994D01*
X122427169Y-58752353D01*
X122336752Y-58887672D01*
X122221672Y-59002752D01*
X122086353Y-59093169D01*
X121935994Y-59155450D01*
X121829581Y-59176617D01*
X121776375Y-59187200D01*
X121613625Y-59187200D01*
X121560419Y-59176617D01*
X121454006Y-59155450D01*
X121303647Y-59093169D01*
X121168328Y-59002752D01*
X121053248Y-58887672D01*
X120962831Y-58752353D01*
X120900550Y-58601994D01*
X120868800Y-58442374D01*
X120868800Y-58279626D01*
X120900550Y-58120006D01*
X120962831Y-57969647D01*
X121053248Y-57834328D01*
X121168328Y-57719248D01*
X121303647Y-57628831D01*
X121454006Y-57566550D01*
X121560419Y-57545383D01*
X121613625Y-57534800D01*
X121776375Y-57534800D01*
X121829581Y-57545383D01*
X121829581Y-57545383D01*
G37*
G36*
X119289581Y-57545383D02*
G01*
X119395994Y-57566550D01*
X119546353Y-57628831D01*
X119681672Y-57719248D01*
X119796752Y-57834328D01*
X119887169Y-57969647D01*
X119949450Y-58120006D01*
X119981200Y-58279626D01*
X119981200Y-58442374D01*
X119949450Y-58601994D01*
X119887169Y-58752353D01*
X119796752Y-58887672D01*
X119681672Y-59002752D01*
X119546353Y-59093169D01*
X119395994Y-59155450D01*
X119289581Y-59176617D01*
X119236375Y-59187200D01*
X119073625Y-59187200D01*
X119020419Y-59176617D01*
X118914006Y-59155450D01*
X118763647Y-59093169D01*
X118628328Y-59002752D01*
X118513248Y-58887672D01*
X118422831Y-58752353D01*
X118360550Y-58601994D01*
X118328800Y-58442374D01*
X118328800Y-58279626D01*
X118360550Y-58120006D01*
X118422831Y-57969647D01*
X118513248Y-57834328D01*
X118628328Y-57719248D01*
X118763647Y-57628831D01*
X118914006Y-57566550D01*
X119020419Y-57545383D01*
X119073625Y-57534800D01*
X119236375Y-57534800D01*
X119289581Y-57545383D01*
X119289581Y-57545383D01*
G37*
G36*
X188689781Y-55181873D02*
G01*
X188829349Y-55195619D01*
X189097962Y-55277102D01*
X189097965Y-55277103D01*
X189345517Y-55409423D01*
X189562502Y-55587498D01*
X189740577Y-55804483D01*
X189872897Y-56052035D01*
X189872898Y-56052038D01*
X189954381Y-56320651D01*
X189981894Y-56600000D01*
X189954381Y-56879349D01*
X189872898Y-57147962D01*
X189872897Y-57147965D01*
X189740577Y-57395517D01*
X189562502Y-57612502D01*
X189345517Y-57790577D01*
X189097965Y-57922897D01*
X189097962Y-57922898D01*
X188829349Y-58004381D01*
X188689781Y-58018127D01*
X188619998Y-58025000D01*
X187880002Y-58025000D01*
X187810219Y-58018127D01*
X187670651Y-58004381D01*
X187402038Y-57922898D01*
X187402035Y-57922897D01*
X187154483Y-57790577D01*
X186937498Y-57612502D01*
X186759423Y-57395517D01*
X186627103Y-57147965D01*
X186627102Y-57147962D01*
X186545619Y-56879349D01*
X186518106Y-56600000D01*
X186545619Y-56320651D01*
X186627102Y-56052038D01*
X186627103Y-56052035D01*
X186759423Y-55804483D01*
X186937498Y-55587498D01*
X187154483Y-55409423D01*
X187402035Y-55277103D01*
X187402038Y-55277102D01*
X187670651Y-55195619D01*
X187810219Y-55181873D01*
X187880002Y-55175000D01*
X188619998Y-55175000D01*
X188689781Y-55181873D01*
X188689781Y-55181873D01*
G37*
G36*
X194189781Y-55181873D02*
G01*
X194329349Y-55195619D01*
X194597962Y-55277102D01*
X194597965Y-55277103D01*
X194845517Y-55409423D01*
X195062502Y-55587498D01*
X195240577Y-55804483D01*
X195372897Y-56052035D01*
X195372898Y-56052038D01*
X195454381Y-56320651D01*
X195481894Y-56600000D01*
X195454381Y-56879349D01*
X195372898Y-57147962D01*
X195372897Y-57147965D01*
X195240577Y-57395517D01*
X195062502Y-57612502D01*
X194845517Y-57790577D01*
X194597965Y-57922897D01*
X194597962Y-57922898D01*
X194329349Y-58004381D01*
X194189781Y-58018127D01*
X194119998Y-58025000D01*
X193380002Y-58025000D01*
X193310219Y-58018127D01*
X193170651Y-58004381D01*
X192902038Y-57922898D01*
X192902035Y-57922897D01*
X192654483Y-57790577D01*
X192437498Y-57612502D01*
X192259423Y-57395517D01*
X192127103Y-57147965D01*
X192127102Y-57147962D01*
X192045619Y-56879349D01*
X192018106Y-56600000D01*
X192045619Y-56320651D01*
X192127102Y-56052038D01*
X192127103Y-56052035D01*
X192259423Y-55804483D01*
X192437498Y-55587498D01*
X192654483Y-55409423D01*
X192902035Y-55277103D01*
X192902038Y-55277102D01*
X193170651Y-55195619D01*
X193310219Y-55181873D01*
X193380002Y-55175000D01*
X194119998Y-55175000D01*
X194189781Y-55181873D01*
X194189781Y-55181873D01*
G37*
G36*
X119289581Y-55005383D02*
G01*
X119395994Y-55026550D01*
X119546353Y-55088831D01*
X119681672Y-55179248D01*
X119796752Y-55294328D01*
X119887169Y-55429647D01*
X119949450Y-55580006D01*
X119956503Y-55615465D01*
X119981200Y-55739625D01*
X119981200Y-55902375D01*
X119970617Y-55955581D01*
X119949450Y-56061994D01*
X119887169Y-56212353D01*
X119796752Y-56347672D01*
X119681672Y-56462752D01*
X119546353Y-56553169D01*
X119395994Y-56615450D01*
X119289581Y-56636617D01*
X119236375Y-56647200D01*
X119073625Y-56647200D01*
X119020419Y-56636617D01*
X118914006Y-56615450D01*
X118763647Y-56553169D01*
X118628328Y-56462752D01*
X118513248Y-56347672D01*
X118422831Y-56212353D01*
X118360550Y-56061994D01*
X118339383Y-55955581D01*
X118328800Y-55902375D01*
X118328800Y-55739625D01*
X118353497Y-55615465D01*
X118360550Y-55580006D01*
X118422831Y-55429647D01*
X118513248Y-55294328D01*
X118628328Y-55179248D01*
X118763647Y-55088831D01*
X118914006Y-55026550D01*
X119020419Y-55005383D01*
X119073625Y-54994800D01*
X119236375Y-54994800D01*
X119289581Y-55005383D01*
X119289581Y-55005383D01*
G37*
G36*
X121829581Y-55005383D02*
G01*
X121935994Y-55026550D01*
X122086353Y-55088831D01*
X122221672Y-55179248D01*
X122336752Y-55294328D01*
X122427169Y-55429647D01*
X122489450Y-55580006D01*
X122496503Y-55615465D01*
X122521200Y-55739625D01*
X122521200Y-55902375D01*
X122510617Y-55955581D01*
X122489450Y-56061994D01*
X122427169Y-56212353D01*
X122336752Y-56347672D01*
X122221672Y-56462752D01*
X122086353Y-56553169D01*
X121935994Y-56615450D01*
X121829581Y-56636617D01*
X121776375Y-56647200D01*
X121613625Y-56647200D01*
X121560419Y-56636617D01*
X121454006Y-56615450D01*
X121303647Y-56553169D01*
X121168328Y-56462752D01*
X121053248Y-56347672D01*
X120962831Y-56212353D01*
X120900550Y-56061994D01*
X120879383Y-55955581D01*
X120868800Y-55902375D01*
X120868800Y-55739625D01*
X120893497Y-55615465D01*
X120900550Y-55580006D01*
X120962831Y-55429647D01*
X121053248Y-55294328D01*
X121168328Y-55179248D01*
X121303647Y-55088831D01*
X121454006Y-55026550D01*
X121560419Y-55005383D01*
X121613625Y-54994800D01*
X121776375Y-54994800D01*
X121829581Y-55005383D01*
X121829581Y-55005383D01*
G37*
G36*
X162469781Y-55005383D02*
G01*
X162576194Y-55026550D01*
X162726553Y-55088831D01*
X162861872Y-55179248D01*
X162976952Y-55294328D01*
X163067369Y-55429647D01*
X163129650Y-55580006D01*
X163136703Y-55615465D01*
X163161400Y-55739625D01*
X163161400Y-55902375D01*
X163150817Y-55955581D01*
X163129650Y-56061994D01*
X163067369Y-56212353D01*
X162976952Y-56347672D01*
X162861872Y-56462752D01*
X162726553Y-56553169D01*
X162576194Y-56615450D01*
X162469781Y-56636617D01*
X162416575Y-56647200D01*
X162253825Y-56647200D01*
X162200619Y-56636617D01*
X162094206Y-56615450D01*
X161943847Y-56553169D01*
X161808528Y-56462752D01*
X161693448Y-56347672D01*
X161603031Y-56212353D01*
X161540750Y-56061994D01*
X161519583Y-55955581D01*
X161509000Y-55902375D01*
X161509000Y-55739625D01*
X161533697Y-55615465D01*
X161540750Y-55580006D01*
X161603031Y-55429647D01*
X161693448Y-55294328D01*
X161808528Y-55179248D01*
X161943847Y-55088831D01*
X162094206Y-55026550D01*
X162200619Y-55005383D01*
X162253825Y-54994800D01*
X162416575Y-54994800D01*
X162469781Y-55005383D01*
X162469781Y-55005383D01*
G37*
G36*
X165009581Y-55005383D02*
G01*
X165115994Y-55026550D01*
X165266353Y-55088831D01*
X165401672Y-55179248D01*
X165516752Y-55294328D01*
X165607169Y-55429647D01*
X165669450Y-55580006D01*
X165676503Y-55615465D01*
X165701200Y-55739625D01*
X165701200Y-55902375D01*
X165690617Y-55955581D01*
X165669450Y-56061994D01*
X165607169Y-56212353D01*
X165516752Y-56347672D01*
X165401672Y-56462752D01*
X165266353Y-56553169D01*
X165115994Y-56615450D01*
X165009581Y-56636617D01*
X164956375Y-56647200D01*
X164793625Y-56647200D01*
X164740419Y-56636617D01*
X164634006Y-56615450D01*
X164483647Y-56553169D01*
X164348328Y-56462752D01*
X164233248Y-56347672D01*
X164142831Y-56212353D01*
X164080550Y-56061994D01*
X164059383Y-55955581D01*
X164048800Y-55902375D01*
X164048800Y-55739625D01*
X164073497Y-55615465D01*
X164080550Y-55580006D01*
X164142831Y-55429647D01*
X164233248Y-55294328D01*
X164348328Y-55179248D01*
X164483647Y-55088831D01*
X164634006Y-55026550D01*
X164740419Y-55005383D01*
X164793625Y-54994800D01*
X164956375Y-54994800D01*
X165009581Y-55005383D01*
X165009581Y-55005383D01*
G37*
G36*
X110415656Y-53629761D02*
G01*
X110518481Y-53672353D01*
X110674991Y-53737181D01*
X110908385Y-53893130D01*
X111106870Y-54091615D01*
X111262819Y-54325009D01*
X111325744Y-54476924D01*
X111370239Y-54584344D01*
X111425000Y-54859648D01*
X111425000Y-55140352D01*
X111370239Y-55415656D01*
X111345067Y-55476426D01*
X111262819Y-55674991D01*
X111106870Y-55908385D01*
X110908385Y-56106870D01*
X110674991Y-56262819D01*
X110523076Y-56325744D01*
X110415656Y-56370239D01*
X110140352Y-56425000D01*
X109859648Y-56425000D01*
X109584344Y-56370239D01*
X109476924Y-56325744D01*
X109325009Y-56262819D01*
X109091615Y-56106870D01*
X108893130Y-55908385D01*
X108737181Y-55674991D01*
X108654933Y-55476426D01*
X108629761Y-55415656D01*
X108575000Y-55140352D01*
X108575000Y-54859648D01*
X108629761Y-54584344D01*
X108674256Y-54476924D01*
X108737181Y-54325009D01*
X108893130Y-54091615D01*
X109091615Y-53893130D01*
X109325009Y-53737181D01*
X109481519Y-53672353D01*
X109584344Y-53629761D01*
X109859648Y-53575000D01*
X110140352Y-53575000D01*
X110415656Y-53629761D01*
X110415656Y-53629761D01*
G37*
G36*
X182415656Y-53629761D02*
G01*
X182518481Y-53672353D01*
X182674991Y-53737181D01*
X182908385Y-53893130D01*
X183106870Y-54091615D01*
X183262819Y-54325009D01*
X183325744Y-54476924D01*
X183370239Y-54584344D01*
X183425000Y-54859648D01*
X183425000Y-55140352D01*
X183370239Y-55415656D01*
X183345067Y-55476426D01*
X183262819Y-55674991D01*
X183106870Y-55908385D01*
X182908385Y-56106870D01*
X182674991Y-56262819D01*
X182523076Y-56325744D01*
X182415656Y-56370239D01*
X182140352Y-56425000D01*
X181859648Y-56425000D01*
X181584344Y-56370239D01*
X181476924Y-56325744D01*
X181325009Y-56262819D01*
X181091615Y-56106870D01*
X180893130Y-55908385D01*
X180737181Y-55674991D01*
X180654933Y-55476426D01*
X180629761Y-55415656D01*
X180575000Y-55140352D01*
X180575000Y-54859648D01*
X180629761Y-54584344D01*
X180674256Y-54476924D01*
X180737181Y-54325009D01*
X180893130Y-54091615D01*
X181091615Y-53893130D01*
X181325009Y-53737181D01*
X181481519Y-53672353D01*
X181584344Y-53629761D01*
X181859648Y-53575000D01*
X182140352Y-53575000D01*
X182415656Y-53629761D01*
X182415656Y-53629761D01*
G37*
G36*
X176528007Y-53809099D02*
G01*
X176562129Y-53819450D01*
X176593567Y-53836254D01*
X176621128Y-53858872D01*
X176643746Y-53886433D01*
X176660550Y-53917871D01*
X176670901Y-53951993D01*
X176675000Y-53993611D01*
X176675000Y-55506389D01*
X176670901Y-55548007D01*
X176660550Y-55582129D01*
X176643746Y-55613567D01*
X176621128Y-55641128D01*
X176593567Y-55663746D01*
X176562129Y-55680550D01*
X176528007Y-55690901D01*
X176486389Y-55695000D01*
X174513611Y-55695000D01*
X174471993Y-55690901D01*
X174437871Y-55680550D01*
X174406433Y-55663746D01*
X174378872Y-55641128D01*
X174356254Y-55613567D01*
X174339450Y-55582129D01*
X174329099Y-55548007D01*
X174325000Y-55506389D01*
X174325000Y-53993611D01*
X174329099Y-53951993D01*
X174339450Y-53917871D01*
X174356254Y-53886433D01*
X174378872Y-53858872D01*
X174406433Y-53836254D01*
X174437871Y-53819450D01*
X174471993Y-53809099D01*
X174513611Y-53805000D01*
X176486389Y-53805000D01*
X176528007Y-53809099D01*
X176528007Y-53809099D01*
G37*
G36*
X162469781Y-52465383D02*
G01*
X162576194Y-52486550D01*
X162726553Y-52548831D01*
X162861872Y-52639248D01*
X162976952Y-52754328D01*
X163067369Y-52889647D01*
X163129650Y-53040006D01*
X163161400Y-53199626D01*
X163161400Y-53362374D01*
X163129650Y-53521994D01*
X163067369Y-53672353D01*
X162976952Y-53807672D01*
X162861872Y-53922752D01*
X162726553Y-54013169D01*
X162576194Y-54075450D01*
X162494926Y-54091615D01*
X162416575Y-54107200D01*
X162253825Y-54107200D01*
X162175474Y-54091615D01*
X162094206Y-54075450D01*
X161943847Y-54013169D01*
X161808528Y-53922752D01*
X161693448Y-53807672D01*
X161603031Y-53672353D01*
X161540750Y-53521994D01*
X161509000Y-53362374D01*
X161509000Y-53199626D01*
X161540750Y-53040006D01*
X161603031Y-52889647D01*
X161693448Y-52754328D01*
X161808528Y-52639248D01*
X161943847Y-52548831D01*
X162094206Y-52486550D01*
X162200619Y-52465383D01*
X162253825Y-52454800D01*
X162416575Y-52454800D01*
X162469781Y-52465383D01*
X162469781Y-52465383D01*
G37*
G36*
X119289581Y-52465383D02*
G01*
X119395994Y-52486550D01*
X119546353Y-52548831D01*
X119681672Y-52639248D01*
X119796752Y-52754328D01*
X119887169Y-52889647D01*
X119949450Y-53040006D01*
X119981200Y-53199626D01*
X119981200Y-53362374D01*
X119949450Y-53521994D01*
X119887169Y-53672353D01*
X119796752Y-53807672D01*
X119681672Y-53922752D01*
X119546353Y-54013169D01*
X119395994Y-54075450D01*
X119314726Y-54091615D01*
X119236375Y-54107200D01*
X119073625Y-54107200D01*
X118995274Y-54091615D01*
X118914006Y-54075450D01*
X118763647Y-54013169D01*
X118628328Y-53922752D01*
X118513248Y-53807672D01*
X118422831Y-53672353D01*
X118360550Y-53521994D01*
X118328800Y-53362374D01*
X118328800Y-53199626D01*
X118360550Y-53040006D01*
X118422831Y-52889647D01*
X118513248Y-52754328D01*
X118628328Y-52639248D01*
X118763647Y-52548831D01*
X118914006Y-52486550D01*
X119020419Y-52465383D01*
X119073625Y-52454800D01*
X119236375Y-52454800D01*
X119289581Y-52465383D01*
X119289581Y-52465383D01*
G37*
G36*
X121829581Y-52465383D02*
G01*
X121935994Y-52486550D01*
X122086353Y-52548831D01*
X122221672Y-52639248D01*
X122336752Y-52754328D01*
X122427169Y-52889647D01*
X122489450Y-53040006D01*
X122521200Y-53199626D01*
X122521200Y-53362374D01*
X122489450Y-53521994D01*
X122427169Y-53672353D01*
X122336752Y-53807672D01*
X122221672Y-53922752D01*
X122086353Y-54013169D01*
X121935994Y-54075450D01*
X121854726Y-54091615D01*
X121776375Y-54107200D01*
X121613625Y-54107200D01*
X121535274Y-54091615D01*
X121454006Y-54075450D01*
X121303647Y-54013169D01*
X121168328Y-53922752D01*
X121053248Y-53807672D01*
X120962831Y-53672353D01*
X120900550Y-53521994D01*
X120868800Y-53362374D01*
X120868800Y-53199626D01*
X120900550Y-53040006D01*
X120962831Y-52889647D01*
X121053248Y-52754328D01*
X121168328Y-52639248D01*
X121303647Y-52548831D01*
X121454006Y-52486550D01*
X121560419Y-52465383D01*
X121613625Y-52454800D01*
X121776375Y-52454800D01*
X121829581Y-52465383D01*
X121829581Y-52465383D01*
G37*
G36*
X165009581Y-52465383D02*
G01*
X165115994Y-52486550D01*
X165266353Y-52548831D01*
X165401672Y-52639248D01*
X165516752Y-52754328D01*
X165607169Y-52889647D01*
X165669450Y-53040006D01*
X165701200Y-53199626D01*
X165701200Y-53362374D01*
X165669450Y-53521994D01*
X165607169Y-53672353D01*
X165516752Y-53807672D01*
X165401672Y-53922752D01*
X165266353Y-54013169D01*
X165115994Y-54075450D01*
X165034726Y-54091615D01*
X164956375Y-54107200D01*
X164793625Y-54107200D01*
X164715274Y-54091615D01*
X164634006Y-54075450D01*
X164483647Y-54013169D01*
X164348328Y-53922752D01*
X164233248Y-53807672D01*
X164142831Y-53672353D01*
X164080550Y-53521994D01*
X164048800Y-53362374D01*
X164048800Y-53199626D01*
X164080550Y-53040006D01*
X164142831Y-52889647D01*
X164233248Y-52754328D01*
X164348328Y-52639248D01*
X164483647Y-52548831D01*
X164634006Y-52486550D01*
X164740419Y-52465383D01*
X164793625Y-52454800D01*
X164956375Y-52454800D01*
X165009581Y-52465383D01*
X165009581Y-52465383D01*
G37*
G36*
X127104278Y-52129665D02*
G01*
X127143924Y-52141692D01*
X127180463Y-52161223D01*
X127212492Y-52187508D01*
X127238777Y-52219537D01*
X127258308Y-52256076D01*
X127270335Y-52295722D01*
X127275000Y-52343094D01*
X127275000Y-53206906D01*
X127270335Y-53254278D01*
X127258308Y-53293924D01*
X127238777Y-53330463D01*
X127212492Y-53362492D01*
X127180463Y-53388777D01*
X127143924Y-53408308D01*
X127104278Y-53420335D01*
X127056906Y-53425000D01*
X125943094Y-53425000D01*
X125895722Y-53420335D01*
X125856076Y-53408308D01*
X125819537Y-53388777D01*
X125787508Y-53362492D01*
X125761223Y-53330463D01*
X125741692Y-53293924D01*
X125729665Y-53254278D01*
X125725000Y-53206906D01*
X125725000Y-52343094D01*
X125729665Y-52295722D01*
X125741692Y-52256076D01*
X125761223Y-52219537D01*
X125787508Y-52187508D01*
X125819537Y-52161223D01*
X125856076Y-52141692D01*
X125895722Y-52129665D01*
X125943094Y-52125000D01*
X127056906Y-52125000D01*
X127104278Y-52129665D01*
X127104278Y-52129665D01*
G37*
G36*
X175915250Y-51278673D02*
G01*
X176093388Y-51332711D01*
X176257553Y-51420459D01*
X176401449Y-51538551D01*
X176519541Y-51682447D01*
X176607289Y-51846612D01*
X176661327Y-52024750D01*
X176679572Y-52210000D01*
X176661327Y-52395250D01*
X176607289Y-52573388D01*
X176519541Y-52737553D01*
X176401449Y-52881449D01*
X176257553Y-52999541D01*
X176093388Y-53087289D01*
X175915250Y-53141327D01*
X175776423Y-53155000D01*
X175223577Y-53155000D01*
X175084750Y-53141327D01*
X174906612Y-53087289D01*
X174742447Y-52999541D01*
X174598551Y-52881449D01*
X174480459Y-52737553D01*
X174392711Y-52573388D01*
X174338673Y-52395250D01*
X174320428Y-52210000D01*
X174338673Y-52024750D01*
X174392711Y-51846612D01*
X174480459Y-51682447D01*
X174598551Y-51538551D01*
X174742447Y-51420459D01*
X174906612Y-51332711D01*
X175084750Y-51278673D01*
X175223577Y-51265000D01*
X175776423Y-51265000D01*
X175915250Y-51278673D01*
X175915250Y-51278673D01*
G37*
G36*
X121829581Y-49925383D02*
G01*
X121935994Y-49946550D01*
X122086353Y-50008831D01*
X122221672Y-50099248D01*
X122336752Y-50214328D01*
X122427169Y-50349647D01*
X122489450Y-50500006D01*
X122521200Y-50659626D01*
X122521200Y-50822374D01*
X122489450Y-50981994D01*
X122427169Y-51132353D01*
X122336752Y-51267672D01*
X122221672Y-51382752D01*
X122086353Y-51473169D01*
X121935994Y-51535450D01*
X121829581Y-51556617D01*
X121776375Y-51567200D01*
X121613625Y-51567200D01*
X121560419Y-51556617D01*
X121454006Y-51535450D01*
X121303647Y-51473169D01*
X121168328Y-51382752D01*
X121053248Y-51267672D01*
X120962831Y-51132353D01*
X120900550Y-50981994D01*
X120868800Y-50822374D01*
X120868800Y-50659626D01*
X120900550Y-50500006D01*
X120962831Y-50349647D01*
X121053248Y-50214328D01*
X121168328Y-50099248D01*
X121303647Y-50008831D01*
X121454006Y-49946550D01*
X121560419Y-49925383D01*
X121613625Y-49914800D01*
X121776375Y-49914800D01*
X121829581Y-49925383D01*
X121829581Y-49925383D01*
G37*
G36*
X162469781Y-49925383D02*
G01*
X162576194Y-49946550D01*
X162726553Y-50008831D01*
X162861872Y-50099248D01*
X162976952Y-50214328D01*
X163067369Y-50349647D01*
X163129650Y-50500006D01*
X163161400Y-50659626D01*
X163161400Y-50822374D01*
X163129650Y-50981994D01*
X163067369Y-51132353D01*
X162976952Y-51267672D01*
X162861872Y-51382752D01*
X162726553Y-51473169D01*
X162576194Y-51535450D01*
X162469781Y-51556617D01*
X162416575Y-51567200D01*
X162253825Y-51567200D01*
X162200619Y-51556617D01*
X162094206Y-51535450D01*
X161943847Y-51473169D01*
X161808528Y-51382752D01*
X161693448Y-51267672D01*
X161603031Y-51132353D01*
X161540750Y-50981994D01*
X161509000Y-50822374D01*
X161509000Y-50659626D01*
X161540750Y-50500006D01*
X161603031Y-50349647D01*
X161693448Y-50214328D01*
X161808528Y-50099248D01*
X161943847Y-50008831D01*
X162094206Y-49946550D01*
X162200619Y-49925383D01*
X162253825Y-49914800D01*
X162416575Y-49914800D01*
X162469781Y-49925383D01*
X162469781Y-49925383D01*
G37*
G36*
X119289581Y-49925383D02*
G01*
X119395994Y-49946550D01*
X119546353Y-50008831D01*
X119681672Y-50099248D01*
X119796752Y-50214328D01*
X119887169Y-50349647D01*
X119949450Y-50500006D01*
X119981200Y-50659626D01*
X119981200Y-50822374D01*
X119949450Y-50981994D01*
X119887169Y-51132353D01*
X119796752Y-51267672D01*
X119681672Y-51382752D01*
X119546353Y-51473169D01*
X119395994Y-51535450D01*
X119289581Y-51556617D01*
X119236375Y-51567200D01*
X119073625Y-51567200D01*
X119020419Y-51556617D01*
X118914006Y-51535450D01*
X118763647Y-51473169D01*
X118628328Y-51382752D01*
X118513248Y-51267672D01*
X118422831Y-51132353D01*
X118360550Y-50981994D01*
X118328800Y-50822374D01*
X118328800Y-50659626D01*
X118360550Y-50500006D01*
X118422831Y-50349647D01*
X118513248Y-50214328D01*
X118628328Y-50099248D01*
X118763647Y-50008831D01*
X118914006Y-49946550D01*
X119020419Y-49925383D01*
X119073625Y-49914800D01*
X119236375Y-49914800D01*
X119289581Y-49925383D01*
X119289581Y-49925383D01*
G37*
G36*
X165009581Y-49925383D02*
G01*
X165115994Y-49946550D01*
X165266353Y-50008831D01*
X165401672Y-50099248D01*
X165516752Y-50214328D01*
X165607169Y-50349647D01*
X165669450Y-50500006D01*
X165701200Y-50659626D01*
X165701200Y-50822374D01*
X165669450Y-50981994D01*
X165607169Y-51132353D01*
X165516752Y-51267672D01*
X165401672Y-51382752D01*
X165266353Y-51473169D01*
X165115994Y-51535450D01*
X165009581Y-51556617D01*
X164956375Y-51567200D01*
X164793625Y-51567200D01*
X164740419Y-51556617D01*
X164634006Y-51535450D01*
X164483647Y-51473169D01*
X164348328Y-51382752D01*
X164233248Y-51267672D01*
X164142831Y-51132353D01*
X164080550Y-50981994D01*
X164048800Y-50822374D01*
X164048800Y-50659626D01*
X164080550Y-50500006D01*
X164142831Y-50349647D01*
X164233248Y-50214328D01*
X164348328Y-50099248D01*
X164483647Y-50008831D01*
X164634006Y-49946550D01*
X164740419Y-49925383D01*
X164793625Y-49914800D01*
X164956375Y-49914800D01*
X165009581Y-49925383D01*
X165009581Y-49925383D01*
G37*
G36*
X127104278Y-50079665D02*
G01*
X127143924Y-50091692D01*
X127180463Y-50111223D01*
X127212492Y-50137508D01*
X127238777Y-50169537D01*
X127258308Y-50206076D01*
X127270335Y-50245722D01*
X127275000Y-50293094D01*
X127275000Y-51156906D01*
X127270335Y-51204278D01*
X127258308Y-51243924D01*
X127238777Y-51280463D01*
X127212492Y-51312492D01*
X127180463Y-51338777D01*
X127143924Y-51358308D01*
X127104278Y-51370335D01*
X127056906Y-51375000D01*
X125943094Y-51375000D01*
X125895722Y-51370335D01*
X125856076Y-51358308D01*
X125819537Y-51338777D01*
X125787508Y-51312492D01*
X125761223Y-51280463D01*
X125741692Y-51243924D01*
X125729665Y-51204278D01*
X125725000Y-51156906D01*
X125725000Y-50293094D01*
X125729665Y-50245722D01*
X125741692Y-50206076D01*
X125761223Y-50169537D01*
X125787508Y-50137508D01*
X125819537Y-50111223D01*
X125856076Y-50091692D01*
X125895722Y-50079665D01*
X125943094Y-50075000D01*
X127056906Y-50075000D01*
X127104278Y-50079665D01*
X127104278Y-50079665D01*
G37*
G36*
X175915250Y-48738673D02*
G01*
X176093388Y-48792711D01*
X176257553Y-48880459D01*
X176401449Y-48998551D01*
X176519541Y-49142447D01*
X176607289Y-49306612D01*
X176661327Y-49484750D01*
X176679572Y-49670000D01*
X176661327Y-49855250D01*
X176607289Y-50033388D01*
X176519541Y-50197553D01*
X176401449Y-50341449D01*
X176257553Y-50459541D01*
X176093388Y-50547289D01*
X175915250Y-50601327D01*
X175776423Y-50615000D01*
X175223577Y-50615000D01*
X175084750Y-50601327D01*
X174906612Y-50547289D01*
X174742447Y-50459541D01*
X174598551Y-50341449D01*
X174480459Y-50197553D01*
X174392711Y-50033388D01*
X174338673Y-49855250D01*
X174320428Y-49670000D01*
X174338673Y-49484750D01*
X174392711Y-49306612D01*
X174480459Y-49142447D01*
X174598551Y-48998551D01*
X174742447Y-48880459D01*
X174906612Y-48792711D01*
X175084750Y-48738673D01*
X175223577Y-48725000D01*
X175776423Y-48725000D01*
X175915250Y-48738673D01*
X175915250Y-48738673D01*
G37*
M02*
