G04 #@! TF.GenerationSoftware,KiCad,Pcbnew,(5.1.4)-1*
G04 #@! TF.CreationDate,2020-03-02T21:45:15-05:00*
G04 #@! TF.ProjectId,PCB_2020,5043425f-3230-4323-902e-6b696361645f,rev?*
G04 #@! TF.SameCoordinates,Original*
G04 #@! TF.FileFunction,Soldermask,Bot*
G04 #@! TF.FilePolarity,Negative*
%FSLAX46Y46*%
G04 Gerber Fmt 4.6, Leading zero omitted, Abs format (unit mm)*
G04 Created by KiCad (PCBNEW (5.1.4)-1) date 2020-03-02 21:45:15*
%MOMM*%
%LPD*%
G04 APERTURE LIST*
%ADD10C,0.100000*%
G04 APERTURE END LIST*
D10*
G36*
X256415656Y-151629761D02*
G01*
X256523076Y-151674256D01*
X256674991Y-151737181D01*
X256908385Y-151893130D01*
X257106870Y-152091615D01*
X257262819Y-152325009D01*
X257325744Y-152476924D01*
X257370239Y-152584344D01*
X257425000Y-152859648D01*
X257425000Y-153140352D01*
X257370239Y-153415656D01*
X257325744Y-153523076D01*
X257262819Y-153674991D01*
X257106870Y-153908385D01*
X256908385Y-154106870D01*
X256674991Y-154262819D01*
X256523076Y-154325744D01*
X256415656Y-154370239D01*
X256140352Y-154425000D01*
X255859648Y-154425000D01*
X255584344Y-154370239D01*
X255476924Y-154325744D01*
X255325009Y-154262819D01*
X255091615Y-154106870D01*
X254893130Y-153908385D01*
X254737181Y-153674991D01*
X254674256Y-153523076D01*
X254629761Y-153415656D01*
X254575000Y-153140352D01*
X254575000Y-152859648D01*
X254629761Y-152584344D01*
X254674256Y-152476924D01*
X254737181Y-152325009D01*
X254893130Y-152091615D01*
X255091615Y-151893130D01*
X255325009Y-151737181D01*
X255476924Y-151674256D01*
X255584344Y-151629761D01*
X255859648Y-151575000D01*
X256140352Y-151575000D01*
X256415656Y-151629761D01*
X256415656Y-151629761D01*
G37*
G36*
X162415656Y-151629761D02*
G01*
X162523076Y-151674256D01*
X162674991Y-151737181D01*
X162908385Y-151893130D01*
X163106870Y-152091615D01*
X163262819Y-152325009D01*
X163325744Y-152476924D01*
X163370239Y-152584344D01*
X163425000Y-152859648D01*
X163425000Y-153140352D01*
X163370239Y-153415656D01*
X163325744Y-153523076D01*
X163262819Y-153674991D01*
X163106870Y-153908385D01*
X162908385Y-154106870D01*
X162674991Y-154262819D01*
X162523076Y-154325744D01*
X162415656Y-154370239D01*
X162140352Y-154425000D01*
X161859648Y-154425000D01*
X161584344Y-154370239D01*
X161476924Y-154325744D01*
X161325009Y-154262819D01*
X161091615Y-154106870D01*
X160893130Y-153908385D01*
X160737181Y-153674991D01*
X160674256Y-153523076D01*
X160629761Y-153415656D01*
X160575000Y-153140352D01*
X160575000Y-152859648D01*
X160629761Y-152584344D01*
X160674256Y-152476924D01*
X160737181Y-152325009D01*
X160893130Y-152091615D01*
X161091615Y-151893130D01*
X161325009Y-151737181D01*
X161476924Y-151674256D01*
X161584344Y-151629761D01*
X161859648Y-151575000D01*
X162140352Y-151575000D01*
X162415656Y-151629761D01*
X162415656Y-151629761D01*
G37*
G36*
X196579971Y-148942993D02*
G01*
X196746163Y-149011832D01*
X196895731Y-149111771D01*
X197022929Y-149238969D01*
X197122868Y-149388537D01*
X197191707Y-149554729D01*
X197226800Y-149731158D01*
X197226800Y-149911042D01*
X197191707Y-150087471D01*
X197122868Y-150253663D01*
X197022929Y-150403231D01*
X196895731Y-150530429D01*
X196746163Y-150630368D01*
X196579971Y-150699207D01*
X196403542Y-150734300D01*
X196223658Y-150734300D01*
X196047229Y-150699207D01*
X195881037Y-150630368D01*
X195731469Y-150530429D01*
X195604271Y-150403231D01*
X195504332Y-150253663D01*
X195435493Y-150087471D01*
X195400400Y-149911042D01*
X195400400Y-149731158D01*
X195435493Y-149554729D01*
X195504332Y-149388537D01*
X195604271Y-149238969D01*
X195731469Y-149111771D01*
X195881037Y-149011832D01*
X196047229Y-148942993D01*
X196223658Y-148907900D01*
X196403542Y-148907900D01*
X196579971Y-148942993D01*
X196579971Y-148942993D01*
G37*
G36*
X168639971Y-148942993D02*
G01*
X168806163Y-149011832D01*
X168955731Y-149111771D01*
X169082929Y-149238969D01*
X169182868Y-149388537D01*
X169251707Y-149554729D01*
X169286800Y-149731158D01*
X169286800Y-149911042D01*
X169251707Y-150087471D01*
X169182868Y-150253663D01*
X169082929Y-150403231D01*
X168955731Y-150530429D01*
X168806163Y-150630368D01*
X168639971Y-150699207D01*
X168463542Y-150734300D01*
X168283658Y-150734300D01*
X168107229Y-150699207D01*
X167941037Y-150630368D01*
X167791469Y-150530429D01*
X167664271Y-150403231D01*
X167564332Y-150253663D01*
X167495493Y-150087471D01*
X167460400Y-149911042D01*
X167460400Y-149731158D01*
X167495493Y-149554729D01*
X167564332Y-149388537D01*
X167664271Y-149238969D01*
X167791469Y-149111771D01*
X167941037Y-149011832D01*
X168107229Y-148942993D01*
X168283658Y-148907900D01*
X168463542Y-148907900D01*
X168639971Y-148942993D01*
X168639971Y-148942993D01*
G37*
G36*
X199119971Y-148942993D02*
G01*
X199286163Y-149011832D01*
X199435731Y-149111771D01*
X199562929Y-149238969D01*
X199662868Y-149388537D01*
X199731707Y-149554729D01*
X199766800Y-149731158D01*
X199766800Y-149911042D01*
X199731707Y-150087471D01*
X199662868Y-150253663D01*
X199562929Y-150403231D01*
X199435731Y-150530429D01*
X199286163Y-150630368D01*
X199119971Y-150699207D01*
X198943542Y-150734300D01*
X198763658Y-150734300D01*
X198587229Y-150699207D01*
X198421037Y-150630368D01*
X198271469Y-150530429D01*
X198144271Y-150403231D01*
X198044332Y-150253663D01*
X197975493Y-150087471D01*
X197940400Y-149911042D01*
X197940400Y-149731158D01*
X197975493Y-149554729D01*
X198044332Y-149388537D01*
X198144271Y-149238969D01*
X198271469Y-149111771D01*
X198421037Y-149011832D01*
X198587229Y-148942993D01*
X198763658Y-148907900D01*
X198943542Y-148907900D01*
X199119971Y-148942993D01*
X199119971Y-148942993D01*
G37*
G36*
X211819971Y-148942993D02*
G01*
X211986163Y-149011832D01*
X212135731Y-149111771D01*
X212262929Y-149238969D01*
X212362868Y-149388537D01*
X212431707Y-149554729D01*
X212466800Y-149731158D01*
X212466800Y-149911042D01*
X212431707Y-150087471D01*
X212362868Y-150253663D01*
X212262929Y-150403231D01*
X212135731Y-150530429D01*
X211986163Y-150630368D01*
X211819971Y-150699207D01*
X211643542Y-150734300D01*
X211463658Y-150734300D01*
X211287229Y-150699207D01*
X211121037Y-150630368D01*
X210971469Y-150530429D01*
X210844271Y-150403231D01*
X210744332Y-150253663D01*
X210675493Y-150087471D01*
X210640400Y-149911042D01*
X210640400Y-149731158D01*
X210675493Y-149554729D01*
X210744332Y-149388537D01*
X210844271Y-149238969D01*
X210971469Y-149111771D01*
X211121037Y-149011832D01*
X211287229Y-148942993D01*
X211463658Y-148907900D01*
X211643542Y-148907900D01*
X211819971Y-148942993D01*
X211819971Y-148942993D01*
G37*
G36*
X209279971Y-148942993D02*
G01*
X209446163Y-149011832D01*
X209595731Y-149111771D01*
X209722929Y-149238969D01*
X209822868Y-149388537D01*
X209891707Y-149554729D01*
X209926800Y-149731158D01*
X209926800Y-149911042D01*
X209891707Y-150087471D01*
X209822868Y-150253663D01*
X209722929Y-150403231D01*
X209595731Y-150530429D01*
X209446163Y-150630368D01*
X209279971Y-150699207D01*
X209103542Y-150734300D01*
X208923658Y-150734300D01*
X208747229Y-150699207D01*
X208581037Y-150630368D01*
X208431469Y-150530429D01*
X208304271Y-150403231D01*
X208204332Y-150253663D01*
X208135493Y-150087471D01*
X208100400Y-149911042D01*
X208100400Y-149731158D01*
X208135493Y-149554729D01*
X208204332Y-149388537D01*
X208304271Y-149238969D01*
X208431469Y-149111771D01*
X208581037Y-149011832D01*
X208747229Y-148942993D01*
X208923658Y-148907900D01*
X209103542Y-148907900D01*
X209279971Y-148942993D01*
X209279971Y-148942993D01*
G37*
G36*
X206739971Y-148942993D02*
G01*
X206906163Y-149011832D01*
X207055731Y-149111771D01*
X207182929Y-149238969D01*
X207282868Y-149388537D01*
X207351707Y-149554729D01*
X207386800Y-149731158D01*
X207386800Y-149911042D01*
X207351707Y-150087471D01*
X207282868Y-150253663D01*
X207182929Y-150403231D01*
X207055731Y-150530429D01*
X206906163Y-150630368D01*
X206739971Y-150699207D01*
X206563542Y-150734300D01*
X206383658Y-150734300D01*
X206207229Y-150699207D01*
X206041037Y-150630368D01*
X205891469Y-150530429D01*
X205764271Y-150403231D01*
X205664332Y-150253663D01*
X205595493Y-150087471D01*
X205560400Y-149911042D01*
X205560400Y-149731158D01*
X205595493Y-149554729D01*
X205664332Y-149388537D01*
X205764271Y-149238969D01*
X205891469Y-149111771D01*
X206041037Y-149011832D01*
X206207229Y-148942993D01*
X206383658Y-148907900D01*
X206563542Y-148907900D01*
X206739971Y-148942993D01*
X206739971Y-148942993D01*
G37*
G36*
X201659971Y-148942993D02*
G01*
X201826163Y-149011832D01*
X201975731Y-149111771D01*
X202102929Y-149238969D01*
X202202868Y-149388537D01*
X202271707Y-149554729D01*
X202306800Y-149731158D01*
X202306800Y-149911042D01*
X202271707Y-150087471D01*
X202202868Y-150253663D01*
X202102929Y-150403231D01*
X201975731Y-150530429D01*
X201826163Y-150630368D01*
X201659971Y-150699207D01*
X201483542Y-150734300D01*
X201303658Y-150734300D01*
X201127229Y-150699207D01*
X200961037Y-150630368D01*
X200811469Y-150530429D01*
X200684271Y-150403231D01*
X200584332Y-150253663D01*
X200515493Y-150087471D01*
X200480400Y-149911042D01*
X200480400Y-149731158D01*
X200515493Y-149554729D01*
X200584332Y-149388537D01*
X200684271Y-149238969D01*
X200811469Y-149111771D01*
X200961037Y-149011832D01*
X201127229Y-148942993D01*
X201303658Y-148907900D01*
X201483542Y-148907900D01*
X201659971Y-148942993D01*
X201659971Y-148942993D01*
G37*
G36*
X194039971Y-148942993D02*
G01*
X194206163Y-149011832D01*
X194355731Y-149111771D01*
X194482929Y-149238969D01*
X194582868Y-149388537D01*
X194651707Y-149554729D01*
X194686800Y-149731158D01*
X194686800Y-149911042D01*
X194651707Y-150087471D01*
X194582868Y-150253663D01*
X194482929Y-150403231D01*
X194355731Y-150530429D01*
X194206163Y-150630368D01*
X194039971Y-150699207D01*
X193863542Y-150734300D01*
X193683658Y-150734300D01*
X193507229Y-150699207D01*
X193341037Y-150630368D01*
X193191469Y-150530429D01*
X193064271Y-150403231D01*
X192964332Y-150253663D01*
X192895493Y-150087471D01*
X192860400Y-149911042D01*
X192860400Y-149731158D01*
X192895493Y-149554729D01*
X192964332Y-149388537D01*
X193064271Y-149238969D01*
X193191469Y-149111771D01*
X193341037Y-149011832D01*
X193507229Y-148942993D01*
X193683658Y-148907900D01*
X193863542Y-148907900D01*
X194039971Y-148942993D01*
X194039971Y-148942993D01*
G37*
G36*
X204199971Y-148942993D02*
G01*
X204366163Y-149011832D01*
X204515731Y-149111771D01*
X204642929Y-149238969D01*
X204742868Y-149388537D01*
X204811707Y-149554729D01*
X204846800Y-149731158D01*
X204846800Y-149911042D01*
X204811707Y-150087471D01*
X204742868Y-150253663D01*
X204642929Y-150403231D01*
X204515731Y-150530429D01*
X204366163Y-150630368D01*
X204199971Y-150699207D01*
X204023542Y-150734300D01*
X203843658Y-150734300D01*
X203667229Y-150699207D01*
X203501037Y-150630368D01*
X203351469Y-150530429D01*
X203224271Y-150403231D01*
X203124332Y-150253663D01*
X203055493Y-150087471D01*
X203020400Y-149911042D01*
X203020400Y-149731158D01*
X203055493Y-149554729D01*
X203124332Y-149388537D01*
X203224271Y-149238969D01*
X203351469Y-149111771D01*
X203501037Y-149011832D01*
X203667229Y-148942993D01*
X203843658Y-148907900D01*
X204023542Y-148907900D01*
X204199971Y-148942993D01*
X204199971Y-148942993D01*
G37*
G36*
X173719971Y-148942993D02*
G01*
X173886163Y-149011832D01*
X174035731Y-149111771D01*
X174162929Y-149238969D01*
X174262868Y-149388537D01*
X174331707Y-149554729D01*
X174366800Y-149731158D01*
X174366800Y-149911042D01*
X174331707Y-150087471D01*
X174262868Y-150253663D01*
X174162929Y-150403231D01*
X174035731Y-150530429D01*
X173886163Y-150630368D01*
X173719971Y-150699207D01*
X173543542Y-150734300D01*
X173363658Y-150734300D01*
X173187229Y-150699207D01*
X173021037Y-150630368D01*
X172871469Y-150530429D01*
X172744271Y-150403231D01*
X172644332Y-150253663D01*
X172575493Y-150087471D01*
X172540400Y-149911042D01*
X172540400Y-149731158D01*
X172575493Y-149554729D01*
X172644332Y-149388537D01*
X172744271Y-149238969D01*
X172871469Y-149111771D01*
X173021037Y-149011832D01*
X173187229Y-148942993D01*
X173363658Y-148907900D01*
X173543542Y-148907900D01*
X173719971Y-148942993D01*
X173719971Y-148942993D01*
G37*
G36*
X176259971Y-148942993D02*
G01*
X176426163Y-149011832D01*
X176575731Y-149111771D01*
X176702929Y-149238969D01*
X176802868Y-149388537D01*
X176871707Y-149554729D01*
X176906800Y-149731158D01*
X176906800Y-149911042D01*
X176871707Y-150087471D01*
X176802868Y-150253663D01*
X176702929Y-150403231D01*
X176575731Y-150530429D01*
X176426163Y-150630368D01*
X176259971Y-150699207D01*
X176083542Y-150734300D01*
X175903658Y-150734300D01*
X175727229Y-150699207D01*
X175561037Y-150630368D01*
X175411469Y-150530429D01*
X175284271Y-150403231D01*
X175184332Y-150253663D01*
X175115493Y-150087471D01*
X175080400Y-149911042D01*
X175080400Y-149731158D01*
X175115493Y-149554729D01*
X175184332Y-149388537D01*
X175284271Y-149238969D01*
X175411469Y-149111771D01*
X175561037Y-149011832D01*
X175727229Y-148942993D01*
X175903658Y-148907900D01*
X176083542Y-148907900D01*
X176259971Y-148942993D01*
X176259971Y-148942993D01*
G37*
G36*
X178799971Y-148942993D02*
G01*
X178966163Y-149011832D01*
X179115731Y-149111771D01*
X179242929Y-149238969D01*
X179342868Y-149388537D01*
X179411707Y-149554729D01*
X179446800Y-149731158D01*
X179446800Y-149911042D01*
X179411707Y-150087471D01*
X179342868Y-150253663D01*
X179242929Y-150403231D01*
X179115731Y-150530429D01*
X178966163Y-150630368D01*
X178799971Y-150699207D01*
X178623542Y-150734300D01*
X178443658Y-150734300D01*
X178267229Y-150699207D01*
X178101037Y-150630368D01*
X177951469Y-150530429D01*
X177824271Y-150403231D01*
X177724332Y-150253663D01*
X177655493Y-150087471D01*
X177620400Y-149911042D01*
X177620400Y-149731158D01*
X177655493Y-149554729D01*
X177724332Y-149388537D01*
X177824271Y-149238969D01*
X177951469Y-149111771D01*
X178101037Y-149011832D01*
X178267229Y-148942993D01*
X178443658Y-148907900D01*
X178623542Y-148907900D01*
X178799971Y-148942993D01*
X178799971Y-148942993D01*
G37*
G36*
X181339971Y-148942993D02*
G01*
X181506163Y-149011832D01*
X181655731Y-149111771D01*
X181782929Y-149238969D01*
X181882868Y-149388537D01*
X181951707Y-149554729D01*
X181986800Y-149731158D01*
X181986800Y-149911042D01*
X181951707Y-150087471D01*
X181882868Y-150253663D01*
X181782929Y-150403231D01*
X181655731Y-150530429D01*
X181506163Y-150630368D01*
X181339971Y-150699207D01*
X181163542Y-150734300D01*
X180983658Y-150734300D01*
X180807229Y-150699207D01*
X180641037Y-150630368D01*
X180491469Y-150530429D01*
X180364271Y-150403231D01*
X180264332Y-150253663D01*
X180195493Y-150087471D01*
X180160400Y-149911042D01*
X180160400Y-149731158D01*
X180195493Y-149554729D01*
X180264332Y-149388537D01*
X180364271Y-149238969D01*
X180491469Y-149111771D01*
X180641037Y-149011832D01*
X180807229Y-148942993D01*
X180983658Y-148907900D01*
X181163542Y-148907900D01*
X181339971Y-148942993D01*
X181339971Y-148942993D01*
G37*
G36*
X183879971Y-148942993D02*
G01*
X184046163Y-149011832D01*
X184195731Y-149111771D01*
X184322929Y-149238969D01*
X184422868Y-149388537D01*
X184491707Y-149554729D01*
X184526800Y-149731158D01*
X184526800Y-149911042D01*
X184491707Y-150087471D01*
X184422868Y-150253663D01*
X184322929Y-150403231D01*
X184195731Y-150530429D01*
X184046163Y-150630368D01*
X183879971Y-150699207D01*
X183703542Y-150734300D01*
X183523658Y-150734300D01*
X183347229Y-150699207D01*
X183181037Y-150630368D01*
X183031469Y-150530429D01*
X182904271Y-150403231D01*
X182804332Y-150253663D01*
X182735493Y-150087471D01*
X182700400Y-149911042D01*
X182700400Y-149731158D01*
X182735493Y-149554729D01*
X182804332Y-149388537D01*
X182904271Y-149238969D01*
X183031469Y-149111771D01*
X183181037Y-149011832D01*
X183347229Y-148942993D01*
X183523658Y-148907900D01*
X183703542Y-148907900D01*
X183879971Y-148942993D01*
X183879971Y-148942993D01*
G37*
G36*
X186419971Y-148942993D02*
G01*
X186586163Y-149011832D01*
X186735731Y-149111771D01*
X186862929Y-149238969D01*
X186962868Y-149388537D01*
X187031707Y-149554729D01*
X187066800Y-149731158D01*
X187066800Y-149911042D01*
X187031707Y-150087471D01*
X186962868Y-150253663D01*
X186862929Y-150403231D01*
X186735731Y-150530429D01*
X186586163Y-150630368D01*
X186419971Y-150699207D01*
X186243542Y-150734300D01*
X186063658Y-150734300D01*
X185887229Y-150699207D01*
X185721037Y-150630368D01*
X185571469Y-150530429D01*
X185444271Y-150403231D01*
X185344332Y-150253663D01*
X185275493Y-150087471D01*
X185240400Y-149911042D01*
X185240400Y-149731158D01*
X185275493Y-149554729D01*
X185344332Y-149388537D01*
X185444271Y-149238969D01*
X185571469Y-149111771D01*
X185721037Y-149011832D01*
X185887229Y-148942993D01*
X186063658Y-148907900D01*
X186243542Y-148907900D01*
X186419971Y-148942993D01*
X186419971Y-148942993D01*
G37*
G36*
X191499971Y-148942993D02*
G01*
X191666163Y-149011832D01*
X191815731Y-149111771D01*
X191942929Y-149238969D01*
X192042868Y-149388537D01*
X192111707Y-149554729D01*
X192146800Y-149731158D01*
X192146800Y-149911042D01*
X192111707Y-150087471D01*
X192042868Y-150253663D01*
X191942929Y-150403231D01*
X191815731Y-150530429D01*
X191666163Y-150630368D01*
X191499971Y-150699207D01*
X191323542Y-150734300D01*
X191143658Y-150734300D01*
X190967229Y-150699207D01*
X190801037Y-150630368D01*
X190651469Y-150530429D01*
X190524271Y-150403231D01*
X190424332Y-150253663D01*
X190355493Y-150087471D01*
X190320400Y-149911042D01*
X190320400Y-149731158D01*
X190355493Y-149554729D01*
X190424332Y-149388537D01*
X190524271Y-149238969D01*
X190651469Y-149111771D01*
X190801037Y-149011832D01*
X190967229Y-148942993D01*
X191143658Y-148907900D01*
X191323542Y-148907900D01*
X191499971Y-148942993D01*
X191499971Y-148942993D01*
G37*
G36*
X171179971Y-148942993D02*
G01*
X171346163Y-149011832D01*
X171495731Y-149111771D01*
X171622929Y-149238969D01*
X171722868Y-149388537D01*
X171791707Y-149554729D01*
X171826800Y-149731158D01*
X171826800Y-149911042D01*
X171791707Y-150087471D01*
X171722868Y-150253663D01*
X171622929Y-150403231D01*
X171495731Y-150530429D01*
X171346163Y-150630368D01*
X171179971Y-150699207D01*
X171003542Y-150734300D01*
X170823658Y-150734300D01*
X170647229Y-150699207D01*
X170481037Y-150630368D01*
X170331469Y-150530429D01*
X170204271Y-150403231D01*
X170104332Y-150253663D01*
X170035493Y-150087471D01*
X170000400Y-149911042D01*
X170000400Y-149731158D01*
X170035493Y-149554729D01*
X170104332Y-149388537D01*
X170204271Y-149238969D01*
X170331469Y-149111771D01*
X170481037Y-149011832D01*
X170647229Y-148942993D01*
X170823658Y-148907900D01*
X171003542Y-148907900D01*
X171179971Y-148942993D01*
X171179971Y-148942993D01*
G37*
G36*
X188858371Y-148777893D02*
G01*
X189024563Y-148846732D01*
X189174131Y-148946671D01*
X189301329Y-149073869D01*
X189401268Y-149223437D01*
X189470107Y-149389629D01*
X189505200Y-149566058D01*
X189505200Y-149745942D01*
X189470107Y-149922371D01*
X189401268Y-150088563D01*
X189301329Y-150238131D01*
X189174131Y-150365329D01*
X189024563Y-150465268D01*
X188858371Y-150534107D01*
X188681942Y-150569200D01*
X188502058Y-150569200D01*
X188325629Y-150534107D01*
X188159437Y-150465268D01*
X188009869Y-150365329D01*
X187882671Y-150238131D01*
X187782732Y-150088563D01*
X187713893Y-149922371D01*
X187678800Y-149745942D01*
X187678800Y-149566058D01*
X187713893Y-149389629D01*
X187782732Y-149223437D01*
X187882671Y-149073869D01*
X188009869Y-148946671D01*
X188159437Y-148846732D01*
X188325629Y-148777893D01*
X188502058Y-148742800D01*
X188681942Y-148742800D01*
X188858371Y-148777893D01*
X188858371Y-148777893D01*
G37*
G36*
X173719971Y-146402993D02*
G01*
X173886163Y-146471832D01*
X174035731Y-146571771D01*
X174162929Y-146698969D01*
X174262868Y-146848537D01*
X174331707Y-147014729D01*
X174366800Y-147191158D01*
X174366800Y-147371042D01*
X174331707Y-147547471D01*
X174262868Y-147713663D01*
X174162929Y-147863231D01*
X174035731Y-147990429D01*
X173886163Y-148090368D01*
X173719971Y-148159207D01*
X173543542Y-148194300D01*
X173363658Y-148194300D01*
X173187229Y-148159207D01*
X173021037Y-148090368D01*
X172871469Y-147990429D01*
X172744271Y-147863231D01*
X172644332Y-147713663D01*
X172575493Y-147547471D01*
X172540400Y-147371042D01*
X172540400Y-147191158D01*
X172575493Y-147014729D01*
X172644332Y-146848537D01*
X172744271Y-146698969D01*
X172871469Y-146571771D01*
X173021037Y-146471832D01*
X173187229Y-146402993D01*
X173363658Y-146367900D01*
X173543542Y-146367900D01*
X173719971Y-146402993D01*
X173719971Y-146402993D01*
G37*
G36*
X171179971Y-146402993D02*
G01*
X171346163Y-146471832D01*
X171495731Y-146571771D01*
X171622929Y-146698969D01*
X171722868Y-146848537D01*
X171791707Y-147014729D01*
X171826800Y-147191158D01*
X171826800Y-147371042D01*
X171791707Y-147547471D01*
X171722868Y-147713663D01*
X171622929Y-147863231D01*
X171495731Y-147990429D01*
X171346163Y-148090368D01*
X171179971Y-148159207D01*
X171003542Y-148194300D01*
X170823658Y-148194300D01*
X170647229Y-148159207D01*
X170481037Y-148090368D01*
X170331469Y-147990429D01*
X170204271Y-147863231D01*
X170104332Y-147713663D01*
X170035493Y-147547471D01*
X170000400Y-147371042D01*
X170000400Y-147191158D01*
X170035493Y-147014729D01*
X170104332Y-146848537D01*
X170204271Y-146698969D01*
X170331469Y-146571771D01*
X170481037Y-146471832D01*
X170647229Y-146402993D01*
X170823658Y-146367900D01*
X171003542Y-146367900D01*
X171179971Y-146402993D01*
X171179971Y-146402993D01*
G37*
G36*
X168639971Y-146402993D02*
G01*
X168806163Y-146471832D01*
X168955731Y-146571771D01*
X169082929Y-146698969D01*
X169182868Y-146848537D01*
X169251707Y-147014729D01*
X169286800Y-147191158D01*
X169286800Y-147371042D01*
X169251707Y-147547471D01*
X169182868Y-147713663D01*
X169082929Y-147863231D01*
X168955731Y-147990429D01*
X168806163Y-148090368D01*
X168639971Y-148159207D01*
X168463542Y-148194300D01*
X168283658Y-148194300D01*
X168107229Y-148159207D01*
X167941037Y-148090368D01*
X167791469Y-147990429D01*
X167664271Y-147863231D01*
X167564332Y-147713663D01*
X167495493Y-147547471D01*
X167460400Y-147371042D01*
X167460400Y-147191158D01*
X167495493Y-147014729D01*
X167564332Y-146848537D01*
X167664271Y-146698969D01*
X167791469Y-146571771D01*
X167941037Y-146471832D01*
X168107229Y-146402993D01*
X168283658Y-146367900D01*
X168463542Y-146367900D01*
X168639971Y-146402993D01*
X168639971Y-146402993D01*
G37*
G36*
X178799971Y-146402993D02*
G01*
X178966163Y-146471832D01*
X179115731Y-146571771D01*
X179242929Y-146698969D01*
X179342868Y-146848537D01*
X179411707Y-147014729D01*
X179446800Y-147191158D01*
X179446800Y-147371042D01*
X179411707Y-147547471D01*
X179342868Y-147713663D01*
X179242929Y-147863231D01*
X179115731Y-147990429D01*
X178966163Y-148090368D01*
X178799971Y-148159207D01*
X178623542Y-148194300D01*
X178443658Y-148194300D01*
X178267229Y-148159207D01*
X178101037Y-148090368D01*
X177951469Y-147990429D01*
X177824271Y-147863231D01*
X177724332Y-147713663D01*
X177655493Y-147547471D01*
X177620400Y-147371042D01*
X177620400Y-147191158D01*
X177655493Y-147014729D01*
X177724332Y-146848537D01*
X177824271Y-146698969D01*
X177951469Y-146571771D01*
X178101037Y-146471832D01*
X178267229Y-146402993D01*
X178443658Y-146367900D01*
X178623542Y-146367900D01*
X178799971Y-146402993D01*
X178799971Y-146402993D01*
G37*
G36*
X206739971Y-146402993D02*
G01*
X206906163Y-146471832D01*
X207055731Y-146571771D01*
X207182929Y-146698969D01*
X207282868Y-146848537D01*
X207351707Y-147014729D01*
X207386800Y-147191158D01*
X207386800Y-147371042D01*
X207351707Y-147547471D01*
X207282868Y-147713663D01*
X207182929Y-147863231D01*
X207055731Y-147990429D01*
X206906163Y-148090368D01*
X206739971Y-148159207D01*
X206563542Y-148194300D01*
X206383658Y-148194300D01*
X206207229Y-148159207D01*
X206041037Y-148090368D01*
X205891469Y-147990429D01*
X205764271Y-147863231D01*
X205664332Y-147713663D01*
X205595493Y-147547471D01*
X205560400Y-147371042D01*
X205560400Y-147191158D01*
X205595493Y-147014729D01*
X205664332Y-146848537D01*
X205764271Y-146698969D01*
X205891469Y-146571771D01*
X206041037Y-146471832D01*
X206207229Y-146402993D01*
X206383658Y-146367900D01*
X206563542Y-146367900D01*
X206739971Y-146402993D01*
X206739971Y-146402993D01*
G37*
G36*
X191499971Y-146402993D02*
G01*
X191666163Y-146471832D01*
X191815731Y-146571771D01*
X191942929Y-146698969D01*
X192042868Y-146848537D01*
X192111707Y-147014729D01*
X192146800Y-147191158D01*
X192146800Y-147371042D01*
X192111707Y-147547471D01*
X192042868Y-147713663D01*
X191942929Y-147863231D01*
X191815731Y-147990429D01*
X191666163Y-148090368D01*
X191499971Y-148159207D01*
X191323542Y-148194300D01*
X191143658Y-148194300D01*
X190967229Y-148159207D01*
X190801037Y-148090368D01*
X190651469Y-147990429D01*
X190524271Y-147863231D01*
X190424332Y-147713663D01*
X190355493Y-147547471D01*
X190320400Y-147371042D01*
X190320400Y-147191158D01*
X190355493Y-147014729D01*
X190424332Y-146848537D01*
X190524271Y-146698969D01*
X190651469Y-146571771D01*
X190801037Y-146471832D01*
X190967229Y-146402993D01*
X191143658Y-146367900D01*
X191323542Y-146367900D01*
X191499971Y-146402993D01*
X191499971Y-146402993D01*
G37*
G36*
X204199971Y-146402993D02*
G01*
X204366163Y-146471832D01*
X204515731Y-146571771D01*
X204642929Y-146698969D01*
X204742868Y-146848537D01*
X204811707Y-147014729D01*
X204846800Y-147191158D01*
X204846800Y-147371042D01*
X204811707Y-147547471D01*
X204742868Y-147713663D01*
X204642929Y-147863231D01*
X204515731Y-147990429D01*
X204366163Y-148090368D01*
X204199971Y-148159207D01*
X204023542Y-148194300D01*
X203843658Y-148194300D01*
X203667229Y-148159207D01*
X203501037Y-148090368D01*
X203351469Y-147990429D01*
X203224271Y-147863231D01*
X203124332Y-147713663D01*
X203055493Y-147547471D01*
X203020400Y-147371042D01*
X203020400Y-147191158D01*
X203055493Y-147014729D01*
X203124332Y-146848537D01*
X203224271Y-146698969D01*
X203351469Y-146571771D01*
X203501037Y-146471832D01*
X203667229Y-146402993D01*
X203843658Y-146367900D01*
X204023542Y-146367900D01*
X204199971Y-146402993D01*
X204199971Y-146402993D01*
G37*
G36*
X196579971Y-146402993D02*
G01*
X196746163Y-146471832D01*
X196895731Y-146571771D01*
X197022929Y-146698969D01*
X197122868Y-146848537D01*
X197191707Y-147014729D01*
X197226800Y-147191158D01*
X197226800Y-147371042D01*
X197191707Y-147547471D01*
X197122868Y-147713663D01*
X197022929Y-147863231D01*
X196895731Y-147990429D01*
X196746163Y-148090368D01*
X196579971Y-148159207D01*
X196403542Y-148194300D01*
X196223658Y-148194300D01*
X196047229Y-148159207D01*
X195881037Y-148090368D01*
X195731469Y-147990429D01*
X195604271Y-147863231D01*
X195504332Y-147713663D01*
X195435493Y-147547471D01*
X195400400Y-147371042D01*
X195400400Y-147191158D01*
X195435493Y-147014729D01*
X195504332Y-146848537D01*
X195604271Y-146698969D01*
X195731469Y-146571771D01*
X195881037Y-146471832D01*
X196047229Y-146402993D01*
X196223658Y-146367900D01*
X196403542Y-146367900D01*
X196579971Y-146402993D01*
X196579971Y-146402993D01*
G37*
G36*
X201659971Y-146402993D02*
G01*
X201826163Y-146471832D01*
X201975731Y-146571771D01*
X202102929Y-146698969D01*
X202202868Y-146848537D01*
X202271707Y-147014729D01*
X202306800Y-147191158D01*
X202306800Y-147371042D01*
X202271707Y-147547471D01*
X202202868Y-147713663D01*
X202102929Y-147863231D01*
X201975731Y-147990429D01*
X201826163Y-148090368D01*
X201659971Y-148159207D01*
X201483542Y-148194300D01*
X201303658Y-148194300D01*
X201127229Y-148159207D01*
X200961037Y-148090368D01*
X200811469Y-147990429D01*
X200684271Y-147863231D01*
X200584332Y-147713663D01*
X200515493Y-147547471D01*
X200480400Y-147371042D01*
X200480400Y-147191158D01*
X200515493Y-147014729D01*
X200584332Y-146848537D01*
X200684271Y-146698969D01*
X200811469Y-146571771D01*
X200961037Y-146471832D01*
X201127229Y-146402993D01*
X201303658Y-146367900D01*
X201483542Y-146367900D01*
X201659971Y-146402993D01*
X201659971Y-146402993D01*
G37*
G36*
X183879971Y-146402993D02*
G01*
X184046163Y-146471832D01*
X184195731Y-146571771D01*
X184322929Y-146698969D01*
X184422868Y-146848537D01*
X184491707Y-147014729D01*
X184526800Y-147191158D01*
X184526800Y-147371042D01*
X184491707Y-147547471D01*
X184422868Y-147713663D01*
X184322929Y-147863231D01*
X184195731Y-147990429D01*
X184046163Y-148090368D01*
X183879971Y-148159207D01*
X183703542Y-148194300D01*
X183523658Y-148194300D01*
X183347229Y-148159207D01*
X183181037Y-148090368D01*
X183031469Y-147990429D01*
X182904271Y-147863231D01*
X182804332Y-147713663D01*
X182735493Y-147547471D01*
X182700400Y-147371042D01*
X182700400Y-147191158D01*
X182735493Y-147014729D01*
X182804332Y-146848537D01*
X182904271Y-146698969D01*
X183031469Y-146571771D01*
X183181037Y-146471832D01*
X183347229Y-146402993D01*
X183523658Y-146367900D01*
X183703542Y-146367900D01*
X183879971Y-146402993D01*
X183879971Y-146402993D01*
G37*
G36*
X181339971Y-146402993D02*
G01*
X181506163Y-146471832D01*
X181655731Y-146571771D01*
X181782929Y-146698969D01*
X181882868Y-146848537D01*
X181951707Y-147014729D01*
X181986800Y-147191158D01*
X181986800Y-147371042D01*
X181951707Y-147547471D01*
X181882868Y-147713663D01*
X181782929Y-147863231D01*
X181655731Y-147990429D01*
X181506163Y-148090368D01*
X181339971Y-148159207D01*
X181163542Y-148194300D01*
X180983658Y-148194300D01*
X180807229Y-148159207D01*
X180641037Y-148090368D01*
X180491469Y-147990429D01*
X180364271Y-147863231D01*
X180264332Y-147713663D01*
X180195493Y-147547471D01*
X180160400Y-147371042D01*
X180160400Y-147191158D01*
X180195493Y-147014729D01*
X180264332Y-146848537D01*
X180364271Y-146698969D01*
X180491469Y-146571771D01*
X180641037Y-146471832D01*
X180807229Y-146402993D01*
X180983658Y-146367900D01*
X181163542Y-146367900D01*
X181339971Y-146402993D01*
X181339971Y-146402993D01*
G37*
G36*
X211819971Y-146402993D02*
G01*
X211986163Y-146471832D01*
X212135731Y-146571771D01*
X212262929Y-146698969D01*
X212362868Y-146848537D01*
X212431707Y-147014729D01*
X212466800Y-147191158D01*
X212466800Y-147371042D01*
X212431707Y-147547471D01*
X212362868Y-147713663D01*
X212262929Y-147863231D01*
X212135731Y-147990429D01*
X211986163Y-148090368D01*
X211819971Y-148159207D01*
X211643542Y-148194300D01*
X211463658Y-148194300D01*
X211287229Y-148159207D01*
X211121037Y-148090368D01*
X210971469Y-147990429D01*
X210844271Y-147863231D01*
X210744332Y-147713663D01*
X210675493Y-147547471D01*
X210640400Y-147371042D01*
X210640400Y-147191158D01*
X210675493Y-147014729D01*
X210744332Y-146848537D01*
X210844271Y-146698969D01*
X210971469Y-146571771D01*
X211121037Y-146471832D01*
X211287229Y-146402993D01*
X211463658Y-146367900D01*
X211643542Y-146367900D01*
X211819971Y-146402993D01*
X211819971Y-146402993D01*
G37*
G36*
X199119971Y-146402993D02*
G01*
X199286163Y-146471832D01*
X199435731Y-146571771D01*
X199562929Y-146698969D01*
X199662868Y-146848537D01*
X199731707Y-147014729D01*
X199766800Y-147191158D01*
X199766800Y-147371042D01*
X199731707Y-147547471D01*
X199662868Y-147713663D01*
X199562929Y-147863231D01*
X199435731Y-147990429D01*
X199286163Y-148090368D01*
X199119971Y-148159207D01*
X198943542Y-148194300D01*
X198763658Y-148194300D01*
X198587229Y-148159207D01*
X198421037Y-148090368D01*
X198271469Y-147990429D01*
X198144271Y-147863231D01*
X198044332Y-147713663D01*
X197975493Y-147547471D01*
X197940400Y-147371042D01*
X197940400Y-147191158D01*
X197975493Y-147014729D01*
X198044332Y-146848537D01*
X198144271Y-146698969D01*
X198271469Y-146571771D01*
X198421037Y-146471832D01*
X198587229Y-146402993D01*
X198763658Y-146367900D01*
X198943542Y-146367900D01*
X199119971Y-146402993D01*
X199119971Y-146402993D01*
G37*
G36*
X209279971Y-146402993D02*
G01*
X209446163Y-146471832D01*
X209595731Y-146571771D01*
X209722929Y-146698969D01*
X209822868Y-146848537D01*
X209891707Y-147014729D01*
X209926800Y-147191158D01*
X209926800Y-147371042D01*
X209891707Y-147547471D01*
X209822868Y-147713663D01*
X209722929Y-147863231D01*
X209595731Y-147990429D01*
X209446163Y-148090368D01*
X209279971Y-148159207D01*
X209103542Y-148194300D01*
X208923658Y-148194300D01*
X208747229Y-148159207D01*
X208581037Y-148090368D01*
X208431469Y-147990429D01*
X208304271Y-147863231D01*
X208204332Y-147713663D01*
X208135493Y-147547471D01*
X208100400Y-147371042D01*
X208100400Y-147191158D01*
X208135493Y-147014729D01*
X208204332Y-146848537D01*
X208304271Y-146698969D01*
X208431469Y-146571771D01*
X208581037Y-146471832D01*
X208747229Y-146402993D01*
X208923658Y-146367900D01*
X209103542Y-146367900D01*
X209279971Y-146402993D01*
X209279971Y-146402993D01*
G37*
G36*
X176259971Y-146402993D02*
G01*
X176426163Y-146471832D01*
X176575731Y-146571771D01*
X176702929Y-146698969D01*
X176802868Y-146848537D01*
X176871707Y-147014729D01*
X176906800Y-147191158D01*
X176906800Y-147371042D01*
X176871707Y-147547471D01*
X176802868Y-147713663D01*
X176702929Y-147863231D01*
X176575731Y-147990429D01*
X176426163Y-148090368D01*
X176259971Y-148159207D01*
X176083542Y-148194300D01*
X175903658Y-148194300D01*
X175727229Y-148159207D01*
X175561037Y-148090368D01*
X175411469Y-147990429D01*
X175284271Y-147863231D01*
X175184332Y-147713663D01*
X175115493Y-147547471D01*
X175080400Y-147371042D01*
X175080400Y-147191158D01*
X175115493Y-147014729D01*
X175184332Y-146848537D01*
X175284271Y-146698969D01*
X175411469Y-146571771D01*
X175561037Y-146471832D01*
X175727229Y-146402993D01*
X175903658Y-146367900D01*
X176083542Y-146367900D01*
X176259971Y-146402993D01*
X176259971Y-146402993D01*
G37*
G36*
X188959971Y-146402993D02*
G01*
X189126163Y-146471832D01*
X189275731Y-146571771D01*
X189402929Y-146698969D01*
X189502868Y-146848537D01*
X189571707Y-147014729D01*
X189606800Y-147191158D01*
X189606800Y-147371042D01*
X189571707Y-147547471D01*
X189502868Y-147713663D01*
X189402929Y-147863231D01*
X189275731Y-147990429D01*
X189126163Y-148090368D01*
X188959971Y-148159207D01*
X188783542Y-148194300D01*
X188603658Y-148194300D01*
X188427229Y-148159207D01*
X188261037Y-148090368D01*
X188111469Y-147990429D01*
X187984271Y-147863231D01*
X187884332Y-147713663D01*
X187815493Y-147547471D01*
X187780400Y-147371042D01*
X187780400Y-147191158D01*
X187815493Y-147014729D01*
X187884332Y-146848537D01*
X187984271Y-146698969D01*
X188111469Y-146571771D01*
X188261037Y-146471832D01*
X188427229Y-146402993D01*
X188603658Y-146367900D01*
X188783542Y-146367900D01*
X188959971Y-146402993D01*
X188959971Y-146402993D01*
G37*
G36*
X186419971Y-146402993D02*
G01*
X186586163Y-146471832D01*
X186735731Y-146571771D01*
X186862929Y-146698969D01*
X186962868Y-146848537D01*
X187031707Y-147014729D01*
X187066800Y-147191158D01*
X187066800Y-147371042D01*
X187031707Y-147547471D01*
X186962868Y-147713663D01*
X186862929Y-147863231D01*
X186735731Y-147990429D01*
X186586163Y-148090368D01*
X186419971Y-148159207D01*
X186243542Y-148194300D01*
X186063658Y-148194300D01*
X185887229Y-148159207D01*
X185721037Y-148090368D01*
X185571469Y-147990429D01*
X185444271Y-147863231D01*
X185344332Y-147713663D01*
X185275493Y-147547471D01*
X185240400Y-147371042D01*
X185240400Y-147191158D01*
X185275493Y-147014729D01*
X185344332Y-146848537D01*
X185444271Y-146698969D01*
X185571469Y-146571771D01*
X185721037Y-146471832D01*
X185887229Y-146402993D01*
X186063658Y-146367900D01*
X186243542Y-146367900D01*
X186419971Y-146402993D01*
X186419971Y-146402993D01*
G37*
G36*
X194039971Y-146402993D02*
G01*
X194206163Y-146471832D01*
X194355731Y-146571771D01*
X194482929Y-146698969D01*
X194582868Y-146848537D01*
X194651707Y-147014729D01*
X194686800Y-147191158D01*
X194686800Y-147371042D01*
X194651707Y-147547471D01*
X194582868Y-147713663D01*
X194482929Y-147863231D01*
X194355731Y-147990429D01*
X194206163Y-148090368D01*
X194039971Y-148159207D01*
X193863542Y-148194300D01*
X193683658Y-148194300D01*
X193507229Y-148159207D01*
X193341037Y-148090368D01*
X193191469Y-147990429D01*
X193064271Y-147863231D01*
X192964332Y-147713663D01*
X192895493Y-147547471D01*
X192860400Y-147371042D01*
X192860400Y-147191158D01*
X192895493Y-147014729D01*
X192964332Y-146848537D01*
X193064271Y-146698969D01*
X193191469Y-146571771D01*
X193341037Y-146471832D01*
X193507229Y-146402993D01*
X193683658Y-146367900D01*
X193863542Y-146367900D01*
X194039971Y-146402993D01*
X194039971Y-146402993D01*
G37*
G36*
X216899971Y-143862993D02*
G01*
X217066163Y-143931832D01*
X217215731Y-144031771D01*
X217342929Y-144158969D01*
X217442868Y-144308537D01*
X217511707Y-144474729D01*
X217546800Y-144651158D01*
X217546800Y-144831042D01*
X217511707Y-145007471D01*
X217442868Y-145173663D01*
X217342929Y-145323231D01*
X217215731Y-145450429D01*
X217066163Y-145550368D01*
X216899971Y-145619207D01*
X216723542Y-145654300D01*
X216543658Y-145654300D01*
X216367229Y-145619207D01*
X216201037Y-145550368D01*
X216051469Y-145450429D01*
X215924271Y-145323231D01*
X215824332Y-145173663D01*
X215755493Y-145007471D01*
X215720400Y-144831042D01*
X215720400Y-144651158D01*
X215755493Y-144474729D01*
X215824332Y-144308537D01*
X215924271Y-144158969D01*
X216051469Y-144031771D01*
X216201037Y-143931832D01*
X216367229Y-143862993D01*
X216543658Y-143827900D01*
X216723542Y-143827900D01*
X216899971Y-143862993D01*
X216899971Y-143862993D01*
G37*
G36*
X249165250Y-142438673D02*
G01*
X249343388Y-142492711D01*
X249507553Y-142580459D01*
X249651449Y-142698551D01*
X249769541Y-142842447D01*
X249857289Y-143006612D01*
X249911327Y-143184750D01*
X249929572Y-143370000D01*
X249911327Y-143555250D01*
X249857289Y-143733388D01*
X249769541Y-143897553D01*
X249651449Y-144041449D01*
X249507553Y-144159541D01*
X249343388Y-144247289D01*
X249165250Y-144301327D01*
X249026423Y-144315000D01*
X248473577Y-144315000D01*
X248334750Y-144301327D01*
X248156612Y-144247289D01*
X247992447Y-144159541D01*
X247848551Y-144041449D01*
X247730459Y-143897553D01*
X247642711Y-143733388D01*
X247588673Y-143555250D01*
X247570428Y-143370000D01*
X247588673Y-143184750D01*
X247642711Y-143006612D01*
X247730459Y-142842447D01*
X247848551Y-142698551D01*
X247992447Y-142580459D01*
X248156612Y-142492711D01*
X248334750Y-142438673D01*
X248473577Y-142425000D01*
X249026423Y-142425000D01*
X249165250Y-142438673D01*
X249165250Y-142438673D01*
G37*
G36*
X216899971Y-141322993D02*
G01*
X217066163Y-141391832D01*
X217215731Y-141491771D01*
X217342929Y-141618969D01*
X217442868Y-141768537D01*
X217511707Y-141934729D01*
X217546800Y-142111158D01*
X217546800Y-142291042D01*
X217511707Y-142467471D01*
X217442868Y-142633663D01*
X217342929Y-142783231D01*
X217215731Y-142910429D01*
X217066163Y-143010368D01*
X216899971Y-143079207D01*
X216723542Y-143114300D01*
X216543658Y-143114300D01*
X216367229Y-143079207D01*
X216201037Y-143010368D01*
X216051469Y-142910429D01*
X215924271Y-142783231D01*
X215824332Y-142633663D01*
X215755493Y-142467471D01*
X215720400Y-142291042D01*
X215720400Y-142111158D01*
X215755493Y-141934729D01*
X215824332Y-141768537D01*
X215924271Y-141618969D01*
X216051469Y-141491771D01*
X216201037Y-141391832D01*
X216367229Y-141322993D01*
X216543658Y-141287900D01*
X216723542Y-141287900D01*
X216899971Y-141322993D01*
X216899971Y-141322993D01*
G37*
G36*
X257498923Y-140567367D02*
G01*
X257595767Y-140596744D01*
X257692610Y-140626121D01*
X257692612Y-140626122D01*
X257871109Y-140721531D01*
X258027568Y-140849932D01*
X258155968Y-141006390D01*
X258251379Y-141184890D01*
X258280755Y-141281732D01*
X258310133Y-141378577D01*
X258329971Y-141580000D01*
X258310133Y-141781423D01*
X258251378Y-141975112D01*
X258155969Y-142153609D01*
X258027568Y-142310068D01*
X257871109Y-142438469D01*
X257704544Y-142527500D01*
X257692610Y-142533879D01*
X257595767Y-142563256D01*
X257498923Y-142592633D01*
X257347974Y-142607500D01*
X257152026Y-142607500D01*
X257001077Y-142592633D01*
X256904233Y-142563256D01*
X256807390Y-142533879D01*
X256795456Y-142527500D01*
X256628891Y-142438469D01*
X256472432Y-142310068D01*
X256344031Y-142153609D01*
X256248622Y-141975112D01*
X256189867Y-141781423D01*
X256170029Y-141580000D01*
X256189867Y-141378577D01*
X256219245Y-141281732D01*
X256248621Y-141184890D01*
X256344032Y-141006390D01*
X256472432Y-140849932D01*
X256628891Y-140721531D01*
X256807388Y-140626122D01*
X256807390Y-140626121D01*
X256904233Y-140596744D01*
X257001077Y-140567367D01*
X257152026Y-140552500D01*
X257347974Y-140552500D01*
X257498923Y-140567367D01*
X257498923Y-140567367D01*
G37*
G36*
X232575000Y-142527500D02*
G01*
X230425000Y-142527500D01*
X230425000Y-140472500D01*
X232575000Y-140472500D01*
X232575000Y-142527500D01*
X232575000Y-142527500D01*
G37*
G36*
X240575000Y-142527500D02*
G01*
X238425000Y-142527500D01*
X238425000Y-140472500D01*
X240575000Y-140472500D01*
X240575000Y-142527500D01*
X240575000Y-142527500D01*
G37*
G36*
X249165250Y-139898673D02*
G01*
X249343388Y-139952711D01*
X249507553Y-140040459D01*
X249651449Y-140158551D01*
X249769541Y-140302447D01*
X249857289Y-140466612D01*
X249911327Y-140644750D01*
X249929572Y-140830000D01*
X249911327Y-141015250D01*
X249911326Y-141015252D01*
X249859868Y-141184888D01*
X249857289Y-141193388D01*
X249769541Y-141357553D01*
X249651449Y-141501449D01*
X249507553Y-141619541D01*
X249343388Y-141707289D01*
X249165250Y-141761327D01*
X249026423Y-141775000D01*
X248473577Y-141775000D01*
X248334750Y-141761327D01*
X248156612Y-141707289D01*
X247992447Y-141619541D01*
X247848551Y-141501449D01*
X247730459Y-141357553D01*
X247642711Y-141193388D01*
X247640133Y-141184888D01*
X247588674Y-141015252D01*
X247588673Y-141015250D01*
X247570428Y-140830000D01*
X247588673Y-140644750D01*
X247642711Y-140466612D01*
X247730459Y-140302447D01*
X247848551Y-140158551D01*
X247992447Y-140040459D01*
X248156612Y-139952711D01*
X248334750Y-139898673D01*
X248473577Y-139885000D01*
X249026423Y-139885000D01*
X249165250Y-139898673D01*
X249165250Y-139898673D01*
G37*
G36*
X216899971Y-138782993D02*
G01*
X217066163Y-138851832D01*
X217215731Y-138951771D01*
X217342929Y-139078969D01*
X217442868Y-139228537D01*
X217511707Y-139394729D01*
X217546800Y-139571158D01*
X217546800Y-139751042D01*
X217511707Y-139927471D01*
X217442868Y-140093663D01*
X217342929Y-140243231D01*
X217215731Y-140370429D01*
X217066163Y-140470368D01*
X216899971Y-140539207D01*
X216723542Y-140574300D01*
X216543658Y-140574300D01*
X216367229Y-140539207D01*
X216201037Y-140470368D01*
X216051469Y-140370429D01*
X215924271Y-140243231D01*
X215824332Y-140093663D01*
X215755493Y-139927471D01*
X215720400Y-139751042D01*
X215720400Y-139571158D01*
X215755493Y-139394729D01*
X215824332Y-139228537D01*
X215924271Y-139078969D01*
X216051469Y-138951771D01*
X216201037Y-138851832D01*
X216367229Y-138782993D01*
X216543658Y-138747900D01*
X216723542Y-138747900D01*
X216899971Y-138782993D01*
X216899971Y-138782993D01*
G37*
G36*
X168639971Y-138782993D02*
G01*
X168806163Y-138851832D01*
X168955731Y-138951771D01*
X169082929Y-139078969D01*
X169182868Y-139228537D01*
X169251707Y-139394729D01*
X169286800Y-139571158D01*
X169286800Y-139751042D01*
X169251707Y-139927471D01*
X169182868Y-140093663D01*
X169082929Y-140243231D01*
X168955731Y-140370429D01*
X168806163Y-140470368D01*
X168639971Y-140539207D01*
X168463542Y-140574300D01*
X168283658Y-140574300D01*
X168107229Y-140539207D01*
X167941037Y-140470368D01*
X167791469Y-140370429D01*
X167664271Y-140243231D01*
X167564332Y-140093663D01*
X167495493Y-139927471D01*
X167460400Y-139751042D01*
X167460400Y-139571158D01*
X167495493Y-139394729D01*
X167564332Y-139228537D01*
X167664271Y-139078969D01*
X167791469Y-138951771D01*
X167941037Y-138851832D01*
X168107229Y-138782993D01*
X168283658Y-138747900D01*
X168463542Y-138747900D01*
X168639971Y-138782993D01*
X168639971Y-138782993D01*
G37*
G36*
X257498923Y-138027367D02*
G01*
X257595767Y-138056744D01*
X257692610Y-138086121D01*
X257692612Y-138086122D01*
X257871109Y-138181531D01*
X258027568Y-138309932D01*
X258155968Y-138466390D01*
X258251379Y-138644890D01*
X258280755Y-138741732D01*
X258310133Y-138838577D01*
X258329971Y-139040000D01*
X258310133Y-139241423D01*
X258251378Y-139435112D01*
X258155969Y-139613609D01*
X258027568Y-139770068D01*
X257871109Y-139898469D01*
X257732360Y-139972632D01*
X257692610Y-139993879D01*
X257595767Y-140023256D01*
X257498923Y-140052633D01*
X257347974Y-140067500D01*
X257152026Y-140067500D01*
X257001077Y-140052633D01*
X256904232Y-140023255D01*
X256807390Y-139993879D01*
X256767640Y-139972632D01*
X256628891Y-139898469D01*
X256472432Y-139770068D01*
X256344031Y-139613609D01*
X256248622Y-139435112D01*
X256189867Y-139241423D01*
X256170029Y-139040000D01*
X256189867Y-138838577D01*
X256219245Y-138741732D01*
X256248621Y-138644890D01*
X256344032Y-138466390D01*
X256472432Y-138309932D01*
X256628891Y-138181531D01*
X256807388Y-138086122D01*
X256807390Y-138086121D01*
X256904233Y-138056744D01*
X257001077Y-138027367D01*
X257152026Y-138012500D01*
X257347974Y-138012500D01*
X257498923Y-138027367D01*
X257498923Y-138027367D01*
G37*
G36*
X239748923Y-137947367D02*
G01*
X239845767Y-137976744D01*
X239942610Y-138006121D01*
X239942612Y-138006122D01*
X240121109Y-138101531D01*
X240277568Y-138229932D01*
X240405969Y-138386391D01*
X240501378Y-138564888D01*
X240560133Y-138758577D01*
X240579971Y-138960000D01*
X240560133Y-139161423D01*
X240501378Y-139355112D01*
X240405969Y-139533609D01*
X240277568Y-139690068D01*
X240121109Y-139818469D01*
X239942612Y-139913878D01*
X239942610Y-139913879D01*
X239845767Y-139943256D01*
X239748923Y-139972633D01*
X239597974Y-139987500D01*
X239402026Y-139987500D01*
X239251077Y-139972633D01*
X239154233Y-139943256D01*
X239057390Y-139913879D01*
X239057388Y-139913878D01*
X238878891Y-139818469D01*
X238722432Y-139690068D01*
X238594031Y-139533609D01*
X238498622Y-139355112D01*
X238439867Y-139161423D01*
X238420029Y-138960000D01*
X238439867Y-138758577D01*
X238498622Y-138564888D01*
X238594031Y-138386391D01*
X238722432Y-138229932D01*
X238878891Y-138101531D01*
X239057388Y-138006122D01*
X239057390Y-138006121D01*
X239154233Y-137976744D01*
X239251077Y-137947367D01*
X239402026Y-137932500D01*
X239597974Y-137932500D01*
X239748923Y-137947367D01*
X239748923Y-137947367D01*
G37*
G36*
X231748923Y-137947367D02*
G01*
X231845767Y-137976744D01*
X231942610Y-138006121D01*
X231942612Y-138006122D01*
X232121109Y-138101531D01*
X232277568Y-138229932D01*
X232405969Y-138386391D01*
X232501378Y-138564888D01*
X232560133Y-138758577D01*
X232579971Y-138960000D01*
X232560133Y-139161423D01*
X232501378Y-139355112D01*
X232405969Y-139533609D01*
X232277568Y-139690068D01*
X232121109Y-139818469D01*
X231942612Y-139913878D01*
X231942610Y-139913879D01*
X231845767Y-139943256D01*
X231748923Y-139972633D01*
X231597974Y-139987500D01*
X231402026Y-139987500D01*
X231251077Y-139972633D01*
X231154233Y-139943256D01*
X231057390Y-139913879D01*
X231057388Y-139913878D01*
X230878891Y-139818469D01*
X230722432Y-139690068D01*
X230594031Y-139533609D01*
X230498622Y-139355112D01*
X230439867Y-139161423D01*
X230420029Y-138960000D01*
X230439867Y-138758577D01*
X230498622Y-138564888D01*
X230594031Y-138386391D01*
X230722432Y-138229932D01*
X230878891Y-138101531D01*
X231057388Y-138006122D01*
X231057390Y-138006121D01*
X231154233Y-137976744D01*
X231251077Y-137947367D01*
X231402026Y-137932500D01*
X231597974Y-137932500D01*
X231748923Y-137947367D01*
X231748923Y-137947367D01*
G37*
G36*
X249165250Y-137358673D02*
G01*
X249343388Y-137412711D01*
X249507553Y-137500459D01*
X249651449Y-137618551D01*
X249769541Y-137762447D01*
X249857289Y-137926612D01*
X249911327Y-138104750D01*
X249929572Y-138290000D01*
X249911327Y-138475250D01*
X249911326Y-138475252D01*
X249859868Y-138644888D01*
X249857289Y-138653388D01*
X249769541Y-138817553D01*
X249651449Y-138961449D01*
X249507553Y-139079541D01*
X249343388Y-139167289D01*
X249165250Y-139221327D01*
X249026423Y-139235000D01*
X248473577Y-139235000D01*
X248334750Y-139221327D01*
X248156612Y-139167289D01*
X247992447Y-139079541D01*
X247848551Y-138961449D01*
X247730459Y-138817553D01*
X247642711Y-138653388D01*
X247640133Y-138644888D01*
X247588674Y-138475252D01*
X247588673Y-138475250D01*
X247570428Y-138290000D01*
X247588673Y-138104750D01*
X247642711Y-137926612D01*
X247730459Y-137762447D01*
X247848551Y-137618551D01*
X247992447Y-137500459D01*
X248156612Y-137412711D01*
X248334750Y-137358673D01*
X248473577Y-137345000D01*
X249026423Y-137345000D01*
X249165250Y-137358673D01*
X249165250Y-137358673D01*
G37*
G36*
X168639971Y-136242993D02*
G01*
X168806163Y-136311832D01*
X168955731Y-136411771D01*
X169082929Y-136538969D01*
X169182868Y-136688537D01*
X169251707Y-136854729D01*
X169286800Y-137031158D01*
X169286800Y-137211042D01*
X169251707Y-137387471D01*
X169182868Y-137553663D01*
X169082929Y-137703231D01*
X168955731Y-137830429D01*
X168806163Y-137930368D01*
X168639971Y-137999207D01*
X168463542Y-138034300D01*
X168283658Y-138034300D01*
X168107229Y-137999207D01*
X167941037Y-137930368D01*
X167791469Y-137830429D01*
X167664271Y-137703231D01*
X167564332Y-137553663D01*
X167495493Y-137387471D01*
X167460400Y-137211042D01*
X167460400Y-137031158D01*
X167495493Y-136854729D01*
X167564332Y-136688537D01*
X167664271Y-136538969D01*
X167791469Y-136411771D01*
X167941037Y-136311832D01*
X168107229Y-136242993D01*
X168283658Y-136207900D01*
X168463542Y-136207900D01*
X168639971Y-136242993D01*
X168639971Y-136242993D01*
G37*
G36*
X216899971Y-136242993D02*
G01*
X217066163Y-136311832D01*
X217215731Y-136411771D01*
X217342929Y-136538969D01*
X217442868Y-136688537D01*
X217511707Y-136854729D01*
X217546800Y-137031158D01*
X217546800Y-137211042D01*
X217511707Y-137387471D01*
X217442868Y-137553663D01*
X217342929Y-137703231D01*
X217215731Y-137830429D01*
X217066163Y-137930368D01*
X216899971Y-137999207D01*
X216723542Y-138034300D01*
X216543658Y-138034300D01*
X216367229Y-137999207D01*
X216201037Y-137930368D01*
X216051469Y-137830429D01*
X215924271Y-137703231D01*
X215824332Y-137553663D01*
X215755493Y-137387471D01*
X215720400Y-137211042D01*
X215720400Y-137031158D01*
X215755493Y-136854729D01*
X215824332Y-136688537D01*
X215924271Y-136538969D01*
X216051469Y-136411771D01*
X216201037Y-136311832D01*
X216367229Y-136242993D01*
X216543658Y-136207900D01*
X216723542Y-136207900D01*
X216899971Y-136242993D01*
X216899971Y-136242993D01*
G37*
G36*
X258325000Y-137527500D02*
G01*
X256175000Y-137527500D01*
X256175000Y-135472500D01*
X258325000Y-135472500D01*
X258325000Y-137527500D01*
X258325000Y-137527500D01*
G37*
G36*
X239748923Y-135407367D02*
G01*
X239845767Y-135436744D01*
X239942610Y-135466121D01*
X239942612Y-135466122D01*
X240121109Y-135561531D01*
X240277568Y-135689932D01*
X240405969Y-135846391D01*
X240501378Y-136024888D01*
X240560133Y-136218577D01*
X240579971Y-136420000D01*
X240560133Y-136621423D01*
X240501378Y-136815112D01*
X240405969Y-136993609D01*
X240277568Y-137150068D01*
X240121109Y-137278469D01*
X239942612Y-137373878D01*
X239942610Y-137373879D01*
X239845768Y-137403255D01*
X239748923Y-137432633D01*
X239597974Y-137447500D01*
X239402026Y-137447500D01*
X239251077Y-137432633D01*
X239154233Y-137403256D01*
X239057390Y-137373879D01*
X239057388Y-137373878D01*
X238878891Y-137278469D01*
X238722432Y-137150068D01*
X238594031Y-136993609D01*
X238498622Y-136815112D01*
X238439867Y-136621423D01*
X238420029Y-136420000D01*
X238439867Y-136218577D01*
X238498622Y-136024888D01*
X238594031Y-135846391D01*
X238722432Y-135689932D01*
X238878891Y-135561531D01*
X239057388Y-135466122D01*
X239057390Y-135466121D01*
X239154233Y-135436744D01*
X239251077Y-135407367D01*
X239402026Y-135392500D01*
X239597974Y-135392500D01*
X239748923Y-135407367D01*
X239748923Y-135407367D01*
G37*
G36*
X231748923Y-135407367D02*
G01*
X231845767Y-135436744D01*
X231942610Y-135466121D01*
X231942612Y-135466122D01*
X232121109Y-135561531D01*
X232277568Y-135689932D01*
X232405969Y-135846391D01*
X232501378Y-136024888D01*
X232560133Y-136218577D01*
X232579971Y-136420000D01*
X232560133Y-136621423D01*
X232501378Y-136815112D01*
X232405969Y-136993609D01*
X232277568Y-137150068D01*
X232121109Y-137278469D01*
X231942612Y-137373878D01*
X231942610Y-137373879D01*
X231845768Y-137403255D01*
X231748923Y-137432633D01*
X231597974Y-137447500D01*
X231402026Y-137447500D01*
X231251077Y-137432633D01*
X231154233Y-137403256D01*
X231057390Y-137373879D01*
X231057388Y-137373878D01*
X230878891Y-137278469D01*
X230722432Y-137150068D01*
X230594031Y-136993609D01*
X230498622Y-136815112D01*
X230439867Y-136621423D01*
X230420029Y-136420000D01*
X230439867Y-136218577D01*
X230498622Y-136024888D01*
X230594031Y-135846391D01*
X230722432Y-135689932D01*
X230878891Y-135561531D01*
X231057388Y-135466122D01*
X231057390Y-135466121D01*
X231154233Y-135436744D01*
X231251077Y-135407367D01*
X231402026Y-135392500D01*
X231597974Y-135392500D01*
X231748923Y-135407367D01*
X231748923Y-135407367D01*
G37*
G36*
X249778007Y-134809099D02*
G01*
X249812129Y-134819450D01*
X249843567Y-134836254D01*
X249871128Y-134858872D01*
X249893746Y-134886433D01*
X249910550Y-134917871D01*
X249920901Y-134951993D01*
X249925000Y-134993611D01*
X249925000Y-136506389D01*
X249920901Y-136548007D01*
X249910550Y-136582129D01*
X249893746Y-136613567D01*
X249871128Y-136641128D01*
X249843567Y-136663746D01*
X249812129Y-136680550D01*
X249778007Y-136690901D01*
X249736389Y-136695000D01*
X247763611Y-136695000D01*
X247721993Y-136690901D01*
X247687871Y-136680550D01*
X247656433Y-136663746D01*
X247628872Y-136641128D01*
X247606254Y-136613567D01*
X247589450Y-136582129D01*
X247579099Y-136548007D01*
X247575000Y-136506389D01*
X247575000Y-134993611D01*
X247579099Y-134951993D01*
X247589450Y-134917871D01*
X247606254Y-134886433D01*
X247628872Y-134858872D01*
X247656433Y-134836254D01*
X247687871Y-134819450D01*
X247721993Y-134809099D01*
X247763611Y-134805000D01*
X249736389Y-134805000D01*
X249778007Y-134809099D01*
X249778007Y-134809099D01*
G37*
G36*
X216899971Y-133702993D02*
G01*
X217066163Y-133771832D01*
X217215731Y-133871771D01*
X217342929Y-133998969D01*
X217442868Y-134148537D01*
X217511707Y-134314729D01*
X217546800Y-134491158D01*
X217546800Y-134671042D01*
X217511707Y-134847471D01*
X217442868Y-135013663D01*
X217342929Y-135163231D01*
X217215731Y-135290429D01*
X217066163Y-135390368D01*
X216899971Y-135459207D01*
X216723542Y-135494300D01*
X216543658Y-135494300D01*
X216367229Y-135459207D01*
X216201037Y-135390368D01*
X216051469Y-135290429D01*
X215924271Y-135163231D01*
X215824332Y-135013663D01*
X215755493Y-134847471D01*
X215720400Y-134671042D01*
X215720400Y-134491158D01*
X215755493Y-134314729D01*
X215824332Y-134148537D01*
X215924271Y-133998969D01*
X216051469Y-133871771D01*
X216201037Y-133771832D01*
X216367229Y-133702993D01*
X216543658Y-133667900D01*
X216723542Y-133667900D01*
X216899971Y-133702993D01*
X216899971Y-133702993D01*
G37*
G36*
X168639971Y-133702993D02*
G01*
X168806163Y-133771832D01*
X168955731Y-133871771D01*
X169082929Y-133998969D01*
X169182868Y-134148537D01*
X169251707Y-134314729D01*
X169286800Y-134491158D01*
X169286800Y-134671042D01*
X169251707Y-134847471D01*
X169182868Y-135013663D01*
X169082929Y-135163231D01*
X168955731Y-135290429D01*
X168806163Y-135390368D01*
X168639971Y-135459207D01*
X168463542Y-135494300D01*
X168283658Y-135494300D01*
X168107229Y-135459207D01*
X167941037Y-135390368D01*
X167791469Y-135290429D01*
X167664271Y-135163231D01*
X167564332Y-135013663D01*
X167495493Y-134847471D01*
X167460400Y-134671042D01*
X167460400Y-134491158D01*
X167495493Y-134314729D01*
X167564332Y-134148537D01*
X167664271Y-133998969D01*
X167791469Y-133871771D01*
X167941037Y-133771832D01*
X168107229Y-133702993D01*
X168283658Y-133667900D01*
X168463542Y-133667900D01*
X168639971Y-133702993D01*
X168639971Y-133702993D01*
G37*
G36*
X216899971Y-131162993D02*
G01*
X217066163Y-131231832D01*
X217215731Y-131331771D01*
X217342929Y-131458969D01*
X217442868Y-131608537D01*
X217511707Y-131774729D01*
X217546800Y-131951158D01*
X217546800Y-132131042D01*
X217511707Y-132307471D01*
X217442868Y-132473663D01*
X217342929Y-132623231D01*
X217215731Y-132750429D01*
X217066163Y-132850368D01*
X216899971Y-132919207D01*
X216723542Y-132954300D01*
X216543658Y-132954300D01*
X216367229Y-132919207D01*
X216201037Y-132850368D01*
X216051469Y-132750429D01*
X215924271Y-132623231D01*
X215824332Y-132473663D01*
X215755493Y-132307471D01*
X215720400Y-132131042D01*
X215720400Y-131951158D01*
X215755493Y-131774729D01*
X215824332Y-131608537D01*
X215924271Y-131458969D01*
X216051469Y-131331771D01*
X216201037Y-131231832D01*
X216367229Y-131162993D01*
X216543658Y-131127900D01*
X216723542Y-131127900D01*
X216899971Y-131162993D01*
X216899971Y-131162993D01*
G37*
G36*
X168639971Y-131162993D02*
G01*
X168806163Y-131231832D01*
X168955731Y-131331771D01*
X169082929Y-131458969D01*
X169182868Y-131608537D01*
X169251707Y-131774729D01*
X169286800Y-131951158D01*
X169286800Y-132131042D01*
X169251707Y-132307471D01*
X169182868Y-132473663D01*
X169082929Y-132623231D01*
X168955731Y-132750429D01*
X168806163Y-132850368D01*
X168639971Y-132919207D01*
X168463542Y-132954300D01*
X168283658Y-132954300D01*
X168107229Y-132919207D01*
X167941037Y-132850368D01*
X167791469Y-132750429D01*
X167664271Y-132623231D01*
X167564332Y-132473663D01*
X167495493Y-132307471D01*
X167460400Y-132131042D01*
X167460400Y-131951158D01*
X167495493Y-131774729D01*
X167564332Y-131608537D01*
X167664271Y-131458969D01*
X167791469Y-131331771D01*
X167941037Y-131231832D01*
X168107229Y-131162993D01*
X168283658Y-131127900D01*
X168463542Y-131127900D01*
X168639971Y-131162993D01*
X168639971Y-131162993D01*
G37*
G36*
X168639971Y-128622993D02*
G01*
X168806163Y-128691832D01*
X168955731Y-128791771D01*
X169082929Y-128918969D01*
X169182868Y-129068537D01*
X169251707Y-129234729D01*
X169286800Y-129411158D01*
X169286800Y-129591042D01*
X169251707Y-129767471D01*
X169182868Y-129933663D01*
X169082929Y-130083231D01*
X168955731Y-130210429D01*
X168806163Y-130310368D01*
X168639971Y-130379207D01*
X168463542Y-130414300D01*
X168283658Y-130414300D01*
X168107229Y-130379207D01*
X167941037Y-130310368D01*
X167791469Y-130210429D01*
X167664271Y-130083231D01*
X167564332Y-129933663D01*
X167495493Y-129767471D01*
X167460400Y-129591042D01*
X167460400Y-129411158D01*
X167495493Y-129234729D01*
X167564332Y-129068537D01*
X167664271Y-128918969D01*
X167791469Y-128791771D01*
X167941037Y-128691832D01*
X168107229Y-128622993D01*
X168283658Y-128587900D01*
X168463542Y-128587900D01*
X168639971Y-128622993D01*
X168639971Y-128622993D01*
G37*
G36*
X216899971Y-128622993D02*
G01*
X217066163Y-128691832D01*
X217215731Y-128791771D01*
X217342929Y-128918969D01*
X217442868Y-129068537D01*
X217511707Y-129234729D01*
X217546800Y-129411158D01*
X217546800Y-129591042D01*
X217511707Y-129767471D01*
X217442868Y-129933663D01*
X217342929Y-130083231D01*
X217215731Y-130210429D01*
X217066163Y-130310368D01*
X216899971Y-130379207D01*
X216723542Y-130414300D01*
X216543658Y-130414300D01*
X216367229Y-130379207D01*
X216201037Y-130310368D01*
X216051469Y-130210429D01*
X215924271Y-130083231D01*
X215824332Y-129933663D01*
X215755493Y-129767471D01*
X215720400Y-129591042D01*
X215720400Y-129411158D01*
X215755493Y-129234729D01*
X215824332Y-129068537D01*
X215924271Y-128918969D01*
X216051469Y-128791771D01*
X216201037Y-128691832D01*
X216367229Y-128622993D01*
X216543658Y-128587900D01*
X216723542Y-128587900D01*
X216899971Y-128622993D01*
X216899971Y-128622993D01*
G37*
G36*
X260421485Y-126330071D02*
G01*
X260579349Y-126345619D01*
X260841883Y-126425258D01*
X260847965Y-126427103D01*
X261095517Y-126559423D01*
X261312502Y-126737498D01*
X261490577Y-126954483D01*
X261622897Y-127202035D01*
X261622898Y-127202038D01*
X261704381Y-127470651D01*
X261731894Y-127750000D01*
X261704381Y-128029349D01*
X261622898Y-128297962D01*
X261622897Y-128297965D01*
X261490577Y-128545517D01*
X261312502Y-128762502D01*
X261095517Y-128940577D01*
X260847965Y-129072897D01*
X260847962Y-129072898D01*
X260579349Y-129154381D01*
X260439781Y-129168127D01*
X260369998Y-129175000D01*
X259630002Y-129175000D01*
X259560219Y-129168127D01*
X259420651Y-129154381D01*
X259152038Y-129072898D01*
X259152035Y-129072897D01*
X258904483Y-128940577D01*
X258687498Y-128762502D01*
X258509423Y-128545517D01*
X258377103Y-128297965D01*
X258377102Y-128297962D01*
X258295619Y-128029349D01*
X258268106Y-127750000D01*
X258295619Y-127470651D01*
X258377102Y-127202038D01*
X258377103Y-127202035D01*
X258509423Y-126954483D01*
X258687498Y-126737498D01*
X258904483Y-126559423D01*
X259152035Y-126427103D01*
X259158117Y-126425258D01*
X259420651Y-126345619D01*
X259578515Y-126330071D01*
X259630002Y-126325000D01*
X260369998Y-126325000D01*
X260421485Y-126330071D01*
X260421485Y-126330071D01*
G37*
G36*
X256094453Y-126328706D02*
G01*
X256124742Y-126337894D01*
X256152648Y-126352810D01*
X256177112Y-126372888D01*
X256197190Y-126397352D01*
X256212106Y-126425258D01*
X256221294Y-126455547D01*
X256225000Y-126493177D01*
X256225000Y-129006823D01*
X256221294Y-129044453D01*
X256212106Y-129074742D01*
X256197190Y-129102648D01*
X256177112Y-129127112D01*
X256152648Y-129147190D01*
X256124742Y-129162106D01*
X256094453Y-129171294D01*
X256056823Y-129175000D01*
X252943177Y-129175000D01*
X252905547Y-129171294D01*
X252875258Y-129162106D01*
X252847352Y-129147190D01*
X252822888Y-129127112D01*
X252802810Y-129102648D01*
X252787894Y-129074742D01*
X252778706Y-129044453D01*
X252775000Y-129006823D01*
X252775000Y-126493177D01*
X252778706Y-126455547D01*
X252787894Y-126425258D01*
X252802810Y-126397352D01*
X252822888Y-126372888D01*
X252847352Y-126352810D01*
X252875258Y-126337894D01*
X252905547Y-126328706D01*
X252943177Y-126325000D01*
X256056823Y-126325000D01*
X256094453Y-126328706D01*
X256094453Y-126328706D01*
G37*
G36*
X216899971Y-126082993D02*
G01*
X217066163Y-126151832D01*
X217215731Y-126251771D01*
X217342929Y-126378969D01*
X217442868Y-126528537D01*
X217511707Y-126694729D01*
X217546800Y-126871158D01*
X217546800Y-127051042D01*
X217511707Y-127227471D01*
X217442868Y-127393663D01*
X217342929Y-127543231D01*
X217215731Y-127670429D01*
X217066163Y-127770368D01*
X216899971Y-127839207D01*
X216723542Y-127874300D01*
X216543658Y-127874300D01*
X216367229Y-127839207D01*
X216201037Y-127770368D01*
X216051469Y-127670429D01*
X215924271Y-127543231D01*
X215824332Y-127393663D01*
X215755493Y-127227471D01*
X215720400Y-127051042D01*
X215720400Y-126871158D01*
X215755493Y-126694729D01*
X215824332Y-126528537D01*
X215924271Y-126378969D01*
X216051469Y-126251771D01*
X216201037Y-126151832D01*
X216367229Y-126082993D01*
X216543658Y-126047900D01*
X216723542Y-126047900D01*
X216899971Y-126082993D01*
X216899971Y-126082993D01*
G37*
G36*
X168639971Y-126082993D02*
G01*
X168806163Y-126151832D01*
X168955731Y-126251771D01*
X169082929Y-126378969D01*
X169182868Y-126528537D01*
X169251707Y-126694729D01*
X169286800Y-126871158D01*
X169286800Y-127051042D01*
X169251707Y-127227471D01*
X169182868Y-127393663D01*
X169082929Y-127543231D01*
X168955731Y-127670429D01*
X168806163Y-127770368D01*
X168639971Y-127839207D01*
X168463542Y-127874300D01*
X168283658Y-127874300D01*
X168107229Y-127839207D01*
X167941037Y-127770368D01*
X167791469Y-127670429D01*
X167664271Y-127543231D01*
X167564332Y-127393663D01*
X167495493Y-127227471D01*
X167460400Y-127051042D01*
X167460400Y-126871158D01*
X167495493Y-126694729D01*
X167564332Y-126528537D01*
X167664271Y-126378969D01*
X167791469Y-126251771D01*
X167941037Y-126151832D01*
X168107229Y-126082993D01*
X168283658Y-126047900D01*
X168463542Y-126047900D01*
X168639971Y-126082993D01*
X168639971Y-126082993D01*
G37*
G36*
X228825000Y-126527500D02*
G01*
X226675000Y-126527500D01*
X226675000Y-124472500D01*
X228825000Y-124472500D01*
X228825000Y-126527500D01*
X228825000Y-126527500D01*
G37*
G36*
X237075000Y-126527500D02*
G01*
X234925000Y-126527500D01*
X234925000Y-124472500D01*
X237075000Y-124472500D01*
X237075000Y-126527500D01*
X237075000Y-126527500D01*
G37*
G36*
X244825000Y-126277500D02*
G01*
X242675000Y-126277500D01*
X242675000Y-124222500D01*
X244825000Y-124222500D01*
X244825000Y-126277500D01*
X244825000Y-126277500D01*
G37*
G36*
X168639971Y-123542993D02*
G01*
X168806163Y-123611832D01*
X168955731Y-123711771D01*
X169082929Y-123838969D01*
X169182868Y-123988537D01*
X169251707Y-124154729D01*
X169286800Y-124331158D01*
X169286800Y-124511042D01*
X169251707Y-124687471D01*
X169182868Y-124853663D01*
X169082929Y-125003231D01*
X168955731Y-125130429D01*
X168806163Y-125230368D01*
X168639971Y-125299207D01*
X168463542Y-125334300D01*
X168283658Y-125334300D01*
X168107229Y-125299207D01*
X167941037Y-125230368D01*
X167791469Y-125130429D01*
X167664271Y-125003231D01*
X167564332Y-124853663D01*
X167495493Y-124687471D01*
X167460400Y-124511042D01*
X167460400Y-124331158D01*
X167495493Y-124154729D01*
X167564332Y-123988537D01*
X167664271Y-123838969D01*
X167791469Y-123711771D01*
X167941037Y-123611832D01*
X168107229Y-123542993D01*
X168283658Y-123507900D01*
X168463542Y-123507900D01*
X168639971Y-123542993D01*
X168639971Y-123542993D01*
G37*
G36*
X254939781Y-122131873D02*
G01*
X255079349Y-122145619D01*
X255347962Y-122227102D01*
X255347965Y-122227103D01*
X255595517Y-122359423D01*
X255812502Y-122537498D01*
X255990577Y-122754483D01*
X256122897Y-123002035D01*
X256122898Y-123002038D01*
X256204381Y-123270651D01*
X256231894Y-123550000D01*
X256204381Y-123829349D01*
X256156091Y-123988539D01*
X256122897Y-124097965D01*
X255990577Y-124345517D01*
X255812502Y-124562502D01*
X255595517Y-124740577D01*
X255347965Y-124872897D01*
X255347962Y-124872898D01*
X255079349Y-124954381D01*
X254939781Y-124968127D01*
X254869998Y-124975000D01*
X254130002Y-124975000D01*
X254060219Y-124968127D01*
X253920651Y-124954381D01*
X253652038Y-124872898D01*
X253652035Y-124872897D01*
X253404483Y-124740577D01*
X253187498Y-124562502D01*
X253009423Y-124345517D01*
X252877103Y-124097965D01*
X252843909Y-123988539D01*
X252795619Y-123829349D01*
X252768106Y-123550000D01*
X252795619Y-123270651D01*
X252877102Y-123002038D01*
X252877103Y-123002035D01*
X253009423Y-122754483D01*
X253187498Y-122537498D01*
X253404483Y-122359423D01*
X253652035Y-122227103D01*
X253652038Y-122227102D01*
X253920651Y-122145619D01*
X254060219Y-122131873D01*
X254130002Y-122125000D01*
X254869998Y-122125000D01*
X254939781Y-122131873D01*
X254939781Y-122131873D01*
G37*
G36*
X260439781Y-122131873D02*
G01*
X260579349Y-122145619D01*
X260847962Y-122227102D01*
X260847965Y-122227103D01*
X261095517Y-122359423D01*
X261312502Y-122537498D01*
X261490577Y-122754483D01*
X261622897Y-123002035D01*
X261622898Y-123002038D01*
X261704381Y-123270651D01*
X261731894Y-123550000D01*
X261704381Y-123829349D01*
X261656091Y-123988539D01*
X261622897Y-124097965D01*
X261490577Y-124345517D01*
X261312502Y-124562502D01*
X261095517Y-124740577D01*
X260847965Y-124872897D01*
X260847962Y-124872898D01*
X260579349Y-124954381D01*
X260439781Y-124968127D01*
X260369998Y-124975000D01*
X259630002Y-124975000D01*
X259560219Y-124968127D01*
X259420651Y-124954381D01*
X259152038Y-124872898D01*
X259152035Y-124872897D01*
X258904483Y-124740577D01*
X258687498Y-124562502D01*
X258509423Y-124345517D01*
X258377103Y-124097965D01*
X258343909Y-123988539D01*
X258295619Y-123829349D01*
X258268106Y-123550000D01*
X258295619Y-123270651D01*
X258377102Y-123002038D01*
X258377103Y-123002035D01*
X258509423Y-122754483D01*
X258687498Y-122537498D01*
X258904483Y-122359423D01*
X259152035Y-122227103D01*
X259152038Y-122227102D01*
X259420651Y-122145619D01*
X259560219Y-122131873D01*
X259630002Y-122125000D01*
X260369998Y-122125000D01*
X260439781Y-122131873D01*
X260439781Y-122131873D01*
G37*
G36*
X227998923Y-121947367D02*
G01*
X228076969Y-121971042D01*
X228192610Y-122006121D01*
X228192612Y-122006122D01*
X228371109Y-122101531D01*
X228527568Y-122229932D01*
X228655969Y-122386391D01*
X228751378Y-122564888D01*
X228810133Y-122758577D01*
X228829971Y-122960000D01*
X228810133Y-123161423D01*
X228751378Y-123355112D01*
X228655969Y-123533609D01*
X228527568Y-123690068D01*
X228371109Y-123818469D01*
X228332756Y-123838969D01*
X228192610Y-123913879D01*
X228095767Y-123943256D01*
X227998923Y-123972633D01*
X227847974Y-123987500D01*
X227652026Y-123987500D01*
X227501077Y-123972633D01*
X227404232Y-123943255D01*
X227307390Y-123913879D01*
X227167244Y-123838969D01*
X227128891Y-123818469D01*
X226972432Y-123690068D01*
X226844031Y-123533609D01*
X226748622Y-123355112D01*
X226689867Y-123161423D01*
X226670029Y-122960000D01*
X226689867Y-122758577D01*
X226748622Y-122564888D01*
X226844031Y-122386391D01*
X226972432Y-122229932D01*
X227128891Y-122101531D01*
X227307388Y-122006122D01*
X227307390Y-122006121D01*
X227423031Y-121971042D01*
X227501077Y-121947367D01*
X227652026Y-121932500D01*
X227847974Y-121932500D01*
X227998923Y-121947367D01*
X227998923Y-121947367D01*
G37*
G36*
X236248923Y-121947367D02*
G01*
X236326969Y-121971042D01*
X236442610Y-122006121D01*
X236442612Y-122006122D01*
X236621109Y-122101531D01*
X236777568Y-122229932D01*
X236905969Y-122386391D01*
X237001378Y-122564888D01*
X237060133Y-122758577D01*
X237079971Y-122960000D01*
X237060133Y-123161423D01*
X237001378Y-123355112D01*
X236905969Y-123533609D01*
X236777568Y-123690068D01*
X236621109Y-123818469D01*
X236582756Y-123838969D01*
X236442610Y-123913879D01*
X236345767Y-123943256D01*
X236248923Y-123972633D01*
X236097974Y-123987500D01*
X235902026Y-123987500D01*
X235751077Y-123972633D01*
X235654232Y-123943255D01*
X235557390Y-123913879D01*
X235417244Y-123838969D01*
X235378891Y-123818469D01*
X235222432Y-123690068D01*
X235094031Y-123533609D01*
X234998622Y-123355112D01*
X234939867Y-123161423D01*
X234920029Y-122960000D01*
X234939867Y-122758577D01*
X234998622Y-122564888D01*
X235094031Y-122386391D01*
X235222432Y-122229932D01*
X235378891Y-122101531D01*
X235557388Y-122006122D01*
X235557390Y-122006121D01*
X235673031Y-121971042D01*
X235751077Y-121947367D01*
X235902026Y-121932500D01*
X236097974Y-121932500D01*
X236248923Y-121947367D01*
X236248923Y-121947367D01*
G37*
G36*
X243998923Y-121697367D02*
G01*
X244095767Y-121726744D01*
X244192610Y-121756121D01*
X244192612Y-121756122D01*
X244371109Y-121851531D01*
X244527568Y-121979932D01*
X244655969Y-122136391D01*
X244751378Y-122314888D01*
X244810133Y-122508577D01*
X244829971Y-122710000D01*
X244810133Y-122911423D01*
X244751378Y-123105112D01*
X244655969Y-123283609D01*
X244527568Y-123440068D01*
X244371109Y-123568469D01*
X244192612Y-123663878D01*
X244192610Y-123663879D01*
X244106279Y-123690067D01*
X243998923Y-123722633D01*
X243847974Y-123737500D01*
X243652026Y-123737500D01*
X243501077Y-123722633D01*
X243393721Y-123690067D01*
X243307390Y-123663879D01*
X243307388Y-123663878D01*
X243128891Y-123568469D01*
X242972432Y-123440068D01*
X242844031Y-123283609D01*
X242748622Y-123105112D01*
X242689867Y-122911423D01*
X242670029Y-122710000D01*
X242689867Y-122508577D01*
X242748622Y-122314888D01*
X242844031Y-122136391D01*
X242972432Y-121979932D01*
X243128891Y-121851531D01*
X243307388Y-121756122D01*
X243307390Y-121756121D01*
X243404233Y-121726744D01*
X243501077Y-121697367D01*
X243652026Y-121682500D01*
X243847974Y-121682500D01*
X243998923Y-121697367D01*
X243998923Y-121697367D01*
G37*
G36*
X168639971Y-121002993D02*
G01*
X168806163Y-121071832D01*
X168955731Y-121171771D01*
X169082929Y-121298969D01*
X169182868Y-121448537D01*
X169251707Y-121614729D01*
X169286800Y-121791158D01*
X169286800Y-121971042D01*
X169251707Y-122147471D01*
X169182868Y-122313663D01*
X169082929Y-122463231D01*
X168955731Y-122590429D01*
X168806163Y-122690368D01*
X168639971Y-122759207D01*
X168463542Y-122794300D01*
X168283658Y-122794300D01*
X168107229Y-122759207D01*
X167941037Y-122690368D01*
X167791469Y-122590429D01*
X167664271Y-122463231D01*
X167564332Y-122313663D01*
X167495493Y-122147471D01*
X167460400Y-121971042D01*
X167460400Y-121791158D01*
X167495493Y-121614729D01*
X167564332Y-121448537D01*
X167664271Y-121298969D01*
X167791469Y-121171771D01*
X167941037Y-121071832D01*
X168107229Y-121002993D01*
X168283658Y-120967900D01*
X168463542Y-120967900D01*
X168639971Y-121002993D01*
X168639971Y-121002993D01*
G37*
G36*
X216899971Y-121002993D02*
G01*
X217066163Y-121071832D01*
X217215731Y-121171771D01*
X217342929Y-121298969D01*
X217442868Y-121448537D01*
X217511707Y-121614729D01*
X217546800Y-121791158D01*
X217546800Y-121971042D01*
X217511707Y-122147471D01*
X217442868Y-122313663D01*
X217342929Y-122463231D01*
X217215731Y-122590429D01*
X217066163Y-122690368D01*
X216899971Y-122759207D01*
X216723542Y-122794300D01*
X216543658Y-122794300D01*
X216367229Y-122759207D01*
X216201037Y-122690368D01*
X216051469Y-122590429D01*
X215924271Y-122463231D01*
X215824332Y-122313663D01*
X215755493Y-122147471D01*
X215720400Y-121971042D01*
X215720400Y-121791158D01*
X215755493Y-121614729D01*
X215824332Y-121448537D01*
X215924271Y-121298969D01*
X216051469Y-121171771D01*
X216201037Y-121071832D01*
X216367229Y-121002993D01*
X216543658Y-120967900D01*
X216723542Y-120967900D01*
X216899971Y-121002993D01*
X216899971Y-121002993D01*
G37*
G36*
X236248923Y-119407367D02*
G01*
X236326969Y-119431042D01*
X236442610Y-119466121D01*
X236442612Y-119466122D01*
X236621109Y-119561531D01*
X236777568Y-119689932D01*
X236905969Y-119846391D01*
X237001378Y-120024888D01*
X237060133Y-120218577D01*
X237079971Y-120420000D01*
X237060133Y-120621423D01*
X237001378Y-120815112D01*
X236905969Y-120993609D01*
X236777568Y-121150068D01*
X236621109Y-121278469D01*
X236582756Y-121298969D01*
X236442610Y-121373879D01*
X236345768Y-121403255D01*
X236248923Y-121432633D01*
X236097974Y-121447500D01*
X235902026Y-121447500D01*
X235751077Y-121432633D01*
X235654232Y-121403255D01*
X235557390Y-121373879D01*
X235417244Y-121298969D01*
X235378891Y-121278469D01*
X235222432Y-121150068D01*
X235094031Y-120993609D01*
X234998622Y-120815112D01*
X234939867Y-120621423D01*
X234920029Y-120420000D01*
X234939867Y-120218577D01*
X234998622Y-120024888D01*
X235094031Y-119846391D01*
X235222432Y-119689932D01*
X235378891Y-119561531D01*
X235557388Y-119466122D01*
X235557390Y-119466121D01*
X235673031Y-119431042D01*
X235751077Y-119407367D01*
X235902026Y-119392500D01*
X236097974Y-119392500D01*
X236248923Y-119407367D01*
X236248923Y-119407367D01*
G37*
G36*
X227998923Y-119407367D02*
G01*
X228076969Y-119431042D01*
X228192610Y-119466121D01*
X228192612Y-119466122D01*
X228371109Y-119561531D01*
X228527568Y-119689932D01*
X228655969Y-119846391D01*
X228751378Y-120024888D01*
X228810133Y-120218577D01*
X228829971Y-120420000D01*
X228810133Y-120621423D01*
X228751378Y-120815112D01*
X228655969Y-120993609D01*
X228527568Y-121150068D01*
X228371109Y-121278469D01*
X228332756Y-121298969D01*
X228192610Y-121373879D01*
X228095768Y-121403255D01*
X227998923Y-121432633D01*
X227847974Y-121447500D01*
X227652026Y-121447500D01*
X227501077Y-121432633D01*
X227404232Y-121403255D01*
X227307390Y-121373879D01*
X227167244Y-121298969D01*
X227128891Y-121278469D01*
X226972432Y-121150068D01*
X226844031Y-120993609D01*
X226748622Y-120815112D01*
X226689867Y-120621423D01*
X226670029Y-120420000D01*
X226689867Y-120218577D01*
X226748622Y-120024888D01*
X226844031Y-119846391D01*
X226972432Y-119689932D01*
X227128891Y-119561531D01*
X227307388Y-119466122D01*
X227307390Y-119466121D01*
X227423031Y-119431042D01*
X227501077Y-119407367D01*
X227652026Y-119392500D01*
X227847974Y-119392500D01*
X227998923Y-119407367D01*
X227998923Y-119407367D01*
G37*
G36*
X243998923Y-119157367D02*
G01*
X244095767Y-119186744D01*
X244192610Y-119216121D01*
X244192612Y-119216122D01*
X244371109Y-119311531D01*
X244527568Y-119439932D01*
X244655969Y-119596391D01*
X244751378Y-119774888D01*
X244810133Y-119968577D01*
X244829971Y-120170000D01*
X244810133Y-120371423D01*
X244751378Y-120565112D01*
X244655969Y-120743609D01*
X244527568Y-120900068D01*
X244371109Y-121028469D01*
X244192612Y-121123878D01*
X244192610Y-121123879D01*
X244106279Y-121150067D01*
X243998923Y-121182633D01*
X243847974Y-121197500D01*
X243652026Y-121197500D01*
X243501077Y-121182633D01*
X243393721Y-121150067D01*
X243307390Y-121123879D01*
X243307388Y-121123878D01*
X243128891Y-121028469D01*
X242972432Y-120900068D01*
X242844031Y-120743609D01*
X242748622Y-120565112D01*
X242689867Y-120371423D01*
X242670029Y-120170000D01*
X242689867Y-119968577D01*
X242748622Y-119774888D01*
X242844031Y-119596391D01*
X242972432Y-119439932D01*
X243128891Y-119311531D01*
X243307388Y-119216122D01*
X243307390Y-119216121D01*
X243404232Y-119186745D01*
X243501077Y-119157367D01*
X243652026Y-119142500D01*
X243847974Y-119142500D01*
X243998923Y-119157367D01*
X243998923Y-119157367D01*
G37*
G36*
X260439781Y-117931873D02*
G01*
X260579349Y-117945619D01*
X260847962Y-118027102D01*
X260847965Y-118027103D01*
X261095517Y-118159423D01*
X261312502Y-118337498D01*
X261490577Y-118554483D01*
X261622897Y-118802035D01*
X261622898Y-118802038D01*
X261704381Y-119070651D01*
X261731894Y-119350000D01*
X261704381Y-119629349D01*
X261638542Y-119846390D01*
X261622897Y-119897965D01*
X261490577Y-120145517D01*
X261312502Y-120362502D01*
X261095517Y-120540577D01*
X260847965Y-120672897D01*
X260847962Y-120672898D01*
X260579349Y-120754381D01*
X260439781Y-120768127D01*
X260369998Y-120775000D01*
X259630002Y-120775000D01*
X259560219Y-120768127D01*
X259420651Y-120754381D01*
X259152038Y-120672898D01*
X259152035Y-120672897D01*
X258904483Y-120540577D01*
X258687498Y-120362502D01*
X258509423Y-120145517D01*
X258377103Y-119897965D01*
X258361458Y-119846390D01*
X258295619Y-119629349D01*
X258268106Y-119350000D01*
X258295619Y-119070651D01*
X258377102Y-118802038D01*
X258377103Y-118802035D01*
X258509423Y-118554483D01*
X258687498Y-118337498D01*
X258904483Y-118159423D01*
X259152035Y-118027103D01*
X259152038Y-118027102D01*
X259420651Y-117945619D01*
X259560219Y-117931873D01*
X259630002Y-117925000D01*
X260369998Y-117925000D01*
X260439781Y-117931873D01*
X260439781Y-117931873D01*
G37*
G36*
X254939781Y-117931873D02*
G01*
X255079349Y-117945619D01*
X255347962Y-118027102D01*
X255347965Y-118027103D01*
X255595517Y-118159423D01*
X255812502Y-118337498D01*
X255990577Y-118554483D01*
X256122897Y-118802035D01*
X256122898Y-118802038D01*
X256204381Y-119070651D01*
X256231894Y-119350000D01*
X256204381Y-119629349D01*
X256138542Y-119846390D01*
X256122897Y-119897965D01*
X255990577Y-120145517D01*
X255812502Y-120362502D01*
X255595517Y-120540577D01*
X255347965Y-120672897D01*
X255347962Y-120672898D01*
X255079349Y-120754381D01*
X254939781Y-120768127D01*
X254869998Y-120775000D01*
X254130002Y-120775000D01*
X254060219Y-120768127D01*
X253920651Y-120754381D01*
X253652038Y-120672898D01*
X253652035Y-120672897D01*
X253404483Y-120540577D01*
X253187498Y-120362502D01*
X253009423Y-120145517D01*
X252877103Y-119897965D01*
X252861458Y-119846390D01*
X252795619Y-119629349D01*
X252768106Y-119350000D01*
X252795619Y-119070651D01*
X252877102Y-118802038D01*
X252877103Y-118802035D01*
X253009423Y-118554483D01*
X253187498Y-118337498D01*
X253404483Y-118159423D01*
X253652035Y-118027103D01*
X253652038Y-118027102D01*
X253920651Y-117945619D01*
X254060219Y-117931873D01*
X254130002Y-117925000D01*
X254869998Y-117925000D01*
X254939781Y-117931873D01*
X254939781Y-117931873D01*
G37*
G36*
X216899971Y-118462993D02*
G01*
X217066163Y-118531832D01*
X217215731Y-118631771D01*
X217342929Y-118758969D01*
X217442868Y-118908537D01*
X217511707Y-119074729D01*
X217546800Y-119251158D01*
X217546800Y-119431042D01*
X217511707Y-119607471D01*
X217442868Y-119773663D01*
X217342929Y-119923231D01*
X217215731Y-120050429D01*
X217066163Y-120150368D01*
X216899971Y-120219207D01*
X216723542Y-120254300D01*
X216543658Y-120254300D01*
X216367229Y-120219207D01*
X216201037Y-120150368D01*
X216051469Y-120050429D01*
X215924271Y-119923231D01*
X215824332Y-119773663D01*
X215755493Y-119607471D01*
X215720400Y-119431042D01*
X215720400Y-119251158D01*
X215755493Y-119074729D01*
X215824332Y-118908537D01*
X215924271Y-118758969D01*
X216051469Y-118631771D01*
X216201037Y-118531832D01*
X216367229Y-118462993D01*
X216543658Y-118427900D01*
X216723542Y-118427900D01*
X216899971Y-118462993D01*
X216899971Y-118462993D01*
G37*
G36*
X216899971Y-115922993D02*
G01*
X217066163Y-115991832D01*
X217215731Y-116091771D01*
X217342929Y-116218969D01*
X217442868Y-116368537D01*
X217511707Y-116534729D01*
X217546800Y-116711158D01*
X217546800Y-116891042D01*
X217511707Y-117067471D01*
X217442868Y-117233663D01*
X217342929Y-117383231D01*
X217215731Y-117510429D01*
X217066163Y-117610368D01*
X216899971Y-117679207D01*
X216723542Y-117714300D01*
X216543658Y-117714300D01*
X216367229Y-117679207D01*
X216201037Y-117610368D01*
X216051469Y-117510429D01*
X215924271Y-117383231D01*
X215824332Y-117233663D01*
X215755493Y-117067471D01*
X215720400Y-116891042D01*
X215720400Y-116711158D01*
X215755493Y-116534729D01*
X215824332Y-116368537D01*
X215924271Y-116218969D01*
X216051469Y-116091771D01*
X216201037Y-115991832D01*
X216367229Y-115922993D01*
X216543658Y-115887900D01*
X216723542Y-115887900D01*
X216899971Y-115922993D01*
X216899971Y-115922993D01*
G37*
G36*
X168639971Y-115922993D02*
G01*
X168806163Y-115991832D01*
X168955731Y-116091771D01*
X169082929Y-116218969D01*
X169182868Y-116368537D01*
X169251707Y-116534729D01*
X169286800Y-116711158D01*
X169286800Y-116891042D01*
X169251707Y-117067471D01*
X169182868Y-117233663D01*
X169082929Y-117383231D01*
X168955731Y-117510429D01*
X168806163Y-117610368D01*
X168639971Y-117679207D01*
X168463542Y-117714300D01*
X168283658Y-117714300D01*
X168107229Y-117679207D01*
X167941037Y-117610368D01*
X167791469Y-117510429D01*
X167664271Y-117383231D01*
X167564332Y-117233663D01*
X167495493Y-117067471D01*
X167460400Y-116891042D01*
X167460400Y-116711158D01*
X167495493Y-116534729D01*
X167564332Y-116368537D01*
X167664271Y-116218969D01*
X167791469Y-116091771D01*
X167941037Y-115991832D01*
X168107229Y-115922993D01*
X168283658Y-115887900D01*
X168463542Y-115887900D01*
X168639971Y-115922993D01*
X168639971Y-115922993D01*
G37*
G36*
X260439781Y-113731873D02*
G01*
X260579349Y-113745619D01*
X260847962Y-113827102D01*
X260847965Y-113827103D01*
X261095517Y-113959423D01*
X261312502Y-114137498D01*
X261490577Y-114354483D01*
X261622897Y-114602035D01*
X261622898Y-114602038D01*
X261704381Y-114870651D01*
X261731894Y-115150000D01*
X261704381Y-115429349D01*
X261622898Y-115697962D01*
X261622897Y-115697965D01*
X261490577Y-115945517D01*
X261312502Y-116162502D01*
X261095517Y-116340577D01*
X260847965Y-116472897D01*
X260847962Y-116472898D01*
X260579349Y-116554381D01*
X260439781Y-116568127D01*
X260369998Y-116575000D01*
X259630002Y-116575000D01*
X259560219Y-116568127D01*
X259420651Y-116554381D01*
X259152038Y-116472898D01*
X259152035Y-116472897D01*
X258904483Y-116340577D01*
X258687498Y-116162502D01*
X258509423Y-115945517D01*
X258377103Y-115697965D01*
X258377102Y-115697962D01*
X258295619Y-115429349D01*
X258268106Y-115150000D01*
X258295619Y-114870651D01*
X258377102Y-114602038D01*
X258377103Y-114602035D01*
X258509423Y-114354483D01*
X258687498Y-114137498D01*
X258904483Y-113959423D01*
X259152035Y-113827103D01*
X259152038Y-113827102D01*
X259420651Y-113745619D01*
X259560219Y-113731873D01*
X259630002Y-113725000D01*
X260369998Y-113725000D01*
X260439781Y-113731873D01*
X260439781Y-113731873D01*
G37*
G36*
X254939781Y-113731873D02*
G01*
X255079349Y-113745619D01*
X255347962Y-113827102D01*
X255347965Y-113827103D01*
X255595517Y-113959423D01*
X255812502Y-114137498D01*
X255990577Y-114354483D01*
X256122897Y-114602035D01*
X256122898Y-114602038D01*
X256204381Y-114870651D01*
X256231894Y-115150000D01*
X256204381Y-115429349D01*
X256122898Y-115697962D01*
X256122897Y-115697965D01*
X255990577Y-115945517D01*
X255812502Y-116162502D01*
X255595517Y-116340577D01*
X255347965Y-116472897D01*
X255347962Y-116472898D01*
X255079349Y-116554381D01*
X254939781Y-116568127D01*
X254869998Y-116575000D01*
X254130002Y-116575000D01*
X254060219Y-116568127D01*
X253920651Y-116554381D01*
X253652038Y-116472898D01*
X253652035Y-116472897D01*
X253404483Y-116340577D01*
X253187498Y-116162502D01*
X253009423Y-115945517D01*
X252877103Y-115697965D01*
X252877102Y-115697962D01*
X252795619Y-115429349D01*
X252768106Y-115150000D01*
X252795619Y-114870651D01*
X252877102Y-114602038D01*
X252877103Y-114602035D01*
X253009423Y-114354483D01*
X253187498Y-114137498D01*
X253404483Y-113959423D01*
X253652035Y-113827103D01*
X253652038Y-113827102D01*
X253920651Y-113745619D01*
X254060219Y-113731873D01*
X254130002Y-113725000D01*
X254869998Y-113725000D01*
X254939781Y-113731873D01*
X254939781Y-113731873D01*
G37*
G36*
X168639971Y-113382993D02*
G01*
X168806163Y-113451832D01*
X168955731Y-113551771D01*
X169082929Y-113678969D01*
X169182868Y-113828537D01*
X169251707Y-113994729D01*
X169286800Y-114171158D01*
X169286800Y-114351042D01*
X169251707Y-114527471D01*
X169182868Y-114693663D01*
X169082929Y-114843231D01*
X168955731Y-114970429D01*
X168806163Y-115070368D01*
X168639971Y-115139207D01*
X168463542Y-115174300D01*
X168283658Y-115174300D01*
X168107229Y-115139207D01*
X167941037Y-115070368D01*
X167791469Y-114970429D01*
X167664271Y-114843231D01*
X167564332Y-114693663D01*
X167495493Y-114527471D01*
X167460400Y-114351042D01*
X167460400Y-114171158D01*
X167495493Y-113994729D01*
X167564332Y-113828537D01*
X167664271Y-113678969D01*
X167791469Y-113551771D01*
X167941037Y-113451832D01*
X168107229Y-113382993D01*
X168283658Y-113347900D01*
X168463542Y-113347900D01*
X168639971Y-113382993D01*
X168639971Y-113382993D01*
G37*
G36*
X216899971Y-113382993D02*
G01*
X217066163Y-113451832D01*
X217215731Y-113551771D01*
X217342929Y-113678969D01*
X217442868Y-113828537D01*
X217511707Y-113994729D01*
X217546800Y-114171158D01*
X217546800Y-114351042D01*
X217511707Y-114527471D01*
X217442868Y-114693663D01*
X217342929Y-114843231D01*
X217215731Y-114970429D01*
X217066163Y-115070368D01*
X216899971Y-115139207D01*
X216723542Y-115174300D01*
X216543658Y-115174300D01*
X216367229Y-115139207D01*
X216201037Y-115070368D01*
X216051469Y-114970429D01*
X215924271Y-114843231D01*
X215824332Y-114693663D01*
X215755493Y-114527471D01*
X215720400Y-114351042D01*
X215720400Y-114171158D01*
X215755493Y-113994729D01*
X215824332Y-113828537D01*
X215924271Y-113678969D01*
X216051469Y-113551771D01*
X216201037Y-113451832D01*
X216367229Y-113382993D01*
X216543658Y-113347900D01*
X216723542Y-113347900D01*
X216899971Y-113382993D01*
X216899971Y-113382993D01*
G37*
G36*
X168639971Y-110842993D02*
G01*
X168806163Y-110911832D01*
X168955731Y-111011771D01*
X169082929Y-111138969D01*
X169182868Y-111288537D01*
X169251707Y-111454729D01*
X169286800Y-111631158D01*
X169286800Y-111811042D01*
X169251707Y-111987471D01*
X169182868Y-112153663D01*
X169082929Y-112303231D01*
X168955731Y-112430429D01*
X168806163Y-112530368D01*
X168639971Y-112599207D01*
X168463542Y-112634300D01*
X168283658Y-112634300D01*
X168107229Y-112599207D01*
X167941037Y-112530368D01*
X167791469Y-112430429D01*
X167664271Y-112303231D01*
X167564332Y-112153663D01*
X167495493Y-111987471D01*
X167460400Y-111811042D01*
X167460400Y-111631158D01*
X167495493Y-111454729D01*
X167564332Y-111288537D01*
X167664271Y-111138969D01*
X167791469Y-111011771D01*
X167941037Y-110911832D01*
X168107229Y-110842993D01*
X168283658Y-110807900D01*
X168463542Y-110807900D01*
X168639971Y-110842993D01*
X168639971Y-110842993D01*
G37*
G36*
X216899971Y-110842993D02*
G01*
X217066163Y-110911832D01*
X217215731Y-111011771D01*
X217342929Y-111138969D01*
X217442868Y-111288537D01*
X217511707Y-111454729D01*
X217546800Y-111631158D01*
X217546800Y-111811042D01*
X217511707Y-111987471D01*
X217442868Y-112153663D01*
X217342929Y-112303231D01*
X217215731Y-112430429D01*
X217066163Y-112530368D01*
X216899971Y-112599207D01*
X216723542Y-112634300D01*
X216543658Y-112634300D01*
X216367229Y-112599207D01*
X216201037Y-112530368D01*
X216051469Y-112430429D01*
X215924271Y-112303231D01*
X215824332Y-112153663D01*
X215755493Y-111987471D01*
X215720400Y-111811042D01*
X215720400Y-111631158D01*
X215755493Y-111454729D01*
X215824332Y-111288537D01*
X215924271Y-111138969D01*
X216051469Y-111011771D01*
X216201037Y-110911832D01*
X216367229Y-110842993D01*
X216543658Y-110807900D01*
X216723542Y-110807900D01*
X216899971Y-110842993D01*
X216899971Y-110842993D01*
G37*
G36*
X168639971Y-108302993D02*
G01*
X168806163Y-108371832D01*
X168955731Y-108471771D01*
X169082929Y-108598969D01*
X169182868Y-108748537D01*
X169251707Y-108914729D01*
X169286800Y-109091158D01*
X169286800Y-109271042D01*
X169251707Y-109447471D01*
X169182868Y-109613663D01*
X169082929Y-109763231D01*
X168955731Y-109890429D01*
X168806163Y-109990368D01*
X168639971Y-110059207D01*
X168463542Y-110094300D01*
X168283658Y-110094300D01*
X168107229Y-110059207D01*
X167941037Y-109990368D01*
X167791469Y-109890429D01*
X167664271Y-109763231D01*
X167564332Y-109613663D01*
X167495493Y-109447471D01*
X167460400Y-109271042D01*
X167460400Y-109091158D01*
X167495493Y-108914729D01*
X167564332Y-108748537D01*
X167664271Y-108598969D01*
X167791469Y-108471771D01*
X167941037Y-108371832D01*
X168107229Y-108302993D01*
X168283658Y-108267900D01*
X168463542Y-108267900D01*
X168639971Y-108302993D01*
X168639971Y-108302993D01*
G37*
G36*
X216899971Y-108302993D02*
G01*
X217066163Y-108371832D01*
X217215731Y-108471771D01*
X217342929Y-108598969D01*
X217442868Y-108748537D01*
X217511707Y-108914729D01*
X217546800Y-109091158D01*
X217546800Y-109271042D01*
X217511707Y-109447471D01*
X217442868Y-109613663D01*
X217342929Y-109763231D01*
X217215731Y-109890429D01*
X217066163Y-109990368D01*
X216899971Y-110059207D01*
X216723542Y-110094300D01*
X216543658Y-110094300D01*
X216367229Y-110059207D01*
X216201037Y-109990368D01*
X216051469Y-109890429D01*
X215924271Y-109763231D01*
X215824332Y-109613663D01*
X215755493Y-109447471D01*
X215720400Y-109271042D01*
X215720400Y-109091158D01*
X215755493Y-108914729D01*
X215824332Y-108748537D01*
X215924271Y-108598969D01*
X216051469Y-108471771D01*
X216201037Y-108371832D01*
X216367229Y-108302993D01*
X216543658Y-108267900D01*
X216723542Y-108267900D01*
X216899971Y-108302993D01*
X216899971Y-108302993D01*
G37*
G36*
X232455829Y-106499220D02*
G01*
X232541530Y-106507661D01*
X232706468Y-106557695D01*
X232858476Y-106638944D01*
X232991712Y-106748288D01*
X233101056Y-106881524D01*
X233182305Y-107033532D01*
X233232339Y-107198470D01*
X233249233Y-107370000D01*
X233232339Y-107541530D01*
X233182305Y-107706468D01*
X233101056Y-107858476D01*
X232991712Y-107991712D01*
X232858476Y-108101056D01*
X232706468Y-108182305D01*
X232541530Y-108232339D01*
X232455829Y-108240780D01*
X232412980Y-108245000D01*
X232327020Y-108245000D01*
X232284171Y-108240780D01*
X232198470Y-108232339D01*
X232033532Y-108182305D01*
X231881524Y-108101056D01*
X231748288Y-107991712D01*
X231638944Y-107858476D01*
X231557695Y-107706468D01*
X231507661Y-107541530D01*
X231490767Y-107370000D01*
X231507661Y-107198470D01*
X231557695Y-107033532D01*
X231638944Y-106881524D01*
X231748288Y-106748288D01*
X231881524Y-106638944D01*
X232033532Y-106557695D01*
X232198470Y-106507661D01*
X232284171Y-106499220D01*
X232327020Y-106495000D01*
X232412980Y-106495000D01*
X232455829Y-106499220D01*
X232455829Y-106499220D01*
G37*
G36*
X224835829Y-106499220D02*
G01*
X224921530Y-106507661D01*
X225086468Y-106557695D01*
X225238476Y-106638944D01*
X225371712Y-106748288D01*
X225481056Y-106881524D01*
X225562305Y-107033532D01*
X225612339Y-107198470D01*
X225629233Y-107370000D01*
X225612339Y-107541530D01*
X225562305Y-107706468D01*
X225481056Y-107858476D01*
X225371712Y-107991712D01*
X225238476Y-108101056D01*
X225086468Y-108182305D01*
X224921530Y-108232339D01*
X224835829Y-108240780D01*
X224792980Y-108245000D01*
X224707020Y-108245000D01*
X224664171Y-108240780D01*
X224578470Y-108232339D01*
X224413532Y-108182305D01*
X224261524Y-108101056D01*
X224128288Y-107991712D01*
X224018944Y-107858476D01*
X223937695Y-107706468D01*
X223887661Y-107541530D01*
X223870767Y-107370000D01*
X223887661Y-107198470D01*
X223937695Y-107033532D01*
X224018944Y-106881524D01*
X224128288Y-106748288D01*
X224261524Y-106638944D01*
X224413532Y-106557695D01*
X224578470Y-106507661D01*
X224664171Y-106499220D01*
X224707020Y-106495000D01*
X224792980Y-106495000D01*
X224835829Y-106499220D01*
X224835829Y-106499220D01*
G37*
G36*
X216899971Y-105762993D02*
G01*
X217066163Y-105831832D01*
X217215731Y-105931771D01*
X217342929Y-106058969D01*
X217442868Y-106208537D01*
X217511707Y-106374729D01*
X217546800Y-106551158D01*
X217546800Y-106731042D01*
X217511707Y-106907471D01*
X217442868Y-107073663D01*
X217342929Y-107223231D01*
X217215731Y-107350429D01*
X217066163Y-107450368D01*
X216899971Y-107519207D01*
X216723542Y-107554300D01*
X216543658Y-107554300D01*
X216367229Y-107519207D01*
X216201037Y-107450368D01*
X216051469Y-107350429D01*
X215924271Y-107223231D01*
X215824332Y-107073663D01*
X215755493Y-106907471D01*
X215720400Y-106731042D01*
X215720400Y-106551158D01*
X215755493Y-106374729D01*
X215824332Y-106208537D01*
X215924271Y-106058969D01*
X216051469Y-105931771D01*
X216201037Y-105831832D01*
X216367229Y-105762993D01*
X216543658Y-105727900D01*
X216723542Y-105727900D01*
X216899971Y-105762993D01*
X216899971Y-105762993D01*
G37*
G36*
X168639971Y-105762993D02*
G01*
X168806163Y-105831832D01*
X168955731Y-105931771D01*
X169082929Y-106058969D01*
X169182868Y-106208537D01*
X169251707Y-106374729D01*
X169286800Y-106551158D01*
X169286800Y-106731042D01*
X169251707Y-106907471D01*
X169182868Y-107073663D01*
X169082929Y-107223231D01*
X168955731Y-107350429D01*
X168806163Y-107450368D01*
X168639971Y-107519207D01*
X168463542Y-107554300D01*
X168283658Y-107554300D01*
X168107229Y-107519207D01*
X167941037Y-107450368D01*
X167791469Y-107350429D01*
X167664271Y-107223231D01*
X167564332Y-107073663D01*
X167495493Y-106907471D01*
X167460400Y-106731042D01*
X167460400Y-106551158D01*
X167495493Y-106374729D01*
X167564332Y-106208537D01*
X167664271Y-106058969D01*
X167791469Y-105931771D01*
X167941037Y-105831832D01*
X168107229Y-105762993D01*
X168283658Y-105727900D01*
X168463542Y-105727900D01*
X168639971Y-105762993D01*
X168639971Y-105762993D01*
G37*
G36*
X224835829Y-103959220D02*
G01*
X224921530Y-103967661D01*
X225086468Y-104017695D01*
X225238476Y-104098944D01*
X225371712Y-104208288D01*
X225481056Y-104341524D01*
X225562305Y-104493532D01*
X225612339Y-104658470D01*
X225629233Y-104830000D01*
X225612339Y-105001530D01*
X225562305Y-105166468D01*
X225481056Y-105318476D01*
X225371712Y-105451712D01*
X225238476Y-105561056D01*
X225086468Y-105642305D01*
X224921530Y-105692339D01*
X224835829Y-105700780D01*
X224792980Y-105705000D01*
X224707020Y-105705000D01*
X224664171Y-105700780D01*
X224578470Y-105692339D01*
X224413532Y-105642305D01*
X224261524Y-105561056D01*
X224128288Y-105451712D01*
X224018944Y-105318476D01*
X223937695Y-105166468D01*
X223887661Y-105001530D01*
X223870767Y-104830000D01*
X223887661Y-104658470D01*
X223937695Y-104493532D01*
X224018944Y-104341524D01*
X224128288Y-104208288D01*
X224261524Y-104098944D01*
X224413532Y-104017695D01*
X224578470Y-103967661D01*
X224664171Y-103959220D01*
X224707020Y-103955000D01*
X224792980Y-103955000D01*
X224835829Y-103959220D01*
X224835829Y-103959220D01*
G37*
G36*
X232455829Y-103959220D02*
G01*
X232541530Y-103967661D01*
X232706468Y-104017695D01*
X232858476Y-104098944D01*
X232991712Y-104208288D01*
X233101056Y-104341524D01*
X233182305Y-104493532D01*
X233232339Y-104658470D01*
X233249233Y-104830000D01*
X233232339Y-105001530D01*
X233182305Y-105166468D01*
X233101056Y-105318476D01*
X232991712Y-105451712D01*
X232858476Y-105561056D01*
X232706468Y-105642305D01*
X232541530Y-105692339D01*
X232455829Y-105700780D01*
X232412980Y-105705000D01*
X232327020Y-105705000D01*
X232284171Y-105700780D01*
X232198470Y-105692339D01*
X232033532Y-105642305D01*
X231881524Y-105561056D01*
X231748288Y-105451712D01*
X231638944Y-105318476D01*
X231557695Y-105166468D01*
X231507661Y-105001530D01*
X231490767Y-104830000D01*
X231507661Y-104658470D01*
X231557695Y-104493532D01*
X231638944Y-104341524D01*
X231748288Y-104208288D01*
X231881524Y-104098944D01*
X232033532Y-104017695D01*
X232198470Y-103967661D01*
X232284171Y-103959220D01*
X232327020Y-103955000D01*
X232412980Y-103955000D01*
X232455829Y-103959220D01*
X232455829Y-103959220D01*
G37*
G36*
X216899971Y-103222993D02*
G01*
X217066163Y-103291832D01*
X217215731Y-103391771D01*
X217342929Y-103518969D01*
X217442868Y-103668537D01*
X217511707Y-103834729D01*
X217546800Y-104011158D01*
X217546800Y-104191042D01*
X217511707Y-104367471D01*
X217442868Y-104533663D01*
X217342929Y-104683231D01*
X217215731Y-104810429D01*
X217066163Y-104910368D01*
X216899971Y-104979207D01*
X216723542Y-105014300D01*
X216543658Y-105014300D01*
X216367229Y-104979207D01*
X216201037Y-104910368D01*
X216051469Y-104810429D01*
X215924271Y-104683231D01*
X215824332Y-104533663D01*
X215755493Y-104367471D01*
X215720400Y-104191042D01*
X215720400Y-104011158D01*
X215755493Y-103834729D01*
X215824332Y-103668537D01*
X215924271Y-103518969D01*
X216051469Y-103391771D01*
X216201037Y-103291832D01*
X216367229Y-103222993D01*
X216543658Y-103187900D01*
X216723542Y-103187900D01*
X216899971Y-103222993D01*
X216899971Y-103222993D01*
G37*
G36*
X168639971Y-103222993D02*
G01*
X168806163Y-103291832D01*
X168955731Y-103391771D01*
X169082929Y-103518969D01*
X169182868Y-103668537D01*
X169251707Y-103834729D01*
X169286800Y-104011158D01*
X169286800Y-104191042D01*
X169251707Y-104367471D01*
X169182868Y-104533663D01*
X169082929Y-104683231D01*
X168955731Y-104810429D01*
X168806163Y-104910368D01*
X168639971Y-104979207D01*
X168463542Y-105014300D01*
X168283658Y-105014300D01*
X168107229Y-104979207D01*
X167941037Y-104910368D01*
X167791469Y-104810429D01*
X167664271Y-104683231D01*
X167564332Y-104533663D01*
X167495493Y-104367471D01*
X167460400Y-104191042D01*
X167460400Y-104011158D01*
X167495493Y-103834729D01*
X167564332Y-103668537D01*
X167664271Y-103518969D01*
X167791469Y-103391771D01*
X167941037Y-103291832D01*
X168107229Y-103222993D01*
X168283658Y-103187900D01*
X168463542Y-103187900D01*
X168639971Y-103222993D01*
X168639971Y-103222993D01*
G37*
G36*
X232455829Y-101419220D02*
G01*
X232541530Y-101427661D01*
X232706468Y-101477695D01*
X232858476Y-101558944D01*
X232991712Y-101668288D01*
X233101056Y-101801524D01*
X233182305Y-101953532D01*
X233232339Y-102118470D01*
X233249233Y-102290000D01*
X233232339Y-102461530D01*
X233182305Y-102626468D01*
X233101056Y-102778476D01*
X232991712Y-102911712D01*
X232858476Y-103021056D01*
X232706468Y-103102305D01*
X232541530Y-103152339D01*
X232455829Y-103160780D01*
X232412980Y-103165000D01*
X232327020Y-103165000D01*
X232284171Y-103160780D01*
X232198470Y-103152339D01*
X232033532Y-103102305D01*
X231881524Y-103021056D01*
X231748288Y-102911712D01*
X231638944Y-102778476D01*
X231557695Y-102626468D01*
X231507661Y-102461530D01*
X231490767Y-102290000D01*
X231507661Y-102118470D01*
X231557695Y-101953532D01*
X231638944Y-101801524D01*
X231748288Y-101668288D01*
X231881524Y-101558944D01*
X232033532Y-101477695D01*
X232198470Y-101427661D01*
X232284171Y-101419220D01*
X232327020Y-101415000D01*
X232412980Y-101415000D01*
X232455829Y-101419220D01*
X232455829Y-101419220D01*
G37*
G36*
X224835829Y-101419220D02*
G01*
X224921530Y-101427661D01*
X225086468Y-101477695D01*
X225238476Y-101558944D01*
X225371712Y-101668288D01*
X225481056Y-101801524D01*
X225562305Y-101953532D01*
X225612339Y-102118470D01*
X225629233Y-102290000D01*
X225612339Y-102461530D01*
X225562305Y-102626468D01*
X225481056Y-102778476D01*
X225371712Y-102911712D01*
X225238476Y-103021056D01*
X225086468Y-103102305D01*
X224921530Y-103152339D01*
X224835829Y-103160780D01*
X224792980Y-103165000D01*
X224707020Y-103165000D01*
X224664171Y-103160780D01*
X224578470Y-103152339D01*
X224413532Y-103102305D01*
X224261524Y-103021056D01*
X224128288Y-102911712D01*
X224018944Y-102778476D01*
X223937695Y-102626468D01*
X223887661Y-102461530D01*
X223870767Y-102290000D01*
X223887661Y-102118470D01*
X223937695Y-101953532D01*
X224018944Y-101801524D01*
X224128288Y-101668288D01*
X224261524Y-101558944D01*
X224413532Y-101477695D01*
X224578470Y-101427661D01*
X224664171Y-101419220D01*
X224707020Y-101415000D01*
X224792980Y-101415000D01*
X224835829Y-101419220D01*
X224835829Y-101419220D01*
G37*
G36*
X168639971Y-100682993D02*
G01*
X168806163Y-100751832D01*
X168955731Y-100851771D01*
X169082929Y-100978969D01*
X169182868Y-101128537D01*
X169251707Y-101294729D01*
X169286800Y-101471158D01*
X169286800Y-101651042D01*
X169251707Y-101827471D01*
X169182868Y-101993663D01*
X169082929Y-102143231D01*
X168955731Y-102270429D01*
X168806163Y-102370368D01*
X168639971Y-102439207D01*
X168463542Y-102474300D01*
X168283658Y-102474300D01*
X168107229Y-102439207D01*
X167941037Y-102370368D01*
X167791469Y-102270429D01*
X167664271Y-102143231D01*
X167564332Y-101993663D01*
X167495493Y-101827471D01*
X167460400Y-101651042D01*
X167460400Y-101471158D01*
X167495493Y-101294729D01*
X167564332Y-101128537D01*
X167664271Y-100978969D01*
X167791469Y-100851771D01*
X167941037Y-100751832D01*
X168107229Y-100682993D01*
X168283658Y-100647900D01*
X168463542Y-100647900D01*
X168639971Y-100682993D01*
X168639971Y-100682993D01*
G37*
G36*
X225625000Y-100625000D02*
G01*
X223875000Y-100625000D01*
X223875000Y-98875000D01*
X225625000Y-98875000D01*
X225625000Y-100625000D01*
X225625000Y-100625000D01*
G37*
G36*
X232455829Y-98879220D02*
G01*
X232541530Y-98887661D01*
X232706468Y-98937695D01*
X232858476Y-99018944D01*
X232991712Y-99128288D01*
X233101056Y-99261524D01*
X233182305Y-99413532D01*
X233232339Y-99578470D01*
X233249233Y-99750000D01*
X233232339Y-99921530D01*
X233182305Y-100086468D01*
X233101056Y-100238476D01*
X232991712Y-100371712D01*
X232858476Y-100481056D01*
X232706468Y-100562305D01*
X232541530Y-100612339D01*
X232455829Y-100620780D01*
X232412980Y-100625000D01*
X232327020Y-100625000D01*
X232284171Y-100620780D01*
X232198470Y-100612339D01*
X232033532Y-100562305D01*
X231881524Y-100481056D01*
X231748288Y-100371712D01*
X231638944Y-100238476D01*
X231557695Y-100086468D01*
X231507661Y-99921530D01*
X231490767Y-99750000D01*
X231507661Y-99578470D01*
X231557695Y-99413532D01*
X231638944Y-99261524D01*
X231748288Y-99128288D01*
X231881524Y-99018944D01*
X232033532Y-98937695D01*
X232198470Y-98887661D01*
X232284171Y-98879220D01*
X232327020Y-98875000D01*
X232412980Y-98875000D01*
X232455829Y-98879220D01*
X232455829Y-98879220D01*
G37*
G36*
X243490674Y-98706849D02*
G01*
X243609813Y-98730547D01*
X243778152Y-98800275D01*
X243929653Y-98901505D01*
X244058495Y-99030347D01*
X244159725Y-99181848D01*
X244229453Y-99350187D01*
X244265000Y-99528895D01*
X244265000Y-99711105D01*
X244229453Y-99889813D01*
X244159725Y-100058152D01*
X244058495Y-100209653D01*
X243929653Y-100338495D01*
X243778152Y-100439725D01*
X243609813Y-100509453D01*
X243490674Y-100533151D01*
X243431106Y-100545000D01*
X243248894Y-100545000D01*
X243189326Y-100533151D01*
X243070187Y-100509453D01*
X242901848Y-100439725D01*
X242750347Y-100338495D01*
X242621505Y-100209653D01*
X242520275Y-100058152D01*
X242450547Y-99889813D01*
X242415000Y-99711105D01*
X242415000Y-99528895D01*
X242450547Y-99350187D01*
X242520275Y-99181848D01*
X242621505Y-99030347D01*
X242750347Y-98901505D01*
X242901848Y-98800275D01*
X243070187Y-98730547D01*
X243189326Y-98706849D01*
X243248894Y-98695000D01*
X243431106Y-98695000D01*
X243490674Y-98706849D01*
X243490674Y-98706849D01*
G37*
G36*
X168639971Y-98142993D02*
G01*
X168806163Y-98211832D01*
X168955731Y-98311771D01*
X169082929Y-98438969D01*
X169182868Y-98588537D01*
X169251707Y-98754729D01*
X169286800Y-98931158D01*
X169286800Y-99111042D01*
X169251707Y-99287471D01*
X169182868Y-99453663D01*
X169082929Y-99603231D01*
X168955731Y-99730429D01*
X168806163Y-99830368D01*
X168639971Y-99899207D01*
X168463542Y-99934300D01*
X168283658Y-99934300D01*
X168107229Y-99899207D01*
X167941037Y-99830368D01*
X167791469Y-99730429D01*
X167664271Y-99603231D01*
X167564332Y-99453663D01*
X167495493Y-99287471D01*
X167460400Y-99111042D01*
X167460400Y-98931158D01*
X167495493Y-98754729D01*
X167564332Y-98588537D01*
X167664271Y-98438969D01*
X167791469Y-98311771D01*
X167941037Y-98211832D01*
X168107229Y-98142993D01*
X168283658Y-98107900D01*
X168463542Y-98107900D01*
X168639971Y-98142993D01*
X168639971Y-98142993D01*
G37*
G36*
X216899971Y-98142993D02*
G01*
X217066163Y-98211832D01*
X217215731Y-98311771D01*
X217342929Y-98438969D01*
X217442868Y-98588537D01*
X217511707Y-98754729D01*
X217546800Y-98931158D01*
X217546800Y-99111042D01*
X217511707Y-99287471D01*
X217442868Y-99453663D01*
X217342929Y-99603231D01*
X217215731Y-99730429D01*
X217066163Y-99830368D01*
X216899971Y-99899207D01*
X216723542Y-99934300D01*
X216543658Y-99934300D01*
X216367229Y-99899207D01*
X216201037Y-99830368D01*
X216051469Y-99730429D01*
X215924271Y-99603231D01*
X215824332Y-99453663D01*
X215755493Y-99287471D01*
X215720400Y-99111042D01*
X215720400Y-98931158D01*
X215755493Y-98754729D01*
X215824332Y-98588537D01*
X215924271Y-98438969D01*
X216051469Y-98311771D01*
X216201037Y-98211832D01*
X216367229Y-98142993D01*
X216543658Y-98107900D01*
X216723542Y-98107900D01*
X216899971Y-98142993D01*
X216899971Y-98142993D01*
G37*
G36*
X243490674Y-96196849D02*
G01*
X243609813Y-96220547D01*
X243778152Y-96290275D01*
X243929653Y-96391505D01*
X244058495Y-96520347D01*
X244159725Y-96671848D01*
X244229453Y-96840187D01*
X244265000Y-97018895D01*
X244265000Y-97201105D01*
X244229453Y-97379813D01*
X244159725Y-97548152D01*
X244058495Y-97699653D01*
X243929653Y-97828495D01*
X243778152Y-97929725D01*
X243609813Y-97999453D01*
X243490674Y-98023151D01*
X243431106Y-98035000D01*
X243248894Y-98035000D01*
X243189326Y-98023151D01*
X243070187Y-97999453D01*
X242901848Y-97929725D01*
X242750347Y-97828495D01*
X242621505Y-97699653D01*
X242520275Y-97548152D01*
X242450547Y-97379813D01*
X242415000Y-97201105D01*
X242415000Y-97018895D01*
X242450547Y-96840187D01*
X242520275Y-96671848D01*
X242621505Y-96520347D01*
X242750347Y-96391505D01*
X242901848Y-96290275D01*
X243070187Y-96220547D01*
X243189326Y-96196849D01*
X243248894Y-96185000D01*
X243431106Y-96185000D01*
X243490674Y-96196849D01*
X243490674Y-96196849D01*
G37*
G36*
X216899971Y-95602993D02*
G01*
X217066163Y-95671832D01*
X217215731Y-95771771D01*
X217342929Y-95898969D01*
X217442868Y-96048537D01*
X217511707Y-96214729D01*
X217546800Y-96391158D01*
X217546800Y-96571042D01*
X217511707Y-96747471D01*
X217442868Y-96913663D01*
X217342929Y-97063231D01*
X217215731Y-97190429D01*
X217066163Y-97290368D01*
X216899971Y-97359207D01*
X216723542Y-97394300D01*
X216543658Y-97394300D01*
X216367229Y-97359207D01*
X216201037Y-97290368D01*
X216051469Y-97190429D01*
X215924271Y-97063231D01*
X215824332Y-96913663D01*
X215755493Y-96747471D01*
X215720400Y-96571042D01*
X215720400Y-96391158D01*
X215755493Y-96214729D01*
X215824332Y-96048537D01*
X215924271Y-95898969D01*
X216051469Y-95771771D01*
X216201037Y-95671832D01*
X216367229Y-95602993D01*
X216543658Y-95567900D01*
X216723542Y-95567900D01*
X216899971Y-95602993D01*
X216899971Y-95602993D01*
G37*
G36*
X168639971Y-94078993D02*
G01*
X168806163Y-94147832D01*
X168955731Y-94247771D01*
X169082929Y-94374969D01*
X169182868Y-94524537D01*
X169251707Y-94690729D01*
X169286800Y-94867158D01*
X169286800Y-95047042D01*
X169251707Y-95223471D01*
X169182868Y-95389663D01*
X169082929Y-95539231D01*
X168955731Y-95666429D01*
X168806163Y-95766368D01*
X168639971Y-95835207D01*
X168463542Y-95870300D01*
X168283658Y-95870300D01*
X168107229Y-95835207D01*
X167941037Y-95766368D01*
X167791469Y-95666429D01*
X167664271Y-95539231D01*
X167564332Y-95389663D01*
X167495493Y-95223471D01*
X167460400Y-95047042D01*
X167460400Y-94867158D01*
X167495493Y-94690729D01*
X167564332Y-94524537D01*
X167664271Y-94374969D01*
X167791469Y-94247771D01*
X167941037Y-94147832D01*
X168107229Y-94078993D01*
X168283658Y-94043900D01*
X168463542Y-94043900D01*
X168639971Y-94078993D01*
X168639971Y-94078993D01*
G37*
G36*
X243490674Y-93626849D02*
G01*
X243609813Y-93650547D01*
X243778152Y-93720275D01*
X243929653Y-93821505D01*
X244058495Y-93950347D01*
X244159725Y-94101848D01*
X244229453Y-94270187D01*
X244265000Y-94448895D01*
X244265000Y-94631105D01*
X244229453Y-94809813D01*
X244159725Y-94978152D01*
X244058495Y-95129653D01*
X243929653Y-95258495D01*
X243778152Y-95359725D01*
X243609813Y-95429453D01*
X243490674Y-95453151D01*
X243431106Y-95465000D01*
X243248894Y-95465000D01*
X243189326Y-95453151D01*
X243070187Y-95429453D01*
X242901848Y-95359725D01*
X242750347Y-95258495D01*
X242621505Y-95129653D01*
X242520275Y-94978152D01*
X242450547Y-94809813D01*
X242415000Y-94631105D01*
X242415000Y-94448895D01*
X242450547Y-94270187D01*
X242520275Y-94101848D01*
X242621505Y-93950347D01*
X242750347Y-93821505D01*
X242901848Y-93720275D01*
X243070187Y-93650547D01*
X243189326Y-93626849D01*
X243248894Y-93615000D01*
X243431106Y-93615000D01*
X243490674Y-93626849D01*
X243490674Y-93626849D01*
G37*
G36*
X216899971Y-93062993D02*
G01*
X217066163Y-93131832D01*
X217215731Y-93231771D01*
X217342929Y-93358969D01*
X217442868Y-93508537D01*
X217511707Y-93674729D01*
X217546800Y-93851158D01*
X217546800Y-94031042D01*
X217511707Y-94207471D01*
X217442868Y-94373663D01*
X217342929Y-94523231D01*
X217215731Y-94650429D01*
X217066163Y-94750368D01*
X216899971Y-94819207D01*
X216723542Y-94854300D01*
X216543658Y-94854300D01*
X216367229Y-94819207D01*
X216201037Y-94750368D01*
X216051469Y-94650429D01*
X215924271Y-94523231D01*
X215824332Y-94373663D01*
X215755493Y-94207471D01*
X215720400Y-94031042D01*
X215720400Y-93851158D01*
X215755493Y-93674729D01*
X215824332Y-93508537D01*
X215924271Y-93358969D01*
X216051469Y-93231771D01*
X216201037Y-93131832D01*
X216367229Y-93062993D01*
X216543658Y-93027900D01*
X216723542Y-93027900D01*
X216899971Y-93062993D01*
X216899971Y-93062993D01*
G37*
G36*
X261270674Y-92278849D02*
G01*
X261389813Y-92302547D01*
X261558152Y-92372275D01*
X261709653Y-92473505D01*
X261838495Y-92602347D01*
X261939725Y-92753848D01*
X262009453Y-92922187D01*
X262045000Y-93100895D01*
X262045000Y-93283105D01*
X262009453Y-93461813D01*
X261939725Y-93630152D01*
X261838495Y-93781653D01*
X261709653Y-93910495D01*
X261558152Y-94011725D01*
X261389813Y-94081453D01*
X261270674Y-94105151D01*
X261211106Y-94117000D01*
X261028894Y-94117000D01*
X260969326Y-94105151D01*
X260850187Y-94081453D01*
X260681848Y-94011725D01*
X260530347Y-93910495D01*
X260401505Y-93781653D01*
X260300275Y-93630152D01*
X260230547Y-93461813D01*
X260195000Y-93283105D01*
X260195000Y-93100895D01*
X260230547Y-92922187D01*
X260300275Y-92753848D01*
X260401505Y-92602347D01*
X260530347Y-92473505D01*
X260681848Y-92372275D01*
X260850187Y-92302547D01*
X260969326Y-92278849D01*
X261028894Y-92267000D01*
X261211106Y-92267000D01*
X261270674Y-92278849D01*
X261270674Y-92278849D01*
G37*
G36*
X168639971Y-91538993D02*
G01*
X168806163Y-91607832D01*
X168955731Y-91707771D01*
X169082929Y-91834969D01*
X169182868Y-91984537D01*
X169251707Y-92150729D01*
X169286800Y-92327158D01*
X169286800Y-92507042D01*
X169251707Y-92683471D01*
X169182868Y-92849663D01*
X169082929Y-92999231D01*
X168955731Y-93126429D01*
X168806163Y-93226368D01*
X168639971Y-93295207D01*
X168463542Y-93330300D01*
X168283658Y-93330300D01*
X168107229Y-93295207D01*
X167941037Y-93226368D01*
X167791469Y-93126429D01*
X167664271Y-92999231D01*
X167564332Y-92849663D01*
X167495493Y-92683471D01*
X167460400Y-92507042D01*
X167460400Y-92327158D01*
X167495493Y-92150729D01*
X167564332Y-91984537D01*
X167664271Y-91834969D01*
X167791469Y-91707771D01*
X167941037Y-91607832D01*
X168107229Y-91538993D01*
X168283658Y-91503900D01*
X168463542Y-91503900D01*
X168639971Y-91538993D01*
X168639971Y-91538993D01*
G37*
G36*
X244265000Y-92925000D02*
G01*
X242415000Y-92925000D01*
X242415000Y-91075000D01*
X244265000Y-91075000D01*
X244265000Y-92925000D01*
X244265000Y-92925000D01*
G37*
G36*
X216899971Y-90522993D02*
G01*
X217066163Y-90591832D01*
X217215731Y-90691771D01*
X217342929Y-90818969D01*
X217442868Y-90968537D01*
X217511707Y-91134729D01*
X217546800Y-91311158D01*
X217546800Y-91491042D01*
X217511707Y-91667471D01*
X217442868Y-91833663D01*
X217342929Y-91983231D01*
X217215731Y-92110429D01*
X217066163Y-92210368D01*
X216899971Y-92279207D01*
X216723542Y-92314300D01*
X216543658Y-92314300D01*
X216367229Y-92279207D01*
X216201037Y-92210368D01*
X216051469Y-92110429D01*
X215924271Y-91983231D01*
X215824332Y-91833663D01*
X215755493Y-91667471D01*
X215720400Y-91491042D01*
X215720400Y-91311158D01*
X215755493Y-91134729D01*
X215824332Y-90968537D01*
X215924271Y-90818969D01*
X216051469Y-90691771D01*
X216201037Y-90591832D01*
X216367229Y-90522993D01*
X216543658Y-90487900D01*
X216723542Y-90487900D01*
X216899971Y-90522993D01*
X216899971Y-90522993D01*
G37*
G36*
X168639971Y-88998993D02*
G01*
X168806163Y-89067832D01*
X168955731Y-89167771D01*
X169082929Y-89294969D01*
X169182868Y-89444537D01*
X169251707Y-89610729D01*
X169286800Y-89787158D01*
X169286800Y-89967042D01*
X169251707Y-90143471D01*
X169182868Y-90309663D01*
X169082929Y-90459231D01*
X168955731Y-90586429D01*
X168806163Y-90686368D01*
X168639971Y-90755207D01*
X168463542Y-90790300D01*
X168283658Y-90790300D01*
X168107229Y-90755207D01*
X167941037Y-90686368D01*
X167791469Y-90586429D01*
X167664271Y-90459231D01*
X167564332Y-90309663D01*
X167495493Y-90143471D01*
X167460400Y-89967042D01*
X167460400Y-89787158D01*
X167495493Y-89610729D01*
X167564332Y-89444537D01*
X167664271Y-89294969D01*
X167791469Y-89167771D01*
X167941037Y-89067832D01*
X168107229Y-88998993D01*
X168283658Y-88963900D01*
X168463542Y-88963900D01*
X168639971Y-88998993D01*
X168639971Y-88998993D01*
G37*
G36*
X261232009Y-88771158D02*
G01*
X261389813Y-88802547D01*
X261558152Y-88872275D01*
X261709653Y-88973505D01*
X261838495Y-89102347D01*
X261939725Y-89253848D01*
X262009453Y-89422187D01*
X262045000Y-89600895D01*
X262045000Y-89783105D01*
X262009453Y-89961813D01*
X261939725Y-90130152D01*
X261838495Y-90281653D01*
X261709653Y-90410495D01*
X261558152Y-90511725D01*
X261389813Y-90581453D01*
X261270674Y-90605151D01*
X261211106Y-90617000D01*
X261028894Y-90617000D01*
X260969326Y-90605151D01*
X260850187Y-90581453D01*
X260681848Y-90511725D01*
X260530347Y-90410495D01*
X260401505Y-90281653D01*
X260300275Y-90130152D01*
X260230547Y-89961813D01*
X260195000Y-89783105D01*
X260195000Y-89600895D01*
X260230547Y-89422187D01*
X260300275Y-89253848D01*
X260401505Y-89102347D01*
X260530347Y-88973505D01*
X260681848Y-88872275D01*
X260850187Y-88802547D01*
X261007991Y-88771158D01*
X261028894Y-88767000D01*
X261211106Y-88767000D01*
X261232009Y-88771158D01*
X261232009Y-88771158D01*
G37*
G36*
X216899971Y-87982993D02*
G01*
X217066163Y-88051832D01*
X217215731Y-88151771D01*
X217342929Y-88278969D01*
X217442868Y-88428537D01*
X217511707Y-88594729D01*
X217546800Y-88771158D01*
X217546800Y-88951042D01*
X217511707Y-89127471D01*
X217442868Y-89293663D01*
X217342929Y-89443231D01*
X217215731Y-89570429D01*
X217066163Y-89670368D01*
X216899971Y-89739207D01*
X216723542Y-89774300D01*
X216543658Y-89774300D01*
X216367229Y-89739207D01*
X216201037Y-89670368D01*
X216051469Y-89570429D01*
X215924271Y-89443231D01*
X215824332Y-89293663D01*
X215755493Y-89127471D01*
X215720400Y-88951042D01*
X215720400Y-88771158D01*
X215755493Y-88594729D01*
X215824332Y-88428537D01*
X215924271Y-88278969D01*
X216051469Y-88151771D01*
X216201037Y-88051832D01*
X216367229Y-87982993D01*
X216543658Y-87947900D01*
X216723542Y-87947900D01*
X216899971Y-87982993D01*
X216899971Y-87982993D01*
G37*
G36*
X168639971Y-86458993D02*
G01*
X168806163Y-86527832D01*
X168955731Y-86627771D01*
X169082929Y-86754969D01*
X169182868Y-86904537D01*
X169251707Y-87070729D01*
X169286800Y-87247158D01*
X169286800Y-87427042D01*
X169251707Y-87603471D01*
X169182868Y-87769663D01*
X169082929Y-87919231D01*
X168955731Y-88046429D01*
X168806163Y-88146368D01*
X168639971Y-88215207D01*
X168463542Y-88250300D01*
X168283658Y-88250300D01*
X168107229Y-88215207D01*
X167941037Y-88146368D01*
X167791469Y-88046429D01*
X167664271Y-87919231D01*
X167564332Y-87769663D01*
X167495493Y-87603471D01*
X167460400Y-87427042D01*
X167460400Y-87247158D01*
X167495493Y-87070729D01*
X167564332Y-86904537D01*
X167664271Y-86754969D01*
X167791469Y-86627771D01*
X167941037Y-86527832D01*
X168107229Y-86458993D01*
X168283658Y-86423900D01*
X168463542Y-86423900D01*
X168639971Y-86458993D01*
X168639971Y-86458993D01*
G37*
G36*
X216899971Y-85442993D02*
G01*
X217066163Y-85511832D01*
X217215731Y-85611771D01*
X217342929Y-85738969D01*
X217442868Y-85888537D01*
X217511707Y-86054729D01*
X217546800Y-86231158D01*
X217546800Y-86411042D01*
X217511707Y-86587471D01*
X217442868Y-86753663D01*
X217342929Y-86903231D01*
X217215731Y-87030429D01*
X217066163Y-87130368D01*
X216899971Y-87199207D01*
X216723542Y-87234300D01*
X216543658Y-87234300D01*
X216367229Y-87199207D01*
X216201037Y-87130368D01*
X216051469Y-87030429D01*
X215924271Y-86903231D01*
X215824332Y-86753663D01*
X215755493Y-86587471D01*
X215720400Y-86411042D01*
X215720400Y-86231158D01*
X215755493Y-86054729D01*
X215824332Y-85888537D01*
X215924271Y-85738969D01*
X216051469Y-85611771D01*
X216201037Y-85511832D01*
X216367229Y-85442993D01*
X216543658Y-85407900D01*
X216723542Y-85407900D01*
X216899971Y-85442993D01*
X216899971Y-85442993D01*
G37*
G36*
X168639971Y-83918993D02*
G01*
X168806163Y-83987832D01*
X168955731Y-84087771D01*
X169082929Y-84214969D01*
X169182868Y-84364537D01*
X169251707Y-84530729D01*
X169286800Y-84707158D01*
X169286800Y-84887042D01*
X169251707Y-85063471D01*
X169182868Y-85229663D01*
X169082929Y-85379231D01*
X168955731Y-85506429D01*
X168806163Y-85606368D01*
X168639971Y-85675207D01*
X168463542Y-85710300D01*
X168283658Y-85710300D01*
X168107229Y-85675207D01*
X167941037Y-85606368D01*
X167791469Y-85506429D01*
X167664271Y-85379231D01*
X167564332Y-85229663D01*
X167495493Y-85063471D01*
X167460400Y-84887042D01*
X167460400Y-84707158D01*
X167495493Y-84530729D01*
X167564332Y-84364537D01*
X167664271Y-84214969D01*
X167791469Y-84087771D01*
X167941037Y-83987832D01*
X168107229Y-83918993D01*
X168283658Y-83883900D01*
X168463542Y-83883900D01*
X168639971Y-83918993D01*
X168639971Y-83918993D01*
G37*
G36*
X216899971Y-82902993D02*
G01*
X217066163Y-82971832D01*
X217215731Y-83071771D01*
X217342929Y-83198969D01*
X217442868Y-83348537D01*
X217511707Y-83514729D01*
X217546800Y-83691158D01*
X217546800Y-83871042D01*
X217511707Y-84047471D01*
X217442868Y-84213663D01*
X217342929Y-84363231D01*
X217215731Y-84490429D01*
X217066163Y-84590368D01*
X216899971Y-84659207D01*
X216723542Y-84694300D01*
X216543658Y-84694300D01*
X216367229Y-84659207D01*
X216201037Y-84590368D01*
X216051469Y-84490429D01*
X215924271Y-84363231D01*
X215824332Y-84213663D01*
X215755493Y-84047471D01*
X215720400Y-83871042D01*
X215720400Y-83691158D01*
X215755493Y-83514729D01*
X215824332Y-83348537D01*
X215924271Y-83198969D01*
X216051469Y-83071771D01*
X216201037Y-82971832D01*
X216367229Y-82902993D01*
X216543658Y-82867900D01*
X216723542Y-82867900D01*
X216899971Y-82902993D01*
X216899971Y-82902993D01*
G37*
G36*
X250044453Y-80528706D02*
G01*
X250074742Y-80537894D01*
X250102648Y-80552810D01*
X250127112Y-80572888D01*
X250147190Y-80597352D01*
X250162106Y-80625258D01*
X250171294Y-80655547D01*
X250175000Y-80693177D01*
X250175000Y-83806823D01*
X250171294Y-83844453D01*
X250162106Y-83874742D01*
X250147190Y-83902648D01*
X250127112Y-83927112D01*
X250102648Y-83947190D01*
X250074742Y-83962106D01*
X250044453Y-83971294D01*
X250006823Y-83975000D01*
X247493177Y-83975000D01*
X247455547Y-83971294D01*
X247425258Y-83962106D01*
X247397352Y-83947190D01*
X247372888Y-83927112D01*
X247352810Y-83902648D01*
X247337894Y-83874742D01*
X247328706Y-83844453D01*
X247325000Y-83806823D01*
X247325000Y-80693177D01*
X247328706Y-80655547D01*
X247337894Y-80625258D01*
X247352810Y-80597352D01*
X247372888Y-80572888D01*
X247397352Y-80552810D01*
X247425258Y-80537894D01*
X247455547Y-80528706D01*
X247493177Y-80525000D01*
X250006823Y-80525000D01*
X250044453Y-80528706D01*
X250044453Y-80528706D01*
G37*
G36*
X241294453Y-80528706D02*
G01*
X241324742Y-80537894D01*
X241352648Y-80552810D01*
X241377112Y-80572888D01*
X241397190Y-80597352D01*
X241412106Y-80625258D01*
X241421294Y-80655547D01*
X241425000Y-80693177D01*
X241425000Y-83806823D01*
X241421294Y-83844453D01*
X241412106Y-83874742D01*
X241397190Y-83902648D01*
X241377112Y-83927112D01*
X241352648Y-83947190D01*
X241324742Y-83962106D01*
X241294453Y-83971294D01*
X241256823Y-83975000D01*
X238743177Y-83975000D01*
X238705547Y-83971294D01*
X238675258Y-83962106D01*
X238647352Y-83947190D01*
X238622888Y-83927112D01*
X238602810Y-83902648D01*
X238587894Y-83874742D01*
X238578706Y-83844453D01*
X238575000Y-83806823D01*
X238575000Y-80693177D01*
X238578706Y-80655547D01*
X238587894Y-80625258D01*
X238602810Y-80597352D01*
X238622888Y-80572888D01*
X238647352Y-80552810D01*
X238675258Y-80537894D01*
X238705547Y-80528706D01*
X238743177Y-80525000D01*
X241256823Y-80525000D01*
X241294453Y-80528706D01*
X241294453Y-80528706D01*
G37*
G36*
X168639971Y-81378993D02*
G01*
X168806163Y-81447832D01*
X168955731Y-81547771D01*
X169082929Y-81674969D01*
X169182868Y-81824537D01*
X169251707Y-81990729D01*
X169286800Y-82167158D01*
X169286800Y-82347042D01*
X169251707Y-82523471D01*
X169182868Y-82689663D01*
X169082929Y-82839231D01*
X168955731Y-82966429D01*
X168806163Y-83066368D01*
X168639971Y-83135207D01*
X168463542Y-83170300D01*
X168283658Y-83170300D01*
X168107229Y-83135207D01*
X167941037Y-83066368D01*
X167791469Y-82966429D01*
X167664271Y-82839231D01*
X167564332Y-82689663D01*
X167495493Y-82523471D01*
X167460400Y-82347042D01*
X167460400Y-82167158D01*
X167495493Y-81990729D01*
X167564332Y-81824537D01*
X167664271Y-81674969D01*
X167791469Y-81547771D01*
X167941037Y-81447832D01*
X168107229Y-81378993D01*
X168283658Y-81343900D01*
X168463542Y-81343900D01*
X168639971Y-81378993D01*
X168639971Y-81378993D01*
G37*
G36*
X216899971Y-80362993D02*
G01*
X217066163Y-80431832D01*
X217215731Y-80531771D01*
X217342929Y-80658969D01*
X217442868Y-80808537D01*
X217511707Y-80974729D01*
X217546800Y-81151158D01*
X217546800Y-81331042D01*
X217511707Y-81507471D01*
X217442868Y-81673663D01*
X217342929Y-81823231D01*
X217215731Y-81950429D01*
X217066163Y-82050368D01*
X216899971Y-82119207D01*
X216723542Y-82154300D01*
X216543658Y-82154300D01*
X216367229Y-82119207D01*
X216201037Y-82050368D01*
X216051469Y-81950429D01*
X215924271Y-81823231D01*
X215824332Y-81673663D01*
X215755493Y-81507471D01*
X215720400Y-81331042D01*
X215720400Y-81151158D01*
X215755493Y-80974729D01*
X215824332Y-80808537D01*
X215924271Y-80658969D01*
X216051469Y-80531771D01*
X216201037Y-80431832D01*
X216367229Y-80362993D01*
X216543658Y-80327900D01*
X216723542Y-80327900D01*
X216899971Y-80362993D01*
X216899971Y-80362993D01*
G37*
G36*
X168639971Y-78838993D02*
G01*
X168806163Y-78907832D01*
X168955731Y-79007771D01*
X169082929Y-79134969D01*
X169182868Y-79284537D01*
X169251707Y-79450729D01*
X169286800Y-79627158D01*
X169286800Y-79807042D01*
X169251707Y-79983471D01*
X169182868Y-80149663D01*
X169082929Y-80299231D01*
X168955731Y-80426429D01*
X168806163Y-80526368D01*
X168639971Y-80595207D01*
X168463542Y-80630300D01*
X168283658Y-80630300D01*
X168107229Y-80595207D01*
X167941037Y-80526368D01*
X167791469Y-80426429D01*
X167664271Y-80299231D01*
X167564332Y-80149663D01*
X167495493Y-79983471D01*
X167460400Y-79807042D01*
X167460400Y-79627158D01*
X167495493Y-79450729D01*
X167564332Y-79284537D01*
X167664271Y-79134969D01*
X167791469Y-79007771D01*
X167941037Y-78907832D01*
X168107229Y-78838993D01*
X168283658Y-78803900D01*
X168463542Y-78803900D01*
X168639971Y-78838993D01*
X168639971Y-78838993D01*
G37*
G36*
X249029349Y-75045619D02*
G01*
X249297962Y-75127102D01*
X249297965Y-75127103D01*
X249545517Y-75259423D01*
X249762502Y-75437498D01*
X249940577Y-75654483D01*
X250072897Y-75902035D01*
X250072898Y-75902038D01*
X250154381Y-76170652D01*
X250175000Y-76380004D01*
X250175000Y-77119997D01*
X250154381Y-77329349D01*
X250072898Y-77597961D01*
X250072897Y-77597965D01*
X249940577Y-77845517D01*
X249762504Y-78062499D01*
X249762502Y-78062500D01*
X249762501Y-78062502D01*
X249648054Y-78156426D01*
X249545513Y-78240579D01*
X249297964Y-78372897D01*
X249297961Y-78372898D01*
X249029348Y-78454381D01*
X248750000Y-78481894D01*
X248470651Y-78454381D01*
X248202038Y-78372898D01*
X248202035Y-78372897D01*
X247954483Y-78240577D01*
X247737501Y-78062504D01*
X247737500Y-78062502D01*
X247737498Y-78062501D01*
X247559424Y-77845517D01*
X247559423Y-77845516D01*
X247559421Y-77845513D01*
X247427103Y-77597964D01*
X247390234Y-77476423D01*
X247345619Y-77329348D01*
X247325000Y-77119996D01*
X247325000Y-76380003D01*
X247345619Y-76170651D01*
X247427102Y-75902038D01*
X247427103Y-75902035D01*
X247559423Y-75654483D01*
X247737496Y-75437501D01*
X247737498Y-75437500D01*
X247737499Y-75437498D01*
X247954483Y-75259424D01*
X247954484Y-75259423D01*
X247954487Y-75259421D01*
X248202036Y-75127103D01*
X248202039Y-75127102D01*
X248470652Y-75045619D01*
X248750000Y-75018106D01*
X249029349Y-75045619D01*
X249029349Y-75045619D01*
G37*
G36*
X240279349Y-75045619D02*
G01*
X240547962Y-75127102D01*
X240547965Y-75127103D01*
X240795517Y-75259423D01*
X241012502Y-75437498D01*
X241190577Y-75654483D01*
X241322897Y-75902035D01*
X241322898Y-75902038D01*
X241404381Y-76170652D01*
X241425000Y-76380004D01*
X241425000Y-77119997D01*
X241404381Y-77329349D01*
X241322898Y-77597961D01*
X241322897Y-77597965D01*
X241190577Y-77845517D01*
X241012504Y-78062499D01*
X241012502Y-78062500D01*
X241012501Y-78062502D01*
X240898054Y-78156426D01*
X240795513Y-78240579D01*
X240547964Y-78372897D01*
X240547961Y-78372898D01*
X240279348Y-78454381D01*
X240000000Y-78481894D01*
X239720651Y-78454381D01*
X239452038Y-78372898D01*
X239452035Y-78372897D01*
X239204483Y-78240577D01*
X238987501Y-78062504D01*
X238987500Y-78062502D01*
X238987498Y-78062501D01*
X238809424Y-77845517D01*
X238809423Y-77845516D01*
X238809421Y-77845513D01*
X238677103Y-77597964D01*
X238640234Y-77476423D01*
X238595619Y-77329348D01*
X238575000Y-77119996D01*
X238575000Y-76380003D01*
X238595619Y-76170651D01*
X238677102Y-75902038D01*
X238677103Y-75902035D01*
X238809423Y-75654483D01*
X238987496Y-75437501D01*
X238987498Y-75437500D01*
X238987499Y-75437498D01*
X239204483Y-75259424D01*
X239204484Y-75259423D01*
X239204487Y-75259421D01*
X239452036Y-75127103D01*
X239452039Y-75127102D01*
X239720652Y-75045619D01*
X240000000Y-75018106D01*
X240279349Y-75045619D01*
X240279349Y-75045619D01*
G37*
G36*
X228895250Y-76038673D02*
G01*
X229073388Y-76092711D01*
X229237553Y-76180459D01*
X229381449Y-76298551D01*
X229499541Y-76442446D01*
X229581065Y-76594969D01*
X229587290Y-76606615D01*
X229629128Y-76744537D01*
X229641327Y-76784751D01*
X229655000Y-76923578D01*
X229655000Y-77476423D01*
X229641327Y-77615250D01*
X229587289Y-77793388D01*
X229499541Y-77957553D01*
X229381449Y-78101449D01*
X229237554Y-78219541D01*
X229073387Y-78307289D01*
X228895249Y-78361327D01*
X228710000Y-78379572D01*
X228524750Y-78361327D01*
X228346612Y-78307289D01*
X228182447Y-78219541D01*
X228038551Y-78101449D01*
X227920459Y-77957554D01*
X227832711Y-77793387D01*
X227778673Y-77615249D01*
X227765000Y-77476422D01*
X227765000Y-76923577D01*
X227778673Y-76784750D01*
X227832710Y-76606614D01*
X227920461Y-76442445D01*
X228038552Y-76298551D01*
X228182448Y-76180459D01*
X228346613Y-76092711D01*
X228524751Y-76038673D01*
X228710000Y-76020428D01*
X228895250Y-76038673D01*
X228895250Y-76038673D01*
G37*
G36*
X226355250Y-76038673D02*
G01*
X226533388Y-76092711D01*
X226697553Y-76180459D01*
X226841449Y-76298551D01*
X226959541Y-76442446D01*
X227041065Y-76594969D01*
X227047290Y-76606615D01*
X227089128Y-76744537D01*
X227101327Y-76784751D01*
X227115000Y-76923578D01*
X227115000Y-77476423D01*
X227101327Y-77615250D01*
X227047289Y-77793388D01*
X226959541Y-77957553D01*
X226841449Y-78101449D01*
X226697554Y-78219541D01*
X226533387Y-78307289D01*
X226355249Y-78361327D01*
X226170000Y-78379572D01*
X225984750Y-78361327D01*
X225806612Y-78307289D01*
X225642447Y-78219541D01*
X225498551Y-78101449D01*
X225380459Y-77957554D01*
X225292711Y-77793387D01*
X225238673Y-77615249D01*
X225225000Y-77476422D01*
X225225000Y-76923577D01*
X225238673Y-76784750D01*
X225292710Y-76606614D01*
X225380461Y-76442445D01*
X225498552Y-76298551D01*
X225642448Y-76180459D01*
X225806613Y-76092711D01*
X225984751Y-76038673D01*
X226170000Y-76020428D01*
X226355250Y-76038673D01*
X226355250Y-76038673D01*
G37*
G36*
X232048007Y-76029099D02*
G01*
X232082129Y-76039450D01*
X232113567Y-76056254D01*
X232141128Y-76078872D01*
X232163746Y-76106433D01*
X232180550Y-76137871D01*
X232190901Y-76171993D01*
X232195000Y-76213611D01*
X232195000Y-78186389D01*
X232190901Y-78228007D01*
X232180550Y-78262129D01*
X232163746Y-78293567D01*
X232141128Y-78321128D01*
X232113567Y-78343746D01*
X232082129Y-78360550D01*
X232048007Y-78370901D01*
X232006389Y-78375000D01*
X230493611Y-78375000D01*
X230451993Y-78370901D01*
X230417871Y-78360550D01*
X230386433Y-78343746D01*
X230358872Y-78321128D01*
X230336254Y-78293567D01*
X230319450Y-78262129D01*
X230309099Y-78228007D01*
X230305000Y-78186389D01*
X230305000Y-76213611D01*
X230309099Y-76171993D01*
X230319450Y-76137871D01*
X230336254Y-76106433D01*
X230358872Y-76078872D01*
X230386433Y-76056254D01*
X230417871Y-76039450D01*
X230451993Y-76029099D01*
X230493611Y-76025000D01*
X232006389Y-76025000D01*
X232048007Y-76029099D01*
X232048007Y-76029099D01*
G37*
G36*
X168639971Y-76298993D02*
G01*
X168806163Y-76367832D01*
X168955731Y-76467771D01*
X169082929Y-76594969D01*
X169182868Y-76744537D01*
X169251707Y-76910729D01*
X169286800Y-77087158D01*
X169286800Y-77267042D01*
X169251707Y-77443471D01*
X169182868Y-77609663D01*
X169082929Y-77759231D01*
X168955731Y-77886429D01*
X168806163Y-77986368D01*
X168639971Y-78055207D01*
X168463542Y-78090300D01*
X168283658Y-78090300D01*
X168107229Y-78055207D01*
X167941037Y-77986368D01*
X167791469Y-77886429D01*
X167664271Y-77759231D01*
X167564332Y-77609663D01*
X167495493Y-77443471D01*
X167460400Y-77267042D01*
X167460400Y-77087158D01*
X167495493Y-76910729D01*
X167564332Y-76744537D01*
X167664271Y-76594969D01*
X167791469Y-76467771D01*
X167941037Y-76367832D01*
X168107229Y-76298993D01*
X168283658Y-76263900D01*
X168463542Y-76263900D01*
X168639971Y-76298993D01*
X168639971Y-76298993D01*
G37*
G36*
X256415656Y-74629761D02*
G01*
X256523076Y-74674256D01*
X256674991Y-74737181D01*
X256908385Y-74893130D01*
X257106870Y-75091615D01*
X257262819Y-75325009D01*
X257271691Y-75346429D01*
X257370239Y-75584344D01*
X257425000Y-75859648D01*
X257425000Y-76140352D01*
X257370239Y-76415656D01*
X257359142Y-76442446D01*
X257262819Y-76674991D01*
X257106870Y-76908385D01*
X256908385Y-77106870D01*
X256674991Y-77262819D01*
X256523076Y-77325744D01*
X256415656Y-77370239D01*
X256140352Y-77425000D01*
X255859648Y-77425000D01*
X255584344Y-77370239D01*
X255476924Y-77325744D01*
X255325009Y-77262819D01*
X255091615Y-77106870D01*
X254893130Y-76908385D01*
X254737181Y-76674991D01*
X254640858Y-76442446D01*
X254629761Y-76415656D01*
X254575000Y-76140352D01*
X254575000Y-75859648D01*
X254629761Y-75584344D01*
X254728309Y-75346429D01*
X254737181Y-75325009D01*
X254893130Y-75091615D01*
X255091615Y-74893130D01*
X255325009Y-74737181D01*
X255476924Y-74674256D01*
X255584344Y-74629761D01*
X255859648Y-74575000D01*
X256140352Y-74575000D01*
X256415656Y-74629761D01*
X256415656Y-74629761D01*
G37*
G36*
X162415656Y-74629761D02*
G01*
X162523076Y-74674256D01*
X162674991Y-74737181D01*
X162908385Y-74893130D01*
X163106870Y-75091615D01*
X163262819Y-75325009D01*
X163271691Y-75346429D01*
X163370239Y-75584344D01*
X163425000Y-75859648D01*
X163425000Y-76140352D01*
X163370239Y-76415656D01*
X163359142Y-76442446D01*
X163262819Y-76674991D01*
X163106870Y-76908385D01*
X162908385Y-77106870D01*
X162674991Y-77262819D01*
X162523076Y-77325744D01*
X162415656Y-77370239D01*
X162140352Y-77425000D01*
X161859648Y-77425000D01*
X161584344Y-77370239D01*
X161476924Y-77325744D01*
X161325009Y-77262819D01*
X161091615Y-77106870D01*
X160893130Y-76908385D01*
X160737181Y-76674991D01*
X160640858Y-76442446D01*
X160629761Y-76415656D01*
X160575000Y-76140352D01*
X160575000Y-75859648D01*
X160629761Y-75584344D01*
X160728309Y-75346429D01*
X160737181Y-75325009D01*
X160893130Y-75091615D01*
X161091615Y-74893130D01*
X161325009Y-74737181D01*
X161476924Y-74674256D01*
X161584344Y-74629761D01*
X161859648Y-74575000D01*
X162140352Y-74575000D01*
X162415656Y-74629761D01*
X162415656Y-74629761D01*
G37*
G36*
X168639971Y-73758993D02*
G01*
X168806163Y-73827832D01*
X168955731Y-73927771D01*
X169082929Y-74054969D01*
X169182868Y-74204537D01*
X169251707Y-74370729D01*
X169286800Y-74547158D01*
X169286800Y-74727042D01*
X169251707Y-74903471D01*
X169182868Y-75069663D01*
X169082929Y-75219231D01*
X168955731Y-75346429D01*
X168806163Y-75446368D01*
X168639971Y-75515207D01*
X168463542Y-75550300D01*
X168283658Y-75550300D01*
X168107229Y-75515207D01*
X167941037Y-75446368D01*
X167791469Y-75346429D01*
X167664271Y-75219231D01*
X167564332Y-75069663D01*
X167495493Y-74903471D01*
X167460400Y-74727042D01*
X167460400Y-74547158D01*
X167495493Y-74370729D01*
X167564332Y-74204537D01*
X167664271Y-74054969D01*
X167791469Y-73927771D01*
X167941037Y-73827832D01*
X168107229Y-73758993D01*
X168283658Y-73723900D01*
X168463542Y-73723900D01*
X168639971Y-73758993D01*
X168639971Y-73758993D01*
G37*
G36*
X168639971Y-71218993D02*
G01*
X168806163Y-71287832D01*
X168955731Y-71387771D01*
X169082929Y-71514969D01*
X169182868Y-71664537D01*
X169251707Y-71830729D01*
X169286800Y-72007158D01*
X169286800Y-72187042D01*
X169251707Y-72363471D01*
X169182868Y-72529663D01*
X169082929Y-72679231D01*
X168955731Y-72806429D01*
X168806163Y-72906368D01*
X168639971Y-72975207D01*
X168463542Y-73010300D01*
X168283658Y-73010300D01*
X168107229Y-72975207D01*
X167941037Y-72906368D01*
X167791469Y-72806429D01*
X167664271Y-72679231D01*
X167564332Y-72529663D01*
X167495493Y-72363471D01*
X167460400Y-72187042D01*
X167460400Y-72007158D01*
X167495493Y-71830729D01*
X167564332Y-71664537D01*
X167664271Y-71514969D01*
X167791469Y-71387771D01*
X167941037Y-71287832D01*
X168107229Y-71218993D01*
X168283658Y-71183900D01*
X168463542Y-71183900D01*
X168639971Y-71218993D01*
X168639971Y-71218993D01*
G37*
M02*
