G04 #@! TF.GenerationSoftware,KiCad,Pcbnew,(5.1.4)-1*
G04 #@! TF.CreationDate,2020-02-13T11:04:37-05:00*
G04 #@! TF.ProjectId,PCB_2020,5043425f-3230-4323-902e-6b696361645f,rev?*
G04 #@! TF.SameCoordinates,Original*
G04 #@! TF.FileFunction,Copper,L1,Top*
G04 #@! TF.FilePolarity,Positive*
%FSLAX46Y46*%
G04 Gerber Fmt 4.6, Leading zero omitted, Abs format (unit mm)*
G04 Created by KiCad (PCBNEW (5.1.4)-1) date 2020-02-13 11:04:37*
%MOMM*%
%LPD*%
G04 APERTURE LIST*
%ADD10O,1.905000X2.000000*%
%ADD11R,1.905000X2.000000*%
%ADD12C,1.700000*%
%ADD13R,1.700000X1.700000*%
%ADD14O,2.700000X3.300000*%
%ADD15C,0.100000*%
%ADD16C,2.700000*%
%ADD17O,3.300000X2.700000*%
%ADD18C,1.500000*%
%ADD19R,1.600000X1.600000*%
%ADD20O,1.600000X1.600000*%
%ADD21O,2.200000X1.740000*%
%ADD22C,1.740000*%
%ADD23O,1.879600X3.759200*%
%ADD24C,1.150000*%
%ADD25C,0.800000*%
%ADD26C,1.250000*%
%ADD27C,0.250000*%
%ADD28C,0.254000*%
G04 APERTURE END LIST*
D10*
X181080000Y-73750000D03*
X178540000Y-73750000D03*
D11*
X176000000Y-73750000D03*
D12*
X100380000Y-83590000D03*
X102890000Y-83590000D03*
X105460000Y-83590000D03*
D13*
X108000000Y-83590000D03*
D12*
X106808000Y-101370000D03*
X110308000Y-101370000D03*
D14*
X99750000Y-134250000D03*
D15*
G36*
X100874503Y-127101204D02*
G01*
X100898772Y-127104804D01*
X100922570Y-127110765D01*
X100945670Y-127119030D01*
X100967849Y-127129520D01*
X100988892Y-127142133D01*
X101008598Y-127156748D01*
X101026776Y-127173224D01*
X101043252Y-127191402D01*
X101057867Y-127211108D01*
X101070480Y-127232151D01*
X101080970Y-127254330D01*
X101089235Y-127277430D01*
X101095196Y-127301228D01*
X101098796Y-127325497D01*
X101100000Y-127350001D01*
X101100000Y-130149999D01*
X101098796Y-130174503D01*
X101095196Y-130198772D01*
X101089235Y-130222570D01*
X101080970Y-130245670D01*
X101070480Y-130267849D01*
X101057867Y-130288892D01*
X101043252Y-130308598D01*
X101026776Y-130326776D01*
X101008598Y-130343252D01*
X100988892Y-130357867D01*
X100967849Y-130370480D01*
X100945670Y-130380970D01*
X100922570Y-130389235D01*
X100898772Y-130395196D01*
X100874503Y-130398796D01*
X100849999Y-130400000D01*
X98650001Y-130400000D01*
X98625497Y-130398796D01*
X98601228Y-130395196D01*
X98577430Y-130389235D01*
X98554330Y-130380970D01*
X98532151Y-130370480D01*
X98511108Y-130357867D01*
X98491402Y-130343252D01*
X98473224Y-130326776D01*
X98456748Y-130308598D01*
X98442133Y-130288892D01*
X98429520Y-130267849D01*
X98419030Y-130245670D01*
X98410765Y-130222570D01*
X98404804Y-130198772D01*
X98401204Y-130174503D01*
X98400000Y-130149999D01*
X98400000Y-127350001D01*
X98401204Y-127325497D01*
X98404804Y-127301228D01*
X98410765Y-127277430D01*
X98419030Y-127254330D01*
X98429520Y-127232151D01*
X98442133Y-127211108D01*
X98456748Y-127191402D01*
X98473224Y-127173224D01*
X98491402Y-127156748D01*
X98511108Y-127142133D01*
X98532151Y-127129520D01*
X98554330Y-127119030D01*
X98577430Y-127110765D01*
X98601228Y-127104804D01*
X98625497Y-127101204D01*
X98650001Y-127100000D01*
X100849999Y-127100000D01*
X100874503Y-127101204D01*
X100874503Y-127101204D01*
G37*
D16*
X99750000Y-128750000D03*
D17*
X193750000Y-56600000D03*
X193750000Y-60800000D03*
X193750000Y-65000000D03*
X193750000Y-69200000D03*
X188250000Y-56600000D03*
X188250000Y-60800000D03*
X188250000Y-65000000D03*
D15*
G36*
X189674503Y-67851204D02*
G01*
X189698772Y-67854804D01*
X189722570Y-67860765D01*
X189745670Y-67869030D01*
X189767849Y-67879520D01*
X189788892Y-67892133D01*
X189808598Y-67906748D01*
X189826776Y-67923224D01*
X189843252Y-67941402D01*
X189857867Y-67961108D01*
X189870480Y-67982151D01*
X189880970Y-68004330D01*
X189889235Y-68027430D01*
X189895196Y-68051228D01*
X189898796Y-68075497D01*
X189900000Y-68100001D01*
X189900000Y-70299999D01*
X189898796Y-70324503D01*
X189895196Y-70348772D01*
X189889235Y-70372570D01*
X189880970Y-70395670D01*
X189870480Y-70417849D01*
X189857867Y-70438892D01*
X189843252Y-70458598D01*
X189826776Y-70476776D01*
X189808598Y-70493252D01*
X189788892Y-70507867D01*
X189767849Y-70520480D01*
X189745670Y-70530970D01*
X189722570Y-70539235D01*
X189698772Y-70545196D01*
X189674503Y-70548796D01*
X189649999Y-70550000D01*
X186850001Y-70550000D01*
X186825497Y-70548796D01*
X186801228Y-70545196D01*
X186777430Y-70539235D01*
X186754330Y-70530970D01*
X186732151Y-70520480D01*
X186711108Y-70507867D01*
X186691402Y-70493252D01*
X186673224Y-70476776D01*
X186656748Y-70458598D01*
X186642133Y-70438892D01*
X186629520Y-70417849D01*
X186619030Y-70395670D01*
X186610765Y-70372570D01*
X186604804Y-70348772D01*
X186601204Y-70324503D01*
X186600000Y-70299999D01*
X186600000Y-68100001D01*
X186601204Y-68075497D01*
X186604804Y-68051228D01*
X186610765Y-68027430D01*
X186619030Y-68004330D01*
X186629520Y-67982151D01*
X186642133Y-67961108D01*
X186656748Y-67941402D01*
X186673224Y-67923224D01*
X186691402Y-67906748D01*
X186711108Y-67892133D01*
X186732151Y-67879520D01*
X186754330Y-67869030D01*
X186777430Y-67860765D01*
X186801228Y-67854804D01*
X186825497Y-67851204D01*
X186850001Y-67850000D01*
X189649999Y-67850000D01*
X189674503Y-67851204D01*
X189674503Y-67851204D01*
G37*
D16*
X188250000Y-69200000D03*
D18*
X119155000Y-50741000D03*
X119155000Y-53281000D03*
X119155000Y-55821000D03*
X119155000Y-58361000D03*
X119155000Y-60901000D03*
X119155000Y-63441000D03*
X119155000Y-65981000D03*
X119155000Y-68521000D03*
X119155000Y-71061000D03*
X119155000Y-73601000D03*
X121695000Y-63441000D03*
X121695000Y-65981000D03*
X121695000Y-60901000D03*
X121695000Y-50741000D03*
X121695000Y-73601000D03*
X121695000Y-58361000D03*
X121695000Y-55821000D03*
X121695000Y-53281000D03*
X121695000Y-71061000D03*
X121695000Y-68521000D03*
X162335200Y-73601000D03*
X162335200Y-68521000D03*
X162335200Y-65981000D03*
X162335200Y-71061000D03*
X162335200Y-63441000D03*
X162335200Y-60901000D03*
X162335200Y-58361000D03*
X162335200Y-55821000D03*
X162335200Y-50741000D03*
X162335200Y-53281000D03*
X164875000Y-55821000D03*
X164875000Y-63441000D03*
X164875000Y-60901000D03*
X164875000Y-65981000D03*
X164875000Y-50741000D03*
X164875000Y-71061000D03*
X164875000Y-73601000D03*
X164875000Y-68521000D03*
X164875000Y-58361000D03*
X164875000Y-53281000D03*
X164875000Y-114241000D03*
X164875000Y-116781000D03*
X164875000Y-119321000D03*
X164875000Y-121861000D03*
X164875000Y-132021000D03*
X164875000Y-134561000D03*
X164875000Y-137101000D03*
X164875000Y-129481000D03*
X164875000Y-126941000D03*
X164875000Y-124401000D03*
X162335200Y-119321000D03*
X162335200Y-126941000D03*
X162335200Y-124401000D03*
X162335200Y-129481000D03*
X162335200Y-114241000D03*
X162335200Y-134561000D03*
X162335200Y-137101000D03*
X162335200Y-132021000D03*
X162335200Y-121861000D03*
X162335200Y-116781000D03*
X121695000Y-119321000D03*
X121695000Y-126941000D03*
X121695000Y-129481000D03*
X119155000Y-137101000D03*
X121695000Y-132021000D03*
X121695000Y-134561000D03*
X121695000Y-121861000D03*
X121695000Y-137101000D03*
X119155000Y-132021000D03*
X119155000Y-129481000D03*
X121695000Y-124401000D03*
X119155000Y-134561000D03*
X121695000Y-116781000D03*
X121695000Y-114241000D03*
X119155000Y-126941000D03*
X119155000Y-124401000D03*
X119155000Y-121861000D03*
X119155000Y-119321000D03*
X119155000Y-114241000D03*
X119155000Y-116781000D03*
D14*
X186750000Y-96250000D03*
D15*
G36*
X187874503Y-100101204D02*
G01*
X187898772Y-100104804D01*
X187922570Y-100110765D01*
X187945670Y-100119030D01*
X187967849Y-100129520D01*
X187988892Y-100142133D01*
X188008598Y-100156748D01*
X188026776Y-100173224D01*
X188043252Y-100191402D01*
X188057867Y-100211108D01*
X188070480Y-100232151D01*
X188080970Y-100254330D01*
X188089235Y-100277430D01*
X188095196Y-100301228D01*
X188098796Y-100325497D01*
X188100000Y-100350001D01*
X188100000Y-103149999D01*
X188098796Y-103174503D01*
X188095196Y-103198772D01*
X188089235Y-103222570D01*
X188080970Y-103245670D01*
X188070480Y-103267849D01*
X188057867Y-103288892D01*
X188043252Y-103308598D01*
X188026776Y-103326776D01*
X188008598Y-103343252D01*
X187988892Y-103357867D01*
X187967849Y-103370480D01*
X187945670Y-103380970D01*
X187922570Y-103389235D01*
X187898772Y-103395196D01*
X187874503Y-103398796D01*
X187849999Y-103400000D01*
X185650001Y-103400000D01*
X185625497Y-103398796D01*
X185601228Y-103395196D01*
X185577430Y-103389235D01*
X185554330Y-103380970D01*
X185532151Y-103370480D01*
X185511108Y-103357867D01*
X185491402Y-103343252D01*
X185473224Y-103326776D01*
X185456748Y-103308598D01*
X185442133Y-103288892D01*
X185429520Y-103267849D01*
X185419030Y-103245670D01*
X185410765Y-103222570D01*
X185404804Y-103198772D01*
X185401204Y-103174503D01*
X185400000Y-103149999D01*
X185400000Y-100350001D01*
X185401204Y-100325497D01*
X185404804Y-100301228D01*
X185410765Y-100277430D01*
X185419030Y-100254330D01*
X185429520Y-100232151D01*
X185442133Y-100211108D01*
X185456748Y-100191402D01*
X185473224Y-100173224D01*
X185491402Y-100156748D01*
X185511108Y-100142133D01*
X185532151Y-100129520D01*
X185554330Y-100119030D01*
X185577430Y-100110765D01*
X185601228Y-100104804D01*
X185625497Y-100101204D01*
X185650001Y-100100000D01*
X187849999Y-100100000D01*
X187874503Y-100101204D01*
X187874503Y-100101204D01*
G37*
D16*
X186750000Y-101750000D03*
D11*
X175250000Y-115000000D03*
D10*
X177790000Y-115000000D03*
X180330000Y-115000000D03*
D11*
X175250000Y-121000000D03*
D10*
X177790000Y-121000000D03*
X180330000Y-121000000D03*
D11*
X175250000Y-126750000D03*
D10*
X177790000Y-126750000D03*
X180330000Y-126750000D03*
D11*
X176000000Y-81250000D03*
D10*
X178540000Y-81250000D03*
X181080000Y-81250000D03*
D11*
X176000000Y-89500000D03*
D10*
X178540000Y-89500000D03*
X181080000Y-89500000D03*
D19*
X139000000Y-104750000D03*
D20*
X146620000Y-112370000D03*
X139000000Y-107290000D03*
X146620000Y-109830000D03*
X139000000Y-109830000D03*
X146620000Y-107290000D03*
X139000000Y-112370000D03*
X146620000Y-104750000D03*
D21*
X189250000Y-116880000D03*
X189250000Y-119420000D03*
X189250000Y-121960000D03*
D15*
G36*
X190124505Y-123631204D02*
G01*
X190148773Y-123634804D01*
X190172572Y-123640765D01*
X190195671Y-123649030D01*
X190217850Y-123659520D01*
X190238893Y-123672132D01*
X190258599Y-123686747D01*
X190276777Y-123703223D01*
X190293253Y-123721401D01*
X190307868Y-123741107D01*
X190320480Y-123762150D01*
X190330970Y-123784329D01*
X190339235Y-123807428D01*
X190345196Y-123831227D01*
X190348796Y-123855495D01*
X190350000Y-123879999D01*
X190350000Y-125120001D01*
X190348796Y-125144505D01*
X190345196Y-125168773D01*
X190339235Y-125192572D01*
X190330970Y-125215671D01*
X190320480Y-125237850D01*
X190307868Y-125258893D01*
X190293253Y-125278599D01*
X190276777Y-125296777D01*
X190258599Y-125313253D01*
X190238893Y-125327868D01*
X190217850Y-125340480D01*
X190195671Y-125350970D01*
X190172572Y-125359235D01*
X190148773Y-125365196D01*
X190124505Y-125368796D01*
X190100001Y-125370000D01*
X188399999Y-125370000D01*
X188375495Y-125368796D01*
X188351227Y-125365196D01*
X188327428Y-125359235D01*
X188304329Y-125350970D01*
X188282150Y-125340480D01*
X188261107Y-125327868D01*
X188241401Y-125313253D01*
X188223223Y-125296777D01*
X188206747Y-125278599D01*
X188192132Y-125258893D01*
X188179520Y-125237850D01*
X188169030Y-125215671D01*
X188160765Y-125192572D01*
X188154804Y-125168773D01*
X188151204Y-125144505D01*
X188150000Y-125120001D01*
X188150000Y-123879999D01*
X188151204Y-123855495D01*
X188154804Y-123831227D01*
X188160765Y-123807428D01*
X188169030Y-123784329D01*
X188179520Y-123762150D01*
X188192132Y-123741107D01*
X188206747Y-123721401D01*
X188223223Y-123703223D01*
X188241401Y-123686747D01*
X188261107Y-123672132D01*
X188282150Y-123659520D01*
X188304329Y-123649030D01*
X188327428Y-123640765D01*
X188351227Y-123634804D01*
X188375495Y-123631204D01*
X188399999Y-123630000D01*
X190100001Y-123630000D01*
X190124505Y-123631204D01*
X190124505Y-123631204D01*
G37*
D22*
X189250000Y-124500000D03*
D21*
X175500000Y-49670000D03*
X175500000Y-52210000D03*
D15*
G36*
X176374505Y-53881204D02*
G01*
X176398773Y-53884804D01*
X176422572Y-53890765D01*
X176445671Y-53899030D01*
X176467850Y-53909520D01*
X176488893Y-53922132D01*
X176508599Y-53936747D01*
X176526777Y-53953223D01*
X176543253Y-53971401D01*
X176557868Y-53991107D01*
X176570480Y-54012150D01*
X176580970Y-54034329D01*
X176589235Y-54057428D01*
X176595196Y-54081227D01*
X176598796Y-54105495D01*
X176600000Y-54129999D01*
X176600000Y-55370001D01*
X176598796Y-55394505D01*
X176595196Y-55418773D01*
X176589235Y-55442572D01*
X176580970Y-55465671D01*
X176570480Y-55487850D01*
X176557868Y-55508893D01*
X176543253Y-55528599D01*
X176526777Y-55546777D01*
X176508599Y-55563253D01*
X176488893Y-55577868D01*
X176467850Y-55590480D01*
X176445671Y-55600970D01*
X176422572Y-55609235D01*
X176398773Y-55615196D01*
X176374505Y-55618796D01*
X176350001Y-55620000D01*
X174649999Y-55620000D01*
X174625495Y-55618796D01*
X174601227Y-55615196D01*
X174577428Y-55609235D01*
X174554329Y-55600970D01*
X174532150Y-55590480D01*
X174511107Y-55577868D01*
X174491401Y-55563253D01*
X174473223Y-55546777D01*
X174456747Y-55528599D01*
X174442132Y-55508893D01*
X174429520Y-55487850D01*
X174419030Y-55465671D01*
X174410765Y-55442572D01*
X174404804Y-55418773D01*
X174401204Y-55394505D01*
X174400000Y-55370001D01*
X174400000Y-54129999D01*
X174401204Y-54105495D01*
X174404804Y-54081227D01*
X174410765Y-54057428D01*
X174419030Y-54034329D01*
X174429520Y-54012150D01*
X174442132Y-53991107D01*
X174456747Y-53971401D01*
X174473223Y-53953223D01*
X174491401Y-53936747D01*
X174511107Y-53922132D01*
X174532150Y-53909520D01*
X174554329Y-53899030D01*
X174577428Y-53890765D01*
X174601227Y-53884804D01*
X174625495Y-53881204D01*
X174649999Y-53880000D01*
X176350001Y-53880000D01*
X176374505Y-53881204D01*
X176374505Y-53881204D01*
G37*
D22*
X175500000Y-54750000D03*
D23*
X98300000Y-73250000D03*
X100840000Y-73250000D03*
X103380000Y-73250000D03*
X105920000Y-73250000D03*
X108460000Y-73250000D03*
X111000000Y-73250000D03*
D15*
G36*
X185974505Y-82951204D02*
G01*
X185998773Y-82954804D01*
X186022572Y-82960765D01*
X186045671Y-82969030D01*
X186067850Y-82979520D01*
X186088893Y-82992132D01*
X186108599Y-83006747D01*
X186126777Y-83023223D01*
X186143253Y-83041401D01*
X186157868Y-83061107D01*
X186170480Y-83082150D01*
X186180970Y-83104329D01*
X186189235Y-83127428D01*
X186195196Y-83151227D01*
X186198796Y-83175495D01*
X186200000Y-83199999D01*
X186200000Y-83850001D01*
X186198796Y-83874505D01*
X186195196Y-83898773D01*
X186189235Y-83922572D01*
X186180970Y-83945671D01*
X186170480Y-83967850D01*
X186157868Y-83988893D01*
X186143253Y-84008599D01*
X186126777Y-84026777D01*
X186108599Y-84043253D01*
X186088893Y-84057868D01*
X186067850Y-84070480D01*
X186045671Y-84080970D01*
X186022572Y-84089235D01*
X185998773Y-84095196D01*
X185974505Y-84098796D01*
X185950001Y-84100000D01*
X185049999Y-84100000D01*
X185025495Y-84098796D01*
X185001227Y-84095196D01*
X184977428Y-84089235D01*
X184954329Y-84080970D01*
X184932150Y-84070480D01*
X184911107Y-84057868D01*
X184891401Y-84043253D01*
X184873223Y-84026777D01*
X184856747Y-84008599D01*
X184842132Y-83988893D01*
X184829520Y-83967850D01*
X184819030Y-83945671D01*
X184810765Y-83922572D01*
X184804804Y-83898773D01*
X184801204Y-83874505D01*
X184800000Y-83850001D01*
X184800000Y-83199999D01*
X184801204Y-83175495D01*
X184804804Y-83151227D01*
X184810765Y-83127428D01*
X184819030Y-83104329D01*
X184829520Y-83082150D01*
X184842132Y-83061107D01*
X184856747Y-83041401D01*
X184873223Y-83023223D01*
X184891401Y-83006747D01*
X184911107Y-82992132D01*
X184932150Y-82979520D01*
X184954329Y-82969030D01*
X184977428Y-82960765D01*
X185001227Y-82954804D01*
X185025495Y-82951204D01*
X185049999Y-82950000D01*
X185950001Y-82950000D01*
X185974505Y-82951204D01*
X185974505Y-82951204D01*
G37*
D24*
X185500000Y-83525000D03*
D15*
G36*
X185974505Y-80901204D02*
G01*
X185998773Y-80904804D01*
X186022572Y-80910765D01*
X186045671Y-80919030D01*
X186067850Y-80929520D01*
X186088893Y-80942132D01*
X186108599Y-80956747D01*
X186126777Y-80973223D01*
X186143253Y-80991401D01*
X186157868Y-81011107D01*
X186170480Y-81032150D01*
X186180970Y-81054329D01*
X186189235Y-81077428D01*
X186195196Y-81101227D01*
X186198796Y-81125495D01*
X186200000Y-81149999D01*
X186200000Y-81800001D01*
X186198796Y-81824505D01*
X186195196Y-81848773D01*
X186189235Y-81872572D01*
X186180970Y-81895671D01*
X186170480Y-81917850D01*
X186157868Y-81938893D01*
X186143253Y-81958599D01*
X186126777Y-81976777D01*
X186108599Y-81993253D01*
X186088893Y-82007868D01*
X186067850Y-82020480D01*
X186045671Y-82030970D01*
X186022572Y-82039235D01*
X185998773Y-82045196D01*
X185974505Y-82048796D01*
X185950001Y-82050000D01*
X185049999Y-82050000D01*
X185025495Y-82048796D01*
X185001227Y-82045196D01*
X184977428Y-82039235D01*
X184954329Y-82030970D01*
X184932150Y-82020480D01*
X184911107Y-82007868D01*
X184891401Y-81993253D01*
X184873223Y-81976777D01*
X184856747Y-81958599D01*
X184842132Y-81938893D01*
X184829520Y-81917850D01*
X184819030Y-81895671D01*
X184810765Y-81872572D01*
X184804804Y-81848773D01*
X184801204Y-81824505D01*
X184800000Y-81800001D01*
X184800000Y-81149999D01*
X184801204Y-81125495D01*
X184804804Y-81101227D01*
X184810765Y-81077428D01*
X184819030Y-81054329D01*
X184829520Y-81032150D01*
X184842132Y-81011107D01*
X184856747Y-80991401D01*
X184873223Y-80973223D01*
X184891401Y-80956747D01*
X184911107Y-80942132D01*
X184932150Y-80929520D01*
X184954329Y-80919030D01*
X184977428Y-80910765D01*
X185001227Y-80904804D01*
X185025495Y-80901204D01*
X185049999Y-80900000D01*
X185950001Y-80900000D01*
X185974505Y-80901204D01*
X185974505Y-80901204D01*
G37*
D24*
X185500000Y-81475000D03*
D15*
G36*
X187824505Y-86801204D02*
G01*
X187848773Y-86804804D01*
X187872572Y-86810765D01*
X187895671Y-86819030D01*
X187917850Y-86829520D01*
X187938893Y-86842132D01*
X187958599Y-86856747D01*
X187976777Y-86873223D01*
X187993253Y-86891401D01*
X188007868Y-86911107D01*
X188020480Y-86932150D01*
X188030970Y-86954329D01*
X188039235Y-86977428D01*
X188045196Y-87001227D01*
X188048796Y-87025495D01*
X188050000Y-87049999D01*
X188050000Y-87950001D01*
X188048796Y-87974505D01*
X188045196Y-87998773D01*
X188039235Y-88022572D01*
X188030970Y-88045671D01*
X188020480Y-88067850D01*
X188007868Y-88088893D01*
X187993253Y-88108599D01*
X187976777Y-88126777D01*
X187958599Y-88143253D01*
X187938893Y-88157868D01*
X187917850Y-88170480D01*
X187895671Y-88180970D01*
X187872572Y-88189235D01*
X187848773Y-88195196D01*
X187824505Y-88198796D01*
X187800001Y-88200000D01*
X187149999Y-88200000D01*
X187125495Y-88198796D01*
X187101227Y-88195196D01*
X187077428Y-88189235D01*
X187054329Y-88180970D01*
X187032150Y-88170480D01*
X187011107Y-88157868D01*
X186991401Y-88143253D01*
X186973223Y-88126777D01*
X186956747Y-88108599D01*
X186942132Y-88088893D01*
X186929520Y-88067850D01*
X186919030Y-88045671D01*
X186910765Y-88022572D01*
X186904804Y-87998773D01*
X186901204Y-87974505D01*
X186900000Y-87950001D01*
X186900000Y-87049999D01*
X186901204Y-87025495D01*
X186904804Y-87001227D01*
X186910765Y-86977428D01*
X186919030Y-86954329D01*
X186929520Y-86932150D01*
X186942132Y-86911107D01*
X186956747Y-86891401D01*
X186973223Y-86873223D01*
X186991401Y-86856747D01*
X187011107Y-86842132D01*
X187032150Y-86829520D01*
X187054329Y-86819030D01*
X187077428Y-86810765D01*
X187101227Y-86804804D01*
X187125495Y-86801204D01*
X187149999Y-86800000D01*
X187800001Y-86800000D01*
X187824505Y-86801204D01*
X187824505Y-86801204D01*
G37*
D24*
X187475000Y-87500000D03*
D15*
G36*
X189874505Y-86801204D02*
G01*
X189898773Y-86804804D01*
X189922572Y-86810765D01*
X189945671Y-86819030D01*
X189967850Y-86829520D01*
X189988893Y-86842132D01*
X190008599Y-86856747D01*
X190026777Y-86873223D01*
X190043253Y-86891401D01*
X190057868Y-86911107D01*
X190070480Y-86932150D01*
X190080970Y-86954329D01*
X190089235Y-86977428D01*
X190095196Y-87001227D01*
X190098796Y-87025495D01*
X190100000Y-87049999D01*
X190100000Y-87950001D01*
X190098796Y-87974505D01*
X190095196Y-87998773D01*
X190089235Y-88022572D01*
X190080970Y-88045671D01*
X190070480Y-88067850D01*
X190057868Y-88088893D01*
X190043253Y-88108599D01*
X190026777Y-88126777D01*
X190008599Y-88143253D01*
X189988893Y-88157868D01*
X189967850Y-88170480D01*
X189945671Y-88180970D01*
X189922572Y-88189235D01*
X189898773Y-88195196D01*
X189874505Y-88198796D01*
X189850001Y-88200000D01*
X189199999Y-88200000D01*
X189175495Y-88198796D01*
X189151227Y-88195196D01*
X189127428Y-88189235D01*
X189104329Y-88180970D01*
X189082150Y-88170480D01*
X189061107Y-88157868D01*
X189041401Y-88143253D01*
X189023223Y-88126777D01*
X189006747Y-88108599D01*
X188992132Y-88088893D01*
X188979520Y-88067850D01*
X188969030Y-88045671D01*
X188960765Y-88022572D01*
X188954804Y-87998773D01*
X188951204Y-87974505D01*
X188950000Y-87950001D01*
X188950000Y-87049999D01*
X188951204Y-87025495D01*
X188954804Y-87001227D01*
X188960765Y-86977428D01*
X188969030Y-86954329D01*
X188979520Y-86932150D01*
X188992132Y-86911107D01*
X189006747Y-86891401D01*
X189023223Y-86873223D01*
X189041401Y-86856747D01*
X189061107Y-86842132D01*
X189082150Y-86829520D01*
X189104329Y-86819030D01*
X189127428Y-86810765D01*
X189151227Y-86804804D01*
X189175495Y-86801204D01*
X189199999Y-86800000D01*
X189850001Y-86800000D01*
X189874505Y-86801204D01*
X189874505Y-86801204D01*
G37*
D24*
X189525000Y-87500000D03*
D15*
G36*
X152334505Y-106667204D02*
G01*
X152358773Y-106670804D01*
X152382572Y-106676765D01*
X152405671Y-106685030D01*
X152427850Y-106695520D01*
X152448893Y-106708132D01*
X152468599Y-106722747D01*
X152486777Y-106739223D01*
X152503253Y-106757401D01*
X152517868Y-106777107D01*
X152530480Y-106798150D01*
X152540970Y-106820329D01*
X152549235Y-106843428D01*
X152555196Y-106867227D01*
X152558796Y-106891495D01*
X152560000Y-106915999D01*
X152560000Y-107566001D01*
X152558796Y-107590505D01*
X152555196Y-107614773D01*
X152549235Y-107638572D01*
X152540970Y-107661671D01*
X152530480Y-107683850D01*
X152517868Y-107704893D01*
X152503253Y-107724599D01*
X152486777Y-107742777D01*
X152468599Y-107759253D01*
X152448893Y-107773868D01*
X152427850Y-107786480D01*
X152405671Y-107796970D01*
X152382572Y-107805235D01*
X152358773Y-107811196D01*
X152334505Y-107814796D01*
X152310001Y-107816000D01*
X151409999Y-107816000D01*
X151385495Y-107814796D01*
X151361227Y-107811196D01*
X151337428Y-107805235D01*
X151314329Y-107796970D01*
X151292150Y-107786480D01*
X151271107Y-107773868D01*
X151251401Y-107759253D01*
X151233223Y-107742777D01*
X151216747Y-107724599D01*
X151202132Y-107704893D01*
X151189520Y-107683850D01*
X151179030Y-107661671D01*
X151170765Y-107638572D01*
X151164804Y-107614773D01*
X151161204Y-107590505D01*
X151160000Y-107566001D01*
X151160000Y-106915999D01*
X151161204Y-106891495D01*
X151164804Y-106867227D01*
X151170765Y-106843428D01*
X151179030Y-106820329D01*
X151189520Y-106798150D01*
X151202132Y-106777107D01*
X151216747Y-106757401D01*
X151233223Y-106739223D01*
X151251401Y-106722747D01*
X151271107Y-106708132D01*
X151292150Y-106695520D01*
X151314329Y-106685030D01*
X151337428Y-106676765D01*
X151361227Y-106670804D01*
X151385495Y-106667204D01*
X151409999Y-106666000D01*
X152310001Y-106666000D01*
X152334505Y-106667204D01*
X152334505Y-106667204D01*
G37*
D24*
X151860000Y-107241000D03*
D15*
G36*
X152334505Y-108717204D02*
G01*
X152358773Y-108720804D01*
X152382572Y-108726765D01*
X152405671Y-108735030D01*
X152427850Y-108745520D01*
X152448893Y-108758132D01*
X152468599Y-108772747D01*
X152486777Y-108789223D01*
X152503253Y-108807401D01*
X152517868Y-108827107D01*
X152530480Y-108848150D01*
X152540970Y-108870329D01*
X152549235Y-108893428D01*
X152555196Y-108917227D01*
X152558796Y-108941495D01*
X152560000Y-108965999D01*
X152560000Y-109616001D01*
X152558796Y-109640505D01*
X152555196Y-109664773D01*
X152549235Y-109688572D01*
X152540970Y-109711671D01*
X152530480Y-109733850D01*
X152517868Y-109754893D01*
X152503253Y-109774599D01*
X152486777Y-109792777D01*
X152468599Y-109809253D01*
X152448893Y-109823868D01*
X152427850Y-109836480D01*
X152405671Y-109846970D01*
X152382572Y-109855235D01*
X152358773Y-109861196D01*
X152334505Y-109864796D01*
X152310001Y-109866000D01*
X151409999Y-109866000D01*
X151385495Y-109864796D01*
X151361227Y-109861196D01*
X151337428Y-109855235D01*
X151314329Y-109846970D01*
X151292150Y-109836480D01*
X151271107Y-109823868D01*
X151251401Y-109809253D01*
X151233223Y-109792777D01*
X151216747Y-109774599D01*
X151202132Y-109754893D01*
X151189520Y-109733850D01*
X151179030Y-109711671D01*
X151170765Y-109688572D01*
X151164804Y-109664773D01*
X151161204Y-109640505D01*
X151160000Y-109616001D01*
X151160000Y-108965999D01*
X151161204Y-108941495D01*
X151164804Y-108917227D01*
X151170765Y-108893428D01*
X151179030Y-108870329D01*
X151189520Y-108848150D01*
X151202132Y-108827107D01*
X151216747Y-108807401D01*
X151233223Y-108789223D01*
X151251401Y-108772747D01*
X151271107Y-108758132D01*
X151292150Y-108745520D01*
X151314329Y-108735030D01*
X151337428Y-108726765D01*
X151361227Y-108720804D01*
X151385495Y-108717204D01*
X151409999Y-108716000D01*
X152310001Y-108716000D01*
X152334505Y-108717204D01*
X152334505Y-108717204D01*
G37*
D24*
X151860000Y-109291000D03*
D15*
G36*
X152334505Y-113552204D02*
G01*
X152358773Y-113555804D01*
X152382572Y-113561765D01*
X152405671Y-113570030D01*
X152427850Y-113580520D01*
X152448893Y-113593132D01*
X152468599Y-113607747D01*
X152486777Y-113624223D01*
X152503253Y-113642401D01*
X152517868Y-113662107D01*
X152530480Y-113683150D01*
X152540970Y-113705329D01*
X152549235Y-113728428D01*
X152555196Y-113752227D01*
X152558796Y-113776495D01*
X152560000Y-113800999D01*
X152560000Y-114451001D01*
X152558796Y-114475505D01*
X152555196Y-114499773D01*
X152549235Y-114523572D01*
X152540970Y-114546671D01*
X152530480Y-114568850D01*
X152517868Y-114589893D01*
X152503253Y-114609599D01*
X152486777Y-114627777D01*
X152468599Y-114644253D01*
X152448893Y-114658868D01*
X152427850Y-114671480D01*
X152405671Y-114681970D01*
X152382572Y-114690235D01*
X152358773Y-114696196D01*
X152334505Y-114699796D01*
X152310001Y-114701000D01*
X151409999Y-114701000D01*
X151385495Y-114699796D01*
X151361227Y-114696196D01*
X151337428Y-114690235D01*
X151314329Y-114681970D01*
X151292150Y-114671480D01*
X151271107Y-114658868D01*
X151251401Y-114644253D01*
X151233223Y-114627777D01*
X151216747Y-114609599D01*
X151202132Y-114589893D01*
X151189520Y-114568850D01*
X151179030Y-114546671D01*
X151170765Y-114523572D01*
X151164804Y-114499773D01*
X151161204Y-114475505D01*
X151160000Y-114451001D01*
X151160000Y-113800999D01*
X151161204Y-113776495D01*
X151164804Y-113752227D01*
X151170765Y-113728428D01*
X151179030Y-113705329D01*
X151189520Y-113683150D01*
X151202132Y-113662107D01*
X151216747Y-113642401D01*
X151233223Y-113624223D01*
X151251401Y-113607747D01*
X151271107Y-113593132D01*
X151292150Y-113580520D01*
X151314329Y-113570030D01*
X151337428Y-113561765D01*
X151361227Y-113555804D01*
X151385495Y-113552204D01*
X151409999Y-113551000D01*
X152310001Y-113551000D01*
X152334505Y-113552204D01*
X152334505Y-113552204D01*
G37*
D24*
X151860000Y-114126000D03*
D15*
G36*
X152334505Y-111502204D02*
G01*
X152358773Y-111505804D01*
X152382572Y-111511765D01*
X152405671Y-111520030D01*
X152427850Y-111530520D01*
X152448893Y-111543132D01*
X152468599Y-111557747D01*
X152486777Y-111574223D01*
X152503253Y-111592401D01*
X152517868Y-111612107D01*
X152530480Y-111633150D01*
X152540970Y-111655329D01*
X152549235Y-111678428D01*
X152555196Y-111702227D01*
X152558796Y-111726495D01*
X152560000Y-111750999D01*
X152560000Y-112401001D01*
X152558796Y-112425505D01*
X152555196Y-112449773D01*
X152549235Y-112473572D01*
X152540970Y-112496671D01*
X152530480Y-112518850D01*
X152517868Y-112539893D01*
X152503253Y-112559599D01*
X152486777Y-112577777D01*
X152468599Y-112594253D01*
X152448893Y-112608868D01*
X152427850Y-112621480D01*
X152405671Y-112631970D01*
X152382572Y-112640235D01*
X152358773Y-112646196D01*
X152334505Y-112649796D01*
X152310001Y-112651000D01*
X151409999Y-112651000D01*
X151385495Y-112649796D01*
X151361227Y-112646196D01*
X151337428Y-112640235D01*
X151314329Y-112631970D01*
X151292150Y-112621480D01*
X151271107Y-112608868D01*
X151251401Y-112594253D01*
X151233223Y-112577777D01*
X151216747Y-112559599D01*
X151202132Y-112539893D01*
X151189520Y-112518850D01*
X151179030Y-112496671D01*
X151170765Y-112473572D01*
X151164804Y-112449773D01*
X151161204Y-112425505D01*
X151160000Y-112401001D01*
X151160000Y-111750999D01*
X151161204Y-111726495D01*
X151164804Y-111702227D01*
X151170765Y-111678428D01*
X151179030Y-111655329D01*
X151189520Y-111633150D01*
X151202132Y-111612107D01*
X151216747Y-111592401D01*
X151233223Y-111574223D01*
X151251401Y-111557747D01*
X151271107Y-111543132D01*
X151292150Y-111530520D01*
X151314329Y-111520030D01*
X151337428Y-111511765D01*
X151361227Y-111505804D01*
X151385495Y-111502204D01*
X151409999Y-111501000D01*
X152310001Y-111501000D01*
X152334505Y-111502204D01*
X152334505Y-111502204D01*
G37*
D24*
X151860000Y-112076000D03*
D15*
G36*
X183724505Y-66901204D02*
G01*
X183748773Y-66904804D01*
X183772572Y-66910765D01*
X183795671Y-66919030D01*
X183817850Y-66929520D01*
X183838893Y-66942132D01*
X183858599Y-66956747D01*
X183876777Y-66973223D01*
X183893253Y-66991401D01*
X183907868Y-67011107D01*
X183920480Y-67032150D01*
X183930970Y-67054329D01*
X183939235Y-67077428D01*
X183945196Y-67101227D01*
X183948796Y-67125495D01*
X183950000Y-67149999D01*
X183950000Y-67800001D01*
X183948796Y-67824505D01*
X183945196Y-67848773D01*
X183939235Y-67872572D01*
X183930970Y-67895671D01*
X183920480Y-67917850D01*
X183907868Y-67938893D01*
X183893253Y-67958599D01*
X183876777Y-67976777D01*
X183858599Y-67993253D01*
X183838893Y-68007868D01*
X183817850Y-68020480D01*
X183795671Y-68030970D01*
X183772572Y-68039235D01*
X183748773Y-68045196D01*
X183724505Y-68048796D01*
X183700001Y-68050000D01*
X182799999Y-68050000D01*
X182775495Y-68048796D01*
X182751227Y-68045196D01*
X182727428Y-68039235D01*
X182704329Y-68030970D01*
X182682150Y-68020480D01*
X182661107Y-68007868D01*
X182641401Y-67993253D01*
X182623223Y-67976777D01*
X182606747Y-67958599D01*
X182592132Y-67938893D01*
X182579520Y-67917850D01*
X182569030Y-67895671D01*
X182560765Y-67872572D01*
X182554804Y-67848773D01*
X182551204Y-67824505D01*
X182550000Y-67800001D01*
X182550000Y-67149999D01*
X182551204Y-67125495D01*
X182554804Y-67101227D01*
X182560765Y-67077428D01*
X182569030Y-67054329D01*
X182579520Y-67032150D01*
X182592132Y-67011107D01*
X182606747Y-66991401D01*
X182623223Y-66973223D01*
X182641401Y-66956747D01*
X182661107Y-66942132D01*
X182682150Y-66929520D01*
X182704329Y-66919030D01*
X182727428Y-66910765D01*
X182751227Y-66904804D01*
X182775495Y-66901204D01*
X182799999Y-66900000D01*
X183700001Y-66900000D01*
X183724505Y-66901204D01*
X183724505Y-66901204D01*
G37*
D24*
X183250000Y-67475000D03*
D15*
G36*
X183724505Y-68951204D02*
G01*
X183748773Y-68954804D01*
X183772572Y-68960765D01*
X183795671Y-68969030D01*
X183817850Y-68979520D01*
X183838893Y-68992132D01*
X183858599Y-69006747D01*
X183876777Y-69023223D01*
X183893253Y-69041401D01*
X183907868Y-69061107D01*
X183920480Y-69082150D01*
X183930970Y-69104329D01*
X183939235Y-69127428D01*
X183945196Y-69151227D01*
X183948796Y-69175495D01*
X183950000Y-69199999D01*
X183950000Y-69850001D01*
X183948796Y-69874505D01*
X183945196Y-69898773D01*
X183939235Y-69922572D01*
X183930970Y-69945671D01*
X183920480Y-69967850D01*
X183907868Y-69988893D01*
X183893253Y-70008599D01*
X183876777Y-70026777D01*
X183858599Y-70043253D01*
X183838893Y-70057868D01*
X183817850Y-70070480D01*
X183795671Y-70080970D01*
X183772572Y-70089235D01*
X183748773Y-70095196D01*
X183724505Y-70098796D01*
X183700001Y-70100000D01*
X182799999Y-70100000D01*
X182775495Y-70098796D01*
X182751227Y-70095196D01*
X182727428Y-70089235D01*
X182704329Y-70080970D01*
X182682150Y-70070480D01*
X182661107Y-70057868D01*
X182641401Y-70043253D01*
X182623223Y-70026777D01*
X182606747Y-70008599D01*
X182592132Y-69988893D01*
X182579520Y-69967850D01*
X182569030Y-69945671D01*
X182560765Y-69922572D01*
X182554804Y-69898773D01*
X182551204Y-69874505D01*
X182550000Y-69850001D01*
X182550000Y-69199999D01*
X182551204Y-69175495D01*
X182554804Y-69151227D01*
X182560765Y-69127428D01*
X182569030Y-69104329D01*
X182579520Y-69082150D01*
X182592132Y-69061107D01*
X182606747Y-69041401D01*
X182623223Y-69023223D01*
X182641401Y-69006747D01*
X182661107Y-68992132D01*
X182682150Y-68979520D01*
X182704329Y-68969030D01*
X182727428Y-68960765D01*
X182751227Y-68954804D01*
X182775495Y-68951204D01*
X182799999Y-68950000D01*
X183700001Y-68950000D01*
X183724505Y-68951204D01*
X183724505Y-68951204D01*
G37*
D24*
X183250000Y-69525000D03*
D15*
G36*
X173474505Y-61401204D02*
G01*
X173498773Y-61404804D01*
X173522572Y-61410765D01*
X173545671Y-61419030D01*
X173567850Y-61429520D01*
X173588893Y-61442132D01*
X173608599Y-61456747D01*
X173626777Y-61473223D01*
X173643253Y-61491401D01*
X173657868Y-61511107D01*
X173670480Y-61532150D01*
X173680970Y-61554329D01*
X173689235Y-61577428D01*
X173695196Y-61601227D01*
X173698796Y-61625495D01*
X173700000Y-61649999D01*
X173700000Y-62300001D01*
X173698796Y-62324505D01*
X173695196Y-62348773D01*
X173689235Y-62372572D01*
X173680970Y-62395671D01*
X173670480Y-62417850D01*
X173657868Y-62438893D01*
X173643253Y-62458599D01*
X173626777Y-62476777D01*
X173608599Y-62493253D01*
X173588893Y-62507868D01*
X173567850Y-62520480D01*
X173545671Y-62530970D01*
X173522572Y-62539235D01*
X173498773Y-62545196D01*
X173474505Y-62548796D01*
X173450001Y-62550000D01*
X172549999Y-62550000D01*
X172525495Y-62548796D01*
X172501227Y-62545196D01*
X172477428Y-62539235D01*
X172454329Y-62530970D01*
X172432150Y-62520480D01*
X172411107Y-62507868D01*
X172391401Y-62493253D01*
X172373223Y-62476777D01*
X172356747Y-62458599D01*
X172342132Y-62438893D01*
X172329520Y-62417850D01*
X172319030Y-62395671D01*
X172310765Y-62372572D01*
X172304804Y-62348773D01*
X172301204Y-62324505D01*
X172300000Y-62300001D01*
X172300000Y-61649999D01*
X172301204Y-61625495D01*
X172304804Y-61601227D01*
X172310765Y-61577428D01*
X172319030Y-61554329D01*
X172329520Y-61532150D01*
X172342132Y-61511107D01*
X172356747Y-61491401D01*
X172373223Y-61473223D01*
X172391401Y-61456747D01*
X172411107Y-61442132D01*
X172432150Y-61429520D01*
X172454329Y-61419030D01*
X172477428Y-61410765D01*
X172501227Y-61404804D01*
X172525495Y-61401204D01*
X172549999Y-61400000D01*
X173450001Y-61400000D01*
X173474505Y-61401204D01*
X173474505Y-61401204D01*
G37*
D24*
X173000000Y-61975000D03*
D15*
G36*
X173474505Y-63451204D02*
G01*
X173498773Y-63454804D01*
X173522572Y-63460765D01*
X173545671Y-63469030D01*
X173567850Y-63479520D01*
X173588893Y-63492132D01*
X173608599Y-63506747D01*
X173626777Y-63523223D01*
X173643253Y-63541401D01*
X173657868Y-63561107D01*
X173670480Y-63582150D01*
X173680970Y-63604329D01*
X173689235Y-63627428D01*
X173695196Y-63651227D01*
X173698796Y-63675495D01*
X173700000Y-63699999D01*
X173700000Y-64350001D01*
X173698796Y-64374505D01*
X173695196Y-64398773D01*
X173689235Y-64422572D01*
X173680970Y-64445671D01*
X173670480Y-64467850D01*
X173657868Y-64488893D01*
X173643253Y-64508599D01*
X173626777Y-64526777D01*
X173608599Y-64543253D01*
X173588893Y-64557868D01*
X173567850Y-64570480D01*
X173545671Y-64580970D01*
X173522572Y-64589235D01*
X173498773Y-64595196D01*
X173474505Y-64598796D01*
X173450001Y-64600000D01*
X172549999Y-64600000D01*
X172525495Y-64598796D01*
X172501227Y-64595196D01*
X172477428Y-64589235D01*
X172454329Y-64580970D01*
X172432150Y-64570480D01*
X172411107Y-64557868D01*
X172391401Y-64543253D01*
X172373223Y-64526777D01*
X172356747Y-64508599D01*
X172342132Y-64488893D01*
X172329520Y-64467850D01*
X172319030Y-64445671D01*
X172310765Y-64422572D01*
X172304804Y-64398773D01*
X172301204Y-64374505D01*
X172300000Y-64350001D01*
X172300000Y-63699999D01*
X172301204Y-63675495D01*
X172304804Y-63651227D01*
X172310765Y-63627428D01*
X172319030Y-63604329D01*
X172329520Y-63582150D01*
X172342132Y-63561107D01*
X172356747Y-63541401D01*
X172373223Y-63523223D01*
X172391401Y-63506747D01*
X172411107Y-63492132D01*
X172432150Y-63479520D01*
X172454329Y-63469030D01*
X172477428Y-63460765D01*
X172501227Y-63454804D01*
X172525495Y-63451204D01*
X172549999Y-63450000D01*
X173450001Y-63450000D01*
X173474505Y-63451204D01*
X173474505Y-63451204D01*
G37*
D24*
X173000000Y-64025000D03*
D15*
G36*
X126974505Y-52201204D02*
G01*
X126998773Y-52204804D01*
X127022572Y-52210765D01*
X127045671Y-52219030D01*
X127067850Y-52229520D01*
X127088893Y-52242132D01*
X127108599Y-52256747D01*
X127126777Y-52273223D01*
X127143253Y-52291401D01*
X127157868Y-52311107D01*
X127170480Y-52332150D01*
X127180970Y-52354329D01*
X127189235Y-52377428D01*
X127195196Y-52401227D01*
X127198796Y-52425495D01*
X127200000Y-52449999D01*
X127200000Y-53100001D01*
X127198796Y-53124505D01*
X127195196Y-53148773D01*
X127189235Y-53172572D01*
X127180970Y-53195671D01*
X127170480Y-53217850D01*
X127157868Y-53238893D01*
X127143253Y-53258599D01*
X127126777Y-53276777D01*
X127108599Y-53293253D01*
X127088893Y-53307868D01*
X127067850Y-53320480D01*
X127045671Y-53330970D01*
X127022572Y-53339235D01*
X126998773Y-53345196D01*
X126974505Y-53348796D01*
X126950001Y-53350000D01*
X126049999Y-53350000D01*
X126025495Y-53348796D01*
X126001227Y-53345196D01*
X125977428Y-53339235D01*
X125954329Y-53330970D01*
X125932150Y-53320480D01*
X125911107Y-53307868D01*
X125891401Y-53293253D01*
X125873223Y-53276777D01*
X125856747Y-53258599D01*
X125842132Y-53238893D01*
X125829520Y-53217850D01*
X125819030Y-53195671D01*
X125810765Y-53172572D01*
X125804804Y-53148773D01*
X125801204Y-53124505D01*
X125800000Y-53100001D01*
X125800000Y-52449999D01*
X125801204Y-52425495D01*
X125804804Y-52401227D01*
X125810765Y-52377428D01*
X125819030Y-52354329D01*
X125829520Y-52332150D01*
X125842132Y-52311107D01*
X125856747Y-52291401D01*
X125873223Y-52273223D01*
X125891401Y-52256747D01*
X125911107Y-52242132D01*
X125932150Y-52229520D01*
X125954329Y-52219030D01*
X125977428Y-52210765D01*
X126001227Y-52204804D01*
X126025495Y-52201204D01*
X126049999Y-52200000D01*
X126950001Y-52200000D01*
X126974505Y-52201204D01*
X126974505Y-52201204D01*
G37*
D24*
X126500000Y-52775000D03*
D15*
G36*
X126974505Y-50151204D02*
G01*
X126998773Y-50154804D01*
X127022572Y-50160765D01*
X127045671Y-50169030D01*
X127067850Y-50179520D01*
X127088893Y-50192132D01*
X127108599Y-50206747D01*
X127126777Y-50223223D01*
X127143253Y-50241401D01*
X127157868Y-50261107D01*
X127170480Y-50282150D01*
X127180970Y-50304329D01*
X127189235Y-50327428D01*
X127195196Y-50351227D01*
X127198796Y-50375495D01*
X127200000Y-50399999D01*
X127200000Y-51050001D01*
X127198796Y-51074505D01*
X127195196Y-51098773D01*
X127189235Y-51122572D01*
X127180970Y-51145671D01*
X127170480Y-51167850D01*
X127157868Y-51188893D01*
X127143253Y-51208599D01*
X127126777Y-51226777D01*
X127108599Y-51243253D01*
X127088893Y-51257868D01*
X127067850Y-51270480D01*
X127045671Y-51280970D01*
X127022572Y-51289235D01*
X126998773Y-51295196D01*
X126974505Y-51298796D01*
X126950001Y-51300000D01*
X126049999Y-51300000D01*
X126025495Y-51298796D01*
X126001227Y-51295196D01*
X125977428Y-51289235D01*
X125954329Y-51280970D01*
X125932150Y-51270480D01*
X125911107Y-51257868D01*
X125891401Y-51243253D01*
X125873223Y-51226777D01*
X125856747Y-51208599D01*
X125842132Y-51188893D01*
X125829520Y-51167850D01*
X125819030Y-51145671D01*
X125810765Y-51122572D01*
X125804804Y-51098773D01*
X125801204Y-51074505D01*
X125800000Y-51050001D01*
X125800000Y-50399999D01*
X125801204Y-50375495D01*
X125804804Y-50351227D01*
X125810765Y-50327428D01*
X125819030Y-50304329D01*
X125829520Y-50282150D01*
X125842132Y-50261107D01*
X125856747Y-50241401D01*
X125873223Y-50223223D01*
X125891401Y-50206747D01*
X125911107Y-50192132D01*
X125932150Y-50179520D01*
X125954329Y-50169030D01*
X125977428Y-50160765D01*
X126001227Y-50154804D01*
X126025495Y-50151204D01*
X126049999Y-50150000D01*
X126950001Y-50150000D01*
X126974505Y-50151204D01*
X126974505Y-50151204D01*
G37*
D24*
X126500000Y-50725000D03*
D15*
G36*
X126974505Y-115701204D02*
G01*
X126998773Y-115704804D01*
X127022572Y-115710765D01*
X127045671Y-115719030D01*
X127067850Y-115729520D01*
X127088893Y-115742132D01*
X127108599Y-115756747D01*
X127126777Y-115773223D01*
X127143253Y-115791401D01*
X127157868Y-115811107D01*
X127170480Y-115832150D01*
X127180970Y-115854329D01*
X127189235Y-115877428D01*
X127195196Y-115901227D01*
X127198796Y-115925495D01*
X127200000Y-115949999D01*
X127200000Y-116600001D01*
X127198796Y-116624505D01*
X127195196Y-116648773D01*
X127189235Y-116672572D01*
X127180970Y-116695671D01*
X127170480Y-116717850D01*
X127157868Y-116738893D01*
X127143253Y-116758599D01*
X127126777Y-116776777D01*
X127108599Y-116793253D01*
X127088893Y-116807868D01*
X127067850Y-116820480D01*
X127045671Y-116830970D01*
X127022572Y-116839235D01*
X126998773Y-116845196D01*
X126974505Y-116848796D01*
X126950001Y-116850000D01*
X126049999Y-116850000D01*
X126025495Y-116848796D01*
X126001227Y-116845196D01*
X125977428Y-116839235D01*
X125954329Y-116830970D01*
X125932150Y-116820480D01*
X125911107Y-116807868D01*
X125891401Y-116793253D01*
X125873223Y-116776777D01*
X125856747Y-116758599D01*
X125842132Y-116738893D01*
X125829520Y-116717850D01*
X125819030Y-116695671D01*
X125810765Y-116672572D01*
X125804804Y-116648773D01*
X125801204Y-116624505D01*
X125800000Y-116600001D01*
X125800000Y-115949999D01*
X125801204Y-115925495D01*
X125804804Y-115901227D01*
X125810765Y-115877428D01*
X125819030Y-115854329D01*
X125829520Y-115832150D01*
X125842132Y-115811107D01*
X125856747Y-115791401D01*
X125873223Y-115773223D01*
X125891401Y-115756747D01*
X125911107Y-115742132D01*
X125932150Y-115729520D01*
X125954329Y-115719030D01*
X125977428Y-115710765D01*
X126001227Y-115704804D01*
X126025495Y-115701204D01*
X126049999Y-115700000D01*
X126950001Y-115700000D01*
X126974505Y-115701204D01*
X126974505Y-115701204D01*
G37*
D24*
X126500000Y-116275000D03*
D15*
G36*
X126974505Y-113651204D02*
G01*
X126998773Y-113654804D01*
X127022572Y-113660765D01*
X127045671Y-113669030D01*
X127067850Y-113679520D01*
X127088893Y-113692132D01*
X127108599Y-113706747D01*
X127126777Y-113723223D01*
X127143253Y-113741401D01*
X127157868Y-113761107D01*
X127170480Y-113782150D01*
X127180970Y-113804329D01*
X127189235Y-113827428D01*
X127195196Y-113851227D01*
X127198796Y-113875495D01*
X127200000Y-113899999D01*
X127200000Y-114550001D01*
X127198796Y-114574505D01*
X127195196Y-114598773D01*
X127189235Y-114622572D01*
X127180970Y-114645671D01*
X127170480Y-114667850D01*
X127157868Y-114688893D01*
X127143253Y-114708599D01*
X127126777Y-114726777D01*
X127108599Y-114743253D01*
X127088893Y-114757868D01*
X127067850Y-114770480D01*
X127045671Y-114780970D01*
X127022572Y-114789235D01*
X126998773Y-114795196D01*
X126974505Y-114798796D01*
X126950001Y-114800000D01*
X126049999Y-114800000D01*
X126025495Y-114798796D01*
X126001227Y-114795196D01*
X125977428Y-114789235D01*
X125954329Y-114780970D01*
X125932150Y-114770480D01*
X125911107Y-114757868D01*
X125891401Y-114743253D01*
X125873223Y-114726777D01*
X125856747Y-114708599D01*
X125842132Y-114688893D01*
X125829520Y-114667850D01*
X125819030Y-114645671D01*
X125810765Y-114622572D01*
X125804804Y-114598773D01*
X125801204Y-114574505D01*
X125800000Y-114550001D01*
X125800000Y-113899999D01*
X125801204Y-113875495D01*
X125804804Y-113851227D01*
X125810765Y-113827428D01*
X125819030Y-113804329D01*
X125829520Y-113782150D01*
X125842132Y-113761107D01*
X125856747Y-113741401D01*
X125873223Y-113723223D01*
X125891401Y-113706747D01*
X125911107Y-113692132D01*
X125932150Y-113679520D01*
X125954329Y-113669030D01*
X125977428Y-113660765D01*
X126001227Y-113654804D01*
X126025495Y-113651204D01*
X126049999Y-113650000D01*
X126950001Y-113650000D01*
X126974505Y-113651204D01*
X126974505Y-113651204D01*
G37*
D24*
X126500000Y-114225000D03*
D15*
G36*
X121624505Y-108301204D02*
G01*
X121648773Y-108304804D01*
X121672572Y-108310765D01*
X121695671Y-108319030D01*
X121717850Y-108329520D01*
X121738893Y-108342132D01*
X121758599Y-108356747D01*
X121776777Y-108373223D01*
X121793253Y-108391401D01*
X121807868Y-108411107D01*
X121820480Y-108432150D01*
X121830970Y-108454329D01*
X121839235Y-108477428D01*
X121845196Y-108501227D01*
X121848796Y-108525495D01*
X121850000Y-108549999D01*
X121850000Y-109450001D01*
X121848796Y-109474505D01*
X121845196Y-109498773D01*
X121839235Y-109522572D01*
X121830970Y-109545671D01*
X121820480Y-109567850D01*
X121807868Y-109588893D01*
X121793253Y-109608599D01*
X121776777Y-109626777D01*
X121758599Y-109643253D01*
X121738893Y-109657868D01*
X121717850Y-109670480D01*
X121695671Y-109680970D01*
X121672572Y-109689235D01*
X121648773Y-109695196D01*
X121624505Y-109698796D01*
X121600001Y-109700000D01*
X120949999Y-109700000D01*
X120925495Y-109698796D01*
X120901227Y-109695196D01*
X120877428Y-109689235D01*
X120854329Y-109680970D01*
X120832150Y-109670480D01*
X120811107Y-109657868D01*
X120791401Y-109643253D01*
X120773223Y-109626777D01*
X120756747Y-109608599D01*
X120742132Y-109588893D01*
X120729520Y-109567850D01*
X120719030Y-109545671D01*
X120710765Y-109522572D01*
X120704804Y-109498773D01*
X120701204Y-109474505D01*
X120700000Y-109450001D01*
X120700000Y-108549999D01*
X120701204Y-108525495D01*
X120704804Y-108501227D01*
X120710765Y-108477428D01*
X120719030Y-108454329D01*
X120729520Y-108432150D01*
X120742132Y-108411107D01*
X120756747Y-108391401D01*
X120773223Y-108373223D01*
X120791401Y-108356747D01*
X120811107Y-108342132D01*
X120832150Y-108329520D01*
X120854329Y-108319030D01*
X120877428Y-108310765D01*
X120901227Y-108304804D01*
X120925495Y-108301204D01*
X120949999Y-108300000D01*
X121600001Y-108300000D01*
X121624505Y-108301204D01*
X121624505Y-108301204D01*
G37*
D24*
X121275000Y-109000000D03*
D15*
G36*
X119574505Y-108301204D02*
G01*
X119598773Y-108304804D01*
X119622572Y-108310765D01*
X119645671Y-108319030D01*
X119667850Y-108329520D01*
X119688893Y-108342132D01*
X119708599Y-108356747D01*
X119726777Y-108373223D01*
X119743253Y-108391401D01*
X119757868Y-108411107D01*
X119770480Y-108432150D01*
X119780970Y-108454329D01*
X119789235Y-108477428D01*
X119795196Y-108501227D01*
X119798796Y-108525495D01*
X119800000Y-108549999D01*
X119800000Y-109450001D01*
X119798796Y-109474505D01*
X119795196Y-109498773D01*
X119789235Y-109522572D01*
X119780970Y-109545671D01*
X119770480Y-109567850D01*
X119757868Y-109588893D01*
X119743253Y-109608599D01*
X119726777Y-109626777D01*
X119708599Y-109643253D01*
X119688893Y-109657868D01*
X119667850Y-109670480D01*
X119645671Y-109680970D01*
X119622572Y-109689235D01*
X119598773Y-109695196D01*
X119574505Y-109698796D01*
X119550001Y-109700000D01*
X118899999Y-109700000D01*
X118875495Y-109698796D01*
X118851227Y-109695196D01*
X118827428Y-109689235D01*
X118804329Y-109680970D01*
X118782150Y-109670480D01*
X118761107Y-109657868D01*
X118741401Y-109643253D01*
X118723223Y-109626777D01*
X118706747Y-109608599D01*
X118692132Y-109588893D01*
X118679520Y-109567850D01*
X118669030Y-109545671D01*
X118660765Y-109522572D01*
X118654804Y-109498773D01*
X118651204Y-109474505D01*
X118650000Y-109450001D01*
X118650000Y-108549999D01*
X118651204Y-108525495D01*
X118654804Y-108501227D01*
X118660765Y-108477428D01*
X118669030Y-108454329D01*
X118679520Y-108432150D01*
X118692132Y-108411107D01*
X118706747Y-108391401D01*
X118723223Y-108373223D01*
X118741401Y-108356747D01*
X118761107Y-108342132D01*
X118782150Y-108329520D01*
X118804329Y-108319030D01*
X118827428Y-108310765D01*
X118851227Y-108304804D01*
X118875495Y-108301204D01*
X118899999Y-108300000D01*
X119550001Y-108300000D01*
X119574505Y-108301204D01*
X119574505Y-108301204D01*
G37*
D24*
X119225000Y-109000000D03*
D15*
G36*
X114974505Y-120201204D02*
G01*
X114998773Y-120204804D01*
X115022572Y-120210765D01*
X115045671Y-120219030D01*
X115067850Y-120229520D01*
X115088893Y-120242132D01*
X115108599Y-120256747D01*
X115126777Y-120273223D01*
X115143253Y-120291401D01*
X115157868Y-120311107D01*
X115170480Y-120332150D01*
X115180970Y-120354329D01*
X115189235Y-120377428D01*
X115195196Y-120401227D01*
X115198796Y-120425495D01*
X115200000Y-120449999D01*
X115200000Y-121100001D01*
X115198796Y-121124505D01*
X115195196Y-121148773D01*
X115189235Y-121172572D01*
X115180970Y-121195671D01*
X115170480Y-121217850D01*
X115157868Y-121238893D01*
X115143253Y-121258599D01*
X115126777Y-121276777D01*
X115108599Y-121293253D01*
X115088893Y-121307868D01*
X115067850Y-121320480D01*
X115045671Y-121330970D01*
X115022572Y-121339235D01*
X114998773Y-121345196D01*
X114974505Y-121348796D01*
X114950001Y-121350000D01*
X114049999Y-121350000D01*
X114025495Y-121348796D01*
X114001227Y-121345196D01*
X113977428Y-121339235D01*
X113954329Y-121330970D01*
X113932150Y-121320480D01*
X113911107Y-121307868D01*
X113891401Y-121293253D01*
X113873223Y-121276777D01*
X113856747Y-121258599D01*
X113842132Y-121238893D01*
X113829520Y-121217850D01*
X113819030Y-121195671D01*
X113810765Y-121172572D01*
X113804804Y-121148773D01*
X113801204Y-121124505D01*
X113800000Y-121100001D01*
X113800000Y-120449999D01*
X113801204Y-120425495D01*
X113804804Y-120401227D01*
X113810765Y-120377428D01*
X113819030Y-120354329D01*
X113829520Y-120332150D01*
X113842132Y-120311107D01*
X113856747Y-120291401D01*
X113873223Y-120273223D01*
X113891401Y-120256747D01*
X113911107Y-120242132D01*
X113932150Y-120229520D01*
X113954329Y-120219030D01*
X113977428Y-120210765D01*
X114001227Y-120204804D01*
X114025495Y-120201204D01*
X114049999Y-120200000D01*
X114950001Y-120200000D01*
X114974505Y-120201204D01*
X114974505Y-120201204D01*
G37*
D24*
X114500000Y-120775000D03*
D15*
G36*
X114974505Y-118151204D02*
G01*
X114998773Y-118154804D01*
X115022572Y-118160765D01*
X115045671Y-118169030D01*
X115067850Y-118179520D01*
X115088893Y-118192132D01*
X115108599Y-118206747D01*
X115126777Y-118223223D01*
X115143253Y-118241401D01*
X115157868Y-118261107D01*
X115170480Y-118282150D01*
X115180970Y-118304329D01*
X115189235Y-118327428D01*
X115195196Y-118351227D01*
X115198796Y-118375495D01*
X115200000Y-118399999D01*
X115200000Y-119050001D01*
X115198796Y-119074505D01*
X115195196Y-119098773D01*
X115189235Y-119122572D01*
X115180970Y-119145671D01*
X115170480Y-119167850D01*
X115157868Y-119188893D01*
X115143253Y-119208599D01*
X115126777Y-119226777D01*
X115108599Y-119243253D01*
X115088893Y-119257868D01*
X115067850Y-119270480D01*
X115045671Y-119280970D01*
X115022572Y-119289235D01*
X114998773Y-119295196D01*
X114974505Y-119298796D01*
X114950001Y-119300000D01*
X114049999Y-119300000D01*
X114025495Y-119298796D01*
X114001227Y-119295196D01*
X113977428Y-119289235D01*
X113954329Y-119280970D01*
X113932150Y-119270480D01*
X113911107Y-119257868D01*
X113891401Y-119243253D01*
X113873223Y-119226777D01*
X113856747Y-119208599D01*
X113842132Y-119188893D01*
X113829520Y-119167850D01*
X113819030Y-119145671D01*
X113810765Y-119122572D01*
X113804804Y-119098773D01*
X113801204Y-119074505D01*
X113800000Y-119050001D01*
X113800000Y-118399999D01*
X113801204Y-118375495D01*
X113804804Y-118351227D01*
X113810765Y-118327428D01*
X113819030Y-118304329D01*
X113829520Y-118282150D01*
X113842132Y-118261107D01*
X113856747Y-118241401D01*
X113873223Y-118223223D01*
X113891401Y-118206747D01*
X113911107Y-118192132D01*
X113932150Y-118179520D01*
X113954329Y-118169030D01*
X113977428Y-118160765D01*
X114001227Y-118154804D01*
X114025495Y-118151204D01*
X114049999Y-118150000D01*
X114950001Y-118150000D01*
X114974505Y-118151204D01*
X114974505Y-118151204D01*
G37*
D24*
X114500000Y-118725000D03*
D15*
G36*
X146974505Y-95901204D02*
G01*
X146998773Y-95904804D01*
X147022572Y-95910765D01*
X147045671Y-95919030D01*
X147067850Y-95929520D01*
X147088893Y-95942132D01*
X147108599Y-95956747D01*
X147126777Y-95973223D01*
X147143253Y-95991401D01*
X147157868Y-96011107D01*
X147170480Y-96032150D01*
X147180970Y-96054329D01*
X147189235Y-96077428D01*
X147195196Y-96101227D01*
X147198796Y-96125495D01*
X147200000Y-96149999D01*
X147200000Y-96800001D01*
X147198796Y-96824505D01*
X147195196Y-96848773D01*
X147189235Y-96872572D01*
X147180970Y-96895671D01*
X147170480Y-96917850D01*
X147157868Y-96938893D01*
X147143253Y-96958599D01*
X147126777Y-96976777D01*
X147108599Y-96993253D01*
X147088893Y-97007868D01*
X147067850Y-97020480D01*
X147045671Y-97030970D01*
X147022572Y-97039235D01*
X146998773Y-97045196D01*
X146974505Y-97048796D01*
X146950001Y-97050000D01*
X146049999Y-97050000D01*
X146025495Y-97048796D01*
X146001227Y-97045196D01*
X145977428Y-97039235D01*
X145954329Y-97030970D01*
X145932150Y-97020480D01*
X145911107Y-97007868D01*
X145891401Y-96993253D01*
X145873223Y-96976777D01*
X145856747Y-96958599D01*
X145842132Y-96938893D01*
X145829520Y-96917850D01*
X145819030Y-96895671D01*
X145810765Y-96872572D01*
X145804804Y-96848773D01*
X145801204Y-96824505D01*
X145800000Y-96800001D01*
X145800000Y-96149999D01*
X145801204Y-96125495D01*
X145804804Y-96101227D01*
X145810765Y-96077428D01*
X145819030Y-96054329D01*
X145829520Y-96032150D01*
X145842132Y-96011107D01*
X145856747Y-95991401D01*
X145873223Y-95973223D01*
X145891401Y-95956747D01*
X145911107Y-95942132D01*
X145932150Y-95929520D01*
X145954329Y-95919030D01*
X145977428Y-95910765D01*
X146001227Y-95904804D01*
X146025495Y-95901204D01*
X146049999Y-95900000D01*
X146950001Y-95900000D01*
X146974505Y-95901204D01*
X146974505Y-95901204D01*
G37*
D24*
X146500000Y-96475000D03*
D15*
G36*
X146974505Y-97951204D02*
G01*
X146998773Y-97954804D01*
X147022572Y-97960765D01*
X147045671Y-97969030D01*
X147067850Y-97979520D01*
X147088893Y-97992132D01*
X147108599Y-98006747D01*
X147126777Y-98023223D01*
X147143253Y-98041401D01*
X147157868Y-98061107D01*
X147170480Y-98082150D01*
X147180970Y-98104329D01*
X147189235Y-98127428D01*
X147195196Y-98151227D01*
X147198796Y-98175495D01*
X147200000Y-98199999D01*
X147200000Y-98850001D01*
X147198796Y-98874505D01*
X147195196Y-98898773D01*
X147189235Y-98922572D01*
X147180970Y-98945671D01*
X147170480Y-98967850D01*
X147157868Y-98988893D01*
X147143253Y-99008599D01*
X147126777Y-99026777D01*
X147108599Y-99043253D01*
X147088893Y-99057868D01*
X147067850Y-99070480D01*
X147045671Y-99080970D01*
X147022572Y-99089235D01*
X146998773Y-99095196D01*
X146974505Y-99098796D01*
X146950001Y-99100000D01*
X146049999Y-99100000D01*
X146025495Y-99098796D01*
X146001227Y-99095196D01*
X145977428Y-99089235D01*
X145954329Y-99080970D01*
X145932150Y-99070480D01*
X145911107Y-99057868D01*
X145891401Y-99043253D01*
X145873223Y-99026777D01*
X145856747Y-99008599D01*
X145842132Y-98988893D01*
X145829520Y-98967850D01*
X145819030Y-98945671D01*
X145810765Y-98922572D01*
X145804804Y-98898773D01*
X145801204Y-98874505D01*
X145800000Y-98850001D01*
X145800000Y-98199999D01*
X145801204Y-98175495D01*
X145804804Y-98151227D01*
X145810765Y-98127428D01*
X145819030Y-98104329D01*
X145829520Y-98082150D01*
X145842132Y-98061107D01*
X145856747Y-98041401D01*
X145873223Y-98023223D01*
X145891401Y-98006747D01*
X145911107Y-97992132D01*
X145932150Y-97979520D01*
X145954329Y-97969030D01*
X145977428Y-97960765D01*
X146001227Y-97954804D01*
X146025495Y-97951204D01*
X146049999Y-97950000D01*
X146950001Y-97950000D01*
X146974505Y-97951204D01*
X146974505Y-97951204D01*
G37*
D24*
X146500000Y-98525000D03*
D25*
X151860000Y-116500000D03*
X146500000Y-94250000D03*
X126500000Y-118500000D03*
X114500000Y-123000000D03*
X126500000Y-55250000D03*
X121275000Y-106500000D03*
X127000000Y-98500000D03*
X173092501Y-59907499D03*
X185500000Y-85500000D03*
X188250000Y-56600000D03*
X187475000Y-89500000D03*
D26*
X122444999Y-113491001D02*
X121695000Y-114241000D01*
X123270001Y-112665999D02*
X122444999Y-113491001D01*
X123270001Y-52316001D02*
X123270001Y-112665999D01*
X121695000Y-50741000D02*
X123270001Y-52316001D01*
X126484000Y-50741000D02*
X126500000Y-50725000D01*
X121695000Y-50741000D02*
X126484000Y-50741000D01*
X124940999Y-112665999D02*
X126500000Y-114225000D01*
X123270001Y-112665999D02*
X124940999Y-112665999D01*
X173150000Y-49670000D02*
X175500000Y-49670000D01*
X172645999Y-49165999D02*
X173150000Y-49670000D01*
X128059001Y-49165999D02*
X172645999Y-49165999D01*
X126500000Y-50725000D02*
X128059001Y-49165999D01*
D27*
X151860000Y-114126000D02*
X151860000Y-116500000D01*
X126500000Y-116275000D02*
X126500000Y-118500000D01*
X114500000Y-120775000D02*
X114500000Y-123000000D01*
X121275000Y-106500000D02*
X121275000Y-109000000D01*
X126500000Y-52775000D02*
X126500000Y-55250000D01*
X146500000Y-94250000D02*
X146500000Y-96475000D01*
X121755000Y-137101000D02*
X121695000Y-137101000D01*
X146526000Y-112330000D02*
X121755000Y-137101000D01*
X174047500Y-126750000D02*
X175250000Y-126750000D01*
X168083499Y-120785999D02*
X174047500Y-126750000D01*
X163800199Y-120785999D02*
X168083499Y-120785999D01*
X162335200Y-119321000D02*
X163800199Y-120785999D01*
X174047500Y-115000000D02*
X175250000Y-115000000D01*
X173731499Y-115316001D02*
X174047500Y-115000000D01*
X163410201Y-115316001D02*
X173731499Y-115316001D01*
X162335200Y-114241000D02*
X163410201Y-115316001D01*
D26*
X146500000Y-104684000D02*
X146526000Y-104710000D01*
X146500000Y-98525000D02*
X146500000Y-104684000D01*
D27*
X173092501Y-61882499D02*
X173000000Y-61975000D01*
X173092501Y-59907499D02*
X173092501Y-61882499D01*
X100840000Y-72310200D02*
X100840000Y-73250000D01*
X117329200Y-55821000D02*
X100840000Y-72310200D01*
X119155000Y-55821000D02*
X117329200Y-55821000D01*
X118094340Y-58361000D02*
X119155000Y-58361000D01*
X117329200Y-58361000D02*
X118094340Y-58361000D01*
X103380000Y-72310200D02*
X117329200Y-58361000D01*
X103380000Y-73250000D02*
X103380000Y-72310200D01*
X176000000Y-80000000D02*
X176000000Y-81250000D01*
X176000000Y-78054998D02*
X176000000Y-80000000D01*
X165391001Y-67445999D02*
X176000000Y-78054998D01*
X162739539Y-67445999D02*
X165391001Y-67445999D01*
X162335200Y-67041660D02*
X162739539Y-67445999D01*
X162335200Y-65981000D02*
X162335200Y-67041660D01*
X174047500Y-121000000D02*
X175250000Y-121000000D01*
X171293499Y-118245999D02*
X174047500Y-121000000D01*
X163800199Y-118245999D02*
X171293499Y-118245999D01*
X162335200Y-116781000D02*
X163800199Y-118245999D01*
X161260199Y-74712699D02*
X161260199Y-69596001D01*
X176000000Y-89452500D02*
X161260199Y-74712699D01*
X176000000Y-89500000D02*
X176000000Y-89452500D01*
X161260199Y-69596001D02*
X161585201Y-69270999D01*
X161585201Y-69270999D02*
X162335200Y-68521000D01*
X151811000Y-107290000D02*
X151860000Y-107241000D01*
X146620000Y-107290000D02*
X151811000Y-107290000D01*
X190450000Y-124500000D02*
X189250000Y-124500000D01*
X191475010Y-123474990D02*
X190450000Y-124500000D01*
X191475010Y-116053640D02*
X191475010Y-123474990D01*
X182662370Y-107241000D02*
X191475010Y-116053640D01*
X151860000Y-107241000D02*
X182662370Y-107241000D01*
X184700000Y-83525000D02*
X185500000Y-83525000D01*
X180767500Y-83525000D02*
X184700000Y-83525000D01*
X178540000Y-81297500D02*
X180767500Y-83525000D01*
X178540000Y-81250000D02*
X178540000Y-81297500D01*
X185500000Y-83525000D02*
X185500000Y-85500000D01*
X179290000Y-87500000D02*
X187475000Y-87500000D01*
X186800000Y-87500000D02*
X187475000Y-87500000D01*
X178540000Y-89500000D02*
X178540000Y-88250000D01*
X178540000Y-88250000D02*
X179290000Y-87500000D01*
X187475000Y-87500000D02*
X187475000Y-89500000D01*
X178540000Y-72185000D02*
X183250000Y-67475000D01*
X178540000Y-73750000D02*
X178540000Y-72185000D01*
X188250000Y-66600000D02*
X188250000Y-65000000D01*
X187375000Y-67475000D02*
X188250000Y-66600000D01*
X183250000Y-67475000D02*
X187375000Y-67475000D01*
X187900000Y-116880000D02*
X189250000Y-116880000D01*
X179622500Y-116880000D02*
X187900000Y-116880000D01*
X177790000Y-115047500D02*
X179622500Y-116880000D01*
X177790000Y-115000000D02*
X177790000Y-115047500D01*
X187900000Y-119420000D02*
X189250000Y-119420000D01*
X178120000Y-119420000D02*
X187900000Y-119420000D01*
X177790000Y-119750000D02*
X178120000Y-119420000D01*
X177790000Y-121000000D02*
X177790000Y-119750000D01*
X187900000Y-121960000D02*
X189250000Y-121960000D01*
X182532500Y-121960000D02*
X187900000Y-121960000D01*
X177790000Y-126702500D02*
X182532500Y-121960000D01*
X177790000Y-126750000D02*
X177790000Y-126702500D01*
X151361000Y-109790000D02*
X151860000Y-109291000D01*
X146526000Y-109790000D02*
X151361000Y-109790000D01*
X151860000Y-109966000D02*
X151860000Y-112076000D01*
X151860000Y-109291000D02*
X151860000Y-109966000D01*
D28*
G36*
X186271418Y-68686039D02*
G01*
X186271418Y-70299999D01*
X186282535Y-70412875D01*
X186315460Y-70521413D01*
X186368927Y-70621442D01*
X186440881Y-70709119D01*
X186528558Y-70781073D01*
X186628587Y-70834540D01*
X186737125Y-70867465D01*
X186850001Y-70878582D01*
X189649999Y-70878582D01*
X189762875Y-70867465D01*
X189871413Y-70834540D01*
X189971442Y-70781073D01*
X190059119Y-70709119D01*
X190131073Y-70621442D01*
X190184540Y-70521413D01*
X190217465Y-70412875D01*
X190228582Y-70299999D01*
X190228582Y-68719801D01*
X191839039Y-68733542D01*
X191797265Y-68871251D01*
X191764886Y-69200000D01*
X191797265Y-69528749D01*
X191893158Y-69844865D01*
X192048879Y-70136199D01*
X192258444Y-70391556D01*
X192513801Y-70601121D01*
X192805135Y-70756842D01*
X193121251Y-70852735D01*
X193367617Y-70877000D01*
X194132383Y-70877000D01*
X194378749Y-70852735D01*
X194694865Y-70756842D01*
X194986199Y-70601121D01*
X195241556Y-70391556D01*
X195451121Y-70136199D01*
X195606842Y-69844865D01*
X195702735Y-69528749D01*
X195735114Y-69200000D01*
X195702735Y-68871251D01*
X195670879Y-68766235D01*
X196112581Y-68770004D01*
X196133418Y-99228918D01*
X147824506Y-99228789D01*
X147825812Y-99224482D01*
X147838072Y-99100000D01*
X147835000Y-98810750D01*
X147676250Y-98652000D01*
X146627000Y-98652000D01*
X146627000Y-98672000D01*
X146373000Y-98672000D01*
X146373000Y-98652000D01*
X145323750Y-98652000D01*
X145165000Y-98810750D01*
X145161928Y-99100000D01*
X145174188Y-99224482D01*
X145175492Y-99228782D01*
X125847794Y-99228730D01*
X125867453Y-93751438D01*
X146082688Y-93654483D01*
X146036564Y-93685302D01*
X145935302Y-93786564D01*
X145855741Y-93905636D01*
X145800938Y-94037942D01*
X145773000Y-94178397D01*
X145773000Y-94321603D01*
X145800938Y-94462058D01*
X145855741Y-94594364D01*
X145935302Y-94713436D01*
X146036564Y-94814698D01*
X146048000Y-94822339D01*
X146048001Y-95571615D01*
X145937123Y-95582535D01*
X145828586Y-95615460D01*
X145728557Y-95668926D01*
X145640880Y-95740880D01*
X145568926Y-95828557D01*
X145515460Y-95928586D01*
X145482535Y-96037123D01*
X145471418Y-96149999D01*
X145471418Y-96800001D01*
X145482535Y-96912877D01*
X145515460Y-97021414D01*
X145568926Y-97121443D01*
X145640880Y-97209120D01*
X145728557Y-97281074D01*
X145788416Y-97313069D01*
X145675518Y-97324188D01*
X145555820Y-97360498D01*
X145445506Y-97419463D01*
X145348815Y-97498815D01*
X145269463Y-97595506D01*
X145210498Y-97705820D01*
X145174188Y-97825518D01*
X145161928Y-97950000D01*
X145165000Y-98239250D01*
X145323750Y-98398000D01*
X146373000Y-98398000D01*
X146373000Y-98378000D01*
X146627000Y-98378000D01*
X146627000Y-98398000D01*
X147676250Y-98398000D01*
X147835000Y-98239250D01*
X147838072Y-97950000D01*
X147825812Y-97825518D01*
X147789502Y-97705820D01*
X147730537Y-97595506D01*
X147651185Y-97498815D01*
X147554494Y-97419463D01*
X147444180Y-97360498D01*
X147324482Y-97324188D01*
X147211584Y-97313069D01*
X147271443Y-97281074D01*
X147359120Y-97209120D01*
X147431074Y-97121443D01*
X147484540Y-97021414D01*
X147517465Y-96912877D01*
X147528582Y-96800001D01*
X147528582Y-96377000D01*
X184765000Y-96377000D01*
X184765000Y-96677000D01*
X184827918Y-97061814D01*
X184964700Y-97426959D01*
X185170090Y-97758403D01*
X185436195Y-98043409D01*
X185752789Y-98271024D01*
X186107705Y-98432501D01*
X186314677Y-98486677D01*
X186623000Y-98371829D01*
X186623000Y-96377000D01*
X186877000Y-96377000D01*
X186877000Y-98371829D01*
X187185323Y-98486677D01*
X187392295Y-98432501D01*
X187747211Y-98271024D01*
X188063805Y-98043409D01*
X188329910Y-97758403D01*
X188535300Y-97426959D01*
X188672082Y-97061814D01*
X188735000Y-96677000D01*
X188735000Y-96377000D01*
X186877000Y-96377000D01*
X186623000Y-96377000D01*
X184765000Y-96377000D01*
X147528582Y-96377000D01*
X147528582Y-96149999D01*
X147517465Y-96037123D01*
X147484540Y-95928586D01*
X147431074Y-95828557D01*
X147426514Y-95823000D01*
X184765000Y-95823000D01*
X184765000Y-96123000D01*
X186623000Y-96123000D01*
X186623000Y-94128171D01*
X186877000Y-94128171D01*
X186877000Y-96123000D01*
X188735000Y-96123000D01*
X188735000Y-95823000D01*
X188672082Y-95438186D01*
X188535300Y-95073041D01*
X188329910Y-94741597D01*
X188063805Y-94456591D01*
X187747211Y-94228976D01*
X187392295Y-94067499D01*
X187185323Y-94013323D01*
X186877000Y-94128171D01*
X186623000Y-94128171D01*
X186314677Y-94013323D01*
X186107705Y-94067499D01*
X185752789Y-94228976D01*
X185436195Y-94456591D01*
X185170090Y-94741597D01*
X184964700Y-95073041D01*
X184827918Y-95438186D01*
X184765000Y-95823000D01*
X147426514Y-95823000D01*
X147359120Y-95740880D01*
X147271443Y-95668926D01*
X147171414Y-95615460D01*
X147062877Y-95582535D01*
X146952000Y-95571615D01*
X146952000Y-94822339D01*
X146963436Y-94814698D01*
X147064698Y-94713436D01*
X147144259Y-94594364D01*
X147199062Y-94462058D01*
X147227000Y-94321603D01*
X147227000Y-94178397D01*
X147199062Y-94037942D01*
X147144259Y-93905636D01*
X147064698Y-93786564D01*
X146963436Y-93685302D01*
X146911364Y-93650509D01*
X181254320Y-93485796D01*
X181279085Y-93483236D01*
X181302874Y-93475895D01*
X181324774Y-93464054D01*
X181343943Y-93448168D01*
X181359645Y-93428847D01*
X181371275Y-93406835D01*
X181378388Y-93382976D01*
X181380711Y-93358759D01*
X181379945Y-90793586D01*
X181572012Y-90735323D01*
X181794291Y-90616512D01*
X181989120Y-90456620D01*
X182149012Y-90261790D01*
X182267823Y-90039511D01*
X182340986Y-89798325D01*
X182359500Y-89610348D01*
X182359500Y-89389651D01*
X182340986Y-89201674D01*
X182267823Y-88960488D01*
X182149012Y-88738209D01*
X181989120Y-88543380D01*
X181794290Y-88383488D01*
X181572011Y-88264677D01*
X181379172Y-88206180D01*
X181379096Y-87952000D01*
X186571615Y-87952000D01*
X186582535Y-88062877D01*
X186615460Y-88171414D01*
X186668926Y-88271443D01*
X186740880Y-88359120D01*
X186828557Y-88431074D01*
X186928586Y-88484540D01*
X187023001Y-88513181D01*
X187023001Y-88927660D01*
X187011564Y-88935302D01*
X186910302Y-89036564D01*
X186830741Y-89155636D01*
X186775938Y-89287942D01*
X186748000Y-89428397D01*
X186748000Y-89571603D01*
X186775938Y-89712058D01*
X186830741Y-89844364D01*
X186910302Y-89963436D01*
X187011564Y-90064698D01*
X187130636Y-90144259D01*
X187262942Y-90199062D01*
X187403397Y-90227000D01*
X187546603Y-90227000D01*
X187687058Y-90199062D01*
X187819364Y-90144259D01*
X187938436Y-90064698D01*
X188039698Y-89963436D01*
X188119259Y-89844364D01*
X188174062Y-89712058D01*
X188202000Y-89571603D01*
X188202000Y-89428397D01*
X188174062Y-89287942D01*
X188119259Y-89155636D01*
X188039698Y-89036564D01*
X187938436Y-88935302D01*
X187927000Y-88927661D01*
X187927000Y-88513181D01*
X188021414Y-88484540D01*
X188121443Y-88431074D01*
X188209120Y-88359120D01*
X188281074Y-88271443D01*
X188313069Y-88211584D01*
X188324188Y-88324482D01*
X188360498Y-88444180D01*
X188419463Y-88554494D01*
X188498815Y-88651185D01*
X188595506Y-88730537D01*
X188705820Y-88789502D01*
X188825518Y-88825812D01*
X188950000Y-88838072D01*
X189239250Y-88835000D01*
X189398000Y-88676250D01*
X189398000Y-87627000D01*
X189652000Y-87627000D01*
X189652000Y-88676250D01*
X189810750Y-88835000D01*
X190100000Y-88838072D01*
X190224482Y-88825812D01*
X190344180Y-88789502D01*
X190454494Y-88730537D01*
X190551185Y-88651185D01*
X190630537Y-88554494D01*
X190689502Y-88444180D01*
X190725812Y-88324482D01*
X190738072Y-88200000D01*
X190735000Y-87785750D01*
X190576250Y-87627000D01*
X189652000Y-87627000D01*
X189398000Y-87627000D01*
X189378000Y-87627000D01*
X189378000Y-87373000D01*
X189398000Y-87373000D01*
X189398000Y-86323750D01*
X189652000Y-86323750D01*
X189652000Y-87373000D01*
X190576250Y-87373000D01*
X190735000Y-87214250D01*
X190738072Y-86800000D01*
X190725812Y-86675518D01*
X190689502Y-86555820D01*
X190630537Y-86445506D01*
X190551185Y-86348815D01*
X190454494Y-86269463D01*
X190344180Y-86210498D01*
X190224482Y-86174188D01*
X190100000Y-86161928D01*
X189810750Y-86165000D01*
X189652000Y-86323750D01*
X189398000Y-86323750D01*
X189239250Y-86165000D01*
X188950000Y-86161928D01*
X188825518Y-86174188D01*
X188705820Y-86210498D01*
X188595506Y-86269463D01*
X188498815Y-86348815D01*
X188419463Y-86445506D01*
X188360498Y-86555820D01*
X188324188Y-86675518D01*
X188313069Y-86788416D01*
X188281074Y-86728557D01*
X188209120Y-86640880D01*
X188121443Y-86568926D01*
X188021414Y-86515460D01*
X187912877Y-86482535D01*
X187800001Y-86471418D01*
X187149999Y-86471418D01*
X187037123Y-86482535D01*
X186928586Y-86515460D01*
X186828557Y-86568926D01*
X186740880Y-86640880D01*
X186668926Y-86728557D01*
X186615460Y-86828586D01*
X186582535Y-86937123D01*
X186571615Y-87048000D01*
X181378826Y-87048000D01*
X181377908Y-83977000D01*
X184486819Y-83977000D01*
X184515460Y-84071414D01*
X184568926Y-84171443D01*
X184640880Y-84259120D01*
X184728557Y-84331074D01*
X184828586Y-84384540D01*
X184937123Y-84417465D01*
X185048000Y-84428385D01*
X185048001Y-84927660D01*
X185036564Y-84935302D01*
X184935302Y-85036564D01*
X184855741Y-85155636D01*
X184800938Y-85287942D01*
X184773000Y-85428397D01*
X184773000Y-85571603D01*
X184800938Y-85712058D01*
X184855741Y-85844364D01*
X184935302Y-85963436D01*
X185036564Y-86064698D01*
X185155636Y-86144259D01*
X185287942Y-86199062D01*
X185428397Y-86227000D01*
X185571603Y-86227000D01*
X185712058Y-86199062D01*
X185844364Y-86144259D01*
X185963436Y-86064698D01*
X186064698Y-85963436D01*
X186144259Y-85844364D01*
X186199062Y-85712058D01*
X186227000Y-85571603D01*
X186227000Y-85428397D01*
X186199062Y-85287942D01*
X186144259Y-85155636D01*
X186064698Y-85036564D01*
X185963436Y-84935302D01*
X185952000Y-84927661D01*
X185952000Y-84428385D01*
X186062877Y-84417465D01*
X186171414Y-84384540D01*
X186271443Y-84331074D01*
X186359120Y-84259120D01*
X186431074Y-84171443D01*
X186484540Y-84071414D01*
X186517465Y-83962877D01*
X186528582Y-83850001D01*
X186528582Y-83199999D01*
X186517465Y-83087123D01*
X186484540Y-82978586D01*
X186431074Y-82878557D01*
X186359120Y-82790880D01*
X186271443Y-82718926D01*
X186211584Y-82686931D01*
X186324482Y-82675812D01*
X186444180Y-82639502D01*
X186554494Y-82580537D01*
X186651185Y-82501185D01*
X186730537Y-82404494D01*
X186789502Y-82294180D01*
X186825812Y-82174482D01*
X186838072Y-82050000D01*
X186835000Y-81760750D01*
X186676250Y-81602000D01*
X185627000Y-81602000D01*
X185627000Y-81622000D01*
X185373000Y-81622000D01*
X185373000Y-81602000D01*
X184323750Y-81602000D01*
X184165000Y-81760750D01*
X184161928Y-82050000D01*
X184174188Y-82174482D01*
X184210498Y-82294180D01*
X184269463Y-82404494D01*
X184348815Y-82501185D01*
X184445506Y-82580537D01*
X184555820Y-82639502D01*
X184675518Y-82675812D01*
X184788416Y-82686931D01*
X184728557Y-82718926D01*
X184640880Y-82790880D01*
X184568926Y-82878557D01*
X184515460Y-82978586D01*
X184486819Y-83073000D01*
X181377638Y-83073000D01*
X181377480Y-82544334D01*
X181572012Y-82485323D01*
X181794291Y-82366512D01*
X181989120Y-82206620D01*
X182149012Y-82011790D01*
X182267823Y-81789511D01*
X182340986Y-81548325D01*
X182359500Y-81360348D01*
X182359500Y-81139651D01*
X182340986Y-80951674D01*
X182325311Y-80900000D01*
X184161928Y-80900000D01*
X184165000Y-81189250D01*
X184323750Y-81348000D01*
X185373000Y-81348000D01*
X185373000Y-80423750D01*
X185627000Y-80423750D01*
X185627000Y-81348000D01*
X186676250Y-81348000D01*
X186835000Y-81189250D01*
X186838072Y-80900000D01*
X186825812Y-80775518D01*
X186789502Y-80655820D01*
X186730537Y-80545506D01*
X186651185Y-80448815D01*
X186554494Y-80369463D01*
X186444180Y-80310498D01*
X186324482Y-80274188D01*
X186200000Y-80261928D01*
X185785750Y-80265000D01*
X185627000Y-80423750D01*
X185373000Y-80423750D01*
X185214250Y-80265000D01*
X184800000Y-80261928D01*
X184675518Y-80274188D01*
X184555820Y-80310498D01*
X184445506Y-80369463D01*
X184348815Y-80448815D01*
X184269463Y-80545506D01*
X184210498Y-80655820D01*
X184174188Y-80775518D01*
X184161928Y-80900000D01*
X182325311Y-80900000D01*
X182267823Y-80710488D01*
X182149012Y-80488209D01*
X181989120Y-80293380D01*
X181794290Y-80133488D01*
X181572011Y-80014677D01*
X181376706Y-79955432D01*
X181375239Y-75045013D01*
X181572012Y-74985323D01*
X181794291Y-74866512D01*
X181989120Y-74706620D01*
X182149012Y-74511790D01*
X182267823Y-74289511D01*
X182340986Y-74048325D01*
X182359500Y-73860348D01*
X182359500Y-73639651D01*
X182340986Y-73451674D01*
X182267823Y-73210488D01*
X182149012Y-72988209D01*
X181989120Y-72793380D01*
X181794290Y-72633488D01*
X181572011Y-72514677D01*
X181374465Y-72454752D01*
X181373762Y-70100000D01*
X181911928Y-70100000D01*
X181924188Y-70224482D01*
X181960498Y-70344180D01*
X182019463Y-70454494D01*
X182098815Y-70551185D01*
X182195506Y-70630537D01*
X182305820Y-70689502D01*
X182425518Y-70725812D01*
X182550000Y-70738072D01*
X182964250Y-70735000D01*
X183123000Y-70576250D01*
X183123000Y-69652000D01*
X183377000Y-69652000D01*
X183377000Y-70576250D01*
X183535750Y-70735000D01*
X183950000Y-70738072D01*
X184074482Y-70725812D01*
X184194180Y-70689502D01*
X184304494Y-70630537D01*
X184401185Y-70551185D01*
X184480537Y-70454494D01*
X184539502Y-70344180D01*
X184575812Y-70224482D01*
X184588072Y-70100000D01*
X184585000Y-69810750D01*
X184426250Y-69652000D01*
X183377000Y-69652000D01*
X183123000Y-69652000D01*
X182073750Y-69652000D01*
X181915000Y-69810750D01*
X181911928Y-70100000D01*
X181373762Y-70100000D01*
X181373729Y-69990495D01*
X182019987Y-69344237D01*
X182073750Y-69398000D01*
X183123000Y-69398000D01*
X183123000Y-69378000D01*
X183377000Y-69378000D01*
X183377000Y-69398000D01*
X184426250Y-69398000D01*
X184585000Y-69239250D01*
X184588072Y-68950000D01*
X184575812Y-68825518D01*
X184539502Y-68705820D01*
X184520945Y-68671104D01*
X186271418Y-68686039D01*
X186271418Y-68686039D01*
G37*
X186271418Y-68686039D02*
X186271418Y-70299999D01*
X186282535Y-70412875D01*
X186315460Y-70521413D01*
X186368927Y-70621442D01*
X186440881Y-70709119D01*
X186528558Y-70781073D01*
X186628587Y-70834540D01*
X186737125Y-70867465D01*
X186850001Y-70878582D01*
X189649999Y-70878582D01*
X189762875Y-70867465D01*
X189871413Y-70834540D01*
X189971442Y-70781073D01*
X190059119Y-70709119D01*
X190131073Y-70621442D01*
X190184540Y-70521413D01*
X190217465Y-70412875D01*
X190228582Y-70299999D01*
X190228582Y-68719801D01*
X191839039Y-68733542D01*
X191797265Y-68871251D01*
X191764886Y-69200000D01*
X191797265Y-69528749D01*
X191893158Y-69844865D01*
X192048879Y-70136199D01*
X192258444Y-70391556D01*
X192513801Y-70601121D01*
X192805135Y-70756842D01*
X193121251Y-70852735D01*
X193367617Y-70877000D01*
X194132383Y-70877000D01*
X194378749Y-70852735D01*
X194694865Y-70756842D01*
X194986199Y-70601121D01*
X195241556Y-70391556D01*
X195451121Y-70136199D01*
X195606842Y-69844865D01*
X195702735Y-69528749D01*
X195735114Y-69200000D01*
X195702735Y-68871251D01*
X195670879Y-68766235D01*
X196112581Y-68770004D01*
X196133418Y-99228918D01*
X147824506Y-99228789D01*
X147825812Y-99224482D01*
X147838072Y-99100000D01*
X147835000Y-98810750D01*
X147676250Y-98652000D01*
X146627000Y-98652000D01*
X146627000Y-98672000D01*
X146373000Y-98672000D01*
X146373000Y-98652000D01*
X145323750Y-98652000D01*
X145165000Y-98810750D01*
X145161928Y-99100000D01*
X145174188Y-99224482D01*
X145175492Y-99228782D01*
X125847794Y-99228730D01*
X125867453Y-93751438D01*
X146082688Y-93654483D01*
X146036564Y-93685302D01*
X145935302Y-93786564D01*
X145855741Y-93905636D01*
X145800938Y-94037942D01*
X145773000Y-94178397D01*
X145773000Y-94321603D01*
X145800938Y-94462058D01*
X145855741Y-94594364D01*
X145935302Y-94713436D01*
X146036564Y-94814698D01*
X146048000Y-94822339D01*
X146048001Y-95571615D01*
X145937123Y-95582535D01*
X145828586Y-95615460D01*
X145728557Y-95668926D01*
X145640880Y-95740880D01*
X145568926Y-95828557D01*
X145515460Y-95928586D01*
X145482535Y-96037123D01*
X145471418Y-96149999D01*
X145471418Y-96800001D01*
X145482535Y-96912877D01*
X145515460Y-97021414D01*
X145568926Y-97121443D01*
X145640880Y-97209120D01*
X145728557Y-97281074D01*
X145788416Y-97313069D01*
X145675518Y-97324188D01*
X145555820Y-97360498D01*
X145445506Y-97419463D01*
X145348815Y-97498815D01*
X145269463Y-97595506D01*
X145210498Y-97705820D01*
X145174188Y-97825518D01*
X145161928Y-97950000D01*
X145165000Y-98239250D01*
X145323750Y-98398000D01*
X146373000Y-98398000D01*
X146373000Y-98378000D01*
X146627000Y-98378000D01*
X146627000Y-98398000D01*
X147676250Y-98398000D01*
X147835000Y-98239250D01*
X147838072Y-97950000D01*
X147825812Y-97825518D01*
X147789502Y-97705820D01*
X147730537Y-97595506D01*
X147651185Y-97498815D01*
X147554494Y-97419463D01*
X147444180Y-97360498D01*
X147324482Y-97324188D01*
X147211584Y-97313069D01*
X147271443Y-97281074D01*
X147359120Y-97209120D01*
X147431074Y-97121443D01*
X147484540Y-97021414D01*
X147517465Y-96912877D01*
X147528582Y-96800001D01*
X147528582Y-96377000D01*
X184765000Y-96377000D01*
X184765000Y-96677000D01*
X184827918Y-97061814D01*
X184964700Y-97426959D01*
X185170090Y-97758403D01*
X185436195Y-98043409D01*
X185752789Y-98271024D01*
X186107705Y-98432501D01*
X186314677Y-98486677D01*
X186623000Y-98371829D01*
X186623000Y-96377000D01*
X186877000Y-96377000D01*
X186877000Y-98371829D01*
X187185323Y-98486677D01*
X187392295Y-98432501D01*
X187747211Y-98271024D01*
X188063805Y-98043409D01*
X188329910Y-97758403D01*
X188535300Y-97426959D01*
X188672082Y-97061814D01*
X188735000Y-96677000D01*
X188735000Y-96377000D01*
X186877000Y-96377000D01*
X186623000Y-96377000D01*
X184765000Y-96377000D01*
X147528582Y-96377000D01*
X147528582Y-96149999D01*
X147517465Y-96037123D01*
X147484540Y-95928586D01*
X147431074Y-95828557D01*
X147426514Y-95823000D01*
X184765000Y-95823000D01*
X184765000Y-96123000D01*
X186623000Y-96123000D01*
X186623000Y-94128171D01*
X186877000Y-94128171D01*
X186877000Y-96123000D01*
X188735000Y-96123000D01*
X188735000Y-95823000D01*
X188672082Y-95438186D01*
X188535300Y-95073041D01*
X188329910Y-94741597D01*
X188063805Y-94456591D01*
X187747211Y-94228976D01*
X187392295Y-94067499D01*
X187185323Y-94013323D01*
X186877000Y-94128171D01*
X186623000Y-94128171D01*
X186314677Y-94013323D01*
X186107705Y-94067499D01*
X185752789Y-94228976D01*
X185436195Y-94456591D01*
X185170090Y-94741597D01*
X184964700Y-95073041D01*
X184827918Y-95438186D01*
X184765000Y-95823000D01*
X147426514Y-95823000D01*
X147359120Y-95740880D01*
X147271443Y-95668926D01*
X147171414Y-95615460D01*
X147062877Y-95582535D01*
X146952000Y-95571615D01*
X146952000Y-94822339D01*
X146963436Y-94814698D01*
X147064698Y-94713436D01*
X147144259Y-94594364D01*
X147199062Y-94462058D01*
X147227000Y-94321603D01*
X147227000Y-94178397D01*
X147199062Y-94037942D01*
X147144259Y-93905636D01*
X147064698Y-93786564D01*
X146963436Y-93685302D01*
X146911364Y-93650509D01*
X181254320Y-93485796D01*
X181279085Y-93483236D01*
X181302874Y-93475895D01*
X181324774Y-93464054D01*
X181343943Y-93448168D01*
X181359645Y-93428847D01*
X181371275Y-93406835D01*
X181378388Y-93382976D01*
X181380711Y-93358759D01*
X181379945Y-90793586D01*
X181572012Y-90735323D01*
X181794291Y-90616512D01*
X181989120Y-90456620D01*
X182149012Y-90261790D01*
X182267823Y-90039511D01*
X182340986Y-89798325D01*
X182359500Y-89610348D01*
X182359500Y-89389651D01*
X182340986Y-89201674D01*
X182267823Y-88960488D01*
X182149012Y-88738209D01*
X181989120Y-88543380D01*
X181794290Y-88383488D01*
X181572011Y-88264677D01*
X181379172Y-88206180D01*
X181379096Y-87952000D01*
X186571615Y-87952000D01*
X186582535Y-88062877D01*
X186615460Y-88171414D01*
X186668926Y-88271443D01*
X186740880Y-88359120D01*
X186828557Y-88431074D01*
X186928586Y-88484540D01*
X187023001Y-88513181D01*
X187023001Y-88927660D01*
X187011564Y-88935302D01*
X186910302Y-89036564D01*
X186830741Y-89155636D01*
X186775938Y-89287942D01*
X186748000Y-89428397D01*
X186748000Y-89571603D01*
X186775938Y-89712058D01*
X186830741Y-89844364D01*
X186910302Y-89963436D01*
X187011564Y-90064698D01*
X187130636Y-90144259D01*
X187262942Y-90199062D01*
X187403397Y-90227000D01*
X187546603Y-90227000D01*
X187687058Y-90199062D01*
X187819364Y-90144259D01*
X187938436Y-90064698D01*
X188039698Y-89963436D01*
X188119259Y-89844364D01*
X188174062Y-89712058D01*
X188202000Y-89571603D01*
X188202000Y-89428397D01*
X188174062Y-89287942D01*
X188119259Y-89155636D01*
X188039698Y-89036564D01*
X187938436Y-88935302D01*
X187927000Y-88927661D01*
X187927000Y-88513181D01*
X188021414Y-88484540D01*
X188121443Y-88431074D01*
X188209120Y-88359120D01*
X188281074Y-88271443D01*
X188313069Y-88211584D01*
X188324188Y-88324482D01*
X188360498Y-88444180D01*
X188419463Y-88554494D01*
X188498815Y-88651185D01*
X188595506Y-88730537D01*
X188705820Y-88789502D01*
X188825518Y-88825812D01*
X188950000Y-88838072D01*
X189239250Y-88835000D01*
X189398000Y-88676250D01*
X189398000Y-87627000D01*
X189652000Y-87627000D01*
X189652000Y-88676250D01*
X189810750Y-88835000D01*
X190100000Y-88838072D01*
X190224482Y-88825812D01*
X190344180Y-88789502D01*
X190454494Y-88730537D01*
X190551185Y-88651185D01*
X190630537Y-88554494D01*
X190689502Y-88444180D01*
X190725812Y-88324482D01*
X190738072Y-88200000D01*
X190735000Y-87785750D01*
X190576250Y-87627000D01*
X189652000Y-87627000D01*
X189398000Y-87627000D01*
X189378000Y-87627000D01*
X189378000Y-87373000D01*
X189398000Y-87373000D01*
X189398000Y-86323750D01*
X189652000Y-86323750D01*
X189652000Y-87373000D01*
X190576250Y-87373000D01*
X190735000Y-87214250D01*
X190738072Y-86800000D01*
X190725812Y-86675518D01*
X190689502Y-86555820D01*
X190630537Y-86445506D01*
X190551185Y-86348815D01*
X190454494Y-86269463D01*
X190344180Y-86210498D01*
X190224482Y-86174188D01*
X190100000Y-86161928D01*
X189810750Y-86165000D01*
X189652000Y-86323750D01*
X189398000Y-86323750D01*
X189239250Y-86165000D01*
X188950000Y-86161928D01*
X188825518Y-86174188D01*
X188705820Y-86210498D01*
X188595506Y-86269463D01*
X188498815Y-86348815D01*
X188419463Y-86445506D01*
X188360498Y-86555820D01*
X188324188Y-86675518D01*
X188313069Y-86788416D01*
X188281074Y-86728557D01*
X188209120Y-86640880D01*
X188121443Y-86568926D01*
X188021414Y-86515460D01*
X187912877Y-86482535D01*
X187800001Y-86471418D01*
X187149999Y-86471418D01*
X187037123Y-86482535D01*
X186928586Y-86515460D01*
X186828557Y-86568926D01*
X186740880Y-86640880D01*
X186668926Y-86728557D01*
X186615460Y-86828586D01*
X186582535Y-86937123D01*
X186571615Y-87048000D01*
X181378826Y-87048000D01*
X181377908Y-83977000D01*
X184486819Y-83977000D01*
X184515460Y-84071414D01*
X184568926Y-84171443D01*
X184640880Y-84259120D01*
X184728557Y-84331074D01*
X184828586Y-84384540D01*
X184937123Y-84417465D01*
X185048000Y-84428385D01*
X185048001Y-84927660D01*
X185036564Y-84935302D01*
X184935302Y-85036564D01*
X184855741Y-85155636D01*
X184800938Y-85287942D01*
X184773000Y-85428397D01*
X184773000Y-85571603D01*
X184800938Y-85712058D01*
X184855741Y-85844364D01*
X184935302Y-85963436D01*
X185036564Y-86064698D01*
X185155636Y-86144259D01*
X185287942Y-86199062D01*
X185428397Y-86227000D01*
X185571603Y-86227000D01*
X185712058Y-86199062D01*
X185844364Y-86144259D01*
X185963436Y-86064698D01*
X186064698Y-85963436D01*
X186144259Y-85844364D01*
X186199062Y-85712058D01*
X186227000Y-85571603D01*
X186227000Y-85428397D01*
X186199062Y-85287942D01*
X186144259Y-85155636D01*
X186064698Y-85036564D01*
X185963436Y-84935302D01*
X185952000Y-84927661D01*
X185952000Y-84428385D01*
X186062877Y-84417465D01*
X186171414Y-84384540D01*
X186271443Y-84331074D01*
X186359120Y-84259120D01*
X186431074Y-84171443D01*
X186484540Y-84071414D01*
X186517465Y-83962877D01*
X186528582Y-83850001D01*
X186528582Y-83199999D01*
X186517465Y-83087123D01*
X186484540Y-82978586D01*
X186431074Y-82878557D01*
X186359120Y-82790880D01*
X186271443Y-82718926D01*
X186211584Y-82686931D01*
X186324482Y-82675812D01*
X186444180Y-82639502D01*
X186554494Y-82580537D01*
X186651185Y-82501185D01*
X186730537Y-82404494D01*
X186789502Y-82294180D01*
X186825812Y-82174482D01*
X186838072Y-82050000D01*
X186835000Y-81760750D01*
X186676250Y-81602000D01*
X185627000Y-81602000D01*
X185627000Y-81622000D01*
X185373000Y-81622000D01*
X185373000Y-81602000D01*
X184323750Y-81602000D01*
X184165000Y-81760750D01*
X184161928Y-82050000D01*
X184174188Y-82174482D01*
X184210498Y-82294180D01*
X184269463Y-82404494D01*
X184348815Y-82501185D01*
X184445506Y-82580537D01*
X184555820Y-82639502D01*
X184675518Y-82675812D01*
X184788416Y-82686931D01*
X184728557Y-82718926D01*
X184640880Y-82790880D01*
X184568926Y-82878557D01*
X184515460Y-82978586D01*
X184486819Y-83073000D01*
X181377638Y-83073000D01*
X181377480Y-82544334D01*
X181572012Y-82485323D01*
X181794291Y-82366512D01*
X181989120Y-82206620D01*
X182149012Y-82011790D01*
X182267823Y-81789511D01*
X182340986Y-81548325D01*
X182359500Y-81360348D01*
X182359500Y-81139651D01*
X182340986Y-80951674D01*
X182325311Y-80900000D01*
X184161928Y-80900000D01*
X184165000Y-81189250D01*
X184323750Y-81348000D01*
X185373000Y-81348000D01*
X185373000Y-80423750D01*
X185627000Y-80423750D01*
X185627000Y-81348000D01*
X186676250Y-81348000D01*
X186835000Y-81189250D01*
X186838072Y-80900000D01*
X186825812Y-80775518D01*
X186789502Y-80655820D01*
X186730537Y-80545506D01*
X186651185Y-80448815D01*
X186554494Y-80369463D01*
X186444180Y-80310498D01*
X186324482Y-80274188D01*
X186200000Y-80261928D01*
X185785750Y-80265000D01*
X185627000Y-80423750D01*
X185373000Y-80423750D01*
X185214250Y-80265000D01*
X184800000Y-80261928D01*
X184675518Y-80274188D01*
X184555820Y-80310498D01*
X184445506Y-80369463D01*
X184348815Y-80448815D01*
X184269463Y-80545506D01*
X184210498Y-80655820D01*
X184174188Y-80775518D01*
X184161928Y-80900000D01*
X182325311Y-80900000D01*
X182267823Y-80710488D01*
X182149012Y-80488209D01*
X181989120Y-80293380D01*
X181794290Y-80133488D01*
X181572011Y-80014677D01*
X181376706Y-79955432D01*
X181375239Y-75045013D01*
X181572012Y-74985323D01*
X181794291Y-74866512D01*
X181989120Y-74706620D01*
X182149012Y-74511790D01*
X182267823Y-74289511D01*
X182340986Y-74048325D01*
X182359500Y-73860348D01*
X182359500Y-73639651D01*
X182340986Y-73451674D01*
X182267823Y-73210488D01*
X182149012Y-72988209D01*
X181989120Y-72793380D01*
X181794290Y-72633488D01*
X181572011Y-72514677D01*
X181374465Y-72454752D01*
X181373762Y-70100000D01*
X181911928Y-70100000D01*
X181924188Y-70224482D01*
X181960498Y-70344180D01*
X182019463Y-70454494D01*
X182098815Y-70551185D01*
X182195506Y-70630537D01*
X182305820Y-70689502D01*
X182425518Y-70725812D01*
X182550000Y-70738072D01*
X182964250Y-70735000D01*
X183123000Y-70576250D01*
X183123000Y-69652000D01*
X183377000Y-69652000D01*
X183377000Y-70576250D01*
X183535750Y-70735000D01*
X183950000Y-70738072D01*
X184074482Y-70725812D01*
X184194180Y-70689502D01*
X184304494Y-70630537D01*
X184401185Y-70551185D01*
X184480537Y-70454494D01*
X184539502Y-70344180D01*
X184575812Y-70224482D01*
X184588072Y-70100000D01*
X184585000Y-69810750D01*
X184426250Y-69652000D01*
X183377000Y-69652000D01*
X183123000Y-69652000D01*
X182073750Y-69652000D01*
X181915000Y-69810750D01*
X181911928Y-70100000D01*
X181373762Y-70100000D01*
X181373729Y-69990495D01*
X182019987Y-69344237D01*
X182073750Y-69398000D01*
X183123000Y-69398000D01*
X183123000Y-69378000D01*
X183377000Y-69378000D01*
X183377000Y-69398000D01*
X184426250Y-69398000D01*
X184585000Y-69239250D01*
X184588072Y-68950000D01*
X184575812Y-68825518D01*
X184539502Y-68705820D01*
X184520945Y-68671104D01*
X186271418Y-68686039D01*
G36*
X189373000Y-45126832D02*
G01*
X189373000Y-55138373D01*
X189194865Y-55043158D01*
X188878749Y-54947265D01*
X188632383Y-54923000D01*
X187867617Y-54923000D01*
X187621251Y-54947265D01*
X187305135Y-55043158D01*
X187013801Y-55198879D01*
X186758444Y-55408444D01*
X186548879Y-55663801D01*
X186393158Y-55955135D01*
X186297265Y-56271251D01*
X186264886Y-56600000D01*
X186297265Y-56928749D01*
X186393158Y-57244865D01*
X186548879Y-57536199D01*
X186758444Y-57791556D01*
X187013801Y-58001121D01*
X187305135Y-58156842D01*
X187621251Y-58252735D01*
X187867617Y-58277000D01*
X188632383Y-58277000D01*
X188878749Y-58252735D01*
X189194865Y-58156842D01*
X189373000Y-58061627D01*
X189373000Y-59338373D01*
X189194865Y-59243158D01*
X188878749Y-59147265D01*
X188632383Y-59123000D01*
X187867617Y-59123000D01*
X187621251Y-59147265D01*
X187305135Y-59243158D01*
X187013801Y-59398879D01*
X186758444Y-59608444D01*
X186548879Y-59863801D01*
X186393158Y-60155135D01*
X186297265Y-60471251D01*
X186264886Y-60800000D01*
X186297265Y-61128749D01*
X186393158Y-61444865D01*
X186548879Y-61736199D01*
X186758444Y-61991556D01*
X187013801Y-62201121D01*
X187305135Y-62356842D01*
X187621251Y-62452735D01*
X187867617Y-62477000D01*
X188632383Y-62477000D01*
X188878749Y-62452735D01*
X189194865Y-62356842D01*
X189373000Y-62261627D01*
X189373000Y-62873000D01*
X180500000Y-62873000D01*
X180475224Y-62875440D01*
X180451399Y-62882667D01*
X180429443Y-62894403D01*
X180410197Y-62910197D01*
X180394403Y-62929443D01*
X180382667Y-62951399D01*
X180375440Y-62975224D01*
X180373000Y-63000000D01*
X180373000Y-69712776D01*
X178236096Y-71849681D01*
X178218842Y-71863841D01*
X178191170Y-71897560D01*
X178162358Y-71932667D01*
X178120386Y-72011191D01*
X178094540Y-72096393D01*
X178085813Y-72185000D01*
X178088001Y-72207215D01*
X178088001Y-72502539D01*
X178047988Y-72514677D01*
X177825709Y-72633488D01*
X177630880Y-72793380D01*
X177590172Y-72842983D01*
X177590572Y-72750000D01*
X177578312Y-72625518D01*
X177542002Y-72505820D01*
X177483037Y-72395506D01*
X177403685Y-72298815D01*
X177306994Y-72219463D01*
X177196680Y-72160498D01*
X177076982Y-72124188D01*
X176952500Y-72111928D01*
X176285750Y-72115000D01*
X176127000Y-72273750D01*
X176127000Y-73623000D01*
X176147000Y-73623000D01*
X176147000Y-73877000D01*
X176127000Y-73877000D01*
X176127000Y-73897000D01*
X175873000Y-73897000D01*
X175873000Y-73877000D01*
X174571250Y-73877000D01*
X174412500Y-74035750D01*
X174409428Y-74750000D01*
X174421688Y-74874482D01*
X174457998Y-74994180D01*
X174516963Y-75104494D01*
X174596315Y-75201185D01*
X174693006Y-75280537D01*
X174803320Y-75339502D01*
X174817031Y-75343661D01*
X173930922Y-75346696D01*
X171334226Y-72750000D01*
X174409428Y-72750000D01*
X174412500Y-73464250D01*
X174571250Y-73623000D01*
X175873000Y-73623000D01*
X175873000Y-72273750D01*
X175714250Y-72115000D01*
X175047500Y-72111928D01*
X174923018Y-72124188D01*
X174803320Y-72160498D01*
X174693006Y-72219463D01*
X174596315Y-72298815D01*
X174516963Y-72395506D01*
X174457998Y-72505820D01*
X174421688Y-72625518D01*
X174409428Y-72750000D01*
X171334226Y-72750000D01*
X166303603Y-67719378D01*
X166274175Y-64600000D01*
X171661928Y-64600000D01*
X171674188Y-64724482D01*
X171710498Y-64844180D01*
X171769463Y-64954494D01*
X171848815Y-65051185D01*
X171945506Y-65130537D01*
X172055820Y-65189502D01*
X172175518Y-65225812D01*
X172300000Y-65238072D01*
X172714250Y-65235000D01*
X172873000Y-65076250D01*
X172873000Y-64152000D01*
X173127000Y-64152000D01*
X173127000Y-65076250D01*
X173285750Y-65235000D01*
X173700000Y-65238072D01*
X173824482Y-65225812D01*
X173944180Y-65189502D01*
X174054494Y-65130537D01*
X174151185Y-65051185D01*
X174230537Y-64954494D01*
X174289502Y-64844180D01*
X174325812Y-64724482D01*
X174338072Y-64600000D01*
X174335000Y-64310750D01*
X174176250Y-64152000D01*
X173127000Y-64152000D01*
X172873000Y-64152000D01*
X171823750Y-64152000D01*
X171665000Y-64310750D01*
X171661928Y-64600000D01*
X166274175Y-64600000D01*
X166263326Y-63450000D01*
X171661928Y-63450000D01*
X171665000Y-63739250D01*
X171823750Y-63898000D01*
X172873000Y-63898000D01*
X172873000Y-63878000D01*
X173127000Y-63878000D01*
X173127000Y-63898000D01*
X174176250Y-63898000D01*
X174335000Y-63739250D01*
X174338072Y-63450000D01*
X174325812Y-63325518D01*
X174289502Y-63205820D01*
X174230537Y-63095506D01*
X174151185Y-62998815D01*
X174054494Y-62919463D01*
X173944180Y-62860498D01*
X173824482Y-62824188D01*
X173711584Y-62813069D01*
X173771443Y-62781074D01*
X173859120Y-62709120D01*
X173931074Y-62621443D01*
X173984540Y-62521414D01*
X174017465Y-62412877D01*
X174028582Y-62300001D01*
X174028582Y-61649999D01*
X174017465Y-61537123D01*
X173984540Y-61428586D01*
X173931074Y-61328557D01*
X173859120Y-61240880D01*
X173771443Y-61168926D01*
X173671414Y-61115460D01*
X173562877Y-61082535D01*
X173544501Y-61080725D01*
X173544501Y-60479838D01*
X173555937Y-60472197D01*
X173657199Y-60370935D01*
X173736760Y-60251863D01*
X173791563Y-60119557D01*
X173819501Y-59979102D01*
X173819501Y-59835896D01*
X173791563Y-59695441D01*
X173736760Y-59563135D01*
X173657199Y-59444063D01*
X173555937Y-59342801D01*
X173436865Y-59263240D01*
X173304559Y-59208437D01*
X173164104Y-59180499D01*
X173020898Y-59180499D01*
X172880443Y-59208437D01*
X172748137Y-59263240D01*
X172629065Y-59342801D01*
X172527803Y-59444063D01*
X172448242Y-59563135D01*
X172393439Y-59695441D01*
X172365501Y-59835896D01*
X172365501Y-59979102D01*
X172393439Y-60119557D01*
X172448242Y-60251863D01*
X172527803Y-60370935D01*
X172629065Y-60472197D01*
X172640501Y-60479838D01*
X172640502Y-61071418D01*
X172549999Y-61071418D01*
X172437123Y-61082535D01*
X172328586Y-61115460D01*
X172228557Y-61168926D01*
X172140880Y-61240880D01*
X172068926Y-61328557D01*
X172015460Y-61428586D01*
X171982535Y-61537123D01*
X171971418Y-61649999D01*
X171971418Y-62300001D01*
X171982535Y-62412877D01*
X172015460Y-62521414D01*
X172068926Y-62621443D01*
X172140880Y-62709120D01*
X172228557Y-62781074D01*
X172288416Y-62813069D01*
X172175518Y-62824188D01*
X172055820Y-62860498D01*
X171945506Y-62919463D01*
X171848815Y-62998815D01*
X171769463Y-63095506D01*
X171710498Y-63205820D01*
X171674188Y-63325518D01*
X171661928Y-63450000D01*
X166263326Y-63450000D01*
X166160685Y-52570031D01*
X173808698Y-52570031D01*
X173826412Y-52662502D01*
X173942429Y-52935437D01*
X174109464Y-53180494D01*
X174321097Y-53388256D01*
X174569196Y-53550738D01*
X174586406Y-53557681D01*
X174537123Y-53562535D01*
X174428586Y-53595460D01*
X174328557Y-53648926D01*
X174240880Y-53720880D01*
X174168926Y-53808557D01*
X174115460Y-53908586D01*
X174082535Y-54017123D01*
X174071418Y-54129999D01*
X174071418Y-55370001D01*
X174082535Y-55482877D01*
X174115460Y-55591414D01*
X174168926Y-55691443D01*
X174240880Y-55779120D01*
X174328557Y-55851074D01*
X174428586Y-55904540D01*
X174537123Y-55937465D01*
X174649999Y-55948582D01*
X176350001Y-55948582D01*
X176462877Y-55937465D01*
X176571414Y-55904540D01*
X176671443Y-55851074D01*
X176759120Y-55779120D01*
X176831074Y-55691443D01*
X176884540Y-55591414D01*
X176917465Y-55482877D01*
X176928582Y-55370001D01*
X176928582Y-54834830D01*
X180323000Y-54834830D01*
X180323000Y-55165170D01*
X180387446Y-55489163D01*
X180513862Y-55794357D01*
X180697389Y-56069025D01*
X180930975Y-56302611D01*
X181205643Y-56486138D01*
X181510837Y-56612554D01*
X181834830Y-56677000D01*
X182165170Y-56677000D01*
X182489163Y-56612554D01*
X182794357Y-56486138D01*
X183069025Y-56302611D01*
X183302611Y-56069025D01*
X183486138Y-55794357D01*
X183612554Y-55489163D01*
X183677000Y-55165170D01*
X183677000Y-54834830D01*
X183612554Y-54510837D01*
X183486138Y-54205643D01*
X183302611Y-53930975D01*
X183069025Y-53697389D01*
X182794357Y-53513862D01*
X182489163Y-53387446D01*
X182165170Y-53323000D01*
X181834830Y-53323000D01*
X181510837Y-53387446D01*
X181205643Y-53513862D01*
X180930975Y-53697389D01*
X180697389Y-53930975D01*
X180513862Y-54205643D01*
X180387446Y-54510837D01*
X180323000Y-54834830D01*
X176928582Y-54834830D01*
X176928582Y-54129999D01*
X176917465Y-54017123D01*
X176884540Y-53908586D01*
X176831074Y-53808557D01*
X176759120Y-53720880D01*
X176671443Y-53648926D01*
X176571414Y-53595460D01*
X176462877Y-53562535D01*
X176413594Y-53557681D01*
X176430804Y-53550738D01*
X176678903Y-53388256D01*
X176890536Y-53180494D01*
X177057571Y-52935437D01*
X177173588Y-52662502D01*
X177191302Y-52570031D01*
X177070246Y-52337000D01*
X175627000Y-52337000D01*
X175627000Y-52357000D01*
X175373000Y-52357000D01*
X175373000Y-52337000D01*
X173929754Y-52337000D01*
X173808698Y-52570031D01*
X166160685Y-52570031D01*
X166137552Y-50117999D01*
X172251669Y-50117999D01*
X172443757Y-50310087D01*
X172473577Y-50346423D01*
X172618538Y-50465389D01*
X172783923Y-50553789D01*
X172963375Y-50608225D01*
X173149999Y-50626606D01*
X173196764Y-50622000D01*
X174543174Y-50622000D01*
X174601765Y-50670084D01*
X174800111Y-50776102D01*
X174569196Y-50869262D01*
X174321097Y-51031744D01*
X174109464Y-51239506D01*
X173942429Y-51484563D01*
X173826412Y-51757498D01*
X173808698Y-51849969D01*
X173929754Y-52083000D01*
X175373000Y-52083000D01*
X175373000Y-52063000D01*
X175627000Y-52063000D01*
X175627000Y-52083000D01*
X177070246Y-52083000D01*
X177191302Y-51849969D01*
X177173588Y-51757498D01*
X177057571Y-51484563D01*
X176890536Y-51239506D01*
X176678903Y-51031744D01*
X176430804Y-50869262D01*
X176199889Y-50776102D01*
X176398235Y-50670084D01*
X176580502Y-50520502D01*
X176730084Y-50338235D01*
X176841234Y-50130288D01*
X176909680Y-49904653D01*
X176932791Y-49670000D01*
X176909680Y-49435347D01*
X176841234Y-49209712D01*
X176730084Y-49001765D01*
X176580502Y-48819498D01*
X176398235Y-48669916D01*
X176190288Y-48558766D01*
X175964653Y-48490320D01*
X175788798Y-48473000D01*
X175211202Y-48473000D01*
X175035347Y-48490320D01*
X174809712Y-48558766D01*
X174601765Y-48669916D01*
X174543174Y-48718000D01*
X173544330Y-48718000D01*
X173352242Y-48525912D01*
X173322422Y-48489576D01*
X173177461Y-48370610D01*
X173012076Y-48282210D01*
X172832624Y-48227774D01*
X172692764Y-48213999D01*
X172645999Y-48209393D01*
X172599234Y-48213999D01*
X128105765Y-48213999D01*
X128059000Y-48209393D01*
X127872376Y-48227774D01*
X127692924Y-48282210D01*
X127527539Y-48370610D01*
X127382578Y-48489576D01*
X127352766Y-48525902D01*
X126089670Y-49789000D01*
X122208780Y-49789000D01*
X122205151Y-49786575D01*
X122009149Y-49705389D01*
X121801075Y-49664000D01*
X121588925Y-49664000D01*
X121380851Y-49705389D01*
X121184849Y-49786575D01*
X121008453Y-49904440D01*
X120858440Y-50054453D01*
X120740575Y-50230849D01*
X120659389Y-50426851D01*
X120618000Y-50634925D01*
X120618000Y-50847075D01*
X120659389Y-51055149D01*
X120740575Y-51251151D01*
X120858440Y-51427547D01*
X121008453Y-51577560D01*
X121184849Y-51695425D01*
X121380851Y-51776611D01*
X121385132Y-51777463D01*
X121814300Y-52206631D01*
X121801075Y-52204000D01*
X121588925Y-52204000D01*
X121380851Y-52245389D01*
X121184849Y-52326575D01*
X121008453Y-52444440D01*
X120858440Y-52594453D01*
X120740575Y-52770849D01*
X120659389Y-52966851D01*
X120618000Y-53174925D01*
X120618000Y-53387075D01*
X120659389Y-53595149D01*
X120740575Y-53791151D01*
X120858440Y-53967547D01*
X121008453Y-54117560D01*
X121184849Y-54235425D01*
X121380851Y-54316611D01*
X121588925Y-54358000D01*
X121801075Y-54358000D01*
X122009149Y-54316611D01*
X122205151Y-54235425D01*
X122318001Y-54160020D01*
X122318001Y-54941980D01*
X122205151Y-54866575D01*
X122009149Y-54785389D01*
X121801075Y-54744000D01*
X121588925Y-54744000D01*
X121380851Y-54785389D01*
X121184849Y-54866575D01*
X121008453Y-54984440D01*
X120858440Y-55134453D01*
X120740575Y-55310849D01*
X120659389Y-55506851D01*
X120618000Y-55714925D01*
X120618000Y-55927075D01*
X120659389Y-56135149D01*
X120740575Y-56331151D01*
X120858440Y-56507547D01*
X121008453Y-56657560D01*
X121184849Y-56775425D01*
X121380851Y-56856611D01*
X121588925Y-56898000D01*
X121801075Y-56898000D01*
X122009149Y-56856611D01*
X122205151Y-56775425D01*
X122318001Y-56700020D01*
X122318001Y-57481980D01*
X122205151Y-57406575D01*
X122009149Y-57325389D01*
X121801075Y-57284000D01*
X121588925Y-57284000D01*
X121380851Y-57325389D01*
X121184849Y-57406575D01*
X121008453Y-57524440D01*
X120858440Y-57674453D01*
X120740575Y-57850849D01*
X120659389Y-58046851D01*
X120618000Y-58254925D01*
X120618000Y-58467075D01*
X120659389Y-58675149D01*
X120740575Y-58871151D01*
X120858440Y-59047547D01*
X121008453Y-59197560D01*
X121184849Y-59315425D01*
X121380851Y-59396611D01*
X121588925Y-59438000D01*
X121801075Y-59438000D01*
X122009149Y-59396611D01*
X122205151Y-59315425D01*
X122318001Y-59240020D01*
X122318001Y-60021980D01*
X122205151Y-59946575D01*
X122009149Y-59865389D01*
X121801075Y-59824000D01*
X121588925Y-59824000D01*
X121380851Y-59865389D01*
X121184849Y-59946575D01*
X121008453Y-60064440D01*
X120858440Y-60214453D01*
X120740575Y-60390849D01*
X120659389Y-60586851D01*
X120618000Y-60794925D01*
X120618000Y-61007075D01*
X120659389Y-61215149D01*
X120740575Y-61411151D01*
X120858440Y-61587547D01*
X121008453Y-61737560D01*
X121184849Y-61855425D01*
X121380851Y-61936611D01*
X121588925Y-61978000D01*
X121801075Y-61978000D01*
X122009149Y-61936611D01*
X122205151Y-61855425D01*
X122318001Y-61780020D01*
X122318001Y-62561980D01*
X122205151Y-62486575D01*
X122009149Y-62405389D01*
X121801075Y-62364000D01*
X121588925Y-62364000D01*
X121380851Y-62405389D01*
X121184849Y-62486575D01*
X121008453Y-62604440D01*
X120858440Y-62754453D01*
X120740575Y-62930849D01*
X120659389Y-63126851D01*
X120618000Y-63334925D01*
X120618000Y-63547075D01*
X120659389Y-63755149D01*
X120740575Y-63951151D01*
X120858440Y-64127547D01*
X121008453Y-64277560D01*
X121184849Y-64395425D01*
X121380851Y-64476611D01*
X121588925Y-64518000D01*
X121801075Y-64518000D01*
X122009149Y-64476611D01*
X122205151Y-64395425D01*
X122318001Y-64320020D01*
X122318001Y-65101980D01*
X122205151Y-65026575D01*
X122009149Y-64945389D01*
X121801075Y-64904000D01*
X121588925Y-64904000D01*
X121380851Y-64945389D01*
X121184849Y-65026575D01*
X121008453Y-65144440D01*
X120858440Y-65294453D01*
X120740575Y-65470849D01*
X120659389Y-65666851D01*
X120618000Y-65874925D01*
X120618000Y-66087075D01*
X120659389Y-66295149D01*
X120740575Y-66491151D01*
X120858440Y-66667547D01*
X121008453Y-66817560D01*
X121184849Y-66935425D01*
X121380851Y-67016611D01*
X121588925Y-67058000D01*
X121801075Y-67058000D01*
X122009149Y-67016611D01*
X122205151Y-66935425D01*
X122318001Y-66860020D01*
X122318001Y-67641980D01*
X122205151Y-67566575D01*
X122009149Y-67485389D01*
X121801075Y-67444000D01*
X121588925Y-67444000D01*
X121380851Y-67485389D01*
X121184849Y-67566575D01*
X121008453Y-67684440D01*
X120858440Y-67834453D01*
X120740575Y-68010849D01*
X120659389Y-68206851D01*
X120618000Y-68414925D01*
X120618000Y-68627075D01*
X120659389Y-68835149D01*
X120740575Y-69031151D01*
X120858440Y-69207547D01*
X121008453Y-69357560D01*
X121184849Y-69475425D01*
X121380851Y-69556611D01*
X121588925Y-69598000D01*
X121801075Y-69598000D01*
X122009149Y-69556611D01*
X122205151Y-69475425D01*
X122318001Y-69400020D01*
X122318001Y-70181980D01*
X122205151Y-70106575D01*
X122009149Y-70025389D01*
X121801075Y-69984000D01*
X121588925Y-69984000D01*
X121380851Y-70025389D01*
X121184849Y-70106575D01*
X121008453Y-70224440D01*
X120858440Y-70374453D01*
X120740575Y-70550849D01*
X120659389Y-70746851D01*
X120618000Y-70954925D01*
X120618000Y-71167075D01*
X120659389Y-71375149D01*
X120740575Y-71571151D01*
X120858440Y-71747547D01*
X121008453Y-71897560D01*
X121184849Y-72015425D01*
X121380851Y-72096611D01*
X121588925Y-72138000D01*
X121801075Y-72138000D01*
X122009149Y-72096611D01*
X122205151Y-72015425D01*
X122318001Y-71940020D01*
X122318001Y-72721980D01*
X122205151Y-72646575D01*
X122009149Y-72565389D01*
X121801075Y-72524000D01*
X121588925Y-72524000D01*
X121380851Y-72565389D01*
X121184849Y-72646575D01*
X121008453Y-72764440D01*
X120858440Y-72914453D01*
X120740575Y-73090849D01*
X120659389Y-73286851D01*
X120618000Y-73494925D01*
X120618000Y-73707075D01*
X120659389Y-73915149D01*
X120740575Y-74111151D01*
X120858440Y-74287547D01*
X121008453Y-74437560D01*
X121184849Y-74555425D01*
X121380851Y-74636611D01*
X121588925Y-74678000D01*
X121801075Y-74678000D01*
X122009149Y-74636611D01*
X122205151Y-74555425D01*
X122318001Y-74480020D01*
X122318001Y-75352828D01*
X120499954Y-75353487D01*
X120475178Y-75355936D01*
X120451357Y-75363172D01*
X120429404Y-75374916D01*
X120410165Y-75390717D01*
X120394378Y-75409968D01*
X120382650Y-75431929D01*
X120375431Y-75455756D01*
X120373000Y-75480487D01*
X120373000Y-108024947D01*
X120330537Y-107945506D01*
X120251185Y-107848815D01*
X120154494Y-107769463D01*
X120044180Y-107710498D01*
X119924482Y-107674188D01*
X119800000Y-107661928D01*
X119510750Y-107665000D01*
X119352000Y-107823750D01*
X119352000Y-108873000D01*
X119372000Y-108873000D01*
X119372000Y-109127000D01*
X119352000Y-109127000D01*
X119352000Y-110176250D01*
X119510750Y-110335000D01*
X119800000Y-110338072D01*
X119924482Y-110325812D01*
X120044180Y-110289502D01*
X120154494Y-110230537D01*
X120251185Y-110151185D01*
X120330537Y-110054494D01*
X120373000Y-109975053D01*
X120373000Y-113570558D01*
X120350860Y-113529137D01*
X120111993Y-113463612D01*
X119334605Y-114241000D01*
X120111993Y-115018388D01*
X120350860Y-114952863D01*
X120373000Y-114905683D01*
X120373000Y-119893911D01*
X120065215Y-119897316D01*
X120109425Y-119831151D01*
X120190611Y-119635149D01*
X120232000Y-119427075D01*
X120232000Y-119214925D01*
X120190611Y-119006851D01*
X120109425Y-118810849D01*
X119991560Y-118634453D01*
X119841547Y-118484440D01*
X119665151Y-118366575D01*
X119469149Y-118285389D01*
X119261075Y-118244000D01*
X119048925Y-118244000D01*
X118840851Y-118285389D01*
X118644849Y-118366575D01*
X118468453Y-118484440D01*
X118318440Y-118634453D01*
X118200575Y-118810849D01*
X118119389Y-119006851D01*
X118078000Y-119214925D01*
X118078000Y-119427075D01*
X118119389Y-119635149D01*
X118200575Y-119831151D01*
X118258142Y-119917305D01*
X115237384Y-119950721D01*
X115211584Y-119936931D01*
X115324482Y-119925812D01*
X115444180Y-119889502D01*
X115554494Y-119830537D01*
X115651185Y-119751185D01*
X115730537Y-119654494D01*
X115789502Y-119544180D01*
X115825812Y-119424482D01*
X115838072Y-119300000D01*
X115835000Y-119010750D01*
X115676250Y-118852000D01*
X114627000Y-118852000D01*
X114627000Y-118872000D01*
X114373000Y-118872000D01*
X114373000Y-118852000D01*
X113323750Y-118852000D01*
X113165000Y-119010750D01*
X113161928Y-119300000D01*
X113174188Y-119424482D01*
X113210498Y-119544180D01*
X113269463Y-119654494D01*
X113348815Y-119751185D01*
X113445506Y-119830537D01*
X113555820Y-119889502D01*
X113675518Y-119925812D01*
X113788416Y-119936931D01*
X113731450Y-119967380D01*
X98377000Y-120137230D01*
X98377000Y-118150000D01*
X113161928Y-118150000D01*
X113165000Y-118439250D01*
X113323750Y-118598000D01*
X114373000Y-118598000D01*
X114373000Y-117673750D01*
X114627000Y-117673750D01*
X114627000Y-118598000D01*
X115676250Y-118598000D01*
X115835000Y-118439250D01*
X115838072Y-118150000D01*
X115825812Y-118025518D01*
X115789502Y-117905820D01*
X115730537Y-117795506D01*
X115651185Y-117698815D01*
X115554494Y-117619463D01*
X115444180Y-117560498D01*
X115324482Y-117524188D01*
X115200000Y-117511928D01*
X114785750Y-117515000D01*
X114627000Y-117673750D01*
X114373000Y-117673750D01*
X114214250Y-117515000D01*
X113800000Y-117511928D01*
X113675518Y-117524188D01*
X113555820Y-117560498D01*
X113445506Y-117619463D01*
X113348815Y-117698815D01*
X113269463Y-117795506D01*
X113210498Y-117905820D01*
X113174188Y-118025518D01*
X113161928Y-118150000D01*
X98377000Y-118150000D01*
X98377000Y-116674925D01*
X118078000Y-116674925D01*
X118078000Y-116887075D01*
X118119389Y-117095149D01*
X118200575Y-117291151D01*
X118318440Y-117467547D01*
X118468453Y-117617560D01*
X118644849Y-117735425D01*
X118840851Y-117816611D01*
X119048925Y-117858000D01*
X119261075Y-117858000D01*
X119469149Y-117816611D01*
X119665151Y-117735425D01*
X119841547Y-117617560D01*
X119991560Y-117467547D01*
X120109425Y-117291151D01*
X120190611Y-117095149D01*
X120232000Y-116887075D01*
X120232000Y-116674925D01*
X120190611Y-116466851D01*
X120109425Y-116270849D01*
X119991560Y-116094453D01*
X119841547Y-115944440D01*
X119665151Y-115826575D01*
X119469149Y-115745389D01*
X119261075Y-115704000D01*
X119048925Y-115704000D01*
X118840851Y-115745389D01*
X118644849Y-115826575D01*
X118468453Y-115944440D01*
X118318440Y-116094453D01*
X118200575Y-116270849D01*
X118119389Y-116466851D01*
X118078000Y-116674925D01*
X98377000Y-116674925D01*
X98377000Y-115197993D01*
X118377612Y-115197993D01*
X118443137Y-115436860D01*
X118690116Y-115552760D01*
X118954960Y-115618250D01*
X119227492Y-115630812D01*
X119497238Y-115589965D01*
X119753832Y-115497277D01*
X119866863Y-115436860D01*
X119932388Y-115197993D01*
X119155000Y-114420605D01*
X118377612Y-115197993D01*
X98377000Y-115197993D01*
X98377000Y-114313492D01*
X117765188Y-114313492D01*
X117806035Y-114583238D01*
X117898723Y-114839832D01*
X117959140Y-114952863D01*
X118198007Y-115018388D01*
X118975395Y-114241000D01*
X118198007Y-113463612D01*
X117959140Y-113529137D01*
X117843240Y-113776116D01*
X117777750Y-114040960D01*
X117765188Y-114313492D01*
X98377000Y-114313492D01*
X98377000Y-113284007D01*
X118377612Y-113284007D01*
X119155000Y-114061395D01*
X119932388Y-113284007D01*
X119866863Y-113045140D01*
X119619884Y-112929240D01*
X119355040Y-112863750D01*
X119082508Y-112851188D01*
X118812762Y-112892035D01*
X118556168Y-112984723D01*
X118443137Y-113045140D01*
X118377612Y-113284007D01*
X98377000Y-113284007D01*
X98377000Y-112376592D01*
X101000408Y-112368155D01*
X101025177Y-112365635D01*
X101048978Y-112358332D01*
X101070897Y-112346525D01*
X101090091Y-112330669D01*
X101105823Y-112311373D01*
X101117488Y-112289379D01*
X101124639Y-112265532D01*
X101126997Y-112240213D01*
X101108142Y-109700000D01*
X118011928Y-109700000D01*
X118024188Y-109824482D01*
X118060498Y-109944180D01*
X118119463Y-110054494D01*
X118198815Y-110151185D01*
X118295506Y-110230537D01*
X118405820Y-110289502D01*
X118525518Y-110325812D01*
X118650000Y-110338072D01*
X118939250Y-110335000D01*
X119098000Y-110176250D01*
X119098000Y-109127000D01*
X118173750Y-109127000D01*
X118015000Y-109285750D01*
X118011928Y-109700000D01*
X101108142Y-109700000D01*
X101097750Y-108300000D01*
X118011928Y-108300000D01*
X118015000Y-108714250D01*
X118173750Y-108873000D01*
X119098000Y-108873000D01*
X119098000Y-107823750D01*
X118939250Y-107665000D01*
X118650000Y-107661928D01*
X118525518Y-107674188D01*
X118405820Y-107710498D01*
X118295506Y-107769463D01*
X118198815Y-107848815D01*
X118119463Y-107945506D01*
X118060498Y-108055820D01*
X118024188Y-108175518D01*
X118011928Y-108300000D01*
X101097750Y-108300000D01*
X101045448Y-101254076D01*
X105631000Y-101254076D01*
X105631000Y-101485924D01*
X105676231Y-101713318D01*
X105764956Y-101927519D01*
X105893764Y-102120294D01*
X106057706Y-102284236D01*
X106250481Y-102413044D01*
X106464682Y-102501769D01*
X106692076Y-102547000D01*
X106923924Y-102547000D01*
X107151318Y-102501769D01*
X107365519Y-102413044D01*
X107558294Y-102284236D01*
X107722236Y-102120294D01*
X107851044Y-101927519D01*
X107939769Y-101713318D01*
X107985000Y-101485924D01*
X107985000Y-101254076D01*
X109131000Y-101254076D01*
X109131000Y-101485924D01*
X109176231Y-101713318D01*
X109264956Y-101927519D01*
X109393764Y-102120294D01*
X109557706Y-102284236D01*
X109750481Y-102413044D01*
X109964682Y-102501769D01*
X110192076Y-102547000D01*
X110423924Y-102547000D01*
X110651318Y-102501769D01*
X110865519Y-102413044D01*
X111058294Y-102284236D01*
X111222236Y-102120294D01*
X111351044Y-101927519D01*
X111439769Y-101713318D01*
X111485000Y-101485924D01*
X111485000Y-101254076D01*
X111439769Y-101026682D01*
X111351044Y-100812481D01*
X111222236Y-100619706D01*
X111058294Y-100455764D01*
X110865519Y-100326956D01*
X110651318Y-100238231D01*
X110423924Y-100193000D01*
X110192076Y-100193000D01*
X109964682Y-100238231D01*
X109750481Y-100326956D01*
X109557706Y-100455764D01*
X109393764Y-100619706D01*
X109264956Y-100812481D01*
X109176231Y-101026682D01*
X109131000Y-101254076D01*
X107985000Y-101254076D01*
X107939769Y-101026682D01*
X107851044Y-100812481D01*
X107722236Y-100619706D01*
X107558294Y-100455764D01*
X107365519Y-100326956D01*
X107151318Y-100238231D01*
X106923924Y-100193000D01*
X106692076Y-100193000D01*
X106464682Y-100238231D01*
X106250481Y-100326956D01*
X106057706Y-100455764D01*
X105893764Y-100619706D01*
X105764956Y-100812481D01*
X105676231Y-101026682D01*
X105631000Y-101254076D01*
X101045448Y-101254076D01*
X100922119Y-84639423D01*
X100937519Y-84633044D01*
X101130294Y-84504236D01*
X101294236Y-84340294D01*
X101423044Y-84147519D01*
X101511769Y-83933318D01*
X101557000Y-83705924D01*
X101557000Y-83474076D01*
X101713000Y-83474076D01*
X101713000Y-83705924D01*
X101758231Y-83933318D01*
X101846956Y-84147519D01*
X101975764Y-84340294D01*
X102139706Y-84504236D01*
X102332481Y-84633044D01*
X102546682Y-84721769D01*
X102774076Y-84767000D01*
X103005924Y-84767000D01*
X103233318Y-84721769D01*
X103447519Y-84633044D01*
X103640294Y-84504236D01*
X103804236Y-84340294D01*
X103933044Y-84147519D01*
X104021769Y-83933318D01*
X104067000Y-83705924D01*
X104067000Y-83474076D01*
X104283000Y-83474076D01*
X104283000Y-83705924D01*
X104328231Y-83933318D01*
X104416956Y-84147519D01*
X104545764Y-84340294D01*
X104709706Y-84504236D01*
X104902481Y-84633044D01*
X105116682Y-84721769D01*
X105344076Y-84767000D01*
X105575924Y-84767000D01*
X105803318Y-84721769D01*
X106017519Y-84633044D01*
X106210294Y-84504236D01*
X106374236Y-84340294D01*
X106503044Y-84147519D01*
X106591769Y-83933318D01*
X106637000Y-83705924D01*
X106637000Y-83474076D01*
X106591769Y-83246682D01*
X106503044Y-83032481D01*
X106374236Y-82839706D01*
X106274530Y-82740000D01*
X106821418Y-82740000D01*
X106821418Y-84440000D01*
X106827732Y-84504103D01*
X106846430Y-84565743D01*
X106876794Y-84622550D01*
X106917657Y-84672343D01*
X106967450Y-84713206D01*
X107024257Y-84743570D01*
X107085897Y-84762268D01*
X107150000Y-84768582D01*
X108850000Y-84768582D01*
X108914103Y-84762268D01*
X108975743Y-84743570D01*
X109032550Y-84713206D01*
X109082343Y-84672343D01*
X109123206Y-84622550D01*
X109153570Y-84565743D01*
X109172268Y-84504103D01*
X109178582Y-84440000D01*
X109178582Y-82740000D01*
X109172268Y-82675897D01*
X109153570Y-82614257D01*
X109123206Y-82557450D01*
X109082343Y-82507657D01*
X109032550Y-82466794D01*
X108975743Y-82436430D01*
X108914103Y-82417732D01*
X108850000Y-82411418D01*
X107150000Y-82411418D01*
X107085897Y-82417732D01*
X107024257Y-82436430D01*
X106967450Y-82466794D01*
X106917657Y-82507657D01*
X106876794Y-82557450D01*
X106846430Y-82614257D01*
X106827732Y-82675897D01*
X106821418Y-82740000D01*
X106274530Y-82740000D01*
X106210294Y-82675764D01*
X106017519Y-82546956D01*
X105803318Y-82458231D01*
X105575924Y-82413000D01*
X105344076Y-82413000D01*
X105116682Y-82458231D01*
X104902481Y-82546956D01*
X104709706Y-82675764D01*
X104545764Y-82839706D01*
X104416956Y-83032481D01*
X104328231Y-83246682D01*
X104283000Y-83474076D01*
X104067000Y-83474076D01*
X104021769Y-83246682D01*
X103933044Y-83032481D01*
X103804236Y-82839706D01*
X103640294Y-82675764D01*
X103447519Y-82546956D01*
X103233318Y-82458231D01*
X103005924Y-82413000D01*
X102774076Y-82413000D01*
X102546682Y-82458231D01*
X102332481Y-82546956D01*
X102139706Y-82675764D01*
X101975764Y-82839706D01*
X101846956Y-83032481D01*
X101758231Y-83246682D01*
X101713000Y-83474076D01*
X101557000Y-83474076D01*
X101511769Y-83246682D01*
X101423044Y-83032481D01*
X101294236Y-82839706D01*
X101130294Y-82675764D01*
X100937519Y-82546956D01*
X100906492Y-82534104D01*
X100853991Y-75461351D01*
X101088336Y-75438270D01*
X101327129Y-75365833D01*
X101547201Y-75248202D01*
X101740097Y-75089897D01*
X101898402Y-74897001D01*
X102016033Y-74676929D01*
X102088470Y-74438136D01*
X102106800Y-74252029D01*
X102106800Y-72247972D01*
X102113200Y-72247972D01*
X102113201Y-74252029D01*
X102131531Y-74438136D01*
X102203968Y-74676929D01*
X102321599Y-74897001D01*
X102479904Y-75089897D01*
X102672800Y-75248202D01*
X102892872Y-75365833D01*
X103131665Y-75438270D01*
X103380000Y-75462729D01*
X103628336Y-75438270D01*
X103867129Y-75365833D01*
X104087201Y-75248202D01*
X104280097Y-75089897D01*
X104438402Y-74897001D01*
X104478854Y-74821320D01*
X104513675Y-74909783D01*
X104681159Y-75170309D01*
X104896251Y-75393155D01*
X105150685Y-75569756D01*
X105434683Y-75693326D01*
X105549013Y-75720279D01*
X105793000Y-75600143D01*
X105793000Y-73377000D01*
X105773000Y-73377000D01*
X105773000Y-73123000D01*
X105793000Y-73123000D01*
X105793000Y-70899857D01*
X106047000Y-70899857D01*
X106047000Y-73123000D01*
X106067000Y-73123000D01*
X106067000Y-73377000D01*
X106047000Y-73377000D01*
X106047000Y-75600143D01*
X106290987Y-75720279D01*
X106405317Y-75693326D01*
X106689315Y-75569756D01*
X106943749Y-75393155D01*
X107158841Y-75170309D01*
X107326325Y-74909783D01*
X107361146Y-74821319D01*
X107401599Y-74897001D01*
X107559904Y-75089897D01*
X107752800Y-75248202D01*
X107972872Y-75365833D01*
X108211665Y-75438270D01*
X108460000Y-75462729D01*
X108708336Y-75438270D01*
X108947129Y-75365833D01*
X109167201Y-75248202D01*
X109360097Y-75089897D01*
X109518402Y-74897001D01*
X109636033Y-74676929D01*
X109708470Y-74438136D01*
X109726800Y-74252029D01*
X109726800Y-72247972D01*
X109733200Y-72247972D01*
X109733201Y-74252029D01*
X109751531Y-74438136D01*
X109823968Y-74676929D01*
X109941599Y-74897001D01*
X110099904Y-75089897D01*
X110292800Y-75248202D01*
X110512872Y-75365833D01*
X110751665Y-75438270D01*
X111000000Y-75462729D01*
X111248336Y-75438270D01*
X111487129Y-75365833D01*
X111707201Y-75248202D01*
X111900097Y-75089897D01*
X112058402Y-74897001D01*
X112176033Y-74676929D01*
X112248470Y-74438136D01*
X112266800Y-74252029D01*
X112266800Y-73494925D01*
X118078000Y-73494925D01*
X118078000Y-73707075D01*
X118119389Y-73915149D01*
X118200575Y-74111151D01*
X118318440Y-74287547D01*
X118468453Y-74437560D01*
X118644849Y-74555425D01*
X118840851Y-74636611D01*
X119048925Y-74678000D01*
X119261075Y-74678000D01*
X119469149Y-74636611D01*
X119665151Y-74555425D01*
X119841547Y-74437560D01*
X119991560Y-74287547D01*
X120109425Y-74111151D01*
X120190611Y-73915149D01*
X120232000Y-73707075D01*
X120232000Y-73494925D01*
X120190611Y-73286851D01*
X120109425Y-73090849D01*
X119991560Y-72914453D01*
X119841547Y-72764440D01*
X119665151Y-72646575D01*
X119469149Y-72565389D01*
X119261075Y-72524000D01*
X119048925Y-72524000D01*
X118840851Y-72565389D01*
X118644849Y-72646575D01*
X118468453Y-72764440D01*
X118318440Y-72914453D01*
X118200575Y-73090849D01*
X118119389Y-73286851D01*
X118078000Y-73494925D01*
X112266800Y-73494925D01*
X112266800Y-72247971D01*
X112248470Y-72061864D01*
X112176033Y-71823071D01*
X112058402Y-71602999D01*
X111900097Y-71410103D01*
X111707200Y-71251798D01*
X111487128Y-71134167D01*
X111248335Y-71061730D01*
X111000000Y-71037271D01*
X110751664Y-71061730D01*
X110512871Y-71134167D01*
X110292799Y-71251798D01*
X110099903Y-71410103D01*
X109941598Y-71603000D01*
X109823967Y-71823072D01*
X109751530Y-72061865D01*
X109733200Y-72247972D01*
X109726800Y-72247972D01*
X109726800Y-72247971D01*
X109708470Y-72061864D01*
X109636033Y-71823071D01*
X109518402Y-71602999D01*
X109360097Y-71410103D01*
X109167200Y-71251798D01*
X108947128Y-71134167D01*
X108708335Y-71061730D01*
X108460000Y-71037271D01*
X108211664Y-71061730D01*
X107972871Y-71134167D01*
X107752799Y-71251798D01*
X107559903Y-71410103D01*
X107401598Y-71603000D01*
X107361146Y-71678681D01*
X107326325Y-71590217D01*
X107158841Y-71329691D01*
X106943749Y-71106845D01*
X106724874Y-70954925D01*
X118078000Y-70954925D01*
X118078000Y-71167075D01*
X118119389Y-71375149D01*
X118200575Y-71571151D01*
X118318440Y-71747547D01*
X118468453Y-71897560D01*
X118644849Y-72015425D01*
X118840851Y-72096611D01*
X119048925Y-72138000D01*
X119261075Y-72138000D01*
X119469149Y-72096611D01*
X119665151Y-72015425D01*
X119841547Y-71897560D01*
X119991560Y-71747547D01*
X120109425Y-71571151D01*
X120190611Y-71375149D01*
X120232000Y-71167075D01*
X120232000Y-70954925D01*
X120190611Y-70746851D01*
X120109425Y-70550849D01*
X119991560Y-70374453D01*
X119841547Y-70224440D01*
X119665151Y-70106575D01*
X119469149Y-70025389D01*
X119261075Y-69984000D01*
X119048925Y-69984000D01*
X118840851Y-70025389D01*
X118644849Y-70106575D01*
X118468453Y-70224440D01*
X118318440Y-70374453D01*
X118200575Y-70550849D01*
X118119389Y-70746851D01*
X118078000Y-70954925D01*
X106724874Y-70954925D01*
X106689315Y-70930244D01*
X106405317Y-70806674D01*
X106290987Y-70779721D01*
X106047000Y-70899857D01*
X105793000Y-70899857D01*
X105549475Y-70779948D01*
X107914498Y-68414925D01*
X118078000Y-68414925D01*
X118078000Y-68627075D01*
X118119389Y-68835149D01*
X118200575Y-69031151D01*
X118318440Y-69207547D01*
X118468453Y-69357560D01*
X118644849Y-69475425D01*
X118840851Y-69556611D01*
X119048925Y-69598000D01*
X119261075Y-69598000D01*
X119469149Y-69556611D01*
X119665151Y-69475425D01*
X119841547Y-69357560D01*
X119991560Y-69207547D01*
X120109425Y-69031151D01*
X120190611Y-68835149D01*
X120232000Y-68627075D01*
X120232000Y-68414925D01*
X120190611Y-68206851D01*
X120109425Y-68010849D01*
X119991560Y-67834453D01*
X119841547Y-67684440D01*
X119665151Y-67566575D01*
X119469149Y-67485389D01*
X119261075Y-67444000D01*
X119048925Y-67444000D01*
X118840851Y-67485389D01*
X118644849Y-67566575D01*
X118468453Y-67684440D01*
X118318440Y-67834453D01*
X118200575Y-68010849D01*
X118119389Y-68206851D01*
X118078000Y-68414925D01*
X107914498Y-68414925D01*
X110454498Y-65874925D01*
X118078000Y-65874925D01*
X118078000Y-66087075D01*
X118119389Y-66295149D01*
X118200575Y-66491151D01*
X118318440Y-66667547D01*
X118468453Y-66817560D01*
X118644849Y-66935425D01*
X118840851Y-67016611D01*
X119048925Y-67058000D01*
X119261075Y-67058000D01*
X119469149Y-67016611D01*
X119665151Y-66935425D01*
X119841547Y-66817560D01*
X119991560Y-66667547D01*
X120109425Y-66491151D01*
X120190611Y-66295149D01*
X120232000Y-66087075D01*
X120232000Y-65874925D01*
X120190611Y-65666851D01*
X120109425Y-65470849D01*
X119991560Y-65294453D01*
X119841547Y-65144440D01*
X119665151Y-65026575D01*
X119469149Y-64945389D01*
X119261075Y-64904000D01*
X119048925Y-64904000D01*
X118840851Y-64945389D01*
X118644849Y-65026575D01*
X118468453Y-65144440D01*
X118318440Y-65294453D01*
X118200575Y-65470849D01*
X118119389Y-65666851D01*
X118078000Y-65874925D01*
X110454498Y-65874925D01*
X112994498Y-63334925D01*
X118078000Y-63334925D01*
X118078000Y-63547075D01*
X118119389Y-63755149D01*
X118200575Y-63951151D01*
X118318440Y-64127547D01*
X118468453Y-64277560D01*
X118644849Y-64395425D01*
X118840851Y-64476611D01*
X119048925Y-64518000D01*
X119261075Y-64518000D01*
X119469149Y-64476611D01*
X119665151Y-64395425D01*
X119841547Y-64277560D01*
X119991560Y-64127547D01*
X120109425Y-63951151D01*
X120190611Y-63755149D01*
X120232000Y-63547075D01*
X120232000Y-63334925D01*
X120190611Y-63126851D01*
X120109425Y-62930849D01*
X119991560Y-62754453D01*
X119841547Y-62604440D01*
X119665151Y-62486575D01*
X119469149Y-62405389D01*
X119261075Y-62364000D01*
X119048925Y-62364000D01*
X118840851Y-62405389D01*
X118644849Y-62486575D01*
X118468453Y-62604440D01*
X118318440Y-62754453D01*
X118200575Y-62930849D01*
X118119389Y-63126851D01*
X118078000Y-63334925D01*
X112994498Y-63334925D01*
X115534498Y-60794925D01*
X118078000Y-60794925D01*
X118078000Y-61007075D01*
X118119389Y-61215149D01*
X118200575Y-61411151D01*
X118318440Y-61587547D01*
X118468453Y-61737560D01*
X118644849Y-61855425D01*
X118840851Y-61936611D01*
X119048925Y-61978000D01*
X119261075Y-61978000D01*
X119469149Y-61936611D01*
X119665151Y-61855425D01*
X119841547Y-61737560D01*
X119991560Y-61587547D01*
X120109425Y-61411151D01*
X120190611Y-61215149D01*
X120232000Y-61007075D01*
X120232000Y-60794925D01*
X120190611Y-60586851D01*
X120109425Y-60390849D01*
X119991560Y-60214453D01*
X119841547Y-60064440D01*
X119665151Y-59946575D01*
X119469149Y-59865389D01*
X119261075Y-59824000D01*
X119048925Y-59824000D01*
X118840851Y-59865389D01*
X118644849Y-59946575D01*
X118468453Y-60064440D01*
X118318440Y-60214453D01*
X118200575Y-60390849D01*
X118119389Y-60586851D01*
X118078000Y-60794925D01*
X115534498Y-60794925D01*
X117516424Y-58813000D01*
X118176488Y-58813000D01*
X118200575Y-58871151D01*
X118318440Y-59047547D01*
X118468453Y-59197560D01*
X118644849Y-59315425D01*
X118840851Y-59396611D01*
X119048925Y-59438000D01*
X119261075Y-59438000D01*
X119469149Y-59396611D01*
X119665151Y-59315425D01*
X119841547Y-59197560D01*
X119991560Y-59047547D01*
X120109425Y-58871151D01*
X120190611Y-58675149D01*
X120232000Y-58467075D01*
X120232000Y-58254925D01*
X120190611Y-58046851D01*
X120109425Y-57850849D01*
X119991560Y-57674453D01*
X119841547Y-57524440D01*
X119665151Y-57406575D01*
X119469149Y-57325389D01*
X119261075Y-57284000D01*
X119048925Y-57284000D01*
X118840851Y-57325389D01*
X118644849Y-57406575D01*
X118468453Y-57524440D01*
X118318440Y-57674453D01*
X118200575Y-57850849D01*
X118176488Y-57909000D01*
X117351405Y-57909000D01*
X117329200Y-57906813D01*
X117240592Y-57915540D01*
X117155390Y-57941386D01*
X117076867Y-57983357D01*
X117008041Y-58039841D01*
X116993881Y-58057095D01*
X103899504Y-71151473D01*
X103867128Y-71134167D01*
X103628335Y-71061730D01*
X103380000Y-71037271D01*
X103131664Y-71061730D01*
X102892871Y-71134167D01*
X102672799Y-71251798D01*
X102479903Y-71410103D01*
X102321598Y-71603000D01*
X102203967Y-71823072D01*
X102131530Y-72061865D01*
X102113200Y-72247972D01*
X102106800Y-72247972D01*
X102106800Y-72247971D01*
X102088470Y-72061864D01*
X102016033Y-71823071D01*
X101998728Y-71790695D01*
X117516425Y-56273000D01*
X118176488Y-56273000D01*
X118200575Y-56331151D01*
X118318440Y-56507547D01*
X118468453Y-56657560D01*
X118644849Y-56775425D01*
X118840851Y-56856611D01*
X119048925Y-56898000D01*
X119261075Y-56898000D01*
X119469149Y-56856611D01*
X119665151Y-56775425D01*
X119841547Y-56657560D01*
X119991560Y-56507547D01*
X120109425Y-56331151D01*
X120190611Y-56135149D01*
X120232000Y-55927075D01*
X120232000Y-55714925D01*
X120190611Y-55506851D01*
X120109425Y-55310849D01*
X119991560Y-55134453D01*
X119841547Y-54984440D01*
X119665151Y-54866575D01*
X119469149Y-54785389D01*
X119261075Y-54744000D01*
X119048925Y-54744000D01*
X118840851Y-54785389D01*
X118644849Y-54866575D01*
X118468453Y-54984440D01*
X118318440Y-55134453D01*
X118200575Y-55310849D01*
X118176488Y-55369000D01*
X117351404Y-55369000D01*
X117329199Y-55366813D01*
X117240592Y-55375540D01*
X117220762Y-55381556D01*
X117155390Y-55401386D01*
X117076867Y-55443357D01*
X117008041Y-55499841D01*
X116993886Y-55517089D01*
X101359504Y-71151473D01*
X101327128Y-71134167D01*
X101088335Y-71061730D01*
X100840000Y-71037271D01*
X100821165Y-71039126D01*
X100700883Y-54834830D01*
X108323000Y-54834830D01*
X108323000Y-55165170D01*
X108387446Y-55489163D01*
X108513862Y-55794357D01*
X108697389Y-56069025D01*
X108930975Y-56302611D01*
X109205643Y-56486138D01*
X109510837Y-56612554D01*
X109834830Y-56677000D01*
X110165170Y-56677000D01*
X110489163Y-56612554D01*
X110794357Y-56486138D01*
X111069025Y-56302611D01*
X111302611Y-56069025D01*
X111486138Y-55794357D01*
X111612554Y-55489163D01*
X111677000Y-55165170D01*
X111677000Y-54834830D01*
X111612554Y-54510837D01*
X111486138Y-54205643D01*
X111302611Y-53930975D01*
X111069025Y-53697389D01*
X110794357Y-53513862D01*
X110489163Y-53387446D01*
X110165170Y-53323000D01*
X109834830Y-53323000D01*
X109510837Y-53387446D01*
X109205643Y-53513862D01*
X108930975Y-53697389D01*
X108697389Y-53930975D01*
X108513862Y-54205643D01*
X108387446Y-54510837D01*
X108323000Y-54834830D01*
X100700883Y-54834830D01*
X100688562Y-53174925D01*
X118078000Y-53174925D01*
X118078000Y-53387075D01*
X118119389Y-53595149D01*
X118200575Y-53791151D01*
X118318440Y-53967547D01*
X118468453Y-54117560D01*
X118644849Y-54235425D01*
X118840851Y-54316611D01*
X119048925Y-54358000D01*
X119261075Y-54358000D01*
X119469149Y-54316611D01*
X119665151Y-54235425D01*
X119841547Y-54117560D01*
X119991560Y-53967547D01*
X120109425Y-53791151D01*
X120190611Y-53595149D01*
X120232000Y-53387075D01*
X120232000Y-53174925D01*
X120190611Y-52966851D01*
X120109425Y-52770849D01*
X119991560Y-52594453D01*
X119841547Y-52444440D01*
X119665151Y-52326575D01*
X119469149Y-52245389D01*
X119261075Y-52204000D01*
X119048925Y-52204000D01*
X118840851Y-52245389D01*
X118644849Y-52326575D01*
X118468453Y-52444440D01*
X118318440Y-52594453D01*
X118200575Y-52770849D01*
X118119389Y-52966851D01*
X118078000Y-53174925D01*
X100688562Y-53174925D01*
X100677599Y-51697993D01*
X118377612Y-51697993D01*
X118443137Y-51936860D01*
X118690116Y-52052760D01*
X118954960Y-52118250D01*
X119227492Y-52130812D01*
X119497238Y-52089965D01*
X119753832Y-51997277D01*
X119866863Y-51936860D01*
X119932388Y-51697993D01*
X119155000Y-50920605D01*
X118377612Y-51697993D01*
X100677599Y-51697993D01*
X100671033Y-50813492D01*
X117765188Y-50813492D01*
X117806035Y-51083238D01*
X117898723Y-51339832D01*
X117959140Y-51452863D01*
X118198007Y-51518388D01*
X118975395Y-50741000D01*
X119334605Y-50741000D01*
X120111993Y-51518388D01*
X120350860Y-51452863D01*
X120466760Y-51205884D01*
X120532250Y-50941040D01*
X120544812Y-50668508D01*
X120503965Y-50398762D01*
X120411277Y-50142168D01*
X120350860Y-50029137D01*
X120111993Y-49963612D01*
X119334605Y-50741000D01*
X118975395Y-50741000D01*
X118198007Y-49963612D01*
X117959140Y-50029137D01*
X117843240Y-50276116D01*
X117777750Y-50540960D01*
X117765188Y-50813492D01*
X100671033Y-50813492D01*
X100663392Y-49784007D01*
X118377612Y-49784007D01*
X119155000Y-50561395D01*
X119932388Y-49784007D01*
X119866863Y-49545140D01*
X119619884Y-49429240D01*
X119355040Y-49363750D01*
X119082508Y-49351188D01*
X118812762Y-49392035D01*
X118556168Y-49484723D01*
X118443137Y-49545140D01*
X118377612Y-49784007D01*
X100663392Y-49784007D01*
X100627948Y-45009217D01*
X189373000Y-45126832D01*
X189373000Y-45126832D01*
G37*
X189373000Y-45126832D02*
X189373000Y-55138373D01*
X189194865Y-55043158D01*
X188878749Y-54947265D01*
X188632383Y-54923000D01*
X187867617Y-54923000D01*
X187621251Y-54947265D01*
X187305135Y-55043158D01*
X187013801Y-55198879D01*
X186758444Y-55408444D01*
X186548879Y-55663801D01*
X186393158Y-55955135D01*
X186297265Y-56271251D01*
X186264886Y-56600000D01*
X186297265Y-56928749D01*
X186393158Y-57244865D01*
X186548879Y-57536199D01*
X186758444Y-57791556D01*
X187013801Y-58001121D01*
X187305135Y-58156842D01*
X187621251Y-58252735D01*
X187867617Y-58277000D01*
X188632383Y-58277000D01*
X188878749Y-58252735D01*
X189194865Y-58156842D01*
X189373000Y-58061627D01*
X189373000Y-59338373D01*
X189194865Y-59243158D01*
X188878749Y-59147265D01*
X188632383Y-59123000D01*
X187867617Y-59123000D01*
X187621251Y-59147265D01*
X187305135Y-59243158D01*
X187013801Y-59398879D01*
X186758444Y-59608444D01*
X186548879Y-59863801D01*
X186393158Y-60155135D01*
X186297265Y-60471251D01*
X186264886Y-60800000D01*
X186297265Y-61128749D01*
X186393158Y-61444865D01*
X186548879Y-61736199D01*
X186758444Y-61991556D01*
X187013801Y-62201121D01*
X187305135Y-62356842D01*
X187621251Y-62452735D01*
X187867617Y-62477000D01*
X188632383Y-62477000D01*
X188878749Y-62452735D01*
X189194865Y-62356842D01*
X189373000Y-62261627D01*
X189373000Y-62873000D01*
X180500000Y-62873000D01*
X180475224Y-62875440D01*
X180451399Y-62882667D01*
X180429443Y-62894403D01*
X180410197Y-62910197D01*
X180394403Y-62929443D01*
X180382667Y-62951399D01*
X180375440Y-62975224D01*
X180373000Y-63000000D01*
X180373000Y-69712776D01*
X178236096Y-71849681D01*
X178218842Y-71863841D01*
X178191170Y-71897560D01*
X178162358Y-71932667D01*
X178120386Y-72011191D01*
X178094540Y-72096393D01*
X178085813Y-72185000D01*
X178088001Y-72207215D01*
X178088001Y-72502539D01*
X178047988Y-72514677D01*
X177825709Y-72633488D01*
X177630880Y-72793380D01*
X177590172Y-72842983D01*
X177590572Y-72750000D01*
X177578312Y-72625518D01*
X177542002Y-72505820D01*
X177483037Y-72395506D01*
X177403685Y-72298815D01*
X177306994Y-72219463D01*
X177196680Y-72160498D01*
X177076982Y-72124188D01*
X176952500Y-72111928D01*
X176285750Y-72115000D01*
X176127000Y-72273750D01*
X176127000Y-73623000D01*
X176147000Y-73623000D01*
X176147000Y-73877000D01*
X176127000Y-73877000D01*
X176127000Y-73897000D01*
X175873000Y-73897000D01*
X175873000Y-73877000D01*
X174571250Y-73877000D01*
X174412500Y-74035750D01*
X174409428Y-74750000D01*
X174421688Y-74874482D01*
X174457998Y-74994180D01*
X174516963Y-75104494D01*
X174596315Y-75201185D01*
X174693006Y-75280537D01*
X174803320Y-75339502D01*
X174817031Y-75343661D01*
X173930922Y-75346696D01*
X171334226Y-72750000D01*
X174409428Y-72750000D01*
X174412500Y-73464250D01*
X174571250Y-73623000D01*
X175873000Y-73623000D01*
X175873000Y-72273750D01*
X175714250Y-72115000D01*
X175047500Y-72111928D01*
X174923018Y-72124188D01*
X174803320Y-72160498D01*
X174693006Y-72219463D01*
X174596315Y-72298815D01*
X174516963Y-72395506D01*
X174457998Y-72505820D01*
X174421688Y-72625518D01*
X174409428Y-72750000D01*
X171334226Y-72750000D01*
X166303603Y-67719378D01*
X166274175Y-64600000D01*
X171661928Y-64600000D01*
X171674188Y-64724482D01*
X171710498Y-64844180D01*
X171769463Y-64954494D01*
X171848815Y-65051185D01*
X171945506Y-65130537D01*
X172055820Y-65189502D01*
X172175518Y-65225812D01*
X172300000Y-65238072D01*
X172714250Y-65235000D01*
X172873000Y-65076250D01*
X172873000Y-64152000D01*
X173127000Y-64152000D01*
X173127000Y-65076250D01*
X173285750Y-65235000D01*
X173700000Y-65238072D01*
X173824482Y-65225812D01*
X173944180Y-65189502D01*
X174054494Y-65130537D01*
X174151185Y-65051185D01*
X174230537Y-64954494D01*
X174289502Y-64844180D01*
X174325812Y-64724482D01*
X174338072Y-64600000D01*
X174335000Y-64310750D01*
X174176250Y-64152000D01*
X173127000Y-64152000D01*
X172873000Y-64152000D01*
X171823750Y-64152000D01*
X171665000Y-64310750D01*
X171661928Y-64600000D01*
X166274175Y-64600000D01*
X166263326Y-63450000D01*
X171661928Y-63450000D01*
X171665000Y-63739250D01*
X171823750Y-63898000D01*
X172873000Y-63898000D01*
X172873000Y-63878000D01*
X173127000Y-63878000D01*
X173127000Y-63898000D01*
X174176250Y-63898000D01*
X174335000Y-63739250D01*
X174338072Y-63450000D01*
X174325812Y-63325518D01*
X174289502Y-63205820D01*
X174230537Y-63095506D01*
X174151185Y-62998815D01*
X174054494Y-62919463D01*
X173944180Y-62860498D01*
X173824482Y-62824188D01*
X173711584Y-62813069D01*
X173771443Y-62781074D01*
X173859120Y-62709120D01*
X173931074Y-62621443D01*
X173984540Y-62521414D01*
X174017465Y-62412877D01*
X174028582Y-62300001D01*
X174028582Y-61649999D01*
X174017465Y-61537123D01*
X173984540Y-61428586D01*
X173931074Y-61328557D01*
X173859120Y-61240880D01*
X173771443Y-61168926D01*
X173671414Y-61115460D01*
X173562877Y-61082535D01*
X173544501Y-61080725D01*
X173544501Y-60479838D01*
X173555937Y-60472197D01*
X173657199Y-60370935D01*
X173736760Y-60251863D01*
X173791563Y-60119557D01*
X173819501Y-59979102D01*
X173819501Y-59835896D01*
X173791563Y-59695441D01*
X173736760Y-59563135D01*
X173657199Y-59444063D01*
X173555937Y-59342801D01*
X173436865Y-59263240D01*
X173304559Y-59208437D01*
X173164104Y-59180499D01*
X173020898Y-59180499D01*
X172880443Y-59208437D01*
X172748137Y-59263240D01*
X172629065Y-59342801D01*
X172527803Y-59444063D01*
X172448242Y-59563135D01*
X172393439Y-59695441D01*
X172365501Y-59835896D01*
X172365501Y-59979102D01*
X172393439Y-60119557D01*
X172448242Y-60251863D01*
X172527803Y-60370935D01*
X172629065Y-60472197D01*
X172640501Y-60479838D01*
X172640502Y-61071418D01*
X172549999Y-61071418D01*
X172437123Y-61082535D01*
X172328586Y-61115460D01*
X172228557Y-61168926D01*
X172140880Y-61240880D01*
X172068926Y-61328557D01*
X172015460Y-61428586D01*
X171982535Y-61537123D01*
X171971418Y-61649999D01*
X171971418Y-62300001D01*
X171982535Y-62412877D01*
X172015460Y-62521414D01*
X172068926Y-62621443D01*
X172140880Y-62709120D01*
X172228557Y-62781074D01*
X172288416Y-62813069D01*
X172175518Y-62824188D01*
X172055820Y-62860498D01*
X171945506Y-62919463D01*
X171848815Y-62998815D01*
X171769463Y-63095506D01*
X171710498Y-63205820D01*
X171674188Y-63325518D01*
X171661928Y-63450000D01*
X166263326Y-63450000D01*
X166160685Y-52570031D01*
X173808698Y-52570031D01*
X173826412Y-52662502D01*
X173942429Y-52935437D01*
X174109464Y-53180494D01*
X174321097Y-53388256D01*
X174569196Y-53550738D01*
X174586406Y-53557681D01*
X174537123Y-53562535D01*
X174428586Y-53595460D01*
X174328557Y-53648926D01*
X174240880Y-53720880D01*
X174168926Y-53808557D01*
X174115460Y-53908586D01*
X174082535Y-54017123D01*
X174071418Y-54129999D01*
X174071418Y-55370001D01*
X174082535Y-55482877D01*
X174115460Y-55591414D01*
X174168926Y-55691443D01*
X174240880Y-55779120D01*
X174328557Y-55851074D01*
X174428586Y-55904540D01*
X174537123Y-55937465D01*
X174649999Y-55948582D01*
X176350001Y-55948582D01*
X176462877Y-55937465D01*
X176571414Y-55904540D01*
X176671443Y-55851074D01*
X176759120Y-55779120D01*
X176831074Y-55691443D01*
X176884540Y-55591414D01*
X176917465Y-55482877D01*
X176928582Y-55370001D01*
X176928582Y-54834830D01*
X180323000Y-54834830D01*
X180323000Y-55165170D01*
X180387446Y-55489163D01*
X180513862Y-55794357D01*
X180697389Y-56069025D01*
X180930975Y-56302611D01*
X181205643Y-56486138D01*
X181510837Y-56612554D01*
X181834830Y-56677000D01*
X182165170Y-56677000D01*
X182489163Y-56612554D01*
X182794357Y-56486138D01*
X183069025Y-56302611D01*
X183302611Y-56069025D01*
X183486138Y-55794357D01*
X183612554Y-55489163D01*
X183677000Y-55165170D01*
X183677000Y-54834830D01*
X183612554Y-54510837D01*
X183486138Y-54205643D01*
X183302611Y-53930975D01*
X183069025Y-53697389D01*
X182794357Y-53513862D01*
X182489163Y-53387446D01*
X182165170Y-53323000D01*
X181834830Y-53323000D01*
X181510837Y-53387446D01*
X181205643Y-53513862D01*
X180930975Y-53697389D01*
X180697389Y-53930975D01*
X180513862Y-54205643D01*
X180387446Y-54510837D01*
X180323000Y-54834830D01*
X176928582Y-54834830D01*
X176928582Y-54129999D01*
X176917465Y-54017123D01*
X176884540Y-53908586D01*
X176831074Y-53808557D01*
X176759120Y-53720880D01*
X176671443Y-53648926D01*
X176571414Y-53595460D01*
X176462877Y-53562535D01*
X176413594Y-53557681D01*
X176430804Y-53550738D01*
X176678903Y-53388256D01*
X176890536Y-53180494D01*
X177057571Y-52935437D01*
X177173588Y-52662502D01*
X177191302Y-52570031D01*
X177070246Y-52337000D01*
X175627000Y-52337000D01*
X175627000Y-52357000D01*
X175373000Y-52357000D01*
X175373000Y-52337000D01*
X173929754Y-52337000D01*
X173808698Y-52570031D01*
X166160685Y-52570031D01*
X166137552Y-50117999D01*
X172251669Y-50117999D01*
X172443757Y-50310087D01*
X172473577Y-50346423D01*
X172618538Y-50465389D01*
X172783923Y-50553789D01*
X172963375Y-50608225D01*
X173149999Y-50626606D01*
X173196764Y-50622000D01*
X174543174Y-50622000D01*
X174601765Y-50670084D01*
X174800111Y-50776102D01*
X174569196Y-50869262D01*
X174321097Y-51031744D01*
X174109464Y-51239506D01*
X173942429Y-51484563D01*
X173826412Y-51757498D01*
X173808698Y-51849969D01*
X173929754Y-52083000D01*
X175373000Y-52083000D01*
X175373000Y-52063000D01*
X175627000Y-52063000D01*
X175627000Y-52083000D01*
X177070246Y-52083000D01*
X177191302Y-51849969D01*
X177173588Y-51757498D01*
X177057571Y-51484563D01*
X176890536Y-51239506D01*
X176678903Y-51031744D01*
X176430804Y-50869262D01*
X176199889Y-50776102D01*
X176398235Y-50670084D01*
X176580502Y-50520502D01*
X176730084Y-50338235D01*
X176841234Y-50130288D01*
X176909680Y-49904653D01*
X176932791Y-49670000D01*
X176909680Y-49435347D01*
X176841234Y-49209712D01*
X176730084Y-49001765D01*
X176580502Y-48819498D01*
X176398235Y-48669916D01*
X176190288Y-48558766D01*
X175964653Y-48490320D01*
X175788798Y-48473000D01*
X175211202Y-48473000D01*
X175035347Y-48490320D01*
X174809712Y-48558766D01*
X174601765Y-48669916D01*
X174543174Y-48718000D01*
X173544330Y-48718000D01*
X173352242Y-48525912D01*
X173322422Y-48489576D01*
X173177461Y-48370610D01*
X173012076Y-48282210D01*
X172832624Y-48227774D01*
X172692764Y-48213999D01*
X172645999Y-48209393D01*
X172599234Y-48213999D01*
X128105765Y-48213999D01*
X128059000Y-48209393D01*
X127872376Y-48227774D01*
X127692924Y-48282210D01*
X127527539Y-48370610D01*
X127382578Y-48489576D01*
X127352766Y-48525902D01*
X126089670Y-49789000D01*
X122208780Y-49789000D01*
X122205151Y-49786575D01*
X122009149Y-49705389D01*
X121801075Y-49664000D01*
X121588925Y-49664000D01*
X121380851Y-49705389D01*
X121184849Y-49786575D01*
X121008453Y-49904440D01*
X120858440Y-50054453D01*
X120740575Y-50230849D01*
X120659389Y-50426851D01*
X120618000Y-50634925D01*
X120618000Y-50847075D01*
X120659389Y-51055149D01*
X120740575Y-51251151D01*
X120858440Y-51427547D01*
X121008453Y-51577560D01*
X121184849Y-51695425D01*
X121380851Y-51776611D01*
X121385132Y-51777463D01*
X121814300Y-52206631D01*
X121801075Y-52204000D01*
X121588925Y-52204000D01*
X121380851Y-52245389D01*
X121184849Y-52326575D01*
X121008453Y-52444440D01*
X120858440Y-52594453D01*
X120740575Y-52770849D01*
X120659389Y-52966851D01*
X120618000Y-53174925D01*
X120618000Y-53387075D01*
X120659389Y-53595149D01*
X120740575Y-53791151D01*
X120858440Y-53967547D01*
X121008453Y-54117560D01*
X121184849Y-54235425D01*
X121380851Y-54316611D01*
X121588925Y-54358000D01*
X121801075Y-54358000D01*
X122009149Y-54316611D01*
X122205151Y-54235425D01*
X122318001Y-54160020D01*
X122318001Y-54941980D01*
X122205151Y-54866575D01*
X122009149Y-54785389D01*
X121801075Y-54744000D01*
X121588925Y-54744000D01*
X121380851Y-54785389D01*
X121184849Y-54866575D01*
X121008453Y-54984440D01*
X120858440Y-55134453D01*
X120740575Y-55310849D01*
X120659389Y-55506851D01*
X120618000Y-55714925D01*
X120618000Y-55927075D01*
X120659389Y-56135149D01*
X120740575Y-56331151D01*
X120858440Y-56507547D01*
X121008453Y-56657560D01*
X121184849Y-56775425D01*
X121380851Y-56856611D01*
X121588925Y-56898000D01*
X121801075Y-56898000D01*
X122009149Y-56856611D01*
X122205151Y-56775425D01*
X122318001Y-56700020D01*
X122318001Y-57481980D01*
X122205151Y-57406575D01*
X122009149Y-57325389D01*
X121801075Y-57284000D01*
X121588925Y-57284000D01*
X121380851Y-57325389D01*
X121184849Y-57406575D01*
X121008453Y-57524440D01*
X120858440Y-57674453D01*
X120740575Y-57850849D01*
X120659389Y-58046851D01*
X120618000Y-58254925D01*
X120618000Y-58467075D01*
X120659389Y-58675149D01*
X120740575Y-58871151D01*
X120858440Y-59047547D01*
X121008453Y-59197560D01*
X121184849Y-59315425D01*
X121380851Y-59396611D01*
X121588925Y-59438000D01*
X121801075Y-59438000D01*
X122009149Y-59396611D01*
X122205151Y-59315425D01*
X122318001Y-59240020D01*
X122318001Y-60021980D01*
X122205151Y-59946575D01*
X122009149Y-59865389D01*
X121801075Y-59824000D01*
X121588925Y-59824000D01*
X121380851Y-59865389D01*
X121184849Y-59946575D01*
X121008453Y-60064440D01*
X120858440Y-60214453D01*
X120740575Y-60390849D01*
X120659389Y-60586851D01*
X120618000Y-60794925D01*
X120618000Y-61007075D01*
X120659389Y-61215149D01*
X120740575Y-61411151D01*
X120858440Y-61587547D01*
X121008453Y-61737560D01*
X121184849Y-61855425D01*
X121380851Y-61936611D01*
X121588925Y-61978000D01*
X121801075Y-61978000D01*
X122009149Y-61936611D01*
X122205151Y-61855425D01*
X122318001Y-61780020D01*
X122318001Y-62561980D01*
X122205151Y-62486575D01*
X122009149Y-62405389D01*
X121801075Y-62364000D01*
X121588925Y-62364000D01*
X121380851Y-62405389D01*
X121184849Y-62486575D01*
X121008453Y-62604440D01*
X120858440Y-62754453D01*
X120740575Y-62930849D01*
X120659389Y-63126851D01*
X120618000Y-63334925D01*
X120618000Y-63547075D01*
X120659389Y-63755149D01*
X120740575Y-63951151D01*
X120858440Y-64127547D01*
X121008453Y-64277560D01*
X121184849Y-64395425D01*
X121380851Y-64476611D01*
X121588925Y-64518000D01*
X121801075Y-64518000D01*
X122009149Y-64476611D01*
X122205151Y-64395425D01*
X122318001Y-64320020D01*
X122318001Y-65101980D01*
X122205151Y-65026575D01*
X122009149Y-64945389D01*
X121801075Y-64904000D01*
X121588925Y-64904000D01*
X121380851Y-64945389D01*
X121184849Y-65026575D01*
X121008453Y-65144440D01*
X120858440Y-65294453D01*
X120740575Y-65470849D01*
X120659389Y-65666851D01*
X120618000Y-65874925D01*
X120618000Y-66087075D01*
X120659389Y-66295149D01*
X120740575Y-66491151D01*
X120858440Y-66667547D01*
X121008453Y-66817560D01*
X121184849Y-66935425D01*
X121380851Y-67016611D01*
X121588925Y-67058000D01*
X121801075Y-67058000D01*
X122009149Y-67016611D01*
X122205151Y-66935425D01*
X122318001Y-66860020D01*
X122318001Y-67641980D01*
X122205151Y-67566575D01*
X122009149Y-67485389D01*
X121801075Y-67444000D01*
X121588925Y-67444000D01*
X121380851Y-67485389D01*
X121184849Y-67566575D01*
X121008453Y-67684440D01*
X120858440Y-67834453D01*
X120740575Y-68010849D01*
X120659389Y-68206851D01*
X120618000Y-68414925D01*
X120618000Y-68627075D01*
X120659389Y-68835149D01*
X120740575Y-69031151D01*
X120858440Y-69207547D01*
X121008453Y-69357560D01*
X121184849Y-69475425D01*
X121380851Y-69556611D01*
X121588925Y-69598000D01*
X121801075Y-69598000D01*
X122009149Y-69556611D01*
X122205151Y-69475425D01*
X122318001Y-69400020D01*
X122318001Y-70181980D01*
X122205151Y-70106575D01*
X122009149Y-70025389D01*
X121801075Y-69984000D01*
X121588925Y-69984000D01*
X121380851Y-70025389D01*
X121184849Y-70106575D01*
X121008453Y-70224440D01*
X120858440Y-70374453D01*
X120740575Y-70550849D01*
X120659389Y-70746851D01*
X120618000Y-70954925D01*
X120618000Y-71167075D01*
X120659389Y-71375149D01*
X120740575Y-71571151D01*
X120858440Y-71747547D01*
X121008453Y-71897560D01*
X121184849Y-72015425D01*
X121380851Y-72096611D01*
X121588925Y-72138000D01*
X121801075Y-72138000D01*
X122009149Y-72096611D01*
X122205151Y-72015425D01*
X122318001Y-71940020D01*
X122318001Y-72721980D01*
X122205151Y-72646575D01*
X122009149Y-72565389D01*
X121801075Y-72524000D01*
X121588925Y-72524000D01*
X121380851Y-72565389D01*
X121184849Y-72646575D01*
X121008453Y-72764440D01*
X120858440Y-72914453D01*
X120740575Y-73090849D01*
X120659389Y-73286851D01*
X120618000Y-73494925D01*
X120618000Y-73707075D01*
X120659389Y-73915149D01*
X120740575Y-74111151D01*
X120858440Y-74287547D01*
X121008453Y-74437560D01*
X121184849Y-74555425D01*
X121380851Y-74636611D01*
X121588925Y-74678000D01*
X121801075Y-74678000D01*
X122009149Y-74636611D01*
X122205151Y-74555425D01*
X122318001Y-74480020D01*
X122318001Y-75352828D01*
X120499954Y-75353487D01*
X120475178Y-75355936D01*
X120451357Y-75363172D01*
X120429404Y-75374916D01*
X120410165Y-75390717D01*
X120394378Y-75409968D01*
X120382650Y-75431929D01*
X120375431Y-75455756D01*
X120373000Y-75480487D01*
X120373000Y-108024947D01*
X120330537Y-107945506D01*
X120251185Y-107848815D01*
X120154494Y-107769463D01*
X120044180Y-107710498D01*
X119924482Y-107674188D01*
X119800000Y-107661928D01*
X119510750Y-107665000D01*
X119352000Y-107823750D01*
X119352000Y-108873000D01*
X119372000Y-108873000D01*
X119372000Y-109127000D01*
X119352000Y-109127000D01*
X119352000Y-110176250D01*
X119510750Y-110335000D01*
X119800000Y-110338072D01*
X119924482Y-110325812D01*
X120044180Y-110289502D01*
X120154494Y-110230537D01*
X120251185Y-110151185D01*
X120330537Y-110054494D01*
X120373000Y-109975053D01*
X120373000Y-113570558D01*
X120350860Y-113529137D01*
X120111993Y-113463612D01*
X119334605Y-114241000D01*
X120111993Y-115018388D01*
X120350860Y-114952863D01*
X120373000Y-114905683D01*
X120373000Y-119893911D01*
X120065215Y-119897316D01*
X120109425Y-119831151D01*
X120190611Y-119635149D01*
X120232000Y-119427075D01*
X120232000Y-119214925D01*
X120190611Y-119006851D01*
X120109425Y-118810849D01*
X119991560Y-118634453D01*
X119841547Y-118484440D01*
X119665151Y-118366575D01*
X119469149Y-118285389D01*
X119261075Y-118244000D01*
X119048925Y-118244000D01*
X118840851Y-118285389D01*
X118644849Y-118366575D01*
X118468453Y-118484440D01*
X118318440Y-118634453D01*
X118200575Y-118810849D01*
X118119389Y-119006851D01*
X118078000Y-119214925D01*
X118078000Y-119427075D01*
X118119389Y-119635149D01*
X118200575Y-119831151D01*
X118258142Y-119917305D01*
X115237384Y-119950721D01*
X115211584Y-119936931D01*
X115324482Y-119925812D01*
X115444180Y-119889502D01*
X115554494Y-119830537D01*
X115651185Y-119751185D01*
X115730537Y-119654494D01*
X115789502Y-119544180D01*
X115825812Y-119424482D01*
X115838072Y-119300000D01*
X115835000Y-119010750D01*
X115676250Y-118852000D01*
X114627000Y-118852000D01*
X114627000Y-118872000D01*
X114373000Y-118872000D01*
X114373000Y-118852000D01*
X113323750Y-118852000D01*
X113165000Y-119010750D01*
X113161928Y-119300000D01*
X113174188Y-119424482D01*
X113210498Y-119544180D01*
X113269463Y-119654494D01*
X113348815Y-119751185D01*
X113445506Y-119830537D01*
X113555820Y-119889502D01*
X113675518Y-119925812D01*
X113788416Y-119936931D01*
X113731450Y-119967380D01*
X98377000Y-120137230D01*
X98377000Y-118150000D01*
X113161928Y-118150000D01*
X113165000Y-118439250D01*
X113323750Y-118598000D01*
X114373000Y-118598000D01*
X114373000Y-117673750D01*
X114627000Y-117673750D01*
X114627000Y-118598000D01*
X115676250Y-118598000D01*
X115835000Y-118439250D01*
X115838072Y-118150000D01*
X115825812Y-118025518D01*
X115789502Y-117905820D01*
X115730537Y-117795506D01*
X115651185Y-117698815D01*
X115554494Y-117619463D01*
X115444180Y-117560498D01*
X115324482Y-117524188D01*
X115200000Y-117511928D01*
X114785750Y-117515000D01*
X114627000Y-117673750D01*
X114373000Y-117673750D01*
X114214250Y-117515000D01*
X113800000Y-117511928D01*
X113675518Y-117524188D01*
X113555820Y-117560498D01*
X113445506Y-117619463D01*
X113348815Y-117698815D01*
X113269463Y-117795506D01*
X113210498Y-117905820D01*
X113174188Y-118025518D01*
X113161928Y-118150000D01*
X98377000Y-118150000D01*
X98377000Y-116674925D01*
X118078000Y-116674925D01*
X118078000Y-116887075D01*
X118119389Y-117095149D01*
X118200575Y-117291151D01*
X118318440Y-117467547D01*
X118468453Y-117617560D01*
X118644849Y-117735425D01*
X118840851Y-117816611D01*
X119048925Y-117858000D01*
X119261075Y-117858000D01*
X119469149Y-117816611D01*
X119665151Y-117735425D01*
X119841547Y-117617560D01*
X119991560Y-117467547D01*
X120109425Y-117291151D01*
X120190611Y-117095149D01*
X120232000Y-116887075D01*
X120232000Y-116674925D01*
X120190611Y-116466851D01*
X120109425Y-116270849D01*
X119991560Y-116094453D01*
X119841547Y-115944440D01*
X119665151Y-115826575D01*
X119469149Y-115745389D01*
X119261075Y-115704000D01*
X119048925Y-115704000D01*
X118840851Y-115745389D01*
X118644849Y-115826575D01*
X118468453Y-115944440D01*
X118318440Y-116094453D01*
X118200575Y-116270849D01*
X118119389Y-116466851D01*
X118078000Y-116674925D01*
X98377000Y-116674925D01*
X98377000Y-115197993D01*
X118377612Y-115197993D01*
X118443137Y-115436860D01*
X118690116Y-115552760D01*
X118954960Y-115618250D01*
X119227492Y-115630812D01*
X119497238Y-115589965D01*
X119753832Y-115497277D01*
X119866863Y-115436860D01*
X119932388Y-115197993D01*
X119155000Y-114420605D01*
X118377612Y-115197993D01*
X98377000Y-115197993D01*
X98377000Y-114313492D01*
X117765188Y-114313492D01*
X117806035Y-114583238D01*
X117898723Y-114839832D01*
X117959140Y-114952863D01*
X118198007Y-115018388D01*
X118975395Y-114241000D01*
X118198007Y-113463612D01*
X117959140Y-113529137D01*
X117843240Y-113776116D01*
X117777750Y-114040960D01*
X117765188Y-114313492D01*
X98377000Y-114313492D01*
X98377000Y-113284007D01*
X118377612Y-113284007D01*
X119155000Y-114061395D01*
X119932388Y-113284007D01*
X119866863Y-113045140D01*
X119619884Y-112929240D01*
X119355040Y-112863750D01*
X119082508Y-112851188D01*
X118812762Y-112892035D01*
X118556168Y-112984723D01*
X118443137Y-113045140D01*
X118377612Y-113284007D01*
X98377000Y-113284007D01*
X98377000Y-112376592D01*
X101000408Y-112368155D01*
X101025177Y-112365635D01*
X101048978Y-112358332D01*
X101070897Y-112346525D01*
X101090091Y-112330669D01*
X101105823Y-112311373D01*
X101117488Y-112289379D01*
X101124639Y-112265532D01*
X101126997Y-112240213D01*
X101108142Y-109700000D01*
X118011928Y-109700000D01*
X118024188Y-109824482D01*
X118060498Y-109944180D01*
X118119463Y-110054494D01*
X118198815Y-110151185D01*
X118295506Y-110230537D01*
X118405820Y-110289502D01*
X118525518Y-110325812D01*
X118650000Y-110338072D01*
X118939250Y-110335000D01*
X119098000Y-110176250D01*
X119098000Y-109127000D01*
X118173750Y-109127000D01*
X118015000Y-109285750D01*
X118011928Y-109700000D01*
X101108142Y-109700000D01*
X101097750Y-108300000D01*
X118011928Y-108300000D01*
X118015000Y-108714250D01*
X118173750Y-108873000D01*
X119098000Y-108873000D01*
X119098000Y-107823750D01*
X118939250Y-107665000D01*
X118650000Y-107661928D01*
X118525518Y-107674188D01*
X118405820Y-107710498D01*
X118295506Y-107769463D01*
X118198815Y-107848815D01*
X118119463Y-107945506D01*
X118060498Y-108055820D01*
X118024188Y-108175518D01*
X118011928Y-108300000D01*
X101097750Y-108300000D01*
X101045448Y-101254076D01*
X105631000Y-101254076D01*
X105631000Y-101485924D01*
X105676231Y-101713318D01*
X105764956Y-101927519D01*
X105893764Y-102120294D01*
X106057706Y-102284236D01*
X106250481Y-102413044D01*
X106464682Y-102501769D01*
X106692076Y-102547000D01*
X106923924Y-102547000D01*
X107151318Y-102501769D01*
X107365519Y-102413044D01*
X107558294Y-102284236D01*
X107722236Y-102120294D01*
X107851044Y-101927519D01*
X107939769Y-101713318D01*
X107985000Y-101485924D01*
X107985000Y-101254076D01*
X109131000Y-101254076D01*
X109131000Y-101485924D01*
X109176231Y-101713318D01*
X109264956Y-101927519D01*
X109393764Y-102120294D01*
X109557706Y-102284236D01*
X109750481Y-102413044D01*
X109964682Y-102501769D01*
X110192076Y-102547000D01*
X110423924Y-102547000D01*
X110651318Y-102501769D01*
X110865519Y-102413044D01*
X111058294Y-102284236D01*
X111222236Y-102120294D01*
X111351044Y-101927519D01*
X111439769Y-101713318D01*
X111485000Y-101485924D01*
X111485000Y-101254076D01*
X111439769Y-101026682D01*
X111351044Y-100812481D01*
X111222236Y-100619706D01*
X111058294Y-100455764D01*
X110865519Y-100326956D01*
X110651318Y-100238231D01*
X110423924Y-100193000D01*
X110192076Y-100193000D01*
X109964682Y-100238231D01*
X109750481Y-100326956D01*
X109557706Y-100455764D01*
X109393764Y-100619706D01*
X109264956Y-100812481D01*
X109176231Y-101026682D01*
X109131000Y-101254076D01*
X107985000Y-101254076D01*
X107939769Y-101026682D01*
X107851044Y-100812481D01*
X107722236Y-100619706D01*
X107558294Y-100455764D01*
X107365519Y-100326956D01*
X107151318Y-100238231D01*
X106923924Y-100193000D01*
X106692076Y-100193000D01*
X106464682Y-100238231D01*
X106250481Y-100326956D01*
X106057706Y-100455764D01*
X105893764Y-100619706D01*
X105764956Y-100812481D01*
X105676231Y-101026682D01*
X105631000Y-101254076D01*
X101045448Y-101254076D01*
X100922119Y-84639423D01*
X100937519Y-84633044D01*
X101130294Y-84504236D01*
X101294236Y-84340294D01*
X101423044Y-84147519D01*
X101511769Y-83933318D01*
X101557000Y-83705924D01*
X101557000Y-83474076D01*
X101713000Y-83474076D01*
X101713000Y-83705924D01*
X101758231Y-83933318D01*
X101846956Y-84147519D01*
X101975764Y-84340294D01*
X102139706Y-84504236D01*
X102332481Y-84633044D01*
X102546682Y-84721769D01*
X102774076Y-84767000D01*
X103005924Y-84767000D01*
X103233318Y-84721769D01*
X103447519Y-84633044D01*
X103640294Y-84504236D01*
X103804236Y-84340294D01*
X103933044Y-84147519D01*
X104021769Y-83933318D01*
X104067000Y-83705924D01*
X104067000Y-83474076D01*
X104283000Y-83474076D01*
X104283000Y-83705924D01*
X104328231Y-83933318D01*
X104416956Y-84147519D01*
X104545764Y-84340294D01*
X104709706Y-84504236D01*
X104902481Y-84633044D01*
X105116682Y-84721769D01*
X105344076Y-84767000D01*
X105575924Y-84767000D01*
X105803318Y-84721769D01*
X106017519Y-84633044D01*
X106210294Y-84504236D01*
X106374236Y-84340294D01*
X106503044Y-84147519D01*
X106591769Y-83933318D01*
X106637000Y-83705924D01*
X106637000Y-83474076D01*
X106591769Y-83246682D01*
X106503044Y-83032481D01*
X106374236Y-82839706D01*
X106274530Y-82740000D01*
X106821418Y-82740000D01*
X106821418Y-84440000D01*
X106827732Y-84504103D01*
X106846430Y-84565743D01*
X106876794Y-84622550D01*
X106917657Y-84672343D01*
X106967450Y-84713206D01*
X107024257Y-84743570D01*
X107085897Y-84762268D01*
X107150000Y-84768582D01*
X108850000Y-84768582D01*
X108914103Y-84762268D01*
X108975743Y-84743570D01*
X109032550Y-84713206D01*
X109082343Y-84672343D01*
X109123206Y-84622550D01*
X109153570Y-84565743D01*
X109172268Y-84504103D01*
X109178582Y-84440000D01*
X109178582Y-82740000D01*
X109172268Y-82675897D01*
X109153570Y-82614257D01*
X109123206Y-82557450D01*
X109082343Y-82507657D01*
X109032550Y-82466794D01*
X108975743Y-82436430D01*
X108914103Y-82417732D01*
X108850000Y-82411418D01*
X107150000Y-82411418D01*
X107085897Y-82417732D01*
X107024257Y-82436430D01*
X106967450Y-82466794D01*
X106917657Y-82507657D01*
X106876794Y-82557450D01*
X106846430Y-82614257D01*
X106827732Y-82675897D01*
X106821418Y-82740000D01*
X106274530Y-82740000D01*
X106210294Y-82675764D01*
X106017519Y-82546956D01*
X105803318Y-82458231D01*
X105575924Y-82413000D01*
X105344076Y-82413000D01*
X105116682Y-82458231D01*
X104902481Y-82546956D01*
X104709706Y-82675764D01*
X104545764Y-82839706D01*
X104416956Y-83032481D01*
X104328231Y-83246682D01*
X104283000Y-83474076D01*
X104067000Y-83474076D01*
X104021769Y-83246682D01*
X103933044Y-83032481D01*
X103804236Y-82839706D01*
X103640294Y-82675764D01*
X103447519Y-82546956D01*
X103233318Y-82458231D01*
X103005924Y-82413000D01*
X102774076Y-82413000D01*
X102546682Y-82458231D01*
X102332481Y-82546956D01*
X102139706Y-82675764D01*
X101975764Y-82839706D01*
X101846956Y-83032481D01*
X101758231Y-83246682D01*
X101713000Y-83474076D01*
X101557000Y-83474076D01*
X101511769Y-83246682D01*
X101423044Y-83032481D01*
X101294236Y-82839706D01*
X101130294Y-82675764D01*
X100937519Y-82546956D01*
X100906492Y-82534104D01*
X100853991Y-75461351D01*
X101088336Y-75438270D01*
X101327129Y-75365833D01*
X101547201Y-75248202D01*
X101740097Y-75089897D01*
X101898402Y-74897001D01*
X102016033Y-74676929D01*
X102088470Y-74438136D01*
X102106800Y-74252029D01*
X102106800Y-72247972D01*
X102113200Y-72247972D01*
X102113201Y-74252029D01*
X102131531Y-74438136D01*
X102203968Y-74676929D01*
X102321599Y-74897001D01*
X102479904Y-75089897D01*
X102672800Y-75248202D01*
X102892872Y-75365833D01*
X103131665Y-75438270D01*
X103380000Y-75462729D01*
X103628336Y-75438270D01*
X103867129Y-75365833D01*
X104087201Y-75248202D01*
X104280097Y-75089897D01*
X104438402Y-74897001D01*
X104478854Y-74821320D01*
X104513675Y-74909783D01*
X104681159Y-75170309D01*
X104896251Y-75393155D01*
X105150685Y-75569756D01*
X105434683Y-75693326D01*
X105549013Y-75720279D01*
X105793000Y-75600143D01*
X105793000Y-73377000D01*
X105773000Y-73377000D01*
X105773000Y-73123000D01*
X105793000Y-73123000D01*
X105793000Y-70899857D01*
X106047000Y-70899857D01*
X106047000Y-73123000D01*
X106067000Y-73123000D01*
X106067000Y-73377000D01*
X106047000Y-73377000D01*
X106047000Y-75600143D01*
X106290987Y-75720279D01*
X106405317Y-75693326D01*
X106689315Y-75569756D01*
X106943749Y-75393155D01*
X107158841Y-75170309D01*
X107326325Y-74909783D01*
X107361146Y-74821319D01*
X107401599Y-74897001D01*
X107559904Y-75089897D01*
X107752800Y-75248202D01*
X107972872Y-75365833D01*
X108211665Y-75438270D01*
X108460000Y-75462729D01*
X108708336Y-75438270D01*
X108947129Y-75365833D01*
X109167201Y-75248202D01*
X109360097Y-75089897D01*
X109518402Y-74897001D01*
X109636033Y-74676929D01*
X109708470Y-74438136D01*
X109726800Y-74252029D01*
X109726800Y-72247972D01*
X109733200Y-72247972D01*
X109733201Y-74252029D01*
X109751531Y-74438136D01*
X109823968Y-74676929D01*
X109941599Y-74897001D01*
X110099904Y-75089897D01*
X110292800Y-75248202D01*
X110512872Y-75365833D01*
X110751665Y-75438270D01*
X111000000Y-75462729D01*
X111248336Y-75438270D01*
X111487129Y-75365833D01*
X111707201Y-75248202D01*
X111900097Y-75089897D01*
X112058402Y-74897001D01*
X112176033Y-74676929D01*
X112248470Y-74438136D01*
X112266800Y-74252029D01*
X112266800Y-73494925D01*
X118078000Y-73494925D01*
X118078000Y-73707075D01*
X118119389Y-73915149D01*
X118200575Y-74111151D01*
X118318440Y-74287547D01*
X118468453Y-74437560D01*
X118644849Y-74555425D01*
X118840851Y-74636611D01*
X119048925Y-74678000D01*
X119261075Y-74678000D01*
X119469149Y-74636611D01*
X119665151Y-74555425D01*
X119841547Y-74437560D01*
X119991560Y-74287547D01*
X120109425Y-74111151D01*
X120190611Y-73915149D01*
X120232000Y-73707075D01*
X120232000Y-73494925D01*
X120190611Y-73286851D01*
X120109425Y-73090849D01*
X119991560Y-72914453D01*
X119841547Y-72764440D01*
X119665151Y-72646575D01*
X119469149Y-72565389D01*
X119261075Y-72524000D01*
X119048925Y-72524000D01*
X118840851Y-72565389D01*
X118644849Y-72646575D01*
X118468453Y-72764440D01*
X118318440Y-72914453D01*
X118200575Y-73090849D01*
X118119389Y-73286851D01*
X118078000Y-73494925D01*
X112266800Y-73494925D01*
X112266800Y-72247971D01*
X112248470Y-72061864D01*
X112176033Y-71823071D01*
X112058402Y-71602999D01*
X111900097Y-71410103D01*
X111707200Y-71251798D01*
X111487128Y-71134167D01*
X111248335Y-71061730D01*
X111000000Y-71037271D01*
X110751664Y-71061730D01*
X110512871Y-71134167D01*
X110292799Y-71251798D01*
X110099903Y-71410103D01*
X109941598Y-71603000D01*
X109823967Y-71823072D01*
X109751530Y-72061865D01*
X109733200Y-72247972D01*
X109726800Y-72247972D01*
X109726800Y-72247971D01*
X109708470Y-72061864D01*
X109636033Y-71823071D01*
X109518402Y-71602999D01*
X109360097Y-71410103D01*
X109167200Y-71251798D01*
X108947128Y-71134167D01*
X108708335Y-71061730D01*
X108460000Y-71037271D01*
X108211664Y-71061730D01*
X107972871Y-71134167D01*
X107752799Y-71251798D01*
X107559903Y-71410103D01*
X107401598Y-71603000D01*
X107361146Y-71678681D01*
X107326325Y-71590217D01*
X107158841Y-71329691D01*
X106943749Y-71106845D01*
X106724874Y-70954925D01*
X118078000Y-70954925D01*
X118078000Y-71167075D01*
X118119389Y-71375149D01*
X118200575Y-71571151D01*
X118318440Y-71747547D01*
X118468453Y-71897560D01*
X118644849Y-72015425D01*
X118840851Y-72096611D01*
X119048925Y-72138000D01*
X119261075Y-72138000D01*
X119469149Y-72096611D01*
X119665151Y-72015425D01*
X119841547Y-71897560D01*
X119991560Y-71747547D01*
X120109425Y-71571151D01*
X120190611Y-71375149D01*
X120232000Y-71167075D01*
X120232000Y-70954925D01*
X120190611Y-70746851D01*
X120109425Y-70550849D01*
X119991560Y-70374453D01*
X119841547Y-70224440D01*
X119665151Y-70106575D01*
X119469149Y-70025389D01*
X119261075Y-69984000D01*
X119048925Y-69984000D01*
X118840851Y-70025389D01*
X118644849Y-70106575D01*
X118468453Y-70224440D01*
X118318440Y-70374453D01*
X118200575Y-70550849D01*
X118119389Y-70746851D01*
X118078000Y-70954925D01*
X106724874Y-70954925D01*
X106689315Y-70930244D01*
X106405317Y-70806674D01*
X106290987Y-70779721D01*
X106047000Y-70899857D01*
X105793000Y-70899857D01*
X105549475Y-70779948D01*
X107914498Y-68414925D01*
X118078000Y-68414925D01*
X118078000Y-68627075D01*
X118119389Y-68835149D01*
X118200575Y-69031151D01*
X118318440Y-69207547D01*
X118468453Y-69357560D01*
X118644849Y-69475425D01*
X118840851Y-69556611D01*
X119048925Y-69598000D01*
X119261075Y-69598000D01*
X119469149Y-69556611D01*
X119665151Y-69475425D01*
X119841547Y-69357560D01*
X119991560Y-69207547D01*
X120109425Y-69031151D01*
X120190611Y-68835149D01*
X120232000Y-68627075D01*
X120232000Y-68414925D01*
X120190611Y-68206851D01*
X120109425Y-68010849D01*
X119991560Y-67834453D01*
X119841547Y-67684440D01*
X119665151Y-67566575D01*
X119469149Y-67485389D01*
X119261075Y-67444000D01*
X119048925Y-67444000D01*
X118840851Y-67485389D01*
X118644849Y-67566575D01*
X118468453Y-67684440D01*
X118318440Y-67834453D01*
X118200575Y-68010849D01*
X118119389Y-68206851D01*
X118078000Y-68414925D01*
X107914498Y-68414925D01*
X110454498Y-65874925D01*
X118078000Y-65874925D01*
X118078000Y-66087075D01*
X118119389Y-66295149D01*
X118200575Y-66491151D01*
X118318440Y-66667547D01*
X118468453Y-66817560D01*
X118644849Y-66935425D01*
X118840851Y-67016611D01*
X119048925Y-67058000D01*
X119261075Y-67058000D01*
X119469149Y-67016611D01*
X119665151Y-66935425D01*
X119841547Y-66817560D01*
X119991560Y-66667547D01*
X120109425Y-66491151D01*
X120190611Y-66295149D01*
X120232000Y-66087075D01*
X120232000Y-65874925D01*
X120190611Y-65666851D01*
X120109425Y-65470849D01*
X119991560Y-65294453D01*
X119841547Y-65144440D01*
X119665151Y-65026575D01*
X119469149Y-64945389D01*
X119261075Y-64904000D01*
X119048925Y-64904000D01*
X118840851Y-64945389D01*
X118644849Y-65026575D01*
X118468453Y-65144440D01*
X118318440Y-65294453D01*
X118200575Y-65470849D01*
X118119389Y-65666851D01*
X118078000Y-65874925D01*
X110454498Y-65874925D01*
X112994498Y-63334925D01*
X118078000Y-63334925D01*
X118078000Y-63547075D01*
X118119389Y-63755149D01*
X118200575Y-63951151D01*
X118318440Y-64127547D01*
X118468453Y-64277560D01*
X118644849Y-64395425D01*
X118840851Y-64476611D01*
X119048925Y-64518000D01*
X119261075Y-64518000D01*
X119469149Y-64476611D01*
X119665151Y-64395425D01*
X119841547Y-64277560D01*
X119991560Y-64127547D01*
X120109425Y-63951151D01*
X120190611Y-63755149D01*
X120232000Y-63547075D01*
X120232000Y-63334925D01*
X120190611Y-63126851D01*
X120109425Y-62930849D01*
X119991560Y-62754453D01*
X119841547Y-62604440D01*
X119665151Y-62486575D01*
X119469149Y-62405389D01*
X119261075Y-62364000D01*
X119048925Y-62364000D01*
X118840851Y-62405389D01*
X118644849Y-62486575D01*
X118468453Y-62604440D01*
X118318440Y-62754453D01*
X118200575Y-62930849D01*
X118119389Y-63126851D01*
X118078000Y-63334925D01*
X112994498Y-63334925D01*
X115534498Y-60794925D01*
X118078000Y-60794925D01*
X118078000Y-61007075D01*
X118119389Y-61215149D01*
X118200575Y-61411151D01*
X118318440Y-61587547D01*
X118468453Y-61737560D01*
X118644849Y-61855425D01*
X118840851Y-61936611D01*
X119048925Y-61978000D01*
X119261075Y-61978000D01*
X119469149Y-61936611D01*
X119665151Y-61855425D01*
X119841547Y-61737560D01*
X119991560Y-61587547D01*
X120109425Y-61411151D01*
X120190611Y-61215149D01*
X120232000Y-61007075D01*
X120232000Y-60794925D01*
X120190611Y-60586851D01*
X120109425Y-60390849D01*
X119991560Y-60214453D01*
X119841547Y-60064440D01*
X119665151Y-59946575D01*
X119469149Y-59865389D01*
X119261075Y-59824000D01*
X119048925Y-59824000D01*
X118840851Y-59865389D01*
X118644849Y-59946575D01*
X118468453Y-60064440D01*
X118318440Y-60214453D01*
X118200575Y-60390849D01*
X118119389Y-60586851D01*
X118078000Y-60794925D01*
X115534498Y-60794925D01*
X117516424Y-58813000D01*
X118176488Y-58813000D01*
X118200575Y-58871151D01*
X118318440Y-59047547D01*
X118468453Y-59197560D01*
X118644849Y-59315425D01*
X118840851Y-59396611D01*
X119048925Y-59438000D01*
X119261075Y-59438000D01*
X119469149Y-59396611D01*
X119665151Y-59315425D01*
X119841547Y-59197560D01*
X119991560Y-59047547D01*
X120109425Y-58871151D01*
X120190611Y-58675149D01*
X120232000Y-58467075D01*
X120232000Y-58254925D01*
X120190611Y-58046851D01*
X120109425Y-57850849D01*
X119991560Y-57674453D01*
X119841547Y-57524440D01*
X119665151Y-57406575D01*
X119469149Y-57325389D01*
X119261075Y-57284000D01*
X119048925Y-57284000D01*
X118840851Y-57325389D01*
X118644849Y-57406575D01*
X118468453Y-57524440D01*
X118318440Y-57674453D01*
X118200575Y-57850849D01*
X118176488Y-57909000D01*
X117351405Y-57909000D01*
X117329200Y-57906813D01*
X117240592Y-57915540D01*
X117155390Y-57941386D01*
X117076867Y-57983357D01*
X117008041Y-58039841D01*
X116993881Y-58057095D01*
X103899504Y-71151473D01*
X103867128Y-71134167D01*
X103628335Y-71061730D01*
X103380000Y-71037271D01*
X103131664Y-71061730D01*
X102892871Y-71134167D01*
X102672799Y-71251798D01*
X102479903Y-71410103D01*
X102321598Y-71603000D01*
X102203967Y-71823072D01*
X102131530Y-72061865D01*
X102113200Y-72247972D01*
X102106800Y-72247972D01*
X102106800Y-72247971D01*
X102088470Y-72061864D01*
X102016033Y-71823071D01*
X101998728Y-71790695D01*
X117516425Y-56273000D01*
X118176488Y-56273000D01*
X118200575Y-56331151D01*
X118318440Y-56507547D01*
X118468453Y-56657560D01*
X118644849Y-56775425D01*
X118840851Y-56856611D01*
X119048925Y-56898000D01*
X119261075Y-56898000D01*
X119469149Y-56856611D01*
X119665151Y-56775425D01*
X119841547Y-56657560D01*
X119991560Y-56507547D01*
X120109425Y-56331151D01*
X120190611Y-56135149D01*
X120232000Y-55927075D01*
X120232000Y-55714925D01*
X120190611Y-55506851D01*
X120109425Y-55310849D01*
X119991560Y-55134453D01*
X119841547Y-54984440D01*
X119665151Y-54866575D01*
X119469149Y-54785389D01*
X119261075Y-54744000D01*
X119048925Y-54744000D01*
X118840851Y-54785389D01*
X118644849Y-54866575D01*
X118468453Y-54984440D01*
X118318440Y-55134453D01*
X118200575Y-55310849D01*
X118176488Y-55369000D01*
X117351404Y-55369000D01*
X117329199Y-55366813D01*
X117240592Y-55375540D01*
X117220762Y-55381556D01*
X117155390Y-55401386D01*
X117076867Y-55443357D01*
X117008041Y-55499841D01*
X116993886Y-55517089D01*
X101359504Y-71151473D01*
X101327128Y-71134167D01*
X101088335Y-71061730D01*
X100840000Y-71037271D01*
X100821165Y-71039126D01*
X100700883Y-54834830D01*
X108323000Y-54834830D01*
X108323000Y-55165170D01*
X108387446Y-55489163D01*
X108513862Y-55794357D01*
X108697389Y-56069025D01*
X108930975Y-56302611D01*
X109205643Y-56486138D01*
X109510837Y-56612554D01*
X109834830Y-56677000D01*
X110165170Y-56677000D01*
X110489163Y-56612554D01*
X110794357Y-56486138D01*
X111069025Y-56302611D01*
X111302611Y-56069025D01*
X111486138Y-55794357D01*
X111612554Y-55489163D01*
X111677000Y-55165170D01*
X111677000Y-54834830D01*
X111612554Y-54510837D01*
X111486138Y-54205643D01*
X111302611Y-53930975D01*
X111069025Y-53697389D01*
X110794357Y-53513862D01*
X110489163Y-53387446D01*
X110165170Y-53323000D01*
X109834830Y-53323000D01*
X109510837Y-53387446D01*
X109205643Y-53513862D01*
X108930975Y-53697389D01*
X108697389Y-53930975D01*
X108513862Y-54205643D01*
X108387446Y-54510837D01*
X108323000Y-54834830D01*
X100700883Y-54834830D01*
X100688562Y-53174925D01*
X118078000Y-53174925D01*
X118078000Y-53387075D01*
X118119389Y-53595149D01*
X118200575Y-53791151D01*
X118318440Y-53967547D01*
X118468453Y-54117560D01*
X118644849Y-54235425D01*
X118840851Y-54316611D01*
X119048925Y-54358000D01*
X119261075Y-54358000D01*
X119469149Y-54316611D01*
X119665151Y-54235425D01*
X119841547Y-54117560D01*
X119991560Y-53967547D01*
X120109425Y-53791151D01*
X120190611Y-53595149D01*
X120232000Y-53387075D01*
X120232000Y-53174925D01*
X120190611Y-52966851D01*
X120109425Y-52770849D01*
X119991560Y-52594453D01*
X119841547Y-52444440D01*
X119665151Y-52326575D01*
X119469149Y-52245389D01*
X119261075Y-52204000D01*
X119048925Y-52204000D01*
X118840851Y-52245389D01*
X118644849Y-52326575D01*
X118468453Y-52444440D01*
X118318440Y-52594453D01*
X118200575Y-52770849D01*
X118119389Y-52966851D01*
X118078000Y-53174925D01*
X100688562Y-53174925D01*
X100677599Y-51697993D01*
X118377612Y-51697993D01*
X118443137Y-51936860D01*
X118690116Y-52052760D01*
X118954960Y-52118250D01*
X119227492Y-52130812D01*
X119497238Y-52089965D01*
X119753832Y-51997277D01*
X119866863Y-51936860D01*
X119932388Y-51697993D01*
X119155000Y-50920605D01*
X118377612Y-51697993D01*
X100677599Y-51697993D01*
X100671033Y-50813492D01*
X117765188Y-50813492D01*
X117806035Y-51083238D01*
X117898723Y-51339832D01*
X117959140Y-51452863D01*
X118198007Y-51518388D01*
X118975395Y-50741000D01*
X119334605Y-50741000D01*
X120111993Y-51518388D01*
X120350860Y-51452863D01*
X120466760Y-51205884D01*
X120532250Y-50941040D01*
X120544812Y-50668508D01*
X120503965Y-50398762D01*
X120411277Y-50142168D01*
X120350860Y-50029137D01*
X120111993Y-49963612D01*
X119334605Y-50741000D01*
X118975395Y-50741000D01*
X118198007Y-49963612D01*
X117959140Y-50029137D01*
X117843240Y-50276116D01*
X117777750Y-50540960D01*
X117765188Y-50813492D01*
X100671033Y-50813492D01*
X100663392Y-49784007D01*
X118377612Y-49784007D01*
X119155000Y-50561395D01*
X119932388Y-49784007D01*
X119866863Y-49545140D01*
X119619884Y-49429240D01*
X119355040Y-49363750D01*
X119082508Y-49351188D01*
X118812762Y-49392035D01*
X118556168Y-49484723D01*
X118443137Y-49545140D01*
X118377612Y-49784007D01*
X100663392Y-49784007D01*
X100627948Y-45009217D01*
X189373000Y-45126832D01*
M02*
