G04 #@! TF.GenerationSoftware,KiCad,Pcbnew,(5.1.4)-1*
G04 #@! TF.CreationDate,2019-11-19T22:58:14-05:00*
G04 #@! TF.ProjectId,Blinky,426c696e-6b79-42e6-9b69-6361645f7063,rev?*
G04 #@! TF.SameCoordinates,Original*
G04 #@! TF.FileFunction,Copper,L2,Bot*
G04 #@! TF.FilePolarity,Positive*
%FSLAX46Y46*%
G04 Gerber Fmt 4.6, Leading zero omitted, Abs format (unit mm)*
G04 Created by KiCad (PCBNEW (5.1.4)-1) date 2019-11-19 22:58:14*
%MOMM*%
%LPD*%
G04 APERTURE LIST*
%ADD10R,1.700000X1.700000*%
%ADD11C,0.800000*%
%ADD12C,0.250000*%
G04 APERTURE END LIST*
D10*
X134000000Y30000000D03*
X108750000Y30000000D03*
D11*
X113000000Y11500000D03*
X113000000Y24500000D03*
X118750000Y22000000D03*
D12*
G36*
X137600000Y4400000D02*
G01*
X104400000Y4400000D01*
X104400000Y30850000D01*
X107523186Y30850000D01*
X107523186Y29150000D01*
X107530426Y29076487D01*
X107551869Y29005800D01*
X107586691Y28940653D01*
X107633552Y28883552D01*
X107690653Y28836691D01*
X107755800Y28801869D01*
X107826487Y28780426D01*
X107900000Y28773186D01*
X109600000Y28773186D01*
X109673513Y28780426D01*
X109744200Y28801869D01*
X109809347Y28836691D01*
X109866448Y28883552D01*
X109913309Y28940653D01*
X109948131Y29005800D01*
X109969574Y29076487D01*
X109976814Y29150000D01*
X132521976Y29150000D01*
X132534043Y29027479D01*
X132569781Y28909666D01*
X132627817Y28801089D01*
X132705920Y28705920D01*
X132801089Y28627817D01*
X132909666Y28569781D01*
X133027479Y28534043D01*
X133150000Y28521976D01*
X133718750Y28525000D01*
X133875000Y28681250D01*
X133875000Y29875000D01*
X134125000Y29875000D01*
X134125000Y28681250D01*
X134281250Y28525000D01*
X134850000Y28521976D01*
X134972521Y28534043D01*
X135090334Y28569781D01*
X135198911Y28627817D01*
X135294080Y28705920D01*
X135372183Y28801089D01*
X135430219Y28909666D01*
X135465957Y29027479D01*
X135478024Y29150000D01*
X135475000Y29718750D01*
X135318750Y29875000D01*
X134125000Y29875000D01*
X133875000Y29875000D01*
X132681250Y29875000D01*
X132525000Y29718750D01*
X132521976Y29150000D01*
X109976814Y29150000D01*
X109976814Y30850000D01*
X132521976Y30850000D01*
X132525000Y30281250D01*
X132681250Y30125000D01*
X133875000Y30125000D01*
X133875000Y31318750D01*
X134125000Y31318750D01*
X134125000Y30125000D01*
X135318750Y30125000D01*
X135475000Y30281250D01*
X135478024Y30850000D01*
X135465957Y30972521D01*
X135430219Y31090334D01*
X135372183Y31198911D01*
X135294080Y31294080D01*
X135198911Y31372183D01*
X135090334Y31430219D01*
X134972521Y31465957D01*
X134850000Y31478024D01*
X134281250Y31475000D01*
X134125000Y31318750D01*
X133875000Y31318750D01*
X133718750Y31475000D01*
X133150000Y31478024D01*
X133027479Y31465957D01*
X132909666Y31430219D01*
X132801089Y31372183D01*
X132705920Y31294080D01*
X132627817Y31198911D01*
X132569781Y31090334D01*
X132534043Y30972521D01*
X132521976Y30850000D01*
X109976814Y30850000D01*
X109969574Y30923513D01*
X109948131Y30994200D01*
X109913309Y31059347D01*
X109866448Y31116448D01*
X109809347Y31163309D01*
X109744200Y31198131D01*
X109673513Y31219574D01*
X109600000Y31226814D01*
X107900000Y31226814D01*
X107826487Y31219574D01*
X107755800Y31198131D01*
X107690653Y31163309D01*
X107633552Y31116448D01*
X107586691Y31059347D01*
X107551869Y30994200D01*
X107530426Y30923513D01*
X107523186Y30850000D01*
X104400000Y30850000D01*
X104400000Y33600000D01*
X137600001Y33600000D01*
X137600000Y4400000D01*
X137600000Y4400000D01*
G37*
X137600000Y4400000D02*
X104400000Y4400000D01*
X104400000Y30850000D01*
X107523186Y30850000D01*
X107523186Y29150000D01*
X107530426Y29076487D01*
X107551869Y29005800D01*
X107586691Y28940653D01*
X107633552Y28883552D01*
X107690653Y28836691D01*
X107755800Y28801869D01*
X107826487Y28780426D01*
X107900000Y28773186D01*
X109600000Y28773186D01*
X109673513Y28780426D01*
X109744200Y28801869D01*
X109809347Y28836691D01*
X109866448Y28883552D01*
X109913309Y28940653D01*
X109948131Y29005800D01*
X109969574Y29076487D01*
X109976814Y29150000D01*
X132521976Y29150000D01*
X132534043Y29027479D01*
X132569781Y28909666D01*
X132627817Y28801089D01*
X132705920Y28705920D01*
X132801089Y28627817D01*
X132909666Y28569781D01*
X133027479Y28534043D01*
X133150000Y28521976D01*
X133718750Y28525000D01*
X133875000Y28681250D01*
X133875000Y29875000D01*
X134125000Y29875000D01*
X134125000Y28681250D01*
X134281250Y28525000D01*
X134850000Y28521976D01*
X134972521Y28534043D01*
X135090334Y28569781D01*
X135198911Y28627817D01*
X135294080Y28705920D01*
X135372183Y28801089D01*
X135430219Y28909666D01*
X135465957Y29027479D01*
X135478024Y29150000D01*
X135475000Y29718750D01*
X135318750Y29875000D01*
X134125000Y29875000D01*
X133875000Y29875000D01*
X132681250Y29875000D01*
X132525000Y29718750D01*
X132521976Y29150000D01*
X109976814Y29150000D01*
X109976814Y30850000D01*
X132521976Y30850000D01*
X132525000Y30281250D01*
X132681250Y30125000D01*
X133875000Y30125000D01*
X133875000Y31318750D01*
X134125000Y31318750D01*
X134125000Y30125000D01*
X135318750Y30125000D01*
X135475000Y30281250D01*
X135478024Y30850000D01*
X135465957Y30972521D01*
X135430219Y31090334D01*
X135372183Y31198911D01*
X135294080Y31294080D01*
X135198911Y31372183D01*
X135090334Y31430219D01*
X134972521Y31465957D01*
X134850000Y31478024D01*
X134281250Y31475000D01*
X134125000Y31318750D01*
X133875000Y31318750D01*
X133718750Y31475000D01*
X133150000Y31478024D01*
X133027479Y31465957D01*
X132909666Y31430219D01*
X132801089Y31372183D01*
X132705920Y31294080D01*
X132627817Y31198911D01*
X132569781Y31090334D01*
X132534043Y30972521D01*
X132521976Y30850000D01*
X109976814Y30850000D01*
X109969574Y30923513D01*
X109948131Y30994200D01*
X109913309Y31059347D01*
X109866448Y31116448D01*
X109809347Y31163309D01*
X109744200Y31198131D01*
X109673513Y31219574D01*
X109600000Y31226814D01*
X107900000Y31226814D01*
X107826487Y31219574D01*
X107755800Y31198131D01*
X107690653Y31163309D01*
X107633552Y31116448D01*
X107586691Y31059347D01*
X107551869Y30994200D01*
X107530426Y30923513D01*
X107523186Y30850000D01*
X104400000Y30850000D01*
X104400000Y33600000D01*
X137600001Y33600000D01*
X137600000Y4400000D01*
M02*
