G04 #@! TF.GenerationSoftware,KiCad,Pcbnew,(5.1.4)-1*
G04 #@! TF.CreationDate,2019-11-19T22:58:14-05:00*
G04 #@! TF.ProjectId,Blinky,426c696e-6b79-42e6-9b69-6361645f7063,rev?*
G04 #@! TF.SameCoordinates,Original*
G04 #@! TF.FileFunction,Paste,Top*
G04 #@! TF.FilePolarity,Positive*
%FSLAX46Y46*%
G04 Gerber Fmt 4.6, Leading zero omitted, Abs format (unit mm)*
G04 Created by KiCad (PCBNEW (5.1.4)-1) date 2019-11-19 22:58:14*
%MOMM*%
%LPD*%
G04 APERTURE LIST*
%ADD10C,0.100000*%
%ADD11C,1.150000*%
%ADD12C,0.600000*%
G04 APERTURE END LIST*
D10*
G36*
X113474505Y17548796D02*
G01*
X113498773Y17545196D01*
X113522572Y17539235D01*
X113545671Y17530970D01*
X113567850Y17520480D01*
X113588893Y17507868D01*
X113608599Y17493253D01*
X113626777Y17476777D01*
X113643253Y17458599D01*
X113657868Y17438893D01*
X113670480Y17417850D01*
X113680970Y17395671D01*
X113689235Y17372572D01*
X113695196Y17348773D01*
X113698796Y17324505D01*
X113700000Y17300001D01*
X113700000Y16649999D01*
X113698796Y16625495D01*
X113695196Y16601227D01*
X113689235Y16577428D01*
X113680970Y16554329D01*
X113670480Y16532150D01*
X113657868Y16511107D01*
X113643253Y16491401D01*
X113626777Y16473223D01*
X113608599Y16456747D01*
X113588893Y16442132D01*
X113567850Y16429520D01*
X113545671Y16419030D01*
X113522572Y16410765D01*
X113498773Y16404804D01*
X113474505Y16401204D01*
X113450001Y16400000D01*
X112549999Y16400000D01*
X112525495Y16401204D01*
X112501227Y16404804D01*
X112477428Y16410765D01*
X112454329Y16419030D01*
X112432150Y16429520D01*
X112411107Y16442132D01*
X112391401Y16456747D01*
X112373223Y16473223D01*
X112356747Y16491401D01*
X112342132Y16511107D01*
X112329520Y16532150D01*
X112319030Y16554329D01*
X112310765Y16577428D01*
X112304804Y16601227D01*
X112301204Y16625495D01*
X112300000Y16649999D01*
X112300000Y17300001D01*
X112301204Y17324505D01*
X112304804Y17348773D01*
X112310765Y17372572D01*
X112319030Y17395671D01*
X112329520Y17417850D01*
X112342132Y17438893D01*
X112356747Y17458599D01*
X112373223Y17476777D01*
X112391401Y17493253D01*
X112411107Y17507868D01*
X112432150Y17520480D01*
X112454329Y17530970D01*
X112477428Y17539235D01*
X112501227Y17545196D01*
X112525495Y17548796D01*
X112549999Y17550000D01*
X113450001Y17550000D01*
X113474505Y17548796D01*
X113474505Y17548796D01*
G37*
D11*
X113000000Y16975000D03*
D10*
G36*
X113474505Y19598796D02*
G01*
X113498773Y19595196D01*
X113522572Y19589235D01*
X113545671Y19580970D01*
X113567850Y19570480D01*
X113588893Y19557868D01*
X113608599Y19543253D01*
X113626777Y19526777D01*
X113643253Y19508599D01*
X113657868Y19488893D01*
X113670480Y19467850D01*
X113680970Y19445671D01*
X113689235Y19422572D01*
X113695196Y19398773D01*
X113698796Y19374505D01*
X113700000Y19350001D01*
X113700000Y18699999D01*
X113698796Y18675495D01*
X113695196Y18651227D01*
X113689235Y18627428D01*
X113680970Y18604329D01*
X113670480Y18582150D01*
X113657868Y18561107D01*
X113643253Y18541401D01*
X113626777Y18523223D01*
X113608599Y18506747D01*
X113588893Y18492132D01*
X113567850Y18479520D01*
X113545671Y18469030D01*
X113522572Y18460765D01*
X113498773Y18454804D01*
X113474505Y18451204D01*
X113450001Y18450000D01*
X112549999Y18450000D01*
X112525495Y18451204D01*
X112501227Y18454804D01*
X112477428Y18460765D01*
X112454329Y18469030D01*
X112432150Y18479520D01*
X112411107Y18492132D01*
X112391401Y18506747D01*
X112373223Y18523223D01*
X112356747Y18541401D01*
X112342132Y18561107D01*
X112329520Y18582150D01*
X112319030Y18604329D01*
X112310765Y18627428D01*
X112304804Y18651227D01*
X112301204Y18675495D01*
X112300000Y18699999D01*
X112300000Y19350001D01*
X112301204Y19374505D01*
X112304804Y19398773D01*
X112310765Y19422572D01*
X112319030Y19445671D01*
X112329520Y19467850D01*
X112342132Y19488893D01*
X112356747Y19508599D01*
X112373223Y19526777D01*
X112391401Y19543253D01*
X112411107Y19557868D01*
X112432150Y19570480D01*
X112454329Y19580970D01*
X112477428Y19589235D01*
X112501227Y19595196D01*
X112525495Y19598796D01*
X112549999Y19600000D01*
X113450001Y19600000D01*
X113474505Y19598796D01*
X113474505Y19598796D01*
G37*
D11*
X113000000Y19025000D03*
D10*
G36*
X130474505Y16548796D02*
G01*
X130498773Y16545196D01*
X130522572Y16539235D01*
X130545671Y16530970D01*
X130567850Y16520480D01*
X130588893Y16507868D01*
X130608599Y16493253D01*
X130626777Y16476777D01*
X130643253Y16458599D01*
X130657868Y16438893D01*
X130670480Y16417850D01*
X130680970Y16395671D01*
X130689235Y16372572D01*
X130695196Y16348773D01*
X130698796Y16324505D01*
X130700000Y16300001D01*
X130700000Y15649999D01*
X130698796Y15625495D01*
X130695196Y15601227D01*
X130689235Y15577428D01*
X130680970Y15554329D01*
X130670480Y15532150D01*
X130657868Y15511107D01*
X130643253Y15491401D01*
X130626777Y15473223D01*
X130608599Y15456747D01*
X130588893Y15442132D01*
X130567850Y15429520D01*
X130545671Y15419030D01*
X130522572Y15410765D01*
X130498773Y15404804D01*
X130474505Y15401204D01*
X130450001Y15400000D01*
X129549999Y15400000D01*
X129525495Y15401204D01*
X129501227Y15404804D01*
X129477428Y15410765D01*
X129454329Y15419030D01*
X129432150Y15429520D01*
X129411107Y15442132D01*
X129391401Y15456747D01*
X129373223Y15473223D01*
X129356747Y15491401D01*
X129342132Y15511107D01*
X129329520Y15532150D01*
X129319030Y15554329D01*
X129310765Y15577428D01*
X129304804Y15601227D01*
X129301204Y15625495D01*
X129300000Y15649999D01*
X129300000Y16300001D01*
X129301204Y16324505D01*
X129304804Y16348773D01*
X129310765Y16372572D01*
X129319030Y16395671D01*
X129329520Y16417850D01*
X129342132Y16438893D01*
X129356747Y16458599D01*
X129373223Y16476777D01*
X129391401Y16493253D01*
X129411107Y16507868D01*
X129432150Y16520480D01*
X129454329Y16530970D01*
X129477428Y16539235D01*
X129501227Y16545196D01*
X129525495Y16548796D01*
X129549999Y16550000D01*
X130450001Y16550000D01*
X130474505Y16548796D01*
X130474505Y16548796D01*
G37*
D11*
X130000000Y15975000D03*
D10*
G36*
X130474505Y18598796D02*
G01*
X130498773Y18595196D01*
X130522572Y18589235D01*
X130545671Y18580970D01*
X130567850Y18570480D01*
X130588893Y18557868D01*
X130608599Y18543253D01*
X130626777Y18526777D01*
X130643253Y18508599D01*
X130657868Y18488893D01*
X130670480Y18467850D01*
X130680970Y18445671D01*
X130689235Y18422572D01*
X130695196Y18398773D01*
X130698796Y18374505D01*
X130700000Y18350001D01*
X130700000Y17699999D01*
X130698796Y17675495D01*
X130695196Y17651227D01*
X130689235Y17627428D01*
X130680970Y17604329D01*
X130670480Y17582150D01*
X130657868Y17561107D01*
X130643253Y17541401D01*
X130626777Y17523223D01*
X130608599Y17506747D01*
X130588893Y17492132D01*
X130567850Y17479520D01*
X130545671Y17469030D01*
X130522572Y17460765D01*
X130498773Y17454804D01*
X130474505Y17451204D01*
X130450001Y17450000D01*
X129549999Y17450000D01*
X129525495Y17451204D01*
X129501227Y17454804D01*
X129477428Y17460765D01*
X129454329Y17469030D01*
X129432150Y17479520D01*
X129411107Y17492132D01*
X129391401Y17506747D01*
X129373223Y17523223D01*
X129356747Y17541401D01*
X129342132Y17561107D01*
X129329520Y17582150D01*
X129319030Y17604329D01*
X129310765Y17627428D01*
X129304804Y17651227D01*
X129301204Y17675495D01*
X129300000Y17699999D01*
X129300000Y18350001D01*
X129301204Y18374505D01*
X129304804Y18398773D01*
X129310765Y18422572D01*
X129319030Y18445671D01*
X129329520Y18467850D01*
X129342132Y18488893D01*
X129356747Y18508599D01*
X129373223Y18526777D01*
X129391401Y18543253D01*
X129411107Y18557868D01*
X129432150Y18570480D01*
X129454329Y18580970D01*
X129477428Y18589235D01*
X129501227Y18595196D01*
X129525495Y18598796D01*
X129549999Y18600000D01*
X130450001Y18600000D01*
X130474505Y18598796D01*
X130474505Y18598796D01*
G37*
D11*
X130000000Y18025000D03*
D10*
G36*
X119364703Y21204278D02*
G01*
X119379264Y21202118D01*
X119393543Y21198541D01*
X119407403Y21193582D01*
X119420710Y21187288D01*
X119433336Y21179720D01*
X119445159Y21170952D01*
X119456066Y21161066D01*
X119465952Y21150159D01*
X119474720Y21138336D01*
X119482288Y21125710D01*
X119488582Y21112403D01*
X119493541Y21098543D01*
X119497118Y21084264D01*
X119499278Y21069703D01*
X119500000Y21055000D01*
X119500000Y20755000D01*
X119499278Y20740297D01*
X119497118Y20725736D01*
X119493541Y20711457D01*
X119488582Y20697597D01*
X119482288Y20684290D01*
X119474720Y20671664D01*
X119465952Y20659841D01*
X119456066Y20648934D01*
X119445159Y20639048D01*
X119433336Y20630280D01*
X119420710Y20622712D01*
X119407403Y20616418D01*
X119393543Y20611459D01*
X119379264Y20607882D01*
X119364703Y20605722D01*
X119350000Y20605000D01*
X117700000Y20605000D01*
X117685297Y20605722D01*
X117670736Y20607882D01*
X117656457Y20611459D01*
X117642597Y20616418D01*
X117629290Y20622712D01*
X117616664Y20630280D01*
X117604841Y20639048D01*
X117593934Y20648934D01*
X117584048Y20659841D01*
X117575280Y20671664D01*
X117567712Y20684290D01*
X117561418Y20697597D01*
X117556459Y20711457D01*
X117552882Y20725736D01*
X117550722Y20740297D01*
X117550000Y20755000D01*
X117550000Y21055000D01*
X117550722Y21069703D01*
X117552882Y21084264D01*
X117556459Y21098543D01*
X117561418Y21112403D01*
X117567712Y21125710D01*
X117575280Y21138336D01*
X117584048Y21150159D01*
X117593934Y21161066D01*
X117604841Y21170952D01*
X117616664Y21179720D01*
X117629290Y21187288D01*
X117642597Y21193582D01*
X117656457Y21198541D01*
X117670736Y21202118D01*
X117685297Y21204278D01*
X117700000Y21205000D01*
X119350000Y21205000D01*
X119364703Y21204278D01*
X119364703Y21204278D01*
G37*
D12*
X118525000Y20905000D03*
D10*
G36*
X119364703Y19934278D02*
G01*
X119379264Y19932118D01*
X119393543Y19928541D01*
X119407403Y19923582D01*
X119420710Y19917288D01*
X119433336Y19909720D01*
X119445159Y19900952D01*
X119456066Y19891066D01*
X119465952Y19880159D01*
X119474720Y19868336D01*
X119482288Y19855710D01*
X119488582Y19842403D01*
X119493541Y19828543D01*
X119497118Y19814264D01*
X119499278Y19799703D01*
X119500000Y19785000D01*
X119500000Y19485000D01*
X119499278Y19470297D01*
X119497118Y19455736D01*
X119493541Y19441457D01*
X119488582Y19427597D01*
X119482288Y19414290D01*
X119474720Y19401664D01*
X119465952Y19389841D01*
X119456066Y19378934D01*
X119445159Y19369048D01*
X119433336Y19360280D01*
X119420710Y19352712D01*
X119407403Y19346418D01*
X119393543Y19341459D01*
X119379264Y19337882D01*
X119364703Y19335722D01*
X119350000Y19335000D01*
X117700000Y19335000D01*
X117685297Y19335722D01*
X117670736Y19337882D01*
X117656457Y19341459D01*
X117642597Y19346418D01*
X117629290Y19352712D01*
X117616664Y19360280D01*
X117604841Y19369048D01*
X117593934Y19378934D01*
X117584048Y19389841D01*
X117575280Y19401664D01*
X117567712Y19414290D01*
X117561418Y19427597D01*
X117556459Y19441457D01*
X117552882Y19455736D01*
X117550722Y19470297D01*
X117550000Y19485000D01*
X117550000Y19785000D01*
X117550722Y19799703D01*
X117552882Y19814264D01*
X117556459Y19828543D01*
X117561418Y19842403D01*
X117567712Y19855710D01*
X117575280Y19868336D01*
X117584048Y19880159D01*
X117593934Y19891066D01*
X117604841Y19900952D01*
X117616664Y19909720D01*
X117629290Y19917288D01*
X117642597Y19923582D01*
X117656457Y19928541D01*
X117670736Y19932118D01*
X117685297Y19934278D01*
X117700000Y19935000D01*
X119350000Y19935000D01*
X119364703Y19934278D01*
X119364703Y19934278D01*
G37*
D12*
X118525000Y19635000D03*
D10*
G36*
X119364703Y18664278D02*
G01*
X119379264Y18662118D01*
X119393543Y18658541D01*
X119407403Y18653582D01*
X119420710Y18647288D01*
X119433336Y18639720D01*
X119445159Y18630952D01*
X119456066Y18621066D01*
X119465952Y18610159D01*
X119474720Y18598336D01*
X119482288Y18585710D01*
X119488582Y18572403D01*
X119493541Y18558543D01*
X119497118Y18544264D01*
X119499278Y18529703D01*
X119500000Y18515000D01*
X119500000Y18215000D01*
X119499278Y18200297D01*
X119497118Y18185736D01*
X119493541Y18171457D01*
X119488582Y18157597D01*
X119482288Y18144290D01*
X119474720Y18131664D01*
X119465952Y18119841D01*
X119456066Y18108934D01*
X119445159Y18099048D01*
X119433336Y18090280D01*
X119420710Y18082712D01*
X119407403Y18076418D01*
X119393543Y18071459D01*
X119379264Y18067882D01*
X119364703Y18065722D01*
X119350000Y18065000D01*
X117700000Y18065000D01*
X117685297Y18065722D01*
X117670736Y18067882D01*
X117656457Y18071459D01*
X117642597Y18076418D01*
X117629290Y18082712D01*
X117616664Y18090280D01*
X117604841Y18099048D01*
X117593934Y18108934D01*
X117584048Y18119841D01*
X117575280Y18131664D01*
X117567712Y18144290D01*
X117561418Y18157597D01*
X117556459Y18171457D01*
X117552882Y18185736D01*
X117550722Y18200297D01*
X117550000Y18215000D01*
X117550000Y18515000D01*
X117550722Y18529703D01*
X117552882Y18544264D01*
X117556459Y18558543D01*
X117561418Y18572403D01*
X117567712Y18585710D01*
X117575280Y18598336D01*
X117584048Y18610159D01*
X117593934Y18621066D01*
X117604841Y18630952D01*
X117616664Y18639720D01*
X117629290Y18647288D01*
X117642597Y18653582D01*
X117656457Y18658541D01*
X117670736Y18662118D01*
X117685297Y18664278D01*
X117700000Y18665000D01*
X119350000Y18665000D01*
X119364703Y18664278D01*
X119364703Y18664278D01*
G37*
D12*
X118525000Y18365000D03*
D10*
G36*
X119364703Y17394278D02*
G01*
X119379264Y17392118D01*
X119393543Y17388541D01*
X119407403Y17383582D01*
X119420710Y17377288D01*
X119433336Y17369720D01*
X119445159Y17360952D01*
X119456066Y17351066D01*
X119465952Y17340159D01*
X119474720Y17328336D01*
X119482288Y17315710D01*
X119488582Y17302403D01*
X119493541Y17288543D01*
X119497118Y17274264D01*
X119499278Y17259703D01*
X119500000Y17245000D01*
X119500000Y16945000D01*
X119499278Y16930297D01*
X119497118Y16915736D01*
X119493541Y16901457D01*
X119488582Y16887597D01*
X119482288Y16874290D01*
X119474720Y16861664D01*
X119465952Y16849841D01*
X119456066Y16838934D01*
X119445159Y16829048D01*
X119433336Y16820280D01*
X119420710Y16812712D01*
X119407403Y16806418D01*
X119393543Y16801459D01*
X119379264Y16797882D01*
X119364703Y16795722D01*
X119350000Y16795000D01*
X117700000Y16795000D01*
X117685297Y16795722D01*
X117670736Y16797882D01*
X117656457Y16801459D01*
X117642597Y16806418D01*
X117629290Y16812712D01*
X117616664Y16820280D01*
X117604841Y16829048D01*
X117593934Y16838934D01*
X117584048Y16849841D01*
X117575280Y16861664D01*
X117567712Y16874290D01*
X117561418Y16887597D01*
X117556459Y16901457D01*
X117552882Y16915736D01*
X117550722Y16930297D01*
X117550000Y16945000D01*
X117550000Y17245000D01*
X117550722Y17259703D01*
X117552882Y17274264D01*
X117556459Y17288543D01*
X117561418Y17302403D01*
X117567712Y17315710D01*
X117575280Y17328336D01*
X117584048Y17340159D01*
X117593934Y17351066D01*
X117604841Y17360952D01*
X117616664Y17369720D01*
X117629290Y17377288D01*
X117642597Y17383582D01*
X117656457Y17388541D01*
X117670736Y17392118D01*
X117685297Y17394278D01*
X117700000Y17395000D01*
X119350000Y17395000D01*
X119364703Y17394278D01*
X119364703Y17394278D01*
G37*
D12*
X118525000Y17095000D03*
D10*
G36*
X124314703Y17394278D02*
G01*
X124329264Y17392118D01*
X124343543Y17388541D01*
X124357403Y17383582D01*
X124370710Y17377288D01*
X124383336Y17369720D01*
X124395159Y17360952D01*
X124406066Y17351066D01*
X124415952Y17340159D01*
X124424720Y17328336D01*
X124432288Y17315710D01*
X124438582Y17302403D01*
X124443541Y17288543D01*
X124447118Y17274264D01*
X124449278Y17259703D01*
X124450000Y17245000D01*
X124450000Y16945000D01*
X124449278Y16930297D01*
X124447118Y16915736D01*
X124443541Y16901457D01*
X124438582Y16887597D01*
X124432288Y16874290D01*
X124424720Y16861664D01*
X124415952Y16849841D01*
X124406066Y16838934D01*
X124395159Y16829048D01*
X124383336Y16820280D01*
X124370710Y16812712D01*
X124357403Y16806418D01*
X124343543Y16801459D01*
X124329264Y16797882D01*
X124314703Y16795722D01*
X124300000Y16795000D01*
X122650000Y16795000D01*
X122635297Y16795722D01*
X122620736Y16797882D01*
X122606457Y16801459D01*
X122592597Y16806418D01*
X122579290Y16812712D01*
X122566664Y16820280D01*
X122554841Y16829048D01*
X122543934Y16838934D01*
X122534048Y16849841D01*
X122525280Y16861664D01*
X122517712Y16874290D01*
X122511418Y16887597D01*
X122506459Y16901457D01*
X122502882Y16915736D01*
X122500722Y16930297D01*
X122500000Y16945000D01*
X122500000Y17245000D01*
X122500722Y17259703D01*
X122502882Y17274264D01*
X122506459Y17288543D01*
X122511418Y17302403D01*
X122517712Y17315710D01*
X122525280Y17328336D01*
X122534048Y17340159D01*
X122543934Y17351066D01*
X122554841Y17360952D01*
X122566664Y17369720D01*
X122579290Y17377288D01*
X122592597Y17383582D01*
X122606457Y17388541D01*
X122620736Y17392118D01*
X122635297Y17394278D01*
X122650000Y17395000D01*
X124300000Y17395000D01*
X124314703Y17394278D01*
X124314703Y17394278D01*
G37*
D12*
X123475000Y17095000D03*
D10*
G36*
X124314703Y18664278D02*
G01*
X124329264Y18662118D01*
X124343543Y18658541D01*
X124357403Y18653582D01*
X124370710Y18647288D01*
X124383336Y18639720D01*
X124395159Y18630952D01*
X124406066Y18621066D01*
X124415952Y18610159D01*
X124424720Y18598336D01*
X124432288Y18585710D01*
X124438582Y18572403D01*
X124443541Y18558543D01*
X124447118Y18544264D01*
X124449278Y18529703D01*
X124450000Y18515000D01*
X124450000Y18215000D01*
X124449278Y18200297D01*
X124447118Y18185736D01*
X124443541Y18171457D01*
X124438582Y18157597D01*
X124432288Y18144290D01*
X124424720Y18131664D01*
X124415952Y18119841D01*
X124406066Y18108934D01*
X124395159Y18099048D01*
X124383336Y18090280D01*
X124370710Y18082712D01*
X124357403Y18076418D01*
X124343543Y18071459D01*
X124329264Y18067882D01*
X124314703Y18065722D01*
X124300000Y18065000D01*
X122650000Y18065000D01*
X122635297Y18065722D01*
X122620736Y18067882D01*
X122606457Y18071459D01*
X122592597Y18076418D01*
X122579290Y18082712D01*
X122566664Y18090280D01*
X122554841Y18099048D01*
X122543934Y18108934D01*
X122534048Y18119841D01*
X122525280Y18131664D01*
X122517712Y18144290D01*
X122511418Y18157597D01*
X122506459Y18171457D01*
X122502882Y18185736D01*
X122500722Y18200297D01*
X122500000Y18215000D01*
X122500000Y18515000D01*
X122500722Y18529703D01*
X122502882Y18544264D01*
X122506459Y18558543D01*
X122511418Y18572403D01*
X122517712Y18585710D01*
X122525280Y18598336D01*
X122534048Y18610159D01*
X122543934Y18621066D01*
X122554841Y18630952D01*
X122566664Y18639720D01*
X122579290Y18647288D01*
X122592597Y18653582D01*
X122606457Y18658541D01*
X122620736Y18662118D01*
X122635297Y18664278D01*
X122650000Y18665000D01*
X124300000Y18665000D01*
X124314703Y18664278D01*
X124314703Y18664278D01*
G37*
D12*
X123475000Y18365000D03*
D10*
G36*
X124314703Y19934278D02*
G01*
X124329264Y19932118D01*
X124343543Y19928541D01*
X124357403Y19923582D01*
X124370710Y19917288D01*
X124383336Y19909720D01*
X124395159Y19900952D01*
X124406066Y19891066D01*
X124415952Y19880159D01*
X124424720Y19868336D01*
X124432288Y19855710D01*
X124438582Y19842403D01*
X124443541Y19828543D01*
X124447118Y19814264D01*
X124449278Y19799703D01*
X124450000Y19785000D01*
X124450000Y19485000D01*
X124449278Y19470297D01*
X124447118Y19455736D01*
X124443541Y19441457D01*
X124438582Y19427597D01*
X124432288Y19414290D01*
X124424720Y19401664D01*
X124415952Y19389841D01*
X124406066Y19378934D01*
X124395159Y19369048D01*
X124383336Y19360280D01*
X124370710Y19352712D01*
X124357403Y19346418D01*
X124343543Y19341459D01*
X124329264Y19337882D01*
X124314703Y19335722D01*
X124300000Y19335000D01*
X122650000Y19335000D01*
X122635297Y19335722D01*
X122620736Y19337882D01*
X122606457Y19341459D01*
X122592597Y19346418D01*
X122579290Y19352712D01*
X122566664Y19360280D01*
X122554841Y19369048D01*
X122543934Y19378934D01*
X122534048Y19389841D01*
X122525280Y19401664D01*
X122517712Y19414290D01*
X122511418Y19427597D01*
X122506459Y19441457D01*
X122502882Y19455736D01*
X122500722Y19470297D01*
X122500000Y19485000D01*
X122500000Y19785000D01*
X122500722Y19799703D01*
X122502882Y19814264D01*
X122506459Y19828543D01*
X122511418Y19842403D01*
X122517712Y19855710D01*
X122525280Y19868336D01*
X122534048Y19880159D01*
X122543934Y19891066D01*
X122554841Y19900952D01*
X122566664Y19909720D01*
X122579290Y19917288D01*
X122592597Y19923582D01*
X122606457Y19928541D01*
X122620736Y19932118D01*
X122635297Y19934278D01*
X122650000Y19935000D01*
X124300000Y19935000D01*
X124314703Y19934278D01*
X124314703Y19934278D01*
G37*
D12*
X123475000Y19635000D03*
D10*
G36*
X124314703Y21204278D02*
G01*
X124329264Y21202118D01*
X124343543Y21198541D01*
X124357403Y21193582D01*
X124370710Y21187288D01*
X124383336Y21179720D01*
X124395159Y21170952D01*
X124406066Y21161066D01*
X124415952Y21150159D01*
X124424720Y21138336D01*
X124432288Y21125710D01*
X124438582Y21112403D01*
X124443541Y21098543D01*
X124447118Y21084264D01*
X124449278Y21069703D01*
X124450000Y21055000D01*
X124450000Y20755000D01*
X124449278Y20740297D01*
X124447118Y20725736D01*
X124443541Y20711457D01*
X124438582Y20697597D01*
X124432288Y20684290D01*
X124424720Y20671664D01*
X124415952Y20659841D01*
X124406066Y20648934D01*
X124395159Y20639048D01*
X124383336Y20630280D01*
X124370710Y20622712D01*
X124357403Y20616418D01*
X124343543Y20611459D01*
X124329264Y20607882D01*
X124314703Y20605722D01*
X124300000Y20605000D01*
X122650000Y20605000D01*
X122635297Y20605722D01*
X122620736Y20607882D01*
X122606457Y20611459D01*
X122592597Y20616418D01*
X122579290Y20622712D01*
X122566664Y20630280D01*
X122554841Y20639048D01*
X122543934Y20648934D01*
X122534048Y20659841D01*
X122525280Y20671664D01*
X122517712Y20684290D01*
X122511418Y20697597D01*
X122506459Y20711457D01*
X122502882Y20725736D01*
X122500722Y20740297D01*
X122500000Y20755000D01*
X122500000Y21055000D01*
X122500722Y21069703D01*
X122502882Y21084264D01*
X122506459Y21098543D01*
X122511418Y21112403D01*
X122517712Y21125710D01*
X122525280Y21138336D01*
X122534048Y21150159D01*
X122543934Y21161066D01*
X122554841Y21170952D01*
X122566664Y21179720D01*
X122579290Y21187288D01*
X122592597Y21193582D01*
X122606457Y21198541D01*
X122620736Y21202118D01*
X122635297Y21204278D01*
X122650000Y21205000D01*
X124300000Y21205000D01*
X124314703Y21204278D01*
X124314703Y21204278D01*
G37*
D12*
X123475000Y20905000D03*
D10*
G36*
X130474505Y20548796D02*
G01*
X130498773Y20545196D01*
X130522572Y20539235D01*
X130545671Y20530970D01*
X130567850Y20520480D01*
X130588893Y20507868D01*
X130608599Y20493253D01*
X130626777Y20476777D01*
X130643253Y20458599D01*
X130657868Y20438893D01*
X130670480Y20417850D01*
X130680970Y20395671D01*
X130689235Y20372572D01*
X130695196Y20348773D01*
X130698796Y20324505D01*
X130700000Y20300001D01*
X130700000Y19649999D01*
X130698796Y19625495D01*
X130695196Y19601227D01*
X130689235Y19577428D01*
X130680970Y19554329D01*
X130670480Y19532150D01*
X130657868Y19511107D01*
X130643253Y19491401D01*
X130626777Y19473223D01*
X130608599Y19456747D01*
X130588893Y19442132D01*
X130567850Y19429520D01*
X130545671Y19419030D01*
X130522572Y19410765D01*
X130498773Y19404804D01*
X130474505Y19401204D01*
X130450001Y19400000D01*
X129549999Y19400000D01*
X129525495Y19401204D01*
X129501227Y19404804D01*
X129477428Y19410765D01*
X129454329Y19419030D01*
X129432150Y19429520D01*
X129411107Y19442132D01*
X129391401Y19456747D01*
X129373223Y19473223D01*
X129356747Y19491401D01*
X129342132Y19511107D01*
X129329520Y19532150D01*
X129319030Y19554329D01*
X129310765Y19577428D01*
X129304804Y19601227D01*
X129301204Y19625495D01*
X129300000Y19649999D01*
X129300000Y20300001D01*
X129301204Y20324505D01*
X129304804Y20348773D01*
X129310765Y20372572D01*
X129319030Y20395671D01*
X129329520Y20417850D01*
X129342132Y20438893D01*
X129356747Y20458599D01*
X129373223Y20476777D01*
X129391401Y20493253D01*
X129411107Y20507868D01*
X129432150Y20520480D01*
X129454329Y20530970D01*
X129477428Y20539235D01*
X129501227Y20545196D01*
X129525495Y20548796D01*
X129549999Y20550000D01*
X130450001Y20550000D01*
X130474505Y20548796D01*
X130474505Y20548796D01*
G37*
D11*
X130000000Y19975000D03*
D10*
G36*
X130474505Y22598796D02*
G01*
X130498773Y22595196D01*
X130522572Y22589235D01*
X130545671Y22580970D01*
X130567850Y22570480D01*
X130588893Y22557868D01*
X130608599Y22543253D01*
X130626777Y22526777D01*
X130643253Y22508599D01*
X130657868Y22488893D01*
X130670480Y22467850D01*
X130680970Y22445671D01*
X130689235Y22422572D01*
X130695196Y22398773D01*
X130698796Y22374505D01*
X130700000Y22350001D01*
X130700000Y21699999D01*
X130698796Y21675495D01*
X130695196Y21651227D01*
X130689235Y21627428D01*
X130680970Y21604329D01*
X130670480Y21582150D01*
X130657868Y21561107D01*
X130643253Y21541401D01*
X130626777Y21523223D01*
X130608599Y21506747D01*
X130588893Y21492132D01*
X130567850Y21479520D01*
X130545671Y21469030D01*
X130522572Y21460765D01*
X130498773Y21454804D01*
X130474505Y21451204D01*
X130450001Y21450000D01*
X129549999Y21450000D01*
X129525495Y21451204D01*
X129501227Y21454804D01*
X129477428Y21460765D01*
X129454329Y21469030D01*
X129432150Y21479520D01*
X129411107Y21492132D01*
X129391401Y21506747D01*
X129373223Y21523223D01*
X129356747Y21541401D01*
X129342132Y21561107D01*
X129329520Y21582150D01*
X129319030Y21604329D01*
X129310765Y21627428D01*
X129304804Y21651227D01*
X129301204Y21675495D01*
X129300000Y21699999D01*
X129300000Y22350001D01*
X129301204Y22374505D01*
X129304804Y22398773D01*
X129310765Y22422572D01*
X129319030Y22445671D01*
X129329520Y22467850D01*
X129342132Y22488893D01*
X129356747Y22508599D01*
X129373223Y22526777D01*
X129391401Y22543253D01*
X129411107Y22557868D01*
X129432150Y22570480D01*
X129454329Y22580970D01*
X129477428Y22589235D01*
X129501227Y22595196D01*
X129525495Y22598796D01*
X129549999Y22600000D01*
X130450001Y22600000D01*
X130474505Y22598796D01*
X130474505Y22598796D01*
G37*
D11*
X130000000Y22025000D03*
D10*
G36*
X113474505Y15598796D02*
G01*
X113498773Y15595196D01*
X113522572Y15589235D01*
X113545671Y15580970D01*
X113567850Y15570480D01*
X113588893Y15557868D01*
X113608599Y15543253D01*
X113626777Y15526777D01*
X113643253Y15508599D01*
X113657868Y15488893D01*
X113670480Y15467850D01*
X113680970Y15445671D01*
X113689235Y15422572D01*
X113695196Y15398773D01*
X113698796Y15374505D01*
X113700000Y15350001D01*
X113700000Y14699999D01*
X113698796Y14675495D01*
X113695196Y14651227D01*
X113689235Y14627428D01*
X113680970Y14604329D01*
X113670480Y14582150D01*
X113657868Y14561107D01*
X113643253Y14541401D01*
X113626777Y14523223D01*
X113608599Y14506747D01*
X113588893Y14492132D01*
X113567850Y14479520D01*
X113545671Y14469030D01*
X113522572Y14460765D01*
X113498773Y14454804D01*
X113474505Y14451204D01*
X113450001Y14450000D01*
X112549999Y14450000D01*
X112525495Y14451204D01*
X112501227Y14454804D01*
X112477428Y14460765D01*
X112454329Y14469030D01*
X112432150Y14479520D01*
X112411107Y14492132D01*
X112391401Y14506747D01*
X112373223Y14523223D01*
X112356747Y14541401D01*
X112342132Y14561107D01*
X112329520Y14582150D01*
X112319030Y14604329D01*
X112310765Y14627428D01*
X112304804Y14651227D01*
X112301204Y14675495D01*
X112300000Y14699999D01*
X112300000Y15350001D01*
X112301204Y15374505D01*
X112304804Y15398773D01*
X112310765Y15422572D01*
X112319030Y15445671D01*
X112329520Y15467850D01*
X112342132Y15488893D01*
X112356747Y15508599D01*
X112373223Y15526777D01*
X112391401Y15543253D01*
X112411107Y15557868D01*
X112432150Y15570480D01*
X112454329Y15580970D01*
X112477428Y15589235D01*
X112501227Y15595196D01*
X112525495Y15598796D01*
X112549999Y15600000D01*
X113450001Y15600000D01*
X113474505Y15598796D01*
X113474505Y15598796D01*
G37*
D11*
X113000000Y15025000D03*
D10*
G36*
X113474505Y13548796D02*
G01*
X113498773Y13545196D01*
X113522572Y13539235D01*
X113545671Y13530970D01*
X113567850Y13520480D01*
X113588893Y13507868D01*
X113608599Y13493253D01*
X113626777Y13476777D01*
X113643253Y13458599D01*
X113657868Y13438893D01*
X113670480Y13417850D01*
X113680970Y13395671D01*
X113689235Y13372572D01*
X113695196Y13348773D01*
X113698796Y13324505D01*
X113700000Y13300001D01*
X113700000Y12649999D01*
X113698796Y12625495D01*
X113695196Y12601227D01*
X113689235Y12577428D01*
X113680970Y12554329D01*
X113670480Y12532150D01*
X113657868Y12511107D01*
X113643253Y12491401D01*
X113626777Y12473223D01*
X113608599Y12456747D01*
X113588893Y12442132D01*
X113567850Y12429520D01*
X113545671Y12419030D01*
X113522572Y12410765D01*
X113498773Y12404804D01*
X113474505Y12401204D01*
X113450001Y12400000D01*
X112549999Y12400000D01*
X112525495Y12401204D01*
X112501227Y12404804D01*
X112477428Y12410765D01*
X112454329Y12419030D01*
X112432150Y12429520D01*
X112411107Y12442132D01*
X112391401Y12456747D01*
X112373223Y12473223D01*
X112356747Y12491401D01*
X112342132Y12511107D01*
X112329520Y12532150D01*
X112319030Y12554329D01*
X112310765Y12577428D01*
X112304804Y12601227D01*
X112301204Y12625495D01*
X112300000Y12649999D01*
X112300000Y13300001D01*
X112301204Y13324505D01*
X112304804Y13348773D01*
X112310765Y13372572D01*
X112319030Y13395671D01*
X112329520Y13417850D01*
X112342132Y13438893D01*
X112356747Y13458599D01*
X112373223Y13476777D01*
X112391401Y13493253D01*
X112411107Y13507868D01*
X112432150Y13520480D01*
X112454329Y13530970D01*
X112477428Y13539235D01*
X112501227Y13545196D01*
X112525495Y13548796D01*
X112549999Y13550000D01*
X113450001Y13550000D01*
X113474505Y13548796D01*
X113474505Y13548796D01*
G37*
D11*
X113000000Y12975000D03*
D10*
G36*
X113474505Y23598796D02*
G01*
X113498773Y23595196D01*
X113522572Y23589235D01*
X113545671Y23580970D01*
X113567850Y23570480D01*
X113588893Y23557868D01*
X113608599Y23543253D01*
X113626777Y23526777D01*
X113643253Y23508599D01*
X113657868Y23488893D01*
X113670480Y23467850D01*
X113680970Y23445671D01*
X113689235Y23422572D01*
X113695196Y23398773D01*
X113698796Y23374505D01*
X113700000Y23350001D01*
X113700000Y22699999D01*
X113698796Y22675495D01*
X113695196Y22651227D01*
X113689235Y22627428D01*
X113680970Y22604329D01*
X113670480Y22582150D01*
X113657868Y22561107D01*
X113643253Y22541401D01*
X113626777Y22523223D01*
X113608599Y22506747D01*
X113588893Y22492132D01*
X113567850Y22479520D01*
X113545671Y22469030D01*
X113522572Y22460765D01*
X113498773Y22454804D01*
X113474505Y22451204D01*
X113450001Y22450000D01*
X112549999Y22450000D01*
X112525495Y22451204D01*
X112501227Y22454804D01*
X112477428Y22460765D01*
X112454329Y22469030D01*
X112432150Y22479520D01*
X112411107Y22492132D01*
X112391401Y22506747D01*
X112373223Y22523223D01*
X112356747Y22541401D01*
X112342132Y22561107D01*
X112329520Y22582150D01*
X112319030Y22604329D01*
X112310765Y22627428D01*
X112304804Y22651227D01*
X112301204Y22675495D01*
X112300000Y22699999D01*
X112300000Y23350001D01*
X112301204Y23374505D01*
X112304804Y23398773D01*
X112310765Y23422572D01*
X112319030Y23445671D01*
X112329520Y23467850D01*
X112342132Y23488893D01*
X112356747Y23508599D01*
X112373223Y23526777D01*
X112391401Y23543253D01*
X112411107Y23557868D01*
X112432150Y23570480D01*
X112454329Y23580970D01*
X112477428Y23589235D01*
X112501227Y23595196D01*
X112525495Y23598796D01*
X112549999Y23600000D01*
X113450001Y23600000D01*
X113474505Y23598796D01*
X113474505Y23598796D01*
G37*
D11*
X113000000Y23025000D03*
D10*
G36*
X113474505Y21548796D02*
G01*
X113498773Y21545196D01*
X113522572Y21539235D01*
X113545671Y21530970D01*
X113567850Y21520480D01*
X113588893Y21507868D01*
X113608599Y21493253D01*
X113626777Y21476777D01*
X113643253Y21458599D01*
X113657868Y21438893D01*
X113670480Y21417850D01*
X113680970Y21395671D01*
X113689235Y21372572D01*
X113695196Y21348773D01*
X113698796Y21324505D01*
X113700000Y21300001D01*
X113700000Y20649999D01*
X113698796Y20625495D01*
X113695196Y20601227D01*
X113689235Y20577428D01*
X113680970Y20554329D01*
X113670480Y20532150D01*
X113657868Y20511107D01*
X113643253Y20491401D01*
X113626777Y20473223D01*
X113608599Y20456747D01*
X113588893Y20442132D01*
X113567850Y20429520D01*
X113545671Y20419030D01*
X113522572Y20410765D01*
X113498773Y20404804D01*
X113474505Y20401204D01*
X113450001Y20400000D01*
X112549999Y20400000D01*
X112525495Y20401204D01*
X112501227Y20404804D01*
X112477428Y20410765D01*
X112454329Y20419030D01*
X112432150Y20429520D01*
X112411107Y20442132D01*
X112391401Y20456747D01*
X112373223Y20473223D01*
X112356747Y20491401D01*
X112342132Y20511107D01*
X112329520Y20532150D01*
X112319030Y20554329D01*
X112310765Y20577428D01*
X112304804Y20601227D01*
X112301204Y20625495D01*
X112300000Y20649999D01*
X112300000Y21300001D01*
X112301204Y21324505D01*
X112304804Y21348773D01*
X112310765Y21372572D01*
X112319030Y21395671D01*
X112329520Y21417850D01*
X112342132Y21438893D01*
X112356747Y21458599D01*
X112373223Y21476777D01*
X112391401Y21493253D01*
X112411107Y21507868D01*
X112432150Y21520480D01*
X112454329Y21530970D01*
X112477428Y21539235D01*
X112501227Y21545196D01*
X112525495Y21548796D01*
X112549999Y21550000D01*
X113450001Y21550000D01*
X113474505Y21548796D01*
X113474505Y21548796D01*
G37*
D11*
X113000000Y20975000D03*
M02*
