G04 #@! TF.GenerationSoftware,KiCad,Pcbnew,(5.1.4)-1*
G04 #@! TF.CreationDate,2019-11-19T22:58:14-05:00*
G04 #@! TF.ProjectId,Blinky,426c696e-6b79-42e6-9b69-6361645f7063,rev?*
G04 #@! TF.SameCoordinates,Original*
G04 #@! TF.FileFunction,Copper,L1,Top*
G04 #@! TF.FilePolarity,Positive*
%FSLAX46Y46*%
G04 Gerber Fmt 4.6, Leading zero omitted, Abs format (unit mm)*
G04 Created by KiCad (PCBNEW (5.1.4)-1) date 2019-11-19 22:58:14*
%MOMM*%
%LPD*%
G04 APERTURE LIST*
%ADD10R,1.700000X1.700000*%
%ADD11C,0.100000*%
%ADD12C,1.150000*%
%ADD13C,0.600000*%
%ADD14C,0.800000*%
%ADD15C,0.250000*%
G04 APERTURE END LIST*
D10*
X134000000Y30000000D03*
X108750000Y30000000D03*
D11*
G36*
X113474505Y17548796D02*
G01*
X113498773Y17545196D01*
X113522572Y17539235D01*
X113545671Y17530970D01*
X113567850Y17520480D01*
X113588893Y17507868D01*
X113608599Y17493253D01*
X113626777Y17476777D01*
X113643253Y17458599D01*
X113657868Y17438893D01*
X113670480Y17417850D01*
X113680970Y17395671D01*
X113689235Y17372572D01*
X113695196Y17348773D01*
X113698796Y17324505D01*
X113700000Y17300001D01*
X113700000Y16649999D01*
X113698796Y16625495D01*
X113695196Y16601227D01*
X113689235Y16577428D01*
X113680970Y16554329D01*
X113670480Y16532150D01*
X113657868Y16511107D01*
X113643253Y16491401D01*
X113626777Y16473223D01*
X113608599Y16456747D01*
X113588893Y16442132D01*
X113567850Y16429520D01*
X113545671Y16419030D01*
X113522572Y16410765D01*
X113498773Y16404804D01*
X113474505Y16401204D01*
X113450001Y16400000D01*
X112549999Y16400000D01*
X112525495Y16401204D01*
X112501227Y16404804D01*
X112477428Y16410765D01*
X112454329Y16419030D01*
X112432150Y16429520D01*
X112411107Y16442132D01*
X112391401Y16456747D01*
X112373223Y16473223D01*
X112356747Y16491401D01*
X112342132Y16511107D01*
X112329520Y16532150D01*
X112319030Y16554329D01*
X112310765Y16577428D01*
X112304804Y16601227D01*
X112301204Y16625495D01*
X112300000Y16649999D01*
X112300000Y17300001D01*
X112301204Y17324505D01*
X112304804Y17348773D01*
X112310765Y17372572D01*
X112319030Y17395671D01*
X112329520Y17417850D01*
X112342132Y17438893D01*
X112356747Y17458599D01*
X112373223Y17476777D01*
X112391401Y17493253D01*
X112411107Y17507868D01*
X112432150Y17520480D01*
X112454329Y17530970D01*
X112477428Y17539235D01*
X112501227Y17545196D01*
X112525495Y17548796D01*
X112549999Y17550000D01*
X113450001Y17550000D01*
X113474505Y17548796D01*
X113474505Y17548796D01*
G37*
D12*
X113000000Y16975000D03*
D11*
G36*
X113474505Y19598796D02*
G01*
X113498773Y19595196D01*
X113522572Y19589235D01*
X113545671Y19580970D01*
X113567850Y19570480D01*
X113588893Y19557868D01*
X113608599Y19543253D01*
X113626777Y19526777D01*
X113643253Y19508599D01*
X113657868Y19488893D01*
X113670480Y19467850D01*
X113680970Y19445671D01*
X113689235Y19422572D01*
X113695196Y19398773D01*
X113698796Y19374505D01*
X113700000Y19350001D01*
X113700000Y18699999D01*
X113698796Y18675495D01*
X113695196Y18651227D01*
X113689235Y18627428D01*
X113680970Y18604329D01*
X113670480Y18582150D01*
X113657868Y18561107D01*
X113643253Y18541401D01*
X113626777Y18523223D01*
X113608599Y18506747D01*
X113588893Y18492132D01*
X113567850Y18479520D01*
X113545671Y18469030D01*
X113522572Y18460765D01*
X113498773Y18454804D01*
X113474505Y18451204D01*
X113450001Y18450000D01*
X112549999Y18450000D01*
X112525495Y18451204D01*
X112501227Y18454804D01*
X112477428Y18460765D01*
X112454329Y18469030D01*
X112432150Y18479520D01*
X112411107Y18492132D01*
X112391401Y18506747D01*
X112373223Y18523223D01*
X112356747Y18541401D01*
X112342132Y18561107D01*
X112329520Y18582150D01*
X112319030Y18604329D01*
X112310765Y18627428D01*
X112304804Y18651227D01*
X112301204Y18675495D01*
X112300000Y18699999D01*
X112300000Y19350001D01*
X112301204Y19374505D01*
X112304804Y19398773D01*
X112310765Y19422572D01*
X112319030Y19445671D01*
X112329520Y19467850D01*
X112342132Y19488893D01*
X112356747Y19508599D01*
X112373223Y19526777D01*
X112391401Y19543253D01*
X112411107Y19557868D01*
X112432150Y19570480D01*
X112454329Y19580970D01*
X112477428Y19589235D01*
X112501227Y19595196D01*
X112525495Y19598796D01*
X112549999Y19600000D01*
X113450001Y19600000D01*
X113474505Y19598796D01*
X113474505Y19598796D01*
G37*
D12*
X113000000Y19025000D03*
D11*
G36*
X130474505Y16548796D02*
G01*
X130498773Y16545196D01*
X130522572Y16539235D01*
X130545671Y16530970D01*
X130567850Y16520480D01*
X130588893Y16507868D01*
X130608599Y16493253D01*
X130626777Y16476777D01*
X130643253Y16458599D01*
X130657868Y16438893D01*
X130670480Y16417850D01*
X130680970Y16395671D01*
X130689235Y16372572D01*
X130695196Y16348773D01*
X130698796Y16324505D01*
X130700000Y16300001D01*
X130700000Y15649999D01*
X130698796Y15625495D01*
X130695196Y15601227D01*
X130689235Y15577428D01*
X130680970Y15554329D01*
X130670480Y15532150D01*
X130657868Y15511107D01*
X130643253Y15491401D01*
X130626777Y15473223D01*
X130608599Y15456747D01*
X130588893Y15442132D01*
X130567850Y15429520D01*
X130545671Y15419030D01*
X130522572Y15410765D01*
X130498773Y15404804D01*
X130474505Y15401204D01*
X130450001Y15400000D01*
X129549999Y15400000D01*
X129525495Y15401204D01*
X129501227Y15404804D01*
X129477428Y15410765D01*
X129454329Y15419030D01*
X129432150Y15429520D01*
X129411107Y15442132D01*
X129391401Y15456747D01*
X129373223Y15473223D01*
X129356747Y15491401D01*
X129342132Y15511107D01*
X129329520Y15532150D01*
X129319030Y15554329D01*
X129310765Y15577428D01*
X129304804Y15601227D01*
X129301204Y15625495D01*
X129300000Y15649999D01*
X129300000Y16300001D01*
X129301204Y16324505D01*
X129304804Y16348773D01*
X129310765Y16372572D01*
X129319030Y16395671D01*
X129329520Y16417850D01*
X129342132Y16438893D01*
X129356747Y16458599D01*
X129373223Y16476777D01*
X129391401Y16493253D01*
X129411107Y16507868D01*
X129432150Y16520480D01*
X129454329Y16530970D01*
X129477428Y16539235D01*
X129501227Y16545196D01*
X129525495Y16548796D01*
X129549999Y16550000D01*
X130450001Y16550000D01*
X130474505Y16548796D01*
X130474505Y16548796D01*
G37*
D12*
X130000000Y15975000D03*
D11*
G36*
X130474505Y18598796D02*
G01*
X130498773Y18595196D01*
X130522572Y18589235D01*
X130545671Y18580970D01*
X130567850Y18570480D01*
X130588893Y18557868D01*
X130608599Y18543253D01*
X130626777Y18526777D01*
X130643253Y18508599D01*
X130657868Y18488893D01*
X130670480Y18467850D01*
X130680970Y18445671D01*
X130689235Y18422572D01*
X130695196Y18398773D01*
X130698796Y18374505D01*
X130700000Y18350001D01*
X130700000Y17699999D01*
X130698796Y17675495D01*
X130695196Y17651227D01*
X130689235Y17627428D01*
X130680970Y17604329D01*
X130670480Y17582150D01*
X130657868Y17561107D01*
X130643253Y17541401D01*
X130626777Y17523223D01*
X130608599Y17506747D01*
X130588893Y17492132D01*
X130567850Y17479520D01*
X130545671Y17469030D01*
X130522572Y17460765D01*
X130498773Y17454804D01*
X130474505Y17451204D01*
X130450001Y17450000D01*
X129549999Y17450000D01*
X129525495Y17451204D01*
X129501227Y17454804D01*
X129477428Y17460765D01*
X129454329Y17469030D01*
X129432150Y17479520D01*
X129411107Y17492132D01*
X129391401Y17506747D01*
X129373223Y17523223D01*
X129356747Y17541401D01*
X129342132Y17561107D01*
X129329520Y17582150D01*
X129319030Y17604329D01*
X129310765Y17627428D01*
X129304804Y17651227D01*
X129301204Y17675495D01*
X129300000Y17699999D01*
X129300000Y18350001D01*
X129301204Y18374505D01*
X129304804Y18398773D01*
X129310765Y18422572D01*
X129319030Y18445671D01*
X129329520Y18467850D01*
X129342132Y18488893D01*
X129356747Y18508599D01*
X129373223Y18526777D01*
X129391401Y18543253D01*
X129411107Y18557868D01*
X129432150Y18570480D01*
X129454329Y18580970D01*
X129477428Y18589235D01*
X129501227Y18595196D01*
X129525495Y18598796D01*
X129549999Y18600000D01*
X130450001Y18600000D01*
X130474505Y18598796D01*
X130474505Y18598796D01*
G37*
D12*
X130000000Y18025000D03*
D11*
G36*
X119364703Y21204278D02*
G01*
X119379264Y21202118D01*
X119393543Y21198541D01*
X119407403Y21193582D01*
X119420710Y21187288D01*
X119433336Y21179720D01*
X119445159Y21170952D01*
X119456066Y21161066D01*
X119465952Y21150159D01*
X119474720Y21138336D01*
X119482288Y21125710D01*
X119488582Y21112403D01*
X119493541Y21098543D01*
X119497118Y21084264D01*
X119499278Y21069703D01*
X119500000Y21055000D01*
X119500000Y20755000D01*
X119499278Y20740297D01*
X119497118Y20725736D01*
X119493541Y20711457D01*
X119488582Y20697597D01*
X119482288Y20684290D01*
X119474720Y20671664D01*
X119465952Y20659841D01*
X119456066Y20648934D01*
X119445159Y20639048D01*
X119433336Y20630280D01*
X119420710Y20622712D01*
X119407403Y20616418D01*
X119393543Y20611459D01*
X119379264Y20607882D01*
X119364703Y20605722D01*
X119350000Y20605000D01*
X117700000Y20605000D01*
X117685297Y20605722D01*
X117670736Y20607882D01*
X117656457Y20611459D01*
X117642597Y20616418D01*
X117629290Y20622712D01*
X117616664Y20630280D01*
X117604841Y20639048D01*
X117593934Y20648934D01*
X117584048Y20659841D01*
X117575280Y20671664D01*
X117567712Y20684290D01*
X117561418Y20697597D01*
X117556459Y20711457D01*
X117552882Y20725736D01*
X117550722Y20740297D01*
X117550000Y20755000D01*
X117550000Y21055000D01*
X117550722Y21069703D01*
X117552882Y21084264D01*
X117556459Y21098543D01*
X117561418Y21112403D01*
X117567712Y21125710D01*
X117575280Y21138336D01*
X117584048Y21150159D01*
X117593934Y21161066D01*
X117604841Y21170952D01*
X117616664Y21179720D01*
X117629290Y21187288D01*
X117642597Y21193582D01*
X117656457Y21198541D01*
X117670736Y21202118D01*
X117685297Y21204278D01*
X117700000Y21205000D01*
X119350000Y21205000D01*
X119364703Y21204278D01*
X119364703Y21204278D01*
G37*
D13*
X118525000Y20905000D03*
D11*
G36*
X119364703Y19934278D02*
G01*
X119379264Y19932118D01*
X119393543Y19928541D01*
X119407403Y19923582D01*
X119420710Y19917288D01*
X119433336Y19909720D01*
X119445159Y19900952D01*
X119456066Y19891066D01*
X119465952Y19880159D01*
X119474720Y19868336D01*
X119482288Y19855710D01*
X119488582Y19842403D01*
X119493541Y19828543D01*
X119497118Y19814264D01*
X119499278Y19799703D01*
X119500000Y19785000D01*
X119500000Y19485000D01*
X119499278Y19470297D01*
X119497118Y19455736D01*
X119493541Y19441457D01*
X119488582Y19427597D01*
X119482288Y19414290D01*
X119474720Y19401664D01*
X119465952Y19389841D01*
X119456066Y19378934D01*
X119445159Y19369048D01*
X119433336Y19360280D01*
X119420710Y19352712D01*
X119407403Y19346418D01*
X119393543Y19341459D01*
X119379264Y19337882D01*
X119364703Y19335722D01*
X119350000Y19335000D01*
X117700000Y19335000D01*
X117685297Y19335722D01*
X117670736Y19337882D01*
X117656457Y19341459D01*
X117642597Y19346418D01*
X117629290Y19352712D01*
X117616664Y19360280D01*
X117604841Y19369048D01*
X117593934Y19378934D01*
X117584048Y19389841D01*
X117575280Y19401664D01*
X117567712Y19414290D01*
X117561418Y19427597D01*
X117556459Y19441457D01*
X117552882Y19455736D01*
X117550722Y19470297D01*
X117550000Y19485000D01*
X117550000Y19785000D01*
X117550722Y19799703D01*
X117552882Y19814264D01*
X117556459Y19828543D01*
X117561418Y19842403D01*
X117567712Y19855710D01*
X117575280Y19868336D01*
X117584048Y19880159D01*
X117593934Y19891066D01*
X117604841Y19900952D01*
X117616664Y19909720D01*
X117629290Y19917288D01*
X117642597Y19923582D01*
X117656457Y19928541D01*
X117670736Y19932118D01*
X117685297Y19934278D01*
X117700000Y19935000D01*
X119350000Y19935000D01*
X119364703Y19934278D01*
X119364703Y19934278D01*
G37*
D13*
X118525000Y19635000D03*
D11*
G36*
X119364703Y18664278D02*
G01*
X119379264Y18662118D01*
X119393543Y18658541D01*
X119407403Y18653582D01*
X119420710Y18647288D01*
X119433336Y18639720D01*
X119445159Y18630952D01*
X119456066Y18621066D01*
X119465952Y18610159D01*
X119474720Y18598336D01*
X119482288Y18585710D01*
X119488582Y18572403D01*
X119493541Y18558543D01*
X119497118Y18544264D01*
X119499278Y18529703D01*
X119500000Y18515000D01*
X119500000Y18215000D01*
X119499278Y18200297D01*
X119497118Y18185736D01*
X119493541Y18171457D01*
X119488582Y18157597D01*
X119482288Y18144290D01*
X119474720Y18131664D01*
X119465952Y18119841D01*
X119456066Y18108934D01*
X119445159Y18099048D01*
X119433336Y18090280D01*
X119420710Y18082712D01*
X119407403Y18076418D01*
X119393543Y18071459D01*
X119379264Y18067882D01*
X119364703Y18065722D01*
X119350000Y18065000D01*
X117700000Y18065000D01*
X117685297Y18065722D01*
X117670736Y18067882D01*
X117656457Y18071459D01*
X117642597Y18076418D01*
X117629290Y18082712D01*
X117616664Y18090280D01*
X117604841Y18099048D01*
X117593934Y18108934D01*
X117584048Y18119841D01*
X117575280Y18131664D01*
X117567712Y18144290D01*
X117561418Y18157597D01*
X117556459Y18171457D01*
X117552882Y18185736D01*
X117550722Y18200297D01*
X117550000Y18215000D01*
X117550000Y18515000D01*
X117550722Y18529703D01*
X117552882Y18544264D01*
X117556459Y18558543D01*
X117561418Y18572403D01*
X117567712Y18585710D01*
X117575280Y18598336D01*
X117584048Y18610159D01*
X117593934Y18621066D01*
X117604841Y18630952D01*
X117616664Y18639720D01*
X117629290Y18647288D01*
X117642597Y18653582D01*
X117656457Y18658541D01*
X117670736Y18662118D01*
X117685297Y18664278D01*
X117700000Y18665000D01*
X119350000Y18665000D01*
X119364703Y18664278D01*
X119364703Y18664278D01*
G37*
D13*
X118525000Y18365000D03*
D11*
G36*
X119364703Y17394278D02*
G01*
X119379264Y17392118D01*
X119393543Y17388541D01*
X119407403Y17383582D01*
X119420710Y17377288D01*
X119433336Y17369720D01*
X119445159Y17360952D01*
X119456066Y17351066D01*
X119465952Y17340159D01*
X119474720Y17328336D01*
X119482288Y17315710D01*
X119488582Y17302403D01*
X119493541Y17288543D01*
X119497118Y17274264D01*
X119499278Y17259703D01*
X119500000Y17245000D01*
X119500000Y16945000D01*
X119499278Y16930297D01*
X119497118Y16915736D01*
X119493541Y16901457D01*
X119488582Y16887597D01*
X119482288Y16874290D01*
X119474720Y16861664D01*
X119465952Y16849841D01*
X119456066Y16838934D01*
X119445159Y16829048D01*
X119433336Y16820280D01*
X119420710Y16812712D01*
X119407403Y16806418D01*
X119393543Y16801459D01*
X119379264Y16797882D01*
X119364703Y16795722D01*
X119350000Y16795000D01*
X117700000Y16795000D01*
X117685297Y16795722D01*
X117670736Y16797882D01*
X117656457Y16801459D01*
X117642597Y16806418D01*
X117629290Y16812712D01*
X117616664Y16820280D01*
X117604841Y16829048D01*
X117593934Y16838934D01*
X117584048Y16849841D01*
X117575280Y16861664D01*
X117567712Y16874290D01*
X117561418Y16887597D01*
X117556459Y16901457D01*
X117552882Y16915736D01*
X117550722Y16930297D01*
X117550000Y16945000D01*
X117550000Y17245000D01*
X117550722Y17259703D01*
X117552882Y17274264D01*
X117556459Y17288543D01*
X117561418Y17302403D01*
X117567712Y17315710D01*
X117575280Y17328336D01*
X117584048Y17340159D01*
X117593934Y17351066D01*
X117604841Y17360952D01*
X117616664Y17369720D01*
X117629290Y17377288D01*
X117642597Y17383582D01*
X117656457Y17388541D01*
X117670736Y17392118D01*
X117685297Y17394278D01*
X117700000Y17395000D01*
X119350000Y17395000D01*
X119364703Y17394278D01*
X119364703Y17394278D01*
G37*
D13*
X118525000Y17095000D03*
D11*
G36*
X124314703Y17394278D02*
G01*
X124329264Y17392118D01*
X124343543Y17388541D01*
X124357403Y17383582D01*
X124370710Y17377288D01*
X124383336Y17369720D01*
X124395159Y17360952D01*
X124406066Y17351066D01*
X124415952Y17340159D01*
X124424720Y17328336D01*
X124432288Y17315710D01*
X124438582Y17302403D01*
X124443541Y17288543D01*
X124447118Y17274264D01*
X124449278Y17259703D01*
X124450000Y17245000D01*
X124450000Y16945000D01*
X124449278Y16930297D01*
X124447118Y16915736D01*
X124443541Y16901457D01*
X124438582Y16887597D01*
X124432288Y16874290D01*
X124424720Y16861664D01*
X124415952Y16849841D01*
X124406066Y16838934D01*
X124395159Y16829048D01*
X124383336Y16820280D01*
X124370710Y16812712D01*
X124357403Y16806418D01*
X124343543Y16801459D01*
X124329264Y16797882D01*
X124314703Y16795722D01*
X124300000Y16795000D01*
X122650000Y16795000D01*
X122635297Y16795722D01*
X122620736Y16797882D01*
X122606457Y16801459D01*
X122592597Y16806418D01*
X122579290Y16812712D01*
X122566664Y16820280D01*
X122554841Y16829048D01*
X122543934Y16838934D01*
X122534048Y16849841D01*
X122525280Y16861664D01*
X122517712Y16874290D01*
X122511418Y16887597D01*
X122506459Y16901457D01*
X122502882Y16915736D01*
X122500722Y16930297D01*
X122500000Y16945000D01*
X122500000Y17245000D01*
X122500722Y17259703D01*
X122502882Y17274264D01*
X122506459Y17288543D01*
X122511418Y17302403D01*
X122517712Y17315710D01*
X122525280Y17328336D01*
X122534048Y17340159D01*
X122543934Y17351066D01*
X122554841Y17360952D01*
X122566664Y17369720D01*
X122579290Y17377288D01*
X122592597Y17383582D01*
X122606457Y17388541D01*
X122620736Y17392118D01*
X122635297Y17394278D01*
X122650000Y17395000D01*
X124300000Y17395000D01*
X124314703Y17394278D01*
X124314703Y17394278D01*
G37*
D13*
X123475000Y17095000D03*
D11*
G36*
X124314703Y18664278D02*
G01*
X124329264Y18662118D01*
X124343543Y18658541D01*
X124357403Y18653582D01*
X124370710Y18647288D01*
X124383336Y18639720D01*
X124395159Y18630952D01*
X124406066Y18621066D01*
X124415952Y18610159D01*
X124424720Y18598336D01*
X124432288Y18585710D01*
X124438582Y18572403D01*
X124443541Y18558543D01*
X124447118Y18544264D01*
X124449278Y18529703D01*
X124450000Y18515000D01*
X124450000Y18215000D01*
X124449278Y18200297D01*
X124447118Y18185736D01*
X124443541Y18171457D01*
X124438582Y18157597D01*
X124432288Y18144290D01*
X124424720Y18131664D01*
X124415952Y18119841D01*
X124406066Y18108934D01*
X124395159Y18099048D01*
X124383336Y18090280D01*
X124370710Y18082712D01*
X124357403Y18076418D01*
X124343543Y18071459D01*
X124329264Y18067882D01*
X124314703Y18065722D01*
X124300000Y18065000D01*
X122650000Y18065000D01*
X122635297Y18065722D01*
X122620736Y18067882D01*
X122606457Y18071459D01*
X122592597Y18076418D01*
X122579290Y18082712D01*
X122566664Y18090280D01*
X122554841Y18099048D01*
X122543934Y18108934D01*
X122534048Y18119841D01*
X122525280Y18131664D01*
X122517712Y18144290D01*
X122511418Y18157597D01*
X122506459Y18171457D01*
X122502882Y18185736D01*
X122500722Y18200297D01*
X122500000Y18215000D01*
X122500000Y18515000D01*
X122500722Y18529703D01*
X122502882Y18544264D01*
X122506459Y18558543D01*
X122511418Y18572403D01*
X122517712Y18585710D01*
X122525280Y18598336D01*
X122534048Y18610159D01*
X122543934Y18621066D01*
X122554841Y18630952D01*
X122566664Y18639720D01*
X122579290Y18647288D01*
X122592597Y18653582D01*
X122606457Y18658541D01*
X122620736Y18662118D01*
X122635297Y18664278D01*
X122650000Y18665000D01*
X124300000Y18665000D01*
X124314703Y18664278D01*
X124314703Y18664278D01*
G37*
D13*
X123475000Y18365000D03*
D11*
G36*
X124314703Y19934278D02*
G01*
X124329264Y19932118D01*
X124343543Y19928541D01*
X124357403Y19923582D01*
X124370710Y19917288D01*
X124383336Y19909720D01*
X124395159Y19900952D01*
X124406066Y19891066D01*
X124415952Y19880159D01*
X124424720Y19868336D01*
X124432288Y19855710D01*
X124438582Y19842403D01*
X124443541Y19828543D01*
X124447118Y19814264D01*
X124449278Y19799703D01*
X124450000Y19785000D01*
X124450000Y19485000D01*
X124449278Y19470297D01*
X124447118Y19455736D01*
X124443541Y19441457D01*
X124438582Y19427597D01*
X124432288Y19414290D01*
X124424720Y19401664D01*
X124415952Y19389841D01*
X124406066Y19378934D01*
X124395159Y19369048D01*
X124383336Y19360280D01*
X124370710Y19352712D01*
X124357403Y19346418D01*
X124343543Y19341459D01*
X124329264Y19337882D01*
X124314703Y19335722D01*
X124300000Y19335000D01*
X122650000Y19335000D01*
X122635297Y19335722D01*
X122620736Y19337882D01*
X122606457Y19341459D01*
X122592597Y19346418D01*
X122579290Y19352712D01*
X122566664Y19360280D01*
X122554841Y19369048D01*
X122543934Y19378934D01*
X122534048Y19389841D01*
X122525280Y19401664D01*
X122517712Y19414290D01*
X122511418Y19427597D01*
X122506459Y19441457D01*
X122502882Y19455736D01*
X122500722Y19470297D01*
X122500000Y19485000D01*
X122500000Y19785000D01*
X122500722Y19799703D01*
X122502882Y19814264D01*
X122506459Y19828543D01*
X122511418Y19842403D01*
X122517712Y19855710D01*
X122525280Y19868336D01*
X122534048Y19880159D01*
X122543934Y19891066D01*
X122554841Y19900952D01*
X122566664Y19909720D01*
X122579290Y19917288D01*
X122592597Y19923582D01*
X122606457Y19928541D01*
X122620736Y19932118D01*
X122635297Y19934278D01*
X122650000Y19935000D01*
X124300000Y19935000D01*
X124314703Y19934278D01*
X124314703Y19934278D01*
G37*
D13*
X123475000Y19635000D03*
D11*
G36*
X124314703Y21204278D02*
G01*
X124329264Y21202118D01*
X124343543Y21198541D01*
X124357403Y21193582D01*
X124370710Y21187288D01*
X124383336Y21179720D01*
X124395159Y21170952D01*
X124406066Y21161066D01*
X124415952Y21150159D01*
X124424720Y21138336D01*
X124432288Y21125710D01*
X124438582Y21112403D01*
X124443541Y21098543D01*
X124447118Y21084264D01*
X124449278Y21069703D01*
X124450000Y21055000D01*
X124450000Y20755000D01*
X124449278Y20740297D01*
X124447118Y20725736D01*
X124443541Y20711457D01*
X124438582Y20697597D01*
X124432288Y20684290D01*
X124424720Y20671664D01*
X124415952Y20659841D01*
X124406066Y20648934D01*
X124395159Y20639048D01*
X124383336Y20630280D01*
X124370710Y20622712D01*
X124357403Y20616418D01*
X124343543Y20611459D01*
X124329264Y20607882D01*
X124314703Y20605722D01*
X124300000Y20605000D01*
X122650000Y20605000D01*
X122635297Y20605722D01*
X122620736Y20607882D01*
X122606457Y20611459D01*
X122592597Y20616418D01*
X122579290Y20622712D01*
X122566664Y20630280D01*
X122554841Y20639048D01*
X122543934Y20648934D01*
X122534048Y20659841D01*
X122525280Y20671664D01*
X122517712Y20684290D01*
X122511418Y20697597D01*
X122506459Y20711457D01*
X122502882Y20725736D01*
X122500722Y20740297D01*
X122500000Y20755000D01*
X122500000Y21055000D01*
X122500722Y21069703D01*
X122502882Y21084264D01*
X122506459Y21098543D01*
X122511418Y21112403D01*
X122517712Y21125710D01*
X122525280Y21138336D01*
X122534048Y21150159D01*
X122543934Y21161066D01*
X122554841Y21170952D01*
X122566664Y21179720D01*
X122579290Y21187288D01*
X122592597Y21193582D01*
X122606457Y21198541D01*
X122620736Y21202118D01*
X122635297Y21204278D01*
X122650000Y21205000D01*
X124300000Y21205000D01*
X124314703Y21204278D01*
X124314703Y21204278D01*
G37*
D13*
X123475000Y20905000D03*
D11*
G36*
X130474505Y20548796D02*
G01*
X130498773Y20545196D01*
X130522572Y20539235D01*
X130545671Y20530970D01*
X130567850Y20520480D01*
X130588893Y20507868D01*
X130608599Y20493253D01*
X130626777Y20476777D01*
X130643253Y20458599D01*
X130657868Y20438893D01*
X130670480Y20417850D01*
X130680970Y20395671D01*
X130689235Y20372572D01*
X130695196Y20348773D01*
X130698796Y20324505D01*
X130700000Y20300001D01*
X130700000Y19649999D01*
X130698796Y19625495D01*
X130695196Y19601227D01*
X130689235Y19577428D01*
X130680970Y19554329D01*
X130670480Y19532150D01*
X130657868Y19511107D01*
X130643253Y19491401D01*
X130626777Y19473223D01*
X130608599Y19456747D01*
X130588893Y19442132D01*
X130567850Y19429520D01*
X130545671Y19419030D01*
X130522572Y19410765D01*
X130498773Y19404804D01*
X130474505Y19401204D01*
X130450001Y19400000D01*
X129549999Y19400000D01*
X129525495Y19401204D01*
X129501227Y19404804D01*
X129477428Y19410765D01*
X129454329Y19419030D01*
X129432150Y19429520D01*
X129411107Y19442132D01*
X129391401Y19456747D01*
X129373223Y19473223D01*
X129356747Y19491401D01*
X129342132Y19511107D01*
X129329520Y19532150D01*
X129319030Y19554329D01*
X129310765Y19577428D01*
X129304804Y19601227D01*
X129301204Y19625495D01*
X129300000Y19649999D01*
X129300000Y20300001D01*
X129301204Y20324505D01*
X129304804Y20348773D01*
X129310765Y20372572D01*
X129319030Y20395671D01*
X129329520Y20417850D01*
X129342132Y20438893D01*
X129356747Y20458599D01*
X129373223Y20476777D01*
X129391401Y20493253D01*
X129411107Y20507868D01*
X129432150Y20520480D01*
X129454329Y20530970D01*
X129477428Y20539235D01*
X129501227Y20545196D01*
X129525495Y20548796D01*
X129549999Y20550000D01*
X130450001Y20550000D01*
X130474505Y20548796D01*
X130474505Y20548796D01*
G37*
D12*
X130000000Y19975000D03*
D11*
G36*
X130474505Y22598796D02*
G01*
X130498773Y22595196D01*
X130522572Y22589235D01*
X130545671Y22580970D01*
X130567850Y22570480D01*
X130588893Y22557868D01*
X130608599Y22543253D01*
X130626777Y22526777D01*
X130643253Y22508599D01*
X130657868Y22488893D01*
X130670480Y22467850D01*
X130680970Y22445671D01*
X130689235Y22422572D01*
X130695196Y22398773D01*
X130698796Y22374505D01*
X130700000Y22350001D01*
X130700000Y21699999D01*
X130698796Y21675495D01*
X130695196Y21651227D01*
X130689235Y21627428D01*
X130680970Y21604329D01*
X130670480Y21582150D01*
X130657868Y21561107D01*
X130643253Y21541401D01*
X130626777Y21523223D01*
X130608599Y21506747D01*
X130588893Y21492132D01*
X130567850Y21479520D01*
X130545671Y21469030D01*
X130522572Y21460765D01*
X130498773Y21454804D01*
X130474505Y21451204D01*
X130450001Y21450000D01*
X129549999Y21450000D01*
X129525495Y21451204D01*
X129501227Y21454804D01*
X129477428Y21460765D01*
X129454329Y21469030D01*
X129432150Y21479520D01*
X129411107Y21492132D01*
X129391401Y21506747D01*
X129373223Y21523223D01*
X129356747Y21541401D01*
X129342132Y21561107D01*
X129329520Y21582150D01*
X129319030Y21604329D01*
X129310765Y21627428D01*
X129304804Y21651227D01*
X129301204Y21675495D01*
X129300000Y21699999D01*
X129300000Y22350001D01*
X129301204Y22374505D01*
X129304804Y22398773D01*
X129310765Y22422572D01*
X129319030Y22445671D01*
X129329520Y22467850D01*
X129342132Y22488893D01*
X129356747Y22508599D01*
X129373223Y22526777D01*
X129391401Y22543253D01*
X129411107Y22557868D01*
X129432150Y22570480D01*
X129454329Y22580970D01*
X129477428Y22589235D01*
X129501227Y22595196D01*
X129525495Y22598796D01*
X129549999Y22600000D01*
X130450001Y22600000D01*
X130474505Y22598796D01*
X130474505Y22598796D01*
G37*
D12*
X130000000Y22025000D03*
D11*
G36*
X113474505Y15598796D02*
G01*
X113498773Y15595196D01*
X113522572Y15589235D01*
X113545671Y15580970D01*
X113567850Y15570480D01*
X113588893Y15557868D01*
X113608599Y15543253D01*
X113626777Y15526777D01*
X113643253Y15508599D01*
X113657868Y15488893D01*
X113670480Y15467850D01*
X113680970Y15445671D01*
X113689235Y15422572D01*
X113695196Y15398773D01*
X113698796Y15374505D01*
X113700000Y15350001D01*
X113700000Y14699999D01*
X113698796Y14675495D01*
X113695196Y14651227D01*
X113689235Y14627428D01*
X113680970Y14604329D01*
X113670480Y14582150D01*
X113657868Y14561107D01*
X113643253Y14541401D01*
X113626777Y14523223D01*
X113608599Y14506747D01*
X113588893Y14492132D01*
X113567850Y14479520D01*
X113545671Y14469030D01*
X113522572Y14460765D01*
X113498773Y14454804D01*
X113474505Y14451204D01*
X113450001Y14450000D01*
X112549999Y14450000D01*
X112525495Y14451204D01*
X112501227Y14454804D01*
X112477428Y14460765D01*
X112454329Y14469030D01*
X112432150Y14479520D01*
X112411107Y14492132D01*
X112391401Y14506747D01*
X112373223Y14523223D01*
X112356747Y14541401D01*
X112342132Y14561107D01*
X112329520Y14582150D01*
X112319030Y14604329D01*
X112310765Y14627428D01*
X112304804Y14651227D01*
X112301204Y14675495D01*
X112300000Y14699999D01*
X112300000Y15350001D01*
X112301204Y15374505D01*
X112304804Y15398773D01*
X112310765Y15422572D01*
X112319030Y15445671D01*
X112329520Y15467850D01*
X112342132Y15488893D01*
X112356747Y15508599D01*
X112373223Y15526777D01*
X112391401Y15543253D01*
X112411107Y15557868D01*
X112432150Y15570480D01*
X112454329Y15580970D01*
X112477428Y15589235D01*
X112501227Y15595196D01*
X112525495Y15598796D01*
X112549999Y15600000D01*
X113450001Y15600000D01*
X113474505Y15598796D01*
X113474505Y15598796D01*
G37*
D12*
X113000000Y15025000D03*
D11*
G36*
X113474505Y13548796D02*
G01*
X113498773Y13545196D01*
X113522572Y13539235D01*
X113545671Y13530970D01*
X113567850Y13520480D01*
X113588893Y13507868D01*
X113608599Y13493253D01*
X113626777Y13476777D01*
X113643253Y13458599D01*
X113657868Y13438893D01*
X113670480Y13417850D01*
X113680970Y13395671D01*
X113689235Y13372572D01*
X113695196Y13348773D01*
X113698796Y13324505D01*
X113700000Y13300001D01*
X113700000Y12649999D01*
X113698796Y12625495D01*
X113695196Y12601227D01*
X113689235Y12577428D01*
X113680970Y12554329D01*
X113670480Y12532150D01*
X113657868Y12511107D01*
X113643253Y12491401D01*
X113626777Y12473223D01*
X113608599Y12456747D01*
X113588893Y12442132D01*
X113567850Y12429520D01*
X113545671Y12419030D01*
X113522572Y12410765D01*
X113498773Y12404804D01*
X113474505Y12401204D01*
X113450001Y12400000D01*
X112549999Y12400000D01*
X112525495Y12401204D01*
X112501227Y12404804D01*
X112477428Y12410765D01*
X112454329Y12419030D01*
X112432150Y12429520D01*
X112411107Y12442132D01*
X112391401Y12456747D01*
X112373223Y12473223D01*
X112356747Y12491401D01*
X112342132Y12511107D01*
X112329520Y12532150D01*
X112319030Y12554329D01*
X112310765Y12577428D01*
X112304804Y12601227D01*
X112301204Y12625495D01*
X112300000Y12649999D01*
X112300000Y13300001D01*
X112301204Y13324505D01*
X112304804Y13348773D01*
X112310765Y13372572D01*
X112319030Y13395671D01*
X112329520Y13417850D01*
X112342132Y13438893D01*
X112356747Y13458599D01*
X112373223Y13476777D01*
X112391401Y13493253D01*
X112411107Y13507868D01*
X112432150Y13520480D01*
X112454329Y13530970D01*
X112477428Y13539235D01*
X112501227Y13545196D01*
X112525495Y13548796D01*
X112549999Y13550000D01*
X113450001Y13550000D01*
X113474505Y13548796D01*
X113474505Y13548796D01*
G37*
D12*
X113000000Y12975000D03*
D11*
G36*
X113474505Y23598796D02*
G01*
X113498773Y23595196D01*
X113522572Y23589235D01*
X113545671Y23580970D01*
X113567850Y23570480D01*
X113588893Y23557868D01*
X113608599Y23543253D01*
X113626777Y23526777D01*
X113643253Y23508599D01*
X113657868Y23488893D01*
X113670480Y23467850D01*
X113680970Y23445671D01*
X113689235Y23422572D01*
X113695196Y23398773D01*
X113698796Y23374505D01*
X113700000Y23350001D01*
X113700000Y22699999D01*
X113698796Y22675495D01*
X113695196Y22651227D01*
X113689235Y22627428D01*
X113680970Y22604329D01*
X113670480Y22582150D01*
X113657868Y22561107D01*
X113643253Y22541401D01*
X113626777Y22523223D01*
X113608599Y22506747D01*
X113588893Y22492132D01*
X113567850Y22479520D01*
X113545671Y22469030D01*
X113522572Y22460765D01*
X113498773Y22454804D01*
X113474505Y22451204D01*
X113450001Y22450000D01*
X112549999Y22450000D01*
X112525495Y22451204D01*
X112501227Y22454804D01*
X112477428Y22460765D01*
X112454329Y22469030D01*
X112432150Y22479520D01*
X112411107Y22492132D01*
X112391401Y22506747D01*
X112373223Y22523223D01*
X112356747Y22541401D01*
X112342132Y22561107D01*
X112329520Y22582150D01*
X112319030Y22604329D01*
X112310765Y22627428D01*
X112304804Y22651227D01*
X112301204Y22675495D01*
X112300000Y22699999D01*
X112300000Y23350001D01*
X112301204Y23374505D01*
X112304804Y23398773D01*
X112310765Y23422572D01*
X112319030Y23445671D01*
X112329520Y23467850D01*
X112342132Y23488893D01*
X112356747Y23508599D01*
X112373223Y23526777D01*
X112391401Y23543253D01*
X112411107Y23557868D01*
X112432150Y23570480D01*
X112454329Y23580970D01*
X112477428Y23589235D01*
X112501227Y23595196D01*
X112525495Y23598796D01*
X112549999Y23600000D01*
X113450001Y23600000D01*
X113474505Y23598796D01*
X113474505Y23598796D01*
G37*
D12*
X113000000Y23025000D03*
D11*
G36*
X113474505Y21548796D02*
G01*
X113498773Y21545196D01*
X113522572Y21539235D01*
X113545671Y21530970D01*
X113567850Y21520480D01*
X113588893Y21507868D01*
X113608599Y21493253D01*
X113626777Y21476777D01*
X113643253Y21458599D01*
X113657868Y21438893D01*
X113670480Y21417850D01*
X113680970Y21395671D01*
X113689235Y21372572D01*
X113695196Y21348773D01*
X113698796Y21324505D01*
X113700000Y21300001D01*
X113700000Y20649999D01*
X113698796Y20625495D01*
X113695196Y20601227D01*
X113689235Y20577428D01*
X113680970Y20554329D01*
X113670480Y20532150D01*
X113657868Y20511107D01*
X113643253Y20491401D01*
X113626777Y20473223D01*
X113608599Y20456747D01*
X113588893Y20442132D01*
X113567850Y20429520D01*
X113545671Y20419030D01*
X113522572Y20410765D01*
X113498773Y20404804D01*
X113474505Y20401204D01*
X113450001Y20400000D01*
X112549999Y20400000D01*
X112525495Y20401204D01*
X112501227Y20404804D01*
X112477428Y20410765D01*
X112454329Y20419030D01*
X112432150Y20429520D01*
X112411107Y20442132D01*
X112391401Y20456747D01*
X112373223Y20473223D01*
X112356747Y20491401D01*
X112342132Y20511107D01*
X112329520Y20532150D01*
X112319030Y20554329D01*
X112310765Y20577428D01*
X112304804Y20601227D01*
X112301204Y20625495D01*
X112300000Y20649999D01*
X112300000Y21300001D01*
X112301204Y21324505D01*
X112304804Y21348773D01*
X112310765Y21372572D01*
X112319030Y21395671D01*
X112329520Y21417850D01*
X112342132Y21438893D01*
X112356747Y21458599D01*
X112373223Y21476777D01*
X112391401Y21493253D01*
X112411107Y21507868D01*
X112432150Y21520480D01*
X112454329Y21530970D01*
X112477428Y21539235D01*
X112501227Y21545196D01*
X112525495Y21548796D01*
X112549999Y21550000D01*
X113450001Y21550000D01*
X113474505Y21548796D01*
X113474505Y21548796D01*
G37*
D12*
X113000000Y20975000D03*
D14*
X113000000Y11500000D03*
X113000000Y24500000D03*
X118750000Y22000000D03*
D15*
X113000000Y24500000D02*
X113000000Y23025000D01*
X113000000Y11500000D02*
X113000000Y12975000D01*
X118750000Y21130000D02*
X118525000Y20905000D01*
X118750000Y22000000D02*
X118750000Y21130000D01*
X113000000Y16975000D02*
X113000000Y15025000D01*
X115835000Y18365000D02*
X118525000Y18365000D01*
X115200000Y19000000D02*
X115835000Y18365000D01*
X113000000Y19025000D02*
X113025000Y19000000D01*
X113025000Y19000000D02*
X115200000Y19000000D01*
X129975000Y22000000D02*
X130000000Y22025000D01*
X127900000Y22000000D02*
X129975000Y22000000D01*
X126800000Y20900000D02*
X127900000Y22000000D01*
X123475000Y20905000D02*
X123480000Y20900000D01*
X123480000Y20900000D02*
X126800000Y20900000D01*
X117450000Y19635000D02*
X118525000Y19635000D01*
X116365000Y19635000D02*
X117450000Y19635000D01*
X113000000Y20975000D02*
X115025000Y20975000D01*
X115025000Y20975000D02*
X116365000Y19635000D01*
X124550000Y18365000D02*
X123475000Y18365000D01*
X126810000Y18365000D02*
X124550000Y18365000D01*
X129200000Y15975000D02*
X126810000Y18365000D01*
X130000000Y15975000D02*
X129200000Y15975000D01*
X118660000Y19500000D02*
X118525000Y19635000D01*
X120500000Y19500000D02*
X118660000Y19500000D01*
X121000000Y19000000D02*
X120500000Y19500000D01*
X121000000Y18980000D02*
X121000000Y19000000D01*
X123475000Y18365000D02*
X121615000Y18365000D01*
X121615000Y18365000D02*
X121000000Y18980000D01*
X123510000Y19600000D02*
X123475000Y19635000D01*
X127500000Y19600000D02*
X123510000Y19600000D01*
X127900000Y20000000D02*
X127500000Y19600000D01*
X130000000Y19975000D02*
X129975000Y20000000D01*
X129975000Y20000000D02*
X127900000Y20000000D01*
X130000000Y19975000D02*
X130000000Y18025000D01*
G36*
X137600000Y4400000D02*
G01*
X104400000Y4400000D01*
X104400000Y13300001D01*
X111923186Y13300001D01*
X111923186Y12649999D01*
X111935230Y12527714D01*
X111970899Y12410128D01*
X112028823Y12301760D01*
X112106775Y12206775D01*
X112201760Y12128823D01*
X112310128Y12070899D01*
X112427714Y12035230D01*
X112438183Y12034199D01*
X112398018Y11994034D01*
X112313204Y11867100D01*
X112254783Y11726059D01*
X112225000Y11576331D01*
X112225000Y11423669D01*
X112254783Y11273941D01*
X112313204Y11132900D01*
X112398018Y11005966D01*
X112505966Y10898018D01*
X112632900Y10813204D01*
X112773941Y10754783D01*
X112923669Y10725000D01*
X113076331Y10725000D01*
X113226059Y10754783D01*
X113367100Y10813204D01*
X113494034Y10898018D01*
X113601982Y11005966D01*
X113686796Y11132900D01*
X113745217Y11273941D01*
X113775000Y11423669D01*
X113775000Y11576331D01*
X113745217Y11726059D01*
X113686796Y11867100D01*
X113601982Y11994034D01*
X113561817Y12034199D01*
X113572286Y12035230D01*
X113689872Y12070899D01*
X113798240Y12128823D01*
X113893225Y12206775D01*
X113971177Y12301760D01*
X114029101Y12410128D01*
X114064770Y12527714D01*
X114076814Y12649999D01*
X114076814Y13300001D01*
X114064770Y13422286D01*
X114029101Y13539872D01*
X113971177Y13648240D01*
X113893225Y13743225D01*
X113798240Y13821177D01*
X113689872Y13879101D01*
X113572286Y13914770D01*
X113450001Y13926814D01*
X112549999Y13926814D01*
X112427714Y13914770D01*
X112310128Y13879101D01*
X112201760Y13821177D01*
X112106775Y13743225D01*
X112028823Y13648240D01*
X111970899Y13539872D01*
X111935230Y13422286D01*
X111923186Y13300001D01*
X104400000Y13300001D01*
X104400000Y17300001D01*
X111923186Y17300001D01*
X111923186Y16649999D01*
X111935230Y16527714D01*
X111970899Y16410128D01*
X112028823Y16301760D01*
X112106775Y16206775D01*
X112201760Y16128823D01*
X112310128Y16070899D01*
X112427714Y16035230D01*
X112500000Y16028110D01*
X112500001Y15971890D01*
X112427714Y15964770D01*
X112310128Y15929101D01*
X112201760Y15871177D01*
X112106775Y15793225D01*
X112028823Y15698240D01*
X111970899Y15589872D01*
X111935230Y15472286D01*
X111923186Y15350001D01*
X111923186Y14699999D01*
X111935230Y14577714D01*
X111970899Y14460128D01*
X112028823Y14351760D01*
X112106775Y14256775D01*
X112201760Y14178823D01*
X112310128Y14120899D01*
X112427714Y14085230D01*
X112549999Y14073186D01*
X113450001Y14073186D01*
X113572286Y14085230D01*
X113689872Y14120899D01*
X113798240Y14178823D01*
X113893225Y14256775D01*
X113971177Y14351760D01*
X114029101Y14460128D01*
X114064770Y14577714D01*
X114076814Y14699999D01*
X114076814Y15350001D01*
X114064770Y15472286D01*
X114029101Y15589872D01*
X113971177Y15698240D01*
X113893225Y15793225D01*
X113798240Y15871177D01*
X113689872Y15929101D01*
X113572286Y15964770D01*
X113500000Y15971890D01*
X113500000Y16028110D01*
X113572286Y16035230D01*
X113689872Y16070899D01*
X113798240Y16128823D01*
X113893225Y16206775D01*
X113971177Y16301760D01*
X114029101Y16410128D01*
X114064770Y16527714D01*
X114076814Y16649999D01*
X114076814Y16795000D01*
X116921976Y16795000D01*
X116934043Y16672479D01*
X116969781Y16554666D01*
X117027817Y16446089D01*
X117105920Y16350920D01*
X117201089Y16272817D01*
X117309666Y16214781D01*
X117427479Y16179043D01*
X117550000Y16166976D01*
X118243750Y16170000D01*
X118400000Y16326250D01*
X118400000Y16970000D01*
X118650000Y16970000D01*
X118650000Y16326250D01*
X118806250Y16170000D01*
X119500000Y16166976D01*
X119622521Y16179043D01*
X119740334Y16214781D01*
X119848911Y16272817D01*
X119944080Y16350920D01*
X120022183Y16446089D01*
X120080219Y16554666D01*
X120115957Y16672479D01*
X120128024Y16795000D01*
X120125000Y16813750D01*
X119968750Y16970000D01*
X118650000Y16970000D01*
X118400000Y16970000D01*
X117081250Y16970000D01*
X116925000Y16813750D01*
X116921976Y16795000D01*
X114076814Y16795000D01*
X114076814Y17300001D01*
X114064770Y17422286D01*
X114029101Y17539872D01*
X113971177Y17648240D01*
X113893225Y17743225D01*
X113798240Y17821177D01*
X113689872Y17879101D01*
X113572286Y17914770D01*
X113450001Y17926814D01*
X112549999Y17926814D01*
X112427714Y17914770D01*
X112310128Y17879101D01*
X112201760Y17821177D01*
X112106775Y17743225D01*
X112028823Y17648240D01*
X111970899Y17539872D01*
X111935230Y17422286D01*
X111923186Y17300001D01*
X104400000Y17300001D01*
X104400000Y21300001D01*
X111923186Y21300001D01*
X111923186Y20649999D01*
X111935230Y20527714D01*
X111970899Y20410128D01*
X112028823Y20301760D01*
X112106775Y20206775D01*
X112201760Y20128823D01*
X112310128Y20070899D01*
X112427714Y20035230D01*
X112549999Y20023186D01*
X113450001Y20023186D01*
X113572286Y20035230D01*
X113689872Y20070899D01*
X113798240Y20128823D01*
X113893225Y20206775D01*
X113971177Y20301760D01*
X114029101Y20410128D01*
X114048780Y20475000D01*
X114817895Y20475000D01*
X115994075Y19298819D01*
X116009736Y19279736D01*
X116085871Y19217254D01*
X116172733Y19170825D01*
X116266983Y19142235D01*
X116340440Y19135000D01*
X116340441Y19135000D01*
X116364999Y19132581D01*
X116389557Y19135000D01*
X117309009Y19135000D01*
X117327486Y19112486D01*
X117407318Y19046970D01*
X117495192Y19000000D01*
X117407318Y18953030D01*
X117327486Y18887514D01*
X117309009Y18865000D01*
X116042107Y18865000D01*
X115570929Y19336176D01*
X115555264Y19355264D01*
X115479129Y19417746D01*
X115392267Y19464175D01*
X115298017Y19492765D01*
X115224560Y19500000D01*
X115200000Y19502419D01*
X115175440Y19500000D01*
X114056363Y19500000D01*
X114029101Y19589872D01*
X113971177Y19698240D01*
X113893225Y19793225D01*
X113798240Y19871177D01*
X113689872Y19929101D01*
X113572286Y19964770D01*
X113450001Y19976814D01*
X112549999Y19976814D01*
X112427714Y19964770D01*
X112310128Y19929101D01*
X112201760Y19871177D01*
X112106775Y19793225D01*
X112028823Y19698240D01*
X111970899Y19589872D01*
X111935230Y19472286D01*
X111923186Y19350001D01*
X111923186Y18699999D01*
X111935230Y18577714D01*
X111970899Y18460128D01*
X112028823Y18351760D01*
X112106775Y18256775D01*
X112201760Y18178823D01*
X112310128Y18120899D01*
X112427714Y18085230D01*
X112549999Y18073186D01*
X113450001Y18073186D01*
X113572286Y18085230D01*
X113689872Y18120899D01*
X113798240Y18178823D01*
X113893225Y18256775D01*
X113971177Y18351760D01*
X114029101Y18460128D01*
X114041196Y18500000D01*
X114992895Y18500000D01*
X115464080Y18028814D01*
X115479736Y18009736D01*
X115555871Y17947254D01*
X115642733Y17900825D01*
X115736980Y17872236D01*
X115736983Y17872235D01*
X115835000Y17862581D01*
X115859560Y17865000D01*
X117137504Y17865000D01*
X117105920Y17839080D01*
X117027817Y17743911D01*
X116969781Y17635334D01*
X116934043Y17517521D01*
X116921976Y17395000D01*
X116925000Y17376250D01*
X117081250Y17220000D01*
X118400000Y17220000D01*
X118400000Y17240000D01*
X118650000Y17240000D01*
X118650000Y17220000D01*
X119968750Y17220000D01*
X120125000Y17376250D01*
X120128024Y17395000D01*
X120115957Y17517521D01*
X120080219Y17635334D01*
X120022183Y17743911D01*
X119944080Y17839080D01*
X119848911Y17917183D01*
X119799424Y17943635D01*
X119836713Y18013397D01*
X119866691Y18112224D01*
X119876814Y18215000D01*
X119876814Y18515000D01*
X119866691Y18617776D01*
X119836713Y18716603D01*
X119788030Y18807682D01*
X119722514Y18887514D01*
X119642682Y18953030D01*
X119554808Y19000000D01*
X120292894Y19000000D01*
X120571037Y18721856D01*
X120582254Y18700871D01*
X120644736Y18624736D01*
X120663824Y18609071D01*
X121244080Y18028814D01*
X121259736Y18009736D01*
X121335871Y17947254D01*
X121422733Y17900825D01*
X121516983Y17872235D01*
X121590440Y17865000D01*
X121590449Y17865000D01*
X121614999Y17862582D01*
X121639549Y17865000D01*
X122259009Y17865000D01*
X122277486Y17842486D01*
X122357318Y17776970D01*
X122445192Y17730000D01*
X122357318Y17683030D01*
X122277486Y17617514D01*
X122211970Y17537682D01*
X122163287Y17446603D01*
X122133309Y17347776D01*
X122123186Y17245000D01*
X122123186Y16945000D01*
X122133309Y16842224D01*
X122163287Y16743397D01*
X122211970Y16652318D01*
X122277486Y16572486D01*
X122357318Y16506970D01*
X122448397Y16458287D01*
X122547224Y16428309D01*
X122650000Y16418186D01*
X124300000Y16418186D01*
X124402776Y16428309D01*
X124501603Y16458287D01*
X124592682Y16506970D01*
X124672514Y16572486D01*
X124738030Y16652318D01*
X124786713Y16743397D01*
X124816691Y16842224D01*
X124826814Y16945000D01*
X124826814Y17245000D01*
X124816691Y17347776D01*
X124786713Y17446603D01*
X124738030Y17537682D01*
X124672514Y17617514D01*
X124592682Y17683030D01*
X124504808Y17730000D01*
X124592682Y17776970D01*
X124672514Y17842486D01*
X124690991Y17865000D01*
X126602895Y17865000D01*
X128829080Y15638813D01*
X128844736Y15619736D01*
X128920871Y15557254D01*
X128932957Y15550794D01*
X128935230Y15527714D01*
X128970899Y15410128D01*
X129028823Y15301760D01*
X129106775Y15206775D01*
X129201760Y15128823D01*
X129310128Y15070899D01*
X129427714Y15035230D01*
X129549999Y15023186D01*
X130450001Y15023186D01*
X130572286Y15035230D01*
X130689872Y15070899D01*
X130798240Y15128823D01*
X130893225Y15206775D01*
X130971177Y15301760D01*
X131029101Y15410128D01*
X131064770Y15527714D01*
X131076814Y15649999D01*
X131076814Y16300001D01*
X131064770Y16422286D01*
X131029101Y16539872D01*
X130971177Y16648240D01*
X130893225Y16743225D01*
X130798240Y16821177D01*
X130689872Y16879101D01*
X130572286Y16914770D01*
X130450001Y16926814D01*
X129549999Y16926814D01*
X129427714Y16914770D01*
X129310128Y16879101D01*
X129201760Y16821177D01*
X129124409Y16757697D01*
X127180929Y18701176D01*
X127165264Y18720264D01*
X127089129Y18782746D01*
X127002267Y18829175D01*
X126908017Y18857765D01*
X126834560Y18865000D01*
X126810000Y18867419D01*
X126785440Y18865000D01*
X124690991Y18865000D01*
X124672514Y18887514D01*
X124592682Y18953030D01*
X124504808Y19000000D01*
X124592682Y19046970D01*
X124657300Y19100000D01*
X127475440Y19100000D01*
X127500000Y19097581D01*
X127524560Y19100000D01*
X127598017Y19107235D01*
X127692267Y19135825D01*
X127779129Y19182254D01*
X127855264Y19244736D01*
X127870928Y19263823D01*
X128107106Y19500000D01*
X128943637Y19500000D01*
X128970899Y19410128D01*
X129028823Y19301760D01*
X129106775Y19206775D01*
X129201760Y19128823D01*
X129310128Y19070899D01*
X129427714Y19035230D01*
X129500000Y19028110D01*
X129500001Y18971890D01*
X129427714Y18964770D01*
X129310128Y18929101D01*
X129201760Y18871177D01*
X129106775Y18793225D01*
X129028823Y18698240D01*
X128970899Y18589872D01*
X128935230Y18472286D01*
X128923186Y18350001D01*
X128923186Y17699999D01*
X128935230Y17577714D01*
X128970899Y17460128D01*
X129028823Y17351760D01*
X129106775Y17256775D01*
X129201760Y17178823D01*
X129310128Y17120899D01*
X129427714Y17085230D01*
X129549999Y17073186D01*
X130450001Y17073186D01*
X130572286Y17085230D01*
X130689872Y17120899D01*
X130798240Y17178823D01*
X130893225Y17256775D01*
X130971177Y17351760D01*
X131029101Y17460128D01*
X131064770Y17577714D01*
X131076814Y17699999D01*
X131076814Y18350001D01*
X131064770Y18472286D01*
X131029101Y18589872D01*
X130971177Y18698240D01*
X130893225Y18793225D01*
X130798240Y18871177D01*
X130689872Y18929101D01*
X130572286Y18964770D01*
X130500000Y18971890D01*
X130500000Y19028110D01*
X130572286Y19035230D01*
X130689872Y19070899D01*
X130798240Y19128823D01*
X130893225Y19206775D01*
X130971177Y19301760D01*
X131029101Y19410128D01*
X131064770Y19527714D01*
X131076814Y19649999D01*
X131076814Y20300001D01*
X131064770Y20422286D01*
X131029101Y20539872D01*
X130971177Y20648240D01*
X130893225Y20743225D01*
X130798240Y20821177D01*
X130781693Y20830022D01*
X130822521Y20834043D01*
X130940334Y20869781D01*
X131048911Y20927817D01*
X131144080Y21005920D01*
X131222183Y21101089D01*
X131280219Y21209666D01*
X131315957Y21327479D01*
X131328024Y21450000D01*
X131325000Y21743750D01*
X131168750Y21900000D01*
X130125000Y21900000D01*
X130125000Y21880000D01*
X129875000Y21880000D01*
X129875000Y21900000D01*
X128831250Y21900000D01*
X128675000Y21743750D01*
X128671976Y21450000D01*
X128684043Y21327479D01*
X128719781Y21209666D01*
X128777817Y21101089D01*
X128855920Y21005920D01*
X128951089Y20927817D01*
X129059666Y20869781D01*
X129177479Y20834043D01*
X129218307Y20830022D01*
X129201760Y20821177D01*
X129106775Y20743225D01*
X129028823Y20648240D01*
X128970899Y20539872D01*
X128958804Y20500000D01*
X127924549Y20500000D01*
X127899999Y20502418D01*
X127875449Y20500000D01*
X127875440Y20500000D01*
X127801983Y20492765D01*
X127707733Y20464175D01*
X127620871Y20417746D01*
X127544736Y20355264D01*
X127529079Y20336186D01*
X127292894Y20100000D01*
X124819849Y20100000D01*
X124894080Y20160920D01*
X124972183Y20256089D01*
X125030219Y20364666D01*
X125065957Y20482479D01*
X125078024Y20605000D01*
X125075000Y20623750D01*
X124918750Y20780000D01*
X123600000Y20780000D01*
X123600000Y20760000D01*
X123350000Y20760000D01*
X123350000Y20780000D01*
X122031250Y20780000D01*
X121875000Y20623750D01*
X121871976Y20605000D01*
X121884043Y20482479D01*
X121919781Y20364666D01*
X121977817Y20256089D01*
X122055920Y20160920D01*
X122151089Y20082817D01*
X122200576Y20056365D01*
X122163287Y19986603D01*
X122133309Y19887776D01*
X122123186Y19785000D01*
X122123186Y19485000D01*
X122133309Y19382224D01*
X122163287Y19283397D01*
X122211970Y19192318D01*
X122277486Y19112486D01*
X122357318Y19046970D01*
X122445192Y19000000D01*
X122357318Y18953030D01*
X122277486Y18887514D01*
X122259009Y18865000D01*
X121822106Y18865000D01*
X121428964Y19258141D01*
X121417746Y19279129D01*
X121355264Y19355264D01*
X121336186Y19370921D01*
X120870929Y19836177D01*
X120855264Y19855264D01*
X120779129Y19917746D01*
X120692267Y19964175D01*
X120598017Y19992765D01*
X120500000Y20002419D01*
X120475440Y20000000D01*
X119829552Y20000000D01*
X119788030Y20077682D01*
X119722514Y20157514D01*
X119642682Y20223030D01*
X119554808Y20270000D01*
X119642682Y20316970D01*
X119722514Y20382486D01*
X119788030Y20462318D01*
X119836713Y20553397D01*
X119866691Y20652224D01*
X119876814Y20755000D01*
X119876814Y21055000D01*
X119866691Y21157776D01*
X119852367Y21205000D01*
X121871976Y21205000D01*
X121875000Y21186250D01*
X122031250Y21030000D01*
X123350000Y21030000D01*
X123350000Y21673750D01*
X123600000Y21673750D01*
X123600000Y21030000D01*
X124918750Y21030000D01*
X125075000Y21186250D01*
X125078024Y21205000D01*
X125065957Y21327521D01*
X125030219Y21445334D01*
X124972183Y21553911D01*
X124894080Y21649080D01*
X124798911Y21727183D01*
X124690334Y21785219D01*
X124572521Y21820957D01*
X124450000Y21833024D01*
X123756250Y21830000D01*
X123600000Y21673750D01*
X123350000Y21673750D01*
X123193750Y21830000D01*
X122500000Y21833024D01*
X122377479Y21820957D01*
X122259666Y21785219D01*
X122151089Y21727183D01*
X122055920Y21649080D01*
X121977817Y21553911D01*
X121919781Y21445334D01*
X121884043Y21327521D01*
X121871976Y21205000D01*
X119852367Y21205000D01*
X119836713Y21256603D01*
X119788030Y21347682D01*
X119722514Y21427514D01*
X119642682Y21493030D01*
X119551603Y21541713D01*
X119452776Y21571691D01*
X119399410Y21576947D01*
X119436796Y21632900D01*
X119495217Y21773941D01*
X119525000Y21923669D01*
X119525000Y22076331D01*
X119495217Y22226059D01*
X119436796Y22367100D01*
X119351982Y22494034D01*
X119246016Y22600000D01*
X128671976Y22600000D01*
X128675000Y22306250D01*
X128831250Y22150000D01*
X129875000Y22150000D01*
X129875000Y23068750D01*
X130125000Y23068750D01*
X130125000Y22150000D01*
X131168750Y22150000D01*
X131325000Y22306250D01*
X131328024Y22600000D01*
X131315957Y22722521D01*
X131280219Y22840334D01*
X131222183Y22948911D01*
X131144080Y23044080D01*
X131048911Y23122183D01*
X130940334Y23180219D01*
X130822521Y23215957D01*
X130700000Y23228024D01*
X130281250Y23225000D01*
X130125000Y23068750D01*
X129875000Y23068750D01*
X129718750Y23225000D01*
X129300000Y23228024D01*
X129177479Y23215957D01*
X129059666Y23180219D01*
X128951089Y23122183D01*
X128855920Y23044080D01*
X128777817Y22948911D01*
X128719781Y22840334D01*
X128684043Y22722521D01*
X128671976Y22600000D01*
X119246016Y22600000D01*
X119244034Y22601982D01*
X119117100Y22686796D01*
X118976059Y22745217D01*
X118826331Y22775000D01*
X118673669Y22775000D01*
X118523941Y22745217D01*
X118382900Y22686796D01*
X118255966Y22601982D01*
X118148018Y22494034D01*
X118063204Y22367100D01*
X118004783Y22226059D01*
X117975000Y22076331D01*
X117975000Y21923669D01*
X118004783Y21773941D01*
X118063204Y21632900D01*
X118097338Y21581814D01*
X117700000Y21581814D01*
X117597224Y21571691D01*
X117498397Y21541713D01*
X117407318Y21493030D01*
X117327486Y21427514D01*
X117261970Y21347682D01*
X117213287Y21256603D01*
X117183309Y21157776D01*
X117173186Y21055000D01*
X117173186Y20755000D01*
X117183309Y20652224D01*
X117213287Y20553397D01*
X117261970Y20462318D01*
X117327486Y20382486D01*
X117407318Y20316970D01*
X117495192Y20270000D01*
X117407318Y20223030D01*
X117327486Y20157514D01*
X117309009Y20135000D01*
X116572106Y20135000D01*
X115395929Y21311176D01*
X115380264Y21330264D01*
X115304129Y21392746D01*
X115217267Y21439175D01*
X115123017Y21467765D01*
X115049560Y21475000D01*
X115025000Y21477419D01*
X115000440Y21475000D01*
X114048780Y21475000D01*
X114029101Y21539872D01*
X113971177Y21648240D01*
X113893225Y21743225D01*
X113798240Y21821177D01*
X113689872Y21879101D01*
X113572286Y21914770D01*
X113450001Y21926814D01*
X112549999Y21926814D01*
X112427714Y21914770D01*
X112310128Y21879101D01*
X112201760Y21821177D01*
X112106775Y21743225D01*
X112028823Y21648240D01*
X111970899Y21539872D01*
X111935230Y21422286D01*
X111923186Y21300001D01*
X104400000Y21300001D01*
X104400000Y23350001D01*
X111923186Y23350001D01*
X111923186Y22699999D01*
X111935230Y22577714D01*
X111970899Y22460128D01*
X112028823Y22351760D01*
X112106775Y22256775D01*
X112201760Y22178823D01*
X112310128Y22120899D01*
X112427714Y22085230D01*
X112549999Y22073186D01*
X113450001Y22073186D01*
X113572286Y22085230D01*
X113689872Y22120899D01*
X113798240Y22178823D01*
X113893225Y22256775D01*
X113971177Y22351760D01*
X114029101Y22460128D01*
X114064770Y22577714D01*
X114076814Y22699999D01*
X114076814Y23350001D01*
X114064770Y23472286D01*
X114029101Y23589872D01*
X113971177Y23698240D01*
X113893225Y23793225D01*
X113798240Y23871177D01*
X113689872Y23929101D01*
X113572286Y23964770D01*
X113561817Y23965801D01*
X113601982Y24005966D01*
X113686796Y24132900D01*
X113745217Y24273941D01*
X113775000Y24423669D01*
X113775000Y24576331D01*
X113745217Y24726059D01*
X113686796Y24867100D01*
X113601982Y24994034D01*
X113494034Y25101982D01*
X113367100Y25186796D01*
X113226059Y25245217D01*
X113076331Y25275000D01*
X112923669Y25275000D01*
X112773941Y25245217D01*
X112632900Y25186796D01*
X112505966Y25101982D01*
X112398018Y24994034D01*
X112313204Y24867100D01*
X112254783Y24726059D01*
X112225000Y24576331D01*
X112225000Y24423669D01*
X112254783Y24273941D01*
X112313204Y24132900D01*
X112398018Y24005966D01*
X112438183Y23965801D01*
X112427714Y23964770D01*
X112310128Y23929101D01*
X112201760Y23871177D01*
X112106775Y23793225D01*
X112028823Y23698240D01*
X111970899Y23589872D01*
X111935230Y23472286D01*
X111923186Y23350001D01*
X104400000Y23350001D01*
X104400000Y29150000D01*
X107271976Y29150000D01*
X107284043Y29027479D01*
X107319781Y28909666D01*
X107377817Y28801089D01*
X107455920Y28705920D01*
X107551089Y28627817D01*
X107659666Y28569781D01*
X107777479Y28534043D01*
X107900000Y28521976D01*
X108468750Y28525000D01*
X108625000Y28681250D01*
X108625000Y29875000D01*
X108875000Y29875000D01*
X108875000Y28681250D01*
X109031250Y28525000D01*
X109600000Y28521976D01*
X109722521Y28534043D01*
X109840334Y28569781D01*
X109948911Y28627817D01*
X110044080Y28705920D01*
X110122183Y28801089D01*
X110180219Y28909666D01*
X110215957Y29027479D01*
X110228024Y29150000D01*
X110225000Y29718750D01*
X110068750Y29875000D01*
X108875000Y29875000D01*
X108625000Y29875000D01*
X107431250Y29875000D01*
X107275000Y29718750D01*
X107271976Y29150000D01*
X104400000Y29150000D01*
X104400000Y30850000D01*
X107271976Y30850000D01*
X107275000Y30281250D01*
X107431250Y30125000D01*
X108625000Y30125000D01*
X108625000Y31318750D01*
X108875000Y31318750D01*
X108875000Y30125000D01*
X110068750Y30125000D01*
X110225000Y30281250D01*
X110228024Y30850000D01*
X132773186Y30850000D01*
X132773186Y29150000D01*
X132780426Y29076487D01*
X132801869Y29005800D01*
X132836691Y28940653D01*
X132883552Y28883552D01*
X132940653Y28836691D01*
X133005800Y28801869D01*
X133076487Y28780426D01*
X133150000Y28773186D01*
X134850000Y28773186D01*
X134923513Y28780426D01*
X134994200Y28801869D01*
X135059347Y28836691D01*
X135116448Y28883552D01*
X135163309Y28940653D01*
X135198131Y29005800D01*
X135219574Y29076487D01*
X135226814Y29150000D01*
X135226814Y30850000D01*
X135219574Y30923513D01*
X135198131Y30994200D01*
X135163309Y31059347D01*
X135116448Y31116448D01*
X135059347Y31163309D01*
X134994200Y31198131D01*
X134923513Y31219574D01*
X134850000Y31226814D01*
X133150000Y31226814D01*
X133076487Y31219574D01*
X133005800Y31198131D01*
X132940653Y31163309D01*
X132883552Y31116448D01*
X132836691Y31059347D01*
X132801869Y30994200D01*
X132780426Y30923513D01*
X132773186Y30850000D01*
X110228024Y30850000D01*
X110215957Y30972521D01*
X110180219Y31090334D01*
X110122183Y31198911D01*
X110044080Y31294080D01*
X109948911Y31372183D01*
X109840334Y31430219D01*
X109722521Y31465957D01*
X109600000Y31478024D01*
X109031250Y31475000D01*
X108875000Y31318750D01*
X108625000Y31318750D01*
X108468750Y31475000D01*
X107900000Y31478024D01*
X107777479Y31465957D01*
X107659666Y31430219D01*
X107551089Y31372183D01*
X107455920Y31294080D01*
X107377817Y31198911D01*
X107319781Y31090334D01*
X107284043Y30972521D01*
X107271976Y30850000D01*
X104400000Y30850000D01*
X104400000Y33600000D01*
X137600001Y33600000D01*
X137600000Y4400000D01*
X137600000Y4400000D01*
G37*
X137600000Y4400000D02*
X104400000Y4400000D01*
X104400000Y13300001D01*
X111923186Y13300001D01*
X111923186Y12649999D01*
X111935230Y12527714D01*
X111970899Y12410128D01*
X112028823Y12301760D01*
X112106775Y12206775D01*
X112201760Y12128823D01*
X112310128Y12070899D01*
X112427714Y12035230D01*
X112438183Y12034199D01*
X112398018Y11994034D01*
X112313204Y11867100D01*
X112254783Y11726059D01*
X112225000Y11576331D01*
X112225000Y11423669D01*
X112254783Y11273941D01*
X112313204Y11132900D01*
X112398018Y11005966D01*
X112505966Y10898018D01*
X112632900Y10813204D01*
X112773941Y10754783D01*
X112923669Y10725000D01*
X113076331Y10725000D01*
X113226059Y10754783D01*
X113367100Y10813204D01*
X113494034Y10898018D01*
X113601982Y11005966D01*
X113686796Y11132900D01*
X113745217Y11273941D01*
X113775000Y11423669D01*
X113775000Y11576331D01*
X113745217Y11726059D01*
X113686796Y11867100D01*
X113601982Y11994034D01*
X113561817Y12034199D01*
X113572286Y12035230D01*
X113689872Y12070899D01*
X113798240Y12128823D01*
X113893225Y12206775D01*
X113971177Y12301760D01*
X114029101Y12410128D01*
X114064770Y12527714D01*
X114076814Y12649999D01*
X114076814Y13300001D01*
X114064770Y13422286D01*
X114029101Y13539872D01*
X113971177Y13648240D01*
X113893225Y13743225D01*
X113798240Y13821177D01*
X113689872Y13879101D01*
X113572286Y13914770D01*
X113450001Y13926814D01*
X112549999Y13926814D01*
X112427714Y13914770D01*
X112310128Y13879101D01*
X112201760Y13821177D01*
X112106775Y13743225D01*
X112028823Y13648240D01*
X111970899Y13539872D01*
X111935230Y13422286D01*
X111923186Y13300001D01*
X104400000Y13300001D01*
X104400000Y17300001D01*
X111923186Y17300001D01*
X111923186Y16649999D01*
X111935230Y16527714D01*
X111970899Y16410128D01*
X112028823Y16301760D01*
X112106775Y16206775D01*
X112201760Y16128823D01*
X112310128Y16070899D01*
X112427714Y16035230D01*
X112500000Y16028110D01*
X112500001Y15971890D01*
X112427714Y15964770D01*
X112310128Y15929101D01*
X112201760Y15871177D01*
X112106775Y15793225D01*
X112028823Y15698240D01*
X111970899Y15589872D01*
X111935230Y15472286D01*
X111923186Y15350001D01*
X111923186Y14699999D01*
X111935230Y14577714D01*
X111970899Y14460128D01*
X112028823Y14351760D01*
X112106775Y14256775D01*
X112201760Y14178823D01*
X112310128Y14120899D01*
X112427714Y14085230D01*
X112549999Y14073186D01*
X113450001Y14073186D01*
X113572286Y14085230D01*
X113689872Y14120899D01*
X113798240Y14178823D01*
X113893225Y14256775D01*
X113971177Y14351760D01*
X114029101Y14460128D01*
X114064770Y14577714D01*
X114076814Y14699999D01*
X114076814Y15350001D01*
X114064770Y15472286D01*
X114029101Y15589872D01*
X113971177Y15698240D01*
X113893225Y15793225D01*
X113798240Y15871177D01*
X113689872Y15929101D01*
X113572286Y15964770D01*
X113500000Y15971890D01*
X113500000Y16028110D01*
X113572286Y16035230D01*
X113689872Y16070899D01*
X113798240Y16128823D01*
X113893225Y16206775D01*
X113971177Y16301760D01*
X114029101Y16410128D01*
X114064770Y16527714D01*
X114076814Y16649999D01*
X114076814Y16795000D01*
X116921976Y16795000D01*
X116934043Y16672479D01*
X116969781Y16554666D01*
X117027817Y16446089D01*
X117105920Y16350920D01*
X117201089Y16272817D01*
X117309666Y16214781D01*
X117427479Y16179043D01*
X117550000Y16166976D01*
X118243750Y16170000D01*
X118400000Y16326250D01*
X118400000Y16970000D01*
X118650000Y16970000D01*
X118650000Y16326250D01*
X118806250Y16170000D01*
X119500000Y16166976D01*
X119622521Y16179043D01*
X119740334Y16214781D01*
X119848911Y16272817D01*
X119944080Y16350920D01*
X120022183Y16446089D01*
X120080219Y16554666D01*
X120115957Y16672479D01*
X120128024Y16795000D01*
X120125000Y16813750D01*
X119968750Y16970000D01*
X118650000Y16970000D01*
X118400000Y16970000D01*
X117081250Y16970000D01*
X116925000Y16813750D01*
X116921976Y16795000D01*
X114076814Y16795000D01*
X114076814Y17300001D01*
X114064770Y17422286D01*
X114029101Y17539872D01*
X113971177Y17648240D01*
X113893225Y17743225D01*
X113798240Y17821177D01*
X113689872Y17879101D01*
X113572286Y17914770D01*
X113450001Y17926814D01*
X112549999Y17926814D01*
X112427714Y17914770D01*
X112310128Y17879101D01*
X112201760Y17821177D01*
X112106775Y17743225D01*
X112028823Y17648240D01*
X111970899Y17539872D01*
X111935230Y17422286D01*
X111923186Y17300001D01*
X104400000Y17300001D01*
X104400000Y21300001D01*
X111923186Y21300001D01*
X111923186Y20649999D01*
X111935230Y20527714D01*
X111970899Y20410128D01*
X112028823Y20301760D01*
X112106775Y20206775D01*
X112201760Y20128823D01*
X112310128Y20070899D01*
X112427714Y20035230D01*
X112549999Y20023186D01*
X113450001Y20023186D01*
X113572286Y20035230D01*
X113689872Y20070899D01*
X113798240Y20128823D01*
X113893225Y20206775D01*
X113971177Y20301760D01*
X114029101Y20410128D01*
X114048780Y20475000D01*
X114817895Y20475000D01*
X115994075Y19298819D01*
X116009736Y19279736D01*
X116085871Y19217254D01*
X116172733Y19170825D01*
X116266983Y19142235D01*
X116340440Y19135000D01*
X116340441Y19135000D01*
X116364999Y19132581D01*
X116389557Y19135000D01*
X117309009Y19135000D01*
X117327486Y19112486D01*
X117407318Y19046970D01*
X117495192Y19000000D01*
X117407318Y18953030D01*
X117327486Y18887514D01*
X117309009Y18865000D01*
X116042107Y18865000D01*
X115570929Y19336176D01*
X115555264Y19355264D01*
X115479129Y19417746D01*
X115392267Y19464175D01*
X115298017Y19492765D01*
X115224560Y19500000D01*
X115200000Y19502419D01*
X115175440Y19500000D01*
X114056363Y19500000D01*
X114029101Y19589872D01*
X113971177Y19698240D01*
X113893225Y19793225D01*
X113798240Y19871177D01*
X113689872Y19929101D01*
X113572286Y19964770D01*
X113450001Y19976814D01*
X112549999Y19976814D01*
X112427714Y19964770D01*
X112310128Y19929101D01*
X112201760Y19871177D01*
X112106775Y19793225D01*
X112028823Y19698240D01*
X111970899Y19589872D01*
X111935230Y19472286D01*
X111923186Y19350001D01*
X111923186Y18699999D01*
X111935230Y18577714D01*
X111970899Y18460128D01*
X112028823Y18351760D01*
X112106775Y18256775D01*
X112201760Y18178823D01*
X112310128Y18120899D01*
X112427714Y18085230D01*
X112549999Y18073186D01*
X113450001Y18073186D01*
X113572286Y18085230D01*
X113689872Y18120899D01*
X113798240Y18178823D01*
X113893225Y18256775D01*
X113971177Y18351760D01*
X114029101Y18460128D01*
X114041196Y18500000D01*
X114992895Y18500000D01*
X115464080Y18028814D01*
X115479736Y18009736D01*
X115555871Y17947254D01*
X115642733Y17900825D01*
X115736980Y17872236D01*
X115736983Y17872235D01*
X115835000Y17862581D01*
X115859560Y17865000D01*
X117137504Y17865000D01*
X117105920Y17839080D01*
X117027817Y17743911D01*
X116969781Y17635334D01*
X116934043Y17517521D01*
X116921976Y17395000D01*
X116925000Y17376250D01*
X117081250Y17220000D01*
X118400000Y17220000D01*
X118400000Y17240000D01*
X118650000Y17240000D01*
X118650000Y17220000D01*
X119968750Y17220000D01*
X120125000Y17376250D01*
X120128024Y17395000D01*
X120115957Y17517521D01*
X120080219Y17635334D01*
X120022183Y17743911D01*
X119944080Y17839080D01*
X119848911Y17917183D01*
X119799424Y17943635D01*
X119836713Y18013397D01*
X119866691Y18112224D01*
X119876814Y18215000D01*
X119876814Y18515000D01*
X119866691Y18617776D01*
X119836713Y18716603D01*
X119788030Y18807682D01*
X119722514Y18887514D01*
X119642682Y18953030D01*
X119554808Y19000000D01*
X120292894Y19000000D01*
X120571037Y18721856D01*
X120582254Y18700871D01*
X120644736Y18624736D01*
X120663824Y18609071D01*
X121244080Y18028814D01*
X121259736Y18009736D01*
X121335871Y17947254D01*
X121422733Y17900825D01*
X121516983Y17872235D01*
X121590440Y17865000D01*
X121590449Y17865000D01*
X121614999Y17862582D01*
X121639549Y17865000D01*
X122259009Y17865000D01*
X122277486Y17842486D01*
X122357318Y17776970D01*
X122445192Y17730000D01*
X122357318Y17683030D01*
X122277486Y17617514D01*
X122211970Y17537682D01*
X122163287Y17446603D01*
X122133309Y17347776D01*
X122123186Y17245000D01*
X122123186Y16945000D01*
X122133309Y16842224D01*
X122163287Y16743397D01*
X122211970Y16652318D01*
X122277486Y16572486D01*
X122357318Y16506970D01*
X122448397Y16458287D01*
X122547224Y16428309D01*
X122650000Y16418186D01*
X124300000Y16418186D01*
X124402776Y16428309D01*
X124501603Y16458287D01*
X124592682Y16506970D01*
X124672514Y16572486D01*
X124738030Y16652318D01*
X124786713Y16743397D01*
X124816691Y16842224D01*
X124826814Y16945000D01*
X124826814Y17245000D01*
X124816691Y17347776D01*
X124786713Y17446603D01*
X124738030Y17537682D01*
X124672514Y17617514D01*
X124592682Y17683030D01*
X124504808Y17730000D01*
X124592682Y17776970D01*
X124672514Y17842486D01*
X124690991Y17865000D01*
X126602895Y17865000D01*
X128829080Y15638813D01*
X128844736Y15619736D01*
X128920871Y15557254D01*
X128932957Y15550794D01*
X128935230Y15527714D01*
X128970899Y15410128D01*
X129028823Y15301760D01*
X129106775Y15206775D01*
X129201760Y15128823D01*
X129310128Y15070899D01*
X129427714Y15035230D01*
X129549999Y15023186D01*
X130450001Y15023186D01*
X130572286Y15035230D01*
X130689872Y15070899D01*
X130798240Y15128823D01*
X130893225Y15206775D01*
X130971177Y15301760D01*
X131029101Y15410128D01*
X131064770Y15527714D01*
X131076814Y15649999D01*
X131076814Y16300001D01*
X131064770Y16422286D01*
X131029101Y16539872D01*
X130971177Y16648240D01*
X130893225Y16743225D01*
X130798240Y16821177D01*
X130689872Y16879101D01*
X130572286Y16914770D01*
X130450001Y16926814D01*
X129549999Y16926814D01*
X129427714Y16914770D01*
X129310128Y16879101D01*
X129201760Y16821177D01*
X129124409Y16757697D01*
X127180929Y18701176D01*
X127165264Y18720264D01*
X127089129Y18782746D01*
X127002267Y18829175D01*
X126908017Y18857765D01*
X126834560Y18865000D01*
X126810000Y18867419D01*
X126785440Y18865000D01*
X124690991Y18865000D01*
X124672514Y18887514D01*
X124592682Y18953030D01*
X124504808Y19000000D01*
X124592682Y19046970D01*
X124657300Y19100000D01*
X127475440Y19100000D01*
X127500000Y19097581D01*
X127524560Y19100000D01*
X127598017Y19107235D01*
X127692267Y19135825D01*
X127779129Y19182254D01*
X127855264Y19244736D01*
X127870928Y19263823D01*
X128107106Y19500000D01*
X128943637Y19500000D01*
X128970899Y19410128D01*
X129028823Y19301760D01*
X129106775Y19206775D01*
X129201760Y19128823D01*
X129310128Y19070899D01*
X129427714Y19035230D01*
X129500000Y19028110D01*
X129500001Y18971890D01*
X129427714Y18964770D01*
X129310128Y18929101D01*
X129201760Y18871177D01*
X129106775Y18793225D01*
X129028823Y18698240D01*
X128970899Y18589872D01*
X128935230Y18472286D01*
X128923186Y18350001D01*
X128923186Y17699999D01*
X128935230Y17577714D01*
X128970899Y17460128D01*
X129028823Y17351760D01*
X129106775Y17256775D01*
X129201760Y17178823D01*
X129310128Y17120899D01*
X129427714Y17085230D01*
X129549999Y17073186D01*
X130450001Y17073186D01*
X130572286Y17085230D01*
X130689872Y17120899D01*
X130798240Y17178823D01*
X130893225Y17256775D01*
X130971177Y17351760D01*
X131029101Y17460128D01*
X131064770Y17577714D01*
X131076814Y17699999D01*
X131076814Y18350001D01*
X131064770Y18472286D01*
X131029101Y18589872D01*
X130971177Y18698240D01*
X130893225Y18793225D01*
X130798240Y18871177D01*
X130689872Y18929101D01*
X130572286Y18964770D01*
X130500000Y18971890D01*
X130500000Y19028110D01*
X130572286Y19035230D01*
X130689872Y19070899D01*
X130798240Y19128823D01*
X130893225Y19206775D01*
X130971177Y19301760D01*
X131029101Y19410128D01*
X131064770Y19527714D01*
X131076814Y19649999D01*
X131076814Y20300001D01*
X131064770Y20422286D01*
X131029101Y20539872D01*
X130971177Y20648240D01*
X130893225Y20743225D01*
X130798240Y20821177D01*
X130781693Y20830022D01*
X130822521Y20834043D01*
X130940334Y20869781D01*
X131048911Y20927817D01*
X131144080Y21005920D01*
X131222183Y21101089D01*
X131280219Y21209666D01*
X131315957Y21327479D01*
X131328024Y21450000D01*
X131325000Y21743750D01*
X131168750Y21900000D01*
X130125000Y21900000D01*
X130125000Y21880000D01*
X129875000Y21880000D01*
X129875000Y21900000D01*
X128831250Y21900000D01*
X128675000Y21743750D01*
X128671976Y21450000D01*
X128684043Y21327479D01*
X128719781Y21209666D01*
X128777817Y21101089D01*
X128855920Y21005920D01*
X128951089Y20927817D01*
X129059666Y20869781D01*
X129177479Y20834043D01*
X129218307Y20830022D01*
X129201760Y20821177D01*
X129106775Y20743225D01*
X129028823Y20648240D01*
X128970899Y20539872D01*
X128958804Y20500000D01*
X127924549Y20500000D01*
X127899999Y20502418D01*
X127875449Y20500000D01*
X127875440Y20500000D01*
X127801983Y20492765D01*
X127707733Y20464175D01*
X127620871Y20417746D01*
X127544736Y20355264D01*
X127529079Y20336186D01*
X127292894Y20100000D01*
X124819849Y20100000D01*
X124894080Y20160920D01*
X124972183Y20256089D01*
X125030219Y20364666D01*
X125065957Y20482479D01*
X125078024Y20605000D01*
X125075000Y20623750D01*
X124918750Y20780000D01*
X123600000Y20780000D01*
X123600000Y20760000D01*
X123350000Y20760000D01*
X123350000Y20780000D01*
X122031250Y20780000D01*
X121875000Y20623750D01*
X121871976Y20605000D01*
X121884043Y20482479D01*
X121919781Y20364666D01*
X121977817Y20256089D01*
X122055920Y20160920D01*
X122151089Y20082817D01*
X122200576Y20056365D01*
X122163287Y19986603D01*
X122133309Y19887776D01*
X122123186Y19785000D01*
X122123186Y19485000D01*
X122133309Y19382224D01*
X122163287Y19283397D01*
X122211970Y19192318D01*
X122277486Y19112486D01*
X122357318Y19046970D01*
X122445192Y19000000D01*
X122357318Y18953030D01*
X122277486Y18887514D01*
X122259009Y18865000D01*
X121822106Y18865000D01*
X121428964Y19258141D01*
X121417746Y19279129D01*
X121355264Y19355264D01*
X121336186Y19370921D01*
X120870929Y19836177D01*
X120855264Y19855264D01*
X120779129Y19917746D01*
X120692267Y19964175D01*
X120598017Y19992765D01*
X120500000Y20002419D01*
X120475440Y20000000D01*
X119829552Y20000000D01*
X119788030Y20077682D01*
X119722514Y20157514D01*
X119642682Y20223030D01*
X119554808Y20270000D01*
X119642682Y20316970D01*
X119722514Y20382486D01*
X119788030Y20462318D01*
X119836713Y20553397D01*
X119866691Y20652224D01*
X119876814Y20755000D01*
X119876814Y21055000D01*
X119866691Y21157776D01*
X119852367Y21205000D01*
X121871976Y21205000D01*
X121875000Y21186250D01*
X122031250Y21030000D01*
X123350000Y21030000D01*
X123350000Y21673750D01*
X123600000Y21673750D01*
X123600000Y21030000D01*
X124918750Y21030000D01*
X125075000Y21186250D01*
X125078024Y21205000D01*
X125065957Y21327521D01*
X125030219Y21445334D01*
X124972183Y21553911D01*
X124894080Y21649080D01*
X124798911Y21727183D01*
X124690334Y21785219D01*
X124572521Y21820957D01*
X124450000Y21833024D01*
X123756250Y21830000D01*
X123600000Y21673750D01*
X123350000Y21673750D01*
X123193750Y21830000D01*
X122500000Y21833024D01*
X122377479Y21820957D01*
X122259666Y21785219D01*
X122151089Y21727183D01*
X122055920Y21649080D01*
X121977817Y21553911D01*
X121919781Y21445334D01*
X121884043Y21327521D01*
X121871976Y21205000D01*
X119852367Y21205000D01*
X119836713Y21256603D01*
X119788030Y21347682D01*
X119722514Y21427514D01*
X119642682Y21493030D01*
X119551603Y21541713D01*
X119452776Y21571691D01*
X119399410Y21576947D01*
X119436796Y21632900D01*
X119495217Y21773941D01*
X119525000Y21923669D01*
X119525000Y22076331D01*
X119495217Y22226059D01*
X119436796Y22367100D01*
X119351982Y22494034D01*
X119246016Y22600000D01*
X128671976Y22600000D01*
X128675000Y22306250D01*
X128831250Y22150000D01*
X129875000Y22150000D01*
X129875000Y23068750D01*
X130125000Y23068750D01*
X130125000Y22150000D01*
X131168750Y22150000D01*
X131325000Y22306250D01*
X131328024Y22600000D01*
X131315957Y22722521D01*
X131280219Y22840334D01*
X131222183Y22948911D01*
X131144080Y23044080D01*
X131048911Y23122183D01*
X130940334Y23180219D01*
X130822521Y23215957D01*
X130700000Y23228024D01*
X130281250Y23225000D01*
X130125000Y23068750D01*
X129875000Y23068750D01*
X129718750Y23225000D01*
X129300000Y23228024D01*
X129177479Y23215957D01*
X129059666Y23180219D01*
X128951089Y23122183D01*
X128855920Y23044080D01*
X128777817Y22948911D01*
X128719781Y22840334D01*
X128684043Y22722521D01*
X128671976Y22600000D01*
X119246016Y22600000D01*
X119244034Y22601982D01*
X119117100Y22686796D01*
X118976059Y22745217D01*
X118826331Y22775000D01*
X118673669Y22775000D01*
X118523941Y22745217D01*
X118382900Y22686796D01*
X118255966Y22601982D01*
X118148018Y22494034D01*
X118063204Y22367100D01*
X118004783Y22226059D01*
X117975000Y22076331D01*
X117975000Y21923669D01*
X118004783Y21773941D01*
X118063204Y21632900D01*
X118097338Y21581814D01*
X117700000Y21581814D01*
X117597224Y21571691D01*
X117498397Y21541713D01*
X117407318Y21493030D01*
X117327486Y21427514D01*
X117261970Y21347682D01*
X117213287Y21256603D01*
X117183309Y21157776D01*
X117173186Y21055000D01*
X117173186Y20755000D01*
X117183309Y20652224D01*
X117213287Y20553397D01*
X117261970Y20462318D01*
X117327486Y20382486D01*
X117407318Y20316970D01*
X117495192Y20270000D01*
X117407318Y20223030D01*
X117327486Y20157514D01*
X117309009Y20135000D01*
X116572106Y20135000D01*
X115395929Y21311176D01*
X115380264Y21330264D01*
X115304129Y21392746D01*
X115217267Y21439175D01*
X115123017Y21467765D01*
X115049560Y21475000D01*
X115025000Y21477419D01*
X115000440Y21475000D01*
X114048780Y21475000D01*
X114029101Y21539872D01*
X113971177Y21648240D01*
X113893225Y21743225D01*
X113798240Y21821177D01*
X113689872Y21879101D01*
X113572286Y21914770D01*
X113450001Y21926814D01*
X112549999Y21926814D01*
X112427714Y21914770D01*
X112310128Y21879101D01*
X112201760Y21821177D01*
X112106775Y21743225D01*
X112028823Y21648240D01*
X111970899Y21539872D01*
X111935230Y21422286D01*
X111923186Y21300001D01*
X104400000Y21300001D01*
X104400000Y23350001D01*
X111923186Y23350001D01*
X111923186Y22699999D01*
X111935230Y22577714D01*
X111970899Y22460128D01*
X112028823Y22351760D01*
X112106775Y22256775D01*
X112201760Y22178823D01*
X112310128Y22120899D01*
X112427714Y22085230D01*
X112549999Y22073186D01*
X113450001Y22073186D01*
X113572286Y22085230D01*
X113689872Y22120899D01*
X113798240Y22178823D01*
X113893225Y22256775D01*
X113971177Y22351760D01*
X114029101Y22460128D01*
X114064770Y22577714D01*
X114076814Y22699999D01*
X114076814Y23350001D01*
X114064770Y23472286D01*
X114029101Y23589872D01*
X113971177Y23698240D01*
X113893225Y23793225D01*
X113798240Y23871177D01*
X113689872Y23929101D01*
X113572286Y23964770D01*
X113561817Y23965801D01*
X113601982Y24005966D01*
X113686796Y24132900D01*
X113745217Y24273941D01*
X113775000Y24423669D01*
X113775000Y24576331D01*
X113745217Y24726059D01*
X113686796Y24867100D01*
X113601982Y24994034D01*
X113494034Y25101982D01*
X113367100Y25186796D01*
X113226059Y25245217D01*
X113076331Y25275000D01*
X112923669Y25275000D01*
X112773941Y25245217D01*
X112632900Y25186796D01*
X112505966Y25101982D01*
X112398018Y24994034D01*
X112313204Y24867100D01*
X112254783Y24726059D01*
X112225000Y24576331D01*
X112225000Y24423669D01*
X112254783Y24273941D01*
X112313204Y24132900D01*
X112398018Y24005966D01*
X112438183Y23965801D01*
X112427714Y23964770D01*
X112310128Y23929101D01*
X112201760Y23871177D01*
X112106775Y23793225D01*
X112028823Y23698240D01*
X111970899Y23589872D01*
X111935230Y23472286D01*
X111923186Y23350001D01*
X104400000Y23350001D01*
X104400000Y29150000D01*
X107271976Y29150000D01*
X107284043Y29027479D01*
X107319781Y28909666D01*
X107377817Y28801089D01*
X107455920Y28705920D01*
X107551089Y28627817D01*
X107659666Y28569781D01*
X107777479Y28534043D01*
X107900000Y28521976D01*
X108468750Y28525000D01*
X108625000Y28681250D01*
X108625000Y29875000D01*
X108875000Y29875000D01*
X108875000Y28681250D01*
X109031250Y28525000D01*
X109600000Y28521976D01*
X109722521Y28534043D01*
X109840334Y28569781D01*
X109948911Y28627817D01*
X110044080Y28705920D01*
X110122183Y28801089D01*
X110180219Y28909666D01*
X110215957Y29027479D01*
X110228024Y29150000D01*
X110225000Y29718750D01*
X110068750Y29875000D01*
X108875000Y29875000D01*
X108625000Y29875000D01*
X107431250Y29875000D01*
X107275000Y29718750D01*
X107271976Y29150000D01*
X104400000Y29150000D01*
X104400000Y30850000D01*
X107271976Y30850000D01*
X107275000Y30281250D01*
X107431250Y30125000D01*
X108625000Y30125000D01*
X108625000Y31318750D01*
X108875000Y31318750D01*
X108875000Y30125000D01*
X110068750Y30125000D01*
X110225000Y30281250D01*
X110228024Y30850000D01*
X132773186Y30850000D01*
X132773186Y29150000D01*
X132780426Y29076487D01*
X132801869Y29005800D01*
X132836691Y28940653D01*
X132883552Y28883552D01*
X132940653Y28836691D01*
X133005800Y28801869D01*
X133076487Y28780426D01*
X133150000Y28773186D01*
X134850000Y28773186D01*
X134923513Y28780426D01*
X134994200Y28801869D01*
X135059347Y28836691D01*
X135116448Y28883552D01*
X135163309Y28940653D01*
X135198131Y29005800D01*
X135219574Y29076487D01*
X135226814Y29150000D01*
X135226814Y30850000D01*
X135219574Y30923513D01*
X135198131Y30994200D01*
X135163309Y31059347D01*
X135116448Y31116448D01*
X135059347Y31163309D01*
X134994200Y31198131D01*
X134923513Y31219574D01*
X134850000Y31226814D01*
X133150000Y31226814D01*
X133076487Y31219574D01*
X133005800Y31198131D01*
X132940653Y31163309D01*
X132883552Y31116448D01*
X132836691Y31059347D01*
X132801869Y30994200D01*
X132780426Y30923513D01*
X132773186Y30850000D01*
X110228024Y30850000D01*
X110215957Y30972521D01*
X110180219Y31090334D01*
X110122183Y31198911D01*
X110044080Y31294080D01*
X109948911Y31372183D01*
X109840334Y31430219D01*
X109722521Y31465957D01*
X109600000Y31478024D01*
X109031250Y31475000D01*
X108875000Y31318750D01*
X108625000Y31318750D01*
X108468750Y31475000D01*
X107900000Y31478024D01*
X107777479Y31465957D01*
X107659666Y31430219D01*
X107551089Y31372183D01*
X107455920Y31294080D01*
X107377817Y31198911D01*
X107319781Y31090334D01*
X107284043Y30972521D01*
X107271976Y30850000D01*
X104400000Y30850000D01*
X104400000Y33600000D01*
X137600001Y33600000D01*
X137600000Y4400000D01*
M02*
