G04 #@! TF.GenerationSoftware,KiCad,Pcbnew,(5.1.4)-1*
G04 #@! TF.CreationDate,2019-11-19T22:58:14-05:00*
G04 #@! TF.ProjectId,Blinky,426c696e-6b79-42e6-9b69-6361645f7063,rev?*
G04 #@! TF.SameCoordinates,Original*
G04 #@! TF.FileFunction,Legend,Top*
G04 #@! TF.FilePolarity,Positive*
%FSLAX46Y46*%
G04 Gerber Fmt 4.6, Leading zero omitted, Abs format (unit mm)*
G04 Created by KiCad (PCBNEW (5.1.4)-1) date 2019-11-19 22:58:14*
%MOMM*%
%LPD*%
G04 APERTURE LIST*
%ADD10C,0.150000*%
%ADD11C,0.120000*%
G04 APERTURE END LIST*
D10*
X113697619Y29533333D02*
X114316666Y29533333D01*
X113573809Y29161904D02*
X114007142Y30461904D01*
X114440476Y29161904D01*
X114873809Y29161904D02*
X114873809Y30461904D01*
X115307142Y29533333D01*
X115740476Y30461904D01*
X115740476Y29161904D01*
X116359523Y29161904D02*
X116359523Y30461904D01*
X116854761Y30461904D01*
X116978571Y30400000D01*
X117040476Y30338095D01*
X117102380Y30214285D01*
X117102380Y30028571D01*
X117040476Y29904761D01*
X116978571Y29842857D01*
X116854761Y29780952D01*
X116359523Y29780952D01*
X119083333Y29842857D02*
X119269047Y29780952D01*
X119330952Y29719047D01*
X119392857Y29595238D01*
X119392857Y29409523D01*
X119330952Y29285714D01*
X119269047Y29223809D01*
X119145238Y29161904D01*
X118650000Y29161904D01*
X118650000Y30461904D01*
X119083333Y30461904D01*
X119207142Y30400000D01*
X119269047Y30338095D01*
X119330952Y30214285D01*
X119330952Y30090476D01*
X119269047Y29966666D01*
X119207142Y29904761D01*
X119083333Y29842857D01*
X118650000Y29842857D01*
X120135714Y29161904D02*
X120011904Y29223809D01*
X119950000Y29347619D01*
X119950000Y30461904D01*
X120630952Y29161904D02*
X120630952Y30028571D01*
X120630952Y30461904D02*
X120569047Y30400000D01*
X120630952Y30338095D01*
X120692857Y30400000D01*
X120630952Y30461904D01*
X120630952Y30338095D01*
X121250000Y30028571D02*
X121250000Y29161904D01*
X121250000Y29904761D02*
X121311904Y29966666D01*
X121435714Y30028571D01*
X121621428Y30028571D01*
X121745238Y29966666D01*
X121807142Y29842857D01*
X121807142Y29161904D01*
X122426190Y29161904D02*
X122426190Y30461904D01*
X122550000Y29657142D02*
X122921428Y29161904D01*
X122921428Y30028571D02*
X122426190Y29533333D01*
X123354761Y30028571D02*
X123664285Y29161904D01*
X123973809Y30028571D02*
X123664285Y29161904D01*
X123540476Y28852380D01*
X123478571Y28790476D01*
X123354761Y28728571D01*
X125459523Y29161904D02*
X125459523Y30461904D01*
X125954761Y30461904D01*
X126078571Y30400000D01*
X126140476Y30338095D01*
X126202380Y30214285D01*
X126202380Y30028571D01*
X126140476Y29904761D01*
X126078571Y29842857D01*
X125954761Y29780952D01*
X125459523Y29780952D01*
X127502380Y29285714D02*
X127440476Y29223809D01*
X127254761Y29161904D01*
X127130952Y29161904D01*
X126945238Y29223809D01*
X126821428Y29347619D01*
X126759523Y29471428D01*
X126697619Y29719047D01*
X126697619Y29904761D01*
X126759523Y30152380D01*
X126821428Y30276190D01*
X126945238Y30400000D01*
X127130952Y30461904D01*
X127254761Y30461904D01*
X127440476Y30400000D01*
X127502380Y30338095D01*
X128492857Y29842857D02*
X128678571Y29780952D01*
X128740476Y29719047D01*
X128802380Y29595238D01*
X128802380Y29409523D01*
X128740476Y29285714D01*
X128678571Y29223809D01*
X128554761Y29161904D01*
X128059523Y29161904D01*
X128059523Y30461904D01*
X128492857Y30461904D01*
X128616666Y30400000D01*
X128678571Y30338095D01*
X128740476Y30214285D01*
X128740476Y30090476D01*
X128678571Y29966666D01*
X128616666Y29904761D01*
X128492857Y29842857D01*
X128059523Y29842857D01*
D11*
X132670000Y31330000D02*
X134000000Y31330000D01*
X132670000Y30000000D02*
X132670000Y31330000D01*
X132670000Y28730000D02*
X135330000Y28730000D01*
X135330000Y28730000D02*
X135330000Y28670000D01*
X132670000Y28730000D02*
X132670000Y28670000D01*
X132670000Y28670000D02*
X135330000Y28670000D01*
X107420000Y31330000D02*
X108750000Y31330000D01*
X107420000Y30000000D02*
X107420000Y31330000D01*
X107420000Y28730000D02*
X110080000Y28730000D01*
X110080000Y28730000D02*
X110080000Y28670000D01*
X107420000Y28730000D02*
X107420000Y28670000D01*
X107420000Y28670000D02*
X110080000Y28670000D01*
X112290000Y18261252D02*
X112290000Y17738748D01*
X113710000Y18261252D02*
X113710000Y17738748D01*
X129290000Y17261252D02*
X129290000Y16738748D01*
X130710000Y17261252D02*
X130710000Y16738748D01*
X121000000Y16440000D02*
X122950000Y16440000D01*
X121000000Y16440000D02*
X119050000Y16440000D01*
X121000000Y21560000D02*
X122950000Y21560000D01*
X121000000Y21560000D02*
X117550000Y21560000D01*
X129290000Y21261252D02*
X129290000Y20738748D01*
X130710000Y21261252D02*
X130710000Y20738748D01*
X113960000Y12140000D02*
X113960000Y15000000D01*
X112040000Y12140000D02*
X113960000Y12140000D01*
X112040000Y15000000D02*
X112040000Y12140000D01*
X113710000Y21738748D02*
X113710000Y22261252D01*
X112290000Y21738748D02*
X112290000Y22261252D01*
D10*
X133009523Y28320000D02*
X132885714Y28381904D01*
X132700000Y28381904D01*
X132514285Y28320000D01*
X132390476Y28196190D01*
X132328571Y28072380D01*
X132266666Y27824761D01*
X132266666Y27639047D01*
X132328571Y27391428D01*
X132390476Y27267619D01*
X132514285Y27143809D01*
X132700000Y27081904D01*
X132823809Y27081904D01*
X133009523Y27143809D01*
X133071428Y27205714D01*
X133071428Y27639047D01*
X132823809Y27639047D01*
X133628571Y27081904D02*
X133628571Y28381904D01*
X134371428Y27081904D01*
X134371428Y28381904D01*
X134990476Y27081904D02*
X134990476Y28381904D01*
X135300000Y28381904D01*
X135485714Y28320000D01*
X135609523Y28196190D01*
X135671428Y28072380D01*
X135733333Y27824761D01*
X135733333Y27639047D01*
X135671428Y27391428D01*
X135609523Y27267619D01*
X135485714Y27143809D01*
X135300000Y27081904D01*
X134990476Y27081904D01*
X107140476Y28381904D02*
X107573809Y27081904D01*
X108007142Y28381904D01*
X108997619Y27081904D02*
X108997619Y28381904D01*
X108997619Y27143809D02*
X108873809Y27081904D01*
X108626190Y27081904D01*
X108502380Y27143809D01*
X108440476Y27205714D01*
X108378571Y27329523D01*
X108378571Y27700952D01*
X108440476Y27824761D01*
X108502380Y27886666D01*
X108626190Y27948571D01*
X108873809Y27948571D01*
X108997619Y27886666D01*
X110173809Y27081904D02*
X110173809Y28381904D01*
X110173809Y27143809D02*
X110050000Y27081904D01*
X109802380Y27081904D01*
X109678571Y27143809D01*
X109616666Y27205714D01*
X109554761Y27329523D01*
X109554761Y27700952D01*
X109616666Y27824761D01*
X109678571Y27886666D01*
X109802380Y27948571D01*
X110050000Y27948571D01*
X110173809Y27886666D01*
X111088095Y17971428D02*
X111088095Y17228571D01*
X111088095Y17600000D02*
X109788095Y17600000D01*
X109973809Y17476190D01*
X110097619Y17352380D01*
X110159523Y17228571D01*
X111088095Y18528571D02*
X109788095Y18528571D01*
X111088095Y19271428D02*
X110345238Y18714285D01*
X109788095Y19271428D02*
X110530952Y18528571D01*
X131971428Y15109523D02*
X132838095Y15109523D01*
X131476190Y14800000D02*
X132404761Y14490476D01*
X132404761Y15295238D01*
X131538095Y15666666D02*
X131538095Y16533333D01*
X132838095Y15976190D01*
X131538095Y17276190D02*
X131538095Y17400000D01*
X131600000Y17523809D01*
X131661904Y17585714D01*
X131785714Y17647619D01*
X132033333Y17709523D01*
X132342857Y17709523D01*
X132590476Y17647619D01*
X132714285Y17585714D01*
X132776190Y17523809D01*
X132838095Y17400000D01*
X132838095Y17276190D01*
X132776190Y17152380D01*
X132714285Y17090476D01*
X132590476Y17028571D01*
X132342857Y16966666D01*
X132033333Y16966666D01*
X131785714Y17028571D01*
X131661904Y17090476D01*
X131600000Y17152380D01*
X131538095Y17276190D01*
X132838095Y18266666D02*
X131538095Y18266666D01*
X132838095Y19009523D02*
X132095238Y18452380D01*
X131538095Y19009523D02*
X132280952Y18266666D01*
X120321428Y23961904D02*
X119702380Y23961904D01*
X119640476Y23342857D01*
X119702380Y23404761D01*
X119826190Y23466666D01*
X120135714Y23466666D01*
X120259523Y23404761D01*
X120321428Y23342857D01*
X120383333Y23219047D01*
X120383333Y22909523D01*
X120321428Y22785714D01*
X120259523Y22723809D01*
X120135714Y22661904D01*
X119826190Y22661904D01*
X119702380Y22723809D01*
X119640476Y22785714D01*
X121559523Y23961904D02*
X120940476Y23961904D01*
X120878571Y23342857D01*
X120940476Y23404761D01*
X121064285Y23466666D01*
X121373809Y23466666D01*
X121497619Y23404761D01*
X121559523Y23342857D01*
X121621428Y23219047D01*
X121621428Y22909523D01*
X121559523Y22785714D01*
X121497619Y22723809D01*
X121373809Y22661904D01*
X121064285Y22661904D01*
X120940476Y22723809D01*
X120878571Y22785714D01*
X122797619Y23961904D02*
X122178571Y23961904D01*
X122116666Y23342857D01*
X122178571Y23404761D01*
X122302380Y23466666D01*
X122611904Y23466666D01*
X122735714Y23404761D01*
X122797619Y23342857D01*
X122859523Y23219047D01*
X122859523Y22909523D01*
X122797619Y22785714D01*
X122735714Y22723809D01*
X122611904Y22661904D01*
X122302380Y22661904D01*
X122178571Y22723809D01*
X122116666Y22785714D01*
X132838095Y20721428D02*
X132838095Y19978571D01*
X132838095Y20350000D02*
X131538095Y20350000D01*
X131723809Y20226190D01*
X131847619Y20102380D01*
X131909523Y19978571D01*
X132838095Y21278571D02*
X131538095Y21278571D01*
X132838095Y22021428D02*
X132095238Y21464285D01*
X131538095Y22021428D02*
X132280952Y21278571D01*
X111088095Y12914285D02*
X111088095Y12295238D01*
X109788095Y12295238D01*
X110407142Y13347619D02*
X110407142Y13780952D01*
X111088095Y13966666D02*
X111088095Y13347619D01*
X109788095Y13347619D01*
X109788095Y13966666D01*
X111088095Y14523809D02*
X109788095Y14523809D01*
X109788095Y14833333D01*
X109850000Y15019047D01*
X109973809Y15142857D01*
X110097619Y15204761D01*
X110345238Y15266666D01*
X110530952Y15266666D01*
X110778571Y15204761D01*
X110902380Y15142857D01*
X111026190Y15019047D01*
X111088095Y14833333D01*
X111088095Y14523809D01*
X111338095Y21783333D02*
X111338095Y21040476D01*
X111338095Y21411904D02*
X110038095Y21411904D01*
X110223809Y21288095D01*
X110347619Y21164285D01*
X110409523Y21040476D01*
X110471428Y22897619D02*
X111338095Y22897619D01*
X110471428Y22340476D02*
X111152380Y22340476D01*
X111276190Y22402380D01*
X111338095Y22526190D01*
X111338095Y22711904D01*
X111276190Y22835714D01*
X111214285Y22897619D01*
M02*
